<?xml version="1.0" encoding="UTF-8"?>
<svg id="Camada_1" data-name="Camada 1" xmlns="http://www.w3.org/2000/svg" viewBox="0 0 159.94 159.93">
  <defs>
    <style>
      .cls-1 {
        fill: #009640;
      }
    </style>
  </defs>
  <path class="cls-1" d="m102.7,57.23V22.73c0-12.56-10.18-22.73-22.73-22.73h0c-12.56,0-22.73,10.18-22.73,22.73v34.49H22.73c-12.56,0-22.73,10.18-22.73,22.73h0c0,12.56,10.18,22.73,22.73,22.73h34.49v34.5c0,12.56,10.18,22.73,22.73,22.73h0c12.56,0,22.73-10.18,22.73-22.73v-34.5h34.51c12.56,0,22.73-10.18,22.73-22.73h0c0-12.56-10.18-22.73-22.73-22.73h-34.51Z"/>
</svg>