<?xml version="1.0" encoding="UTF-8"?>
<svg id="Camada_1" data-name="Camada 1" xmlns="http://www.w3.org/2000/svg" viewBox="0 0 229.99 144.48">
  <defs>
    <style>
      .cls-1 {
        fill: #ddd;
      }

      .cls-2 {
        fill: #e9e9e9;
      }

      .cls-3 {
        fill: #dbdbdb;
      }

      .cls-4 {
        fill: #e2e2e2;
      }

      .cls-5 {
        fill: #ebeaea;
      }

      .cls-6 {
        fill: #dcdbdb;
      }

      .cls-7 {
        fill: #e0e0e0;
      }

      .cls-8 {
        fill: #e6e5e5;
      }

      .cls-9 {
        fill: #dedede;
      }

      .cls-10 {
        fill: #e1e1e1;
      }

      .cls-11 {
        fill: #e6e6e6;
      }

      .cls-12 {
        fill: #e7e7e7;
      }

      .cls-13 {
        fill: #dadada;
      }

      .cls-14 {
        fill: #eaeaea;
      }

      .cls-15 {
        fill: #e4e4e4;
      }

      .cls-16 {
        fill: #e5e5e5;
      }

      .cls-17 {
        fill: #ebebeb;
      }

      .cls-18 {
        fill: #dcdcdc;
      }

      .cls-19 {
        fill: #e8e8e8;
      }

      .cls-20 {
        fill: #e1e0e0;
      }

      .cls-21 {
        fill: #e3e3e2;
      }

      .cls-22 {
        fill: #ececec;
      }

      .cls-23 {
        fill: #e3e3e3;
      }

      .cls-24 {
        fill: #ededed;
      }

      .cls-25 {
        fill: #dfdfdf;
      }
    </style>
  </defs>
  <path class="cls-23" d="m180.15,135.83s-2.21,5.59-11.91,8.65c0,0,5.79-6.4-.34-8.65s12.26,0,12.26,0Z"/>
  <g>
    <rect class="cls-24" x=".98" y="56.71" width="229.02" height="79.12" rx="24.07" ry="24.07"/>
    <rect class="cls-22" x=".94" y="54.52" width="229.02" height="79.12" rx="24.07" ry="24.07"/>
    <rect class="cls-17" x=".9" y="52.34" width="229.02" height="79.12" rx="24.07" ry="24.07"/>
    <rect class="cls-5" x=".86" y="50.16" width="229.02" height="79.12" rx="24.07" ry="24.07"/>
    <rect class="cls-14" x=".83" y="47.98" width="229.02" height="79.12" rx="24.07" ry="24.07"/>
    <rect class="cls-2" x=".79" y="45.8" width="229.02" height="79.12" rx="24.07" ry="24.07"/>
    <rect class="cls-19" x=".75" y="43.62" width="229.02" height="79.12" rx="24.07" ry="24.07"/>
    <rect class="cls-19" x=".71" y="41.44" width="229.02" height="79.12" rx="24.07" ry="24.07"/>
    <rect class="cls-12" x=".68" y="39.26" width="229.02" height="79.12" rx="24.07" ry="24.07"/>
    <rect class="cls-11" x=".64" y="37.08" width="229.02" height="79.12" rx="24.07" ry="24.07"/>
    <rect class="cls-8" x=".6" y="34.9" width="229.02" height="79.12" rx="24.07" ry="24.07"/>
    <rect class="cls-16" x=".56" y="32.71" width="229.02" height="79.12" rx="24.07" ry="24.07"/>
    <rect class="cls-15" x=".53" y="30.53" width="229.02" height="79.12" rx="24.07" ry="24.07"/>
    <rect class="cls-23" x=".49" y="28.35" width="229.02" height="79.12" rx="24.07" ry="24.07"/>
    <rect class="cls-21" x=".45" y="26.17" width="229.02" height="79.12" rx="24.07" ry="24.07"/>
    <rect class="cls-4" x=".41" y="23.99" width="229.02" height="79.12" rx="24.07" ry="24.07"/>
    <rect class="cls-10" x=".38" y="21.81" width="229.02" height="79.12" rx="24.07" ry="24.07"/>
    <rect class="cls-20" x=".34" y="19.63" width="229.02" height="79.12" rx="24.07" ry="24.07"/>
    <rect class="cls-7" x=".3" y="17.45" width="229.02" height="79.12" rx="24.07" ry="24.07"/>
    <rect class="cls-25" x=".26" y="15.27" width="229.02" height="79.12" rx="24.07" ry="24.07"/>
    <rect class="cls-9" x=".23" y="13.09" width="229.02" height="79.12" rx="24.07" ry="24.07"/>
    <rect class="cls-9" x=".19" y="10.9" width="229.02" height="79.12" rx="24.07" ry="24.07"/>
    <rect class="cls-1" x=".15" y="8.72" width="229.02" height="79.12" rx="24.07" ry="24.07"/>
    <rect class="cls-18" x=".11" y="6.54" width="229.02" height="79.12" rx="24.07" ry="24.07"/>
    <rect class="cls-6" x=".08" y="4.36" width="229.02" height="79.12" rx="24.07" ry="24.07"/>
    <rect class="cls-3" x=".04" y="2.18" width="229.02" height="79.12" rx="24.07" ry="24.07"/>
    <rect class="cls-13" x="0" y="0" width="229.02" height="79.12" rx="24.07" ry="24.07"/>
  </g>
  <path class="cls-23" d="m17.26,0h194.49C221.28,0,229.02,7.73,229.02,17.26v17.26H0v-17.26C0,7.73,7.73,0,17.26,0Z"/>
</svg>