<?xml version="1.0" encoding="UTF-8"?>
<svg id="Camada_1" data-name="Camada 1" xmlns="http://www.w3.org/2000/svg" viewBox="0 0 620.7 513.51">
  <defs>
    <style>
      .cls-1 {
        fill: #312783;
      }

      .cls-2 {
        fill: #fff;
      }

      .cls-3 {
        fill: #d7a982;
      }

      .cls-4 {
        fill: #f39200;
      }

      .cls-5 {
        fill: #be1622;
      }

      .cls-6 {
        fill: #dd887e;
      }

      .cls-7 {
        fill: #1e1e1c;
      }

      .cls-8 {
        fill: #29235c;
      }

      .cls-9 {
        fill: #f7a434;
      }

      .cls-10 {
        fill: #fab334;
      }

      .cls-11 {
        fill: #eeb98e;
      }

      .cls-12 {
        fill: #e49934;
      }

      .cls-13 {
        fill: #3ba9e0;
      }

      .cls-14 {
        fill: #354293;
      }

      .cls-15 {
        fill: #a2151b;
      }

      .cls-16 {
        fill: #1d1d1b;
      }

      .cls-17 {
        fill: #ededed;
      }
    </style>
  </defs>
  <g>
    <circle class="cls-1" cx="26.18" cy="441.83" r="15.59"/>
    <circle class="cls-1" cx="26.34" cy="441.83" r="15.59"/>
    <circle class="cls-1" cx="26.49" cy="441.83" r="15.59"/>
    <circle class="cls-1" cx="26.64" cy="441.82" r="15.59"/>
    <circle class="cls-1" cx="26.79" cy="441.82" r="15.59"/>
    <circle class="cls-1" cx="26.94" cy="441.82" r="15.59"/>
    <circle class="cls-1" cx="27.09" cy="441.82" r="15.59"/>
    <circle class="cls-1" cx="27.24" cy="441.82" r="15.59"/>
    <circle class="cls-1" cx="27.39" cy="441.81" r="15.59"/>
    <circle class="cls-1" cx="27.54" cy="441.81" r="15.59"/>
    <circle class="cls-1" cx="27.7" cy="441.81" r="15.59"/>
    <circle class="cls-1" cx="27.85" cy="441.81" r="15.59"/>
    <circle class="cls-1" cx="28" cy="441.81" r="15.59"/>
    <circle class="cls-1" cx="28.15" cy="441.8" r="15.59"/>
    <circle class="cls-1" cx="28.3" cy="441.8" r="15.59"/>
    <circle class="cls-1" cx="28.45" cy="441.8" r="15.59"/>
    <circle class="cls-1" cx="28.6" cy="441.8" r="15.59"/>
    <circle class="cls-1" cx="28.75" cy="441.79" r="15.59"/>
    <circle class="cls-1" cx="28.9" cy="441.79" r="15.59"/>
    <circle class="cls-1" cx="29.06" cy="441.79" r="15.59"/>
    <circle class="cls-1" cx="29.21" cy="441.79" r="15.59"/>
    <circle class="cls-1" cx="29.36" cy="441.79" r="15.59"/>
    <circle class="cls-1" cx="29.51" cy="441.78" r="15.59"/>
    <circle class="cls-1" cx="29.66" cy="441.78" r="15.59"/>
    <circle class="cls-1" cx="29.81" cy="441.78" r="15.59"/>
    <circle class="cls-1" cx="29.96" cy="441.78" r="15.59"/>
    <circle class="cls-1" cx="30.11" cy="441.78" r="15.59"/>
    <circle class="cls-1" cx="30.26" cy="441.77" r="15.59"/>
    <circle class="cls-1" cx="30.42" cy="441.77" r="15.59"/>
    <circle class="cls-1" cx="30.57" cy="441.77" r="15.59"/>
    <circle class="cls-1" cx="30.72" cy="441.77" r="15.59"/>
    <circle class="cls-1" cx="30.87" cy="441.76" r="15.59"/>
    <circle class="cls-1" cx="31.02" cy="441.76" r="15.59"/>
    <circle class="cls-1" cx="31.17" cy="441.76" r="15.59"/>
    <circle class="cls-1" cx="31.32" cy="441.76" r="15.59"/>
    <circle class="cls-1" cx="31.47" cy="441.76" r="15.59"/>
    <circle class="cls-1" cx="31.62" cy="441.75" r="15.59"/>
    <circle class="cls-1" cx="31.78" cy="441.75" r="15.59"/>
    <circle class="cls-1" cx="31.93" cy="441.75" r="15.59"/>
    <circle class="cls-1" cx="32.08" cy="441.75" r="15.59"/>
    <circle class="cls-1" cx="32.23" cy="441.75" r="15.59"/>
    <circle class="cls-1" cx="32.38" cy="441.74" r="15.59"/>
    <circle class="cls-1" cx="32.53" cy="441.74" r="15.59"/>
    <circle class="cls-1" cx="32.68" cy="441.74" r="15.59"/>
    <circle class="cls-1" cx="32.83" cy="441.74" r="15.59"/>
    <circle class="cls-1" cx="32.98" cy="441.73" r="15.59"/>
    <circle class="cls-1" cx="33.14" cy="441.73" r="15.59"/>
    <circle class="cls-1" cx="33.29" cy="441.73" r="15.59"/>
    <circle class="cls-1" cx="33.44" cy="441.73" r="15.59"/>
    <circle class="cls-1" cx="33.59" cy="441.73" r="15.59"/>
    <circle class="cls-1" cx="33.74" cy="441.72" r="15.59"/>
    <circle class="cls-1" cx="33.89" cy="441.72" r="15.59"/>
    <circle class="cls-1" cx="34.04" cy="441.72" r="15.59"/>
    <circle class="cls-1" cx="34.19" cy="441.72" r="15.59"/>
    <circle class="cls-1" cx="34.34" cy="441.72" r="15.59"/>
    <circle class="cls-1" cx="34.5" cy="441.71" r="15.59"/>
    <circle class="cls-1" cx="34.65" cy="441.71" r="15.59"/>
    <circle class="cls-1" cx="34.8" cy="441.71" r="15.59"/>
    <circle class="cls-1" cx="34.95" cy="441.71" r="15.59"/>
    <circle class="cls-1" cx="35.1" cy="441.7" r="15.59"/>
    <circle class="cls-1" cx="35.25" cy="441.7" r="15.59"/>
    <circle class="cls-1" cx="35.4" cy="441.7" r="15.59"/>
    <circle class="cls-1" cx="35.55" cy="441.7" r="15.59"/>
    <circle class="cls-1" cx="35.7" cy="441.7" r="15.59"/>
    <circle class="cls-1" cx="35.86" cy="441.69" r="15.59"/>
    <circle class="cls-1" cx="36.01" cy="441.69" r="15.59"/>
    <circle class="cls-1" cx="36.16" cy="441.69" r="15.59"/>
    <circle class="cls-1" cx="36.31" cy="441.69" r="15.59"/>
    <circle class="cls-1" cx="36.46" cy="441.69" r="15.59"/>
    <circle class="cls-1" cx="36.61" cy="441.68" r="15.59"/>
    <circle class="cls-1" cx="36.76" cy="441.68" r="15.59"/>
    <circle class="cls-1" cx="36.91" cy="441.68" r="15.59"/>
    <circle class="cls-1" cx="37.06" cy="441.68" r="15.59"/>
    <circle class="cls-1" cx="37.22" cy="441.67" r="15.59"/>
    <circle class="cls-1" cx="37.37" cy="441.67" r="15.59"/>
    <circle class="cls-1" cx="37.52" cy="441.67" r="15.59"/>
    <circle class="cls-1" cx="37.67" cy="441.67" r="15.59"/>
    <circle class="cls-1" cx="37.82" cy="441.67" r="15.59"/>
    <circle class="cls-1" cx="37.97" cy="441.66" r="15.59"/>
    <circle class="cls-1" cx="38.12" cy="441.66" r="15.59"/>
    <circle class="cls-1" cx="38.27" cy="441.66" r="15.59"/>
    <circle class="cls-1" cx="38.42" cy="441.66" r="15.59"/>
    <circle class="cls-1" cx="38.58" cy="441.66" r="15.59"/>
    <circle class="cls-1" cx="38.73" cy="441.65" r="15.59"/>
    <circle class="cls-1" cx="38.88" cy="441.65" r="15.59"/>
    <circle class="cls-1" cx="39.03" cy="441.65" r="15.59"/>
    <circle class="cls-1" cx="39.18" cy="441.65" r="15.59"/>
    <circle class="cls-1" cx="39.33" cy="441.64" r="15.59"/>
    <circle class="cls-1" cx="39.48" cy="441.64" r="15.59"/>
    <circle class="cls-1" cx="39.63" cy="441.64" r="15.59"/>
    <circle class="cls-1" cx="39.78" cy="441.64" r="15.59"/>
    <circle class="cls-1" cx="39.94" cy="441.64" r="15.59"/>
    <circle class="cls-1" cx="40.09" cy="441.63" r="15.59"/>
    <circle class="cls-1" cx="40.24" cy="441.63" r="15.59"/>
    <circle class="cls-1" cx="40.39" cy="441.63" r="15.59"/>
    <circle class="cls-1" cx="40.54" cy="441.63" r="15.59"/>
    <circle class="cls-1" cx="40.69" cy="441.63" r="15.59"/>
    <circle class="cls-1" cx="40.84" cy="441.62" r="15.59"/>
    <circle class="cls-1" cx="40.99" cy="441.62" r="15.59"/>
    <circle class="cls-1" cx="41.14" cy="441.62" r="15.59"/>
    <circle class="cls-1" cx="41.3" cy="441.62" r="15.59"/>
    <circle class="cls-1" cx="41.45" cy="441.61" r="15.59"/>
    <circle class="cls-1" cx="41.6" cy="441.61" r="15.59"/>
    <circle class="cls-1" cx="41.75" cy="441.61" r="15.59"/>
    <circle class="cls-1" cx="41.9" cy="441.61" r="15.59"/>
    <circle class="cls-1" cx="42.05" cy="441.61" r="15.59"/>
    <circle class="cls-1" cx="42.2" cy="441.6" r="15.59"/>
    <circle class="cls-1" cx="42.35" cy="441.6" r="15.59"/>
    <circle class="cls-1" cx="42.5" cy="441.6" r="15.59"/>
    <circle class="cls-1" cx="42.66" cy="441.6" r="15.59"/>
    <circle class="cls-1" cx="42.81" cy="441.6" r="15.59"/>
    <circle class="cls-1" cx="42.96" cy="441.59" r="15.59"/>
    <circle class="cls-1" cx="43.11" cy="441.59" r="15.59"/>
    <circle class="cls-1" cx="43.26" cy="441.59" r="15.59"/>
    <circle class="cls-1" cx="43.41" cy="441.59" r="15.59"/>
    <circle class="cls-1" cx="43.56" cy="441.58" r="15.59"/>
    <circle class="cls-1" cx="43.71" cy="441.58" r="15.59"/>
    <circle class="cls-1" cx="43.86" cy="441.58" r="15.59"/>
    <circle class="cls-1" cx="44.02" cy="441.58" r="15.59"/>
    <circle class="cls-1" cx="44.17" cy="441.58" r="15.59"/>
    <circle class="cls-1" cx="44.32" cy="441.57" r="15.59"/>
    <circle class="cls-1" cx="44.47" cy="441.57" r="15.59"/>
    <circle class="cls-1" cx="44.62" cy="441.57" r="15.59"/>
    <circle class="cls-1" cx="44.77" cy="441.57" r="15.59"/>
    <circle class="cls-1" cx="44.92" cy="441.57" r="15.59"/>
    <circle class="cls-1" cx="45.07" cy="441.56" r="15.59"/>
    <circle class="cls-1" cx="45.22" cy="441.56" r="15.59"/>
    <circle class="cls-1" cx="45.38" cy="441.56" r="15.59"/>
    <circle class="cls-1" cx="45.53" cy="441.56" r="15.59"/>
    <circle class="cls-1" cx="45.68" cy="441.55" r="15.59"/>
    <circle class="cls-1" cx="45.83" cy="441.55" r="15.59"/>
    <circle class="cls-1" cx="45.98" cy="441.55" r="15.59"/>
    <circle class="cls-1" cx="46.13" cy="441.55" r="15.59"/>
    <circle class="cls-1" cx="46.28" cy="441.55" r="15.59"/>
    <circle class="cls-1" cx="46.43" cy="441.54" r="15.59"/>
    <circle class="cls-1" cx="46.58" cy="441.54" r="15.59"/>
    <circle class="cls-1" cx="46.74" cy="441.54" r="15.59"/>
    <circle class="cls-1" cx="46.89" cy="441.54" r="15.59"/>
    <circle class="cls-1" cx="47.04" cy="441.54" r="15.59"/>
    <circle class="cls-1" cx="47.19" cy="441.53" r="15.59"/>
    <circle class="cls-1" cx="47.34" cy="441.53" r="15.59"/>
    <circle class="cls-1" cx="47.49" cy="441.53" r="15.59"/>
    <circle class="cls-1" cx="47.64" cy="441.53" r="15.59"/>
    <circle class="cls-1" cx="47.79" cy="441.52" r="15.59"/>
    <circle class="cls-1" cx="47.94" cy="441.52" r="15.59"/>
    <circle class="cls-1" cx="48.1" cy="441.52" r="15.59"/>
    <circle class="cls-1" cx="48.25" cy="441.52" r="15.59"/>
    <circle class="cls-1" cx="48.4" cy="441.52" r="15.59"/>
    <circle class="cls-1" cx="48.55" cy="441.51" r="15.59"/>
    <circle class="cls-1" cx="48.7" cy="441.51" r="15.59"/>
    <circle class="cls-1" cx="48.85" cy="441.51" r="15.59"/>
    <circle class="cls-1" cx="49" cy="441.51" r="15.59"/>
    <circle class="cls-1" cx="49.15" cy="441.51" r="15.59"/>
    <circle class="cls-1" cx="49.3" cy="441.5" r="15.59"/>
    <circle class="cls-1" cx="49.46" cy="441.5" r="15.59"/>
    <circle class="cls-1" cx="49.61" cy="441.5" r="15.59"/>
    <circle class="cls-1" cx="49.76" cy="441.5" r="15.59"/>
    <circle class="cls-1" cx="49.91" cy="441.49" r="15.59"/>
    <circle class="cls-1" cx="50.06" cy="441.49" r="15.59"/>
    <circle class="cls-1" cx="50.21" cy="441.49" r="15.59"/>
    <circle class="cls-1" cx="50.36" cy="441.49" r="15.59"/>
    <circle class="cls-1" cx="50.51" cy="441.49" r="15.59"/>
    <circle class="cls-1" cx="50.66" cy="441.48" r="15.59"/>
    <circle class="cls-1" cx="50.82" cy="441.48" r="15.59"/>
    <circle class="cls-1" cx="50.97" cy="441.48" r="15.59"/>
    <circle class="cls-1" cx="51.12" cy="441.48" r="15.59"/>
    <circle class="cls-1" cx="51.27" cy="441.48" r="15.59"/>
    <circle class="cls-1" cx="51.42" cy="441.47" r="15.59"/>
    <circle class="cls-1" cx="51.57" cy="441.47" r="15.59"/>
    <circle class="cls-1" cx="51.72" cy="441.47" r="15.59"/>
    <circle class="cls-1" cx="51.87" cy="441.47" r="15.59"/>
    <circle class="cls-1" cx="52.02" cy="441.46" r="15.59"/>
    <circle class="cls-1" cx="52.18" cy="441.46" r="15.59"/>
    <circle class="cls-1" cx="52.33" cy="441.46" r="15.59"/>
    <circle class="cls-1" cx="52.48" cy="441.46" r="15.59"/>
    <circle class="cls-1" cx="52.63" cy="441.46" r="15.59"/>
    <circle class="cls-1" cx="52.78" cy="441.45" r="15.59"/>
    <circle class="cls-1" cx="52.93" cy="441.45" r="15.59"/>
    <circle class="cls-1" cx="53.08" cy="441.45" r="15.59"/>
    <circle class="cls-1" cx="53.23" cy="441.45" r="15.59"/>
    <circle class="cls-1" cx="53.38" cy="441.45" r="15.59"/>
    <circle class="cls-1" cx="53.54" cy="441.44" r="15.59"/>
    <circle class="cls-1" cx="53.69" cy="441.44" r="15.59"/>
    <circle class="cls-1" cx="53.84" cy="441.44" r="15.59"/>
    <circle class="cls-1" cx="53.99" cy="441.44" r="15.59"/>
    <circle class="cls-1" cx="54.14" cy="441.43" r="15.59"/>
    <circle class="cls-1" cx="54.29" cy="441.43" r="15.59"/>
    <circle class="cls-1" cx="54.44" cy="441.43" r="15.59"/>
    <circle class="cls-1" cx="54.59" cy="441.43" r="15.59"/>
    <circle class="cls-1" cx="54.74" cy="441.43" r="15.59"/>
    <circle class="cls-1" cx="54.9" cy="441.42" r="15.59"/>
    <circle class="cls-1" cx="55.05" cy="441.42" r="15.59"/>
    <circle class="cls-1" cx="55.2" cy="441.42" r="15.59"/>
    <circle class="cls-1" cx="55.35" cy="441.42" r="15.59"/>
    <circle class="cls-1" cx="55.5" cy="441.42" r="15.59"/>
    <circle class="cls-1" cx="55.65" cy="441.41" r="15.59"/>
    <circle class="cls-1" cx="55.8" cy="441.41" r="15.59"/>
    <circle class="cls-1" cx="55.95" cy="441.41" r="15.59"/>
    <circle class="cls-1" cx="56.1" cy="441.41" r="15.59"/>
    <circle class="cls-1" cx="56.26" cy="441.4" r="15.59"/>
    <circle class="cls-1" cx="56.41" cy="441.4" r="15.59"/>
    <circle class="cls-1" cx="56.56" cy="441.4" r="15.59"/>
    <circle class="cls-1" cx="56.71" cy="441.4" r="15.59"/>
    <circle class="cls-1" cx="56.86" cy="441.4" r="15.59"/>
    <circle class="cls-1" cx="57.01" cy="441.39" r="15.59"/>
    <circle class="cls-1" cx="57.16" cy="441.39" r="15.59"/>
    <circle class="cls-1" cx="57.31" cy="441.39" r="15.59"/>
    <circle class="cls-1" cx="57.46" cy="441.39" r="15.59"/>
    <circle class="cls-1" cx="57.62" cy="441.39" r="15.59"/>
    <circle class="cls-1" cx="57.77" cy="441.38" r="15.59"/>
    <circle class="cls-1" cx="57.92" cy="441.38" r="15.59"/>
    <circle class="cls-1" cx="58.07" cy="441.38" r="15.59"/>
    <circle class="cls-1" cx="58.22" cy="441.38" r="15.59"/>
    <circle class="cls-1" cx="58.37" cy="441.37" r="15.59"/>
    <circle class="cls-1" cx="58.52" cy="441.37" r="15.59"/>
    <circle class="cls-1" cx="58.67" cy="441.37" r="15.59"/>
    <circle class="cls-1" cx="58.82" cy="441.37" r="15.59"/>
    <circle class="cls-1" cx="58.98" cy="441.37" r="15.59"/>
    <circle class="cls-1" cx="59.13" cy="441.36" r="15.59"/>
    <circle class="cls-1" cx="59.28" cy="441.36" r="15.59"/>
    <circle class="cls-1" cx="59.43" cy="441.36" r="15.59"/>
    <circle class="cls-1" cx="59.58" cy="441.36" r="15.59"/>
    <circle class="cls-1" cx="59.73" cy="441.36" r="15.59"/>
    <circle class="cls-1" cx="59.88" cy="441.35" r="15.59"/>
    <circle class="cls-1" cx="60.03" cy="441.35" r="15.59"/>
    <circle class="cls-1" cx="60.18" cy="441.35" r="15.59"/>
    <circle class="cls-1" cx="60.34" cy="441.35" r="15.59"/>
    <circle class="cls-1" cx="60.49" cy="441.34" r="15.59"/>
    <circle class="cls-1" cx="60.64" cy="441.34" r="15.59"/>
    <circle class="cls-1" cx="60.79" cy="441.34" r="15.59"/>
    <circle class="cls-1" cx="60.94" cy="441.34" r="15.59"/>
    <circle class="cls-1" cx="61.09" cy="441.34" r="15.59"/>
    <circle class="cls-1" cx="61.24" cy="441.33" r="15.59"/>
    <circle class="cls-1" cx="61.39" cy="441.33" r="15.59"/>
    <circle class="cls-1" cx="61.54" cy="441.33" r="15.59"/>
    <circle class="cls-1" cx="61.7" cy="441.33" r="15.59"/>
    <circle class="cls-1" cx="61.85" cy="441.33" r="15.59"/>
    <circle class="cls-1" cx="62" cy="441.32" r="15.59"/>
    <circle class="cls-1" cx="62.15" cy="441.32" r="15.59"/>
    <circle class="cls-1" cx="62.3" cy="441.32" r="15.59"/>
    <circle class="cls-1" cx="62.45" cy="441.32" r="15.59"/>
    <circle class="cls-1" cx="62.6" cy="441.31" r="15.59"/>
    <circle class="cls-1" cx="62.75" cy="441.31" r="15.59"/>
    <circle class="cls-1" cx="62.9" cy="441.31" r="15.59"/>
    <circle class="cls-1" cx="63.06" cy="441.31" r="15.59"/>
    <circle class="cls-1" cx="63.21" cy="441.31" r="15.59"/>
    <circle class="cls-1" cx="63.36" cy="441.3" r="15.59"/>
    <circle class="cls-1" cx="63.51" cy="441.3" r="15.59"/>
    <circle class="cls-1" cx="63.66" cy="441.3" r="15.59"/>
    <circle class="cls-1" cx="63.81" cy="441.3" r="15.59"/>
    <circle class="cls-1" cx="63.96" cy="441.3" r="15.59"/>
    <circle class="cls-1" cx="64.11" cy="441.29" r="15.59"/>
    <circle class="cls-1" cx="64.26" cy="441.29" r="15.59"/>
    <circle class="cls-1" cx="64.42" cy="441.29" r="15.59"/>
    <circle class="cls-1" cx="64.57" cy="441.29" r="15.59"/>
    <circle class="cls-1" cx="64.72" cy="441.28" r="15.59"/>
    <circle class="cls-1" cx="64.87" cy="441.28" r="15.59"/>
    <circle class="cls-1" cx="65.02" cy="441.28" r="15.59"/>
    <circle class="cls-1" cx="65.17" cy="441.28" r="15.59"/>
    <circle class="cls-1" cx="65.32" cy="441.28" r="15.59"/>
    <circle class="cls-1" cx="65.47" cy="441.27" r="15.59"/>
    <circle class="cls-1" cx="65.62" cy="441.27" r="15.59"/>
    <circle class="cls-1" cx="65.78" cy="441.27" r="15.59"/>
    <circle class="cls-1" cx="65.93" cy="441.27" r="15.59"/>
    <circle class="cls-1" cx="66.08" cy="441.27" r="15.59"/>
    <circle class="cls-1" cx="66.23" cy="441.26" r="15.59"/>
    <circle class="cls-1" cx="66.38" cy="441.26" r="15.59"/>
    <circle class="cls-1" cx="66.53" cy="441.26" r="15.59"/>
    <circle class="cls-1" cx="66.68" cy="441.26" r="15.59"/>
    <circle class="cls-1" cx="66.83" cy="441.25" r="15.59"/>
    <circle class="cls-1" cx="66.98" cy="441.25" r="15.59"/>
    <circle class="cls-1" cx="67.14" cy="441.25" r="15.59"/>
    <circle class="cls-1" cx="67.29" cy="441.25" r="15.59"/>
    <circle class="cls-1" cx="67.44" cy="441.25" r="15.59"/>
    <circle class="cls-1" cx="67.59" cy="441.24" r="15.59"/>
    <circle class="cls-1" cx="67.74" cy="441.24" r="15.59"/>
    <circle class="cls-1" cx="67.89" cy="441.24" r="15.59"/>
    <circle class="cls-1" cx="68.04" cy="441.24" r="15.59"/>
    <circle class="cls-1" cx="68.19" cy="441.24" r="15.59"/>
    <circle class="cls-1" cx="68.34" cy="441.23" r="15.59"/>
    <circle class="cls-1" cx="68.5" cy="441.23" r="15.59"/>
    <circle class="cls-1" cx="68.65" cy="441.23" r="15.59"/>
    <circle class="cls-1" cx="68.8" cy="441.23" r="15.59"/>
    <circle class="cls-1" cx="68.95" cy="441.22" r="15.59"/>
    <circle class="cls-1" cx="69.1" cy="441.22" r="15.59"/>
    <circle class="cls-1" cx="69.25" cy="441.22" r="15.59"/>
    <circle class="cls-1" cx="69.4" cy="441.22" r="15.59"/>
    <circle class="cls-1" cx="69.55" cy="441.22" r="15.59"/>
    <circle class="cls-1" cx="69.7" cy="441.21" r="15.59"/>
    <circle class="cls-1" cx="69.86" cy="441.21" r="15.59"/>
    <circle class="cls-1" cx="70.01" cy="441.21" r="15.59"/>
    <circle class="cls-1" cx="70.16" cy="441.21" r="15.59"/>
    <circle class="cls-1" cx="70.31" cy="441.21" r="15.59"/>
    <circle class="cls-1" cx="70.46" cy="441.2" r="15.59"/>
    <circle class="cls-1" cx="70.61" cy="441.2" r="15.59"/>
    <circle class="cls-1" cx="70.76" cy="441.2" r="15.59"/>
    <circle class="cls-1" cx="70.91" cy="441.2" r="15.59"/>
    <circle class="cls-1" cx="71.06" cy="441.19" r="15.59"/>
    <circle class="cls-1" cx="71.22" cy="441.19" r="15.59"/>
    <circle class="cls-1" cx="71.37" cy="441.19" r="15.59"/>
    <circle class="cls-1" cx="71.52" cy="441.19" r="15.59"/>
    <circle class="cls-1" cx="71.67" cy="441.19" r="15.59"/>
  </g>
  <g>
    <circle class="cls-14" cx="64.14" cy="417" r="15.59"/>
    <circle class="cls-14" cx="64.01" cy="417.08" r="15.59"/>
    <circle class="cls-14" cx="63.89" cy="417.16" r="15.59"/>
    <circle class="cls-14" cx="63.76" cy="417.25" r="15.59"/>
    <circle class="cls-14" cx="63.63" cy="417.33" r="15.59"/>
    <circle class="cls-14" cx="63.51" cy="417.41" r="15.59"/>
    <circle class="cls-14" cx="63.38" cy="417.49" r="15.59"/>
    <circle class="cls-14" cx="63.25" cy="417.58" r="15.59"/>
    <circle class="cls-14" cx="63.13" cy="417.66" r="15.59"/>
    <circle class="cls-14" cx="63" cy="417.74" r="15.59"/>
    <circle class="cls-14" cx="62.87" cy="417.82" r="15.59"/>
    <circle class="cls-14" cx="62.75" cy="417.91" r="15.59"/>
    <circle class="cls-14" cx="62.62" cy="417.99" r="15.59"/>
    <circle class="cls-14" cx="62.49" cy="418.07" r="15.59"/>
    <circle class="cls-14" cx="62.37" cy="418.15" r="15.59"/>
    <circle class="cls-14" cx="62.24" cy="418.24" r="15.59"/>
    <circle class="cls-14" cx="62.12" cy="418.32" r="15.59"/>
    <circle class="cls-14" cx="61.99" cy="418.4" r="15.59"/>
    <circle class="cls-14" cx="61.86" cy="418.48" r="15.59"/>
    <circle class="cls-14" cx="61.74" cy="418.57" r="15.59"/>
    <circle class="cls-14" cx="61.61" cy="418.65" r="15.59"/>
    <circle class="cls-14" cx="61.48" cy="418.73" r="15.59"/>
    <circle class="cls-14" cx="61.36" cy="418.81" r="15.59"/>
    <circle class="cls-14" cx="61.23" cy="418.9" r="15.59"/>
    <circle class="cls-14" cx="61.1" cy="418.98" r="15.59"/>
    <circle class="cls-14" cx="60.98" cy="419.06" r="15.59"/>
    <circle class="cls-14" cx="60.85" cy="419.14" r="15.59"/>
    <circle class="cls-14" cx="60.72" cy="419.23" r="15.59"/>
    <circle class="cls-14" cx="60.6" cy="419.31" r="15.59"/>
    <circle class="cls-14" cx="60.47" cy="419.39" r="15.59"/>
    <circle class="cls-14" cx="60.34" cy="419.47" r="15.59"/>
    <circle class="cls-14" cx="60.22" cy="419.56" r="15.59"/>
    <circle class="cls-14" cx="60.09" cy="419.64" r="15.59"/>
    <circle class="cls-14" cx="59.96" cy="419.72" r="15.59"/>
    <circle class="cls-14" cx="59.84" cy="419.8" r="15.59"/>
    <circle class="cls-14" cx="59.71" cy="419.89" r="15.59"/>
    <circle class="cls-14" cx="59.58" cy="419.97" r="15.59"/>
    <circle class="cls-14" cx="59.46" cy="420.05" r="15.59"/>
    <circle class="cls-14" cx="59.33" cy="420.13" r="15.59"/>
    <circle class="cls-14" cx="59.2" cy="420.22" r="15.59"/>
    <circle class="cls-14" cx="59.08" cy="420.3" r="15.59"/>
    <circle class="cls-14" cx="58.95" cy="420.38" r="15.59"/>
    <circle class="cls-14" cx="58.82" cy="420.46" r="15.59"/>
    <circle class="cls-14" cx="58.7" cy="420.55" r="15.59"/>
    <circle class="cls-14" cx="58.57" cy="420.63" r="15.59"/>
    <circle class="cls-14" cx="58.44" cy="420.71" r="15.59"/>
    <circle class="cls-14" cx="58.32" cy="420.79" r="15.59"/>
    <circle class="cls-14" cx="58.19" cy="420.88" r="15.59"/>
    <circle class="cls-14" cx="58.06" cy="420.96" r="15.59"/>
    <circle class="cls-14" cx="57.94" cy="421.04" r="15.59"/>
    <circle class="cls-14" cx="57.81" cy="421.12" r="15.59"/>
    <circle class="cls-14" cx="57.68" cy="421.21" r="15.59"/>
    <circle class="cls-14" cx="57.56" cy="421.29" r="15.59"/>
    <circle class="cls-14" cx="57.43" cy="421.37" r="15.59"/>
    <circle class="cls-14" cx="57.3" cy="421.45" r="15.59"/>
    <circle class="cls-14" cx="57.18" cy="421.54" r="15.59"/>
    <circle class="cls-14" cx="57.05" cy="421.62" r="15.59"/>
    <circle class="cls-14" cx="56.92" cy="421.7" r="15.59"/>
    <circle class="cls-14" cx="56.8" cy="421.78" r="15.59"/>
    <circle class="cls-14" cx="56.67" cy="421.87" r="15.59"/>
    <circle class="cls-14" cx="56.54" cy="421.95" r="15.59"/>
    <circle class="cls-14" cx="56.42" cy="422.03" r="15.59"/>
    <circle class="cls-14" cx="56.29" cy="422.11" r="15.59"/>
    <circle class="cls-14" cx="56.16" cy="422.2" r="15.59"/>
    <circle class="cls-14" cx="56.04" cy="422.28" r="15.59"/>
    <circle class="cls-14" cx="55.91" cy="422.36" r="15.59"/>
    <circle class="cls-14" cx="55.78" cy="422.44" r="15.59"/>
    <circle class="cls-14" cx="55.66" cy="422.53" r="15.59"/>
    <circle class="cls-14" cx="55.53" cy="422.61" r="15.59"/>
    <circle class="cls-14" cx="55.4" cy="422.69" r="15.59"/>
    <circle class="cls-14" cx="55.28" cy="422.77" r="15.59"/>
    <circle class="cls-14" cx="55.15" cy="422.86" r="15.59"/>
    <circle class="cls-14" cx="55.02" cy="422.94" r="15.59"/>
    <circle class="cls-14" cx="54.9" cy="423.02" r="15.59"/>
    <circle class="cls-14" cx="54.77" cy="423.1" r="15.59"/>
    <circle class="cls-14" cx="54.64" cy="423.19" r="15.59"/>
    <circle class="cls-14" cx="54.52" cy="423.27" r="15.59"/>
    <circle class="cls-14" cx="54.39" cy="423.35" r="15.59"/>
    <circle class="cls-14" cx="54.26" cy="423.43" r="15.59"/>
    <circle class="cls-14" cx="54.14" cy="423.52" r="15.59"/>
    <circle class="cls-14" cx="54.01" cy="423.6" r="15.59"/>
    <circle class="cls-14" cx="53.88" cy="423.68" r="15.59"/>
    <circle class="cls-14" cx="53.76" cy="423.76" r="15.59"/>
    <circle class="cls-14" cx="53.63" cy="423.85" r="15.59"/>
    <circle class="cls-14" cx="53.5" cy="423.93" r="15.59"/>
    <circle class="cls-14" cx="53.38" cy="424.01" r="15.59"/>
    <circle class="cls-14" cx="53.25" cy="424.09" r="15.59"/>
    <circle class="cls-14" cx="53.13" cy="424.18" r="15.59"/>
    <circle class="cls-14" cx="53" cy="424.26" r="15.59"/>
    <circle class="cls-14" cx="52.87" cy="424.34" r="15.59"/>
    <circle class="cls-14" cx="52.75" cy="424.42" r="15.59"/>
    <circle class="cls-14" cx="52.62" cy="424.51" r="15.59"/>
    <circle class="cls-14" cx="52.49" cy="424.59" r="15.59"/>
    <circle class="cls-14" cx="52.37" cy="424.67" r="15.59"/>
    <circle class="cls-14" cx="52.24" cy="424.75" r="15.59"/>
    <circle class="cls-14" cx="52.11" cy="424.84" r="15.59"/>
    <circle class="cls-14" cx="51.99" cy="424.92" r="15.59"/>
    <circle class="cls-14" cx="51.86" cy="425" r="15.59"/>
    <circle class="cls-14" cx="51.73" cy="425.08" r="15.59"/>
    <circle class="cls-14" cx="51.61" cy="425.17" r="15.59"/>
    <circle class="cls-14" cx="51.48" cy="425.25" r="15.59"/>
    <circle class="cls-14" cx="51.35" cy="425.33" r="15.59"/>
    <circle class="cls-14" cx="51.23" cy="425.41" r="15.59"/>
    <circle class="cls-14" cx="51.1" cy="425.5" r="15.59"/>
    <circle class="cls-14" cx="50.97" cy="425.58" r="15.59"/>
    <circle class="cls-14" cx="50.85" cy="425.66" r="15.59"/>
    <circle class="cls-14" cx="50.72" cy="425.74" r="15.59"/>
    <circle class="cls-14" cx="50.59" cy="425.83" r="15.59"/>
    <circle class="cls-14" cx="50.47" cy="425.91" r="15.59"/>
    <circle class="cls-14" cx="50.34" cy="425.99" r="15.59"/>
    <circle class="cls-14" cx="50.21" cy="426.07" r="15.59"/>
    <circle class="cls-14" cx="50.09" cy="426.16" r="15.59"/>
    <circle class="cls-14" cx="49.96" cy="426.24" r="15.59"/>
    <circle class="cls-14" cx="49.83" cy="426.32" r="15.59"/>
    <circle class="cls-14" cx="49.71" cy="426.4" r="15.59"/>
    <circle class="cls-14" cx="49.58" cy="426.49" r="15.59"/>
    <circle class="cls-14" cx="49.45" cy="426.57" r="15.59"/>
    <circle class="cls-14" cx="49.33" cy="426.65" r="15.59"/>
    <circle class="cls-14" cx="49.2" cy="426.73" r="15.59"/>
    <circle class="cls-14" cx="49.07" cy="426.82" r="15.59"/>
    <circle class="cls-14" cx="48.95" cy="426.9" r="15.59"/>
    <circle class="cls-14" cx="48.82" cy="426.98" r="15.59"/>
    <circle class="cls-14" cx="48.69" cy="427.06" r="15.59"/>
    <circle class="cls-14" cx="48.57" cy="427.15" r="15.59"/>
    <circle class="cls-14" cx="48.44" cy="427.23" r="15.59"/>
    <circle class="cls-14" cx="48.31" cy="427.31" r="15.59"/>
    <circle class="cls-14" cx="48.19" cy="427.39" r="15.59"/>
    <circle class="cls-14" cx="48.06" cy="427.48" r="15.59"/>
    <circle class="cls-14" cx="47.93" cy="427.56" r="15.59"/>
    <circle class="cls-14" cx="47.81" cy="427.64" r="15.59"/>
    <circle class="cls-14" cx="47.68" cy="427.72" r="15.59"/>
    <circle class="cls-14" cx="47.55" cy="427.81" r="15.59"/>
    <circle class="cls-14" cx="47.43" cy="427.89" r="15.59"/>
    <circle class="cls-14" cx="47.3" cy="427.97" r="15.59"/>
    <circle class="cls-14" cx="47.17" cy="428.05" r="15.59"/>
    <circle class="cls-14" cx="47.05" cy="428.14" r="15.59"/>
    <circle class="cls-14" cx="46.92" cy="428.22" r="15.59"/>
    <circle class="cls-14" cx="46.79" cy="428.3" r="15.59"/>
    <circle class="cls-14" cx="46.67" cy="428.38" r="15.59"/>
    <circle class="cls-14" cx="46.54" cy="428.47" r="15.59"/>
    <circle class="cls-14" cx="46.41" cy="428.55" r="15.59"/>
    <circle class="cls-14" cx="46.29" cy="428.63" r="15.59"/>
    <circle class="cls-14" cx="46.16" cy="428.71" r="15.59"/>
    <circle class="cls-14" cx="46.03" cy="428.8" r="15.59"/>
    <circle class="cls-14" cx="45.91" cy="428.88" r="15.59"/>
    <circle class="cls-14" cx="45.78" cy="428.96" r="15.59"/>
    <circle class="cls-14" cx="45.65" cy="429.04" r="15.59"/>
    <circle class="cls-14" cx="45.53" cy="429.13" r="15.59"/>
    <circle class="cls-14" cx="45.4" cy="429.21" r="15.59"/>
    <circle class="cls-14" cx="45.27" cy="429.29" r="15.59"/>
    <circle class="cls-14" cx="45.15" cy="429.37" r="15.59"/>
    <circle class="cls-14" cx="45.02" cy="429.46" r="15.59"/>
    <circle class="cls-14" cx="44.89" cy="429.54" r="15.59"/>
    <circle class="cls-14" cx="44.77" cy="429.62" r="15.59"/>
    <circle class="cls-14" cx="44.64" cy="429.7" r="15.59"/>
    <circle class="cls-14" cx="44.51" cy="429.79" r="15.59"/>
    <circle class="cls-14" cx="44.39" cy="429.87" r="15.59"/>
    <circle class="cls-14" cx="44.26" cy="429.95" r="15.59"/>
    <circle class="cls-14" cx="44.14" cy="430.03" r="15.59"/>
    <circle class="cls-14" cx="44.01" cy="430.12" r="15.59"/>
    <circle class="cls-14" cx="43.88" cy="430.2" r="15.59"/>
    <circle class="cls-14" cx="43.76" cy="430.28" r="15.59"/>
    <circle class="cls-14" cx="43.63" cy="430.36" r="15.59"/>
    <circle class="cls-14" cx="43.5" cy="430.45" r="15.59"/>
    <circle class="cls-14" cx="43.38" cy="430.53" r="15.59"/>
    <circle class="cls-14" cx="43.25" cy="430.61" r="15.59"/>
    <circle class="cls-14" cx="43.12" cy="430.69" r="15.59"/>
    <circle class="cls-14" cx="43" cy="430.78" r="15.59"/>
    <circle class="cls-14" cx="42.87" cy="430.86" r="15.59"/>
    <circle class="cls-14" cx="42.74" cy="430.94" r="15.59"/>
    <circle class="cls-14" cx="42.62" cy="431.02" r="15.59"/>
    <circle class="cls-14" cx="42.49" cy="431.11" r="15.59"/>
    <circle class="cls-14" cx="42.36" cy="431.19" r="15.59"/>
    <circle class="cls-14" cx="42.24" cy="431.27" r="15.59"/>
    <circle class="cls-14" cx="42.11" cy="431.35" r="15.59"/>
    <circle class="cls-14" cx="41.98" cy="431.44" r="15.59"/>
    <circle class="cls-14" cx="41.86" cy="431.52" r="15.59"/>
    <circle class="cls-14" cx="41.73" cy="431.6" r="15.59"/>
    <circle class="cls-14" cx="41.6" cy="431.68" r="15.59"/>
    <circle class="cls-14" cx="41.48" cy="431.77" r="15.59"/>
    <circle class="cls-14" cx="41.35" cy="431.85" r="15.59"/>
    <circle class="cls-14" cx="41.22" cy="431.93" r="15.59"/>
    <circle class="cls-14" cx="41.1" cy="432.01" r="15.59"/>
    <circle class="cls-14" cx="40.97" cy="432.1" r="15.59"/>
    <circle class="cls-14" cx="40.84" cy="432.18" r="15.59"/>
    <circle class="cls-14" cx="40.72" cy="432.26" r="15.59"/>
    <circle class="cls-14" cx="40.59" cy="432.34" r="15.59"/>
    <circle class="cls-14" cx="40.46" cy="432.43" r="15.59"/>
    <circle class="cls-14" cx="40.34" cy="432.51" r="15.59"/>
    <circle class="cls-14" cx="40.21" cy="432.59" r="15.59"/>
    <circle class="cls-14" cx="40.08" cy="432.67" r="15.59"/>
    <circle class="cls-14" cx="39.96" cy="432.76" r="15.59"/>
    <circle class="cls-14" cx="39.83" cy="432.84" r="15.59"/>
    <circle class="cls-14" cx="39.7" cy="432.92" r="15.59"/>
    <circle class="cls-14" cx="39.58" cy="433" r="15.59"/>
    <circle class="cls-14" cx="39.45" cy="433.09" r="15.59"/>
    <circle class="cls-14" cx="39.32" cy="433.17" r="15.59"/>
    <circle class="cls-14" cx="39.2" cy="433.25" r="15.59"/>
    <circle class="cls-14" cx="39.07" cy="433.33" r="15.59"/>
    <circle class="cls-14" cx="38.94" cy="433.42" r="15.59"/>
    <circle class="cls-14" cx="38.82" cy="433.5" r="15.59"/>
    <circle class="cls-14" cx="38.69" cy="433.58" r="15.59"/>
    <circle class="cls-14" cx="38.56" cy="433.66" r="15.59"/>
    <circle class="cls-14" cx="38.44" cy="433.75" r="15.59"/>
    <circle class="cls-14" cx="38.31" cy="433.83" r="15.59"/>
    <circle class="cls-14" cx="38.18" cy="433.91" r="15.59"/>
    <circle class="cls-14" cx="38.06" cy="433.99" r="15.59"/>
    <circle class="cls-14" cx="37.93" cy="434.08" r="15.59"/>
    <circle class="cls-14" cx="37.8" cy="434.16" r="15.59"/>
    <circle class="cls-14" cx="37.68" cy="434.24" r="15.59"/>
    <circle class="cls-14" cx="37.55" cy="434.32" r="15.59"/>
    <circle class="cls-14" cx="37.42" cy="434.41" r="15.59"/>
    <circle class="cls-14" cx="37.3" cy="434.49" r="15.59"/>
    <circle class="cls-14" cx="37.17" cy="434.57" r="15.59"/>
    <circle class="cls-14" cx="37.04" cy="434.65" r="15.59"/>
    <circle class="cls-14" cx="36.92" cy="434.74" r="15.59"/>
    <circle class="cls-14" cx="36.79" cy="434.82" r="15.59"/>
    <circle class="cls-14" cx="36.66" cy="434.9" r="15.59"/>
    <circle class="cls-14" cx="36.54" cy="434.98" r="15.59"/>
    <circle class="cls-14" cx="36.41" cy="435.07" r="15.59"/>
    <circle class="cls-14" cx="36.28" cy="435.15" r="15.59"/>
    <circle class="cls-14" cx="36.16" cy="435.23" r="15.59"/>
    <circle class="cls-14" cx="36.03" cy="435.31" r="15.59"/>
    <circle class="cls-14" cx="35.9" cy="435.4" r="15.59"/>
    <circle class="cls-14" cx="35.78" cy="435.48" r="15.59"/>
    <circle class="cls-14" cx="35.65" cy="435.56" r="15.59"/>
    <circle class="cls-14" cx="35.52" cy="435.64" r="15.59"/>
    <circle class="cls-14" cx="35.4" cy="435.73" r="15.59"/>
    <circle class="cls-14" cx="35.27" cy="435.81" r="15.59"/>
    <circle class="cls-14" cx="35.15" cy="435.89" r="15.59"/>
    <circle class="cls-14" cx="35.02" cy="435.97" r="15.59"/>
    <circle class="cls-14" cx="34.89" cy="436.06" r="15.59"/>
    <circle class="cls-14" cx="34.77" cy="436.14" r="15.59"/>
    <circle class="cls-14" cx="34.64" cy="436.22" r="15.59"/>
    <circle class="cls-14" cx="34.51" cy="436.3" r="15.59"/>
    <circle class="cls-14" cx="34.39" cy="436.39" r="15.59"/>
    <circle class="cls-14" cx="34.26" cy="436.47" r="15.59"/>
    <circle class="cls-14" cx="34.13" cy="436.55" r="15.59"/>
    <circle class="cls-14" cx="34.01" cy="436.63" r="15.59"/>
    <circle class="cls-14" cx="33.88" cy="436.72" r="15.59"/>
    <circle class="cls-14" cx="33.75" cy="436.8" r="15.59"/>
    <circle class="cls-14" cx="33.63" cy="436.88" r="15.59"/>
    <circle class="cls-14" cx="33.5" cy="436.96" r="15.59"/>
    <circle class="cls-14" cx="33.37" cy="437.05" r="15.59"/>
    <circle class="cls-14" cx="33.25" cy="437.13" r="15.59"/>
    <circle class="cls-14" cx="33.12" cy="437.21" r="15.59"/>
    <circle class="cls-14" cx="32.99" cy="437.29" r="15.59"/>
    <circle class="cls-14" cx="32.87" cy="437.38" r="15.59"/>
    <circle class="cls-14" cx="32.74" cy="437.46" r="15.59"/>
    <circle class="cls-14" cx="32.61" cy="437.54" r="15.59"/>
    <circle class="cls-14" cx="32.49" cy="437.62" r="15.59"/>
    <circle class="cls-14" cx="32.36" cy="437.71" r="15.59"/>
    <circle class="cls-14" cx="32.23" cy="437.79" r="15.59"/>
    <circle class="cls-14" cx="32.11" cy="437.87" r="15.59"/>
    <circle class="cls-14" cx="31.98" cy="437.95" r="15.59"/>
    <circle class="cls-14" cx="31.85" cy="438.04" r="15.59"/>
    <circle class="cls-14" cx="31.73" cy="438.12" r="15.59"/>
    <circle class="cls-14" cx="31.6" cy="438.2" r="15.59"/>
    <circle class="cls-14" cx="31.47" cy="438.28" r="15.59"/>
    <circle class="cls-14" cx="31.35" cy="438.37" r="15.59"/>
    <circle class="cls-14" cx="31.22" cy="438.45" r="15.59"/>
    <circle class="cls-14" cx="31.09" cy="438.53" r="15.59"/>
    <circle class="cls-14" cx="30.97" cy="438.61" r="15.59"/>
    <circle class="cls-14" cx="30.84" cy="438.7" r="15.59"/>
    <circle class="cls-14" cx="30.71" cy="438.78" r="15.59"/>
    <circle class="cls-14" cx="30.59" cy="438.86" r="15.59"/>
    <circle class="cls-14" cx="30.46" cy="438.94" r="15.59"/>
    <circle class="cls-14" cx="30.33" cy="439.03" r="15.59"/>
    <circle class="cls-14" cx="30.21" cy="439.11" r="15.59"/>
    <circle class="cls-14" cx="30.08" cy="439.19" r="15.59"/>
    <circle class="cls-14" cx="29.95" cy="439.27" r="15.59"/>
    <circle class="cls-14" cx="29.83" cy="439.36" r="15.59"/>
    <circle class="cls-14" cx="29.7" cy="439.44" r="15.59"/>
    <circle class="cls-14" cx="29.57" cy="439.52" r="15.59"/>
    <circle class="cls-14" cx="29.45" cy="439.6" r="15.59"/>
    <circle class="cls-14" cx="29.32" cy="439.69" r="15.59"/>
    <circle class="cls-14" cx="29.19" cy="439.77" r="15.59"/>
    <circle class="cls-14" cx="29.07" cy="439.85" r="15.59"/>
    <circle class="cls-14" cx="28.94" cy="439.93" r="15.59"/>
    <circle class="cls-14" cx="28.81" cy="440.02" r="15.59"/>
    <circle class="cls-14" cx="28.69" cy="440.1" r="15.59"/>
    <circle class="cls-14" cx="28.56" cy="440.18" r="15.59"/>
    <circle class="cls-14" cx="28.43" cy="440.26" r="15.59"/>
    <circle class="cls-14" cx="28.31" cy="440.35" r="15.59"/>
    <circle class="cls-14" cx="28.18" cy="440.43" r="15.59"/>
    <circle class="cls-14" cx="28.05" cy="440.51" r="15.59"/>
    <circle class="cls-14" cx="27.93" cy="440.59" r="15.59"/>
    <circle class="cls-14" cx="27.8" cy="440.68" r="15.59"/>
    <circle class="cls-14" cx="27.67" cy="440.76" r="15.59"/>
    <circle class="cls-14" cx="27.55" cy="440.84" r="15.59"/>
    <circle class="cls-14" cx="27.42" cy="440.92" r="15.59"/>
    <circle class="cls-14" cx="27.29" cy="441.01" r="15.59"/>
    <circle class="cls-14" cx="27.17" cy="441.09" r="15.59"/>
    <circle class="cls-14" cx="27.04" cy="441.17" r="15.59"/>
    <circle class="cls-14" cx="26.91" cy="441.25" r="15.59"/>
    <circle class="cls-14" cx="26.79" cy="441.34" r="15.59"/>
    <circle class="cls-14" cx="26.66" cy="441.42" r="15.59"/>
    <circle class="cls-14" cx="26.53" cy="441.5" r="15.59"/>
    <circle class="cls-14" cx="26.41" cy="441.58" r="15.59"/>
    <circle class="cls-14" cx="26.28" cy="441.67" r="15.59"/>
    <circle class="cls-14" cx="26.16" cy="441.75" r="15.59"/>
    <circle class="cls-14" cx="26.03" cy="441.83" r="15.59"/>
  </g>
  <path class="cls-11" d="m43.51,471.6h0c-1.56-4.04.31-8.64,4.16-10.27l29.24-12.39c3.85-1.63,8.24.32,9.79,4.36h0c1.56,4.04-.31,8.64-4.16,10.27l-29.24,12.39c-3.85,1.63-8.24-.32-9.79-4.36Z"/>
  <rect class="cls-16" x="139.77" y="476.19" width="64.45" height="32.65" rx="12" ry="12" transform="translate(-111.71 54.72) rotate(-13.69)"/>
  <path class="cls-8" d="m92.88,414.9h120.79c6.62,0,12,5.38,12,12v34.78c0,15.35-12.47,27.82-27.82,27.82h-77.15c-15.35,0-27.82-12.47-27.82-27.82v-46.78h0Z" transform="translate(-86.43 40.52) rotate(-11.43)"/>
  <path class="cls-14" d="m71.86,379.95h152.73c6.62,0,12,5.38,12,12v41.12c0,22.82-18.53,41.35-41.35,41.35h-82.03c-22.82,0-41.35-18.53-41.35-41.35v-53.12h0Z" transform="translate(-81.57 39.02) rotate(-11.43)"/>
  <path class="cls-3" d="m211.36,396.19l-139.66,27.97c-11.07,2.22-22.17-6.17-24.67-18.65l-1.03-5.17-13.88-69.3-2.96-14.8c-2.49-12.47,4.51-24.49,15.59-26.71l96.16-19.25,15.05-10.12,1.86-1.25c9.62-.04,18.28,6.74,20.24,16.5l6.54,32.64h0s29.72-1.67,29.72-1.67l12.63,63.1c2.49,12.47-4.51,24.49-15.59,26.71Z"/>
  <path class="cls-11" d="m180.92,394.26l-110.76,22.17c-11.07,2.22-21.94-5.03-24.16-16.1l-13.88-69.3-2.96-14.8-2.12-10.58c-2.22-11.08,5.03-21.95,16.11-24.17l21.03-4.21,76.07-15.23,13.66-2.74c.75-.15,1.51-.26,2.25-.32.56-.06,1.12-.08,1.68-.08,9.62-.04,18.28,6.74,20.24,16.5l6.54,32.64h0s12.43,62.05,12.43,62.05c2.22,11.08-5.04,21.95-16.11,24.17Z"/>
  <path class="cls-6" d="m119.28,373.75c-.89,2.58-3.09,4.63-5.97,5.2-3.14.62-6.21-.68-7.99-3.09-.67-.9-1.15-1.97-1.4-3.16-.29-1.44.12-3.95.79-6.64.64-2.57,1.52-5.32,2.26-7.48l4.33-.87c1.21,1.36,2.64,3.03,3.97,4.72,2.09,2.66,3.93,5.4,4.28,7.12.29,1.44.17,2.88-.28,4.18Z"/>
  <rect class="cls-2" x="120.02" y="310.75" width="36.11" height="54.48" rx="18.05" ry="18.05" transform="translate(-63.68 33.69) rotate(-11.32)"/>
  <rect class="cls-2" x="60.47" y="322.7" width="36.11" height="54.48" rx="18.05" ry="18.05" transform="translate(-67.18 22.23) rotate(-11.32)"/>
  <path class="cls-2" d="m105.3,391l.05-.54c.3-3.21,2.9-5.69,6.12-5.84,7.8-.39,21.85-2.68,29.77-13.46,1.85-2.52,5.17-3.46,8.01-2.14h0c3.63,1.7,4.86,6.29,2.53,9.55-7.16,10.01-17.54,14.81-26.73,17.06-4.89,1.2-9.45,1.69-13.01,1.85-3.9.18-7.04-3.15-6.67-7.04"/>
  <path class="cls-7" d="m52.96,351.44l-7.46,9.45c-.72-4.25,2.09-8.38,6.36-9.23l1.1-.22Z"/>
  <path class="cls-7" d="m162.8,371.15l-23.32,4.66,29.23-37.01,3.61,18.05c1.31,6.55-2.97,12.99-9.52,14.3Z"/>
  <path class="cls-9" d="m74.47,296.11l-42.34,34.94h0s-5.08-25.4-5.08-25.4c-2.22-11.08,5.03-21.95,16.11-24.17l21.03-4.21,10.3,18.83Z"/>
  <path class="cls-9" d="m184.6,308.04h0s-44.36-24.22-44.36-24.22v-21.77l13.66-2.74c11.08-2.22,21.95,5.03,24.17,16.1l6.54,32.64Z"/>
  <path class="cls-12" d="m184.6,308.05h0s-6.54-32.65-6.54-32.65c-1.95-9.76-10.62-16.53-20.24-16.5l.84-.56,31.1,2.94h0c9.1.88,17.23,8.47,19.33,18.92l5.24,26.17-29.72,1.68Z"/>
  <g>
    <circle class="cls-14" cx="227.46" cy="410.1" r="18.6"/>
    <circle class="cls-14" cx="227.58" cy="409.98" r="18.66"/>
    <circle class="cls-14" cx="227.69" cy="409.87" r="18.72"/>
    <circle class="cls-14" cx="227.81" cy="409.76" r="18.79"/>
    <circle class="cls-14" cx="227.93" cy="409.64" r="18.85"/>
    <circle class="cls-14" cx="228.04" cy="409.53" r="18.91"/>
    <circle class="cls-14" cx="228.16" cy="409.41" r="18.98"/>
    <circle class="cls-14" cx="228.28" cy="409.3" r="19.04"/>
    <circle class="cls-14" cx="228.39" cy="409.19" r="19.1"/>
    <circle class="cls-14" cx="228.51" cy="409.07" r="19.17"/>
    <circle class="cls-14" cx="228.63" cy="408.96" r="19.23"/>
    <circle class="cls-14" cx="228.74" cy="408.84" r="19.29"/>
    <circle class="cls-14" cx="228.86" cy="408.73" r="19.36"/>
    <circle class="cls-14" cx="228.97" cy="408.62" r="19.42"/>
    <circle class="cls-14" cx="229.09" cy="408.5" r="19.48"/>
    <circle class="cls-14" cx="229.21" cy="408.39" r="19.55"/>
    <circle class="cls-14" cx="229.32" cy="408.27" r="19.61"/>
    <circle class="cls-14" cx="229.44" cy="408.16" r="19.67"/>
    <circle class="cls-14" cx="229.56" cy="408.05" r="19.74"/>
    <circle class="cls-14" cx="229.67" cy="407.93" r="19.8"/>
    <circle class="cls-14" cx="229.79" cy="407.82" r="19.86"/>
    <circle class="cls-14" cx="229.91" cy="407.71" r="19.93"/>
    <circle class="cls-14" cx="230.02" cy="407.59" r="19.99"/>
    <circle class="cls-14" cx="230.14" cy="407.48" r="20.05"/>
    <circle class="cls-14" cx="230.26" cy="407.36" r="20.12"/>
    <circle class="cls-14" cx="230.37" cy="407.25" r="20.18"/>
    <circle class="cls-14" cx="230.49" cy="407.14" r="20.24"/>
    <circle class="cls-14" cx="230.61" cy="407.02" r="20.31"/>
    <circle class="cls-14" cx="230.72" cy="406.91" r="20.37"/>
    <circle class="cls-14" cx="230.84" cy="406.79" r="20.43"/>
    <circle class="cls-14" cx="230.96" cy="406.68" r="20.5"/>
    <circle class="cls-14" cx="231.07" cy="406.57" r="20.56"/>
    <circle class="cls-14" cx="231.19" cy="406.45" r="20.62"/>
    <circle class="cls-14" cx="231.3" cy="406.34" r="20.69"/>
    <circle class="cls-14" cx="231.42" cy="406.22" r="20.75"/>
    <circle class="cls-14" cx="231.54" cy="406.11" r="20.81"/>
    <circle class="cls-14" cx="231.65" cy="406" r="20.88"/>
    <circle class="cls-14" cx="231.77" cy="405.88" r="20.94"/>
    <circle class="cls-14" cx="231.89" cy="405.77" r="21"/>
    <circle class="cls-14" cx="232" cy="405.65" r="21.07"/>
    <circle class="cls-14" cx="232.12" cy="405.54" r="21.13"/>
    <circle class="cls-14" cx="232.24" cy="405.43" r="21.19"/>
    <circle class="cls-14" cx="232.35" cy="405.31" r="21.26"/>
    <circle class="cls-14" cx="232.47" cy="405.2" r="21.32"/>
    <circle class="cls-14" cx="232.59" cy="405.09" r="21.38"/>
    <circle class="cls-14" cx="232.7" cy="404.97" r="21.45"/>
    <circle class="cls-14" cx="232.82" cy="404.86" r="21.51"/>
    <circle class="cls-14" cx="232.94" cy="404.74" r="21.57"/>
    <circle class="cls-14" cx="233.05" cy="404.63" r="21.64"/>
    <circle class="cls-14" cx="233.17" cy="404.52" r="21.7"/>
    <circle class="cls-14" cx="233.28" cy="404.4" r="21.76"/>
    <circle class="cls-14" cx="233.4" cy="404.29" r="21.83"/>
    <circle class="cls-14" cx="233.52" cy="404.17" r="21.89"/>
    <circle class="cls-14" cx="233.63" cy="404.06" r="21.95"/>
    <circle class="cls-14" cx="233.75" cy="403.95" r="22.02"/>
    <circle class="cls-14" cx="233.87" cy="403.83" r="22.08"/>
    <circle class="cls-14" cx="233.98" cy="403.72" r="22.14"/>
    <circle class="cls-14" cx="234.1" cy="403.6" r="22.21"/>
    <circle class="cls-14" cx="234.22" cy="403.49" r="22.27"/>
    <circle class="cls-14" cx="234.33" cy="403.38" r="22.33"/>
    <circle class="cls-14" cx="234.45" cy="403.26" r="22.4"/>
    <circle class="cls-14" cx="234.57" cy="403.15" r="22.46"/>
    <circle class="cls-14" cx="234.68" cy="403.03" r="22.52"/>
    <circle class="cls-14" cx="234.8" cy="402.92" r="22.59"/>
    <circle class="cls-14" cx="234.92" cy="402.81" r="22.65"/>
    <circle class="cls-14" cx="235.03" cy="402.69" r="22.71"/>
    <circle class="cls-14" cx="235.15" cy="402.58" r="22.78"/>
    <circle class="cls-14" cx="235.27" cy="402.47" r="22.84"/>
    <circle class="cls-14" cx="235.38" cy="402.35" r="22.9"/>
    <circle class="cls-14" cx="235.5" cy="402.24" r="22.97"/>
    <circle class="cls-14" cx="235.61" cy="402.12" r="23.03"/>
    <circle class="cls-14" cx="235.73" cy="402.01" r="23.09"/>
    <circle class="cls-14" cx="235.85" cy="401.9" r="23.16"/>
    <circle class="cls-14" cx="235.96" cy="401.78" r="23.22"/>
    <circle class="cls-14" cx="236.08" cy="401.67" r="23.28"/>
    <circle class="cls-14" cx="236.2" cy="401.55" r="23.35"/>
    <circle class="cls-14" cx="236.31" cy="401.44" r="23.41"/>
    <circle class="cls-14" cx="236.43" cy="401.33" r="23.47"/>
    <circle class="cls-14" cx="236.55" cy="401.21" r="23.54"/>
    <circle class="cls-14" cx="236.66" cy="401.1" r="23.6"/>
    <circle class="cls-14" cx="236.78" cy="400.98" r="23.66"/>
    <circle class="cls-14" cx="236.9" cy="400.87" r="23.73"/>
    <circle class="cls-14" cx="237.01" cy="400.76" r="23.79"/>
    <circle class="cls-14" cx="237.13" cy="400.64" r="23.85"/>
    <circle class="cls-14" cx="237.25" cy="400.53" r="23.92"/>
    <circle class="cls-14" cx="237.36" cy="400.42" r="23.98"/>
    <circle class="cls-14" cx="237.48" cy="400.3" r="24.04"/>
    <circle class="cls-14" cx="237.6" cy="400.19" r="24.11"/>
    <circle class="cls-14" cx="237.71" cy="400.07" r="24.17"/>
    <circle class="cls-14" cx="237.83" cy="399.96" r="24.23"/>
    <circle class="cls-14" cx="237.94" cy="399.85" r="24.3"/>
    <circle class="cls-14" cx="238.06" cy="399.73" r="24.36"/>
    <circle class="cls-14" cx="238.18" cy="399.62" r="24.42"/>
    <circle class="cls-14" cx="238.29" cy="399.5" r="24.49"/>
    <circle class="cls-14" cx="238.41" cy="399.39" r="24.55"/>
    <circle class="cls-14" cx="238.53" cy="399.28" r="24.61"/>
    <circle class="cls-14" cx="238.64" cy="399.16" r="24.68"/>
    <circle class="cls-14" cx="238.76" cy="399.05" r="24.74"/>
    <circle class="cls-14" cx="238.88" cy="398.93" r="24.8"/>
    <circle class="cls-14" cx="238.99" cy="398.82" r="24.87"/>
    <circle class="cls-14" cx="239.11" cy="398.71" r="24.93"/>
    <circle class="cls-14" cx="239.23" cy="398.59" r="24.99"/>
    <circle class="cls-14" cx="239.34" cy="398.48" r="25.06"/>
    <circle class="cls-14" cx="239.46" cy="398.36" r="25.12"/>
    <circle class="cls-14" cx="239.58" cy="398.25" r="25.18"/>
    <circle class="cls-14" cx="239.69" cy="398.14" r="25.25"/>
    <circle class="cls-14" cx="239.81" cy="398.02" r="25.31"/>
    <circle class="cls-14" cx="239.93" cy="397.91" r="25.37"/>
    <circle class="cls-14" cx="240.04" cy="397.8" r="25.44"/>
    <circle class="cls-14" cx="240.16" cy="397.68" r="25.5"/>
    <circle class="cls-14" cx="240.27" cy="397.57" r="25.56"/>
    <circle class="cls-14" cx="240.39" cy="397.45" r="25.63"/>
    <circle class="cls-14" cx="240.51" cy="397.34" r="25.69"/>
    <circle class="cls-14" cx="240.62" cy="397.23" r="25.75"/>
    <circle class="cls-14" cx="240.74" cy="397.11" r="25.82"/>
    <circle class="cls-14" cx="240.86" cy="397" r="25.88"/>
    <circle class="cls-14" cx="240.97" cy="396.88" r="25.94"/>
    <circle class="cls-14" cx="241.09" cy="396.77" r="26.01"/>
    <circle class="cls-14" cx="241.21" cy="396.66" r="26.07"/>
    <circle class="cls-14" cx="241.32" cy="396.54" r="26.13"/>
    <circle class="cls-14" cx="241.44" cy="396.43" r="26.2"/>
    <circle class="cls-14" cx="241.56" cy="396.31" r="26.26"/>
    <circle class="cls-14" cx="241.67" cy="396.2" r="26.32"/>
    <circle class="cls-14" cx="241.79" cy="396.09" r="26.39"/>
    <circle class="cls-14" cx="241.91" cy="395.97" r="26.45"/>
    <circle class="cls-14" cx="242.02" cy="395.86" r="26.51"/>
    <circle class="cls-14" cx="242.14" cy="395.74" r="26.58"/>
    <circle class="cls-14" cx="242.25" cy="395.63" r="26.64"/>
    <circle class="cls-14" cx="242.37" cy="395.52" r="26.7"/>
    <circle class="cls-14" cx="242.49" cy="395.4" r="26.77"/>
    <circle class="cls-14" cx="242.6" cy="395.29" r="26.83"/>
    <circle class="cls-14" cx="242.72" cy="395.18" r="26.89"/>
    <circle class="cls-14" cx="242.84" cy="395.06" r="26.96"/>
    <circle class="cls-14" cx="242.95" cy="394.95" r="27.02"/>
    <circle class="cls-14" cx="243.07" cy="394.83" r="27.08"/>
    <circle class="cls-14" cx="243.19" cy="394.72" r="27.15"/>
    <circle class="cls-14" cx="243.3" cy="394.61" r="27.21"/>
    <circle class="cls-14" cx="243.42" cy="394.49" r="27.27"/>
    <circle class="cls-14" cx="243.54" cy="394.38" r="27.34"/>
    <circle class="cls-14" cx="243.65" cy="394.26" r="27.4"/>
    <circle class="cls-14" cx="243.77" cy="394.15" r="27.46"/>
    <circle class="cls-14" cx="243.89" cy="394.04" r="27.53"/>
    <circle class="cls-14" cx="244" cy="393.92" r="27.59"/>
    <circle class="cls-14" cx="244.12" cy="393.81" r="27.65"/>
    <circle class="cls-14" cx="244.24" cy="393.69" r="27.72"/>
    <circle class="cls-14" cx="244.35" cy="393.58" r="27.78"/>
    <circle class="cls-14" cx="244.47" cy="393.47" r="27.84"/>
    <circle class="cls-14" cx="244.58" cy="393.35" r="27.91"/>
    <circle class="cls-14" cx="244.7" cy="393.24" r="27.97"/>
    <circle class="cls-14" cx="244.82" cy="393.13" r="28.03"/>
    <circle class="cls-14" cx="244.93" cy="393.01" r="28.1"/>
    <circle class="cls-14" cx="245.05" cy="392.9" r="28.16"/>
    <circle class="cls-14" cx="245.17" cy="392.78" r="28.22"/>
    <circle class="cls-14" cx="245.28" cy="392.67" r="28.29"/>
    <circle class="cls-14" cx="245.4" cy="392.56" r="28.35"/>
    <circle class="cls-14" cx="245.52" cy="392.44" r="28.41"/>
    <circle class="cls-14" cx="245.63" cy="392.33" r="28.48"/>
    <circle class="cls-14" cx="245.75" cy="392.21" r="28.54"/>
    <circle class="cls-14" cx="245.87" cy="392.1" r="28.6"/>
    <circle class="cls-14" cx="245.98" cy="391.99" r="28.67"/>
    <circle class="cls-14" cx="246.1" cy="391.87" r="28.73"/>
    <circle class="cls-14" cx="246.22" cy="391.76" r="28.79"/>
    <circle class="cls-14" cx="246.33" cy="391.64" r="28.86"/>
    <circle class="cls-14" cx="246.45" cy="391.53" r="28.92"/>
    <circle class="cls-14" cx="246.57" cy="391.42" r="28.98"/>
    <circle class="cls-14" cx="246.68" cy="391.3" r="29.05"/>
    <circle class="cls-14" cx="246.8" cy="391.19" r="29.11"/>
    <circle class="cls-14" cx="246.91" cy="391.07" r="29.17"/>
    <circle class="cls-14" cx="247.03" cy="390.96" r="29.24"/>
    <circle class="cls-14" cx="247.15" cy="390.85" r="29.3"/>
    <circle class="cls-14" cx="247.26" cy="390.73" r="29.36"/>
    <circle class="cls-14" cx="247.38" cy="390.62" r="29.43"/>
    <circle class="cls-14" cx="247.5" cy="390.51" r="29.49"/>
    <circle class="cls-14" cx="247.61" cy="390.39" r="29.55"/>
    <circle class="cls-14" cx="247.73" cy="390.28" r="29.62"/>
    <circle class="cls-14" cx="247.85" cy="390.16" r="29.68"/>
    <circle class="cls-14" cx="247.96" cy="390.05" r="29.74"/>
    <circle class="cls-14" cx="248.08" cy="389.94" r="29.81"/>
    <circle class="cls-14" cx="248.2" cy="389.82" r="29.87"/>
    <circle class="cls-14" cx="248.31" cy="389.71" r="29.93"/>
    <circle class="cls-14" cx="248.43" cy="389.59" r="30"/>
    <circle class="cls-14" cx="248.55" cy="389.48" r="30.06"/>
    <circle class="cls-14" cx="248.66" cy="389.37" r="30.12"/>
    <circle class="cls-14" cx="248.78" cy="389.25" r="30.19"/>
    <circle class="cls-14" cx="248.9" cy="389.14" r="30.25"/>
    <circle class="cls-14" cx="249.01" cy="389.02" r="30.31"/>
    <circle class="cls-14" cx="249.13" cy="388.91" r="30.38"/>
    <circle class="cls-14" cx="249.24" cy="388.8" r="30.44"/>
    <circle class="cls-14" cx="249.36" cy="388.68" r="30.5"/>
    <circle class="cls-14" cx="249.48" cy="388.57" r="30.57"/>
    <circle class="cls-14" cx="249.59" cy="388.45" r="30.63"/>
    <circle class="cls-14" cx="249.71" cy="388.34" r="30.69"/>
    <circle class="cls-14" cx="249.83" cy="388.23" r="30.76"/>
    <circle class="cls-14" cx="249.94" cy="388.11" r="30.82"/>
    <circle class="cls-14" cx="250.06" cy="388" r="30.88"/>
    <circle class="cls-14" cx="250.18" cy="387.89" r="30.95"/>
    <circle class="cls-14" cx="250.29" cy="387.77" r="31.01"/>
    <circle class="cls-14" cx="250.41" cy="387.66" r="31.07"/>
    <circle class="cls-14" cx="250.53" cy="387.54" r="31.14"/>
    <circle class="cls-14" cx="250.64" cy="387.43" r="31.2"/>
    <circle class="cls-14" cx="250.76" cy="387.32" r="31.26"/>
    <circle class="cls-14" cx="250.88" cy="387.2" r="31.33"/>
    <circle class="cls-14" cx="250.99" cy="387.09" r="31.39"/>
    <circle class="cls-14" cx="251.11" cy="386.97" r="31.45"/>
    <circle class="cls-14" cx="251.22" cy="386.86" r="31.52"/>
    <circle class="cls-14" cx="251.34" cy="386.75" r="31.58"/>
    <circle class="cls-14" cx="251.46" cy="386.63" r="31.64"/>
    <circle class="cls-14" cx="251.57" cy="386.52" r="31.71"/>
    <circle class="cls-14" cx="251.69" cy="386.4" r="31.77"/>
    <circle class="cls-14" cx="251.81" cy="386.29" r="31.83"/>
    <circle class="cls-14" cx="251.92" cy="386.18" r="31.9"/>
    <circle class="cls-14" cx="252.04" cy="386.06" r="31.96"/>
    <circle class="cls-14" cx="252.16" cy="385.95" r="32.02"/>
    <circle class="cls-14" cx="252.27" cy="385.84" r="32.09"/>
    <circle class="cls-14" cx="252.39" cy="385.72" r="32.15"/>
    <circle class="cls-14" cx="252.51" cy="385.61" r="32.21"/>
    <circle class="cls-14" cx="252.62" cy="385.49" r="32.28"/>
    <circle class="cls-14" cx="252.74" cy="385.38" r="32.34"/>
    <circle class="cls-14" cx="252.86" cy="385.27" r="32.4"/>
    <circle class="cls-14" cx="252.97" cy="385.15" r="32.47"/>
    <circle class="cls-14" cx="253.09" cy="385.04" r="32.53"/>
    <circle class="cls-14" cx="253.21" cy="384.92" r="32.6"/>
    <circle class="cls-14" cx="253.32" cy="384.81" r="32.66"/>
    <circle class="cls-14" cx="253.44" cy="384.7" r="32.72"/>
    <circle class="cls-14" cx="253.55" cy="384.58" r="32.79"/>
    <circle class="cls-14" cx="253.67" cy="384.47" r="32.85"/>
    <circle class="cls-14" cx="253.79" cy="384.35" r="32.91"/>
    <circle class="cls-14" cx="253.9" cy="384.24" r="32.98"/>
    <circle class="cls-14" cx="254.02" cy="384.13" r="33.04"/>
    <circle class="cls-14" cx="254.14" cy="384.01" r="33.1"/>
    <circle class="cls-14" cx="254.25" cy="383.9" r="33.17"/>
    <circle class="cls-14" cx="254.37" cy="383.78" r="33.23"/>
    <circle class="cls-14" cx="254.49" cy="383.67" r="33.29"/>
    <circle class="cls-14" cx="254.6" cy="383.56" r="33.36"/>
    <circle class="cls-14" cx="254.72" cy="383.44" r="33.42"/>
    <circle class="cls-14" cx="254.84" cy="383.33" r="33.48"/>
    <circle class="cls-14" cx="254.95" cy="383.22" r="33.55"/>
    <circle class="cls-14" cx="255.07" cy="383.1" r="33.61"/>
    <circle class="cls-14" cx="255.19" cy="382.99" r="33.67"/>
    <circle class="cls-14" cx="255.3" cy="382.87" r="33.74"/>
    <circle class="cls-14" cx="255.42" cy="382.76" r="33.8"/>
    <circle class="cls-14" cx="255.54" cy="382.65" r="33.86"/>
    <circle class="cls-14" cx="255.65" cy="382.53" r="33.93"/>
    <circle class="cls-14" cx="255.77" cy="382.42" r="33.99"/>
    <circle class="cls-14" cx="255.88" cy="382.3" r="34.05"/>
    <circle class="cls-14" cx="256" cy="382.19" r="34.12"/>
    <circle class="cls-14" cx="256.12" cy="382.08" r="34.18"/>
    <circle class="cls-14" cx="256.23" cy="381.96" r="34.24"/>
    <circle class="cls-14" cx="256.35" cy="381.85" r="34.31"/>
    <circle class="cls-14" cx="256.47" cy="381.73" r="34.37"/>
    <circle class="cls-14" cx="256.58" cy="381.62" r="34.43"/>
    <circle class="cls-14" cx="256.7" cy="381.51" r="34.5"/>
    <circle class="cls-14" cx="256.82" cy="381.39" r="34.56"/>
    <circle class="cls-14" cx="256.93" cy="381.28" r="34.62"/>
    <circle class="cls-14" cx="257.05" cy="381.16" r="34.69"/>
    <circle class="cls-14" cx="257.17" cy="381.05" r="34.75"/>
    <circle class="cls-14" cx="257.28" cy="380.94" r="34.81"/>
    <circle class="cls-14" cx="257.4" cy="380.82" r="34.88"/>
    <circle class="cls-14" cx="257.52" cy="380.71" r="34.94"/>
    <circle class="cls-14" cx="257.63" cy="380.6" r="35"/>
    <circle class="cls-14" cx="257.75" cy="380.48" r="35.07"/>
    <circle class="cls-14" cx="257.87" cy="380.37" r="35.13"/>
    <circle class="cls-14" cx="257.98" cy="380.25" r="35.19"/>
    <circle class="cls-14" cx="258.1" cy="380.14" r="35.26"/>
    <circle class="cls-14" cx="258.21" cy="380.03" r="35.32"/>
    <circle class="cls-14" cx="258.33" cy="379.91" r="35.38"/>
    <circle class="cls-14" cx="258.45" cy="379.8" r="35.45"/>
    <circle class="cls-14" cx="258.56" cy="379.68" r="35.51"/>
    <circle class="cls-14" cx="258.68" cy="379.57" r="35.57"/>
    <circle class="cls-14" cx="258.8" cy="379.46" r="35.64"/>
    <circle class="cls-14" cx="258.91" cy="379.34" r="35.7"/>
    <circle class="cls-14" cx="259.03" cy="379.23" r="35.76"/>
    <circle class="cls-14" cx="259.15" cy="379.11" r="35.83"/>
    <circle class="cls-14" cx="259.26" cy="379" r="35.89"/>
    <circle class="cls-14" cx="259.38" cy="378.89" r="35.95"/>
    <circle class="cls-14" cx="259.5" cy="378.77" r="36.02"/>
    <circle class="cls-14" cx="259.61" cy="378.66" r="36.08"/>
    <circle class="cls-14" cx="259.73" cy="378.54" r="36.14"/>
    <circle class="cls-14" cx="259.85" cy="378.43" r="36.21"/>
    <circle class="cls-14" cx="259.96" cy="378.32" r="36.27"/>
    <circle class="cls-14" cx="260.08" cy="378.2" r="36.33"/>
    <circle class="cls-14" cx="260.19" cy="378.09" r="36.4"/>
    <circle class="cls-14" cx="260.31" cy="377.98" r="36.46"/>
    <circle class="cls-14" cx="260.43" cy="377.86" r="36.52"/>
    <circle class="cls-14" cx="260.54" cy="377.75" r="36.59"/>
    <circle class="cls-14" cx="260.66" cy="377.63" r="36.65"/>
    <circle class="cls-14" cx="260.78" cy="377.52" r="36.71"/>
    <circle class="cls-14" cx="260.89" cy="377.41" r="36.78"/>
    <circle class="cls-14" cx="261.01" cy="377.29" r="36.84"/>
    <circle class="cls-14" cx="261.13" cy="377.18" r="36.9"/>
    <circle class="cls-14" cx="261.24" cy="377.06" r="36.97"/>
    <circle class="cls-14" cx="261.36" cy="376.95" r="37.03"/>
    <circle class="cls-14" cx="261.48" cy="376.84" r="37.09"/>
    <circle class="cls-14" cx="261.59" cy="376.72" r="37.16"/>
    <circle class="cls-14" cx="261.71" cy="376.61" r="37.22"/>
    <circle class="cls-14" cx="261.83" cy="376.49" r="37.28"/>
    <circle class="cls-14" cx="261.94" cy="376.38" r="37.35"/>
    <circle class="cls-14" cx="262.06" cy="376.27" r="37.41"/>
    <circle class="cls-14" cx="262.18" cy="376.15" r="37.47"/>
    <circle class="cls-14" cx="262.29" cy="376.04" r="37.54"/>
    <circle class="cls-14" cx="262.41" cy="375.93" r="37.6"/>
    <circle class="cls-14" cx="262.52" cy="375.81" r="37.66"/>
  </g>
  <polygon class="cls-8" points="222.08 462.45 202.38 484.83 144.91 500.62 103.93 484.62 222.08 462.45"/>
  <rect class="cls-13" x="132.96" y="319.7" width="19.1" height="31.8" rx="9.55" ry="9.55" transform="translate(-63.66 34.88) rotate(-11.43)"/>
  <rect class="cls-13" x="73.95" y="331.59" width="19.1" height="31.8" rx="9.55" ry="9.55" transform="translate(-67.19 23.43) rotate(-11.43)"/>
  <g>
    <g>
      <path class="cls-7" d="m150.98,331.82l-31.28,39.59c.02-.61-.03-1.22-.15-1.83-.35-1.72-2.19-4.46-4.28-7.12l-1.06-5.31-2.9.59-4.33.87-3.62.73,1.36,6.75c-.67,2.69-1.08,5.19-.79,6.64.24,1.18.73,2.25,1.4,3.16-1.19,4.26-4.68,7.72-9.31,8.65l-32.11,6.43c-1.65.33-3.29.31-4.83-.03l37.13-47c2.62.9,4.7,3.14,5.29,6.03l.69,3.44,10.85-2.17-.69-3.44c-.88-4.34,1.97-8.61,6.32-9.49l32.32-6.47Z"/>
      <path class="cls-17" d="m96.2,343.92l-37.13,47c-4.51-.93-8.29-4.42-9.38-9.15l27.84-35.24,14.47-2.9c1.44-.29,2.89-.17,4.2.29Z"/>
      <path class="cls-17" d="m72.69,347.49l-23.84,30.18-3.3-16.52c-.02-.08-.03-.18-.04-.26l7.46-9.45,19.73-3.95Z"/>
      <path class="cls-17" d="m168.71,338.8l-29.23,37.01-8.79,1.76c-4.35.88-8.65-.73-11.42-3.82.25-.74.41-1.54.43-2.35l31.28-39.59,7.8-1.56c4.35-.88,8.62,1.97,9.49,6.32l.45,2.22Z"/>
    </g>
    <path class="cls-7" d="m77.53,346.52l-27.84,35.24c-.04-.11-.06-.22-.08-.34l-.75-3.75,23.84-30.18,4.84-.97Z"/>
  </g>
  <path class="cls-10" d="m157.64,244.45c-5.15,2.15-10.82,2.26-15.79,1.59-6.84-.92-13.16-3.95-18.51-8.29-11.44-9.29-27.14-12.95-42.33-8.39-24.37,7.32-38.2,33-30.88,57.36,7.32,24.37,33,38.2,57.37,30.88,0,0,50.4-17.58,50.15-73.15Z"/>
  <rect class="cls-4" x="72.88" y="309.42" width="9.31" height="31.79" rx="4.65" ry="4.65" transform="translate(-255.01 360.75) rotate(-82.68)"/>
  <rect class="cls-4" x="113.24" y="309.13" width="31.79" height="9.31" rx="4.65" ry="4.65" transform="translate(-164.86 144.36) rotate(-37.68)"/>
  <g>
    <g>
      <path class="cls-2" d="m569.64,433.36l22.33-86.88-346.3-90.64-22.73,88.4c-4.22,16.4,3.8,33.66,19.07,41.05,2.11,1.02,4.33,1.84,6.63,2.44l277.52,71.32c9.18,2.36,18.78.97,27.03-3.89,8.25-4.88,14.09-12.62,16.47-21.81Zm50.71-139.51c-.18,1.47-.41,2.94-.71,4.42.31-1.47.55-2.94.71-4.42Zm-389.06,102.51c.09.04.17.1.26.14-.54-.32-1.09-.66-1.62-1.01.45.29.92.57,1.36.86Zm-10.91-8.95c-1.08-1.18-2.11-2.42-3.07-3.69.96,1.27,1.99,2.52,3.07,3.69Zm-4.33-5.42c-.8-1.18-1.57-2.37-2.29-3.6.72,1.25,1.48,2.44,2.29,3.6Z"/>
      <path class="cls-5" d="m584.02,437.06l28.26-109.93,6.84-26.63c.2-.75.38-1.49.53-2.22.3-1.49.53-2.95.72-4.42.97-8.12-.1-16.15-2.86-23.49-.24-.67-.51-1.33-.78-1.99-4.69-11.14-13.31-20.53-24.57-25.99-2.97-1.44-6.11-2.6-9.42-3.46l-133.27-34.25c-3.43,9.99-11.89,17.93-22.56,20.34-7.35,1.66-14.59.62-20.72-2.42-9.24-4.54-16.04-13.56-17.25-24.57-.33-3.01-.23-5.98.28-8.84l-6.73-1.73c-1.8-.47-3.65-.37-5.36.19-1.52.49-2.92,1.35-4.1,2.51h-.03c-.36.37-.72.71-1.1,1.04l-.57.49c-.35.31-.7.6-1.08.87-.28.23-.58.43-.86.64-.26.19-.51.36-.78.54-.51.34-1.01.67-1.55.98-.44.26-.89.51-1.36.75-8.46,4.43-18.84,4.94-28.09.46-9.97-4.83-16.19-14.24-17.39-24.46l-2.83-.72-12.18-3.13c-14.48-3.73-29.18-.71-40.76,7.05-3.28,2.19-6.31,4.77-9.01,7.7-5.52,5.93-9.66,13.28-11.8,21.62l-35.1,136.57c-1.33,5.16-1.81,10.35-1.5,15.43.09,1.45.23,2.89.44,4.31.26,1.8.62,3.59,1.09,5.36.42,1.7.96,3.38,1.57,5.01.26.68.53,1.34.79,2,.2.48.42.98.64,1.47.44.96.91,1.93,1.42,2.87.26.45.51.92.78,1.39.73,1.23,1.49,2.42,2.3,3.6.4.58.82,1.15,1.25,1.73.49.63.99,1.26,1.49,1.88.51.61,1.05,1.21,1.58,1.81.36.39.73.78,1.11,1.16,0,0,0,.02,0,.02,1.48,1.5,3.05,2.9,4.71,4.22.55.43,1.12.85,1.7,1.28.67.49,1.34.96,2.02,1.4.25.16.52.33.77.5.13.07.25.15.37.22.03.02.06.04.09.05.09.05.19.11.27.16.04.02.09.05.13.07,1.27.78,2.6,1.5,3.96,2.16.37.18.74.36,1.12.52.62.28,1.25.55,1.9.81.26.11.51.2.77.31.53.2,1.04.4,1.57.58,1.32.45,2.68.87,4.05,1.22l277.53,71.33c26.92,6.92,54.64-9.44,61.56-36.39Zm-30.84,18.11c-8.25,4.86-17.85,6.24-27.03,3.89l-277.53-71.32c-2.29-.6-4.52-1.42-6.63-2.44-15.27-7.4-23.29-24.65-19.07-41.05l22.73-88.4,346.31,90.64-22.33,86.88c-2.38,9.19-8.22,16.93-16.46,21.8Zm-154.92-259.93h.02c.22.47.45.9.7,1.34l.37.66c.23.4.47.79.73,1.18.18.32.39.61.59.9.18.26.37.5.55.77.37.49.73.96,1.14,1.44.33.4.67.79,1.03,1.16,6.49,7,16.1,10.95,26.32,9.82,7.01-.78,13.21-3.8,17.95-8.3l-54.9-14.11c2.39.91,4.35,2.75,5.51,5.14Zm-7.47-5.64l-.53-.14-.02.07c.19.02.37.03.55.07Z"/>
    </g>
    <g>
      <path class="cls-2" d="m262.4,227.79l7.49-29.15,5.83,1.5-3,11.66,13.58,3.49,3-11.68,5.83,1.5-7.49,29.15-5.83-1.48,3.1-12.05-13.58-3.49-3.1,12.05-5.83-1.5Z"/>
      <path class="cls-2" d="m294.95,225.81c.73-2.85,2.24-4.95,4.52-6.3,2.28-1.35,4.84-1.65,7.69-.92,2.85.73,4.88,2.22,6.1,4.47,1.22,2.25,1.46,4.79.73,7.64l-.5,1.94-13.41-3.45c-.14,1.07.11,2,.74,2.78s1.46,1.31,2.5,1.57c1.81.47,3.57.36,5.26-.31l2.31,3.91c-1.92,1.58-4.83,1.87-8.72.87-2.85-.73-4.95-2.24-6.3-4.52-1.35-2.28-1.65-4.84-.92-7.69Zm13.56-1.18c-.63-.78-1.46-1.31-2.5-1.57s-2.02-.21-2.95.18-1.52,1.09-1.79,2.13l7.77,2c.27-1.04.09-1.95-.54-2.73Z"/>
      <path class="cls-2" d="m315.77,241.51l7.49-29.15,5.44,1.4-7.49,29.15-5.44-1.4Z"/>
      <path class="cls-2" d="m326.91,244.38l7.49-29.15,5.44,1.4-7.49,29.15-5.44-1.4Z"/>
      <path class="cls-2" d="m340.43,245.03c-1.4-2.38-1.74-4.98-1.02-7.79.73-2.82,2.28-4.94,4.65-6.34,2.38-1.41,4.98-1.74,7.8-1.02,2.82.73,4.94,2.28,6.34,4.65,1.41,2.38,1.74,4.98,1.02,7.8-.73,2.82-2.28,4.94-4.65,6.34-2.38,1.41-4.98,1.74-7.8,1.02-2.82-.73-4.94-2.28-6.34-4.66Zm7.53-.04c1.48.38,2.8.19,3.98-.56s1.95-1.87,2.33-3.35.24-2.83-.43-4.07c-.66-1.23-1.74-2.04-3.23-2.43s-2.78-.18-3.96.58-1.95,1.88-2.33,3.36-.24,2.83.43,4.06,1.74,2.03,3.21,2.41Z"/>
      <path class="cls-2" d="m363.57,253.8l-.21-.05c-.91-.23-1.55-.68-1.94-1.33s-.48-1.37-.28-2.14.63-1.36,1.28-1.75,1.42-.47,2.3-.25c.93.24,1.59.69,1.97,1.35s.48,1.38.28,2.15l-.03.14c-.81,3.13-2.67,5.02-5.6,5.67l-.52-2c1.15-.13,2.07-.72,2.76-1.78Z"/>
      <path class="cls-2" d="m394.13,248.4l-3.2,12.44-5.44-1.4,4.85-18.87,5.59.82-.44,1.73c1.51-.83,3.21-1,5.1-.51,2.46.63,4.15,1.86,5.06,3.68,1.81-1.12,4.14-1.32,6.99-.59,2.46.63,4.15,1.86,5.06,3.68s1.12,3.71.62,5.65l-3.1,12.05-5.44-1.4,2.75-10.69c.33-1.3.3-2.37-.1-3.24s-1.25-1.48-2.55-1.86c-1.1-.2-2.21.27-3.35,1.42-.17.38-.31.78-.41,1.2l-2.95,11.46-5.44-1.4,2.75-10.69c.33-1.3.3-2.37-.1-3.24-.4-.86-1.25-1.48-2.55-1.86-1.21-.23-2.45.3-3.7,1.6Z"/>
      <path class="cls-2" d="m433.79,264.68l3.27-12.71,5.44,1.4-4.59,17.88c-.7,2.72-2.13,4.78-4.28,6.17-2.15,1.39-4.41,1.84-6.77,1.35l-1.2-.18c-2.7-.78-4.89-2.48-6.55-5.12l3.28-2.27c1.25,1.57,2.56,2.59,3.91,3.08,1.68.43,3,.32,3.95-.33s1.62-1.76,2.02-3.31l.25-.99c-1.68.83-3.41,1.01-5.22.54-2.46-.63-4.15-1.86-5.06-3.68s-1.12-3.71-.62-5.65l3.1-12.05,5.44,1.4-2.75,10.69c-.33,1.3-.27,2.38.2,3.26s1.35,1.51,2.64,1.88c1.16.22,2.34-.23,3.54-1.35Z"/>
      <path class="cls-2" d="m464.16,266.48l-3.18,12.36-5.44-1.4,4.85-18.87,5.59.82-.45,1.77c1.61-.83,3.31-1.01,5.11-.55,2.46.63,4.15,1.86,5.06,3.68.91,1.82,1.12,3.71.62,5.65l-3.1,12.05-5.44-1.4,2.75-10.69c.33-1.3.27-2.38-.2-3.26-.46-.88-1.35-1.51-2.64-1.88-1.15-.21-2.32.36-3.53,1.72Z"/>
      <path class="cls-2" d="m482.55,266.15c2.86-.92,5.91-.97,9.15-.13,2.33.6,4.01,1.72,5.04,3.37,1.03,1.64,1.21,3.76.54,6.35l-3,11.66-5.44-1.4.4-1.55c-1.85.63-3.4.78-4.67.46-2.59-.67-4.39-1.72-5.4-3.15s-1.27-3.12-.77-5.07c.47-1.81,1.49-3.28,3.08-4.39s3.75-1.31,6.49-.61c1.26.32,2.58,1.08,3.98,2.26l.15-.58c.34-1.43-.5-2.48-2.51-3.13-2.33-.6-4.25-.68-5.74-.23l-1.29-3.85Zm7.79,14.02l.56-2.2c-.26-1.13-1.36-1.95-3.31-2.45-2.4-.34-3.86.25-4.39,1.77-.27,1.57.75,2.73,3.05,3.46,1.94.5,3.31.3,4.09-.59Z"/>
      <path class="cls-2" d="m507.7,277.59l-3.2,12.44-5.44-1.4,4.85-18.87,5.59.82-.44,1.73c1.51-.83,3.21-1,5.1-.51,2.46.63,4.15,1.86,5.06,3.68,1.81-1.12,4.14-1.32,6.99-.59,2.46.63,4.15,1.86,5.06,3.68.91,1.82,1.12,3.71.62,5.65l-3.1,12.05-5.44-1.4,2.75-10.69c.33-1.3.3-2.37-.1-3.24s-1.25-1.48-2.55-1.86c-1.1-.2-2.21.27-3.35,1.42-.17.38-.31.78-.41,1.2l-2.95,11.46-5.44-1.4,2.75-10.69c.33-1.3.3-2.37-.1-3.24s-1.25-1.48-2.55-1.86c-1.21-.23-2.45.3-3.7,1.6Z"/>
      <path class="cls-2" d="m535.06,287.52c.73-2.85,2.24-4.95,4.52-6.3s4.84-1.65,7.69-.92,4.88,2.22,6.1,4.47,1.46,4.79.73,7.64l-.5,1.94-13.41-3.45c-.14,1.07.11,2,.74,2.78s1.46,1.31,2.5,1.57c1.81.47,3.57.36,5.26-.31l2.31,3.91c-1.92,1.58-4.83,1.87-8.72.87-2.85-.73-4.95-2.24-6.3-4.52s-1.65-4.84-.92-7.69Zm13.56-1.18c-.63-.78-1.46-1.31-2.5-1.57s-2.02-.21-2.95.18-1.52,1.09-1.79,2.13l7.77,2c.27-1.04.09-1.95-.54-2.73Z"/>
      <path class="cls-2" d="m576.76,280.83c.65-.39,1.42-.47,2.3-.25.93.24,1.59.69,1.97,1.35s.48,1.38.28,2.15c-.2.78-.63,1.36-1.28,1.74s-1.43.46-2.34.23-1.55-.68-1.94-1.33-.48-1.37-.28-2.14.63-1.36,1.28-1.75Zm-1.84,27.3l5-19.45-5.44-1.4-5,19.45,5.44,1.4Z"/>
      <path class="cls-2" d="m595.49,293.28c.9.7,1.67,1.6,2.33,2.69l-3.91,2.64c-.61-1.28-1.58-2.08-2.9-2.42s-2.25-.32-2.81.05-.68.81-.34,1.32,1.13,1.06,2.37,1.66c1.88.68,3.32,1.63,4.32,2.87s1.2,2.99.61,5.27c-.47,1.84-1.56,3.08-3.28,3.72s-3.53.71-5.46.21-3.3-1.13-4.39-1.97-1.96-1.81-2.62-2.92l3.89-2.63c.61,1.28,1.82,2.24,3.63,2.88,1.49.38,2.51.39,3.07.01s.75-.84.57-1.41-1.12-1.15-2.83-1.77c-1.53-.59-2.86-1.45-3.97-2.57s-1.39-2.79-.82-4.98c.52-2.01,1.66-3.35,3.43-4.02s3.44-.8,5.02-.4c1.83.47,3.19,1.05,4.09,1.75Z"/>
    </g>
    <g>
      <path class="cls-16" d="m250.11,329.4c-1.79-3.02-2.23-6.33-1.3-9.95.92-3.53,2.89-6.19,5.92-7.99s6.31-2.23,9.87-1.32c3.59.92,6.38,2.83,8.38,5.73l-4.3,2.81c-1.37-1.78-3.16-2.96-5.37-3.53-2.26-.57-4.26-.33-6,.71-1.74,1.04-2.89,2.66-3.45,4.84-.59,2.34-.37,4.38.67,6.11s2.68,2.89,4.94,3.47,4.38.42,6.37-.49l2.41,4.54c-3.14,1.58-6.51,1.91-10.11.98-3.55-.93-6.23-2.9-8.02-5.92Z"/>
      <path class="cls-16" d="m273.68,330.37c.63-2.46,1.93-4.27,3.9-5.44,1.97-1.16,4.18-1.43,6.64-.8s4.22,1.92,5.27,3.86c1.05,1.94,1.26,4.14.63,6.6l-.43,1.68-11.58-2.98c-.12.92.09,1.72.64,2.4s1.26,1.13,2.15,1.36c1.57.4,3.08.31,4.54-.26l1.99,3.37c-1.66,1.36-4.17,1.61-7.53.75-2.46-.63-4.27-1.93-5.44-3.9s-1.43-4.18-.8-6.64Zm11.71-1.01c-.54-.68-1.26-1.13-2.15-1.36s-1.74-.18-2.54.15-1.32.94-1.55,1.84l6.71,1.72c.23-.89.07-1.68-.47-2.36Z"/>
      <path class="cls-16" d="m299.82,330.11c1.51-.92,3.13-1.16,4.85-.72.55.14,1.06.32,1.53.54l-1.93,4.44c-.42-.63-1.14-1.1-2.15-1.39-1.16-.21-2.32.37-3.49,1.75l-2.65,10.32-4.7-1.21,4.19-16.29,4.83.7-.48,1.86Z"/>
      <path class="cls-16" d="m312.59,349.31c-1.9-.49-3.27-1.41-4.12-2.76s-1.05-2.86-.62-4.54l1.87-7.26-2.52-.65.97-3.79,2.52.65,1.17-4.55,4.84.71-1.3,5.05,2.52.65-.97,3.79-2.52-.65-1.69,6.59c-.23.89-.2,1.57.08,2.03s.72.77,1.31.92c.18.05.62.08,1.31.11l.12,3.63c-.94.32-1.93.34-2.97.08Z"/>
      <path class="cls-16" d="m324.5,328.39c.56-.34,1.23-.41,1.99-.21.81.21,1.37.59,1.7,1.16s.41,1.19.24,1.86-.54,1.17-1.1,1.51-1.24.4-2.02.2-1.34-.58-1.67-1.15-.41-1.18-.24-1.85.54-1.18,1.1-1.51Zm-1.59,23.57l4.32-16.79-4.7-1.21-4.32,16.79,4.7,1.21Z"/>
      <path class="cls-16" d="m327.8,353.22l3.45-13.42-2.52-.65.97-3.79,2.52.65.58-2.25c.43-1.68,1.34-2.9,2.73-3.68,1.39-.78,3.04-.92,4.94-.43,2.01.52,3.44,1.48,4.27,2.89l-3.22,2.14c-.22-.43-.74-.74-1.54-.95-.59-.15-1.12-.09-1.59.17s-.82.85-1.05,1.74l-.41,1.58,2.52.65-.97,3.79-2.52-.65-3.45,13.42-4.71-1.21Z"/>
      <path class="cls-16" d="m346.24,333.98c.56-.34,1.23-.41,1.99-.21.81.21,1.37.59,1.7,1.16s.41,1.19.24,1.86-.54,1.17-1.1,1.51-1.24.4-2.02.2-1.34-.58-1.67-1.15-.41-1.18-.24-1.85.54-1.18,1.1-1.51Zm-1.59,23.57l4.32-16.79-4.7-1.21-4.32,16.79,4.7,1.21Z"/>
      <path class="cls-16" d="m350.02,349.99c.63-2.46,1.93-4.27,3.9-5.44,1.97-1.16,4.18-1.43,6.64-.8,2.46.63,4.22,1.92,5.27,3.86,1.05,1.94,1.26,4.14.63,6.6l-.43,1.68-11.58-2.98c-.12.92.09,1.72.64,2.4s1.26,1.13,2.15,1.36c1.57.4,3.08.31,4.54-.26l1.99,3.37c-1.66,1.36-4.17,1.61-7.53.75-2.46-.63-4.27-1.93-5.44-3.9s-1.43-4.18-.8-6.64Zm11.71-1.01c-.54-.68-1.26-1.13-2.15-1.36s-1.74-.18-2.54.15-1.32.94-1.55,1.84l6.71,1.72c.23-.89.07-1.68-.47-2.36Z"/>
      <path class="cls-16" d="m390.38,342.49l-6.46,25.15-4.7-1.21.34-1.34c-1.48.57-2.83.7-4.04.39-2.57-.66-4.4-2.02-5.48-4.09-1.08-2.07-1.33-4.22-.76-6.45.57-2.24,1.83-4,3.77-5.29,1.94-1.29,4.2-1.6,6.77-.94,1.65.54,2.76,1.31,3.34,2.31l2.51-9.75,4.69,1.22Zm-9.39,17.06l.7-2.72c.26-1.94-.63-3.34-2.67-4.21-2.74-.48-4.61.53-5.6,3.01-.69,3.16.4,5.17,3.28,6.03,2.21.21,3.64-.49,4.3-2.11Z"/>
      <path class="cls-16" d="m421.45,363.14c1.82,2.04,2.5,4.26,2.03,6.66-1.44,4.68-4.62,6.54-9.54,5.58l-14.16-3.66,6.46-25.15,13.35,3.43c4.18,1.34,5.78,4.38,4.81,9.12-.65,2.22-1.64,3.55-2.96,4.01Zm-12.74-5.19l7.05,1.81c2.03.49,3.34-.29,3.93-2.34.26-1.24-.6-2.16-2.57-2.74l-7.1-1.82-1.31,5.08Zm-2.86,11.14l8.22,2.11c2.37.57,3.89-.33,4.56-2.71.36-1.62-.62-2.77-2.93-3.44l-8.27-2.13-1.58,6.16Z"/>
      <path class="cls-16" d="m428.24,376.6c-1.21-2.06-1.51-4.3-.88-6.73.63-2.44,1.97-4.26,4.02-5.48s4.3-1.51,6.74-.88c2.44.63,4.26,1.97,5.48,4.02s1.51,4.3.88,6.74c-.63,2.44-1.97,4.26-4.02,5.48s-4.3,1.51-6.74.88c-2.44-.63-4.26-1.97-5.48-4.03Zm6.5-.04c1.28.33,2.42.17,3.43-.49s1.68-1.61,2.01-2.89.21-2.45-.37-3.51-1.5-1.76-2.79-2.09-2.4-.16-3.42.5c-1.02.66-1.69,1.62-2.01,2.9-.33,1.28-.2,2.44.37,3.5s1.5,1.75,2.77,2.08Z"/>
      <path class="cls-16" d="m447.57,381.56c-1.21-2.06-1.51-4.3-.88-6.73s1.97-4.26,4.02-5.48,4.3-1.51,6.74-.88c2.44.63,4.26,1.97,5.48,4.02,1.21,2.05,1.51,4.3.88,6.74-.63,2.44-1.97,4.26-4.02,5.48-2.05,1.21-4.3,1.51-6.74.88-2.44-.63-4.26-1.97-5.48-4.03Zm6.5-.04c1.28.33,2.42.17,3.43-.49s1.68-1.61,2.01-2.89.21-2.45-.37-3.51-1.5-1.76-2.79-2.09-2.4-.16-3.42.5-1.69,1.62-2.01,2.9-.2,2.44.37,3.5c.57,1.06,1.5,1.75,2.77,2.08Z"/>
      <path class="cls-16" d="m471.74,363.39l5.03,1.29-3.66,14.24,6.32-4.62,5.65,1.45-8.21,5.92,5.58,11.29-6.54-1.68-3.88-8.13-1.72,6.69-5.03-1.29,6.47-25.17Z"/>
      <path class="cls-16" d="m492.58,383.48l-2.92,11.34-4.7-1.21,6.47-25.17,4.7,1.21-2.54,9.9c1.39-.72,2.86-.87,4.41-.47,2.13.55,3.58,1.61,4.37,3.18.79,1.57.97,3.2.53,4.88l-2.67,10.4-4.7-1.21,2.37-9.23c.29-1.12.23-2.06-.17-2.82s-1.16-1.3-2.28-1.62c-.99-.18-1.95.09-2.88.82Z"/>
      <path class="cls-16" d="m504.69,389.74c.63-2.46,1.93-4.27,3.9-5.44s4.18-1.43,6.64-.8,4.22,1.92,5.27,3.86c1.05,1.94,1.26,4.14.63,6.6l-.43,1.68-11.58-2.98c-.12.92.09,1.72.64,2.4s1.26,1.13,2.15,1.36c1.57.4,3.08.31,4.54-.26l1.99,3.37c-1.66,1.36-4.17,1.61-7.53.75-2.46-.63-4.27-1.93-5.44-3.9-1.16-1.97-1.43-4.18-.8-6.64Zm11.71-1.01c-.54-.68-1.26-1.13-2.15-1.36s-1.74-.18-2.54.15-1.32.94-1.55,1.84l6.71,1.72c.23-.89.07-1.68-.47-2.36Z"/>
      <path class="cls-16" d="m526.78,388.62c2.47-.8,5.1-.83,7.9-.12,2.01.52,3.46,1.49,4.35,2.91.89,1.42,1.04,3.25.47,5.49l-2.59,10.07-4.7-1.21.34-1.34c-1.59.54-2.94.68-4.04.39-2.24-.57-3.79-1.48-4.67-2.72s-1.1-2.7-.66-4.37c.4-1.57,1.29-2.83,2.66-3.79s3.24-1.13,5.6-.53c1.08.28,2.23.93,3.43,1.96l.13-.5c.29-1.24-.43-2.14-2.17-2.7-2.01-.52-3.67-.58-4.96-.2l-1.11-3.33Zm6.73,12.1l.49-1.9c-.23-.98-1.18-1.68-2.86-2.11-2.07-.29-3.33.22-3.79,1.53-.23,1.36.65,2.35,2.63,2.98,1.68.43,2.85.26,3.53-.51Z"/>
      <path class="cls-16" d="m563.49,386.99l-6.46,25.15-4.7-1.21.34-1.34c-1.48.57-2.83.7-4.04.39-2.57-.66-4.4-2.02-5.48-4.09-1.08-2.07-1.33-4.22-.76-6.45s1.83-4,3.77-5.29c1.94-1.29,4.2-1.6,6.77-.94,1.65.54,2.76,1.31,3.34,2.31l2.51-9.75,4.69,1.22Zm-9.39,17.06l.7-2.72c.26-1.94-.63-3.34-2.67-4.21-2.74-.48-4.61.53-5.6,3.01-.69,3.16.4,5.17,3.28,6.03,2.21.21,3.64-.49,4.3-2.11Z"/>
    </g>
    <path class="cls-11" d="m454.27,195.27c-1.05,2.14-2.34,4.14-3.84,5.97-4.97,6.11-12.25,10.34-20.72,11.27-10.22,1.13-19.83-2.82-26.32-9.82-.36-.37-.7-.77-1.03-1.16-.4-.48-.77-.95-1.14-1.44-.18-.27-.38-.51-.55-.77-.2-.29-.41-.59-.59-.9-.26-.39-.5-.77-.73-1.18l-.37-.66c-.24-.44-.48-.88-.7-1.34h-.02c-1.54-3.18-4.51-5.41-8.02-5.72l5.06-14.05,1.56-4.34c.06-.18.13-.37.19-.53,4.39-11.72,15.68-20.33,29.44-20.31,14.37.04,27.05,10.22,30.22,24.23,1.66,7.35.62,14.59-2.43,20.73Z"/>
    <path class="cls-11" d="m457.34,206.66c3.5.39,6.41,2.69,7.89,5.89l.02.02c.21.46.43.91.66,1.35l.36.66c.22.41.45.81.7,1.2.18.32.38.61.58.91.17.27.36.52.53.78.36.5.72.98,1.1,1.46.32.4.65.8,1,1.19,6.32,7.15,15.85,11.33,26.09,10.44,11.03-.96,20.2-7.54,24.96-16.67,3.18-6.06,4.39-13.27,2.91-20.66-2.83-14.08-15.28-24.56-29.64-24.94-13.76-.34-25.25,8-29.9,19.62-.07.17-.13.36-.2.53l-7.04,18.22Z"/>
    <path class="cls-11" d="m259.25,285.7h0c-.04-5.08-1.26-9.87-3.39-14.13-6.54-13.06-21.58-19.53-35.81-16.22l-17.62,3.67c-1.38.1-2.64.65-4.04.94-1.91.39-3.75.97-5.51,1.7h-.06s0,.02,0,.02c-11.17,4.63-18.99,15.61-19.27,28-.3,13.76,8.08,25.22,19.72,29.84.17.07.36.13.53.2l18.25,6.98c.38-3.5,2.67-6.42,5.86-7.91v-.02c.4-.17.73-.46,1.14-.56,2.01-.51,8.28-.07,8.28-.07,17.77-.15,32.06-14.68,31.91-32.45Z"/>
    <path class="cls-15" d="m376.18,189.8c-4.83,9.97-14.24,16.18-24.46,17.38-6.8.82-13.96-.62-20.35-4.64-10.74-6.77-16.17-19.55-13.99-31.79l2.83.72c1.19,10.22,7.42,19.64,17.39,24.46,9.25,4.48,19.64,3.97,28.09-.46.47-.23.92-.49,1.36-.75.54-.31,1.04-.64,1.55-.98.27-.18.52-.35.78-.54.28-.22.59-.41.86-.64.37-.28.73-.56,1.08-.87l.57-.49c.38-.33.74-.67,1.1-1.03h.03c1.18-1.17,2.58-2.03,4.1-2.52-.28.72-.59,1.44-.94,2.15Z"/>
    <path class="cls-11" d="m382.48,187.47c-3.41-.88-6.95.23-9.47,2.7h-.02c-.36.37-.72.7-1.1,1.03l-.57.49c-.35.31-.71.59-1.08.87-.28.23-.58.44-.86.65-.26.19-.52.35-.78.54-.51.34-1.02.66-1.55.97-.44.26-.89.52-1.36.76-8.46,4.43-18.84,4.94-28.1.46-9.97-4.83-16.19-14.24-17.38-24.46-.82-6.8.62-13.97,4.64-20.34,7.66-12.15,23.02-17.51,36.58-12.74,12.98,4.58,20.74,16.46,20.95,28.98,0,.18,0,.38,0,.57l.09,19.54Z"/>
    <path class="cls-15" d="m426.9,225.02c-7.35,1.66-14.59.62-20.72-2.42-9.24-4.54-16.04-13.56-17.25-24.57-.33-3.01-.23-5.98.28-8.84l1.06.27-.02.07c.19.02.37.03.55.07l1.93.49.03.02c2.39.91,4.35,2.75,5.51,5.14h.02c.22.47.45.9.7,1.34l.37.66c.23.4.47.79.73,1.18.18.32.39.61.59.9.18.26.37.5.55.77.37.49.73.96,1.14,1.44.33.4.67.79,1.03,1.16,6.49,7,16.1,10.95,26.32,9.82,7.01-.78,13.21-3.8,17.95-8.3l1.8.47c-3.43,9.99-11.89,17.93-22.56,20.34Z"/>
    <path class="cls-11" d="m390.79,189.61c.67.1,1.31.26,1.93.49l-1.93-.49Z"/>
    <path class="cls-15" d="m494.66,242.82c-7.35,1.66-14.59.62-20.72-2.42-9.24-4.54-16.04-13.56-17.25-24.57-.33-3.01-.23-5.98.28-8.84l1.06.27-.02.07c.19.02.37.03.55.07l1.93.49.03.02c2.39.91,4.35,2.75,5.51,5.14h.02c.22.47.45.9.7,1.34l.37.66c.23.4.47.79.73,1.18.18.32.39.61.59.9.18.26.37.5.55.77.37.49.73.96,1.14,1.44.33.4.67.79,1.03,1.16,6.49,7,16.1,10.95,26.32,9.82,7.01-.78,13.21-3.8,17.95-8.3l1.8.47c-3.43,9.99-11.89,17.93-22.56,20.34Z"/>
  </g>
  <g>
    <path class="cls-2" d="m29.55,103.95c-2.52,0-4.81-.33-6.87-1-2.06-.66-3.83-1.56-5.32-2.69-1.49-1.13-2.8-2.45-3.93-3.98l-1.49,6.47H0V31.12h13.43v28.56c1.59-2.39,3.7-4.36,6.32-5.92,2.62-1.56,5.89-2.34,9.8-2.34,4.58,0,8.67,1.16,12.29,3.48,3.61,2.32,6.48,5.46,8.61,9.4,2.12,3.95,3.18,8.41,3.18,13.38s-1.04,9.54-3.13,13.48c-2.09,3.95-4.94,7.06-8.56,9.35-3.62,2.29-7.75,3.43-12.39,3.43Zm-3.08-11.74c2.59,0,4.89-.61,6.92-1.84,2.02-1.23,3.61-2.92,4.78-5.07,1.16-2.15,1.74-4.69,1.74-7.61s-.58-5.29-1.74-7.51c-1.16-2.22-2.75-3.95-4.78-5.17-2.02-1.23-4.33-1.84-6.92-1.84s-4.89.61-6.92,1.84c-2.02,1.23-3.6,2.94-4.73,5.12-1.13,2.19-1.69,4.74-1.69,7.66s.56,5.36,1.69,7.51c1.13,2.16,2.7,3.85,4.73,5.07,2.02,1.23,4.33,1.84,6.92,1.84Z"/>
    <path class="cls-2" d="m149.54,103.95c-4.84,0-9.17-1.11-12.98-3.33-3.82-2.22-6.83-5.31-9.05-9.25-2.22-3.95-3.33-8.47-3.33-13.58s1.11-9.83,3.33-13.78c2.22-3.95,5.26-7.03,9.1-9.25,3.85-2.22,8.19-3.33,13.03-3.33s9.15,1.11,12.93,3.33c3.78,2.22,6.78,5.29,9,9.2,2.22,3.91,3.33,8.49,3.33,13.73s-1.11,9.74-3.33,13.68c-2.22,3.95-5.24,7.03-9.05,9.25-3.82,2.22-8.14,3.33-12.98,3.33Zm0-11.64c2.12,0,4.06-.55,5.82-1.64,1.76-1.09,3.18-2.74,4.28-4.93,1.09-2.19,1.64-4.88,1.64-8.06s-.53-5.95-1.59-8.11c-1.06-2.15-2.45-3.78-4.18-4.88-1.73-1.09-3.65-1.64-5.77-1.64s-4.18.55-5.97,1.64c-1.79,1.09-3.22,2.72-4.28,4.88-1.06,2.16-1.59,4.86-1.59,8.11s.51,5.87,1.54,8.06c1.03,2.19,2.44,3.83,4.23,4.93s3.75,1.64,5.87,1.64Z"/>
    <path class="cls-2" d="m243.97,102.76V31.12h13.43v28.85c1.66-2.59,3.88-4.66,6.67-6.22,2.79-1.56,5.97-2.34,9.55-2.34,4.18,0,7.69.88,10.55,2.64,2.85,1.76,5.01,4.31,6.47,7.66,1.46,3.35,2.19,7.45,2.19,12.29v28.76h-13.33v-27.46c0-4.05-.83-7.15-2.49-9.3-1.66-2.15-4.25-3.23-7.76-3.23-2.26,0-4.28.53-6.07,1.59-1.79,1.06-3.2,2.59-4.23,4.58-1.03,1.99-1.54,4.45-1.54,7.36v26.47h-13.43Z"/>
    <path class="cls-2" d="m351.23,63.51c-2.05-3.68-4.94-6.62-8.66-8.81-3.71-2.19-8.06-3.28-13.03-3.28s-9.59,1.16-13.44,3.48c-3.85,2.32-6.85,5.48-9.01,9.46-2.15,3.98-3.23,8.59-3.23,13.82s1.08,9.51,3.23,13.38c2.16,3.88,5.18,6.92,9.06,9.1,3.87,2.19,8.33,3.28,13.38,3.28,3.91,0,7.44-.72,10.59-2.14,3.15-1.42,5.83-3.41,8.06-5.97,2.23-2.55,3.77-5.38,4.63-8.51h-13.63c-.87,1.72-2.08,3.1-3.64,4.13-1.56,1.03-3.59,1.54-6.12,1.54s-4.61-.56-6.46-1.69c-1.86-1.12-3.31-2.71-4.33-4.73-.83-1.64-1.33-3.51-1.48-5.62h36.95c.06-.87.11-1.71.15-2.54.03-.83.04-1.58.04-2.25,0-4.77-1.03-9-3.08-12.68Zm-33.8,9.2c.28-1.52.73-2.86,1.36-4.03,1.12-2.09,2.64-3.68,4.53-4.77,1.89-1.09,4-1.65,6.32-1.65,3.05,0,5.62.96,7.71,2.89,2.09,1.93,3.23,4.45,3.42,7.56h-23.34Z"/>
    <path class="cls-2" d="m382.27,103.95c-4.11,0-7.53-.68-10.25-2.04-2.72-1.36-4.76-3.18-6.12-5.47-1.36-2.29-2.04-4.83-2.04-7.61,0-3.12.78-5.84,2.34-8.16,1.56-2.32,3.93-4.13,7.11-5.42s7.23-1.94,12.14-1.94h12.24c0-2.52-.32-4.58-.95-6.17-.63-1.59-1.66-2.79-3.08-3.58-1.43-.8-3.3-1.19-5.62-1.19-2.52,0-4.66.53-6.42,1.59-1.76,1.06-2.84,2.75-3.23,5.07h-13.03c.33-3.65,1.51-6.77,3.53-9.35,2.02-2.59,4.71-4.61,8.06-6.07,3.35-1.46,7.08-2.19,11.19-2.19,4.71,0,8.81.78,12.29,2.34,3.48,1.56,6.13,3.85,7.96,6.87,1.82,3.02,2.74,6.68,2.74,10.99v31.14h-11.24l-1.49-7.66c-.73,1.33-1.61,2.52-2.64,3.58-1.03,1.06-2.22,1.99-3.58,2.79-1.36.8-2.84,1.41-4.43,1.84-1.59.43-3.42.65-5.47.65Zm3.28-10.35c1.66,0,3.17-.31,4.53-.95,1.36-.63,2.54-1.51,3.53-2.64,1-1.13,1.79-2.39,2.39-3.78.6-1.39.99-2.92,1.19-4.58v-.1h-10.25c-2.12,0-3.83.25-5.12.75-1.29.5-2.24,1.21-2.84,2.14-.6.93-.9,1.99-.9,3.18,0,1.26.3,2.34.9,3.23.6.9,1.48,1.58,2.64,2.04,1.16.46,2.47.7,3.93.7Z"/>
    <path class="cls-2" d="m445.85,103.95c-4.58,0-8.67-1.13-12.29-3.38-3.62-2.25-6.45-5.37-8.51-9.35-2.06-3.98-3.08-8.46-3.08-13.43s1.03-9.63,3.08-13.58c2.06-3.95,4.94-7.06,8.66-9.35,3.71-2.29,7.86-3.43,12.44-3.43,3.65,0,6.82.66,9.5,1.99,2.69,1.33,4.86,3.22,6.52,5.67v-27.96h13.43v71.64h-11.94l-1.49-6.96c-1.06,1.53-2.34,2.9-3.83,4.13-1.49,1.23-3.25,2.21-5.27,2.93-2.02.73-4.43,1.09-7.21,1.09Zm3.18-11.74c2.72,0,5.07-.61,7.06-1.84,1.99-1.23,3.55-2.93,4.68-5.12,1.13-2.19,1.69-4.74,1.69-7.66s-.56-5.37-1.69-7.56c-1.13-2.19-2.7-3.88-4.73-5.07-2.02-1.19-4.4-1.79-7.12-1.79-2.52,0-4.79.61-6.82,1.84-2.02,1.23-3.6,2.94-4.73,5.12-1.13,2.19-1.69,4.68-1.69,7.46s.56,5.46,1.69,7.61c1.13,2.16,2.7,3.86,4.73,5.12,2.02,1.26,4.33,1.89,6.92,1.89Z"/>
    <path class="cls-2" d="m534.4,63.51c-2.05-3.68-4.94-6.62-8.66-8.81-3.71-2.19-8.06-3.28-13.03-3.28s-9.59,1.16-13.44,3.48c-3.85,2.32-6.85,5.48-9.01,9.46-2.15,3.98-3.23,8.59-3.23,13.82s1.08,9.51,3.23,13.38c2.16,3.88,5.18,6.92,9.06,9.1,3.87,2.19,8.33,3.28,13.38,3.28,3.91,0,7.44-.72,10.59-2.14,3.15-1.42,5.84-3.41,8.06-5.97,2.23-2.55,3.77-5.38,4.63-8.51h-13.63c-.87,1.72-2.08,3.1-3.64,4.13-1.55,1.03-3.59,1.54-6.12,1.54s-4.61-.56-6.46-1.69c-1.86-1.12-3.31-2.71-4.33-4.73-.83-1.64-1.33-3.51-1.48-5.62h36.95c.06-.87.11-1.71.15-2.54.03-.83.04-1.58.04-2.25,0-4.77-1.03-9-3.08-12.68Zm-33.8,9.2c.28-1.52.73-2.86,1.36-4.03,1.12-2.09,2.64-3.68,4.53-4.77,1.89-1.09,4-1.65,6.32-1.65,3.05,0,5.62.96,7.71,2.89,2.09,1.93,3.23,4.45,3.42,7.56h-23.34Z"/>
    <path class="cls-2" d="m570.81,103.95c-4.58,0-8.67-1.13-12.29-3.38-3.62-2.25-6.45-5.37-8.51-9.35-2.06-3.98-3.08-8.46-3.08-13.43s1.03-9.63,3.08-13.58c2.06-3.95,4.94-7.06,8.66-9.35,3.71-2.29,7.86-3.43,12.44-3.43,3.65,0,6.82.66,9.5,1.99,2.69,1.33,4.86,3.22,6.52,5.67v-27.96h13.43v71.64h-11.94l-1.49-6.96c-1.06,1.53-2.34,2.9-3.83,4.13-1.49,1.23-3.25,2.21-5.27,2.93-2.02.73-4.43,1.09-7.21,1.09Zm3.18-11.74c2.72,0,5.07-.61,7.06-1.84,1.99-1.23,3.55-2.93,4.68-5.12,1.13-2.19,1.69-4.74,1.69-7.66s-.56-5.37-1.69-7.56c-1.13-2.19-2.7-3.88-4.73-5.07-2.02-1.19-4.4-1.79-7.12-1.79-2.52,0-4.79.61-6.82,1.84-2.02,1.23-3.6,2.94-4.73,5.12-1.13,2.19-1.69,4.68-1.69,7.46s.56,5.46,1.69,7.61c1.13,2.16,2.7,3.86,4.73,5.12,2.02,1.26,4.33,1.89,6.92,1.89Z"/>
  </g>
  <path class="cls-2" d="m236.01,102.76h-16.72l-19.39-24.91v24.91h-13.44v-54.35l-29.78-25.81c-6.82-5.91-15.54-9.16-24.56-9.16H46.79l9.97,8.65,13.44,11.64v15.51c-.49.33-.97.67-1.44,1.03-3.52,2.65-6.43,5.98-8.66,9.95-1.51,2.67-2.62,5.56-3.34,8.66v-29.01L26.27,13.44,10.77,0h126.36c9.02,0,17.75,3.25,24.56,9.16h0s24.76,21.46,24.76,21.46l13.44,11.65v30.67l17.21-20.34h15.92l-20.21,23.06,23.2,27.1Z"/>
  <path class="cls-2" d="m110.89,63.96c-2.22-3.92-5.22-6.99-9-9.21-3.78-2.22-8.09-3.34-12.93-3.34s-9.19,1.11-13.04,3.34c-2.16,1.25-4.06,2.77-5.72,4.56-1.28,1.4-2.42,2.96-3.38,4.69-2.22,3.94-3.34,8.54-3.34,13.78s1.11,9.63,3.34,13.58c.97,1.72,2.1,3.29,3.38,4.69,1.63,1.79,3.52,3.31,5.67,4.56,3.82,2.22,8.14,3.34,12.99,3.34s9.16-1.11,12.98-3.34c3.81-2.22,6.83-5.31,9.05-9.26s3.34-8.51,3.34-13.68-1.11-9.82-3.34-13.73Zm-11.94,21.79c-1.09,2.19-2.52,3.83-4.28,4.93-1.76,1.09-3.7,1.64-5.82,1.64s-4.08-.55-5.87-1.64c-1.79-1.09-3.2-2.74-4.23-4.93-1.03-2.19-1.54-4.88-1.54-8.06s.53-5.95,1.59-8.11c1.06-2.15,2.49-3.78,4.28-4.88s3.78-1.64,5.97-1.64,4.04.55,5.77,1.64c1.72,1.09,3.12,2.73,4.18,4.88,1.06,2.16,1.59,4.86,1.59,8.11s-.55,5.87-1.64,8.06Z"/>
</svg>