<?xml version="1.0" encoding="UTF-8"?>
<svg id="Camada_1" data-name="Camada 1" xmlns="http://www.w3.org/2000/svg" viewBox="0 0 610.26 471.92">
  <defs>
    <style>
      .cls-1 {
        fill: #312783;
      }

      .cls-2 {
        fill: #fff;
      }

      .cls-3 {
        fill: #d7a982;
      }

      .cls-4 {
        fill: #f39200;
      }

      .cls-5 {
        fill: #be1622;
      }

      .cls-6 {
        fill: #dd887e;
      }

      .cls-7 {
        fill: #1e1e1c;
      }

      .cls-8 {
        fill: #29235c;
      }

      .cls-9 {
        fill: #f7a434;
      }

      .cls-10 {
        fill: #fab334;
      }

      .cls-11 {
        fill: #eeb98e;
      }

      .cls-12 {
        fill: #e49934;
      }

      .cls-13 {
        fill: #3ba9e0;
      }

      .cls-14 {
        fill: #354293;
      }

      .cls-15 {
        fill: #a2151b;
      }

      .cls-16 {
        fill: #1d1d1b;
      }

      .cls-17 {
        fill: #ededed;
      }
    </style>
  </defs>
  <g>
    <path class="cls-2" d="m33.24,103.95c-2.52,0-4.81-.33-6.87-1-2.06-.66-3.83-1.56-5.32-2.69-1.49-1.13-2.8-2.45-3.93-3.98l-1.49,6.47H3.69V31.12h13.43v28.56c1.59-2.39,3.7-4.36,6.32-5.92,2.62-1.56,5.89-2.34,9.8-2.34,4.58,0,8.67,1.16,12.29,3.48,3.61,2.32,6.48,5.46,8.61,9.4,2.12,3.95,3.18,8.41,3.18,13.38s-1.04,9.54-3.13,13.48c-2.09,3.95-4.94,7.06-8.56,9.35-3.62,2.29-7.75,3.43-12.39,3.43Zm-3.08-11.74c2.59,0,4.89-.61,6.92-1.84,2.02-1.23,3.61-2.92,4.78-5.07,1.16-2.15,1.74-4.69,1.74-7.61s-.58-5.29-1.74-7.51c-1.16-2.22-2.75-3.95-4.78-5.17-2.02-1.23-4.33-1.84-6.92-1.84s-4.89.61-6.92,1.84c-2.02,1.23-3.6,2.94-4.73,5.12-1.13,2.19-1.69,4.74-1.69,7.66s.56,5.36,1.69,7.51c1.13,2.16,2.7,3.85,4.73,5.07,2.02,1.23,4.33,1.84,6.92,1.84Z"/>
    <path class="cls-2" d="m153.23,103.95c-4.84,0-9.17-1.11-12.98-3.33-3.82-2.22-6.83-5.31-9.05-9.25-2.22-3.95-3.33-8.47-3.33-13.58s1.11-9.83,3.33-13.78c2.22-3.95,5.26-7.03,9.1-9.25,3.85-2.22,8.19-3.33,13.03-3.33s9.15,1.11,12.93,3.33c3.78,2.22,6.78,5.29,9,9.2,2.22,3.91,3.33,8.49,3.33,13.73s-1.11,9.74-3.33,13.68c-2.22,3.95-5.24,7.03-9.05,9.25-3.82,2.22-8.14,3.33-12.98,3.33Zm0-11.64c2.12,0,4.06-.55,5.82-1.64,1.76-1.09,3.18-2.74,4.28-4.93,1.09-2.19,1.64-4.88,1.64-8.06s-.53-5.95-1.59-8.11c-1.06-2.15-2.45-3.78-4.18-4.88-1.73-1.09-3.65-1.64-5.77-1.64s-4.18.55-5.97,1.64c-1.79,1.09-3.22,2.72-4.28,4.88-1.06,2.16-1.59,4.86-1.59,8.11s.51,5.87,1.54,8.06c1.03,2.19,2.44,3.83,4.23,4.93s3.75,1.64,5.87,1.64Z"/>
    <path class="cls-2" d="m247.65,102.76V31.12h13.43v28.85c1.66-2.59,3.88-4.66,6.67-6.22,2.79-1.56,5.97-2.34,9.55-2.34,4.18,0,7.69.88,10.55,2.64,2.85,1.76,5.01,4.31,6.47,7.66,1.46,3.35,2.19,7.45,2.19,12.29v28.76h-13.33v-27.46c0-4.05-.83-7.15-2.49-9.3-1.66-2.15-4.25-3.23-7.76-3.23-2.26,0-4.28.53-6.07,1.59-1.79,1.06-3.2,2.59-4.23,4.58-1.03,1.99-1.54,4.45-1.54,7.36v26.47h-13.43Z"/>
    <path class="cls-2" d="m354.91,63.51c-2.05-3.68-4.94-6.62-8.66-8.81-3.71-2.19-8.06-3.28-13.03-3.28s-9.59,1.16-13.44,3.48c-3.85,2.32-6.85,5.48-9.01,9.46-2.15,3.98-3.23,8.59-3.23,13.82s1.08,9.51,3.23,13.38c2.16,3.88,5.18,6.92,9.06,9.1,3.87,2.19,8.33,3.28,13.38,3.28,3.91,0,7.44-.72,10.59-2.14,3.15-1.42,5.83-3.41,8.06-5.97,2.23-2.55,3.77-5.38,4.63-8.51h-13.63c-.87,1.72-2.08,3.1-3.64,4.13-1.56,1.03-3.59,1.54-6.12,1.54s-4.61-.56-6.46-1.69c-1.86-1.12-3.31-2.71-4.33-4.73-.83-1.64-1.33-3.51-1.48-5.62h36.95c.06-.87.11-1.71.15-2.54.03-.83.04-1.58.04-2.25,0-4.77-1.03-9-3.08-12.68Zm-33.8,9.2c.28-1.52.73-2.86,1.36-4.03,1.12-2.09,2.64-3.68,4.53-4.77,1.89-1.09,4-1.65,6.32-1.65,3.05,0,5.62.96,7.71,2.89,2.09,1.93,3.23,4.45,3.42,7.56h-23.34Z"/>
    <path class="cls-2" d="m385.95,103.95c-4.11,0-7.53-.68-10.25-2.04-2.72-1.36-4.76-3.18-6.12-5.47-1.36-2.29-2.04-4.83-2.04-7.61,0-3.12.78-5.84,2.34-8.16,1.56-2.32,3.93-4.13,7.11-5.42s7.23-1.94,12.14-1.94h12.24c0-2.52-.32-4.58-.95-6.17-.63-1.59-1.66-2.79-3.08-3.58-1.43-.8-3.3-1.19-5.62-1.19-2.52,0-4.66.53-6.42,1.59-1.76,1.06-2.84,2.75-3.23,5.07h-13.03c.33-3.65,1.51-6.77,3.53-9.35,2.02-2.59,4.71-4.61,8.06-6.07,3.35-1.46,7.08-2.19,11.19-2.19,4.71,0,8.81.78,12.29,2.34,3.48,1.56,6.13,3.85,7.96,6.87,1.82,3.02,2.74,6.68,2.74,10.99v31.14h-11.24l-1.49-7.66c-.73,1.33-1.61,2.52-2.64,3.58-1.03,1.06-2.22,1.99-3.58,2.79-1.36.8-2.84,1.41-4.43,1.84-1.59.43-3.42.65-5.47.65Zm3.28-10.35c1.66,0,3.17-.31,4.53-.95,1.36-.63,2.54-1.51,3.53-2.64,1-1.13,1.79-2.39,2.39-3.78.6-1.39.99-2.92,1.19-4.58v-.1h-10.25c-2.12,0-3.83.25-5.12.75-1.29.5-2.24,1.21-2.84,2.14-.6.93-.9,1.99-.9,3.18,0,1.26.3,2.34.9,3.23.6.9,1.48,1.58,2.64,2.04,1.16.46,2.47.7,3.93.7Z"/>
    <path class="cls-2" d="m449.53,103.95c-4.58,0-8.67-1.13-12.29-3.38-3.62-2.25-6.45-5.37-8.51-9.35-2.06-3.98-3.08-8.46-3.08-13.43s1.03-9.63,3.08-13.58c2.06-3.95,4.94-7.06,8.66-9.35,3.71-2.29,7.86-3.43,12.44-3.43,3.65,0,6.82.66,9.5,1.99,2.69,1.33,4.86,3.22,6.52,5.67v-27.96h13.43v71.64h-11.94l-1.49-6.96c-1.06,1.53-2.34,2.9-3.83,4.13-1.49,1.23-3.25,2.21-5.27,2.93-2.02.73-4.43,1.09-7.21,1.09Zm3.18-11.74c2.72,0,5.07-.61,7.06-1.84,1.99-1.23,3.55-2.93,4.68-5.12,1.13-2.19,1.69-4.74,1.69-7.66s-.56-5.37-1.69-7.56c-1.13-2.19-2.7-3.88-4.73-5.07-2.02-1.19-4.4-1.79-7.12-1.79-2.52,0-4.79.61-6.82,1.84-2.02,1.23-3.6,2.94-4.73,5.12-1.13,2.19-1.69,4.68-1.69,7.46s.56,5.46,1.69,7.61c1.13,2.16,2.7,3.86,4.73,5.12,2.02,1.26,4.33,1.89,6.92,1.89Z"/>
    <path class="cls-2" d="m538.09,63.51c-2.05-3.68-4.94-6.62-8.66-8.81-3.71-2.19-8.06-3.28-13.03-3.28s-9.59,1.16-13.44,3.48c-3.85,2.32-6.85,5.48-9.01,9.46-2.15,3.98-3.23,8.59-3.23,13.82s1.08,9.51,3.23,13.38c2.16,3.88,5.18,6.92,9.06,9.1,3.87,2.19,8.33,3.28,13.38,3.28,3.91,0,7.44-.72,10.59-2.14,3.15-1.42,5.84-3.41,8.06-5.97,2.23-2.55,3.77-5.38,4.63-8.51h-13.63c-.87,1.72-2.08,3.1-3.64,4.13-1.55,1.03-3.59,1.54-6.12,1.54s-4.61-.56-6.46-1.69c-1.86-1.12-3.31-2.71-4.33-4.73-.83-1.64-1.33-3.51-1.48-5.62h36.95c.06-.87.11-1.71.15-2.54.03-.83.04-1.58.04-2.25,0-4.77-1.03-9-3.08-12.68Zm-33.8,9.2c.28-1.52.73-2.86,1.36-4.03,1.12-2.09,2.64-3.68,4.53-4.77,1.89-1.09,4-1.65,6.32-1.65,3.05,0,5.62.96,7.71,2.89,2.09,1.93,3.23,4.45,3.42,7.56h-23.34Z"/>
    <path class="cls-2" d="m574.5,103.95c-4.58,0-8.67-1.13-12.29-3.38-3.62-2.25-6.45-5.37-8.51-9.35-2.06-3.98-3.08-8.46-3.08-13.43s1.03-9.63,3.08-13.58c2.06-3.95,4.94-7.06,8.66-9.35,3.71-2.29,7.86-3.43,12.44-3.43,3.65,0,6.82.66,9.5,1.99,2.69,1.33,4.86,3.22,6.52,5.67v-27.96h13.43v71.64h-11.94l-1.49-6.96c-1.06,1.53-2.34,2.9-3.83,4.13-1.49,1.23-3.25,2.21-5.27,2.93-2.02.73-4.43,1.09-7.21,1.09Zm3.18-11.74c2.72,0,5.07-.61,7.06-1.84,1.99-1.23,3.55-2.93,4.68-5.12,1.13-2.19,1.69-4.74,1.69-7.66s-.56-5.37-1.69-7.56c-1.13-2.19-2.7-3.88-4.73-5.07-2.02-1.19-4.4-1.79-7.12-1.79-2.52,0-4.79.61-6.82,1.84-2.02,1.23-3.6,2.94-4.73,5.12-1.13,2.19-1.69,4.68-1.69,7.46s.56,5.46,1.69,7.61c1.13,2.16,2.7,3.86,4.73,5.12,2.02,1.26,4.33,1.89,6.92,1.89Z"/>
  </g>
  <path class="cls-2" d="m239.7,102.76h-16.72l-19.39-24.91v24.91h-13.44v-54.35l-29.78-25.81c-6.82-5.91-15.54-9.16-24.56-9.16H50.47l9.97,8.65,13.44,11.64v15.51c-.49.33-.97.67-1.44,1.03-3.52,2.65-6.43,5.98-8.66,9.95-1.51,2.67-2.62,5.56-3.34,8.66v-29.01L29.96,13.44,14.45,0h126.36c9.02,0,17.75,3.25,24.56,9.16h0s24.76,21.46,24.76,21.46l13.44,11.65v30.67l17.21-20.34h15.92l-20.21,23.06,23.2,27.1Z"/>
  <path class="cls-2" d="m114.58,63.96c-2.22-3.92-5.22-6.99-9-9.21-3.78-2.22-8.09-3.34-12.93-3.34s-9.19,1.11-13.04,3.34c-2.16,1.25-4.06,2.77-5.72,4.56-1.28,1.4-2.42,2.96-3.38,4.69-2.22,3.94-3.34,8.54-3.34,13.78s1.11,9.63,3.34,13.58c.97,1.72,2.1,3.29,3.38,4.69,1.63,1.79,3.52,3.31,5.67,4.56,3.82,2.22,8.14,3.34,12.99,3.34s9.16-1.11,12.98-3.34c3.81-2.22,6.83-5.31,9.05-9.26s3.34-8.51,3.34-13.68-1.11-9.82-3.34-13.73Zm-11.94,21.79c-1.09,2.19-2.52,3.83-4.28,4.93-1.76,1.09-3.7,1.64-5.82,1.64s-4.08-.55-5.87-1.64c-1.79-1.09-3.2-2.74-4.23-4.93-1.03-2.19-1.54-4.88-1.54-8.06s.53-5.95,1.59-8.11c1.06-2.15,2.49-3.78,4.28-4.88s3.78-1.64,5.97-1.64,4.04.55,5.77,1.64c1.72,1.09,3.12,2.73,4.18,4.88,1.06,2.16,1.59,4.86,1.59,8.11s-.55,5.87-1.64,8.06Z"/>
  <g>
    <circle class="cls-1" cx="15.75" cy="400.24" r="15.59"/>
    <circle class="cls-1" cx="15.9" cy="400.24" r="15.59"/>
    <circle class="cls-1" cx="16.05" cy="400.24" r="15.59"/>
    <circle class="cls-1" cx="16.2" cy="400.24" r="15.59"/>
    <circle class="cls-1" cx="16.35" cy="400.23" r="15.59"/>
    <circle class="cls-1" cx="16.5" cy="400.23" r="15.59"/>
    <circle class="cls-1" cx="16.65" cy="400.23" r="15.59"/>
    <circle class="cls-1" cx="16.8" cy="400.23" r="15.59"/>
    <circle class="cls-1" cx="16.95" cy="400.23" r="15.59"/>
    <circle class="cls-1" cx="17.11" cy="400.22" r="15.59"/>
    <circle class="cls-1" cx="17.26" cy="400.22" r="15.59"/>
    <circle class="cls-1" cx="17.41" cy="400.22" r="15.59"/>
    <circle class="cls-1" cx="17.56" cy="400.22" r="15.59"/>
    <circle class="cls-1" cx="17.71" cy="400.22" r="15.59"/>
    <circle class="cls-1" cx="17.86" cy="400.21" r="15.59"/>
    <circle class="cls-1" cx="18.01" cy="400.21" r="15.59"/>
    <circle class="cls-1" cx="18.16" cy="400.21" r="15.59"/>
    <circle class="cls-1" cx="18.31" cy="400.21" r="15.59"/>
    <circle class="cls-1" cx="18.47" cy="400.2" r="15.59"/>
    <circle class="cls-1" cx="18.62" cy="400.2" r="15.59"/>
    <circle class="cls-1" cx="18.77" cy="400.2" r="15.59"/>
    <circle class="cls-1" cx="18.92" cy="400.2" r="15.59"/>
    <circle class="cls-1" cx="19.07" cy="400.2" r="15.59"/>
    <circle class="cls-1" cx="19.22" cy="400.19" r="15.59"/>
    <circle class="cls-1" cx="19.37" cy="400.19" r="15.59"/>
    <circle class="cls-1" cx="19.52" cy="400.19" r="15.59"/>
    <circle class="cls-1" cx="19.67" cy="400.19" r="15.59"/>
    <circle class="cls-1" cx="19.83" cy="400.19" r="15.59"/>
    <circle class="cls-1" cx="19.98" cy="400.18" r="15.59"/>
    <circle class="cls-1" cx="20.13" cy="400.18" r="15.59"/>
    <circle class="cls-1" cx="20.28" cy="400.18" r="15.59"/>
    <circle class="cls-1" cx="20.43" cy="400.18" r="15.59"/>
    <circle class="cls-1" cx="20.58" cy="400.17" r="15.59"/>
    <circle class="cls-1" cx="20.73" cy="400.17" r="15.59"/>
    <circle class="cls-1" cx="20.88" cy="400.17" r="15.59"/>
    <circle class="cls-1" cx="21.03" cy="400.17" r="15.59"/>
    <circle class="cls-1" cx="21.19" cy="400.17" r="15.59"/>
    <circle class="cls-1" cx="21.34" cy="400.16" r="15.59"/>
    <circle class="cls-1" cx="21.49" cy="400.16" r="15.59"/>
    <circle class="cls-1" cx="21.64" cy="400.16" r="15.59"/>
    <circle class="cls-1" cx="21.79" cy="400.16" r="15.59"/>
    <circle class="cls-1" cx="21.94" cy="400.16" r="15.59"/>
    <circle class="cls-1" cx="22.09" cy="400.15" r="15.59"/>
    <circle class="cls-1" cx="22.24" cy="400.15" r="15.59"/>
    <circle class="cls-1" cx="22.39" cy="400.15" r="15.59"/>
    <circle class="cls-1" cx="22.55" cy="400.15" r="15.59"/>
    <circle class="cls-1" cx="22.7" cy="400.14" r="15.59"/>
    <circle class="cls-1" cx="22.85" cy="400.14" r="15.59"/>
    <circle class="cls-1" cx="23" cy="400.14" r="15.59"/>
    <circle class="cls-1" cx="23.15" cy="400.14" r="15.59"/>
    <circle class="cls-1" cx="23.3" cy="400.14" r="15.59"/>
    <circle class="cls-1" cx="23.45" cy="400.13" r="15.59"/>
    <circle class="cls-1" cx="23.6" cy="400.13" r="15.59"/>
    <circle class="cls-1" cx="23.75" cy="400.13" r="15.59"/>
    <circle class="cls-1" cx="23.91" cy="400.13" r="15.59"/>
    <circle class="cls-1" cx="24.06" cy="400.13" r="15.59"/>
    <circle class="cls-1" cx="24.21" cy="400.12" r="15.59"/>
    <circle class="cls-1" cx="24.36" cy="400.12" r="15.59"/>
    <circle class="cls-1" cx="24.51" cy="400.12" r="15.59"/>
    <circle class="cls-1" cx="24.66" cy="400.12" r="15.59"/>
    <circle class="cls-1" cx="24.81" cy="400.11" r="15.59"/>
    <circle class="cls-1" cx="24.96" cy="400.11" r="15.59"/>
    <circle class="cls-1" cx="25.11" cy="400.11" r="15.59"/>
    <circle class="cls-1" cx="25.27" cy="400.11" r="15.59"/>
    <circle class="cls-1" cx="25.42" cy="400.11" r="15.59"/>
    <circle class="cls-1" cx="25.57" cy="400.1" r="15.59"/>
    <circle class="cls-1" cx="25.72" cy="400.1" r="15.59"/>
    <circle class="cls-1" cx="25.87" cy="400.1" r="15.59"/>
    <circle class="cls-1" cx="26.02" cy="400.1" r="15.59"/>
    <circle class="cls-1" cx="26.17" cy="400.1" r="15.59"/>
    <circle class="cls-1" cx="26.32" cy="400.09" r="15.59"/>
    <circle class="cls-1" cx="26.47" cy="400.09" r="15.59"/>
    <circle class="cls-1" cx="26.63" cy="400.09" r="15.59"/>
    <circle class="cls-1" cx="26.78" cy="400.09" r="15.59"/>
    <circle class="cls-1" cx="26.93" cy="400.08" r="15.59"/>
    <circle class="cls-1" cx="27.08" cy="400.08" r="15.59"/>
    <circle class="cls-1" cx="27.23" cy="400.08" r="15.59"/>
    <circle class="cls-1" cx="27.38" cy="400.08" r="15.59"/>
    <circle class="cls-1" cx="27.53" cy="400.08" r="15.59"/>
    <circle class="cls-1" cx="27.68" cy="400.07" r="15.59"/>
    <circle class="cls-1" cx="27.83" cy="400.07" r="15.59"/>
    <circle class="cls-1" cx="27.99" cy="400.07" r="15.59"/>
    <circle class="cls-1" cx="28.14" cy="400.07" r="15.59"/>
    <circle class="cls-1" cx="28.29" cy="400.07" r="15.59"/>
    <circle class="cls-1" cx="28.44" cy="400.06" r="15.59"/>
    <circle class="cls-1" cx="28.59" cy="400.06" r="15.59"/>
    <circle class="cls-1" cx="28.74" cy="400.06" r="15.59"/>
    <circle class="cls-1" cx="28.89" cy="400.06" r="15.59"/>
    <circle class="cls-1" cx="29.04" cy="400.05" r="15.59"/>
    <circle class="cls-1" cx="29.19" cy="400.05" r="15.59"/>
    <circle class="cls-1" cx="29.35" cy="400.05" r="15.59"/>
    <circle class="cls-1" cx="29.5" cy="400.05" r="15.59"/>
    <circle class="cls-1" cx="29.65" cy="400.05" r="15.59"/>
    <circle class="cls-1" cx="29.8" cy="400.04" r="15.59"/>
    <circle class="cls-1" cx="29.95" cy="400.04" r="15.59"/>
    <circle class="cls-1" cx="30.1" cy="400.04" r="15.59"/>
    <circle class="cls-1" cx="30.25" cy="400.04" r="15.59"/>
    <circle class="cls-1" cx="30.4" cy="400.04" r="15.59"/>
    <circle class="cls-1" cx="30.55" cy="400.03" r="15.59"/>
    <circle class="cls-1" cx="30.71" cy="400.03" r="15.59"/>
    <circle class="cls-1" cx="30.86" cy="400.03" r="15.59"/>
    <circle class="cls-1" cx="31.01" cy="400.03" r="15.59"/>
    <circle class="cls-1" cx="31.16" cy="400.02" r="15.59"/>
    <circle class="cls-1" cx="31.31" cy="400.02" r="15.59"/>
    <circle class="cls-1" cx="31.46" cy="400.02" r="15.59"/>
    <circle class="cls-1" cx="31.61" cy="400.02" r="15.59"/>
    <circle class="cls-1" cx="31.76" cy="400.02" r="15.59"/>
    <circle class="cls-1" cx="31.91" cy="400.01" r="15.59"/>
    <circle class="cls-1" cx="32.07" cy="400.01" r="15.59"/>
    <circle class="cls-1" cx="32.22" cy="400.01" r="15.59"/>
    <circle class="cls-1" cx="32.37" cy="400.01" r="15.59"/>
    <circle class="cls-1" cx="32.52" cy="400.01" r="15.59"/>
    <circle class="cls-1" cx="32.67" cy="400" r="15.59"/>
    <circle class="cls-1" cx="32.82" cy="400" r="15.59"/>
    <circle class="cls-1" cx="32.97" cy="400" r="15.59"/>
    <circle class="cls-1" cx="33.12" cy="400" r="15.59"/>
    <circle class="cls-1" cx="33.27" cy="399.99" r="15.59"/>
    <circle class="cls-1" cx="33.42" cy="399.99" r="15.59"/>
    <circle class="cls-1" cx="33.58" cy="399.99" r="15.59"/>
    <circle class="cls-1" cx="33.73" cy="399.99" r="15.59"/>
    <circle class="cls-1" cx="33.88" cy="399.99" r="15.59"/>
    <circle class="cls-1" cx="34.03" cy="399.98" r="15.59"/>
    <circle class="cls-1" cx="34.18" cy="399.98" r="15.59"/>
    <circle class="cls-1" cx="34.33" cy="399.98" r="15.59"/>
    <circle class="cls-1" cx="34.48" cy="399.98" r="15.59"/>
    <circle class="cls-1" cx="34.63" cy="399.98" r="15.59"/>
    <circle class="cls-1" cx="34.78" cy="399.97" r="15.59"/>
    <circle class="cls-1" cx="34.94" cy="399.97" r="15.59"/>
    <circle class="cls-1" cx="35.09" cy="399.97" r="15.59"/>
    <circle class="cls-1" cx="35.24" cy="399.97" r="15.59"/>
    <circle class="cls-1" cx="35.39" cy="399.96" r="15.59"/>
    <circle class="cls-1" cx="35.54" cy="399.96" r="15.59"/>
    <circle class="cls-1" cx="35.69" cy="399.96" r="15.59"/>
    <circle class="cls-1" cx="35.84" cy="399.96" r="15.59"/>
    <circle class="cls-1" cx="35.99" cy="399.96" r="15.59"/>
    <circle class="cls-1" cx="36.14" cy="399.95" r="15.59"/>
    <circle class="cls-1" cx="36.3" cy="399.95" r="15.59"/>
    <circle class="cls-1" cx="36.45" cy="399.95" r="15.59"/>
    <circle class="cls-1" cx="36.6" cy="399.95" r="15.59"/>
    <circle class="cls-1" cx="36.75" cy="399.95" r="15.59"/>
    <circle class="cls-1" cx="36.9" cy="399.94" r="15.59"/>
    <circle class="cls-1" cx="37.05" cy="399.94" r="15.59"/>
    <circle class="cls-1" cx="37.2" cy="399.94" r="15.59"/>
    <circle class="cls-1" cx="37.35" cy="399.94" r="15.59"/>
    <circle class="cls-1" cx="37.5" cy="399.93" r="15.59"/>
    <circle class="cls-1" cx="37.66" cy="399.93" r="15.59"/>
    <circle class="cls-1" cx="37.81" cy="399.93" r="15.59"/>
    <circle class="cls-1" cx="37.96" cy="399.93" r="15.59"/>
    <circle class="cls-1" cx="38.11" cy="399.93" r="15.59"/>
    <circle class="cls-1" cx="38.26" cy="399.92" r="15.59"/>
    <circle class="cls-1" cx="38.41" cy="399.92" r="15.59"/>
    <circle class="cls-1" cx="38.56" cy="399.92" r="15.59"/>
    <circle class="cls-1" cx="38.71" cy="399.92" r="15.59"/>
    <circle class="cls-1" cx="38.86" cy="399.92" r="15.59"/>
    <circle class="cls-1" cx="39.02" cy="399.91" r="15.59"/>
    <circle class="cls-1" cx="39.17" cy="399.91" r="15.59"/>
    <circle class="cls-1" cx="39.32" cy="399.91" r="15.59"/>
    <circle class="cls-1" cx="39.47" cy="399.91" r="15.59"/>
    <circle class="cls-1" cx="39.62" cy="399.9" r="15.59"/>
    <circle class="cls-1" cx="39.77" cy="399.9" r="15.59"/>
    <circle class="cls-1" cx="39.92" cy="399.9" r="15.59"/>
    <circle class="cls-1" cx="40.07" cy="399.9" r="15.59"/>
    <circle class="cls-1" cx="40.22" cy="399.9" r="15.59"/>
    <circle class="cls-1" cx="40.38" cy="399.89" r="15.59"/>
    <circle class="cls-1" cx="40.53" cy="399.89" r="15.59"/>
    <circle class="cls-1" cx="40.68" cy="399.89" r="15.59"/>
    <circle class="cls-1" cx="40.83" cy="399.89" r="15.59"/>
    <circle class="cls-1" cx="40.98" cy="399.89" r="15.59"/>
    <circle class="cls-1" cx="41.13" cy="399.88" r="15.59"/>
    <circle class="cls-1" cx="41.28" cy="399.88" r="15.59"/>
    <circle class="cls-1" cx="41.43" cy="399.88" r="15.59"/>
    <circle class="cls-1" cx="41.58" cy="399.88" r="15.59"/>
    <circle class="cls-1" cx="41.74" cy="399.87" r="15.59"/>
    <circle class="cls-1" cx="41.89" cy="399.87" r="15.59"/>
    <circle class="cls-1" cx="42.04" cy="399.87" r="15.59"/>
    <circle class="cls-1" cx="42.19" cy="399.87" r="15.59"/>
    <circle class="cls-1" cx="42.34" cy="399.87" r="15.59"/>
    <circle class="cls-1" cx="42.49" cy="399.86" r="15.59"/>
    <circle class="cls-1" cx="42.64" cy="399.86" r="15.59"/>
    <circle class="cls-1" cx="42.79" cy="399.86" r="15.59"/>
    <circle class="cls-1" cx="42.94" cy="399.86" r="15.59"/>
    <circle class="cls-1" cx="43.1" cy="399.86" r="15.59"/>
    <circle class="cls-1" cx="43.25" cy="399.85" r="15.59"/>
    <circle class="cls-1" cx="43.4" cy="399.85" r="15.59"/>
    <circle class="cls-1" cx="43.55" cy="399.85" r="15.59"/>
    <circle class="cls-1" cx="43.7" cy="399.85" r="15.59"/>
    <circle class="cls-1" cx="43.85" cy="399.84" r="15.59"/>
    <circle class="cls-1" cx="44" cy="399.84" r="15.59"/>
    <circle class="cls-1" cx="44.15" cy="399.84" r="15.59"/>
    <circle class="cls-1" cx="44.3" cy="399.84" r="15.59"/>
    <circle class="cls-1" cx="44.46" cy="399.84" r="15.59"/>
    <circle class="cls-1" cx="44.61" cy="399.83" r="15.59"/>
    <circle class="cls-1" cx="44.76" cy="399.83" r="15.59"/>
    <circle class="cls-1" cx="44.91" cy="399.83" r="15.59"/>
    <circle class="cls-1" cx="45.06" cy="399.83" r="15.59"/>
    <circle class="cls-1" cx="45.21" cy="399.83" r="15.59"/>
    <circle class="cls-1" cx="45.36" cy="399.82" r="15.59"/>
    <circle class="cls-1" cx="45.51" cy="399.82" r="15.59"/>
    <circle class="cls-1" cx="45.66" cy="399.82" r="15.59"/>
    <circle class="cls-1" cx="45.82" cy="399.82" r="15.59"/>
    <circle class="cls-1" cx="45.97" cy="399.81" r="15.59"/>
    <circle class="cls-1" cx="46.12" cy="399.81" r="15.59"/>
    <circle class="cls-1" cx="46.27" cy="399.81" r="15.59"/>
    <circle class="cls-1" cx="46.42" cy="399.81" r="15.59"/>
    <circle class="cls-1" cx="46.57" cy="399.81" r="15.59"/>
    <circle class="cls-1" cx="46.72" cy="399.8" r="15.59"/>
    <circle class="cls-1" cx="46.87" cy="399.8" r="15.59"/>
    <circle class="cls-1" cx="47.02" cy="399.8" r="15.59"/>
    <circle class="cls-1" cx="47.18" cy="399.8" r="15.59"/>
    <circle class="cls-1" cx="47.33" cy="399.8" r="15.59"/>
    <circle class="cls-1" cx="47.48" cy="399.79" r="15.59"/>
    <circle class="cls-1" cx="47.63" cy="399.79" r="15.59"/>
    <circle class="cls-1" cx="47.78" cy="399.79" r="15.59"/>
    <circle class="cls-1" cx="47.93" cy="399.79" r="15.59"/>
    <circle class="cls-1" cx="48.08" cy="399.78" r="15.59"/>
    <circle class="cls-1" cx="48.23" cy="399.78" r="15.59"/>
    <circle class="cls-1" cx="48.38" cy="399.78" r="15.59"/>
    <circle class="cls-1" cx="48.54" cy="399.78" r="15.59"/>
    <circle class="cls-1" cx="48.69" cy="399.78" r="15.59"/>
    <circle class="cls-1" cx="48.84" cy="399.77" r="15.59"/>
    <circle class="cls-1" cx="48.99" cy="399.77" r="15.59"/>
    <circle class="cls-1" cx="49.14" cy="399.77" r="15.59"/>
    <circle class="cls-1" cx="49.29" cy="399.77" r="15.59"/>
    <circle class="cls-1" cx="49.44" cy="399.77" r="15.59"/>
    <circle class="cls-1" cx="49.59" cy="399.76" r="15.59"/>
    <circle class="cls-1" cx="49.74" cy="399.76" r="15.59"/>
    <circle class="cls-1" cx="49.9" cy="399.76" r="15.59"/>
    <circle class="cls-1" cx="50.05" cy="399.76" r="15.59"/>
    <circle class="cls-1" cx="50.2" cy="399.75" r="15.59"/>
    <circle class="cls-1" cx="50.35" cy="399.75" r="15.59"/>
    <circle class="cls-1" cx="50.5" cy="399.75" r="15.59"/>
    <circle class="cls-1" cx="50.65" cy="399.75" r="15.59"/>
    <circle class="cls-1" cx="50.8" cy="399.75" r="15.59"/>
    <circle class="cls-1" cx="50.95" cy="399.74" r="15.59"/>
    <circle class="cls-1" cx="51.1" cy="399.74" r="15.59"/>
    <circle class="cls-1" cx="51.26" cy="399.74" r="15.59"/>
    <circle class="cls-1" cx="51.41" cy="399.74" r="15.59"/>
    <circle class="cls-1" cx="51.56" cy="399.74" r="15.59"/>
    <circle class="cls-1" cx="51.71" cy="399.73" r="15.59"/>
    <circle class="cls-1" cx="51.86" cy="399.73" r="15.59"/>
    <circle class="cls-1" cx="52.01" cy="399.73" r="15.59"/>
    <circle class="cls-1" cx="52.16" cy="399.73" r="15.59"/>
    <circle class="cls-1" cx="52.31" cy="399.72" r="15.59"/>
    <circle class="cls-1" cx="52.46" cy="399.72" r="15.59"/>
    <circle class="cls-1" cx="52.62" cy="399.72" r="15.59"/>
    <circle class="cls-1" cx="52.77" cy="399.72" r="15.59"/>
    <circle class="cls-1" cx="52.92" cy="399.72" r="15.59"/>
    <circle class="cls-1" cx="53.07" cy="399.71" r="15.59"/>
    <circle class="cls-1" cx="53.22" cy="399.71" r="15.59"/>
    <circle class="cls-1" cx="53.37" cy="399.71" r="15.59"/>
    <circle class="cls-1" cx="53.52" cy="399.71" r="15.59"/>
    <circle class="cls-1" cx="53.67" cy="399.71" r="15.59"/>
    <circle class="cls-1" cx="53.82" cy="399.7" r="15.59"/>
    <circle class="cls-1" cx="53.98" cy="399.7" r="15.59"/>
    <circle class="cls-1" cx="54.13" cy="399.7" r="15.59"/>
    <circle class="cls-1" cx="54.28" cy="399.7" r="15.59"/>
    <circle class="cls-1" cx="54.43" cy="399.69" r="15.59"/>
    <circle class="cls-1" cx="54.58" cy="399.69" r="15.59"/>
    <circle class="cls-1" cx="54.73" cy="399.69" r="15.59"/>
    <circle class="cls-1" cx="54.88" cy="399.69" r="15.59"/>
    <circle class="cls-1" cx="55.03" cy="399.69" r="15.59"/>
    <circle class="cls-1" cx="55.18" cy="399.68" r="15.59"/>
    <circle class="cls-1" cx="55.34" cy="399.68" r="15.59"/>
    <circle class="cls-1" cx="55.49" cy="399.68" r="15.59"/>
    <circle class="cls-1" cx="55.64" cy="399.68" r="15.59"/>
    <circle class="cls-1" cx="55.79" cy="399.68" r="15.59"/>
    <circle class="cls-1" cx="55.94" cy="399.67" r="15.59"/>
    <circle class="cls-1" cx="56.09" cy="399.67" r="15.59"/>
    <circle class="cls-1" cx="56.24" cy="399.67" r="15.59"/>
    <circle class="cls-1" cx="56.39" cy="399.67" r="15.59"/>
    <circle class="cls-1" cx="56.54" cy="399.67" r="15.59"/>
    <circle class="cls-1" cx="56.7" cy="399.66" r="15.59"/>
    <circle class="cls-1" cx="56.85" cy="399.66" r="15.59"/>
    <circle class="cls-1" cx="57" cy="399.66" r="15.59"/>
    <circle class="cls-1" cx="57.15" cy="399.66" r="15.59"/>
    <circle class="cls-1" cx="57.3" cy="399.65" r="15.59"/>
    <circle class="cls-1" cx="57.45" cy="399.65" r="15.59"/>
    <circle class="cls-1" cx="57.6" cy="399.65" r="15.59"/>
    <circle class="cls-1" cx="57.75" cy="399.65" r="15.59"/>
    <circle class="cls-1" cx="57.9" cy="399.65" r="15.59"/>
    <circle class="cls-1" cx="58.06" cy="399.64" r="15.59"/>
    <circle class="cls-1" cx="58.21" cy="399.64" r="15.59"/>
    <circle class="cls-1" cx="58.36" cy="399.64" r="15.59"/>
    <circle class="cls-1" cx="58.51" cy="399.64" r="15.59"/>
    <circle class="cls-1" cx="58.66" cy="399.64" r="15.59"/>
    <circle class="cls-1" cx="58.81" cy="399.63" r="15.59"/>
    <circle class="cls-1" cx="58.96" cy="399.63" r="15.59"/>
    <circle class="cls-1" cx="59.11" cy="399.63" r="15.59"/>
    <circle class="cls-1" cx="59.26" cy="399.63" r="15.59"/>
    <circle class="cls-1" cx="59.42" cy="399.62" r="15.59"/>
    <circle class="cls-1" cx="59.57" cy="399.62" r="15.59"/>
    <circle class="cls-1" cx="59.72" cy="399.62" r="15.59"/>
    <circle class="cls-1" cx="59.87" cy="399.62" r="15.59"/>
    <circle class="cls-1" cx="60.02" cy="399.62" r="15.59"/>
    <circle class="cls-1" cx="60.17" cy="399.61" r="15.59"/>
    <circle class="cls-1" cx="60.32" cy="399.61" r="15.59"/>
    <circle class="cls-1" cx="60.47" cy="399.61" r="15.59"/>
    <circle class="cls-1" cx="60.62" cy="399.61" r="15.59"/>
    <circle class="cls-1" cx="60.78" cy="399.61" r="15.59"/>
    <circle class="cls-1" cx="60.93" cy="399.6" r="15.59"/>
    <circle class="cls-1" cx="61.08" cy="399.6" r="15.59"/>
    <circle class="cls-1" cx="61.23" cy="399.6" r="15.59"/>
  </g>
  <g>
    <circle class="cls-14" cx="53.7" cy="375.41" r="15.59"/>
    <circle class="cls-14" cx="53.57" cy="375.49" r="15.59"/>
    <circle class="cls-14" cx="53.45" cy="375.58" r="15.59"/>
    <circle class="cls-14" cx="53.32" cy="375.66" r="15.59"/>
    <circle class="cls-14" cx="53.2" cy="375.74" r="15.59"/>
    <circle class="cls-14" cx="53.07" cy="375.82" r="15.59"/>
    <circle class="cls-14" cx="52.94" cy="375.91" r="15.59"/>
    <circle class="cls-14" cx="52.82" cy="375.99" r="15.59"/>
    <circle class="cls-14" cx="52.69" cy="376.07" r="15.59"/>
    <circle class="cls-14" cx="52.56" cy="376.15" r="15.59"/>
    <circle class="cls-14" cx="52.44" cy="376.24" r="15.59"/>
    <circle class="cls-14" cx="52.31" cy="376.32" r="15.59"/>
    <circle class="cls-14" cx="52.18" cy="376.4" r="15.59"/>
    <circle class="cls-14" cx="52.06" cy="376.48" r="15.59"/>
    <circle class="cls-14" cx="51.93" cy="376.57" r="15.59"/>
    <circle class="cls-14" cx="51.8" cy="376.65" r="15.59"/>
    <circle class="cls-14" cx="51.68" cy="376.73" r="15.59"/>
    <circle class="cls-14" cx="51.55" cy="376.81" r="15.59"/>
    <circle class="cls-14" cx="51.42" cy="376.9" r="15.59"/>
    <circle class="cls-14" cx="51.3" cy="376.98" r="15.59"/>
    <circle class="cls-14" cx="51.17" cy="377.06" r="15.59"/>
    <circle class="cls-14" cx="51.04" cy="377.14" r="15.59"/>
    <circle class="cls-14" cx="50.92" cy="377.23" r="15.59"/>
    <circle class="cls-14" cx="50.79" cy="377.31" r="15.59"/>
    <circle class="cls-14" cx="50.66" cy="377.39" r="15.59"/>
    <circle class="cls-14" cx="50.54" cy="377.47" r="15.59"/>
    <circle class="cls-14" cx="50.41" cy="377.56" r="15.59"/>
    <circle class="cls-14" cx="50.28" cy="377.64" r="15.59"/>
    <circle class="cls-14" cx="50.16" cy="377.72" r="15.59"/>
    <circle class="cls-14" cx="50.03" cy="377.8" r="15.59"/>
    <circle class="cls-14" cx="49.9" cy="377.89" r="15.59"/>
    <circle class="cls-14" cx="49.78" cy="377.97" r="15.59"/>
    <circle class="cls-14" cx="49.65" cy="378.05" r="15.59"/>
    <circle class="cls-14" cx="49.52" cy="378.13" r="15.59"/>
    <circle class="cls-14" cx="49.4" cy="378.22" r="15.59"/>
    <circle class="cls-14" cx="49.27" cy="378.3" r="15.59"/>
    <circle class="cls-14" cx="49.14" cy="378.38" r="15.59"/>
    <circle class="cls-14" cx="49.02" cy="378.46" r="15.59"/>
    <circle class="cls-14" cx="48.89" cy="378.55" r="15.59"/>
    <circle class="cls-14" cx="48.76" cy="378.63" r="15.59"/>
    <circle class="cls-14" cx="48.64" cy="378.71" r="15.59"/>
    <circle class="cls-14" cx="48.51" cy="378.79" r="15.59"/>
    <circle class="cls-14" cx="48.38" cy="378.88" r="15.59"/>
    <circle class="cls-14" cx="48.26" cy="378.96" r="15.59"/>
    <circle class="cls-14" cx="48.13" cy="379.04" r="15.59"/>
    <circle class="cls-14" cx="48" cy="379.12" r="15.59"/>
    <circle class="cls-14" cx="47.88" cy="379.21" r="15.59"/>
    <circle class="cls-14" cx="47.75" cy="379.29" r="15.59"/>
    <circle class="cls-14" cx="47.62" cy="379.37" r="15.59"/>
    <circle class="cls-14" cx="47.5" cy="379.45" r="15.59"/>
    <circle class="cls-14" cx="47.37" cy="379.54" r="15.59"/>
    <circle class="cls-14" cx="47.24" cy="379.62" r="15.59"/>
    <circle class="cls-14" cx="47.12" cy="379.7" r="15.59"/>
    <circle class="cls-14" cx="46.99" cy="379.78" r="15.59"/>
    <circle class="cls-14" cx="46.86" cy="379.87" r="15.59"/>
    <circle class="cls-14" cx="46.74" cy="379.95" r="15.59"/>
    <circle class="cls-14" cx="46.61" cy="380.03" r="15.59"/>
    <circle class="cls-14" cx="46.48" cy="380.11" r="15.59"/>
    <circle class="cls-14" cx="46.36" cy="380.2" r="15.59"/>
    <circle class="cls-14" cx="46.23" cy="380.28" r="15.59"/>
    <circle class="cls-14" cx="46.1" cy="380.36" r="15.59"/>
    <circle class="cls-14" cx="45.98" cy="380.44" r="15.59"/>
    <circle class="cls-14" cx="45.85" cy="380.53" r="15.59"/>
    <circle class="cls-14" cx="45.72" cy="380.61" r="15.59"/>
    <circle class="cls-14" cx="45.6" cy="380.69" r="15.59"/>
    <circle class="cls-14" cx="45.47" cy="380.77" r="15.59"/>
    <circle class="cls-14" cx="45.34" cy="380.86" r="15.59"/>
    <circle class="cls-14" cx="45.22" cy="380.94" r="15.59"/>
    <circle class="cls-14" cx="45.09" cy="381.02" r="15.59"/>
    <circle class="cls-14" cx="44.96" cy="381.1" r="15.59"/>
    <circle class="cls-14" cx="44.84" cy="381.19" r="15.59"/>
    <circle class="cls-14" cx="44.71" cy="381.27" r="15.59"/>
    <circle class="cls-14" cx="44.58" cy="381.35" r="15.59"/>
    <circle class="cls-14" cx="44.46" cy="381.43" r="15.59"/>
    <circle class="cls-14" cx="44.33" cy="381.52" r="15.59"/>
    <circle class="cls-14" cx="44.21" cy="381.6" r="15.59"/>
    <circle class="cls-14" cx="44.08" cy="381.68" r="15.59"/>
    <circle class="cls-14" cx="43.95" cy="381.76" r="15.59"/>
    <circle class="cls-14" cx="43.83" cy="381.85" r="15.59"/>
    <circle class="cls-14" cx="43.7" cy="381.93" r="15.59"/>
    <circle class="cls-14" cx="43.57" cy="382.01" r="15.59"/>
    <circle class="cls-14" cx="43.45" cy="382.09" r="15.59"/>
    <circle class="cls-14" cx="43.32" cy="382.18" r="15.59"/>
    <circle class="cls-14" cx="43.19" cy="382.26" r="15.59"/>
    <circle class="cls-14" cx="43.07" cy="382.34" r="15.59"/>
    <circle class="cls-14" cx="42.94" cy="382.42" r="15.59"/>
    <circle class="cls-14" cx="42.81" cy="382.51" r="15.59"/>
    <circle class="cls-14" cx="42.69" cy="382.59" r="15.59"/>
    <circle class="cls-14" cx="42.56" cy="382.67" r="15.59"/>
    <circle class="cls-14" cx="42.43" cy="382.75" r="15.59"/>
    <circle class="cls-14" cx="42.31" cy="382.84" r="15.59"/>
    <circle class="cls-14" cx="42.18" cy="382.92" r="15.59"/>
    <circle class="cls-14" cx="42.05" cy="383" r="15.59"/>
    <circle class="cls-14" cx="41.93" cy="383.08" r="15.59"/>
    <circle class="cls-14" cx="41.8" cy="383.17" r="15.59"/>
    <circle class="cls-14" cx="41.67" cy="383.25" r="15.59"/>
    <circle class="cls-14" cx="41.55" cy="383.33" r="15.59"/>
    <circle class="cls-14" cx="41.42" cy="383.41" r="15.59"/>
    <circle class="cls-14" cx="41.29" cy="383.5" r="15.59"/>
    <circle class="cls-14" cx="41.17" cy="383.58" r="15.59"/>
    <circle class="cls-14" cx="41.04" cy="383.66" r="15.59"/>
    <circle class="cls-14" cx="40.91" cy="383.74" r="15.59"/>
    <circle class="cls-14" cx="40.79" cy="383.83" r="15.59"/>
    <circle class="cls-14" cx="40.66" cy="383.91" r="15.59"/>
    <circle class="cls-14" cx="40.53" cy="383.99" r="15.59"/>
    <circle class="cls-14" cx="40.41" cy="384.07" r="15.59"/>
    <circle class="cls-14" cx="40.28" cy="384.16" r="15.59"/>
    <circle class="cls-14" cx="40.15" cy="384.24" r="15.59"/>
    <circle class="cls-14" cx="40.03" cy="384.32" r="15.59"/>
    <circle class="cls-14" cx="39.9" cy="384.4" r="15.59"/>
    <circle class="cls-14" cx="39.77" cy="384.49" r="15.59"/>
    <circle class="cls-14" cx="39.65" cy="384.57" r="15.59"/>
    <circle class="cls-14" cx="39.52" cy="384.65" r="15.59"/>
    <circle class="cls-14" cx="39.39" cy="384.73" r="15.59"/>
    <circle class="cls-14" cx="39.27" cy="384.82" r="15.59"/>
    <circle class="cls-14" cx="39.14" cy="384.9" r="15.59"/>
    <circle class="cls-14" cx="39.01" cy="384.98" r="15.59"/>
    <circle class="cls-14" cx="38.89" cy="385.06" r="15.59"/>
    <circle class="cls-14" cx="38.76" cy="385.15" r="15.59"/>
    <circle class="cls-14" cx="38.63" cy="385.23" r="15.59"/>
    <circle class="cls-14" cx="38.51" cy="385.31" r="15.59"/>
    <circle class="cls-14" cx="38.38" cy="385.39" r="15.59"/>
    <circle class="cls-14" cx="38.25" cy="385.48" r="15.59"/>
    <circle class="cls-14" cx="38.13" cy="385.56" r="15.59"/>
    <circle class="cls-14" cx="38" cy="385.64" r="15.59"/>
    <circle class="cls-14" cx="37.87" cy="385.72" r="15.59"/>
    <circle class="cls-14" cx="37.75" cy="385.81" r="15.59"/>
    <circle class="cls-14" cx="37.62" cy="385.89" r="15.59"/>
    <circle class="cls-14" cx="37.49" cy="385.97" r="15.59"/>
    <circle class="cls-14" cx="37.37" cy="386.05" r="15.59"/>
    <circle class="cls-14" cx="37.24" cy="386.14" r="15.59"/>
    <circle class="cls-14" cx="37.11" cy="386.22" r="15.59"/>
    <circle class="cls-14" cx="36.99" cy="386.3" r="15.59"/>
    <circle class="cls-14" cx="36.86" cy="386.38" r="15.59"/>
    <circle class="cls-14" cx="36.73" cy="386.47" r="15.59"/>
    <circle class="cls-14" cx="36.61" cy="386.55" r="15.59"/>
    <circle class="cls-14" cx="36.48" cy="386.63" r="15.59"/>
    <circle class="cls-14" cx="36.35" cy="386.71" r="15.59"/>
    <circle class="cls-14" cx="36.23" cy="386.8" r="15.59"/>
    <circle class="cls-14" cx="36.1" cy="386.88" r="15.59"/>
    <circle class="cls-14" cx="35.97" cy="386.96" r="15.59"/>
    <circle class="cls-14" cx="35.85" cy="387.04" r="15.59"/>
    <circle class="cls-14" cx="35.72" cy="387.13" r="15.59"/>
    <circle class="cls-14" cx="35.59" cy="387.21" r="15.59"/>
    <circle class="cls-14" cx="35.47" cy="387.29" r="15.59"/>
    <circle class="cls-14" cx="35.34" cy="387.37" r="15.59"/>
    <circle class="cls-14" cx="35.22" cy="387.46" r="15.59"/>
    <circle class="cls-14" cx="35.09" cy="387.54" r="15.59"/>
    <circle class="cls-14" cx="34.96" cy="387.62" r="15.59"/>
    <circle class="cls-14" cx="34.84" cy="387.7" r="15.59"/>
    <circle class="cls-14" cx="34.71" cy="387.79" r="15.59"/>
    <circle class="cls-14" cx="34.58" cy="387.87" r="15.59"/>
    <circle class="cls-14" cx="34.46" cy="387.95" r="15.59"/>
    <circle class="cls-14" cx="34.33" cy="388.03" r="15.59"/>
    <circle class="cls-14" cx="34.2" cy="388.12" r="15.59"/>
    <circle class="cls-14" cx="34.08" cy="388.2" r="15.59"/>
    <circle class="cls-14" cx="33.95" cy="388.28" r="15.59"/>
    <circle class="cls-14" cx="33.82" cy="388.36" r="15.59"/>
    <circle class="cls-14" cx="33.7" cy="388.45" r="15.59"/>
    <circle class="cls-14" cx="33.57" cy="388.53" r="15.59"/>
    <circle class="cls-14" cx="33.44" cy="388.61" r="15.59"/>
    <circle class="cls-14" cx="33.32" cy="388.69" r="15.59"/>
    <circle class="cls-14" cx="33.19" cy="388.78" r="15.59"/>
    <circle class="cls-14" cx="33.06" cy="388.86" r="15.59"/>
    <circle class="cls-14" cx="32.94" cy="388.94" r="15.59"/>
    <circle class="cls-14" cx="32.81" cy="389.02" r="15.59"/>
    <circle class="cls-14" cx="32.68" cy="389.11" r="15.59"/>
    <circle class="cls-14" cx="32.56" cy="389.19" r="15.59"/>
    <circle class="cls-14" cx="32.43" cy="389.27" r="15.59"/>
    <circle class="cls-14" cx="32.3" cy="389.35" r="15.59"/>
    <circle class="cls-14" cx="32.18" cy="389.44" r="15.59"/>
    <circle class="cls-14" cx="32.05" cy="389.52" r="15.59"/>
    <circle class="cls-14" cx="31.92" cy="389.6" r="15.59"/>
    <circle class="cls-14" cx="31.8" cy="389.68" r="15.59"/>
    <circle class="cls-14" cx="31.67" cy="389.77" r="15.59"/>
    <circle class="cls-14" cx="31.54" cy="389.85" r="15.59"/>
    <circle class="cls-14" cx="31.42" cy="389.93" r="15.59"/>
    <circle class="cls-14" cx="31.29" cy="390.01" r="15.59"/>
    <circle class="cls-14" cx="31.16" cy="390.1" r="15.59"/>
    <circle class="cls-14" cx="31.04" cy="390.18" r="15.59"/>
    <circle class="cls-14" cx="30.91" cy="390.26" r="15.59"/>
    <circle class="cls-14" cx="30.78" cy="390.34" r="15.59"/>
    <circle class="cls-14" cx="30.66" cy="390.43" r="15.59"/>
    <circle class="cls-14" cx="30.53" cy="390.51" r="15.59"/>
    <circle class="cls-14" cx="30.4" cy="390.59" r="15.59"/>
    <circle class="cls-14" cx="30.28" cy="390.67" r="15.59"/>
    <circle class="cls-14" cx="30.15" cy="390.76" r="15.59"/>
    <circle class="cls-14" cx="30.02" cy="390.84" r="15.59"/>
    <circle class="cls-14" cx="29.9" cy="390.92" r="15.59"/>
    <circle class="cls-14" cx="29.77" cy="391" r="15.59"/>
    <circle class="cls-14" cx="29.64" cy="391.09" r="15.59"/>
    <circle class="cls-14" cx="29.52" cy="391.17" r="15.59"/>
    <circle class="cls-14" cx="29.39" cy="391.25" r="15.59"/>
    <circle class="cls-14" cx="29.26" cy="391.33" r="15.59"/>
    <circle class="cls-14" cx="29.14" cy="391.42" r="15.59"/>
    <circle class="cls-14" cx="29.01" cy="391.5" r="15.59"/>
    <circle class="cls-14" cx="28.88" cy="391.58" r="15.59"/>
    <circle class="cls-14" cx="28.76" cy="391.66" r="15.59"/>
    <circle class="cls-14" cx="28.63" cy="391.75" r="15.59"/>
    <circle class="cls-14" cx="28.5" cy="391.83" r="15.59"/>
    <circle class="cls-14" cx="28.38" cy="391.91" r="15.59"/>
    <circle class="cls-14" cx="28.25" cy="391.99" r="15.59"/>
    <circle class="cls-14" cx="28.12" cy="392.08" r="15.59"/>
    <circle class="cls-14" cx="28" cy="392.16" r="15.59"/>
    <circle class="cls-14" cx="27.87" cy="392.24" r="15.59"/>
    <circle class="cls-14" cx="27.74" cy="392.32" r="15.59"/>
    <circle class="cls-14" cx="27.62" cy="392.41" r="15.59"/>
    <circle class="cls-14" cx="27.49" cy="392.49" r="15.59"/>
    <circle class="cls-14" cx="27.36" cy="392.57" r="15.59"/>
    <circle class="cls-14" cx="27.24" cy="392.65" r="15.59"/>
    <circle class="cls-14" cx="27.11" cy="392.74" r="15.59"/>
    <circle class="cls-14" cx="26.98" cy="392.82" r="15.59"/>
    <circle class="cls-14" cx="26.86" cy="392.9" r="15.59"/>
    <circle class="cls-14" cx="26.73" cy="392.98" r="15.59"/>
    <circle class="cls-14" cx="26.6" cy="393.07" r="15.59"/>
    <circle class="cls-14" cx="26.48" cy="393.15" r="15.59"/>
    <circle class="cls-14" cx="26.35" cy="393.23" r="15.59"/>
    <circle class="cls-14" cx="26.23" cy="393.31" r="15.59"/>
    <circle class="cls-14" cx="26.1" cy="393.4" r="15.59"/>
    <circle class="cls-14" cx="25.97" cy="393.48" r="15.59"/>
    <circle class="cls-14" cx="25.85" cy="393.56" r="15.59"/>
    <circle class="cls-14" cx="25.72" cy="393.64" r="15.59"/>
    <circle class="cls-14" cx="25.59" cy="393.73" r="15.59"/>
    <circle class="cls-14" cx="25.47" cy="393.81" r="15.59"/>
    <circle class="cls-14" cx="25.34" cy="393.89" r="15.59"/>
    <circle class="cls-14" cx="25.21" cy="393.97" r="15.59"/>
    <circle class="cls-14" cx="25.09" cy="394.06" r="15.59"/>
    <circle class="cls-14" cx="24.96" cy="394.14" r="15.59"/>
    <circle class="cls-14" cx="24.83" cy="394.22" r="15.59"/>
    <circle class="cls-14" cx="24.71" cy="394.3" r="15.59"/>
    <circle class="cls-14" cx="24.58" cy="394.39" r="15.59"/>
    <circle class="cls-14" cx="24.45" cy="394.47" r="15.59"/>
    <circle class="cls-14" cx="24.33" cy="394.55" r="15.59"/>
    <circle class="cls-14" cx="24.2" cy="394.63" r="15.59"/>
    <circle class="cls-14" cx="24.07" cy="394.72" r="15.59"/>
    <circle class="cls-14" cx="23.95" cy="394.8" r="15.59"/>
    <circle class="cls-14" cx="23.82" cy="394.88" r="15.59"/>
    <circle class="cls-14" cx="23.69" cy="394.96" r="15.59"/>
    <circle class="cls-14" cx="23.57" cy="395.05" r="15.59"/>
    <circle class="cls-14" cx="23.44" cy="395.13" r="15.59"/>
    <circle class="cls-14" cx="23.31" cy="395.21" r="15.59"/>
    <circle class="cls-14" cx="23.19" cy="395.29" r="15.59"/>
    <circle class="cls-14" cx="23.06" cy="395.38" r="15.59"/>
    <circle class="cls-14" cx="22.93" cy="395.46" r="15.59"/>
    <circle class="cls-14" cx="22.81" cy="395.54" r="15.59"/>
    <circle class="cls-14" cx="22.68" cy="395.62" r="15.59"/>
    <circle class="cls-14" cx="22.55" cy="395.71" r="15.59"/>
    <circle class="cls-14" cx="22.43" cy="395.79" r="15.59"/>
    <circle class="cls-14" cx="22.3" cy="395.87" r="15.59"/>
    <circle class="cls-14" cx="22.17" cy="395.95" r="15.59"/>
    <circle class="cls-14" cx="22.05" cy="396.04" r="15.59"/>
    <circle class="cls-14" cx="21.92" cy="396.12" r="15.59"/>
    <circle class="cls-14" cx="21.79" cy="396.2" r="15.59"/>
    <circle class="cls-14" cx="21.67" cy="396.28" r="15.59"/>
    <circle class="cls-14" cx="21.54" cy="396.37" r="15.59"/>
    <circle class="cls-14" cx="21.41" cy="396.45" r="15.59"/>
    <circle class="cls-14" cx="21.29" cy="396.53" r="15.59"/>
    <circle class="cls-14" cx="21.16" cy="396.61" r="15.59"/>
    <circle class="cls-14" cx="21.03" cy="396.7" r="15.59"/>
    <circle class="cls-14" cx="20.91" cy="396.78" r="15.59"/>
    <circle class="cls-14" cx="20.78" cy="396.86" r="15.59"/>
    <circle class="cls-14" cx="20.65" cy="396.94" r="15.59"/>
    <circle class="cls-14" cx="20.53" cy="397.03" r="15.59"/>
    <circle class="cls-14" cx="20.4" cy="397.11" r="15.59"/>
    <circle class="cls-14" cx="20.27" cy="397.19" r="15.59"/>
    <circle class="cls-14" cx="20.15" cy="397.27" r="15.59"/>
    <circle class="cls-14" cx="20.02" cy="397.36" r="15.59"/>
    <circle class="cls-14" cx="19.89" cy="397.44" r="15.59"/>
    <circle class="cls-14" cx="19.77" cy="397.52" r="15.59"/>
    <circle class="cls-14" cx="19.64" cy="397.6" r="15.59"/>
    <circle class="cls-14" cx="19.51" cy="397.69" r="15.59"/>
    <circle class="cls-14" cx="19.39" cy="397.77" r="15.59"/>
    <circle class="cls-14" cx="19.26" cy="397.85" r="15.59"/>
    <circle class="cls-14" cx="19.13" cy="397.93" r="15.59"/>
    <circle class="cls-14" cx="19.01" cy="398.02" r="15.59"/>
    <circle class="cls-14" cx="18.88" cy="398.1" r="15.59"/>
    <circle class="cls-14" cx="18.75" cy="398.18" r="15.59"/>
    <circle class="cls-14" cx="18.63" cy="398.26" r="15.59"/>
    <circle class="cls-14" cx="18.5" cy="398.35" r="15.59"/>
    <circle class="cls-14" cx="18.37" cy="398.43" r="15.59"/>
    <circle class="cls-14" cx="18.25" cy="398.51" r="15.59"/>
    <circle class="cls-14" cx="18.12" cy="398.59" r="15.59"/>
    <circle class="cls-14" cx="17.99" cy="398.68" r="15.59"/>
    <circle class="cls-14" cx="17.87" cy="398.76" r="15.59"/>
    <circle class="cls-14" cx="17.74" cy="398.84" r="15.59"/>
    <circle class="cls-14" cx="17.61" cy="398.92" r="15.59"/>
    <circle class="cls-14" cx="17.49" cy="399.01" r="15.59"/>
    <circle class="cls-14" cx="17.36" cy="399.09" r="15.59"/>
    <circle class="cls-14" cx="17.23" cy="399.17" r="15.59"/>
    <circle class="cls-14" cx="17.11" cy="399.25" r="15.59"/>
    <circle class="cls-14" cx="16.98" cy="399.34" r="15.59"/>
    <circle class="cls-14" cx="16.86" cy="399.42" r="15.59"/>
    <circle class="cls-14" cx="16.73" cy="399.5" r="15.59"/>
    <circle class="cls-14" cx="16.6" cy="399.58" r="15.59"/>
    <circle class="cls-14" cx="16.48" cy="399.67" r="15.59"/>
    <circle class="cls-14" cx="16.35" cy="399.75" r="15.59"/>
    <circle class="cls-14" cx="16.22" cy="399.83" r="15.59"/>
    <circle class="cls-14" cx="16.1" cy="399.91" r="15.59"/>
    <circle class="cls-14" cx="15.97" cy="400" r="15.59"/>
    <circle class="cls-14" cx="15.84" cy="400.08" r="15.59"/>
    <circle class="cls-14" cx="15.72" cy="400.16" r="15.59"/>
    <circle class="cls-14" cx="15.59" cy="400.24" r="15.59"/>
  </g>
  <path class="cls-11" d="m33.07,430.01h0c-1.56-4.04.31-8.64,4.16-10.27l29.24-12.39c3.85-1.63,8.24.32,9.79,4.36h0c1.56,4.04-.31,8.64-4.16,10.27l-29.24,12.39c-3.85,1.63-8.24-.32-9.79-4.36Z"/>
  <rect class="cls-16" x="129.33" y="434.61" width="64.45" height="32.65" rx="12" ry="12" transform="translate(-102.16 51.06) rotate(-13.69)"/>
  <path class="cls-8" d="m82.45,373.32h120.79c6.62,0,12,5.38,12,12v34.78c0,15.35-12.47,27.82-27.82,27.82h-77.15c-15.35,0-27.82-12.47-27.82-27.82v-46.78h0Z" transform="translate(-78.4 37.62) rotate(-11.43)"/>
  <path class="cls-14" d="m61.42,338.36h152.73c6.62,0,12,5.38,12,12v41.12c0,22.82-18.53,41.35-41.35,41.35h-82.03c-22.82,0-41.35-18.53-41.35-41.35v-53.12h0Z" transform="translate(-73.54 36.13) rotate(-11.43)"/>
  <path class="cls-3" d="m200.92,354.6l-139.66,27.97c-11.07,2.22-22.17-6.17-24.67-18.65l-1.03-5.17-13.88-69.3-2.96-14.8c-2.49-12.47,4.51-24.49,15.59-26.71l96.16-19.25,15.05-10.12,1.86-1.25c9.62-.04,18.28,6.74,20.24,16.5l6.54,32.64h0s29.72-1.67,29.72-1.67l12.63,63.1c2.49,12.47-4.51,24.49-15.59,26.71Z"/>
  <path class="cls-11" d="m170.48,352.67l-110.76,22.17c-11.07,2.22-21.94-5.03-24.16-16.1l-13.88-69.3-2.96-14.8-2.12-10.58c-2.22-11.08,5.03-21.95,16.11-24.17l21.03-4.21,76.07-15.23,13.66-2.74c.75-.15,1.51-.26,2.25-.32.56-.06,1.12-.08,1.68-.08,9.62-.04,18.28,6.74,20.24,16.5l6.54,32.64h0s12.43,62.05,12.43,62.05c2.22,11.08-5.04,21.95-16.11,24.17Z"/>
  <path class="cls-6" d="m108.84,332.16c-.89,2.58-3.09,4.63-5.97,5.2-3.14.62-6.21-.68-7.99-3.09-.67-.9-1.15-1.97-1.4-3.16-.29-1.44.12-3.95.79-6.64.64-2.57,1.52-5.32,2.26-7.48l4.33-.87c1.21,1.36,2.64,3.03,3.97,4.72,2.09,2.66,3.93,5.4,4.28,7.12.29,1.44.17,2.88-.28,4.18Z"/>
  <rect class="cls-2" x="109.58" y="269.17" width="36.11" height="54.48" rx="18.05" ry="18.05" transform="translate(-55.71 30.83) rotate(-11.32)"/>
  <rect class="cls-2" x="50.03" y="281.11" width="36.11" height="54.48" rx="18.05" ry="18.05" transform="translate(-59.22 19.37) rotate(-11.32)"/>
  <path class="cls-2" d="m94.86,349.41l.05-.54c.3-3.21,2.9-5.69,6.12-5.84,7.8-.39,21.85-2.68,29.77-13.46,1.85-2.52,5.17-3.46,8.01-2.14h0c3.63,1.7,4.86,6.29,2.53,9.55-7.16,10.01-17.54,14.81-26.73,17.06-4.89,1.2-9.45,1.69-13.01,1.85-3.9.18-7.04-3.15-6.67-7.04"/>
  <path class="cls-7" d="m42.52,309.85l-7.46,9.45c-.72-4.25,2.09-8.38,6.36-9.23l1.1-.22Z"/>
  <path class="cls-7" d="m152.36,329.56l-23.32,4.66,29.23-37.01,3.61,18.05c1.31,6.55-2.97,12.99-9.52,14.3Z"/>
  <path class="cls-9" d="m64.03,254.52l-42.34,34.94h0s-5.08-25.4-5.08-25.4c-2.22-11.08,5.03-21.95,16.11-24.17l21.03-4.21,10.3,18.83Z"/>
  <path class="cls-9" d="m174.16,266.46h0s-44.36-24.22-44.36-24.22v-21.77l13.66-2.74c11.08-2.22,21.95,5.03,24.17,16.1l6.54,32.64Z"/>
  <path class="cls-12" d="m174.16,266.47h0s-6.54-32.65-6.54-32.65c-1.95-9.76-10.62-16.53-20.24-16.5l.84-.56,31.1,2.94h0c9.1.88,17.23,8.47,19.33,18.92l5.24,26.17-29.72,1.68Z"/>
  <g>
    <circle class="cls-14" cx="217.02" cy="368.51" r="18.6"/>
    <circle class="cls-14" cx="217.14" cy="368.4" r="18.66"/>
    <circle class="cls-14" cx="217.25" cy="368.28" r="18.72"/>
    <circle class="cls-14" cx="217.37" cy="368.17" r="18.79"/>
    <circle class="cls-14" cx="217.49" cy="368.05" r="18.85"/>
    <circle class="cls-14" cx="217.6" cy="367.94" r="18.91"/>
    <circle class="cls-14" cx="217.72" cy="367.83" r="18.98"/>
    <circle class="cls-14" cx="217.84" cy="367.71" r="19.04"/>
    <circle class="cls-14" cx="217.95" cy="367.6" r="19.1"/>
    <circle class="cls-14" cx="218.07" cy="367.48" r="19.17"/>
    <circle class="cls-14" cx="218.19" cy="367.37" r="19.23"/>
    <circle class="cls-14" cx="218.3" cy="367.26" r="19.29"/>
    <circle class="cls-14" cx="218.42" cy="367.14" r="19.36"/>
    <circle class="cls-14" cx="218.54" cy="367.03" r="19.42"/>
    <circle class="cls-14" cx="218.65" cy="366.92" r="19.48"/>
    <circle class="cls-14" cx="218.77" cy="366.8" r="19.55"/>
    <circle class="cls-14" cx="218.88" cy="366.69" r="19.61"/>
    <circle class="cls-14" cx="219" cy="366.57" r="19.67"/>
    <circle class="cls-14" cx="219.12" cy="366.46" r="19.74"/>
    <circle class="cls-14" cx="219.23" cy="366.35" r="19.8"/>
    <circle class="cls-14" cx="219.35" cy="366.23" r="19.86"/>
    <circle class="cls-14" cx="219.47" cy="366.12" r="19.93"/>
    <circle class="cls-14" cx="219.58" cy="366" r="19.99"/>
    <circle class="cls-14" cx="219.7" cy="365.89" r="20.05"/>
    <circle class="cls-14" cx="219.82" cy="365.78" r="20.12"/>
    <circle class="cls-14" cx="219.93" cy="365.66" r="20.18"/>
    <circle class="cls-14" cx="220.05" cy="365.55" r="20.24"/>
    <circle class="cls-14" cx="220.17" cy="365.43" r="20.31"/>
    <circle class="cls-14" cx="220.28" cy="365.32" r="20.37"/>
    <circle class="cls-14" cx="220.4" cy="365.21" r="20.43"/>
    <circle class="cls-14" cx="220.52" cy="365.09" r="20.5"/>
    <circle class="cls-14" cx="220.63" cy="364.98" r="20.56"/>
    <circle class="cls-14" cx="220.75" cy="364.86" r="20.62"/>
    <circle class="cls-14" cx="220.87" cy="364.75" r="20.69"/>
    <circle class="cls-14" cx="220.98" cy="364.64" r="20.75"/>
    <circle class="cls-14" cx="221.1" cy="364.52" r="20.81"/>
    <circle class="cls-14" cx="221.21" cy="364.41" r="20.88"/>
    <circle class="cls-14" cx="221.33" cy="364.3" r="20.94"/>
    <circle class="cls-14" cx="221.45" cy="364.18" r="21"/>
    <circle class="cls-14" cx="221.56" cy="364.07" r="21.07"/>
    <circle class="cls-14" cx="221.68" cy="363.95" r="21.13"/>
    <circle class="cls-14" cx="221.8" cy="363.84" r="21.19"/>
    <circle class="cls-14" cx="221.91" cy="363.73" r="21.26"/>
    <circle class="cls-14" cx="222.03" cy="363.61" r="21.32"/>
    <circle class="cls-14" cx="222.15" cy="363.5" r="21.38"/>
    <circle class="cls-14" cx="222.26" cy="363.38" r="21.45"/>
    <circle class="cls-14" cx="222.38" cy="363.27" r="21.51"/>
    <circle class="cls-14" cx="222.5" cy="363.16" r="21.57"/>
    <circle class="cls-14" cx="222.61" cy="363.04" r="21.64"/>
    <circle class="cls-14" cx="222.73" cy="362.93" r="21.7"/>
    <circle class="cls-14" cx="222.85" cy="362.81" r="21.76"/>
    <circle class="cls-14" cx="222.96" cy="362.7" r="21.83"/>
    <circle class="cls-14" cx="223.08" cy="362.59" r="21.89"/>
    <circle class="cls-14" cx="223.19" cy="362.47" r="21.95"/>
    <circle class="cls-14" cx="223.31" cy="362.36" r="22.02"/>
    <circle class="cls-14" cx="223.43" cy="362.24" r="22.08"/>
    <circle class="cls-14" cx="223.54" cy="362.13" r="22.14"/>
    <circle class="cls-14" cx="223.66" cy="362.02" r="22.21"/>
    <circle class="cls-14" cx="223.78" cy="361.9" r="22.27"/>
    <circle class="cls-14" cx="223.89" cy="361.79" r="22.33"/>
    <circle class="cls-14" cx="224.01" cy="361.68" r="22.4"/>
    <circle class="cls-14" cx="224.13" cy="361.56" r="22.46"/>
    <circle class="cls-14" cx="224.24" cy="361.45" r="22.52"/>
    <circle class="cls-14" cx="224.36" cy="361.33" r="22.59"/>
    <circle class="cls-14" cx="224.48" cy="361.22" r="22.65"/>
    <circle class="cls-14" cx="224.59" cy="361.11" r="22.71"/>
    <circle class="cls-14" cx="224.71" cy="360.99" r="22.78"/>
    <circle class="cls-14" cx="224.83" cy="360.88" r="22.84"/>
    <circle class="cls-14" cx="224.94" cy="360.76" r="22.9"/>
    <circle class="cls-14" cx="225.06" cy="360.65" r="22.97"/>
    <circle class="cls-14" cx="225.18" cy="360.54" r="23.03"/>
    <circle class="cls-14" cx="225.29" cy="360.42" r="23.09"/>
    <circle class="cls-14" cx="225.41" cy="360.31" r="23.16"/>
    <circle class="cls-14" cx="225.52" cy="360.19" r="23.22"/>
    <circle class="cls-14" cx="225.64" cy="360.08" r="23.28"/>
    <circle class="cls-14" cx="225.76" cy="359.97" r="23.35"/>
    <circle class="cls-14" cx="225.87" cy="359.85" r="23.41"/>
    <circle class="cls-14" cx="225.99" cy="359.74" r="23.47"/>
    <circle class="cls-14" cx="226.11" cy="359.63" r="23.54"/>
    <circle class="cls-14" cx="226.22" cy="359.51" r="23.6"/>
    <circle class="cls-14" cx="226.34" cy="359.4" r="23.66"/>
    <circle class="cls-14" cx="226.46" cy="359.28" r="23.73"/>
    <circle class="cls-14" cx="226.57" cy="359.17" r="23.79"/>
    <circle class="cls-14" cx="226.69" cy="359.06" r="23.85"/>
    <circle class="cls-14" cx="226.81" cy="358.94" r="23.92"/>
    <circle class="cls-14" cx="226.92" cy="358.83" r="23.98"/>
    <circle class="cls-14" cx="227.04" cy="358.71" r="24.04"/>
    <circle class="cls-14" cx="227.16" cy="358.6" r="24.11"/>
    <circle class="cls-14" cx="227.27" cy="358.49" r="24.17"/>
    <circle class="cls-14" cx="227.39" cy="358.37" r="24.23"/>
    <circle class="cls-14" cx="227.51" cy="358.26" r="24.3"/>
    <circle class="cls-14" cx="227.62" cy="358.14" r="24.36"/>
    <circle class="cls-14" cx="227.74" cy="358.03" r="24.42"/>
    <circle class="cls-14" cx="227.85" cy="357.92" r="24.49"/>
    <circle class="cls-14" cx="227.97" cy="357.8" r="24.55"/>
    <circle class="cls-14" cx="228.09" cy="357.69" r="24.61"/>
    <circle class="cls-14" cx="228.2" cy="357.57" r="24.68"/>
    <circle class="cls-14" cx="228.32" cy="357.46" r="24.74"/>
    <circle class="cls-14" cx="228.44" cy="357.35" r="24.8"/>
    <circle class="cls-14" cx="228.55" cy="357.23" r="24.87"/>
    <circle class="cls-14" cx="228.67" cy="357.12" r="24.93"/>
    <circle class="cls-14" cx="228.79" cy="357.01" r="24.99"/>
    <circle class="cls-14" cx="228.9" cy="356.89" r="25.06"/>
    <circle class="cls-14" cx="229.02" cy="356.78" r="25.12"/>
    <circle class="cls-14" cx="229.14" cy="356.66" r="25.18"/>
    <circle class="cls-14" cx="229.25" cy="356.55" r="25.25"/>
    <circle class="cls-14" cx="229.37" cy="356.44" r="25.31"/>
    <circle class="cls-14" cx="229.49" cy="356.32" r="25.37"/>
    <circle class="cls-14" cx="229.6" cy="356.21" r="25.44"/>
    <circle class="cls-14" cx="229.72" cy="356.09" r="25.5"/>
    <circle class="cls-14" cx="229.84" cy="355.98" r="25.56"/>
    <circle class="cls-14" cx="229.95" cy="355.87" r="25.63"/>
    <circle class="cls-14" cx="230.07" cy="355.75" r="25.69"/>
    <circle class="cls-14" cx="230.18" cy="355.64" r="25.75"/>
    <circle class="cls-14" cx="230.3" cy="355.52" r="25.82"/>
    <circle class="cls-14" cx="230.42" cy="355.41" r="25.88"/>
    <circle class="cls-14" cx="230.53" cy="355.3" r="25.94"/>
    <circle class="cls-14" cx="230.65" cy="355.18" r="26.01"/>
    <circle class="cls-14" cx="230.77" cy="355.07" r="26.07"/>
    <circle class="cls-14" cx="230.88" cy="354.95" r="26.13"/>
    <circle class="cls-14" cx="231" cy="354.84" r="26.2"/>
    <circle class="cls-14" cx="231.12" cy="354.73" r="26.26"/>
    <circle class="cls-14" cx="231.23" cy="354.61" r="26.32"/>
    <circle class="cls-14" cx="231.35" cy="354.5" r="26.39"/>
    <circle class="cls-14" cx="231.47" cy="354.39" r="26.45"/>
    <circle class="cls-14" cx="231.58" cy="354.27" r="26.51"/>
    <circle class="cls-14" cx="231.7" cy="354.16" r="26.58"/>
    <circle class="cls-14" cx="231.82" cy="354.04" r="26.64"/>
    <circle class="cls-14" cx="231.93" cy="353.93" r="26.7"/>
    <circle class="cls-14" cx="232.05" cy="353.82" r="26.77"/>
    <circle class="cls-14" cx="232.16" cy="353.7" r="26.83"/>
    <circle class="cls-14" cx="232.28" cy="353.59" r="26.89"/>
    <circle class="cls-14" cx="232.4" cy="353.47" r="26.96"/>
    <circle class="cls-14" cx="232.51" cy="353.36" r="27.02"/>
    <circle class="cls-14" cx="232.63" cy="353.25" r="27.08"/>
    <circle class="cls-14" cx="232.75" cy="353.13" r="27.15"/>
    <circle class="cls-14" cx="232.86" cy="353.02" r="27.21"/>
    <circle class="cls-14" cx="232.98" cy="352.9" r="27.27"/>
    <circle class="cls-14" cx="233.1" cy="352.79" r="27.34"/>
    <circle class="cls-14" cx="233.21" cy="352.68" r="27.4"/>
    <circle class="cls-14" cx="233.33" cy="352.56" r="27.46"/>
    <circle class="cls-14" cx="233.45" cy="352.45" r="27.53"/>
    <circle class="cls-14" cx="233.56" cy="352.33" r="27.59"/>
    <circle class="cls-14" cx="233.68" cy="352.22" r="27.65"/>
    <circle class="cls-14" cx="233.8" cy="352.11" r="27.72"/>
    <circle class="cls-14" cx="233.91" cy="351.99" r="27.78"/>
    <circle class="cls-14" cx="234.03" cy="351.88" r="27.84"/>
    <circle class="cls-14" cx="234.15" cy="351.77" r="27.91"/>
    <circle class="cls-14" cx="234.26" cy="351.65" r="27.97"/>
    <circle class="cls-14" cx="234.38" cy="351.54" r="28.03"/>
    <circle class="cls-14" cx="234.49" cy="351.42" r="28.1"/>
    <circle class="cls-14" cx="234.61" cy="351.31" r="28.16"/>
    <circle class="cls-14" cx="234.73" cy="351.2" r="28.22"/>
    <circle class="cls-14" cx="234.84" cy="351.08" r="28.29"/>
    <circle class="cls-14" cx="234.96" cy="350.97" r="28.35"/>
    <circle class="cls-14" cx="235.08" cy="350.85" r="28.41"/>
    <circle class="cls-14" cx="235.19" cy="350.74" r="28.48"/>
    <circle class="cls-14" cx="235.31" cy="350.63" r="28.54"/>
    <circle class="cls-14" cx="235.43" cy="350.51" r="28.6"/>
    <circle class="cls-14" cx="235.54" cy="350.4" r="28.67"/>
    <circle class="cls-14" cx="235.66" cy="350.28" r="28.73"/>
    <circle class="cls-14" cx="235.78" cy="350.17" r="28.79"/>
    <circle class="cls-14" cx="235.89" cy="350.06" r="28.86"/>
    <circle class="cls-14" cx="236.01" cy="349.94" r="28.92"/>
    <circle class="cls-14" cx="236.13" cy="349.83" r="28.98"/>
    <circle class="cls-14" cx="236.24" cy="349.72" r="29.05"/>
    <circle class="cls-14" cx="236.36" cy="349.6" r="29.11"/>
    <circle class="cls-14" cx="236.48" cy="349.49" r="29.17"/>
    <circle class="cls-14" cx="236.59" cy="349.37" r="29.24"/>
    <circle class="cls-14" cx="236.71" cy="349.26" r="29.3"/>
    <circle class="cls-14" cx="236.82" cy="349.15" r="29.36"/>
    <circle class="cls-14" cx="236.94" cy="349.03" r="29.43"/>
    <circle class="cls-14" cx="237.06" cy="348.92" r="29.49"/>
    <circle class="cls-14" cx="237.17" cy="348.8" r="29.55"/>
    <circle class="cls-14" cx="237.29" cy="348.69" r="29.62"/>
    <circle class="cls-14" cx="237.41" cy="348.58" r="29.68"/>
    <circle class="cls-14" cx="237.52" cy="348.46" r="29.74"/>
    <circle class="cls-14" cx="237.64" cy="348.35" r="29.81"/>
    <circle class="cls-14" cx="237.76" cy="348.23" r="29.87"/>
    <circle class="cls-14" cx="237.87" cy="348.12" r="29.93"/>
    <circle class="cls-14" cx="237.99" cy="348.01" r="30"/>
    <circle class="cls-14" cx="238.11" cy="347.89" r="30.06"/>
    <circle class="cls-14" cx="238.22" cy="347.78" r="30.12"/>
    <circle class="cls-14" cx="238.34" cy="347.66" r="30.19"/>
    <circle class="cls-14" cx="238.46" cy="347.55" r="30.25"/>
    <circle class="cls-14" cx="238.57" cy="347.44" r="30.31"/>
    <circle class="cls-14" cx="238.69" cy="347.32" r="30.38"/>
    <circle class="cls-14" cx="238.81" cy="347.21" r="30.44"/>
    <circle class="cls-14" cx="238.92" cy="347.1" r="30.5"/>
    <circle class="cls-14" cx="239.04" cy="346.98" r="30.57"/>
    <circle class="cls-14" cx="239.15" cy="346.87" r="30.63"/>
    <circle class="cls-14" cx="239.27" cy="346.75" r="30.69"/>
    <circle class="cls-14" cx="239.39" cy="346.64" r="30.76"/>
    <circle class="cls-14" cx="239.5" cy="346.53" r="30.82"/>
    <circle class="cls-14" cx="239.62" cy="346.41" r="30.88"/>
    <circle class="cls-14" cx="239.74" cy="346.3" r="30.95"/>
    <circle class="cls-14" cx="239.85" cy="346.18" r="31.01"/>
    <circle class="cls-14" cx="239.97" cy="346.07" r="31.07"/>
    <circle class="cls-14" cx="240.09" cy="345.96" r="31.14"/>
    <circle class="cls-14" cx="240.2" cy="345.84" r="31.2"/>
    <circle class="cls-14" cx="240.32" cy="345.73" r="31.26"/>
    <circle class="cls-14" cx="240.44" cy="345.61" r="31.33"/>
    <circle class="cls-14" cx="240.55" cy="345.5" r="31.39"/>
    <circle class="cls-14" cx="240.67" cy="345.39" r="31.45"/>
    <circle class="cls-14" cx="240.79" cy="345.27" r="31.52"/>
    <circle class="cls-14" cx="240.9" cy="345.16" r="31.58"/>
    <circle class="cls-14" cx="241.02" cy="345.04" r="31.64"/>
    <circle class="cls-14" cx="241.13" cy="344.93" r="31.71"/>
    <circle class="cls-14" cx="241.25" cy="344.82" r="31.77"/>
    <circle class="cls-14" cx="241.37" cy="344.7" r="31.83"/>
    <circle class="cls-14" cx="241.48" cy="344.59" r="31.9"/>
    <circle class="cls-14" cx="241.6" cy="344.48" r="31.96"/>
    <circle class="cls-14" cx="241.72" cy="344.36" r="32.02"/>
    <circle class="cls-14" cx="241.83" cy="344.25" r="32.09"/>
    <circle class="cls-14" cx="241.95" cy="344.13" r="32.15"/>
    <circle class="cls-14" cx="242.07" cy="344.02" r="32.21"/>
    <circle class="cls-14" cx="242.18" cy="343.91" r="32.28"/>
    <circle class="cls-14" cx="242.3" cy="343.79" r="32.34"/>
    <circle class="cls-14" cx="242.42" cy="343.68" r="32.4"/>
    <circle class="cls-14" cx="242.53" cy="343.56" r="32.47"/>
    <circle class="cls-14" cx="242.65" cy="343.45" r="32.53"/>
    <circle class="cls-14" cx="242.77" cy="343.34" r="32.6"/>
    <circle class="cls-14" cx="242.88" cy="343.22" r="32.66"/>
    <circle class="cls-14" cx="243" cy="343.11" r="32.72"/>
    <circle class="cls-14" cx="243.12" cy="342.99" r="32.79"/>
    <circle class="cls-14" cx="243.23" cy="342.88" r="32.85"/>
    <circle class="cls-14" cx="243.35" cy="342.77" r="32.91"/>
    <circle class="cls-14" cx="243.46" cy="342.65" r="32.98"/>
    <circle class="cls-14" cx="243.58" cy="342.54" r="33.04"/>
    <circle class="cls-14" cx="243.7" cy="342.43" r="33.1"/>
    <circle class="cls-14" cx="243.81" cy="342.31" r="33.17"/>
    <circle class="cls-14" cx="243.93" cy="342.2" r="33.23"/>
    <circle class="cls-14" cx="244.05" cy="342.08" r="33.29"/>
    <circle class="cls-14" cx="244.16" cy="341.97" r="33.36"/>
    <circle class="cls-14" cx="244.28" cy="341.86" r="33.42"/>
    <circle class="cls-14" cx="244.4" cy="341.74" r="33.48"/>
    <circle class="cls-14" cx="244.51" cy="341.63" r="33.55"/>
    <circle class="cls-14" cx="244.63" cy="341.51" r="33.61"/>
    <circle class="cls-14" cx="244.75" cy="341.4" r="33.67"/>
    <circle class="cls-14" cx="244.86" cy="341.29" r="33.74"/>
    <circle class="cls-14" cx="244.98" cy="341.17" r="33.8"/>
    <circle class="cls-14" cx="245.1" cy="341.06" r="33.86"/>
    <circle class="cls-14" cx="245.21" cy="340.94" r="33.93"/>
    <circle class="cls-14" cx="245.33" cy="340.83" r="33.99"/>
    <circle class="cls-14" cx="245.45" cy="340.72" r="34.05"/>
    <circle class="cls-14" cx="245.56" cy="340.6" r="34.12"/>
    <circle class="cls-14" cx="245.68" cy="340.49" r="34.18"/>
    <circle class="cls-14" cx="245.79" cy="340.37" r="34.24"/>
    <circle class="cls-14" cx="245.91" cy="340.26" r="34.31"/>
    <circle class="cls-14" cx="246.03" cy="340.15" r="34.37"/>
    <circle class="cls-14" cx="246.14" cy="340.03" r="34.43"/>
    <circle class="cls-14" cx="246.26" cy="339.92" r="34.5"/>
    <circle class="cls-14" cx="246.38" cy="339.81" r="34.56"/>
    <circle class="cls-14" cx="246.49" cy="339.69" r="34.62"/>
    <circle class="cls-14" cx="246.61" cy="339.58" r="34.69"/>
    <circle class="cls-14" cx="246.73" cy="339.46" r="34.75"/>
    <circle class="cls-14" cx="246.84" cy="339.35" r="34.81"/>
    <circle class="cls-14" cx="246.96" cy="339.24" r="34.88"/>
    <circle class="cls-14" cx="247.08" cy="339.12" r="34.94"/>
    <circle class="cls-14" cx="247.19" cy="339.01" r="35"/>
    <circle class="cls-14" cx="247.31" cy="338.89" r="35.07"/>
    <circle class="cls-14" cx="247.43" cy="338.78" r="35.13"/>
    <circle class="cls-14" cx="247.54" cy="338.67" r="35.19"/>
    <circle class="cls-14" cx="247.66" cy="338.55" r="35.26"/>
    <circle class="cls-14" cx="247.78" cy="338.44" r="35.32"/>
    <circle class="cls-14" cx="247.89" cy="338.32" r="35.38"/>
    <circle class="cls-14" cx="248.01" cy="338.21" r="35.45"/>
    <circle class="cls-14" cx="248.12" cy="338.1" r="35.51"/>
    <circle class="cls-14" cx="248.24" cy="337.98" r="35.57"/>
    <circle class="cls-14" cx="248.36" cy="337.87" r="35.64"/>
    <circle class="cls-14" cx="248.47" cy="337.75" r="35.7"/>
    <circle class="cls-14" cx="248.59" cy="337.64" r="35.76"/>
    <circle class="cls-14" cx="248.71" cy="337.53" r="35.83"/>
    <circle class="cls-14" cx="248.82" cy="337.41" r="35.89"/>
    <circle class="cls-14" cx="248.94" cy="337.3" r="35.95"/>
    <circle class="cls-14" cx="249.06" cy="337.19" r="36.02"/>
    <circle class="cls-14" cx="249.17" cy="337.07" r="36.08"/>
    <circle class="cls-14" cx="249.29" cy="336.96" r="36.14"/>
    <circle class="cls-14" cx="249.41" cy="336.84" r="36.21"/>
    <circle class="cls-14" cx="249.52" cy="336.73" r="36.27"/>
    <circle class="cls-14" cx="249.64" cy="336.62" r="36.33"/>
    <circle class="cls-14" cx="249.76" cy="336.5" r="36.4"/>
    <circle class="cls-14" cx="249.87" cy="336.39" r="36.46"/>
    <circle class="cls-14" cx="249.99" cy="336.27" r="36.52"/>
    <circle class="cls-14" cx="250.1" cy="336.16" r="36.59"/>
    <circle class="cls-14" cx="250.22" cy="336.05" r="36.65"/>
    <circle class="cls-14" cx="250.34" cy="335.93" r="36.71"/>
    <circle class="cls-14" cx="250.45" cy="335.82" r="36.78"/>
    <circle class="cls-14" cx="250.57" cy="335.7" r="36.84"/>
    <circle class="cls-14" cx="250.69" cy="335.59" r="36.9"/>
    <circle class="cls-14" cx="250.8" cy="335.48" r="36.97"/>
    <circle class="cls-14" cx="250.92" cy="335.36" r="37.03"/>
    <circle class="cls-14" cx="251.04" cy="335.25" r="37.09"/>
    <circle class="cls-14" cx="251.15" cy="335.14" r="37.16"/>
    <circle class="cls-14" cx="251.27" cy="335.02" r="37.22"/>
    <circle class="cls-14" cx="251.39" cy="334.91" r="37.28"/>
    <circle class="cls-14" cx="251.5" cy="334.79" r="37.35"/>
    <circle class="cls-14" cx="251.62" cy="334.68" r="37.41"/>
    <circle class="cls-14" cx="251.74" cy="334.57" r="37.47"/>
    <circle class="cls-14" cx="251.85" cy="334.45" r="37.54"/>
    <circle class="cls-14" cx="251.97" cy="334.34" r="37.6"/>
    <circle class="cls-14" cx="252.09" cy="334.22" r="37.66"/>
  </g>
  <polygon class="cls-8" points="211.64 420.86 191.94 443.24 134.47 459.03 93.49 443.03 211.64 420.86"/>
  <rect class="cls-13" x="122.52" y="278.12" width="19.1" height="31.8" rx="9.55" ry="9.55" transform="translate(-55.63 31.99) rotate(-11.43)"/>
  <rect class="cls-13" x="63.51" y="290" width="19.1" height="31.8" rx="9.55" ry="9.55" transform="translate(-59.15 20.54) rotate(-11.43)"/>
  <g>
    <g>
      <path class="cls-7" d="m140.54,290.23l-31.28,39.59c.02-.61-.03-1.22-.15-1.83-.35-1.72-2.19-4.46-4.28-7.12l-1.06-5.31-2.9.59-4.33.87-3.62.73,1.36,6.75c-.67,2.69-1.08,5.19-.79,6.64.24,1.18.73,2.25,1.4,3.16-1.19,4.26-4.68,7.72-9.31,8.65l-32.11,6.43c-1.65.33-3.29.31-4.83-.03l37.13-47c2.62.9,4.7,3.14,5.29,6.03l.69,3.44,10.85-2.17-.69-3.44c-.88-4.34,1.97-8.61,6.32-9.49l32.32-6.47Z"/>
      <path class="cls-17" d="m85.76,302.33l-37.13,47c-4.51-.93-8.29-4.42-9.38-9.15l27.84-35.24,14.47-2.9c1.44-.29,2.89-.17,4.2.29Z"/>
      <path class="cls-17" d="m62.25,305.9l-23.84,30.18-3.3-16.52c-.02-.08-.03-.18-.04-.26l7.46-9.45,19.73-3.95Z"/>
      <path class="cls-17" d="m158.28,297.21l-29.23,37.01-8.79,1.76c-4.35.88-8.65-.73-11.42-3.82.25-.74.41-1.54.43-2.35l31.28-39.59,7.8-1.56c4.35-.88,8.62,1.97,9.49,6.32l.45,2.22Z"/>
    </g>
    <path class="cls-7" d="m67.09,304.94l-27.84,35.24c-.04-.11-.06-.22-.08-.34l-.75-3.75,23.84-30.18,4.84-.97Z"/>
  </g>
  <path class="cls-10" d="m147.2,202.86c-5.15,2.15-10.82,2.26-15.79,1.59-6.84-.92-13.16-3.95-18.51-8.29-11.44-9.29-27.14-12.95-42.33-8.39-24.37,7.32-38.2,33-30.88,57.36,7.32,24.37,33,38.2,57.37,30.88,0,0,50.4-17.58,50.15-73.15Z"/>
  <rect class="cls-4" x="62.44" y="267.83" width="9.31" height="31.79" rx="4.65" ry="4.65" transform="translate(-222.87 314.1) rotate(-82.68)"/>
  <rect class="cls-4" x="102.8" y="267.55" width="31.79" height="9.31" rx="4.65" ry="4.65" transform="translate(-141.62 129.31) rotate(-37.68)"/>
  <g>
    <g>
      <path class="cls-2" d="m559.2,391.78l22.33-86.88-346.3-90.64-22.73,88.4c-4.22,16.4,3.8,33.66,19.07,41.05,2.11,1.02,4.33,1.84,6.63,2.44l277.52,71.32c9.18,2.36,18.78.97,27.03-3.89,8.25-4.88,14.09-12.62,16.47-21.81Zm50.71-139.51c-.18,1.47-.41,2.94-.71,4.42.31-1.47.55-2.94.71-4.42Zm-389.06,102.51c.09.04.17.1.26.14-.54-.32-1.09-.66-1.62-1.01.45.29.92.57,1.36.86Zm-10.91-8.95c-1.08-1.18-2.11-2.42-3.07-3.69.96,1.27,1.99,2.52,3.07,3.69Zm-4.33-5.42c-.8-1.18-1.57-2.37-2.29-3.6.72,1.25,1.48,2.44,2.29,3.6Z"/>
      <path class="cls-5" d="m573.58,395.48l28.26-109.93,6.84-26.63c.2-.75.38-1.49.53-2.22.3-1.49.53-2.95.72-4.42.97-8.12-.1-16.15-2.86-23.49-.24-.67-.51-1.33-.78-1.99-4.69-11.14-13.31-20.53-24.57-25.99-2.97-1.44-6.11-2.6-9.42-3.46l-133.27-34.25c-3.43,9.99-11.89,17.93-22.56,20.34-7.35,1.66-14.59.62-20.72-2.42-9.24-4.54-16.04-13.56-17.25-24.57-.33-3.01-.23-5.98.28-8.84l-6.73-1.73c-1.8-.47-3.65-.37-5.36.19-1.52.49-2.92,1.35-4.1,2.51h-.03c-.36.37-.72.71-1.1,1.04l-.57.49c-.35.31-.7.6-1.08.87-.28.23-.58.43-.86.64-.26.19-.51.36-.78.54-.51.34-1.01.67-1.55.98-.44.26-.89.51-1.36.75-8.46,4.43-18.84,4.94-28.09.46-9.97-4.83-16.19-14.24-17.39-24.46l-2.83-.72-12.18-3.13c-14.48-3.73-29.18-.71-40.76,7.05-3.28,2.19-6.31,4.77-9.01,7.7-5.52,5.93-9.66,13.28-11.8,21.62l-35.1,136.57c-1.33,5.16-1.81,10.35-1.5,15.43.09,1.45.23,2.89.44,4.31.26,1.8.62,3.59,1.09,5.36.42,1.7.96,3.38,1.57,5.01.26.68.53,1.34.79,2,.2.48.42.98.64,1.47.44.96.91,1.93,1.42,2.87.26.45.51.92.78,1.39.73,1.23,1.49,2.42,2.3,3.6.4.58.82,1.15,1.25,1.73.49.63.99,1.26,1.49,1.88.51.61,1.05,1.21,1.58,1.81.36.39.73.78,1.11,1.16,0,0,0,.02,0,.02,1.48,1.5,3.05,2.9,4.71,4.22.55.43,1.12.85,1.7,1.28.67.49,1.34.96,2.02,1.4.25.16.52.33.77.5.13.07.25.15.37.22.03.02.06.04.09.05.09.05.19.11.27.16.04.02.09.05.13.07,1.27.78,2.6,1.5,3.96,2.16.37.18.74.36,1.12.52.62.28,1.25.55,1.9.81.26.11.51.2.77.31.53.2,1.04.4,1.57.58,1.32.45,2.68.87,4.05,1.22l277.53,71.33c26.92,6.92,54.64-9.44,61.56-36.39Zm-30.84,18.11c-8.25,4.86-17.85,6.24-27.03,3.89l-277.53-71.32c-2.29-.6-4.52-1.42-6.63-2.44-15.27-7.4-23.29-24.65-19.07-41.05l22.73-88.4,346.31,90.64-22.33,86.88c-2.38,9.19-8.22,16.93-16.46,21.8Zm-154.92-259.93h.02c.22.47.45.9.7,1.34l.37.66c.23.4.47.79.73,1.18.18.32.39.61.59.9.18.26.37.5.55.77.37.49.73.96,1.14,1.44.33.4.67.79,1.03,1.16,6.49,7,16.1,10.95,26.32,9.82,7.01-.78,13.21-3.8,17.95-8.3l-54.9-14.11c2.39.91,4.35,2.75,5.51,5.14Zm-7.47-5.64l-.53-.14-.02.07c.19.02.37.03.55.07Z"/>
    </g>
    <g>
      <path class="cls-2" d="m251.96,186.21l7.49-29.15,5.83,1.5-3,11.66,13.58,3.49,3-11.68,5.83,1.5-7.49,29.15-5.83-1.48,3.1-12.05-13.58-3.49-3.1,12.05-5.83-1.5Z"/>
      <path class="cls-2" d="m284.51,184.22c.73-2.85,2.24-4.95,4.52-6.3,2.28-1.35,4.84-1.65,7.69-.92,2.85.73,4.88,2.22,6.1,4.47,1.22,2.25,1.46,4.79.73,7.64l-.5,1.94-13.41-3.45c-.14,1.07.11,2,.74,2.78s1.46,1.31,2.5,1.57c1.81.47,3.57.36,5.26-.31l2.31,3.91c-1.92,1.58-4.83,1.87-8.72.87-2.85-.73-4.95-2.24-6.3-4.52-1.35-2.28-1.65-4.84-.92-7.69Zm13.56-1.18c-.63-.78-1.46-1.31-2.5-1.57s-2.02-.21-2.95.18-1.52,1.09-1.79,2.13l7.77,2c.27-1.04.09-1.95-.54-2.73Z"/>
      <path class="cls-2" d="m305.33,199.93l7.49-29.15,5.44,1.4-7.49,29.15-5.44-1.4Z"/>
      <path class="cls-2" d="m316.47,202.79l7.49-29.15,5.44,1.4-7.49,29.15-5.44-1.4Z"/>
      <path class="cls-2" d="m329.99,203.44c-1.4-2.38-1.74-4.98-1.02-7.79.73-2.82,2.28-4.94,4.65-6.34,2.38-1.41,4.98-1.74,7.8-1.02,2.82.73,4.94,2.28,6.34,4.65,1.41,2.38,1.74,4.98,1.02,7.8-.73,2.82-2.28,4.94-4.65,6.34-2.38,1.41-4.98,1.74-7.8,1.02-2.82-.73-4.94-2.28-6.34-4.66Zm7.53-.04c1.48.38,2.8.19,3.98-.56s1.95-1.87,2.33-3.35.24-2.83-.43-4.07c-.66-1.23-1.74-2.04-3.23-2.43s-2.78-.18-3.96.58-1.95,1.88-2.33,3.36-.24,2.83.43,4.06,1.74,2.03,3.21,2.41Z"/>
      <path class="cls-2" d="m353.13,212.21l-.21-.05c-.91-.23-1.55-.68-1.94-1.33s-.48-1.37-.28-2.14.63-1.36,1.28-1.75,1.42-.47,2.3-.25c.93.24,1.59.69,1.97,1.35s.48,1.38.28,2.15l-.03.14c-.81,3.13-2.67,5.02-5.6,5.67l-.52-2c1.15-.13,2.07-.72,2.76-1.78Z"/>
      <path class="cls-2" d="m383.69,206.81l-3.2,12.44-5.44-1.4,4.85-18.87,5.59.82-.44,1.73c1.51-.83,3.21-1,5.1-.51,2.46.63,4.15,1.86,5.06,3.68,1.81-1.12,4.14-1.32,6.99-.59,2.46.63,4.15,1.86,5.06,3.68s1.12,3.71.62,5.65l-3.1,12.05-5.44-1.4,2.75-10.69c.33-1.3.3-2.37-.1-3.24s-1.25-1.48-2.55-1.86c-1.1-.2-2.21.27-3.35,1.42-.17.38-.31.78-.41,1.2l-2.95,11.46-5.44-1.4,2.75-10.69c.33-1.3.3-2.37-.1-3.24-.4-.86-1.25-1.48-2.55-1.86-1.21-.23-2.45.3-3.7,1.6Z"/>
      <path class="cls-2" d="m423.35,223.1l3.27-12.71,5.44,1.4-4.59,17.88c-.7,2.72-2.13,4.78-4.28,6.17-2.15,1.39-4.41,1.84-6.77,1.35l-1.2-.18c-2.7-.78-4.89-2.48-6.55-5.12l3.28-2.27c1.25,1.57,2.56,2.59,3.91,3.08,1.68.43,3,.32,3.95-.33s1.62-1.76,2.02-3.31l.25-.99c-1.68.83-3.41,1.01-5.22.54-2.46-.63-4.15-1.86-5.06-3.68s-1.12-3.71-.62-5.65l3.1-12.05,5.44,1.4-2.75,10.69c-.33,1.3-.27,2.38.2,3.26s1.35,1.51,2.64,1.88c1.16.22,2.34-.23,3.54-1.35Z"/>
      <path class="cls-2" d="m453.72,224.89l-3.18,12.36-5.44-1.4,4.85-18.87,5.59.82-.45,1.77c1.61-.83,3.31-1.01,5.11-.55,2.46.63,4.15,1.86,5.06,3.68.91,1.82,1.12,3.71.62,5.65l-3.1,12.05-5.44-1.4,2.75-10.69c.33-1.3.27-2.38-.2-3.26-.46-.88-1.35-1.51-2.64-1.88-1.15-.21-2.32.36-3.53,1.72Z"/>
      <path class="cls-2" d="m472.11,224.57c2.86-.92,5.91-.97,9.15-.13,2.33.6,4.01,1.72,5.04,3.37,1.03,1.64,1.21,3.76.54,6.35l-3,11.66-5.44-1.4.4-1.55c-1.85.63-3.4.78-4.67.46-2.59-.67-4.39-1.72-5.4-3.15s-1.27-3.12-.77-5.07c.47-1.81,1.49-3.28,3.08-4.39s3.75-1.31,6.49-.61c1.26.32,2.58,1.08,3.98,2.26l.15-.58c.34-1.43-.5-2.48-2.51-3.13-2.33-.6-4.25-.68-5.74-.23l-1.29-3.85Zm7.79,14.02l.56-2.2c-.26-1.13-1.36-1.95-3.31-2.45-2.4-.34-3.86.25-4.39,1.77-.27,1.57.75,2.73,3.05,3.46,1.94.5,3.31.3,4.09-.59Z"/>
      <path class="cls-2" d="m497.26,236l-3.2,12.44-5.44-1.4,4.85-18.87,5.59.82-.44,1.73c1.51-.83,3.21-1,5.1-.51,2.46.63,4.15,1.86,5.06,3.68,1.81-1.12,4.14-1.32,6.99-.59,2.46.63,4.15,1.86,5.06,3.68.91,1.82,1.12,3.71.62,5.65l-3.1,12.05-5.44-1.4,2.75-10.69c.33-1.3.3-2.37-.1-3.24s-1.25-1.48-2.55-1.86c-1.1-.2-2.21.27-3.35,1.42-.17.38-.31.78-.41,1.2l-2.95,11.46-5.44-1.4,2.75-10.69c.33-1.3.3-2.37-.1-3.24s-1.25-1.48-2.55-1.86c-1.21-.23-2.45.3-3.7,1.6Z"/>
      <path class="cls-2" d="m524.62,245.93c.73-2.85,2.24-4.95,4.52-6.3s4.84-1.65,7.69-.92,4.88,2.22,6.1,4.47,1.46,4.79.73,7.64l-.5,1.94-13.41-3.45c-.14,1.07.11,2,.74,2.78s1.46,1.31,2.5,1.57c1.81.47,3.57.36,5.26-.31l2.31,3.91c-1.92,1.58-4.83,1.87-8.72.87-2.85-.73-4.95-2.24-6.3-4.52s-1.65-4.84-.92-7.69Zm13.56-1.18c-.63-.78-1.46-1.31-2.5-1.57-1.04-.27-2.02-.21-2.95.18s-1.52,1.09-1.79,2.13l7.77,2c.27-1.04.09-1.95-.54-2.73Z"/>
      <path class="cls-2" d="m566.32,239.24c.65-.39,1.42-.47,2.3-.25.93.24,1.59.69,1.97,1.35s.48,1.38.28,2.15c-.2.78-.63,1.36-1.28,1.74s-1.43.46-2.34.23-1.55-.68-1.94-1.33-.48-1.37-.28-2.14.63-1.36,1.28-1.75Zm-1.84,27.3l5-19.45-5.44-1.4-5,19.45,5.44,1.4Z"/>
      <path class="cls-2" d="m585.06,251.69c.9.7,1.67,1.6,2.33,2.69l-3.91,2.64c-.61-1.28-1.58-2.08-2.9-2.42s-2.25-.32-2.81.05-.68.81-.34,1.32,1.13,1.06,2.37,1.66c1.88.68,3.32,1.63,4.32,2.87s1.2,2.99.61,5.27c-.47,1.84-1.56,3.08-3.28,3.72s-3.53.71-5.46.21-3.3-1.13-4.39-1.97-1.96-1.81-2.62-2.92l3.89-2.63c.61,1.28,1.82,2.24,3.63,2.88,1.49.38,2.51.39,3.07.01s.75-.84.57-1.41-1.12-1.15-2.83-1.77c-1.53-.59-2.86-1.45-3.97-2.57s-1.39-2.79-.82-4.98c.52-2.01,1.66-3.35,3.43-4.02s3.44-.8,5.02-.4c1.83.47,3.19,1.05,4.09,1.75Z"/>
    </g>
    <g>
      <path class="cls-16" d="m239.67,287.81c-1.79-3.02-2.23-6.33-1.3-9.95.92-3.53,2.89-6.19,5.92-7.99s6.31-2.23,9.87-1.32c3.59.92,6.38,2.83,8.38,5.73l-4.3,2.81c-1.37-1.78-3.16-2.96-5.37-3.53-2.26-.57-4.26-.33-6,.71-1.74,1.04-2.89,2.66-3.45,4.84-.59,2.34-.37,4.38.67,6.11s2.68,2.89,4.94,3.47,4.38.42,6.37-.49l2.41,4.54c-3.14,1.58-6.51,1.91-10.11.98-3.55-.93-6.23-2.9-8.02-5.92Z"/>
      <path class="cls-16" d="m263.24,288.78c.63-2.46,1.93-4.27,3.9-5.44,1.97-1.16,4.18-1.43,6.64-.8s4.22,1.92,5.27,3.86c1.05,1.94,1.26,4.14.63,6.6l-.43,1.68-11.58-2.98c-.12.92.09,1.72.64,2.4s1.26,1.13,2.15,1.36c1.57.4,3.08.31,4.54-.26l1.99,3.37c-1.66,1.36-4.17,1.61-7.53.75-2.46-.63-4.27-1.93-5.44-3.9s-1.43-4.18-.8-6.64Zm11.71-1.01c-.54-.68-1.26-1.13-2.15-1.36s-1.74-.18-2.54.15-1.32.94-1.55,1.84l6.71,1.72c.23-.89.07-1.68-.47-2.36Z"/>
      <path class="cls-16" d="m289.38,288.52c1.51-.92,3.13-1.16,4.85-.72.55.14,1.06.32,1.53.54l-1.93,4.44c-.42-.63-1.14-1.1-2.15-1.39-1.16-.21-2.32.37-3.49,1.75l-2.65,10.32-4.7-1.21,4.19-16.29,4.83.7-.48,1.86Z"/>
      <path class="cls-16" d="m302.16,307.72c-1.9-.49-3.27-1.41-4.12-2.76s-1.05-2.86-.62-4.54l1.87-7.26-2.52-.65.97-3.79,2.52.65,1.17-4.55,4.84.71-1.3,5.05,2.52.65-.97,3.79-2.52-.65-1.69,6.59c-.23.89-.2,1.57.08,2.03s.72.77,1.31.92c.18.05.62.08,1.31.11l.12,3.63c-.94.32-1.93.34-2.97.08Z"/>
      <path class="cls-16" d="m314.06,286.81c.56-.34,1.23-.41,1.99-.21.81.21,1.37.59,1.7,1.16s.41,1.19.24,1.86-.54,1.17-1.1,1.51-1.24.4-2.02.2-1.34-.58-1.67-1.15-.41-1.18-.24-1.85.54-1.18,1.1-1.51Zm-1.59,23.57l4.32-16.79-4.7-1.21-4.32,16.79,4.7,1.21Z"/>
      <path class="cls-16" d="m317.36,311.63l3.45-13.42-2.52-.65.97-3.79,2.52.65.58-2.25c.43-1.68,1.34-2.9,2.73-3.68,1.39-.78,3.04-.92,4.94-.43,2.01.52,3.44,1.48,4.27,2.89l-3.22,2.14c-.22-.43-.74-.74-1.54-.95-.59-.15-1.12-.09-1.59.17s-.82.85-1.05,1.74l-.41,1.58,2.52.65-.97,3.79-2.52-.65-3.45,13.42-4.71-1.21Z"/>
      <path class="cls-16" d="m335.8,292.4c.56-.34,1.23-.41,1.99-.21.81.21,1.37.59,1.7,1.16s.41,1.19.24,1.86-.54,1.17-1.1,1.51-1.24.4-2.02.2-1.34-.58-1.67-1.15-.41-1.18-.24-1.85.54-1.18,1.1-1.51Zm-1.59,23.57l4.32-16.79-4.7-1.21-4.32,16.79,4.7,1.21Z"/>
      <path class="cls-16" d="m339.58,308.4c.63-2.46,1.93-4.27,3.9-5.44,1.97-1.16,4.18-1.43,6.64-.8,2.46.63,4.22,1.92,5.27,3.86,1.05,1.94,1.26,4.14.63,6.6l-.43,1.68-11.58-2.98c-.12.92.09,1.72.64,2.4s1.26,1.13,2.15,1.36c1.57.4,3.08.31,4.54-.26l1.99,3.37c-1.66,1.36-4.17,1.61-7.53.75-2.46-.63-4.27-1.93-5.44-3.9s-1.43-4.18-.8-6.64Zm11.71-1.01c-.54-.68-1.26-1.13-2.15-1.36s-1.74-.18-2.54.15-1.32.94-1.55,1.84l6.71,1.72c.23-.89.07-1.68-.47-2.36Z"/>
      <path class="cls-16" d="m379.94,300.91l-6.46,25.15-4.7-1.21.34-1.34c-1.48.57-2.83.7-4.04.39-2.57-.66-4.4-2.02-5.48-4.09-1.08-2.07-1.33-4.22-.76-6.45.57-2.24,1.83-4,3.77-5.29,1.94-1.29,4.2-1.6,6.77-.94,1.65.54,2.76,1.31,3.34,2.31l2.51-9.75,4.69,1.22Zm-9.39,17.06l.7-2.72c.26-1.94-.63-3.34-2.67-4.21-2.74-.48-4.61.53-5.6,3.01-.69,3.16.4,5.17,3.28,6.03,2.21.21,3.64-.49,4.3-2.11Z"/>
      <path class="cls-16" d="m411.01,321.56c1.82,2.04,2.5,4.26,2.03,6.66-1.44,4.68-4.62,6.54-9.54,5.58l-14.16-3.66,6.46-25.15,13.35,3.43c4.18,1.34,5.78,4.38,4.81,9.12-.65,2.22-1.64,3.55-2.96,4.01Zm-12.74-5.19l7.05,1.81c2.03.49,3.34-.29,3.93-2.34.26-1.24-.6-2.16-2.57-2.74l-7.1-1.82-1.31,5.08Zm-2.86,11.14l8.22,2.11c2.37.57,3.89-.33,4.56-2.71.36-1.62-.62-2.77-2.93-3.44l-8.27-2.13-1.58,6.16Z"/>
      <path class="cls-16" d="m417.8,335.01c-1.21-2.06-1.51-4.3-.88-6.73.63-2.44,1.97-4.26,4.02-5.48s4.3-1.51,6.74-.88c2.44.63,4.26,1.97,5.48,4.02s1.51,4.3.88,6.74c-.63,2.44-1.97,4.26-4.02,5.48s-4.3,1.51-6.74.88c-2.44-.63-4.26-1.97-5.48-4.03Zm6.5-.04c1.28.33,2.42.17,3.43-.49s1.68-1.61,2.01-2.89.21-2.45-.37-3.51-1.5-1.76-2.79-2.09-2.4-.16-3.42.5c-1.02.66-1.69,1.62-2.01,2.9-.33,1.28-.2,2.44.37,3.5s1.5,1.75,2.77,2.08Z"/>
      <path class="cls-16" d="m437.13,339.98c-1.21-2.06-1.51-4.3-.88-6.73s1.97-4.26,4.02-5.48,4.3-1.51,6.74-.88c2.44.63,4.26,1.97,5.48,4.02,1.21,2.05,1.51,4.3.88,6.74-.63,2.44-1.97,4.26-4.02,5.48-2.05,1.21-4.3,1.51-6.74.88-2.44-.63-4.26-1.97-5.48-4.03Zm6.5-.04c1.28.33,2.42.17,3.43-.49s1.68-1.61,2.01-2.89.21-2.45-.37-3.51-1.5-1.76-2.79-2.09-2.4-.16-3.42.5-1.69,1.62-2.01,2.9-.2,2.44.37,3.5c.57,1.06,1.5,1.75,2.77,2.08Z"/>
      <path class="cls-16" d="m461.3,321.8l5.03,1.29-3.66,14.24,6.32-4.62,5.65,1.45-8.21,5.92,5.58,11.29-6.54-1.68-3.88-8.13-1.72,6.69-5.03-1.29,6.47-25.17Z"/>
      <path class="cls-16" d="m482.14,341.9l-2.92,11.34-4.7-1.21,6.47-25.17,4.7,1.21-2.54,9.9c1.39-.72,2.86-.87,4.41-.47,2.13.55,3.58,1.61,4.37,3.18.79,1.57.97,3.2.53,4.88l-2.67,10.4-4.7-1.21,2.37-9.23c.29-1.12.23-2.06-.17-2.82s-1.16-1.3-2.28-1.62c-.99-.18-1.95.09-2.88.82Z"/>
      <path class="cls-16" d="m494.25,348.16c.63-2.46,1.93-4.27,3.9-5.44s4.18-1.43,6.64-.8,4.22,1.92,5.27,3.86c1.05,1.94,1.26,4.14.63,6.6l-.43,1.68-11.58-2.98c-.12.92.09,1.72.64,2.4s1.26,1.13,2.15,1.36c1.57.4,3.08.31,4.54-.26l1.99,3.37c-1.66,1.36-4.17,1.61-7.53.75-2.46-.63-4.27-1.93-5.44-3.9-1.16-1.97-1.43-4.18-.8-6.64Zm11.71-1.01c-.54-.68-1.26-1.13-2.15-1.36s-1.74-.18-2.54.15-1.32.94-1.55,1.84l6.71,1.72c.23-.89.07-1.68-.47-2.36Z"/>
      <path class="cls-16" d="m516.34,347.04c2.47-.8,5.1-.83,7.9-.12,2.01.52,3.46,1.49,4.35,2.91.89,1.42,1.04,3.25.47,5.49l-2.59,10.07-4.7-1.21.34-1.34c-1.59.54-2.94.68-4.04.39-2.24-.57-3.79-1.48-4.67-2.72s-1.1-2.7-.66-4.37c.4-1.57,1.29-2.83,2.66-3.79s3.24-1.13,5.6-.53c1.08.28,2.23.93,3.43,1.96l.13-.5c.29-1.24-.43-2.14-2.17-2.7-2.01-.52-3.67-.58-4.96-.2l-1.11-3.33Zm6.73,12.1l.49-1.9c-.23-.98-1.18-1.68-2.86-2.11-2.07-.29-3.33.22-3.79,1.53-.23,1.36.65,2.35,2.63,2.98,1.68.43,2.85.26,3.53-.51Z"/>
      <path class="cls-16" d="m553.05,345.4l-6.46,25.15-4.7-1.21.34-1.34c-1.48.57-2.83.7-4.04.39-2.57-.66-4.4-2.02-5.48-4.09-1.08-2.07-1.33-4.22-.76-6.45s1.83-4,3.77-5.29c1.94-1.29,4.2-1.6,6.77-.94,1.65.54,2.76,1.31,3.34,2.31l2.51-9.75,4.69,1.22Zm-9.39,17.06l.7-2.72c.26-1.94-.63-3.34-2.67-4.21-2.74-.48-4.61.53-5.6,3.01-.69,3.16.4,5.17,3.28,6.03,2.21.21,3.64-.49,4.3-2.11Z"/>
    </g>
    <path class="cls-11" d="m443.83,153.68c-1.05,2.14-2.34,4.14-3.84,5.97-4.97,6.11-12.25,10.34-20.72,11.27-10.22,1.13-19.83-2.82-26.32-9.82-.36-.37-.7-.77-1.03-1.16-.4-.48-.77-.95-1.14-1.44-.18-.27-.38-.51-.55-.77-.2-.29-.41-.59-.59-.9-.26-.39-.5-.77-.73-1.18l-.37-.66c-.24-.44-.48-.88-.7-1.34h-.02c-1.54-3.18-4.51-5.41-8.02-5.72l5.06-14.05,1.56-4.34c.06-.18.13-.37.19-.53,4.39-11.72,15.68-20.33,29.44-20.31,14.37.04,27.05,10.22,30.22,24.23,1.66,7.35.62,14.59-2.43,20.73Z"/>
    <path class="cls-11" d="m446.9,165.08c3.5.39,6.41,2.69,7.89,5.89l.02.02c.21.46.43.91.66,1.35l.36.66c.22.41.45.81.7,1.2.18.32.38.61.58.91.17.27.36.52.53.78.36.5.72.98,1.1,1.46.32.4.65.8,1,1.19,6.32,7.15,15.85,11.33,26.09,10.44,11.03-.96,20.2-7.54,24.96-16.67,3.18-6.06,4.39-13.27,2.91-20.66-2.83-14.08-15.28-24.56-29.64-24.94-13.76-.34-25.25,8-29.9,19.62-.07.17-.13.36-.2.53l-7.04,18.22Z"/>
    <path class="cls-11" d="m248.81,244.11h0c-.04-5.08-1.26-9.87-3.39-14.13-6.54-13.06-21.58-19.53-35.81-16.22l-17.62,3.67c-1.38.1-2.64.65-4.04.94-1.91.39-3.75.97-5.51,1.7h-.06s0,.02,0,.02c-11.17,4.63-18.99,15.61-19.27,28-.3,13.76,8.08,25.22,19.72,29.84.17.07.36.13.53.2l18.25,6.98c.38-3.5,2.67-6.42,5.86-7.91v-.02c.4-.17.73-.46,1.14-.56,2.01-.51,8.28-.07,8.28-.07,17.77-.15,32.06-14.68,31.91-32.45Z"/>
    <path class="cls-15" d="m365.74,148.21c-4.83,9.97-14.24,16.18-24.46,17.38-6.8.82-13.96-.62-20.35-4.64-10.74-6.77-16.17-19.55-13.99-31.79l2.83.72c1.19,10.22,7.42,19.64,17.39,24.46,9.25,4.48,19.64,3.97,28.09-.46.47-.23.92-.49,1.36-.75.54-.31,1.04-.64,1.55-.98.27-.18.52-.35.78-.54.28-.22.59-.41.86-.64.37-.28.73-.56,1.08-.87l.57-.49c.38-.33.74-.67,1.1-1.03h.03c1.18-1.17,2.58-2.03,4.1-2.52-.28.72-.59,1.44-.94,2.15Z"/>
    <path class="cls-11" d="m372.04,145.88c-3.41-.88-6.95.23-9.47,2.7h-.02c-.36.37-.72.7-1.1,1.03l-.57.49c-.35.31-.71.59-1.08.87-.28.23-.58.44-.86.65-.26.19-.52.35-.78.54-.51.34-1.02.66-1.55.97-.44.26-.89.52-1.36.76-8.46,4.43-18.84,4.94-28.1.46-9.97-4.83-16.19-14.24-17.38-24.46-.82-6.8.62-13.97,4.64-20.34,7.66-12.15,23.02-17.51,36.58-12.74,12.98,4.58,20.74,16.46,20.95,28.98,0,.18,0,.38,0,.57l.09,19.54Z"/>
    <path class="cls-15" d="m416.46,183.43c-7.35,1.66-14.59.62-20.72-2.42-9.24-4.54-16.04-13.56-17.25-24.57-.33-3.01-.23-5.98.28-8.84l1.06.27-.02.07c.19.02.37.03.55.07l1.93.49.03.02c2.39.91,4.35,2.75,5.51,5.14h.02c.22.47.45.9.7,1.34l.37.66c.23.4.47.79.73,1.18.18.32.39.61.59.9.18.26.37.5.55.77.37.49.73.96,1.14,1.44.33.4.67.79,1.03,1.16,6.49,7,16.1,10.95,26.32,9.82,7.01-.78,13.21-3.8,17.95-8.3l1.8.47c-3.43,9.99-11.89,17.93-22.56,20.34Z"/>
    <path class="cls-11" d="m380.35,148.02c.67.1,1.31.26,1.93.49l-1.93-.49Z"/>
    <path class="cls-15" d="m484.22,201.23c-7.35,1.66-14.59.62-20.72-2.42-9.24-4.54-16.04-13.56-17.25-24.57-.33-3.01-.23-5.98.28-8.84l1.06.27-.02.07c.19.02.37.03.55.07l1.93.49.03.02c2.39.91,4.35,2.75,5.51,5.14h.02c.22.47.45.9.7,1.34l.37.66c.23.4.47.79.73,1.18.18.32.39.61.59.9.18.26.37.5.55.77.37.49.73.96,1.14,1.44.33.4.67.79,1.03,1.16,6.49,7,16.1,10.95,26.32,9.82,7.01-.78,13.21-3.8,17.95-8.3l1.8.47c-3.43,9.99-11.89,17.93-22.56,20.34Z"/>
  </g>
</svg>