<?xml version="1.0" encoding="UTF-8"?>
<svg id="Camada_1" data-name="Camada 1" xmlns="http://www.w3.org/2000/svg" viewBox="0 0 306.39 364.28">
  <defs>
    <style>
      .cls-1 {
        fill: #fff;
      }

      .cls-2 {
        fill: #36a9e1;
      }

      .cls-3 {
        fill: #dd887e;
      }

      .cls-4 {
        fill: #344093;
      }

      .cls-5 {
        fill: #eeb98e;
      }

      .cls-6 {
        fill: #f9b233;
      }
    </style>
  </defs>
  <path class="cls-5" d="m241.48,97.83v-26.11c0-19.49-15.94-35.43-35.43-35.43h-105.71c-19.49,0-35.43,15.94-35.43,35.43v26.11s0,0,0,0c-7.83,0-14.17,6.34-14.17,14.17s6.34,14.17,14.17,14.17c0,0,0,0,0,0v61.55h176.57v-61.55c7.83,0,14.17-6.34,14.17-14.17s-6.34-14.17-14.17-14.17Z"/>
  <path class="cls-6" d="m126.95,36.28l-62.04,61.54v-26.11c0-19.49,15.94-35.43,35.43-35.43h26.61Z"/>
  <path class="cls-6" d="m179.44,36.28l62.04,61.54v-26.11c0-19.49-15.94-35.43-35.43-35.43h-26.61Z"/>
  <rect class="cls-1" x="167.98" y="81.91" width="38.79" height="58.52" rx="19.39" ry="19.39"/>
  <rect class="cls-2" x="172.12" y="94.09" width="20.52" height="34.16" rx="10.26" ry="10.26"/>
  <rect class="cls-1" x="106.89" y="81.91" width="38.79" height="58.52" rx="19.39" ry="19.39"/>
  <path class="cls-6" d="m212.8,17.44c-5.27,2.2-11.06,2.31-16.15,1.63-6.99-.94-13.46-4.04-18.93-8.48-11.7-9.5-27.75-13.24-43.28-8.58-24.92,7.48-39.06,33.74-31.58,58.65,7.48,24.92,33.74,39.06,58.66,31.58,0,0,51.54-17.98,51.28-74.8Z"/>
  <path class="cls-3" d="m165.38,139.17c0-4.73-8.56-18.13-8.56-18.13,0,0-8.56,13.4-8.56,18.13s3.83,8.56,8.56,8.56,8.56-3.83,8.56-8.56Z"/>
  <rect class="cls-2" x="121.02" y="94.09" width="20.52" height="34.16" rx="10.26" ry="10.26"/>
  <path class="cls-3" d="m162.67,167.32c-3.06,0-5.96-.33-8.49-.84-1.74-.35-2.82-2.1-2.31-3.81v-.03c.45-1.47,1.93-2.39,3.44-2.1,6.65,1.28,24.02,2.83,31.48-13.76.63-1.4,2.26-2.07,3.71-1.56h0c1.67.59,2.46,2.48,1.73,4.09-6.34,14.04-18.95,18-29.56,18Z"/>
  <path class="cls-4" d="m254.75,203.04c0-7.73-5.8-14.15-13.27-15.17v-.16H64.91v.16c-7.46,1.02-13.27,7.44-13.27,15.17s5.8,14.15,13.27,15.17v146.07h176.57v-146.07c7.46-1.02,13.27-7.44,13.27-15.17Z"/>
  <rect class="cls-1" x="124.38" y="218.14" width="11.74" height="47.49" rx="5.87" ry="5.87"/>
  <rect class="cls-1" x="171" y="218.14" width="11.74" height="47.49" rx="5.87" ry="5.87"/>
  <circle class="cls-5" cx="25.82" cy="338.46" r="25.82"/>
  <circle class="cls-5" cx="280.57" cy="338.46" r="25.82"/>
</svg>