<?xml version="1.0" encoding="UTF-8"?>
<svg id="Camada_1" data-name="Camada 1" xmlns="http://www.w3.org/2000/svg" xmlns:xlink="http://www.w3.org/1999/xlink" viewBox="0 0 650.43 430.6">
  <defs>
    <style>
      .cls-1 {
        fill: #442a19;
      }

      .cls-2 {
        fill: #1d9dd9;
      }

      .cls-3 {
        fill: #3da9e0;
      }

      .cls-4 {
        fill: #fff;
      }

      .cls-5 {
        fill: #201c3f;
      }

      .cls-6 {
        fill: #009741;
      }

      .cls-7 {
        fill: #3eab37;
      }

      .cls-8 {
        fill: #946137;
      }

      .cls-9 {
        fill: #dd887e;
      }

      .cls-10 {
        fill: url(#Gradiente_sem_nome_4);
      }

      .cls-11 {
        fill: #364494;
      }

      .cls-12 {
        fill: #683d14;
      }

      .cls-13 {
        fill: #1f1f1d;
      }

      .cls-14 {
        fill: #29285b;
      }

      .cls-15 {
        fill: #1e1e1c;
      }

      .cls-16 {
        fill: #f39208;
      }

      .cls-17 {
        fill: #fab337;
      }

      .cls-18 {
        fill: url(#Gradiente_sem_nome_2);
      }

      .cls-19 {
        fill: #644f43;
      }

      .cls-20 {
        fill: #eeb98e;
      }

      .cls-21 {
        fill: #e1b479;
      }

      .cls-22 {
        fill: #652682;
      }

      .cls-23 {
        fill: #ca9e67;
      }

      .cls-24 {
        fill: #010101;
      }
    </style>
    <linearGradient id="Gradiente_sem_nome_4" data-name="Gradiente sem nome 4" x1="3.81" y1="246.11" x2="649.73" y2="246.11" gradientTransform="translate(0 353.41) scale(1 -1)" gradientUnits="userSpaceOnUse">
      <stop offset="0" stop-color="#fff"/>
      <stop offset=".25" stop-color="#fcfcfc"/>
      <stop offset=".47" stop-color="#f0f0f0"/>
      <stop offset=".68" stop-color="#dedede"/>
      <stop offset=".88" stop-color="#c5c5c4"/>
      <stop offset="1" stop-color="#b3b2b2"/>
    </linearGradient>
    <linearGradient id="Gradiente_sem_nome_2" data-name="Gradiente sem nome 2" x1="9.88" y1="246.11" x2="515.42" y2="246.11" gradientTransform="translate(0 353.41) scale(1 -1)" gradientUnits="userSpaceOnUse">
      <stop offset="0" stop-color="#26bcef"/>
      <stop offset="1" stop-color="#1758a4"/>
    </linearGradient>
  </defs>
  <path class="cls-10" d="m34.9,138.39c-17.14,0-31.09-13.95-31.09-31.09s13.95-31.09,31.09-31.09h583.73c17.14,0,31.09,13.95,31.09,31.09s-13.95,31.09-31.09,31.09H34.9Z"/>
  <path class="cls-15" d="m34.9,82.28h583.73c13.82,0,25.02,11.21,25.02,25.02h0c0,13.82-11.21,25.02-25.02,25.02H34.9c-13.82,0-25.02-11.21-25.02-25.02h0c0-13.82,11.21-25.02,25.02-25.02Z"/>
  <path class="cls-18" d="m32.06,82.28h461.17c12.26,0,22.19,11.21,22.19,25.02h0c0,13.82-9.94,25.02-22.19,25.02H32.06c-12.26,0-22.19-11.21-22.19-25.02h0c0-13.82,9.94-25.02,22.19-25.02Z"/>
  <g>
    <path class="cls-4" d="m14.47,46.39V1.59h16.76c3.59,0,6.56.62,8.93,1.85,2.36,1.24,4.13,2.89,5.28,4.96s1.73,4.36,1.73,6.88-.56,4.62-1.69,6.69c-1.13,2.07-2.88,3.73-5.25,4.99s-5.41,1.89-9.12,1.89h-8v17.54h-8.64Zm8.64-23.8h7.55c2.64,0,4.58-.64,5.82-1.92,1.24-1.28,1.85-2.97,1.85-5.05s-.61-3.74-1.82-4.96-3.17-1.82-5.86-1.82h-7.55v13.76h0Zm14.59,23.8l-9.21-19.71h9.34l9.73,19.71h-9.86Z"/>
    <g>
      <path class="cls-4" d="m68.41,47.15c-3.25,0-6.11-.7-8.61-2.11-2.5-1.41-4.44-3.36-5.82-5.86-1.38-2.5-2.08-5.36-2.08-8.61s.7-6.34,2.08-8.9c1.38-2.56,3.32-4.58,5.79-6.08,2.47-1.49,5.36-2.24,8.64-2.24s5.99.7,8.39,2.11c2.39,1.41,4.24,3.29,5.56,5.66,1.32,2.36,1.99,5.09,1.99,8.16,0,.43,0,.9-.03,1.44-.02.53-.05,1.07-.09,1.63h-26.11v-5.31h17.54c-.13-2-.87-3.62-2.21-4.86s-3-1.85-4.96-1.85c-1.49,0-2.84.36-4.07,1.06-1.21.7-2.19,1.73-2.91,3.07-.73,1.34-1.09,3.04-1.09,5.09v1.85c0,1.75.33,3.28.99,4.58s1.59,2.32,2.78,3.04c1.19.73,2.58,1.09,4.16,1.09s2.93-.33,3.93-.99c1-.66,1.78-1.55,2.33-2.66h8.76c-.56,2.01-1.55,3.83-2.98,5.47-1.43,1.65-3.16,2.92-5.19,3.84-2.02.92-4.3,1.38-6.82,1.38h.02Z"/>
      <path class="cls-4" d="m102.33,47.15c-2.64,0-4.85-.44-6.59-1.31s-3.06-2.05-3.93-3.52c-.87-1.47-1.31-3.11-1.31-4.89,0-2,.5-3.76,1.51-5.25,1-1.49,2.53-2.66,4.58-3.49,2.05-.83,4.65-1.24,7.81-1.24h7.87c0-1.62-.2-2.94-.61-3.96-.41-1.02-1.07-1.79-1.99-2.3s-2.13-.77-3.62-.77c-1.62,0-3,.34-4.13,1.03-1.13.68-1.82,1.77-2.08,3.26h-8.39c.22-2.35.97-4.35,2.27-6.01,1.3-1.66,3.03-2.97,5.19-3.9s4.55-1.41,7.2-1.41c3.03,0,5.66.5,7.91,1.51,2.24,1,3.94,2.47,5.12,4.41,1.17,1.94,1.76,4.3,1.76,7.07v20.03h-7.23l-.96-4.93c-.47.86-1.04,1.62-1.69,2.3-.66.68-1.43,1.28-2.3,1.79-.87.51-1.82.9-2.84,1.18-1.02.28-2.19.42-3.52.42v-.02Zm2.11-6.65c1.07,0,2.04-.2,2.91-.61.87-.4,1.63-.97,2.27-1.69s1.15-1.54,1.54-2.43.64-1.88.77-2.94v-.06h-6.59c-1.37,0-2.47.16-3.29.48-.83.32-1.44.78-1.82,1.38s-.58,1.28-.58,2.05c0,.81.19,1.51.58,2.08.39.58.95,1.01,1.69,1.31.75.3,1.59.45,2.53.45h0Z"/>
      <path class="cls-4" d="m143.21,47.15c-2.94,0-5.58-.73-7.91-2.17-2.33-1.45-4.15-3.45-5.47-6.01-1.32-2.56-1.99-5.44-1.99-8.64s.66-6.2,1.99-8.73c1.32-2.53,3.18-4.54,5.56-6.01s5.05-2.21,8-2.21c2.35,0,4.38.43,6.11,1.28,1.73.85,3.12,2.07,4.19,3.65V.31h8.64v46.08h-7.68l-.96-4.48c-.68.98-1.51,1.87-2.47,2.66-.96.79-2.09,1.41-3.39,1.89-1.3.47-2.84.7-4.64.7h0Zm2.05-7.55c1.75,0,3.26-.39,4.54-1.18s2.28-1.89,3.01-3.29c.73-1.41,1.09-3.05,1.09-4.93s-.36-3.45-1.09-4.86-1.74-2.5-3.04-3.26-2.83-1.15-4.58-1.15c-1.62,0-3.08.39-4.38,1.18s-2.32,1.89-3.04,3.29c-.73,1.41-1.09,3.01-1.09,4.8s.36,3.51,1.09,4.89c.73,1.38,1.74,2.49,3.04,3.29,1.3.81,2.78,1.21,4.44,1.21h0Z"/>
      <path class="cls-4" d="m175.28,9.72c-1.58,0-2.86-.46-3.84-1.38s-1.47-2.08-1.47-3.49.49-2.57,1.47-3.49c.98-.92,2.26-1.38,3.84-1.38s2.87.46,3.87,1.38c1,.92,1.51,2.08,1.51,3.49s-.5,2.57-1.51,3.49c-1,.92-2.3,1.38-3.87,1.38Zm-4.35,36.66V14.14h8.64v32.25h-8.64Z"/>
      <path class="cls-4" d="m188.26,46.39V14.14h7.61l.58,5.31c1.03-1.88,2.44-3.36,4.26-4.44,1.82-1.09,3.98-1.63,6.49-1.63,2.69,0,4.95.56,6.79,1.69,1.83,1.13,3.24,2.76,4.22,4.89s1.47,4.74,1.47,7.81v18.62h-8.64v-17.85c0-2.52-.56-4.46-1.66-5.82-1.11-1.37-2.8-2.05-5.05-2.05-1.41,0-2.67.34-3.81,1.02-1.13.68-2.02,1.65-2.66,2.91s-.96,2.81-.96,4.64v17.15h-8.64,0Z"/>
      <path class="cls-4" d="m241.64,61.23c-3.07,0-5.76-.37-8.06-1.12-2.3-.75-4.09-1.88-5.34-3.39-1.26-1.51-1.89-3.39-1.89-5.6,0-1.54.39-2.97,1.15-4.29s1.9-2.53,3.39-3.62c1.49-1.09,3.33-2.02,5.5-2.78l3.26,4.29c-1.96.64-3.37,1.45-4.22,2.43s-1.28,2-1.28,3.07c0,.98.32,1.82.96,2.5.64.68,1.54,1.18,2.69,1.51s2.41.48,3.78.48,2.56-.17,3.59-.51c1.02-.34,1.82-.83,2.4-1.47s.87-1.43.87-2.36c0-1.2-.42-2.14-1.24-2.84-.83-.7-2.47-1.14-4.89-1.31-2.13-.17-4.05-.43-5.76-.77-1.71-.34-3.19-.73-4.44-1.15-1.26-.43-2.33-.92-3.23-1.47-.9-.56-1.62-1.11-2.18-1.66v-1.47l6.85-7.36,6.21,1.99-8.06,7.94,2.5-4.29c.43.3.87.58,1.34.83s1.04.47,1.73.64c.68.17,1.57.33,2.66.48s2.49.31,4.19.48c2.86.22,5.19.73,7.01,1.54,1.82.81,3.14,1.9,3.96,3.26.83,1.37,1.24,3.03,1.24,4.99s-.53,3.71-1.57,5.38c-1.04,1.66-2.64,3.03-4.8,4.1-2.16,1.07-4.92,1.6-8.28,1.6l-.02-.03Zm.06-24.38c-2.69,0-5.02-.53-6.97-1.57-1.96-1.04-3.47-2.45-4.51-4.22-1.04-1.77-1.57-3.74-1.57-5.92s.53-4.15,1.57-5.92,2.53-3.19,4.48-4.26c1.94-1.07,4.27-1.6,7.01-1.6s5,.53,6.94,1.6,3.42,2.49,4.44,4.26c1.03,1.77,1.54,3.74,1.54,5.92s-.51,4.15-1.54,5.92c-1.02,1.77-2.5,3.18-4.44,4.22s-4.26,1.57-6.94,1.57h0Zm0-6.59c1.66,0,3-.43,4-1.28,1-.85,1.51-2.13,1.51-3.84s-.5-2.92-1.51-3.78c-1-.85-2.33-1.28-4-1.28s-3.02.43-4.07,1.28-1.57,2.11-1.57,3.78.51,2.98,1.54,3.84c1.03.85,2.39,1.28,4.1,1.28h0Zm5.31-10.05l-1.41-6.08h13.31v5.12l-11.9.96h0Z"/>
      <path class="cls-4" d="m301.28,47.15c-4.44,0-8.28-.97-11.52-2.91-3.25-1.94-5.73-4.65-7.46-8.13s-2.59-7.5-2.59-12.06.87-8.59,2.59-12.09c1.73-3.5,4.21-6.23,7.46-8.19,3.24-1.96,7.08-2.94,11.52-2.94,5.42,0,9.86,1.34,13.34,4.03,3.48,2.69,5.62,6.48,6.43,11.39h-9.47c-.56-2.39-1.71-4.26-3.45-5.6s-4.05-2.02-6.91-2.02c-2.69,0-4.97.63-6.85,1.89-1.88,1.26-3.32,3.03-4.32,5.31-1,2.28-1.51,5.02-1.51,8.22s.5,5.89,1.51,8.19c1,2.3,2.44,4.07,4.32,5.31s4.16,1.85,6.85,1.85c2.86,0,5.16-.63,6.91-1.89,1.75-1.26,2.9-3.01,3.45-5.28h9.47c-.81,4.65-2.95,8.3-6.43,10.94s-7.92,3.96-13.34,3.96v.02Z"/>
      <path class="cls-4" d="m328.21,46.39V.31h8.64v46.08h-8.64Z"/>
      <path class="cls-4" d="m357.39,47.15c-2.64,0-4.89-.54-6.75-1.63-1.85-1.09-3.26-2.69-4.22-4.8s-1.44-4.72-1.44-7.84V14.14h8.58v17.91c0,2.6.54,4.55,1.63,5.86,1.09,1.3,2.76,1.96,5.02,1.96,1.45,0,2.74-.33,3.87-.99,1.13-.66,2.02-1.62,2.66-2.88.64-1.26.96-2.78.96-4.58V14.14h8.64v32.25h-7.61l-.64-5.25c-.98,1.83-2.38,3.29-4.19,4.38-1.82,1.09-3.98,1.63-6.49,1.63h-.02Z"/>
      <path class="cls-4" d="m403.72,47.15c-1.62,0-3.09-.22-4.41-.64-1.32-.43-2.47-1-3.42-1.73-.96-.73-1.8-1.58-2.53-2.56l-.96,4.16h-7.68V.31h8.64v18.36c1.03-1.54,2.38-2.81,4.07-3.81,1.68-1,3.79-1.51,6.31-1.51,2.94,0,5.58.75,7.91,2.24s4.17,3.51,5.53,6.05c1.36,2.54,2.05,5.41,2.05,8.61s-.67,6.14-2.02,8.67c-1.34,2.54-3.18,4.54-5.5,6.01-2.33,1.47-4.98,2.21-7.97,2.21h0Zm-1.99-7.55c1.66,0,3.15-.39,4.44-1.18s2.33-1.88,3.07-3.26c.74-1.38,1.12-3.01,1.12-4.89s-.37-3.4-1.12-4.83c-.75-1.43-1.77-2.53-3.07-3.33-1.3-.79-2.78-1.18-4.44-1.18s-3.15.39-4.44,1.18-2.32,1.89-3.04,3.29c-.73,1.41-1.09,3.05-1.09,4.93s.36,3.45,1.09,4.83,1.74,2.47,3.04,3.26,2.78,1.18,4.44,1.18Z"/>
      <path class="cls-4" d="m447.43,46.39V11.51l-7.94,2.11v-6.91l11.52-5.12h5.31v44.79h-8.9,0Z"/>
    </g>
  </g>
  <path class="cls-24" d="m178.75,180.7c0,20.4-6.84,39.2-18.34,54.25-1.97-1.54-4.43-2.45-7.12-2.46,0,0-.02-.01-.02-.02v-28.13c-.55-2.95-1.3-5.83-2.23-8.63-.92-2.75-2.01-5.42-3.28-7.98-1.21-2.46-2.56-4.83-4.06-7.11-15.06,11.54-33.89,18.41-54.33,18.41s-39.29-6.87-54.35-18.42c-1.51,2.28-2.87,4.66-4.08,7.12-1.27,2.57-2.35,5.23-3.28,7.98-.93,2.8-1.68,5.68-2.23,8.63v29.02s-.01.02-.02.02c-2.48,0-4.78.79-6.65,2.13C7,220.36,0,201.34,0,180.7c0-12.62,2.62-24.64,7.35-35.52,13.73-31.69,45.29-53.86,82.03-53.86s68.3,22.16,82.02,53.85c4.73,10.88,7.35,22.9,7.35,35.52h0Z"/>
  <path class="cls-24" d="m160.41,234.94c-16.33,21.35-42.08,35.13-71.04,35.13s-54.26-13.53-70.61-34.58c1.88-1.34,4.18-2.12,6.65-2.13,0,0,.02,0,.02-.02v-29.02c.55-2.95,1.3-5.83,2.23-8.63.92-2.75,2.01-5.42,3.28-7.98,1.21-2.46,2.57-4.84,4.08-7.12,15.06,11.55,33.91,18.42,54.35,18.42s39.27-6.87,54.33-18.41c1.5,2.27,2.85,4.65,4.06,7.11,1.27,2.57,2.35,5.23,3.28,7.98.93,2.8,1.68,5.68,2.23,8.63v28.13s.01.02.02.02c2.69,0,5.15.92,7.12,2.46h0Z"/>
  <path class="cls-7" d="m53.1,275.65h72.51c15.26,0,27.65,12.8,27.65,28.57v126.38H25.45v-126.38c0-15.77,12.39-28.57,27.65-28.57h0Z"/>
  <circle class="cls-6" cx="89.36" cy="282.78" r="26.44"/>
  <circle class="cls-23" cx="89.36" cy="282.78" r="19.08"/>
  <path class="cls-21" d="m160.41,234.94c-1.97-1.54-4.43-2.45-7.12-2.46l-.02-.02v-22.53c0-4.81-.68-9.6-2.2-14.15,0-.03-.02-.06-.03-.09-.92-2.75-2.01-5.42-3.28-7.98-1.21-2.46-2.56-4.83-4.06-7.11-15.06,11.54-33.89,18.41-54.33,18.41s-39.29-6.87-54.35-18.42c-1.51,2.28-2.87,4.66-4.08,7.12-1.27,2.57-2.35,5.23-3.28,7.98,0,.03-.02.06-.03.09-1.51,4.56-2.2,9.35-2.2,14.15v23.41s-.01.02-.02.02c-2.48,0-4.78.79-6.65,2.13-3.71,2.62-5.81,7.37-4.52,12.47.64,2.55,2.13,4.7,4.13,6.2,1.99,1.51,4.48,2.38,7.1,2.38l.02.02c.9,18.54,16.34,33.41,35.09,33.41h57.54c19.05,0,34.68-15.36,35.13-34.31l.02-.02c6.4,0,11.58-5.18,11.58-11.58,0-3.71-1.73-7-4.44-9.12h0Zm-62.85-16.19c0-.84.07-1.67.21-2.46,1.17-6.7,7.02-11.8,14.05-11.8h0c7.04,0,12.88,5.1,14.05,11.8.14.79.21,1.62.21,2.46v14.53c0,7.88-6.39,14.26-14.26,14.26h0c-7.88,0-14.26-6.39-14.26-14.26v-14.53Zm-44.94,0c0-.84.07-1.67.21-2.46,1.17-6.7,7.01-11.8,14.05-11.8h0c7.03,0,12.88,5.1,14.05,11.8.14.79.21,1.62.21,2.46v14.63c-.03,4.13-4.43,6.88-8.17,5.11-.14-.07-.28-.13-.42-.18-1.73-.76-3.65-1.19-5.68-1.19h0c-.25,0-.5,0-.75.02-1.91.09-3.71.58-5.35,1.35-3.73,1.77-8.14-.98-8.17-5.11v-14.63h.01Z"/>
  <path class="cls-23" d="m66.89,249.19l.2-.02c1.07-.13,2.1.53,2.39,1.57,1.08,3.87,4.97,12.69,18.04,14.93,1.16.2,1.98,1.25,1.85,2.42h0c-.14,1.25-1.29,2.16-2.53,1.94-15.19-2.58-20.07-13.11-21.54-18.03-.39-1.33.49-2.68,1.86-2.84l-.25.03Z"/>
  <path class="cls-23" d="m97.53,252.52h-16.31c-2.03,0-3.68-1.65-3.68-3.68h0c0-2.03,1.65-3.68,3.68-3.68h4.48v-15.94c0-2.03,1.65-3.68,3.68-3.68h0c2.03,0,3.68,1.65,3.68,3.68v15.94h4.48c2.03,0,3.68,1.65,3.68,3.68h0c0,2.03-1.65,3.68-3.68,3.68Z"/>
  <path class="cls-4" d="m81.16,218.75v14.63c-.03,4.13-4.43,6.88-8.17,5.11-.14-.07-.28-.13-.42-.18,3.2-.88,5.53-3.81,5.53-7.27v-10.03c0-1.78-.62-3.41-1.65-4.71-1.38-1.73-3.51-2.84-5.9-2.84s-4.51,1.11-5.89,2.84c-1.03,1.3-1.65,2.93-1.65,4.71v10.03c0,2.08.84,3.97,2.21,5.34.28.28.59.55.91.78-1.91.09-3.71.58-5.35,1.35-3.73,1.77-8.14-.98-8.17-5.11v-14.63c0-.84.07-1.67.21-2.46,1.17-6.7,7.01-11.8,14.05-11.8h0c7.03,0,12.88,5.1,14.05,11.8.14.79.21,1.62.21,2.46h0Z"/>
  <path class="cls-16" d="m78.11,221v10.03c0,3.47-2.34,6.39-5.53,7.27-1.73-.76-3.65-1.19-5.68-1.19h0c-.25,0-.5,0-.75.02-.32-.23-.63-.5-.91-.78-1.37-1.37-2.21-3.25-2.21-5.34v-10.03c0-1.78.62-3.41,1.65-4.71,1.38-1.73,3.51-2.84,5.89-2.84s4.51,1.11,5.9,2.84c1.03,1.3,1.65,2.93,1.65,4.71h0Z"/>
  <path class="cls-16" d="m115.7,221v10.03c0,4.16-3.38,7.55-7.55,7.55-2.08,0-3.97-.84-5.34-2.21-1.37-1.37-2.21-3.25-2.21-5.34v-10.03c0-1.78.62-3.41,1.65-4.71,1.38-1.73,3.51-2.84,5.89-2.84s4.51,1.11,5.9,2.84c1.03,1.3,1.65,2.93,1.65,4.71h.01Z"/>
  <path class="cls-4" d="m125.88,216.29c-1.17-6.7-7.01-11.8-14.05-11.8h0c-7.03,0-12.88,5.1-14.05,11.8-.14.79-.21,1.62-.21,2.46v14.53c0,7.88,6.39,14.26,14.26,14.26h0c7.88,0,14.26-6.39,14.26-14.26v-14.53c0-.84-.07-1.67-.21-2.46Zm-10.18,14.74c0,4.16-3.38,7.55-7.55,7.55-2.08,0-3.97-.84-5.34-2.21-1.37-1.37-2.21-3.25-2.21-5.34v-10.03c0-1.78.62-3.41,1.65-4.71,1.38-1.73,3.51-2.84,5.89-2.84s4.51,1.11,5.9,2.84c1.03,1.3,1.65,2.93,1.65,4.71v10.03h.01Z"/>
  <path class="cls-22" d="m194.03,266.04h107.65c14.11,0,25.57,11.88,25.57,26.5v138.06h-158.79v-138.06c0-14.62,11.46-26.5,25.57-26.5h0Z"/>
  <path class="cls-8" d="m324.58,221.51c0,5.76-4.67,10.43-10.43,10.43h-.19v33.62c0,16.54-13.53,30.08-30.08,30.08h-72.06c-16.54,0-30.08-13.53-30.08-30.08v-33.62c-5.67-.11-10.24-4.73-10.24-10.43s4.56-10.32,10.24-10.43v-17.6c0-2.16.23-4.26.67-6.3,2.91-13.55,15.03-23.78,29.41-23.78h72.06c14.38,0,26.49,10.24,29.41,23.78.44,2.04.67,4.14.67,6.3v17.6h.19c5.76,0,10.43,4.67,10.43,10.43h0Z"/>
  <path class="cls-19" d="m220.19,214.26v10.19c0,3.75,3,7.48,6.71,7.99,2.61.36,5-.55,6.67-2.22,1.42-1.42,2.3-3.38,2.3-5.54v-10.43c0-1.85-.64-3.55-1.72-4.89-1.43-1.8-3.65-2.95-6.12-2.95s-4.69,1.15-6.13,2.95c-1.07,1.35-1.71,3.04-1.71,4.89h0Z"/>
  <path class="cls-4" d="m238.82,209.36c-1.22-6.96-7.29-12.25-14.59-12.25h0c-7.32,0-13.38,5.29-14.59,12.25-.15.82-.23,1.69-.23,2.56v15.09c0,.41.01.81.05,1.21.43,5.33,6.04,8.35,10.96,6.27,1.17-.5,2.46-.77,3.82-.77s2.64.28,3.82.77c4.92,2.08,10.53-.94,10.96-6.27.03-.4.05-.8.05-1.21v-15.09c0-.87-.08-1.74-.22-2.56h0Zm-2.95,15.33c0,2.16-.87,4.12-2.29,5.54s-3.38,2.29-5.54,2.29c-4.34,0-7.84-3.52-7.84-7.83v-10.43c0-1.85.64-3.55,1.71-4.9,1.44-1.8,3.65-2.95,6.14-2.95s4.7,1.15,6.12,2.95c1.08,1.35,1.72,3.04,1.72,4.9v10.43h0Z"/>
  <path class="cls-12" d="m256.14,251.57h-16.94c-2.11,0-3.82-1.71-3.82-3.82h0c0-2.11,1.71-3.82,3.82-3.82h4.65v-16.56c0-2.11,1.71-3.82,3.82-3.82h0c2.11,0,3.82,1.71,3.82,3.82v16.56h4.65c2.11,0,3.82,1.71,3.82,3.82h0c0,2.11-1.71,3.82-3.82,3.82h0Z"/>
  <path class="cls-19" d="m260.83,214.26v10.19c0,3.75,3,7.48,6.71,7.99,2.61.36,5-.55,6.67-2.22,1.42-1.42,2.3-3.38,2.3-5.54v-10.43c0-1.85-.64-3.55-1.72-4.89-1.43-1.8-3.65-2.95-6.12-2.95s-4.69,1.15-6.13,2.95c-1.07,1.35-1.71,3.04-1.71,4.89h0Z"/>
  <path class="cls-4" d="m257.86,211.93v15.09c0,.41.01.82.05,1.21.43,5.33,6.04,8.35,10.96,6.27,1.17-.5,2.46-.77,3.82-.77s2.64.28,3.82.77c4.92,2.08,10.53-.94,10.96-6.27.03-.4.05-.8.05-1.21v-15.09c0-.87-.08-1.74-.23-2.56-1.21-6.96-7.28-12.25-14.59-12.25h0c-7.3,0-13.37,5.29-14.59,12.25-.15.82-.22,1.69-.22,2.56h0Zm3.17,2.33c0-1.85.63-3.55,1.72-4.9,1.42-1.8,3.64-2.95,6.12-2.95s4.7,1.15,6.14,2.95c1.06,1.35,1.71,3.04,1.71,4.9v10.43c0,4.32-3.5,7.83-7.84,7.83-2.16,0-4.12-.87-5.54-2.29s-2.29-3.38-2.29-5.54v-10.43h0Z"/>
  <path class="cls-4" d="m249.34,269.15c-7.54,0-14.58-2.76-19.72-5.91-2.46-1.51-2.96-4.87-1.11-7.08l.08-.09c1.51-1.82,4.13-2.23,6.15-1,5.37,3.24,16.25,7.9,26.36.56,1.88-1.37,4.48-1.14,6.13.51l.07.07c2.04,2.04,1.84,5.45-.48,7.16-5.72,4.22-11.74,5.8-17.47,5.8h-.01Z"/>
  <path class="cls-1" d="m313.49,187.18h-130.88c2.91-13.55,15.03-23.78,29.41-23.78h72.06c14.38,0,26.49,10.24,29.41,23.78Z"/>
  <path class="cls-1" d="m240.04,275.12h16.02c1.66,0,2.69,1.81,1.84,3.23l-5.15,8.71c-2.11,3.57-7.28,3.57-9.39,0l-5.15-8.71c-.84-1.43.18-3.23,1.84-3.23h0Z"/>
  <path class="cls-14" d="m485.71,430.6h-150.38s31.5-152.61,31.5-152.61c12.46,8.08,27.32,12.78,43.28,12.78s31.38-4.89,43.99-13.26"/>
  <path class="cls-14" d="m489.67,200.94c0,28.49-14.98,53.49-37.5,67.54-12.2,7.62-26.62,12.02-42.06,12.02s-29.3-4.24-41.35-11.58c-22.93-13.97-38.22-39.19-38.22-67.99,0-43.95,35.62-79.58,79.58-79.58s79.56,35.62,79.56,79.58h0Z"/>
  <path class="cls-21" d="m474.38,200.93c0,35.5-28.77,64.27-64.27,64.27-32.01,0-58.55-23.41-63.46-54.03.58,0,1.16.02,1.73.02,33,0,61.2-20.58,72.46-49.62,1.89,20.04,18.76,35.73,39.29,35.73,4.91,0,9.62-.9,13.96-2.54.2,2.03.3,4.08.3,6.16h0Z"/>
  <path class="cls-23" d="m449.59,208.31v5.44c0,3.99-1.62,7.61-4.24,10.22-2.61,2.61-6.23,4.24-10.24,4.24-5.74,0-10.7-3.34-13.04-8.19-.68-1.43-1.14-2.99-1.33-4.63-.07-.55-.09-1.08-.09-1.64v-5.44c0,.55.03,1.1.09,1.64.19,1.64.65,3.2,1.33,4.63,2.34,4.84,7.31,8.19,13.04,8.19,4,0,7.62-1.62,10.24-4.24s4.24-6.23,4.24-10.22Z"/>
  <path class="cls-2" d="m439.05,195.85v10.17c0,4.22-3.42,7.65-7.65,7.65-2.1,0-4.02-.86-5.4-2.24-1.38-1.38-2.24-3.3-2.24-5.4v-10.17c0-1.81.63-3.46,1.68-4.78,1.39-1.75,3.55-2.88,5.98-2.88s4.59,1.13,5.98,2.88c1.04,1.31,1.67,2.97,1.67,4.78h0Z"/>
  <path class="cls-4" d="m449.38,191.08c-1.19-6.81-7.12-11.97-14.26-11.97-1.14,0-2.24.13-3.29.37-2.28.53-4.34,1.59-6.06,3.05-2.52,2.15-4.3,5.14-4.91,8.53-.14.81-.21,1.65-.21,2.49v14.74c0,.55.03,1.1.09,1.64.19,1.64.65,3.2,1.33,4.63,2.34,4.84,7.31,8.19,13.04,8.19,4,0,7.62-1.62,10.24-4.24,2.61-2.61,4.24-6.23,4.24-10.22v-14.74c0-.84-.07-1.69-.21-2.49h0Zm-10.33,14.95c0,4.22-3.42,7.65-7.66,7.65-2.1,0-4.02-.85-5.4-2.24s-2.24-3.3-2.24-5.4v-10.18c0-1.81.63-3.46,1.68-4.77,1.39-1.75,3.55-2.88,5.97-2.88s4.59,1.14,5.99,2.88c1.04,1.31,1.67,2.96,1.67,4.77v10.18h0Z"/>
  <path class="cls-23" d="m374.09,208.31v5.44c0,3.99,1.62,7.61,4.24,10.22s6.23,4.24,10.24,4.24c5.74,0,10.7-3.34,13.04-8.19.68-1.43,1.14-2.99,1.33-4.63.07-.55.09-1.08.09-1.64v-5.44c0,.55-.03,1.1-.09,1.64-.19,1.64-.65,3.2-1.33,4.63-2.34,4.84-7.31,8.19-13.04,8.19-4,0-7.62-1.62-10.24-4.24s-4.24-6.23-4.24-10.22Z"/>
  <path class="cls-2" d="m384.63,195.85v10.17c0,4.22,3.42,7.65,7.65,7.65,2.1,0,4.02-.86,5.4-2.24s2.24-3.3,2.24-5.4v-10.17c0-1.81-.63-3.46-1.68-4.78-1.39-1.75-3.55-2.88-5.98-2.88s-4.59,1.13-5.98,2.88c-1.04,1.31-1.67,2.97-1.67,4.78h0Z"/>
  <path class="cls-5" d="m454.1,277.52c-12.6,8.37-27.73,13.26-43.99,13.26s-30.82-4.7-43.28-12.78l1.92-9.05c12.06,7.34,26.21,11.58,41.35,11.58s29.87-4.4,42.06-12.02l1.92,9.04h0Z"/>
  <path class="cls-4" d="m374.09,193.57v14.74c0,3.99,1.62,7.61,4.24,10.22s6.23,4.24,10.24,4.24c5.74,0,10.7-3.34,13.04-8.19.68-1.43,1.14-2.99,1.33-4.63.07-.55.09-1.08.09-1.64v-14.74c0-.84-.07-1.69-.21-2.49-.6-3.41-2.38-6.39-4.91-8.53-1.73-1.46-3.79-2.52-6.06-3.05-1.06-.25-2.16-.37-3.29-.37-7.14,0-13.06,5.16-14.26,11.97-.14.81-.21,1.65-.21,2.49h0Zm10.54,2.28c0-1.81.63-3.46,1.67-4.77,1.41-1.75,3.56-2.88,5.99-2.88s4.57,1.14,5.97,2.88c1.06,1.31,1.68,2.96,1.68,4.77v10.18c0,2.1-.85,4.02-2.24,5.4-1.39,1.38-3.3,2.24-5.4,2.24-4.24,0-7.66-3.42-7.66-7.65v-10.18h0Z"/>
  <path class="cls-23" d="m416.53,219.53c0-2.58-4.68-11.23-4.68-11.23,0,0-4.68,8.63-4.68,11.23s2.1,4.68,4.68,4.68,4.68-2.1,4.68-4.68Z"/>
  <path class="cls-23" d="m410.98,238.85c-5.64,0-10.84-2.29-14.39-4.73-1.14-.78-1.33-2.4-.44-3.44l1.43-1.68-1.52,1.78.11-.12c.78-.92,2.1-1.08,3.09-.42,3.74,2.5,13,7.27,21.57.28.92-.76,2.26-.66,3.11.18h0c.99.99.88,2.61-.21,3.5-4.17,3.39-8.58,4.64-12.76,4.64v.02h0Z"/>
  <path class="cls-13" d="m425.9,138.62c-2.63,40.52-36.34,72.57-77.53,72.57-.58,0-1.16,0-1.73-.02,0,0-21.01.63-23.55-4.3,0,0,.48-.07,1.3-.23,11.58-2.33,20.58-11.21,23.67-22.61,7.41-27.3,32.37-47.38,62.03-47.38,5.46,0,10.75.68,15.8,1.96h0Z"/>
  <path class="cls-13" d="m474.09,194.77c-4.34,1.65-9.04,2.54-13.96,2.54-20.53,0-37.4-15.69-39.29-35.73,2.79-7.19,4.54-14.92,5.07-22.96,25.93,6.55,45.6,28.86,48.18,56.15h0Z"/>
  <path class="cls-13" d="m474.82,194.28s1.85,18.31-13.36,18.91c0,0,7.78,3.41,12.39,0s11.44-14.14.97-18.91h0Z"/>
  <path class="cls-20" d="m639.34,216.41v-20.44c0-15.26-12.48-27.75-27.75-27.75h-82.77c-15.26,0-27.75,12.48-27.75,27.75v20.44h0c-6.13,0-11.1,4.97-11.1,11.1s4.97,11.1,11.1,11.1h0v48.2h138.26v-48.2c6.13,0,11.1-4.97,11.1-11.1s-4.97-11.1-11.1-11.1h0Z"/>
  <path class="cls-17" d="m549.65,168.21l-48.58,48.19v-20.44c0-15.26,12.48-27.75,27.75-27.75h20.84Z"/>
  <path class="cls-17" d="m590.75,168.21l48.58,48.19v-20.44c0-15.26-12.48-27.75-27.75-27.75h-20.84Z"/>
  <rect class="cls-4" x="581.78" y="203.94" width="30.38" height="45.82" rx="15.18" ry="15.18"/>
  <rect class="cls-3" x="585.02" y="213.47" width="16.07" height="26.75" rx="8.03" ry="8.03"/>
  <rect class="cls-4" x="533.94" y="203.94" width="30.38" height="45.82" rx="15.18" ry="15.18"/>
  <path class="cls-17" d="m616.88,153.46c-4.13,1.73-8.66,1.81-12.65,1.27-5.48-.74-10.54-3.17-14.82-6.64-9.16-7.44-21.73-10.37-33.89-6.72-19.51,5.85-30.59,26.42-24.73,45.93,5.85,19.51,26.42,30.59,45.93,24.73,0,0,40.36-14.08,40.15-58.57h0Z"/>
  <path class="cls-9" d="m579.74,248.78c0-3.71-6.71-14.2-6.71-14.2,0,0-6.71,10.49-6.71,14.2s3,6.71,6.71,6.71,6.71-3,6.71-6.71Z"/>
  <path class="cls-3" d="m553.04,213.47h0c4.43,0,8.03,3.6,8.03,8.03v10.68c0,4.43-3.6,8.03-8.03,8.03h0c-4.43,0-8.03-3.6-8.03-8.03v-10.68c0-4.43,3.6-8.03,8.03-8.03Z"/>
  <path class="cls-9" d="m577.62,270.82c-2.4,0-4.67-.25-6.65-.66-1.36-.28-2.21-1.65-1.81-2.99v-.02c.35-1.15,1.51-1.87,2.69-1.65,5.21,1,18.81,2.21,24.65-10.78.5-1.1,1.77-1.62,2.91-1.22h0c1.31.46,1.93,1.94,1.35,3.2-4.97,10.99-14.84,14.1-23.15,14.1h0Z"/>
  <path class="cls-11" d="m649.73,299.27c0-6.29-4.54-11.53-10.39-12.36v-.13h-138.26v.13c-5.84.83-10.39,6.06-10.39,12.36s4.54,11.53,10.39,12.36v118.97h138.26v-118.97c5.84-.83,10.39-6.06,10.39-12.36h0Z"/>
  <path class="cls-4" d="m552.24,310.61h0c2.54,0,4.59,2.06,4.59,4.59v27.99c0,2.54-2.06,4.59-4.59,4.59h0c-2.54,0-4.59-2.06-4.59-4.59v-27.99c0-2.54,2.06-4.59,4.59-4.59Z"/>
  <rect class="cls-4" x="584.14" y="310.61" width="9.2" height="37.19" rx="4.59" ry="4.59"/>
</svg>