<?xml version="1.0" encoding="UTF-8"?>
<svg id="Camada_1" data-name="Camada 1" xmlns="http://www.w3.org/2000/svg" xmlns:xlink="http://www.w3.org/1999/xlink" viewBox="0 0 69.43 86.93">
  <defs>
    <style>
      .cls-1 {
        fill: #c48e76;
      }

      .cls-2 {
        fill: #d2987e;
      }

      .cls-3 {
        fill: #d3987e;
      }

      .cls-4 {
        fill: #cf967c;
      }

      .cls-5 {
        fill: #d0967d;
      }

      .cls-6 {
        fill: #d1977d;
      }

      .cls-7 {
        fill: #d79b81;
      }

      .cls-8 {
        fill: #ce957b;
      }

      .cls-9 {
        fill: #c28d75;
      }

      .cls-10 {
        fill: #d69b80;
      }

      .cls-11 {
        fill: #c69077;
      }

      .cls-12 {
        fill: #ce957c;
      }

      .cls-13 {
        fill: #cc947a;
      }

      .cls-14 {
        fill: #c99279;
      }

      .cls-15 {
        fill: #d4997f;
      }

      .cls-16 {
        fill: url(#Gradiente_sem_nome_8);
      }

      .cls-17 {
        fill: #d59a80;
      }

      .cls-18 {
        fill: #c18c74;
      }

      .cls-19 {
        fill: #193e1e;
      }

      .cls-20 {
        fill: #c38d75;
      }

      .cls-21 {
        fill: #432918;
      }

      .cls-22 {
        fill: #c38e75;
      }

      .cls-23 {
        fill: #cb937a;
      }

      .cls-24 {
        fill: #ca9279;
      }

      .cls-25 {
        fill: #c58f77;
      }

      .cls-26 {
        fill: #d69a80;
      }

      .cls-27 {
        fill: #c79078;
      }

      .cls-28 {
        fill: #c89178;
      }

      .cls-29 {
        fill: #c38e76;
      }

      .cls-30 {
        fill: #d59a7f;
      }

      .cls-31 {
        fill: #cc947b;
      }

      .cls-32 {
        fill: #cd947b;
      }

      .cls-33 {
        fill: #1d1d1b;
      }

      .cls-34 {
        fill: #063;
      }

      .cls-35 {
        fill: #c58f76;
      }
    </style>
    <linearGradient id="Gradiente_sem_nome_8" data-name="Gradiente sem nome 8" x1="35.3" y1="49.26" x2="35.3" y2="0" gradientTransform="translate(10.67 59.93) rotate(-90)" gradientUnits="userSpaceOnUse">
      <stop offset="0" stop-color="#d1977d"/>
      <stop offset=".06" stop-color="#bf8970"/>
      <stop offset=".19" stop-color="#996b55"/>
      <stop offset=".33" stop-color="#79533f"/>
      <stop offset=".48" stop-color="#61402d"/>
      <stop offset=".63" stop-color="#503321"/>
      <stop offset=".8" stop-color="#462b1a"/>
      <stop offset="1" stop-color="#432918"/>
    </linearGradient>
  </defs>
  <rect class="cls-33" x="42.8" y="67.48" width="8.17" height="19.06" rx="4.09" ry="4.09"/>
  <rect class="cls-33" x="19.68" y="67.87" width="8.17" height="19.06" rx="4.09" ry="4.09"/>
  <rect class="cls-21" x="11.85" y="59.28" width="46.98" height="24.85" rx="12" ry="12"/>
  <g>
    <rect class="cls-19" x="11.84" y="56.55" width="46.98" height="24.85" rx="12" ry="12"/>
    <rect class="cls-19" x="11.84" y="56.49" width="46.98" height="24.85" rx="12" ry="12"/>
    <rect class="cls-19" x="11.84" y="56.44" width="46.98" height="24.85" rx="12" ry="12"/>
    <rect class="cls-19" x="11.84" y="56.38" width="46.98" height="24.85" rx="12" ry="12"/>
    <rect class="cls-19" x="11.84" y="56.32" width="46.98" height="24.85" rx="12" ry="12"/>
    <rect class="cls-19" x="11.84" y="56.27" width="46.98" height="24.85" rx="12" ry="12"/>
    <rect class="cls-19" x="11.84" y="56.21" width="46.98" height="24.85" rx="12" ry="12"/>
    <rect class="cls-19" x="11.84" y="56.16" width="46.98" height="24.85" rx="12" ry="12"/>
    <rect class="cls-19" x="11.84" y="56.1" width="46.98" height="24.85" rx="12" ry="12"/>
    <rect class="cls-19" x="11.84" y="56.05" width="46.98" height="24.85" rx="12" ry="12"/>
    <rect class="cls-19" x="11.84" y="55.99" width="46.98" height="24.85" rx="12" ry="12"/>
    <rect class="cls-19" x="11.84" y="55.94" width="46.98" height="24.85" rx="12" ry="12"/>
    <rect class="cls-19" x="11.84" y="55.88" width="46.98" height="24.85" rx="12" ry="12"/>
    <rect class="cls-19" x="11.84" y="55.83" width="46.98" height="24.85" rx="12" ry="12"/>
    <rect class="cls-19" x="11.84" y="55.77" width="46.98" height="24.85" rx="12" ry="12"/>
    <rect class="cls-19" x="11.84" y="55.72" width="46.98" height="24.85" rx="12" ry="12"/>
    <rect class="cls-19" x="11.84" y="55.66" width="46.98" height="24.85" rx="12" ry="12"/>
    <rect class="cls-19" x="11.84" y="55.61" width="46.98" height="24.85" rx="12" ry="12"/>
    <rect class="cls-19" x="11.84" y="55.55" width="46.98" height="24.85" rx="12" ry="12"/>
    <rect class="cls-19" x="11.84" y="55.5" width="46.98" height="24.85" rx="12" ry="12"/>
    <rect class="cls-19" x="11.84" y="55.44" width="46.98" height="24.85" rx="12" ry="12"/>
    <rect class="cls-19" x="11.84" y="55.39" width="46.98" height="24.85" rx="12" ry="12"/>
    <rect class="cls-19" x="11.84" y="55.33" width="46.98" height="24.85" rx="12" ry="12"/>
    <rect class="cls-19" x="11.84" y="55.27" width="46.98" height="24.85" rx="12" ry="12"/>
    <rect class="cls-19" x="11.84" y="55.22" width="46.98" height="24.85" rx="12" ry="12"/>
    <rect class="cls-19" x="11.84" y="55.16" width="46.98" height="24.85" rx="12" ry="12"/>
    <rect class="cls-19" x="11.84" y="55.11" width="46.98" height="24.85" rx="12" ry="12"/>
    <rect class="cls-19" x="11.84" y="55.05" width="46.98" height="24.85" rx="12" ry="12"/>
    <rect class="cls-19" x="11.84" y="55" width="46.98" height="24.85" rx="12" ry="12"/>
    <rect class="cls-19" x="11.84" y="54.94" width="46.98" height="24.85" rx="12" ry="12"/>
    <rect class="cls-19" x="11.84" y="54.89" width="46.98" height="24.85" rx="12" ry="12"/>
    <rect class="cls-19" x="11.84" y="54.83" width="46.98" height="24.85" rx="12" ry="12"/>
    <rect class="cls-19" x="11.84" y="54.78" width="46.98" height="24.85" rx="12" ry="12"/>
    <rect class="cls-19" x="11.84" y="54.72" width="46.98" height="24.85" rx="12" ry="12"/>
    <rect class="cls-19" x="11.84" y="54.67" width="46.98" height="24.85" rx="12" ry="12"/>
    <rect class="cls-19" x="11.84" y="54.61" width="46.98" height="24.85" rx="12" ry="12"/>
    <rect class="cls-19" x="11.84" y="54.56" width="46.98" height="24.85" rx="12" ry="12"/>
    <rect class="cls-19" x="11.84" y="54.5" width="46.98" height="24.85" rx="12" ry="12"/>
    <rect class="cls-19" x="11.84" y="54.45" width="46.98" height="24.85" rx="12" ry="12"/>
    <rect class="cls-19" x="11.84" y="54.39" width="46.98" height="24.85" rx="12" ry="12"/>
    <rect class="cls-19" x="11.84" y="54.34" width="46.98" height="24.85" rx="12" ry="12"/>
    <rect class="cls-19" x="11.84" y="54.28" width="46.98" height="24.85" rx="12" ry="12"/>
    <rect class="cls-19" x="11.84" y="54.22" width="46.98" height="24.85" rx="12" ry="12"/>
    <rect class="cls-19" x="11.84" y="54.17" width="46.98" height="24.85" rx="12" ry="12"/>
    <rect class="cls-19" x="11.84" y="54.11" width="46.98" height="24.85" rx="12" ry="12"/>
    <rect class="cls-19" x="11.84" y="54.06" width="46.98" height="24.85" rx="12" ry="12"/>
    <rect class="cls-19" x="11.84" y="54" width="46.98" height="24.85" rx="12" ry="12"/>
    <rect class="cls-19" x="11.84" y="53.95" width="46.98" height="24.85" rx="12" ry="12"/>
    <rect class="cls-19" x="11.84" y="53.89" width="46.98" height="24.85" rx="12" ry="12"/>
    <rect class="cls-19" x="11.84" y="53.84" width="46.98" height="24.85" rx="12" ry="12"/>
    <rect class="cls-19" x="11.84" y="53.78" width="46.98" height="24.85" rx="12" ry="12"/>
    <rect class="cls-19" x="11.84" y="53.73" width="46.98" height="24.85" rx="12" ry="12"/>
    <rect class="cls-19" x="11.84" y="53.67" width="46.98" height="24.85" rx="12" ry="12"/>
    <rect class="cls-19" x="11.84" y="53.62" width="46.98" height="24.85" rx="12" ry="12"/>
    <rect class="cls-19" x="11.84" y="53.56" width="46.98" height="24.85" rx="12" ry="12"/>
    <rect class="cls-19" x="11.84" y="53.51" width="46.98" height="24.85" rx="12" ry="12"/>
    <rect class="cls-19" x="11.84" y="53.45" width="46.98" height="24.85" rx="12" ry="12"/>
    <rect class="cls-19" x="11.84" y="53.4" width="46.98" height="24.85" rx="12" ry="12"/>
    <rect class="cls-19" x="11.84" y="53.34" width="46.98" height="24.85" rx="12" ry="12"/>
    <rect class="cls-19" x="11.84" y="53.28" width="46.98" height="24.85" rx="12" ry="12"/>
    <rect class="cls-19" x="11.84" y="53.23" width="46.98" height="24.85" rx="12" ry="12"/>
    <rect class="cls-19" x="11.84" y="53.17" width="46.98" height="24.85" rx="12" ry="12"/>
    <rect class="cls-19" x="11.84" y="53.12" width="46.98" height="24.85" rx="12" ry="12"/>
    <rect class="cls-19" x="11.84" y="53.06" width="46.98" height="24.85" rx="12" ry="12"/>
    <rect class="cls-19" x="11.84" y="53.01" width="46.98" height="24.85" rx="12" ry="12"/>
    <rect class="cls-19" x="11.84" y="52.95" width="46.98" height="24.85" rx="12" ry="12"/>
    <rect class="cls-19" x="11.84" y="52.9" width="46.98" height="24.85" rx="12" ry="12"/>
    <rect class="cls-19" x="11.84" y="52.84" width="46.98" height="24.85" rx="12" ry="12"/>
    <rect class="cls-19" x="11.84" y="52.79" width="46.98" height="24.85" rx="12" ry="12"/>
    <rect class="cls-19" x="11.84" y="52.73" width="46.98" height="24.85" rx="12" ry="12"/>
    <rect class="cls-19" x="11.84" y="52.68" width="46.98" height="24.85" rx="12" ry="12"/>
    <rect class="cls-19" x="11.84" y="52.62" width="46.98" height="24.85" rx="12" ry="12"/>
    <rect class="cls-19" x="11.84" y="52.57" width="46.98" height="24.85" rx="12" ry="12"/>
    <rect class="cls-19" x="11.84" y="52.51" width="46.98" height="24.85" rx="12" ry="12"/>
    <rect class="cls-19" x="11.84" y="52.46" width="46.98" height="24.85" rx="12" ry="12"/>
    <rect class="cls-19" x="11.84" y="52.4" width="46.98" height="24.85" rx="12" ry="12"/>
    <rect class="cls-19" x="11.84" y="52.35" width="46.98" height="24.85" rx="12" ry="12"/>
    <rect class="cls-19" x="11.84" y="52.29" width="46.98" height="24.85" rx="12" ry="12"/>
    <rect class="cls-19" x="11.84" y="52.23" width="46.98" height="24.85" rx="12" ry="12"/>
    <rect class="cls-19" x="11.84" y="52.18" width="46.98" height="24.85" rx="12" ry="12"/>
    <rect class="cls-19" x="11.84" y="52.12" width="46.98" height="24.85" rx="12" ry="12"/>
    <rect class="cls-19" x="11.84" y="52.07" width="46.98" height="24.85" rx="12" ry="12"/>
    <rect class="cls-19" x="11.84" y="52.01" width="46.98" height="24.85" rx="12" ry="12"/>
    <rect class="cls-19" x="11.84" y="51.96" width="46.98" height="24.85" rx="12" ry="12"/>
    <rect class="cls-19" x="11.84" y="51.9" width="46.98" height="24.85" rx="12" ry="12"/>
    <rect class="cls-19" x="11.84" y="51.85" width="46.98" height="24.85" rx="12" ry="12"/>
    <rect class="cls-19" x="11.84" y="51.79" width="46.98" height="24.85" rx="12" ry="12"/>
    <rect class="cls-19" x="11.84" y="51.74" width="46.98" height="24.85" rx="12" ry="12"/>
    <rect class="cls-19" x="11.84" y="51.68" width="46.98" height="24.85" rx="12" ry="12"/>
    <rect class="cls-19" x="11.84" y="51.63" width="46.98" height="24.85" rx="12" ry="12"/>
    <rect class="cls-19" x="11.84" y="51.57" width="46.98" height="24.85" rx="12" ry="12"/>
    <rect class="cls-19" x="11.84" y="51.52" width="46.98" height="24.85" rx="12" ry="12"/>
    <rect class="cls-19" x="11.84" y="51.46" width="46.98" height="24.85" rx="12" ry="12"/>
    <rect class="cls-19" x="11.84" y="51.41" width="46.98" height="24.85" rx="12" ry="12"/>
    <rect class="cls-19" x="11.84" y="51.35" width="46.98" height="24.85" rx="12" ry="12"/>
    <rect class="cls-19" x="11.84" y="51.3" width="46.98" height="24.85" rx="12" ry="12"/>
    <rect class="cls-19" x="11.84" y="51.24" width="46.98" height="24.85" rx="12" ry="12"/>
    <rect class="cls-19" x="11.84" y="51.18" width="46.98" height="24.85" rx="12" ry="12"/>
    <rect class="cls-19" x="11.84" y="51.13" width="46.98" height="24.85" rx="12" ry="12"/>
    <rect class="cls-19" x="11.84" y="51.07" width="46.98" height="24.85" rx="12" ry="12"/>
    <rect class="cls-19" x="11.84" y="51.02" width="46.98" height="24.85" rx="12" ry="12"/>
    <rect class="cls-19" x="11.84" y="50.96" width="46.98" height="24.85" rx="12" ry="12"/>
    <rect class="cls-19" x="11.84" y="50.91" width="46.98" height="24.85" rx="12" ry="12"/>
    <rect class="cls-19" x="11.84" y="50.85" width="46.98" height="24.85" rx="12" ry="12"/>
    <rect class="cls-19" x="11.84" y="50.8" width="46.98" height="24.85" rx="12" ry="12"/>
    <rect class="cls-19" x="11.84" y="50.74" width="46.98" height="24.85" rx="12" ry="12"/>
    <rect class="cls-19" x="11.84" y="50.69" width="46.98" height="24.85" rx="12" ry="12"/>
    <rect class="cls-19" x="11.84" y="50.63" width="46.98" height="24.85" rx="12" ry="12"/>
    <rect class="cls-19" x="11.84" y="50.58" width="46.98" height="24.85" rx="12" ry="12"/>
    <rect class="cls-19" x="11.84" y="50.52" width="46.98" height="24.85" rx="12" ry="12"/>
    <rect class="cls-19" x="11.84" y="50.47" width="46.98" height="24.85" rx="12" ry="12"/>
    <rect class="cls-19" x="11.84" y="50.41" width="46.98" height="24.85" rx="12" ry="12"/>
    <rect class="cls-19" x="11.84" y="50.36" width="46.98" height="24.85" rx="12" ry="12"/>
    <rect class="cls-19" x="11.84" y="50.3" width="46.98" height="24.85" rx="12" ry="12"/>
    <rect class="cls-19" x="11.84" y="50.24" width="46.98" height="24.85" rx="12" ry="12"/>
    <rect class="cls-19" x="11.84" y="50.19" width="46.98" height="24.85" rx="12" ry="12"/>
    <rect class="cls-19" x="11.84" y="50.13" width="46.98" height="24.85" rx="12" ry="12"/>
    <rect class="cls-19" x="11.84" y="50.08" width="46.98" height="24.85" rx="12" ry="12"/>
    <rect class="cls-19" x="11.84" y="50.02" width="46.98" height="24.85" rx="12" ry="12"/>
    <rect class="cls-19" x="11.84" y="49.97" width="46.98" height="24.85" rx="12" ry="12"/>
    <rect class="cls-19" x="11.84" y="49.91" width="46.98" height="24.85" rx="12" ry="12"/>
    <rect class="cls-19" x="11.84" y="49.86" width="46.98" height="24.85" rx="12" ry="12"/>
    <rect class="cls-19" x="11.84" y="49.8" width="46.98" height="24.85" rx="12" ry="12"/>
    <rect class="cls-19" x="11.84" y="49.75" width="46.98" height="24.85" rx="12" ry="12"/>
    <rect class="cls-19" x="11.84" y="49.69" width="46.98" height="24.85" rx="12" ry="12"/>
    <rect class="cls-19" x="11.84" y="49.64" width="46.98" height="24.85" rx="12" ry="12"/>
    <rect class="cls-19" x="11.84" y="49.58" width="46.98" height="24.85" rx="12" ry="12"/>
    <rect class="cls-19" x="11.84" y="49.53" width="46.98" height="24.85" rx="12" ry="12"/>
    <rect class="cls-19" x="11.84" y="49.47" width="46.98" height="24.85" rx="12" ry="12"/>
    <rect class="cls-19" x="11.84" y="49.42" width="46.98" height="24.85" rx="12" ry="12"/>
    <rect class="cls-19" x="11.84" y="49.36" width="46.98" height="24.85" rx="12" ry="12"/>
    <rect class="cls-19" x="11.84" y="49.31" width="46.98" height="24.85" rx="12" ry="12"/>
    <rect class="cls-19" x="11.84" y="49.25" width="46.98" height="24.85" rx="12" ry="12"/>
    <rect class="cls-19" x="11.84" y="49.19" width="46.98" height="24.85" rx="12" ry="12"/>
    <rect class="cls-19" x="11.84" y="49.14" width="46.98" height="24.85" rx="12" ry="12"/>
    <rect class="cls-19" x="11.84" y="49.08" width="46.98" height="24.85" rx="12" ry="12"/>
    <rect class="cls-19" x="11.84" y="49.03" width="46.98" height="24.85" rx="12" ry="12"/>
    <rect class="cls-19" x="11.84" y="48.97" width="46.98" height="24.85" rx="12" ry="12"/>
    <rect class="cls-19" x="11.84" y="48.92" width="46.98" height="24.85" rx="12" ry="12"/>
    <rect class="cls-19" x="11.84" y="48.86" width="46.98" height="24.85" rx="12" ry="12"/>
    <rect class="cls-19" x="11.84" y="48.81" width="46.98" height="24.85" rx="12" ry="12"/>
    <rect class="cls-19" x="11.84" y="48.75" width="46.98" height="24.85" rx="12" ry="12"/>
    <rect class="cls-19" x="11.84" y="48.7" width="46.98" height="24.85" rx="12" ry="12"/>
    <rect class="cls-19" x="11.84" y="48.64" width="46.98" height="24.85" rx="12" ry="12"/>
    <rect class="cls-19" x="11.84" y="48.59" width="46.98" height="24.85" rx="12" ry="12"/>
    <rect class="cls-19" x="11.84" y="48.53" width="46.98" height="24.85" rx="12" ry="12"/>
    <rect class="cls-19" x="11.84" y="48.48" width="46.98" height="24.85" rx="12" ry="12"/>
    <rect class="cls-19" x="11.84" y="48.42" width="46.98" height="24.85" rx="12" ry="12"/>
    <rect class="cls-19" x="11.84" y="48.37" width="46.98" height="24.85" rx="12" ry="12"/>
    <rect class="cls-19" x="11.84" y="48.31" width="46.98" height="24.85" rx="12" ry="12"/>
    <rect class="cls-19" x="11.84" y="48.26" width="46.98" height="24.85" rx="12" ry="12"/>
    <rect class="cls-19" x="11.84" y="48.2" width="46.98" height="24.85" rx="12" ry="12"/>
    <rect class="cls-19" x="11.84" y="48.14" width="46.98" height="24.85" rx="12" ry="12"/>
    <rect class="cls-19" x="11.84" y="48.09" width="46.98" height="24.85" rx="12" ry="12"/>
    <rect class="cls-19" x="11.84" y="48.03" width="46.98" height="24.85" rx="12" ry="12"/>
    <rect class="cls-19" x="11.84" y="47.98" width="46.98" height="24.85" rx="12" ry="12"/>
    <rect class="cls-19" x="11.84" y="47.92" width="46.98" height="24.85" rx="12" ry="12"/>
    <rect class="cls-19" x="11.84" y="47.87" width="46.98" height="24.85" rx="12" ry="12"/>
    <rect class="cls-19" x="11.84" y="47.81" width="46.98" height="24.85" rx="12" ry="12"/>
    <rect class="cls-19" x="11.84" y="47.76" width="46.98" height="24.85" rx="12" ry="12"/>
    <rect class="cls-19" x="11.84" y="47.7" width="46.98" height="24.85" rx="12" ry="12"/>
    <rect class="cls-19" x="11.84" y="47.65" width="46.98" height="24.85" rx="12" ry="12"/>
    <rect class="cls-19" x="11.84" y="47.59" width="46.98" height="24.85" rx="12" ry="12"/>
    <rect class="cls-19" x="11.84" y="47.54" width="46.98" height="24.85" rx="12" ry="12"/>
    <rect class="cls-19" x="11.84" y="47.48" width="46.98" height="24.85" rx="12" ry="12"/>
    <rect class="cls-19" x="11.84" y="47.43" width="46.98" height="24.85" rx="12" ry="12"/>
    <rect class="cls-19" x="11.84" y="47.37" width="46.98" height="24.85" rx="12" ry="12"/>
    <rect class="cls-19" x="11.84" y="47.32" width="46.98" height="24.85" rx="12" ry="12"/>
    <rect class="cls-19" x="11.84" y="47.26" width="46.98" height="24.85" rx="12" ry="12"/>
    <rect class="cls-19" x="11.84" y="47.21" width="46.98" height="24.85" rx="12" ry="12"/>
    <rect class="cls-19" x="11.84" y="47.15" width="46.98" height="24.85" rx="12" ry="12"/>
    <rect class="cls-19" x="11.84" y="47.09" width="46.98" height="24.85" rx="12" ry="12"/>
    <rect class="cls-19" x="11.84" y="47.04" width="46.98" height="24.85" rx="12" ry="12"/>
    <rect class="cls-19" x="11.84" y="46.98" width="46.98" height="24.85" rx="12" ry="12"/>
    <rect class="cls-19" x="11.84" y="46.93" width="46.98" height="24.85" rx="12" ry="12"/>
    <rect class="cls-19" x="11.84" y="46.87" width="46.98" height="24.85" rx="12" ry="12"/>
    <rect class="cls-19" x="11.84" y="46.82" width="46.98" height="24.85" rx="12" ry="12"/>
    <rect class="cls-19" x="11.84" y="46.76" width="46.98" height="24.85" rx="12" ry="12"/>
    <rect class="cls-19" x="11.84" y="46.71" width="46.98" height="24.85" rx="12" ry="12"/>
    <rect class="cls-19" x="11.84" y="46.65" width="46.98" height="24.85" rx="12" ry="12"/>
    <rect class="cls-19" x="11.84" y="46.6" width="46.98" height="24.85" rx="12" ry="12"/>
    <rect class="cls-19" x="11.84" y="46.54" width="46.98" height="24.85" rx="12" ry="12"/>
    <rect class="cls-19" x="11.84" y="46.49" width="46.98" height="24.85" rx="12" ry="12"/>
    <rect class="cls-19" x="11.84" y="46.43" width="46.98" height="24.85" rx="12" ry="12"/>
    <rect class="cls-19" x="11.84" y="46.38" width="46.98" height="24.85" rx="12" ry="12"/>
    <rect class="cls-19" x="11.84" y="46.32" width="46.98" height="24.85" rx="12" ry="12"/>
    <rect class="cls-19" x="11.84" y="46.27" width="46.98" height="24.85" rx="12" ry="12"/>
    <rect class="cls-19" x="11.84" y="46.21" width="46.98" height="24.85" rx="12" ry="12"/>
    <rect class="cls-19" x="11.84" y="46.15" width="46.98" height="24.85" rx="12" ry="12"/>
    <rect class="cls-19" x="11.84" y="46.1" width="46.98" height="24.85" rx="12" ry="12"/>
    <rect class="cls-19" x="11.84" y="46.04" width="46.98" height="24.85" rx="12" ry="12"/>
    <rect class="cls-19" x="11.84" y="45.99" width="46.98" height="24.85" rx="12" ry="12"/>
    <rect class="cls-19" x="11.84" y="45.93" width="46.98" height="24.85" rx="12" ry="12"/>
    <rect class="cls-19" x="11.84" y="45.88" width="46.98" height="24.85" rx="12" ry="12"/>
    <rect class="cls-19" x="11.84" y="45.82" width="46.98" height="24.85" rx="12" ry="12"/>
    <rect class="cls-19" x="11.84" y="45.77" width="46.98" height="24.85" rx="12" ry="12"/>
    <rect class="cls-19" x="11.84" y="45.71" width="46.98" height="24.85" rx="12" ry="12"/>
    <rect class="cls-19" x="11.84" y="45.66" width="46.98" height="24.85" rx="12" ry="12"/>
    <rect class="cls-19" x="11.84" y="45.6" width="46.98" height="24.85" rx="12" ry="12"/>
    <rect class="cls-19" x="11.84" y="45.55" width="46.98" height="24.85" rx="12" ry="12"/>
    <rect class="cls-19" x="11.84" y="45.49" width="46.98" height="24.85" rx="12" ry="12"/>
    <rect class="cls-19" x="11.84" y="45.44" width="46.98" height="24.85" rx="12" ry="12"/>
    <rect class="cls-19" x="11.84" y="45.38" width="46.98" height="24.85" rx="12" ry="12"/>
    <rect class="cls-19" x="11.84" y="45.33" width="46.98" height="24.85" rx="12" ry="12"/>
    <rect class="cls-19" x="11.84" y="45.27" width="46.98" height="24.85" rx="12" ry="12"/>
    <rect class="cls-19" x="11.84" y="45.22" width="46.98" height="24.85" rx="12" ry="12"/>
    <rect class="cls-19" x="11.84" y="45.16" width="46.98" height="24.85" rx="12" ry="12"/>
    <rect class="cls-19" x="11.84" y="45.1" width="46.98" height="24.85" rx="12" ry="12"/>
    <rect class="cls-19" x="11.84" y="45.05" width="46.98" height="24.85" rx="12" ry="12"/>
    <rect class="cls-19" x="11.84" y="44.99" width="46.98" height="24.85" rx="12" ry="12"/>
    <rect class="cls-19" x="11.84" y="44.94" width="46.98" height="24.85" rx="12" ry="12"/>
    <rect class="cls-19" x="11.84" y="44.88" width="46.98" height="24.85" rx="12" ry="12"/>
    <rect class="cls-19" x="11.84" y="44.83" width="46.98" height="24.85" rx="12" ry="12"/>
    <rect class="cls-19" x="11.84" y="44.77" width="46.98" height="24.85" rx="12" ry="12"/>
    <rect class="cls-19" x="11.84" y="44.72" width="46.98" height="24.85" rx="12" ry="12"/>
    <rect class="cls-19" x="11.84" y="44.66" width="46.98" height="24.85" rx="12" ry="12"/>
    <rect class="cls-19" x="11.84" y="44.61" width="46.98" height="24.85" rx="12" ry="12"/>
    <rect class="cls-19" x="11.84" y="44.55" width="46.98" height="24.85" rx="12" ry="12"/>
    <rect class="cls-19" x="11.84" y="44.5" width="46.98" height="24.85" rx="12" ry="12"/>
    <rect class="cls-19" x="11.84" y="44.44" width="46.98" height="24.85" rx="12" ry="12"/>
    <rect class="cls-19" x="11.84" y="44.39" width="46.98" height="24.85" rx="12" ry="12"/>
    <rect class="cls-19" x="11.84" y="44.33" width="46.98" height="24.85" rx="12" ry="12"/>
    <rect class="cls-19" x="11.84" y="44.28" width="46.98" height="24.85" rx="12" ry="12"/>
    <rect class="cls-19" x="11.84" y="44.22" width="46.98" height="24.85" rx="12" ry="12"/>
    <rect class="cls-19" x="11.84" y="44.17" width="46.98" height="24.85" rx="12" ry="12"/>
    <rect class="cls-19" x="11.84" y="44.11" width="46.98" height="24.85" rx="12" ry="12"/>
    <rect class="cls-19" x="11.84" y="44.05" width="46.98" height="24.85" rx="12" ry="12"/>
    <rect class="cls-19" x="11.84" y="44" width="46.98" height="24.85" rx="12" ry="12"/>
    <rect class="cls-19" x="11.84" y="43.94" width="46.98" height="24.85" rx="12" ry="12"/>
    <rect class="cls-19" x="11.84" y="43.89" width="46.98" height="24.85" rx="12" ry="12"/>
    <rect class="cls-19" x="11.84" y="43.83" width="46.98" height="24.85" rx="12" ry="12"/>
    <rect class="cls-19" x="11.84" y="43.78" width="46.98" height="24.85" rx="12" ry="12"/>
    <rect class="cls-19" x="11.84" y="43.72" width="46.98" height="24.85" rx="12" ry="12"/>
    <rect class="cls-19" x="11.84" y="43.67" width="46.98" height="24.85" rx="12" ry="12"/>
    <rect class="cls-19" x="11.84" y="43.61" width="46.98" height="24.85" rx="12" ry="12"/>
    <rect class="cls-19" x="11.84" y="43.56" width="46.98" height="24.85" rx="12" ry="12"/>
    <rect class="cls-19" x="11.84" y="43.5" width="46.98" height="24.85" rx="12" ry="12"/>
    <rect class="cls-19" x="11.84" y="43.45" width="46.98" height="24.85" rx="12" ry="12"/>
    <rect class="cls-19" x="11.84" y="43.39" width="46.98" height="24.85" rx="12" ry="12"/>
    <rect class="cls-19" x="11.84" y="43.34" width="46.98" height="24.85" rx="12" ry="12"/>
    <rect class="cls-19" x="11.84" y="43.28" width="46.98" height="24.85" rx="12" ry="12"/>
    <rect class="cls-19" x="11.84" y="43.23" width="46.98" height="24.85" rx="12" ry="12"/>
    <rect class="cls-19" x="11.84" y="43.17" width="46.98" height="24.85" rx="12" ry="12"/>
    <rect class="cls-19" x="11.84" y="43.11" width="46.98" height="24.85" rx="12" ry="12"/>
    <rect class="cls-19" x="11.84" y="43.06" width="46.98" height="24.85" rx="12" ry="12"/>
    <rect class="cls-19" x="11.84" y="43" width="46.98" height="24.85" rx="12" ry="12"/>
    <rect class="cls-19" x="11.84" y="42.95" width="46.98" height="24.85" rx="12" ry="12"/>
    <rect class="cls-19" x="11.84" y="42.89" width="46.98" height="24.85" rx="12" ry="12"/>
    <rect class="cls-19" x="11.84" y="42.84" width="46.98" height="24.85" rx="12" ry="12"/>
    <rect class="cls-19" x="11.84" y="42.78" width="46.98" height="24.85" rx="12" ry="12"/>
    <rect class="cls-19" x="11.84" y="42.73" width="46.98" height="24.85" rx="12" ry="12"/>
    <rect class="cls-19" x="11.84" y="42.67" width="46.98" height="24.85" rx="12" ry="12"/>
    <rect class="cls-19" x="11.84" y="42.62" width="46.98" height="24.85" rx="12" ry="12"/>
    <rect class="cls-19" x="11.84" y="42.56" width="46.98" height="24.85" rx="12" ry="12"/>
    <rect class="cls-19" x="11.84" y="42.51" width="46.98" height="24.85" rx="12" ry="12"/>
    <rect class="cls-19" x="11.84" y="42.45" width="46.98" height="24.85" rx="12" ry="12"/>
    <rect class="cls-19" x="11.84" y="42.4" width="46.98" height="24.85" rx="12" ry="12"/>
    <rect class="cls-19" x="11.84" y="42.34" width="46.98" height="24.85" rx="12" ry="12"/>
    <rect class="cls-19" x="11.84" y="42.29" width="46.98" height="24.85" rx="12" ry="12"/>
    <rect class="cls-19" x="11.84" y="42.23" width="46.98" height="24.85" rx="12" ry="12"/>
    <rect class="cls-19" x="11.84" y="42.18" width="46.98" height="24.85" rx="12" ry="12"/>
    <rect class="cls-19" x="11.84" y="42.12" width="46.98" height="24.85" rx="12" ry="12"/>
    <rect class="cls-19" x="11.84" y="42.06" width="46.98" height="24.85" rx="12" ry="12"/>
    <rect class="cls-19" x="11.84" y="42.01" width="46.98" height="24.85" rx="12" ry="12"/>
    <rect class="cls-19" x="11.84" y="41.95" width="46.98" height="24.85" rx="12" ry="12"/>
    <rect class="cls-19" x="11.84" y="41.9" width="46.98" height="24.85" rx="12" ry="12"/>
    <rect class="cls-19" x="11.84" y="41.84" width="46.98" height="24.85" rx="12" ry="12"/>
    <rect class="cls-19" x="11.84" y="41.79" width="46.98" height="24.85" rx="12" ry="12"/>
    <rect class="cls-19" x="11.84" y="41.73" width="46.98" height="24.85" rx="12" ry="12"/>
    <rect class="cls-19" x="11.84" y="41.68" width="46.98" height="24.85" rx="12" ry="12"/>
    <rect class="cls-19" x="11.84" y="41.62" width="46.98" height="24.85" rx="12" ry="12"/>
    <rect class="cls-19" x="11.84" y="41.57" width="46.98" height="24.85" rx="12" ry="12"/>
    <rect class="cls-19" x="11.84" y="41.51" width="46.98" height="24.85" rx="12" ry="12"/>
    <rect class="cls-19" x="11.84" y="41.46" width="46.98" height="24.85" rx="12" ry="12"/>
    <rect class="cls-19" x="11.84" y="41.4" width="46.98" height="24.85" rx="12" ry="12"/>
    <rect class="cls-19" x="11.84" y="41.35" width="46.98" height="24.85" rx="12" ry="12"/>
    <rect class="cls-19" x="11.84" y="41.29" width="46.98" height="24.85" rx="12" ry="12"/>
    <rect class="cls-19" x="11.84" y="41.24" width="46.98" height="24.85" rx="12" ry="12"/>
    <rect class="cls-19" x="11.84" y="41.18" width="46.98" height="24.85" rx="12" ry="12"/>
    <rect class="cls-19" x="11.84" y="41.13" width="46.98" height="24.85" rx="12" ry="12"/>
    <rect class="cls-19" x="11.84" y="41.07" width="46.98" height="24.85" rx="12" ry="12"/>
    <rect class="cls-19" x="11.84" y="41.01" width="46.98" height="24.85" rx="12" ry="12"/>
    <rect class="cls-19" x="11.84" y="40.96" width="46.98" height="24.85" rx="12" ry="12"/>
    <rect class="cls-19" x="11.84" y="40.9" width="46.98" height="24.85" rx="12" ry="12"/>
    <rect class="cls-19" x="11.84" y="40.85" width="46.98" height="24.85" rx="12" ry="12"/>
    <rect class="cls-19" x="11.84" y="40.79" width="46.98" height="24.85" rx="12" ry="12"/>
    <rect class="cls-19" x="11.84" y="40.74" width="46.98" height="24.85" rx="12" ry="12"/>
    <rect class="cls-19" x="11.84" y="40.68" width="46.98" height="24.85" rx="12" ry="12"/>
    <rect class="cls-19" x="11.84" y="40.63" width="46.98" height="24.85" rx="12" ry="12"/>
    <rect class="cls-19" x="11.84" y="40.57" width="46.98" height="24.85" rx="12" ry="12"/>
    <rect class="cls-19" x="11.84" y="40.52" width="46.98" height="24.85" rx="12" ry="12"/>
    <rect class="cls-19" x="11.84" y="40.46" width="46.98" height="24.85" rx="12" ry="12"/>
    <rect class="cls-19" x="11.84" y="40.41" width="46.98" height="24.85" rx="12" ry="12"/>
    <rect class="cls-19" x="11.84" y="40.35" width="46.98" height="24.85" rx="12" ry="12"/>
    <rect class="cls-19" x="11.84" y="40.3" width="46.98" height="24.85" rx="12" ry="12"/>
    <rect class="cls-19" x="11.84" y="40.24" width="46.98" height="24.85" rx="12" ry="12"/>
    <rect class="cls-19" x="11.84" y="40.19" width="46.98" height="24.85" rx="12" ry="12"/>
    <rect class="cls-19" x="11.84" y="40.13" width="46.98" height="24.85" rx="12" ry="12"/>
    <rect class="cls-19" x="11.84" y="40.07" width="46.98" height="24.85" rx="12" ry="12"/>
    <rect class="cls-19" x="11.84" y="40.02" width="46.98" height="24.85" rx="12" ry="12"/>
    <rect class="cls-19" x="11.84" y="39.96" width="46.98" height="24.85" rx="12" ry="12"/>
    <rect class="cls-19" x="11.84" y="39.91" width="46.98" height="24.85" rx="12" ry="12"/>
  </g>
  <path class="cls-20" d="m30.21,18.13c-1.16-2.12-3.74-3.6-6.72-3.6h.97c2.52,0,4.71,1.47,5.75,3.6Z"/>
  <path class="cls-20" d="m23.49,14.53c-2.95,0-5.5,1.45-6.68,3.53,1.05-2.09,3.22-3.53,5.72-3.53h.96Z"/>
  <path class="cls-20" d="m47.17,14.53c-3,0-5.59,1.51-6.74,3.65,1.03-2.15,3.24-3.65,5.78-3.65h.96Z"/>
  <path class="cls-20" d="m53.84,18.03c-1.18-2.06-3.73-3.5-6.67-3.5h.97c2.48,0,4.65,1.43,5.7,3.5Z"/>
  <path class="cls-20" d="m54.55,20.61h-14.74s0-.06.01-.08c-.01-.06,0-.12.01-.18-.01-.03-.01-.06,0-.08.04-.61.19-1.2.44-1.75.05-.11.1-.22.16-.34,1.15-2.14,3.74-3.65,6.74-3.65s5.49,1.44,6.67,3.5c.45.78.7,1.66.71,2.58Z"/>
  <rect class="cls-34" x="11.85" y="38.48" width="46.98" height="24.85" rx="12" ry="12"/>
  <g>
    <path class="cls-18" d="m53.04,4.42H17.61c-6.6,0-12,5.4-12,12v22.2c0,11.36,9.3,20.66,20.66,20.66h18.11c11.36,0,20.66-9.3,20.66-20.66v-22.2c0-6.6-5.4-12-12-12Z"/>
    <path class="cls-9" d="m17.29,4.61c0-.17,8.84-.31,9.02-.31h17.8c.18,0,9.26.15,9.26.32,6.42,0,11.68,5.53,11.68,11.95v21.92c0,11.36-9.3,20.66-20.66,20.66h-18.11c-11.36,0-20.66-9.3-20.66-20.66v-21.93c0-6.13,4.79-11.47,10.81-11.91.28-.03.57-.04.86-.04Z"/>
    <path class="cls-9" d="m16.96,4.8c.01-.34,8.75-.62,9.1-.62h18.29c.36,0,9.34.29,9.34.65,6.24,0,11.35,5.66,11.35,11.9v21.64c0,11.36-9.3,20.66-20.66,20.66h-18.11c-11.36,0-20.66-9.3-20.66-20.66v-21.66c0-5.96,4.66-11.43,10.51-11.86.28-.03.56-.05.84-.06Z"/>
    <path class="cls-22" d="m16.64,5c.02-.52,8.66-.93,9.18-.93h18.78c.54,0,9.41.44,9.41.97,6.06,0,11.03,5.79,11.03,11.86v21.37c0,11.36-9.3,20.66-20.66,20.66h-18.11c-11.36,0-20.66-9.3-20.66-20.66v-21.39c0-5.79,4.52-11.39,10.21-11.81.27-.03.54-.06.81-.07Z"/>
    <path class="cls-29" d="m16.32,5.19c.03-.69,8.57-1.25,9.26-1.25h19.27c.71,0,9.49.58,9.49,1.3,5.89,0,10.7,5.92,10.7,11.81v21.09c0,11.36-9.3,20.66-20.66,20.66h-18.11c-11.36,0-20.66-9.3-20.66-20.66v-21.12c0-5.62,4.39-11.34,9.91-11.75.26-.04.52-.06.79-.08Z"/>
    <path class="cls-1" d="m15.99,5.38c.03-.86,8.47-1.56,9.34-1.56h19.76c.89,0,9.57.73,9.57,1.62,5.71,0,10.38,6.05,10.38,11.76v20.81c0,11.36-9.3,20.66-20.66,20.66h-18.11c-11.36,0-20.66-9.3-20.66-20.66v-20.85c0-5.45,4.26-11.3,9.61-11.7.25-.04.51-.07.77-.09Z"/>
    <path class="cls-35" d="m15.67,5.57c.04-1.03,8.38-1.87,9.43-1.87h20.25c1.07,0,9.64.88,9.64,1.95,5.53,0,10.05,6.18,10.05,11.71v20.54c0,11.36-9.3,20.66-20.66,20.66h-18.11c-11.36,0-20.66-9.3-20.66-20.66v-20.58c0-5.28,4.13-11.26,9.31-11.64.24-.04.49-.08.74-.1Z"/>
    <path class="cls-25" d="m15.35,5.77c.05-1.21,8.29-2.18,9.51-2.18h20.74c1.25,0,9.72,1.02,9.72,2.27,5.35,0,9.73,6.31,9.73,11.66v20.26c0,11.36-9.3,20.66-20.66,20.66h-18.11c-11.36,0-20.66-9.3-20.66-20.66v-20.31c0-5.11,3.99-11.22,9.01-11.59.24-.05.48-.09.72-.12Z"/>
    <path class="cls-11" d="m15.02,5.96c.05-1.38,8.2-2.49,9.59-2.49h21.23c1.43,0,9.79,1.17,9.79,2.59,5.17,0,9.41,6.44,9.41,11.62v19.98c0,11.36-9.3,20.66-20.66,20.66h-18.11c-11.36,0-20.66-9.3-20.66-20.66v-20.04c0-4.94,3.86-11.18,8.71-11.54.23-.05.46-.09.7-.13Z"/>
    <path class="cls-11" d="m14.7,6.15c.06-1.55,8.11-2.8,9.67-2.8h21.72c1.61,0,9.87,1.31,9.87,2.92,4.99,0,9.08,6.57,9.08,11.57v19.71c0,11.36-9.3,20.66-20.66,20.66h-18.11c-11.36,0-20.66-9.3-20.66-20.66v-19.77c0-4.77,3.73-11.14,8.41-11.48.22-.06.44-.1.67-.14Z"/>
    <path class="cls-27" d="m14.37,6.34c.06-1.72,8.02-3.12,9.76-3.12h22.21c1.78,0,9.95,1.46,9.95,3.24,4.82,0,8.76,6.7,8.76,11.52v19.43c0,11.36-9.3,20.66-20.66,20.66h-18.11c-11.36,0-20.66-9.3-20.66-20.66v-19.5c0-4.6,3.59-11.09,8.11-11.43.21-.06.43-.11.65-.15Z"/>
    <path class="cls-28" d="m14.05,6.53c.07-1.9,7.92-3.43,9.84-3.43h22.7c1.96,0,10.02,1.61,10.02,3.57,4.64,0,8.43,6.83,8.43,11.47v19.15c0,11.36-9.3,20.66-20.66,20.66h-18.11c-11.36,0-20.66-9.3-20.66-20.66v-19.23c0-4.43,3.46-11.05,7.81-11.37.21-.06.41-.12.63-.16Z"/>
    <path class="cls-28" d="m13.73,6.73c.08-2.07,7.83-3.74,9.92-3.74h23.19c2.14,0,10.1,1.75,10.1,3.89,4.46,0,8.11,6.96,8.11,11.42v18.88c0,11.36-9.3,20.66-20.66,20.66h-18.11c-11.36,0-20.66-9.3-20.66-20.66v-18.96c0-4.26,3.33-11.01,7.51-11.32.2-.07.4-.12.6-.17Z"/>
    <path class="cls-14" d="m13.4,6.92c.08-2.24,7.74-4.05,10-4.05h23.68c2.32,0,10.17,1.9,10.17,4.22,4.28,0,7.78,7.09,7.78,11.38v18.6c0,11.36-9.3,20.66-20.66,20.66h-18.11c-11.36,0-20.66-9.3-20.66-20.66v-18.69c0-4.09,3.19-10.97,7.21-11.27.19-.07.38-.13.58-.19Z"/>
    <path class="cls-14" d="m13.08,7.11c.09-2.41,7.65-4.36,10.09-4.36h24.17c2.5,0,10.25,2.04,10.25,4.54,4.1,0,7.46,7.22,7.46,11.33v18.32c0,11.36-9.3,20.66-20.66,20.66h-18.11c-11.36,0-20.66-9.3-20.66-20.66v-18.42c0-3.92,3.06-10.93,6.91-11.21.18-.07.37-.14.56-.2Z"/>
    <path class="cls-24" d="m12.76,7.3c.1-2.59,7.56-4.67,10.17-4.67h24.66c2.68,0,10.33,2.19,10.33,4.86,3.92,0,7.14,7.36,7.14,11.28v18.05c0,11.36-9.3,20.66-20.66,20.66h-18.11c-11.36,0-20.66-9.3-20.66-20.66v-18.15c0-3.75,2.93-10.89,6.61-11.16.17-.08.35-.15.53-.21Z"/>
    <path class="cls-23" d="m12.43,7.49c.1-2.76,7.47-4.99,10.25-4.99h25.15c2.85,0,10.4,2.34,10.4,5.19,3.75,0,6.81,7.49,6.81,11.23v17.77c0,11.36-9.3,20.66-20.66,20.66h-18.11c-11.36,0-20.66-9.3-20.66-20.66v-17.88c0-3.58,2.79-10.84,6.31-11.1.17-.08.33-.15.51-.22Z"/>
    <path class="cls-23" d="m12.11,7.69c.11-2.93,7.37-5.3,10.33-5.3h25.64c3.03,0,10.48,2.48,10.48,5.51,3.57,0,6.49,7.62,6.49,11.18v17.5c0,11.36-9.3,20.66-20.66,20.66h-18.11c-11.36,0-20.66-9.3-20.66-20.66v-17.61c0-3.41,2.66-10.8,6.01-11.05.16-.09.32-.16.49-.23Z"/>
    <path class="cls-13" d="m11.78,7.88c.12-3.1,7.28-5.61,10.42-5.61h26.12c3.21,0,10.55,2.63,10.55,5.84,3.39,0,6.16,7.75,6.16,11.14v17.22c0,11.36-9.3,20.66-20.66,20.66h-18.11c-11.36,0-20.66-9.3-20.66-20.66v-17.34c0-3.24,2.53-10.76,5.71-11,.15-.09.3-.17.46-.25Z"/>
    <path class="cls-31" d="m11.46,8.07c.12-3.28,7.19-5.92,10.5-5.92h26.61c3.39,0,10.63,2.77,10.63,6.16,3.21,0,5.84,7.88,5.84,11.09v16.94c0,11.36-9.3,20.66-20.66,20.66h-18.11c-11.36,0-20.66-9.3-20.66-20.66v-17.07c0-3.07,2.4-10.72,5.41-10.94.14-.09.29-.18.44-.26Z"/>
    <path class="cls-32" d="m11.14,8.26c.13-3.45,7.1-6.23,10.58-6.23h27.1c3.57,0,10.71,2.92,10.71,6.49,3.03,0,5.51,8.01,5.51,11.04v16.67c0,11.36-9.3,20.66-20.66,20.66h-18.11c-11.36,0-20.66-9.3-20.66-20.66v-16.8c0-2.9,2.26-10.68,5.11-10.89.13-.1.27-.18.42-.27Z"/>
    <path class="cls-8" d="m10.81,8.46c.14-3.62,7.01-6.54,10.66-6.54h27.59c3.75,0,10.78,3.06,10.78,6.81,2.85,0,5.19,8.14,5.19,10.99v16.39c0,11.36-9.3,20.66-20.66,20.66h-18.11c-11.36,0-20.66-9.3-20.66-20.66v-16.53c0-2.73,2.13-10.64,4.81-10.83.13-.1.25-.19.39-.28Z"/>
    <path class="cls-12" d="m10.49,8.65c.14-3.79,6.92-6.86,10.74-6.86h28.08c3.92,0,10.86,3.21,10.86,7.14,2.68,0,4.86,8.27,4.86,10.94v16.11c0,11.36-9.3,20.66-20.66,20.66h-18.11c-11.36,0-20.66-9.3-20.66-20.66v-16.26c0-2.56,2-10.59,4.51-10.78.12-.1.24-.2.37-.29Z"/>
    <path class="cls-4" d="m10.16,8.84c.15-3.97,6.82-7.17,10.83-7.17h28.57c4.1,0,10.94,3.36,10.94,7.46,2.5,0,4.54,8.4,4.54,10.9v15.84c0,11.36-9.3,20.66-20.66,20.66h-18.11c-11.36,0-20.66-9.3-20.66-20.66v-15.99c0-2.38,1.86-10.55,4.21-10.73.11-.11.22-.21.35-.3Z"/>
    <path class="cls-4" d="m9.84,9.03c.16-4.14,6.73-7.48,10.91-7.48h29.06c4.28,0,11.01,3.5,11.01,7.78,2.32,0,4.22,8.53,4.22,10.85v15.56c0,11.36-9.3,20.66-20.66,20.66h-18.11c-11.36,0-20.66-9.3-20.66-20.66v-15.72c0-2.21,1.73-10.51,3.91-10.67.1-.11.21-.21.32-.32Z"/>
    <path class="cls-5" d="m9.52,9.22c.16-4.31,6.64-7.79,10.99-7.79h29.55c4.46,0,11.09,3.65,11.09,8.11,2.14,0,3.89,8.66,3.89,10.8v15.28c0,11.36-9.3,20.66-20.66,20.66h-18.11c-11.36,0-20.66-9.3-20.66-20.66v-15.45c0-2.04,1.6-10.47,3.6-10.62.09-.12.19-.22.3-.33Z"/>
    <path class="cls-6" d="m9.19,9.42c.17-4.48,6.55-8.1,11.07-8.1h30.04c4.64,0,11.16,3.79,11.16,8.43,1.96,0,3.57,8.79,3.57,10.75v15.01c0,11.36-9.3,20.66-20.66,20.66h-18.11c-11.36,0-20.66-9.3-20.66-20.66v-15.18c0-1.87,1.46-10.43,3.3-10.56.09-.12.17-.23.28-.34Z"/>
    <path class="cls-6" d="m8.87,9.61c.18-4.66,6.46-8.41,11.16-8.41h30.53c4.82,0,11.24,3.94,11.24,8.76,1.78,0,3.24,8.92,3.24,10.7v14.73c0,11.36-9.3,20.66-20.66,20.66h-18.11c-11.36,0-20.66-9.3-20.66-20.66v-14.91c0-1.7,1.33-10.39,3-10.51.08-.12.16-.24.25-.35Z"/>
    <path class="cls-2" d="m8.55,9.8c.18-4.83,6.37-8.73,11.24-8.73h31.02c4.99,0,11.32,4.09,11.32,9.08,1.61,0,2.92,9.05,2.92,10.66v14.45c0,11.36-9.3,20.66-20.66,20.66h-18.11c-11.36,0-20.66-9.3-20.66-20.66v-14.64c0-1.53,1.2-10.35,2.7-10.46.07-.13.14-.24.23-.36Z"/>
    <path class="cls-2" d="m8.22,9.99c.19-5,6.27-9.04,11.32-9.04h31.51c5.17,0,11.39,4.23,11.39,9.41,1.43,0,2.59,9.18,2.59,10.61v14.18c0,11.36-9.3,20.66-20.66,20.66h-18.11c-11.36,0-20.66-9.3-20.66-20.66v-14.38c0-1.36,1.06-10.3,2.4-10.4.06-.13.13-.25.21-.38Z"/>
    <path class="cls-3" d="m7.9,10.18c.19-5.17,6.18-9.35,11.4-9.35h32c5.35,0,11.47,4.38,11.47,9.73,1.25,0,2.27,9.31,2.27,10.56v13.9c0,11.36-9.3,20.66-20.66,20.66h-18.11c-11.36,0-20.66-9.3-20.66-20.66v-14.11c0-1.19.93-10.26,2.1-10.35.06-.13.11-.26.18-.39Z"/>
    <path class="cls-15" d="m7.57,10.38C7.78,5.03,13.66.72,19.06.72h32.49c5.53,0,11.54,4.52,11.54,10.05,1.07,0,1.95,9.44,1.95,10.51v13.62c0,11.36-9.3,20.66-20.66,20.66h-18.11c-11.36,0-20.66-9.3-20.66-20.66v-13.84c0-1.02.8-10.22,1.8-10.29.05-.14.1-.27.16-.4Z"/>
    <path class="cls-15" d="m7.25,10.57C7.46,5.05,13.25.6,18.82.6h32.98c5.71,0,11.62,4.67,11.62,10.38.89,0,1.62,9.57,1.62,10.46v13.35c0,11.36-9.3,20.66-20.66,20.66h-18.11c-11.36,0-20.66-9.3-20.66-20.66v-13.57c0-.85.67-10.18,1.5-10.24.04-.14.08-.27.14-.41Z"/>
    <path class="cls-30" d="m6.93,10.76C7.14,5.07,12.83.48,18.58.48h33.47c5.89,0,11.7,4.82,11.7,10.7.71,0,1.3,9.7,1.3,10.41v13.07c0,11.36-9.3,20.66-20.66,20.66h-18.11c-11.36,0-20.66-9.3-20.66-20.66v-13.3c0-.68.53-10.14,1.2-10.19.03-.15.06-.28.11-.42Z"/>
    <path class="cls-17" d="m6.6,10.95C6.82,5.09,12.42.36,18.34.36h33.96c6.06,0,11.77,4.96,11.77,11.03.54,0,.97,9.83.97,10.37v12.8c0,11.36-9.3,20.66-20.66,20.66h-18.11c-11.36,0-20.66-9.3-20.66-20.66v-13.03c0-.51.4-10.1.9-10.13.02-.15.05-.29.09-.43Z"/>
    <path class="cls-26" d="m6.28,11.15C6.51,5.11,12,.24,18.09.24h34.45c6.24,0,11.85,5.11,11.85,11.35.36,0,.65,9.96.65,10.32v12.52c0,11.36-9.3,20.66-20.66,20.66h-18.11c-11.36,0-20.66-9.3-20.66-20.66v-12.76c0-.34.27-10.05.6-10.08.02-.15.03-.3.07-.45Z"/>
    <path class="cls-10" d="m5.96,11.34C6.19,5.13,11.59.12,17.85.12h34.94c6.42,0,11.92,5.25,11.92,11.68.18,0,.32,10.09.32,10.27v12.24c0,11.36-9.3,20.66-20.66,20.66h-18.11c-11.36,0-20.66-9.3-20.66-20.66v-12.49c0-.17.13-10.01.3-10.02,0-.16.02-.3.04-.46Z"/>
    <path class="cls-7" d="m65.04,12v22.19c0,11.36-9.3,20.66-20.66,20.66h-18.11c-11.36,0-20.66-9.3-20.66-20.66V12c0-.16,0-.31.02-.47C5.87,5.15,11.17,0,17.61,0h35.43c6.6,0,12,5.4,12,12Z"/>
  </g>
  <circle class="cls-20" cx="64.98" cy="70.63" r="4.44"/>
  <circle class="cls-20" cx="4.44" cy="70.63" r="4.44"/>
  <path class="cls-16" d="m21.01-5.06h16.19c12.54,0,22.72,10.18,22.72,22.72v13.92c0,12.54-10.18,22.72-22.72,22.72h-16.19c-5.71,0-10.34-4.63-10.34-10.34V5.29c0-5.71,4.63-10.34,10.34-10.34Z" transform="translate(59.93 -10.67) rotate(90)"/>
</svg>