<?xml version="1.0" encoding="UTF-8"?>
<svg id="Camada_1" data-name="Camada 1" xmlns="http://www.w3.org/2000/svg" viewBox="0 0 857.07 148.47">
  <defs>
    <style>
      .cls-1 {
        fill: #fff;
      }
    </style>
  </defs>
  <path d="m198.21,0c1.16.16,2.32.33,3.49.47,11.2,1.29,20.98,5.73,29.47,13.11,9.21,7.99,18.45,15.94,27.66,23.92,8.56,7.41,17.11,14.82,25.62,22.27.42.37.7,1.14.7,1.73.04,13.54.03,27.08.03,40.61v1.8c1.57-1.84,2.93-3.41,4.27-4.99,6.55-7.71,13.08-15.44,19.65-23.13.29-.33.84-.62,1.27-.63,7.04-.04,14.07-.03,21.11-.02.26,0,.53.06.95.12-9.63,10.97-19.16,21.83-28.74,32.75,11,12.84,21.97,25.64,33.12,38.66h-1.35c-7.24,0-14.47-.01-21.71.02-.76,0-1.21-.24-1.67-.84-8.78-11.3-17.58-22.57-26.38-33.85-.07-.09-.17-.17-.45-.46v35.07h-19.39v-1.52c0-24.88,0-49.76.01-74.64,0-.84-.18-1.43-.88-2.03-8.35-7.16-16.65-14.36-24.97-21.55-6.18-5.34-12.23-10.84-18.58-15.98-8.51-6.89-18.39-10.56-29.32-11.35-1.27-.09-2.55-.12-3.83-.12-39.87,0-79.73,0-119.6,0h-1.75c1.46,1.27,2.71,2.38,3.98,3.48,7.65,6.63,15.3,13.25,22.95,19.88,1.87,1.62,3.76,3.21,5.57,4.88.4.37.71,1.05.72,1.59.05,6.71.02,13.42.05,20.13,0,.71-.21,1.15-.81,1.57-6.43,4.51-11.43,10.29-14.82,17.36-1.47,3.07-2.51,6.33-3.71,9.4v-.99c0-12.82,0-25.64.02-38.46,0-.83-.23-1.38-.87-1.93-9.3-8-18.58-16.03-27.85-24.07-8.19-7.09-16.37-14.2-24.57-21.3-3.82-3.31-7.67-6.6-11.48-9.92C15.82.76,15.63.35,15.38,0c60.94,0,121.89,0,182.83,0Z"/>
  <path d="m857.07,146.65c-5.44,0-10.87-.01-16.31.02-.78,0-1.09-.22-1.24-1.02-.5-2.62-1.1-5.22-1.67-7.83-.05-.22-.15-.44.12-.23-1.97,1.73-3.87,3.54-5.92,5.18-4.62,3.7-9.99,5.35-15.85,5.56-5.75.21-11.31-.61-16.51-3.19-8.11-4.02-13.68-10.41-16.73-18.82-4.09-11.3-3.97-22.7,1.21-33.6,5.39-11.35,14.6-17.82,27.23-19.14,5.18-.54,10.26-.07,15.16,1.84,4.19,1.63,7.67,4.2,10.38,7.79.15.2.33.39.67.79v-39.45c.39-.04.7-.1,1.01-.1,5.8,0,11.59,0,17.39,0,.35,0,.71.07,1.06.11v102.08Zm-19.05-36.41c-.03-.53-.03-1.57-.15-2.6-.6-5.17-2.55-9.68-6.56-13.14-3.17-2.74-6.95-4.01-11.07-4.24-6.23-.34-11.57,1.61-15.6,6.5-3.89,4.73-4.97,10.27-4.57,16.25.74,11.17,9.37,19.42,20.69,18.42,4.68-.41,8.72-2.13,11.92-5.64,3.9-4.27,5.35-9.4,5.34-15.56Z"/>
  <path d="m19.03,138.01c-.65,2.77-1.32,5.67-2,8.6H0V44.54h19.05v39.94c.16.12.33.24.49.35.11-.28.17-.61.35-.84,5.24-6.8,12.09-10.32,20.74-10.58,8.59-.25,16.22,2.1,22.77,7.7,6.68,5.7,10.81,12.93,12.36,21.54,1.51,8.35,1.04,16.62-2.34,24.5-4.47,10.42-11.97,17.66-23.21,20.27-8.68,2.02-17.19,1.35-24.8-3.83-2.3-1.57-4.24-3.68-6.37-5.57Zm37.75-27.07c0-4.37-.88-7.92-2.81-11.34-6.5-11.57-23.2-12.71-31.17-2.13-4.98,6.61-5.5,17.68-1.18,25.04,3.77,6.43,10.9,9.82,18.49,8.86,4.01-.51,7.5-2.05,10.44-4.83,4.49-4.24,6.21-9.58,6.22-15.61Z"/>
  <path d="m659.38,83.86v-39.32h19.12v102.03h-17.06c-.67-3.1-1.36-6.24-2.05-9.45-1.36,1.45-2.6,2.88-3.97,4.19-4.37,4.2-9.65,6.38-15.65,6.9-9.58.84-18.25-1.42-25.56-7.84-5.49-4.81-9.05-10.89-10.82-17.96-2.42-9.66-2.17-19.28,1.89-28.44,5.3-11.98,14.58-18.96,27.76-20.39,5.26-.57,10.43-.07,15.39,1.89,4.1,1.62,7.49,4.2,10.18,7.68.17.22.34.44.52.65.02.02.06.02.25.05Zm.37,26.68c-.04-.64-.06-1.56-.15-2.47-.59-5.7-2.75-10.6-7.4-14.19-3.08-2.38-6.64-3.44-10.46-3.62-6.28-.3-11.61,1.77-15.6,6.75-3.74,4.67-4.8,10.14-4.39,15.96.24,3.46,1.09,6.78,3,9.72,4.32,6.66,10.51,9.47,18.37,8.68,4.02-.4,7.55-1.93,10.46-4.76,4.47-4.32,6.07-9.77,6.17-16.08Z"/>
  <path d="m348.02,44.52h19.22v40.39c1.8-1.84,3.37-3.7,5.19-5.26,4.71-4.04,10.24-6,16.44-6.22,4.47-.16,8.85.27,13.02,1.94,7.27,2.9,11.6,8.47,13.92,15.74,1.35,4.21,1.93,8.54,1.93,12.95.01,13.66,0,27.31,0,40.97,0,.48,0,.95,0,1.52h-19.07v-1.51c0-12.62.02-25.24-.01-37.85,0-3.32-.41-6.59-1.71-9.7-1.9-4.53-5.29-7.04-10.15-7.64-5.59-.69-10.56.58-14.56,4.69-3.17,3.26-4.77,7.33-4.83,11.78-.17,12.61-.13,25.23-.17,37.84,0,.79,0,1.58,0,2.43h-19.23V44.52Z"/>
  <path d="m586.54,146.61h-16.11c-.69-3.48-1.37-6.93-2.07-10.48-1.01,1.33-1.89,2.64-2.92,3.82-3.84,4.42-8.75,7.09-14.48,7.95-6.72,1.01-13.41.7-19.7-2.2-7.4-3.41-11.56-9.19-12.14-17.37-.47-6.75,1.44-12.63,6.74-17.09,3.88-3.26,8.5-5.06,13.47-5.76,3.54-.5,7.13-.75,10.71-.84,5.23-.14,10.48-.04,15.71-.04.47,0,.94,0,1.56,0-.12-4.06-.32-7.95-2.8-11.25-2.33-3.1-5.75-4-9.4-4.2-2.89-.16-5.73.1-8.47,1.16-3.37,1.3-5.58,3.6-6.5,7.11-.1.38-.2.76-.3,1.14h-18.63c.19-2.93.83-5.69,1.99-8.32,3.03-6.84,8.4-11.19,15.16-14,4.51-1.88,9.23-2.71,14.11-2.82,6.42-.14,12.67.59,18.59,3.18,9.55,4.18,14.38,11.71,15.35,21.89.14,1.43.13,2.87.13,4.3,0,14.06,0,28.12,0,42.17v1.64Zm-19.97-30.07c-.24-.03-.4-.08-.56-.08-5.11,0-10.22-.09-15.33.04-1.84.04-3.73.41-5.5.93-3.5,1.02-5.59,3.75-5.66,7.02-.1,4.25,1.56,6.87,5.37,8.19,5.47,1.91,12.2.77,16.57-4.24,2.98-3.42,4.58-7.38,5.11-11.87Z"/>
  <path d="m503.43,124.61c-1.44,5.1-3.93,9.4-7.45,13.09-6.95,7.27-15.54,10.58-25.53,10.64-8.21.05-15.82-1.82-22.56-6.64-8.23-5.89-12.7-14.05-14.03-23.93-1.03-7.69-.53-15.32,2.6-22.52,5.65-13.01,15.6-20.32,29.78-21.67,6.69-.64,13.27,0,19.41,2.89,11.31,5.32,17.84,14.3,19.48,26.64.54,4.07.31,8.24.43,12.52h-52.94c.37,8.65,6.25,16.05,15.19,16.88,3.6.33,7.1.07,10.32-1.76,2.27-1.29,3.97-3.17,5.31-5.39.19-.32.59-.72.9-.72,6.31-.04,12.63-.03,19.09-.03Zm-17.35-20.89c-.18-2.88-.91-5.54-2.53-7.89-3.5-5.08-8.45-7.21-14.52-6.8-6.76.46-11.62,3.83-14.57,9.89-.72,1.47-1.09,3.11-1.67,4.8h33.29Z"/>
  <path d="m766.61,115.62h-52.6c-.04,2.17.46,4.12,1.17,6.01,2.88,7.57,9.89,11.73,17.98,10.96,5.17-.49,9.04-2.81,11.65-7.28.18-.31.64-.66.97-.67,6.27-.04,12.55-.03,19.03-.03-.34,1.02-.58,1.93-.94,2.79-4.93,11.56-13.64,18.39-26.01,20.44-7.42,1.23-14.75.61-21.73-2.34-11.24-4.75-18.05-13.27-20.47-25.14-1.8-8.82-1.28-17.59,2.49-25.87,5.76-12.64,15.68-19.67,29.57-20.92,7.24-.65,14.3.18,20.8,3.63,10.7,5.67,16.74,14.64,18.01,26.63.41,3.85.06,7.78.06,11.78Zm-19.17-11.92c-.31-4.15-1.72-7.7-4.76-10.52-3.93-3.66-8.64-4.75-13.84-4.02-8.27,1.16-13.55,7.84-14.46,14.55h33.06Z"/>
  <path d="m90.46,111.83c-.02-10.3,2.45-18.87,8.64-26.12,6.3-7.36,14.37-11.31,24-12.15,6.67-.58,13.12.21,19.26,3.03,7.14,3.28,12.67,8.37,16.16,15.35,6.06,12.12,6.26,24.61.48,36.78-5.39,11.36-14.82,17.78-27.36,19.34-7.13.89-14.09.08-20.7-2.98-6.89-3.19-12.12-8.16-15.81-14.75-3.38-6.03-4.74-12.54-4.69-18.5Zm52.94-1.15c-.03-4.33-.72-8.72-3.04-12.76-5.12-8.93-17.34-10.58-24.62-3.27-3.46,3.47-4.95,7.81-5.4,12.58-.52,5.56-.12,10.98,2.5,16.06,5.4,10.44,20.12,11.28,26.71,1.56,2.87-4.24,3.81-8.95,3.84-14.17Z"/>
  <path d="m177.09,111.44c-.11-8.86,1.89-16.71,6.93-23.59,6.35-8.67,15.01-13.34,25.7-14.29,6.67-.59,13.15.15,19.25,3.04,9.93,4.7,16.41,12.41,19.15,23,2.63,10.19,2.15,20.29-2.8,29.76-5.96,11.39-15.57,17.63-28.39,18.83-6.33.59-12.54-.1-18.4-2.68-10.58-4.66-17.2-12.74-20.21-23.83-.95-3.48-1.32-7.05-1.23-10.25Zm19.66-.65c.01,4.4.64,8.73,2.83,12.73,3.12,5.72,8.73,8.43,14.42,8.11,7.22-.41,11.85-4.5,14.37-11.03,2.08-5.39,2.08-11,.93-16.6-.89-4.35-2.93-8.12-6.51-10.84-7.09-5.37-17.39-3.58-22.37,3.78-2.81,4.16-3.64,8.85-3.66,13.83Z"/>
  <path class="cls-1" d="m486.08,103.72h-33.29c.58-1.69.95-3.33,1.67-4.8,2.95-6.06,7.8-9.43,14.57-9.89,6.07-.41,11.01,1.72,14.52,6.8,1.62,2.35,2.35,5.01,2.53,7.89Z"/>
</svg>