<?xml version="1.0" encoding="UTF-8"?>
<svg id="Camada_1" data-name="Camada 1" xmlns="http://www.w3.org/2000/svg" viewBox="0 0 288.29 197.69">
  <defs>
    <style>
      .cls-1 {
        fill: #1d1d1b;
      }
    </style>
  </defs>
  <path class="cls-1" d="m198.07,148.37c-6.91,0-13.09-1.59-18.53-4.76-5.45-3.17-9.75-7.57-12.92-13.21-3.17-5.63-4.76-12.09-4.76-19.38s1.58-14.04,4.76-19.67c3.17-5.63,7.5-10.03,12.99-13.21,5.49-3.17,11.69-4.76,18.6-4.76s13.07,1.59,18.46,4.76c5.4,3.17,9.68,7.55,12.85,13.14,3.17,5.59,4.76,12.12,4.76,19.6s-1.59,13.89-4.76,19.53c-3.17,5.63-7.48,10.04-12.92,13.21-5.45,3.17-11.62,4.76-18.53,4.76Zm0-16.62c3.03,0,5.8-.78,8.31-2.34,2.51-1.56,4.54-3.91,6.11-7.03,1.56-3.12,2.34-6.96,2.34-11.5s-.76-8.5-2.27-11.57c-1.52-3.07-3.5-5.4-5.96-6.96-2.46-1.56-5.21-2.34-8.24-2.34s-5.96.78-8.52,2.34c-2.56,1.56-4.59,3.88-6.11,6.96-1.52,3.08-2.27,6.94-2.27,11.57s.73,8.38,2.2,11.5c1.47,3.12,3.48,5.47,6.04,7.03s5.35,2.34,8.38,2.34Z"/>
  <path class="cls-1" d="m142.9,91.28c-3.17-5.59-7.45-9.97-12.85-13.14-5.4-3.17-11.55-4.76-18.46-4.76s-13.12,1.59-18.61,4.76c-3.08,1.78-5.8,3.95-8.16,6.51-1.83,2-3.45,4.23-4.83,6.7-3.17,5.63-4.76,12.19-4.76,19.67s1.59,13.75,4.76,19.38c1.38,2.46,3,4.7,4.83,6.7,2.33,2.56,5.03,4.73,8.09,6.51,5.45,3.17,11.62,4.76,18.54,4.76s13.08-1.59,18.53-4.76c5.44-3.17,9.75-7.58,12.92-13.21s4.76-12.14,4.76-19.53-1.59-14.01-4.76-19.59Zm-17.04,31.1c-1.56,3.12-3.6,5.47-6.11,7.03-2.51,1.56-5.28,2.34-8.3,2.34s-5.83-.78-8.38-2.34c-2.56-1.56-4.57-3.91-6.04-7.03-1.47-3.13-2.2-6.96-2.2-11.51s.76-8.49,2.27-11.57c1.52-3.07,3.55-5.4,6.11-6.96s5.4-2.34,8.52-2.34,5.77.78,8.24,2.34c2.46,1.56,4.45,3.89,5.96,6.96,1.51,3.08,2.27,6.94,2.27,11.57s-.78,8.38-2.34,11.51Z"/>
  <polygon class="cls-1" points="126.67 184.59 98.74 156.66 127.56 127.84 137.46 137.74 118.54 156.66 136.57 174.69 126.67 184.59"/>
  <path class="cls-1" d="m155.81,197.69c-4.64,0-9.56-.41-14.8-1.32l2.41-13.79c38.56,6.72,56.53-19.79,57.27-20.93l11.75,7.62c-.83,1.29-18.83,28.42-56.62,28.42Z"/>
  <path class="cls-1" d="m288.29,130.94l-18.36,18.36v48.39h-19.18v-49.01l17.74-17.74-17.74-17.74v-44.1l-42.5-36.84c-9.73-8.44-22.18-13.08-35.06-13.08H51.41l14.23,12.34,19.18,16.62v22.14c-.7.47-1.38.95-2.05,1.47-5.03,3.78-9.18,8.54-12.36,14.2-2.15,3.81-3.74,7.94-4.77,12.36v-41.41L22.13,19.18,0,0h180.35c12.88,0,25.33,4.64,35.06,13.08l35.34,30.63,19.18,16.63v52.24l18.36,18.36Z"/>
  <polygon class="cls-1" points="250.75 148.68 250.75 149.26 250.46 148.97 250.75 148.68"/>
</svg>