<?xml version="1.0" encoding="UTF-8"?>
<svg id="Camada_1" data-name="Camada 1" xmlns="http://www.w3.org/2000/svg" viewBox="0 0 242.98 454.42">
  <defs>
    <style>
      .cls-1 {
        fill: #009640;
      }

      .cls-2 {
        fill: #fff;
      }

      .cls-3 {
        fill: #f39200;
      }

      .cls-4 {
        fill: #3aaa35;
      }

      .cls-5 {
        fill: #ca9e67;
      }

      .cls-6 {
        fill: #e2b479;
      }
    </style>
  </defs>
  <path d="m242.98,121.49c0,27.73-9.29,53.29-24.93,73.74-2.67-2.1-6.02-3.34-9.68-3.35-.01,0-.03-.02-.03-.03v-38.24c-.74-4.01-1.76-7.93-3.03-11.73-1.25-3.74-2.73-7.36-4.45-10.85-1.64-3.35-3.48-6.57-5.52-9.66-20.47,15.69-46.07,25.02-73.85,25.02s-53.41-9.33-73.88-25.04c-2.05,3.1-3.9,6.33-5.54,9.68-1.72,3.49-3.2,7.11-4.45,10.85-1.27,3.8-2.29,7.72-3.03,11.73v39.45s-.02.03-.03.03c-3.37.01-6.5,1.07-9.05,2.89C9.52,175.41,0,149.56,0,121.49c0-17.16,3.56-33.49,9.99-48.29C28.65,30.13,71.55,0,121.49,0s92.84,30.13,111.5,73.2c6.43,14.8,9.99,31.13,9.99,48.29Z"/>
  <path d="m218.05,195.23c-22.2,29.03-57.19,47.75-96.56,47.75s-73.75-18.4-95.98-47c2.55-1.82,5.68-2.88,9.05-2.89.01,0,.03-.01.03-.03v-39.45c.74-4.01,1.76-7.93,3.03-11.73,1.25-3.74,2.73-7.36,4.45-10.85,1.64-3.35,3.49-6.58,5.54-9.68,20.47,15.71,46.09,25.04,73.88,25.04s53.38-9.33,73.85-25.02c2.04,3.09,3.88,6.31,5.52,9.66,1.72,3.49,3.2,7.11,4.45,10.85,1.27,3.8,2.29,7.72,3.03,11.73v38.24s.02.03.03.03c3.66.01,7.01,1.25,9.68,3.35Z"/>
  <path class="cls-4" d="m72.57,250.57h97.78c20.96,0,37.98,17.02,37.98,37.98v165.86H34.59v-165.86c0-20.96,17.02-37.98,37.98-37.98Z"/>
  <circle class="cls-1" cx="121.46" cy="260.26" r="35.94"/>
  <circle class="cls-5" cx="121.46" cy="260.26" r="25.94"/>
  <path class="cls-6" d="m218.05,195.23c-2.67-2.1-6.02-3.34-9.68-3.35l-.03-.03v-30.62c0-6.53-.93-13.04-2.99-19.24-.01-.04-.03-.08-.04-.11-1.25-3.74-2.73-7.36-4.45-10.85-1.64-3.35-3.48-6.57-5.52-9.66-20.47,15.69-46.07,25.02-73.85,25.02s-53.41-9.33-73.88-25.04c-2.05,3.1-3.9,6.33-5.54,9.68-1.72,3.49-3.2,7.11-4.45,10.85-.01.04-.03.08-.04.11-2.06,6.19-2.99,12.71-2.99,19.24v31.83s-.02.03-.03.03c-3.37.01-6.5,1.07-9.05,2.89-5.05,3.56-7.9,10.02-6.15,16.95.87,3.46,2.9,6.38,5.61,8.42,2.71,2.06,6.09,3.24,9.65,3.24l.03.03c1.23,25.2,22.21,45.42,47.7,45.42h78.22c25.9,0,47.14-20.88,47.75-46.63l.03-.03c8.7-.01,15.74-7.05,15.74-15.75,0-5.04-2.36-9.52-6.04-12.4Zm-85.44-22c0-1.14.1-2.27.29-3.35,1.59-9.11,9.54-16.04,19.1-16.04h.01c9.57,0,17.51,6.93,19.1,16.04.19,1.08.29,2.21.29,3.35v19.74c0,10.71-8.68,19.39-19.39,19.39h-.01c-10.71,0-19.39-8.68-19.39-19.39v-19.74Zm-61.08,0c0-1.14.1-2.27.29-3.35,1.59-9.11,9.53-16.04,19.1-16.04h.01c9.56,0,17.51,6.93,19.1,16.04.19,1.08.29,2.21.29,3.35v19.88c-.04,5.61-6.03,9.35-11.1,6.95-.19-.09-.38-.18-.57-.25-2.36-1.04-4.97-1.61-7.72-1.61h-.01c-.34,0-.68.01-1.02.03-2.59.13-5.05.78-7.27,1.83-5.07,2.4-11.06-1.34-11.1-6.95v-19.88Z"/>
  <path class="cls-5" d="m132.58,219.13h-22.17c-2.76,0-5-2.24-5-5h0c0-2.76,2.24-5,5-5h6.08v-21.67c0-2.76,2.24-5,5-5h0c2.76,0,5,2.24,5,5v21.67s6.09,0,6.09,0c2.76,0,5,2.24,5,5h0c0,2.76-2.24,5-5,5Z"/>
  <path class="cls-2" d="m110.32,173.23v19.88c-.04,5.61-6.03,9.35-11.1,6.95-.19-.09-.38-.18-.57-.25,4.34-1.2,7.52-5.18,7.52-9.89v-13.64c0-2.42-.84-4.64-2.24-6.4-1.88-2.35-4.77-3.86-8.02-3.86s-6.14,1.51-8.01,3.86c-1.41,1.76-2.25,3.98-2.25,6.4v13.64c0,2.83,1.15,5.39,3.01,7.25.38.38.8.74,1.24,1.06-2.59.13-5.05.78-7.27,1.83-5.07,2.4-11.06-1.34-11.1-6.95v-19.88c0-1.14.1-2.27.29-3.35,1.59-9.11,9.53-16.04,19.1-16.04h.01c9.56,0,17.51,6.93,19.1,16.04.19,1.08.29,2.21.29,3.35Z"/>
  <path class="cls-3" d="m106.17,176.28v13.64c0,4.71-3.18,8.69-7.52,9.89-2.36-1.04-4.97-1.61-7.72-1.61h-.01c-.34,0-.68.01-1.02.03-.44-.32-.86-.68-1.24-1.06-1.86-1.86-3.01-4.42-3.01-7.25v-13.64c0-2.42.84-4.64,2.25-6.4,1.87-2.35,4.77-3.86,8.01-3.86s6.14,1.51,8.02,3.86c1.4,1.76,2.24,3.98,2.24,6.4Z"/>
  <path class="cls-3" d="m157.27,176.28v13.64c0,5.66-4.59,10.26-10.26,10.26-2.83,0-5.39-1.15-7.25-3.01-1.86-1.86-3.01-4.42-3.01-7.25v-13.64c0-2.42.84-4.64,2.25-6.4,1.87-2.35,4.77-3.86,8.01-3.86s6.14,1.51,8.02,3.86c1.4,1.76,2.24,3.98,2.24,6.4Z"/>
  <path class="cls-2" d="m171.11,169.88c-1.59-9.11-9.53-16.04-19.1-16.04h-.01c-9.56,0-17.51,6.93-19.1,16.04-.19,1.08-.29,2.21-.29,3.35v19.74c0,10.71,8.69,19.39,19.39,19.39h.01c10.71,0,19.39-8.68,19.39-19.39v-19.74c0-1.14-.1-2.27-.29-3.35Zm-13.84,20.04c0,5.66-4.59,10.26-10.26,10.26-2.83,0-5.39-1.15-7.25-3.01-1.86-1.86-3.01-4.42-3.01-7.25v-13.64c0-2.42.84-4.64,2.25-6.4,1.87-2.35,4.77-3.86,8.01-3.86s6.14,1.51,8.02,3.86c1.4,1.76,2.24,3.98,2.24,6.4v13.64Z"/>
  <path class="cls-2" d="m117.4,250.53c-15.16,0-26.98-10.24-34-19.82-2.94-4.02-1.57-9.71,2.89-11.91l.05-.02c3.47-1.71,7.7-.71,9.97,2.43,4.1,5.68,11.61,13.56,21.68,13.28,3.51-.1,6.61,2.27,7.68,5.61h0c1.63,5.09-2.11,10.3-7.45,10.43-.27,0-.55,0-.82,0Z"/>
</svg>