<?xml version="1.0" encoding="UTF-8"?>
<svg id="Camada_1" data-name="Camada 1" xmlns="http://www.w3.org/2000/svg" viewBox="0 0 144.82 194.41">
  <defs>
    <style>
      .cls-1 {
        fill: #fff48c;
      }

      .cls-2 {
        fill: #fff;
      }

      .cls-3 {
        fill: #b2b2b2;
      }

      .cls-4 {
        fill: #67bb8b;
      }

      .cls-5 {
        fill: #de98c2;
      }

      .cls-6 {
        fill: #0082c6;
      }

      .cls-7 {
        fill: none;
        stroke: #dadada;
        stroke-miterlimit: 10;
      }

      .cls-8 {
        fill: #ededed;
      }
    </style>
  </defs>
  <rect class="cls-6" x=".32" y="22.47" width="131.08" height="48.03"/>
  <rect class="cls-8" y="70.5" width="131.08" height="112.38"/>
  <rect class="cls-3" x="18.85" y="0" width="10.43" height="32.15" rx="5.21" ry="5.21"/>
  <rect class="cls-3" x="102.45" y="0" width="10.43" height="32.15" rx="5.21" ry="5.21"/>
  <g>
    <path class="cls-2" d="m25.25,61.25c-1.93,0-3.62-.43-5.09-1.29-1.46-.86-2.61-2.05-3.44-3.58-.83-1.53-1.25-3.29-1.25-5.3s.42-3.77,1.25-5.3c.83-1.53,1.98-2.72,3.44-3.58,1.46-.86,3.16-1.29,5.09-1.29s3.63.43,5.1,1.29c1.47.86,2.62,2.06,3.46,3.58s1.25,3.29,1.25,5.3-.42,3.77-1.25,5.3c-.83,1.53-1.99,2.72-3.46,3.58-1.47.86-3.17,1.29-5.1,1.29Zm0-3.79c1.14,0,2.12-.26,2.94-.79.81-.52,1.45-1.26,1.9-2.21.45-.95.67-2.08.67-3.39s-.22-2.44-.67-3.39c-.45-.95-1.08-1.68-1.9-2.19-.82-.51-1.79-.77-2.94-.77s-2.07.26-2.89.77c-.82.52-1.46,1.25-1.91,2.19-.45.95-.67,2.08-.67,3.39s.23,2.44.67,3.39,1.09,1.68,1.91,2.21c.82.52,1.79.79,2.89.79Z"/>
    <path class="cls-2" d="m47.11,61.25c-1.97,0-3.67-.43-5.1-1.28-1.43-.85-2.53-2.04-3.3-3.57-.77-1.53-1.15-3.28-1.15-5.27s.38-3.8,1.15-5.33c.77-1.53,1.87-2.72,3.3-3.6,1.43-.87,3.13-1.31,5.1-1.31,2.42,0,4.4.61,5.96,1.83.69.54,1.27,1.19,1.72,1.93.86,1.41-.24,3.22-1.89,3.22h-.1c-.8,0-1.52-.44-1.9-1.14-.25-.46-.59-.86-1.01-1.18-.73-.55-1.68-.83-2.84-.83s-2.05.26-2.82.79c-.78.52-1.37,1.26-1.77,2.21-.4.95-.6,2.08-.6,3.41s.2,2.41.6,3.36c.4.95.99,1.68,1.77,2.19.78.52,1.72.77,2.82.77,1.16,0,2.11-.25,2.84-.74.42-.28.75-.64,1-1.06.39-.67,1.1-1.09,1.87-1.09h0c1.76,0,2.81,2,1.77,3.42-.41.55-.9,1.05-1.47,1.48-1.55,1.19-3.54,1.78-5.96,1.78Z"/>
    <path class="cls-2" d="m63.52,59.21v-14.57h-4c-.94,0-1.7-.76-1.7-1.7h0c0-.94.76-1.7,1.7-1.7h12.25c.94,0,1.7.76,1.7,1.7h0c0,.94-.76,1.7-1.7,1.7h-4s0,14.57,0,14.57c0,.94-.76,1.7-1.7,1.7h-.84c-.94,0-1.7-.76-1.7-1.7Z"/>
    <path class="cls-2" d="m88.98,61.25c-1.29,0-2.48-.23-3.55-.7-1.08-.47-1.94-1.19-2.59-2.15-.5-.74-.81-1.63-.95-2.68-.07-.54.36-1.01.9-1.01h2.35c.43,0,.78.3.88.72.07.3.17.58.3.84.23.46.58.82,1.04,1.08.46.26,1,.39,1.62.39.58,0,1.08-.12,1.5-.35.42-.23.74-.54.97-.93s.34-.83.34-1.34c0-.58-.14-1.07-.42-1.46-.28-.39-.68-.7-1.21-.91-.52-.21-1.14-.32-1.85-.32h-.56c-.5,0-.9-.4-.9-.9v-1.66c0-.5.4-.9.9-.9h.56c.82,0,1.54-.19,2.13-.58.6-.38.9-.99.9-1.81,0-.66-.22-1.18-.65-1.56-.43-.38-1.01-.58-1.74-.58-.82,0-1.47.25-1.94.75-.31.33-.52.7-.65,1.11s-.46.67-.87.67h-2.32c-.55,0-.99-.5-.89-1.04.14-.84.42-1.58.83-2.23.57-.91,1.36-1.6,2.36-2.08,1-.48,2.17-.72,3.5-.72s2.57.24,3.54.73,1.71,1.13,2.21,1.94c.5.8.74,1.7.74,2.67,0,.81-.15,1.5-.45,2.09s-.69,1.08-1.18,1.46h0c-.49.38-.48,1.14.04,1.48.1.06.19.13.28.2.53.42.95.95,1.25,1.6.3.65.45,1.38.45,2.21,0,1.09-.27,2.08-.8,2.99-.53.91-1.31,1.63-2.33,2.16-1.02.53-2.27.8-3.75.8Z"/>
    <path class="cls-2" d="m107.58,61.25c-1.84,0-3.4-.43-4.71-1.29-1.3-.86-2.3-2.05-2.99-3.58-.69-1.53-1.04-3.29-1.04-5.3s.35-3.77,1.04-5.3,1.69-2.72,2.99-3.58c1.3-.86,2.87-1.29,4.71-1.29s3.34.43,4.64,1.29c1.29.86,2.29,2.06,2.99,3.58.7,1.53,1.05,3.29,1.05,5.3s-.35,3.77-1.05,5.3c-.7,1.53-1.7,2.72-2.99,3.58-1.29.86-2.84,1.29-4.64,1.29Zm-.03-3.79c.88,0,1.65-.26,2.32-.79.66-.52,1.18-1.26,1.55-2.21.36-.95.55-2.08.55-3.39s-.18-2.46-.55-3.4c-.37-.94-.88-1.66-1.55-2.18-.67-.51-1.44-.77-2.32-.77s-1.65.26-2.3.77c-.66.52-1.17,1.24-1.54,2.18-.38.94-.56,2.07-.56,3.4s.19,2.44.56,3.39c.37.95.89,1.68,1.54,2.21.66.52,1.42.79,2.3.79Z"/>
  </g>
  <rect class="cls-7" x="9.63" y="81.43" width="111.83" height="91.88" rx="12" ry="12"/>
  <rect class="cls-3" x="88.34" y="90.36" width="37.62" height="44.16"/>
  <polygon class="cls-5" points="129.02 90.36 88.57 90.36 99.77 127.46 144.82 125.83 129.02 90.36"/>
  <rect class="cls-3" x="27.52" y="157.3" width="37.62" height="25.58"/>
  <polygon class="cls-1" points="22.73 157.3 63.18 157.3 51.97 194.41 6.93 192.78 22.73 157.3"/>
  <rect class="cls-3" x="25.71" y="97.54" width="41.23" height="41.23"/>
  <rect class="cls-4" x="25.71" y="93.29" width="41.23" height="41.23"/>
</svg>