<?xml version="1.0" encoding="UTF-8"?>
<svg id="Camada_1" data-name="Camada 1" xmlns="http://www.w3.org/2000/svg" viewBox="0 0 312.07 362.56">
  <defs>
    <style>
      .cls-1 {
        fill: #b7b7b7;
      }

      .cls-2 {
        fill: #9a1e24;
      }

      .cls-3 {
        fill: #9d9d9d;
      }

      .cls-4 {
        fill: #a7a7a7;
      }

      .cls-5 {
        fill: #939393;
      }

      .cls-6 {
        fill: #ddd;
      }

      .cls-7 {
        fill: #e9e9e9;
      }

      .cls-8 {
        fill: #8b8b8a;
      }

      .cls-9 {
        fill: #b81822;
      }

      .cls-10 {
        fill: #b5b5b4;
      }

      .cls-11 {
        fill: #3d2325;
      }

      .cls-12 {
        fill: #5e2325;
      }

      .cls-13 {
        fill: #c7c6c6;
      }

      .cls-14 {
        fill: #8c8c8b;
      }

      .cls-15 {
        fill: #901f24;
      }

      .cls-16 {
        fill: #802125;
      }

      .cls-17 {
        fill: #d0d0cf;
      }

      .cls-18 {
        fill: #898988;
      }

      .cls-19 {
        fill: #9b1d24;
      }

      .cls-20 {
        fill: #ae1a23;
      }

      .cls-21 {
        fill: #fff;
      }

      .cls-22 {
        fill: #ababaa;
      }

      .cls-23 {
        fill: #c5c5c5;
      }

      .cls-24 {
        fill: #971e24;
      }

      .cls-25 {
        fill: #cbcbcb;
      }

      .cls-26 {
        fill: #502325;
      }

      .cls-27 {
        fill: #752125;
      }

      .cls-28 {
        fill: #aa1b23;
      }

      .cls-29 {
        fill: #8f1f24;
      }

      .cls-30 {
        fill: #662225;
      }

      .cls-31 {
        fill: #d1d1d1;
      }

      .cls-32 {
        fill: #dbdbdb;
      }

      .cls-33 {
        fill: #959594;
      }

      .cls-34 {
        fill: #b0b0af;
      }

      .cls-35 {
        fill: #852025;
      }

      .cls-36 {
        fill: #592325;
      }

      .cls-37 {
        fill: #cacaca;
      }

      .cls-38 {
        fill: #d8d8d8;
      }

      .cls-39 {
        fill: #8c1f24;
      }

      .cls-40 {
        fill: #aeaeae;
      }

      .cls-41 {
        fill: #ac1a23;
      }

      .cls-42 {
        fill: #a1a1a0;
      }

      .cls-43 {
        fill: silver;
      }

      .cls-44 {
        fill: #989797;
      }

      .cls-45 {
        fill: #b51922;
      }

      .cls-46 {
        fill: #989898;
      }

      .cls-47 {
        fill: #a6a6a5;
      }

      .cls-48 {
        fill: #bc1722;
      }

      .cls-49 {
        fill: #e2e2e2;
      }

      .cls-50 {
        fill: #4b2325;
      }

      .cls-51 {
        fill: #921f24;
      }

      .cls-52 {
        fill: #3e2325;
      }

      .cls-53 {
        fill: #822025;
      }

      .cls-54 {
        fill: #562325;
      }

      .cls-55 {
        fill: #9a9a99;
      }

      .cls-56 {
        fill: #832025;
      }

      .cls-57 {
        fill: #b91722;
      }

      .cls-58 {
        fill: #762125;
      }

      .cls-59 {
        fill: #a9a9a9;
      }

      .cls-60 {
        fill: #622225;
      }

      .cls-61 {
        fill: #b1b0b0;
      }

      .cls-62 {
        fill: #7e2125;
      }

      .cls-63 {
        fill: #7c2125;
      }

      .cls-64 {
        fill: #b8b8b7;
      }

      .cls-65 {
        fill: #b2b2b2;
      }

      .cls-66 {
        fill: #a01d23;
      }

      .cls-67 {
        fill: #bababa;
      }

      .cls-68 {
        fill: #a5a5a4;
      }

      .cls-69 {
        fill: #812025;
      }

      .cls-70 {
        fill: #432325;
      }

      .cls-71 {
        fill: #c9c9c8;
      }

      .cls-72 {
        fill: #4a2325;
      }

      .cls-73 {
        fill: #981e24;
      }

      .cls-74 {
        fill: #6d2225;
      }

      .cls-75 {
        fill: #d6d6d6;
      }

      .cls-76 {
        fill: #dbdada;
      }

      .cls-77 {
        fill: #692225;
      }

      .cls-78 {
        fill: #be1622;
      }

      .cls-79 {
        fill: #792125;
      }

      .cls-80 {
        fill: #af1a23;
      }

      .cls-81 {
        fill: #4e2325;
      }

      .cls-82 {
        fill: #a61c23;
      }

      .cls-83 {
        fill: #961e24;
      }

      .cls-84 {
        fill: #e8e8e7;
      }

      .cls-85 {
        fill: #acacab;
      }

      .cls-86 {
        fill: #e0e0e0;
      }

      .cls-87 {
        fill: #4c2325;
      }

      .cls-88 {
        fill: #969695;
      }

      .cls-89 {
        fill: #8d8d8d;
      }

      .cls-90 {
        fill: #bfbfbe;
      }

      .cls-91 {
        fill: #c3c3c2;
      }

      .cls-92 {
        fill: #4f2325;
      }

      .cls-93 {
        fill: #931f24;
      }

      .cls-94 {
        fill: #c7c7c7;
      }

      .cls-95 {
        fill: #a4a4a4;
      }

      .cls-96 {
        fill: #a7a6a6;
      }

      .cls-97 {
        fill: #dedede;
      }

      .cls-98 {
        fill: #c3c3c3;
      }

      .cls-99 {
        fill: #a2a1a1;
      }

      .cls-100 {
        fill: #cfcfcf;
      }

      .cls-101 {
        fill: #d7d7d7;
      }

      .cls-102 {
        fill: #bdbdbd;
      }

      .cls-103 {
        fill: #979696;
      }

      .cls-104 {
        fill: #a91b23;
      }

      .cls-105 {
        fill: #6c2225;
      }

      .cls-106 {
        fill: #722225;
      }

      .cls-107 {
        fill: #e1e1e1;
      }

      .cls-108 {
        fill: #712225;
      }

      .cls-109 {
        fill: #e6e6e6;
      }

      .cls-110 {
        fill: #6b2225;
      }

      .cls-111 {
        fill: #e7e7e7;
      }

      .cls-112 {
        fill: #772125;
      }

      .cls-113 {
        fill: #941e24;
      }

      .cls-114 {
        fill: #642225;
      }

      .cls-115 {
        fill: #9d9c9c;
      }

      .cls-116 {
        fill: #862025;
      }

      .cls-117 {
        fill: #9b9b9a;
      }

      .cls-118 {
        fill: #5b2325;
      }

      .cls-119 {
        fill: #991e24;
      }

      .cls-120 {
        fill: #582325;
      }

      .cls-121 {
        fill: #919190;
      }

      .cls-122 {
        fill: #5a2325;
      }

      .cls-123 {
        fill: #9d1d24;
      }

      .cls-124 {
        fill: #d4d4d4;
      }

      .cls-125 {
        fill: #442325;
      }

      .cls-126 {
        fill: #472325;
      }

      .cls-127 {
        fill: #5f2325;
      }

      .cls-128 {
        fill: #951e24;
      }

      .cls-129 {
        fill: #dadada;
      }

      .cls-130 {
        fill: #3f2325;
      }

      .cls-131 {
        fill: #8e8e8e;
      }

      .cls-132 {
        fill: #702225;
      }

      .cls-133 {
        fill: #8d8c8c;
      }

      .cls-134 {
        fill: #eaeaea;
      }

      .cls-135 {
        fill: #8d1f24;
      }

      .cls-136 {
        fill: #552325;
      }

      .cls-137 {
        fill: #8a1f24;
      }

      .cls-138 {
        fill: #c8c8c8;
      }

      .cls-139 {
        fill: #e4e4e4;
      }

      .cls-140 {
        fill: #bb1722;
      }

      .cls-141 {
        fill: #b61822;
      }

      .cls-142 {
        fill: #90908f;
      }

      .cls-143 {
        fill: #612225;
      }

      .cls-144 {
        fill: #9a1d24;
      }

      .cls-145 {
        fill: #a3a3a3;
      }

      .cls-146 {
        fill: #8f8f8e;
      }

      .cls-147 {
        fill: #a41c23;
      }

      .cls-148 {
        fill: #a81b23;
      }

      .cls-149 {
        fill: #e5e5e5;
      }

      .cls-150 {
        fill: #b51822;
      }

      .cls-151 {
        fill: #8e1f24;
      }

      .cls-152 {
        fill: #b6b6b6;
      }

      .cls-153 {
        fill: #cdcdcc;
      }

      .cls-154 {
        fill: #bdbcbc;
      }

      .cls-155 {
        fill: #878787;
      }

      .cls-156 {
        fill: #5d2325;
      }

      .cls-157 {
        fill: #afafae;
      }

      .cls-158 {
        fill: #b9b8b8;
      }

      .cls-159 {
        fill: #d3d3d3;
      }

      .cls-160 {
        fill: #ebebeb;
      }

      .cls-161 {
        fill: #bebebe;
      }

      .cls-162 {
        fill: #adadad;
      }

      .cls-163 {
        fill: #d5d5d5;
      }

      .cls-164 {
        fill: #b4b4b3;
      }

      .cls-165 {
        fill: #882025;
      }

      .cls-166 {
        fill: #b01a23;
      }

      .cls-167 {
        fill: #682225;
      }

      .cls-168 {
        fill: #9f9f9e;
      }

      .cls-169 {
        fill: #dcdcdc;
      }

      .cls-170 {
        fill: #e3e2e2;
      }

      .cls-171 {
        fill: #7d2125;
      }

      .cls-172 {
        fill: #ab1b23;
      }

      .cls-173 {
        fill: #b21922;
      }

      .cls-174 {
        fill: #7f2125;
      }

      .cls-175 {
        fill: #c1c1c1;
      }

      .cls-176 {
        fill: #9c9c9b;
      }

      .cls-177 {
        fill: #999;
      }

      .cls-178 {
        fill: #e8e8e8;
      }

      .cls-179 {
        fill: #d8d7d7;
      }

      .cls-180 {
        fill: #939292;
      }

      .cls-181 {
        fill: #b1b1b1;
      }

      .cls-182 {
        fill: #6f2225;
      }

      .cls-183 {
        fill: #929191;
      }

      .cls-184 {
        fill: #482325;
      }

      .cls-185 {
        fill: #ccc;
      }

      .cls-186 {
        fill: #402325;
      }

      .cls-187 {
        fill: #602225;
      }

      .cls-188 {
        fill: #632225;
      }

      .cls-189 {
        fill: #462325;
      }

      .cls-190 {
        fill: #d1d0d0;
      }

      .cls-191 {
        fill: #412325;
      }

      .cls-192 {
        fill: #522325;
      }

      .cls-193 {
        fill: #532325;
      }

      .cls-194 {
        fill: #8a8a89;
      }

      .cls-195 {
        fill: #bbb;
      }

      .cls-196 {
        fill: #9e1d23;
      }

      .cls-197 {
        fill: #b3b3b3;
      }

      .cls-198 {
        fill: #d4d4d3;
      }

      .cls-199 {
        fill: #652225;
      }

      .cls-200 {
        fill: #8b1f24;
      }

      .cls-201 {
        fill: #4d2325;
      }

      .cls-202 {
        fill: #a0a09f;
      }

      .cls-203 {
        fill: #aaaaa9;
      }

      .cls-204 {
        fill: #ad1a23;
      }

      .cls-205 {
        fill: #c2c2c2;
      }

      .cls-206 {
        fill: #ba1722;
      }

      .cls-207 {
        fill: #7b2125;
      }

      .cls-208 {
        fill: #a51c23;
      }

      .cls-209 {
        fill: #adacac;
      }

      .cls-210 {
        fill: #a31c23;
      }

      .cls-211 {
        fill: #512325;
      }

      .cls-212 {
        fill: #672225;
      }

      .cls-213 {
        fill: #452325;
      }

      .cls-214 {
        fill: #a8a8a8;
      }

      .cls-215 {
        fill: #5c2325;
      }

      .cls-216 {
        fill: #949494;
      }

      .cls-217 {
        fill: #572325;
      }

      .cls-218 {
        fill: #cecece;
      }

      .cls-219 {
        fill: #b31922;
      }

      .cls-220 {
        fill: #6e2225;
      }

      .cls-221 {
        fill: #b5b5b5;
      }

      .cls-222 {
        fill: #d9d9d9;
      }

      .cls-223 {
        fill: #bcbcbb;
      }

      .cls-224 {
        fill: #a21c23;
      }

      .cls-225 {
        fill: #bd1622;
      }

      .cls-226 {
        fill: #cdcdcd;
      }

      .cls-227 {
        fill: #d2d2d2;
      }

      .cls-228 {
        fill: #a71b23;
      }

      .cls-229 {
        fill: #b41922;
      }

      .cls-230 {
        fill: #782125;
      }

      .cls-231 {
        fill: #9e9e9e;
      }

      .cls-232 {
        fill: #7a2125;
      }

      .cls-233 {
        fill: #542325;
      }

      .cls-234 {
        fill: #a11c23;
      }

      .cls-235 {
        fill: #cac9c9;
      }

      .cls-236 {
        fill: #732125;
      }

      .cls-237 {
        fill: #ececec;
      }

      .cls-238 {
        fill: #492325;
      }

      .cls-239 {
        fill: #742125;
      }

      .cls-240 {
        fill: #c4c4c4;
      }

      .cls-241 {
        fill: #1d1d1b;
      }

      .cls-242 {
        fill: #c6c6c5;
      }

      .cls-243 {
        fill: #422325;
      }

      .cls-244 {
        fill: #9f1d23;
      }

      .cls-245 {
        fill: #911f24;
      }

      .cls-246 {
        fill: #b91822;
      }

      .cls-247 {
        fill: #888;
      }

      .cls-248 {
        fill: #c0bfbf;
      }

      .cls-249 {
        fill: #b71822;
      }

      .cls-250 {
        fill: #a2a2a2;
      }

      .cls-251 {
        fill: #892024;
      }

      .cls-252 {
        fill: #b11922;
      }

      .cls-253 {
        fill: #872025;
      }

      .cls-254 {
        fill: #842025;
      }

      .cls-255 {
        fill: #b9b9b9;
      }

      .cls-256 {
        fill: #6a2225;
      }

      .cls-257 {
        fill: #e3e3e3;
      }

      .cls-258 {
        fill: #9c1d24;
      }

      .cls-259 {
        fill: #ededed;
      }

      .cls-260 {
        fill: #e0e0df;
      }

      .cls-261 {
        fill: #dfdfdf;
      }
    </style>
  </defs>
  <g>
    <rect class="cls-11" x="160.57" y="-22.43" width="66.86" height="226.86" transform="translate(61.1 259.08) rotate(-76.8)"/>
    <rect class="cls-11" x="160.4" y="-22.61" width="66.86" height="226.86" transform="translate(61.14 258.77) rotate(-76.8)"/>
    <rect class="cls-52" x="160.22" y="-22.8" width="66.86" height="226.86" transform="translate(61.18 258.46) rotate(-76.8)"/>
    <rect class="cls-130" x="160.04" y="-22.98" width="66.86" height="226.86" transform="translate(61.22 258.14) rotate(-76.8)"/>
    <rect class="cls-130" x="159.86" y="-23.16" width="66.86" height="226.86" transform="translate(61.26 257.83) rotate(-76.8)"/>
    <rect class="cls-186" x="159.69" y="-23.34" width="66.86" height="226.86" transform="translate(61.3 257.52) rotate(-76.8)"/>
    <rect class="cls-191" x="159.51" y="-23.52" width="66.86" height="226.86" transform="translate(61.34 257.21) rotate(-76.8)"/>
    <rect class="cls-191" x="159.33" y="-23.7" width="66.86" height="226.86" transform="translate(61.38 256.89) rotate(-76.8)"/>
    <rect class="cls-243" x="159.15" y="-23.89" width="66.86" height="226.86" transform="translate(61.42 256.58) rotate(-76.8)"/>
    <rect class="cls-70" x="158.98" y="-24.07" width="66.86" height="226.86" transform="translate(61.46 256.27) rotate(-76.8)"/>
    <rect class="cls-70" x="158.8" y="-24.25" width="66.86" height="226.86" transform="translate(61.5 255.95) rotate(-76.8)"/>
    <rect class="cls-125" x="158.62" y="-24.43" width="66.86" height="226.86" transform="translate(61.54 255.64) rotate(-76.8)"/>
    <rect class="cls-213" x="158.44" y="-24.61" width="66.86" height="226.86" transform="translate(61.58 255.33) rotate(-76.8)"/>
    <rect class="cls-213" x="158.27" y="-24.8" width="66.86" height="226.86" transform="translate(61.62 255.01) rotate(-76.8)"/>
    <rect class="cls-189" x="158.09" y="-24.98" width="66.86" height="226.86" transform="translate(61.66 254.7) rotate(-76.8)"/>
    <rect class="cls-126" x="157.91" y="-25.16" width="66.86" height="226.86" transform="translate(61.7 254.39) rotate(-76.8)"/>
    <rect class="cls-126" x="157.73" y="-25.34" width="66.86" height="226.86" transform="translate(61.74 254.07) rotate(-76.8)"/>
    <rect class="cls-184" x="157.56" y="-25.52" width="66.86" height="226.86" transform="translate(61.78 253.76) rotate(-76.8)"/>
    <rect class="cls-238" x="157.38" y="-25.7" width="66.86" height="226.86" transform="translate(61.82 253.45) rotate(-76.8)"/>
    <rect class="cls-238" x="157.2" y="-25.89" width="66.86" height="226.86" transform="translate(61.86 253.13) rotate(-76.8)"/>
    <rect class="cls-72" x="157.02" y="-26.07" width="66.86" height="226.86" transform="translate(61.9 252.82) rotate(-76.8)"/>
    <rect class="cls-50" x="156.85" y="-26.25" width="66.86" height="226.86" transform="translate(61.94 252.51) rotate(-76.8)"/>
    <rect class="cls-50" x="156.67" y="-26.43" width="66.86" height="226.86" transform="translate(61.98 252.2) rotate(-76.8)"/>
    <rect class="cls-87" x="156.49" y="-26.61" width="66.86" height="226.86" transform="translate(62.02 251.88) rotate(-76.8)"/>
    <rect class="cls-201" x="156.31" y="-26.8" width="66.86" height="226.86" transform="translate(62.06 251.57) rotate(-76.8)"/>
    <rect class="cls-201" x="156.14" y="-26.98" width="66.86" height="226.86" transform="translate(62.1 251.26) rotate(-76.8)"/>
    <rect class="cls-81" x="155.96" y="-27.16" width="66.86" height="226.86" transform="translate(62.14 250.94) rotate(-76.8)"/>
    <rect class="cls-92" x="155.78" y="-27.34" width="66.86" height="226.86" transform="translate(62.18 250.63) rotate(-76.8)"/>
    <rect class="cls-92" x="155.6" y="-27.52" width="66.86" height="226.86" transform="translate(62.22 250.32) rotate(-76.8)"/>
    <rect class="cls-26" x="155.43" y="-27.7" width="66.86" height="226.86" transform="translate(62.26 250) rotate(-76.8)"/>
    <rect class="cls-211" x="155.25" y="-27.89" width="66.86" height="226.86" transform="translate(62.3 249.69) rotate(-76.8)"/>
    <rect class="cls-211" x="155.07" y="-28.07" width="66.86" height="226.86" transform="translate(62.34 249.38) rotate(-76.8)"/>
    <rect class="cls-192" x="154.89" y="-28.25" width="66.86" height="226.86" transform="translate(62.38 249.06) rotate(-76.8)"/>
    <rect class="cls-193" x="154.71" y="-28.43" width="66.86" height="226.86" transform="translate(62.42 248.75) rotate(-76.8)"/>
    <rect class="cls-193" x="154.54" y="-28.61" width="66.86" height="226.86" transform="translate(62.46 248.44) rotate(-76.8)"/>
    <rect class="cls-233" x="154.36" y="-28.79" width="66.86" height="226.86" transform="translate(62.5 248.12) rotate(-76.8)"/>
    <rect class="cls-136" x="154.18" y="-28.98" width="66.86" height="226.86" transform="translate(62.54 247.81) rotate(-76.8)"/>
    <rect class="cls-136" x="154" y="-29.16" width="66.86" height="226.86" transform="translate(62.58 247.5) rotate(-76.8)"/>
    <rect class="cls-54" x="153.83" y="-29.34" width="66.86" height="226.86" transform="translate(62.62 247.18) rotate(-76.8)"/>
    <rect class="cls-217" x="153.65" y="-29.52" width="66.86" height="226.86" transform="translate(62.66 246.87) rotate(-76.8)"/>
    <rect class="cls-217" x="153.47" y="-29.7" width="66.86" height="226.86" transform="translate(62.7 246.56) rotate(-76.8)"/>
    <rect class="cls-120" x="153.29" y="-29.89" width="66.86" height="226.86" transform="translate(62.74 246.25) rotate(-76.8)"/>
    <rect class="cls-36" x="153.12" y="-30.07" width="66.86" height="226.86" transform="translate(62.78 245.93) rotate(-76.8)"/>
    <rect class="cls-122" x="152.94" y="-30.25" width="66.86" height="226.86" transform="translate(62.82 245.62) rotate(-76.8)"/>
    <rect class="cls-122" x="152.76" y="-30.43" width="66.86" height="226.86" transform="translate(62.86 245.31) rotate(-76.8)"/>
    <rect class="cls-118" x="152.58" y="-30.61" width="66.86" height="226.86" transform="translate(62.9 244.99) rotate(-76.8)"/>
    <rect class="cls-215" x="152.41" y="-30.79" width="66.86" height="226.86" transform="translate(62.94 244.68) rotate(-76.8)"/>
    <rect class="cls-215" x="152.23" y="-30.98" width="66.86" height="226.86" transform="translate(62.98 244.37) rotate(-76.8)"/>
    <rect class="cls-156" x="152.05" y="-31.16" width="66.86" height="226.86" transform="translate(63.02 244.05) rotate(-76.8)"/>
    <rect class="cls-12" x="151.87" y="-31.34" width="66.86" height="226.86" transform="translate(63.06 243.74) rotate(-76.8)"/>
    <rect class="cls-12" x="151.7" y="-31.52" width="66.86" height="226.86" transform="translate(63.1 243.43) rotate(-76.8)"/>
    <rect class="cls-127" x="151.52" y="-31.7" width="66.86" height="226.86" transform="translate(63.14 243.11) rotate(-76.8)"/>
    <rect class="cls-187" x="151.34" y="-31.89" width="66.86" height="226.86" transform="translate(63.18 242.8) rotate(-76.8)"/>
    <rect class="cls-143" x="151.16" y="-32.07" width="66.86" height="226.86" transform="translate(63.22 242.49) rotate(-76.8)"/>
    <rect class="cls-143" x="150.99" y="-32.25" width="66.86" height="226.86" transform="translate(63.26 242.17) rotate(-76.8)"/>
    <rect class="cls-60" x="150.81" y="-32.43" width="66.86" height="226.86" transform="translate(63.3 241.86) rotate(-76.8)"/>
    <rect class="cls-188" x="150.63" y="-32.61" width="66.86" height="226.86" transform="translate(63.34 241.55) rotate(-76.8)"/>
    <rect class="cls-188" x="150.45" y="-32.79" width="66.86" height="226.86" transform="translate(63.38 241.24) rotate(-76.8)"/>
    <rect class="cls-114" x="150.28" y="-32.98" width="66.86" height="226.86" transform="translate(63.42 240.92) rotate(-76.8)"/>
    <rect class="cls-199" x="150.1" y="-33.16" width="66.86" height="226.86" transform="translate(63.46 240.61) rotate(-76.8)"/>
    <rect class="cls-30" x="149.92" y="-33.34" width="66.86" height="226.86" transform="translate(63.5 240.3) rotate(-76.8)"/>
    <rect class="cls-30" x="149.74" y="-33.52" width="66.86" height="226.86" transform="translate(63.54 239.98) rotate(-76.8)"/>
    <rect class="cls-212" x="149.57" y="-33.7" width="66.86" height="226.86" transform="translate(63.58 239.67) rotate(-76.8)"/>
    <rect class="cls-167" x="149.39" y="-33.89" width="66.86" height="226.86" transform="translate(63.62 239.36) rotate(-76.8)"/>
    <rect class="cls-77" x="149.21" y="-34.07" width="66.86" height="226.86" transform="translate(63.66 239.04) rotate(-76.8)"/>
    <rect class="cls-77" x="149.03" y="-34.25" width="66.86" height="226.86" transform="translate(63.7 238.73) rotate(-76.8)"/>
    <rect class="cls-256" x="148.86" y="-34.43" width="66.86" height="226.86" transform="translate(63.74 238.42) rotate(-76.8)"/>
    <rect class="cls-110" x="148.68" y="-34.61" width="66.86" height="226.86" transform="translate(63.78 238.1) rotate(-76.8)"/>
    <rect class="cls-105" x="148.5" y="-34.79" width="66.86" height="226.86" transform="translate(63.82 237.79) rotate(-76.8)"/>
    <rect class="cls-105" x="148.32" y="-34.98" width="66.86" height="226.86" transform="translate(63.86 237.48) rotate(-76.8)"/>
    <rect class="cls-74" x="148.15" y="-35.16" width="66.86" height="226.86" transform="translate(63.9 237.16) rotate(-76.8)"/>
    <rect class="cls-220" x="147.97" y="-35.34" width="66.86" height="226.86" transform="translate(63.94 236.85) rotate(-76.8)"/>
    <rect class="cls-220" x="147.79" y="-35.52" width="66.86" height="226.86" transform="translate(63.98 236.54) rotate(-76.8)"/>
    <rect class="cls-182" x="147.61" y="-35.7" width="66.86" height="226.86" transform="translate(64.02 236.23) rotate(-76.8)"/>
    <rect class="cls-132" x="147.43" y="-35.88" width="66.86" height="226.86" transform="translate(64.06 235.91) rotate(-76.8)"/>
    <rect class="cls-108" x="147.26" y="-36.07" width="66.86" height="226.86" transform="translate(64.1 235.6) rotate(-76.8)"/>
    <rect class="cls-108" x="147.08" y="-36.25" width="66.86" height="226.86" transform="translate(64.14 235.29) rotate(-76.8)"/>
    <rect class="cls-106" x="146.9" y="-36.43" width="66.86" height="226.86" transform="translate(64.18 234.97) rotate(-76.8)"/>
    <rect class="cls-236" x="146.72" y="-36.61" width="66.86" height="226.86" transform="translate(64.22 234.66) rotate(-76.8)"/>
    <rect class="cls-239" x="146.55" y="-36.79" width="66.86" height="226.86" transform="translate(64.26 234.35) rotate(-76.8)"/>
    <rect class="cls-239" x="146.37" y="-36.98" width="66.86" height="226.86" transform="translate(64.3 234.03) rotate(-76.8)"/>
    <rect class="cls-27" x="146.19" y="-37.16" width="66.86" height="226.86" transform="translate(64.34 233.72) rotate(-76.8)"/>
    <rect class="cls-58" x="146.01" y="-37.34" width="66.86" height="226.86" transform="translate(64.38 233.41) rotate(-76.8)"/>
    <rect class="cls-112" x="145.84" y="-37.52" width="66.86" height="226.86" transform="translate(64.42 233.09) rotate(-76.8)"/>
    <rect class="cls-112" x="145.66" y="-37.7" width="66.86" height="226.86" transform="translate(64.46 232.78) rotate(-76.8)"/>
    <rect class="cls-230" x="145.48" y="-37.88" width="66.86" height="226.86" transform="translate(64.5 232.47) rotate(-76.8)"/>
    <rect class="cls-79" x="145.3" y="-38.07" width="66.86" height="226.86" transform="translate(64.54 232.15) rotate(-76.8)"/>
    <rect class="cls-79" x="145.13" y="-38.25" width="66.86" height="226.86" transform="translate(64.58 231.84) rotate(-76.8)"/>
    <rect class="cls-232" x="144.95" y="-38.43" width="66.86" height="226.86" transform="translate(64.62 231.53) rotate(-76.8)"/>
    <rect class="cls-207" x="144.77" y="-38.61" width="66.86" height="226.86" transform="translate(64.66 231.21) rotate(-76.8)"/>
    <rect class="cls-63" x="144.59" y="-38.79" width="66.86" height="226.86" transform="translate(64.7 230.9) rotate(-76.8)"/>
    <rect class="cls-63" x="144.42" y="-38.98" width="66.86" height="226.86" transform="translate(64.74 230.59) rotate(-76.8)"/>
    <rect class="cls-171" x="144.24" y="-39.16" width="66.86" height="226.86" transform="translate(64.78 230.28) rotate(-76.8)"/>
    <rect class="cls-62" x="144.06" y="-39.34" width="66.86" height="226.86" transform="translate(64.82 229.96) rotate(-76.8)"/>
    <rect class="cls-62" x="143.88" y="-39.52" width="66.86" height="226.86" transform="translate(64.86 229.65) rotate(-76.8)"/>
    <rect class="cls-174" x="143.71" y="-39.7" width="66.86" height="226.86" transform="translate(64.9 229.34) rotate(-76.8)"/>
    <rect class="cls-16" x="143.53" y="-39.88" width="66.86" height="226.86" transform="translate(64.94 229.02) rotate(-76.8)"/>
    <rect class="cls-69" x="143.35" y="-40.07" width="66.86" height="226.86" transform="translate(64.98 228.71) rotate(-76.8)"/>
    <rect class="cls-69" x="143.17" y="-40.25" width="66.86" height="226.86" transform="translate(65.02 228.4) rotate(-76.8)"/>
    <rect class="cls-53" x="143" y="-40.43" width="66.86" height="226.86" transform="translate(65.06 228.08) rotate(-76.8)"/>
    <rect class="cls-56" x="142.82" y="-40.61" width="66.86" height="226.86" transform="translate(65.1 227.77) rotate(-76.8)"/>
    <rect class="cls-56" x="142.64" y="-40.79" width="66.86" height="226.86" transform="translate(65.14 227.46) rotate(-76.8)"/>
    <rect class="cls-254" x="142.46" y="-40.98" width="66.86" height="226.86" transform="translate(65.18 227.14) rotate(-76.8)"/>
    <rect class="cls-35" x="142.29" y="-41.16" width="66.86" height="226.86" transform="translate(65.22 226.83) rotate(-76.8)"/>
    <rect class="cls-116" x="142.11" y="-41.34" width="66.86" height="226.86" transform="translate(65.26 226.52) rotate(-76.8)"/>
    <rect class="cls-116" x="141.93" y="-41.52" width="66.86" height="226.86" transform="translate(65.3 226.2) rotate(-76.8)"/>
    <rect class="cls-253" x="141.75" y="-41.7" width="66.86" height="226.86" transform="translate(65.34 225.89) rotate(-76.8)"/>
    <rect class="cls-165" x="141.58" y="-41.88" width="66.86" height="226.86" transform="translate(65.38 225.58) rotate(-76.8)"/>
    <rect class="cls-165" x="141.4" y="-42.07" width="66.86" height="226.86" transform="translate(65.42 225.27) rotate(-76.8)"/>
    <rect class="cls-251" x="141.22" y="-42.25" width="66.86" height="226.86" transform="translate(65.46 224.95) rotate(-76.8)"/>
    <rect class="cls-137" x="141.04" y="-42.43" width="66.86" height="226.86" transform="translate(65.5 224.64) rotate(-76.8)"/>
    <rect class="cls-200" x="140.87" y="-42.61" width="66.86" height="226.86" transform="translate(65.54 224.33) rotate(-76.8)"/>
    <rect class="cls-200" x="140.69" y="-42.79" width="66.86" height="226.86" transform="translate(65.58 224.01) rotate(-76.8)"/>
    <rect class="cls-39" x="140.51" y="-42.97" width="66.86" height="226.86" transform="translate(65.62 223.7) rotate(-76.8)"/>
    <rect class="cls-135" x="140.33" y="-43.16" width="66.86" height="226.86" transform="translate(65.65 223.39) rotate(-76.8)"/>
    <rect class="cls-151" x="140.15" y="-43.34" width="66.86" height="226.86" transform="translate(65.69 223.07) rotate(-76.8)"/>
    <rect class="cls-151" x="139.98" y="-43.52" width="66.86" height="226.86" transform="translate(65.73 222.76) rotate(-76.8)"/>
    <rect class="cls-29" x="139.8" y="-43.7" width="66.86" height="226.86" transform="translate(65.77 222.45) rotate(-76.8)"/>
    <rect class="cls-15" x="139.62" y="-43.88" width="66.86" height="226.86" transform="translate(65.81 222.13) rotate(-76.8)"/>
    <rect class="cls-245" x="139.44" y="-44.07" width="66.86" height="226.86" transform="translate(65.85 221.82) rotate(-76.8)"/>
    <rect class="cls-245" x="139.27" y="-44.25" width="66.86" height="226.86" transform="translate(65.89 221.51) rotate(-76.8)"/>
    <rect class="cls-51" x="139.09" y="-44.43" width="66.86" height="226.86" transform="translate(65.93 221.19) rotate(-76.8)"/>
    <rect class="cls-93" x="138.91" y="-44.61" width="66.86" height="226.86" transform="translate(65.97 220.88) rotate(-76.8)"/>
    <rect class="cls-113" x="138.73" y="-44.79" width="66.86" height="226.86" transform="translate(66.01 220.57) rotate(-76.8)"/>
    <rect class="cls-113" x="138.56" y="-44.97" width="66.86" height="226.86" transform="translate(66.05 220.26) rotate(-76.8)"/>
    <rect class="cls-128" x="138.38" y="-45.16" width="66.86" height="226.86" transform="translate(66.09 219.94) rotate(-76.8)"/>
    <rect class="cls-83" x="138.2" y="-45.34" width="66.86" height="226.86" transform="translate(66.13 219.63) rotate(-76.8)"/>
    <rect class="cls-24" x="138.02" y="-45.52" width="66.86" height="226.86" transform="translate(66.17 219.32) rotate(-76.8)"/>
    <rect class="cls-24" x="137.85" y="-45.7" width="66.86" height="226.86" transform="translate(66.21 219) rotate(-76.8)"/>
    <rect class="cls-73" x="137.67" y="-45.88" width="66.86" height="226.86" transform="translate(66.25 218.69) rotate(-76.8)"/>
    <rect class="cls-119" x="137.49" y="-46.07" width="66.86" height="226.86" transform="translate(66.29 218.38) rotate(-76.8)"/>
    <rect class="cls-2" x="137.31" y="-46.25" width="66.86" height="226.86" transform="translate(66.33 218.06) rotate(-76.8)"/>
    <rect class="cls-144" x="137.14" y="-46.43" width="66.86" height="226.86" transform="translate(66.37 217.75) rotate(-76.8)"/>
    <rect class="cls-19" x="136.96" y="-46.61" width="66.86" height="226.86" transform="translate(66.41 217.44) rotate(-76.8)"/>
    <rect class="cls-258" x="136.78" y="-46.79" width="66.86" height="226.86" transform="translate(66.45 217.12) rotate(-76.8)"/>
    <rect class="cls-123" x="136.6" y="-46.97" width="66.86" height="226.86" transform="translate(66.49 216.81) rotate(-76.8)"/>
    <rect class="cls-123" x="136.43" y="-47.16" width="66.86" height="226.86" transform="translate(66.53 216.5) rotate(-76.8)"/>
    <rect class="cls-196" x="136.25" y="-47.34" width="66.86" height="226.86" transform="translate(66.57 216.18) rotate(-76.8)"/>
    <rect class="cls-244" x="136.07" y="-47.52" width="66.86" height="226.86" transform="translate(66.61 215.87) rotate(-76.8)"/>
    <rect class="cls-66" x="135.89" y="-47.7" width="66.86" height="226.86" transform="translate(66.65 215.56) rotate(-76.8)"/>
    <rect class="cls-234" x="135.72" y="-47.88" width="66.86" height="226.86" transform="translate(66.69 215.24) rotate(-76.8)"/>
    <rect class="cls-234" x="135.54" y="-48.07" width="66.86" height="226.86" transform="translate(66.73 214.93) rotate(-76.8)"/>
    <rect class="cls-224" x="135.36" y="-48.25" width="66.86" height="226.86" transform="translate(66.77 214.62) rotate(-76.8)"/>
    <rect class="cls-210" x="135.18" y="-48.43" width="66.86" height="226.86" transform="translate(66.81 214.31) rotate(-76.8)"/>
    <rect class="cls-147" x="135.01" y="-48.61" width="66.86" height="226.86" transform="translate(66.85 213.99) rotate(-76.8)"/>
    <rect class="cls-147" x="134.83" y="-48.79" width="66.86" height="226.86" transform="translate(66.89 213.68) rotate(-76.8)"/>
    <rect class="cls-208" x="134.65" y="-48.97" width="66.86" height="226.86" transform="translate(66.93 213.37) rotate(-76.8)"/>
    <rect class="cls-82" x="134.47" y="-49.16" width="66.86" height="226.86" transform="translate(66.97 213.05) rotate(-76.8)"/>
    <rect class="cls-228" x="134.3" y="-49.34" width="66.86" height="226.86" transform="translate(67.01 212.74) rotate(-76.8)"/>
    <rect class="cls-228" x="134.12" y="-49.52" width="66.86" height="226.86" transform="translate(67.05 212.43) rotate(-76.8)"/>
    <rect class="cls-148" x="133.94" y="-49.7" width="66.86" height="226.86" transform="translate(67.09 212.11) rotate(-76.8)"/>
    <rect class="cls-104" x="133.76" y="-49.88" width="66.86" height="226.86" transform="translate(67.13 211.8) rotate(-76.8)"/>
    <rect class="cls-28" x="133.59" y="-50.06" width="66.86" height="226.86" transform="translate(67.17 211.49) rotate(-76.8)"/>
    <rect class="cls-28" x="133.41" y="-50.25" width="66.86" height="226.86" transform="translate(67.21 211.17) rotate(-76.8)"/>
    <rect class="cls-172" x="133.23" y="-50.43" width="66.86" height="226.86" transform="translate(67.25 210.86) rotate(-76.8)"/>
    <rect class="cls-41" x="133.05" y="-50.61" width="66.86" height="226.86" transform="translate(67.29 210.55) rotate(-76.8)"/>
    <rect class="cls-204" x="132.87" y="-50.79" width="66.86" height="226.86" transform="translate(67.33 210.23) rotate(-76.8)"/>
    <rect class="cls-204" x="132.7" y="-50.97" width="66.86" height="226.86" transform="translate(67.37 209.92) rotate(-76.8)"/>
    <rect class="cls-20" x="132.52" y="-51.16" width="66.86" height="226.86" transform="translate(67.41 209.61) rotate(-76.8)"/>
    <rect class="cls-80" x="132.34" y="-51.34" width="66.86" height="226.86" transform="translate(67.45 209.3) rotate(-76.8)"/>
    <rect class="cls-80" x="132.16" y="-51.52" width="66.86" height="226.86" transform="translate(67.49 208.98) rotate(-76.8)"/>
    <rect class="cls-166" x="131.99" y="-51.7" width="66.86" height="226.86" transform="translate(67.53 208.67) rotate(-76.8)"/>
    <rect class="cls-252" x="131.81" y="-51.88" width="66.86" height="226.86" transform="translate(67.57 208.36) rotate(-76.8)"/>
    <rect class="cls-173" x="131.63" y="-52.06" width="66.86" height="226.86" transform="translate(67.61 208.04) rotate(-76.8)"/>
    <rect class="cls-173" x="131.45" y="-52.25" width="66.86" height="226.86" transform="translate(67.65 207.73) rotate(-76.8)"/>
    <rect class="cls-219" x="131.28" y="-52.43" width="66.86" height="226.86" transform="translate(67.69 207.42) rotate(-76.8)"/>
    <rect class="cls-229" x="131.1" y="-52.61" width="66.86" height="226.86" transform="translate(67.73 207.1) rotate(-76.8)"/>
    <rect class="cls-45" x="130.92" y="-52.79" width="66.86" height="226.86" transform="translate(67.77 206.79) rotate(-76.8)"/>
    <rect class="cls-150" x="130.74" y="-52.97" width="66.86" height="226.86" transform="translate(67.81 206.48) rotate(-76.8)"/>
    <rect class="cls-141" x="130.57" y="-53.16" width="66.86" height="226.86" transform="translate(67.85 206.16) rotate(-76.8)"/>
    <rect class="cls-249" x="130.39" y="-53.34" width="66.86" height="226.86" transform="translate(67.89 205.85) rotate(-76.8)"/>
    <rect class="cls-9" x="130.21" y="-53.52" width="66.86" height="226.86" transform="translate(67.93 205.54) rotate(-76.8)"/>
    <rect class="cls-246" x="130.03" y="-53.7" width="66.86" height="226.86" transform="translate(67.97 205.22) rotate(-76.8)"/>
    <rect class="cls-57" x="129.86" y="-53.88" width="66.86" height="226.86" transform="translate(68.01 204.91) rotate(-76.8)"/>
    <rect class="cls-206" x="129.68" y="-54.06" width="66.86" height="226.86" transform="translate(68.05 204.6) rotate(-76.8)"/>
    <rect class="cls-140" x="129.5" y="-54.25" width="66.86" height="226.86" transform="translate(68.09 204.29) rotate(-76.8)"/>
    <rect class="cls-48" x="129.32" y="-54.43" width="66.86" height="226.86" transform="translate(68.13 203.97) rotate(-76.8)"/>
    <rect class="cls-48" x="129.15" y="-54.61" width="66.86" height="226.86" transform="translate(68.17 203.66) rotate(-76.8)"/>
    <rect class="cls-225" x="128.97" y="-54.79" width="66.86" height="226.86" transform="translate(68.21 203.35) rotate(-76.8)"/>
    <rect class="cls-78" x="128.79" y="-54.97" width="66.86" height="226.86" transform="translate(68.25 203.03) rotate(-76.8)"/>
  </g>
  <g>
    <path class="cls-155" d="m296.82,149.37l-220.86-51.82-43.14,183.86c-4.79,20.43,7.88,40.88,28.31,45.68l146.87,34.46c20.43,4.79,40.88-7.88,45.68-28.31l43.14-183.86Z"/>
    <path class="cls-247" d="m296.57,149.12l-220.86-51.82-43.14,183.86c-4.79,20.43,7.88,40.88,28.31,45.68l146.87,34.46c20.43,4.79,40.88-7.88,45.68-28.31l43.14-183.86Z"/>
    <path class="cls-18" d="m296.32,148.86l-220.86-51.82-43.14,183.86c-4.79,20.43,7.88,40.88,28.31,45.68l146.87,34.46c20.43,4.79,40.88-7.88,45.68-28.31l43.14-183.86Z"/>
    <path class="cls-194" d="m296.07,148.61l-220.86-51.82-43.14,183.86c-4.79,20.43,7.88,40.88,28.31,45.68l146.87,34.46c20.43,4.79,40.88-7.88,45.68-28.31l43.14-183.86Z"/>
    <path class="cls-8" d="m295.82,148.36l-220.86-51.82-43.14,183.86c-4.79,20.43,7.88,40.88,28.31,45.68l146.87,34.46c20.43,4.79,40.88-7.88,45.68-28.31l43.14-183.86Z"/>
    <path class="cls-14" d="m295.57,148.1l-220.86-51.82-43.14,183.86c-4.79,20.43,7.88,40.88,28.31,45.68l146.87,34.46c20.43,4.79,40.88-7.88,45.68-28.31l43.14-183.86Z"/>
    <path class="cls-133" d="m295.32,147.85l-220.86-51.82-43.14,183.86c-4.79,20.43,7.88,40.88,28.31,45.68l146.87,34.46c20.43,4.79,40.88-7.88,45.68-28.31l43.14-183.86Z"/>
    <path class="cls-89" d="m295.08,147.6l-220.86-51.82-43.14,183.86c-4.79,20.43,7.88,40.88,28.31,45.68l146.87,34.46c20.43,4.79,40.88-7.88,45.68-28.31l43.14-183.86Z"/>
    <path class="cls-131" d="m294.83,147.34l-220.86-51.82-43.14,183.86c-4.79,20.43,7.88,40.88,28.31,45.68l146.87,34.46c20.43,4.79,40.88-7.88,45.68-28.31l43.14-183.86Z"/>
    <path class="cls-146" d="m294.58,147.09l-220.86-51.82-43.14,183.86c-4.79,20.43,7.88,40.88,28.31,45.68l146.87,34.46c20.43,4.79,40.88-7.88,45.68-28.31l43.14-183.86Z"/>
    <path class="cls-142" d="m294.33,146.84l-220.86-51.82-43.14,183.86c-4.79,20.43,7.88,40.88,28.31,45.68l146.87,34.46c20.43,4.79,40.88-7.88,45.68-28.31l43.14-183.86Z"/>
    <path class="cls-121" d="m294.08,146.58l-220.86-51.82-43.14,183.86c-4.79,20.43,7.88,40.88,28.31,45.68l146.87,34.46c20.43,4.79,40.88-7.88,45.68-28.31l43.14-183.86Z"/>
    <path class="cls-183" d="m293.83,146.33l-220.86-51.82-43.14,183.86c-4.79,20.43,7.88,40.88,28.31,45.68l146.87,34.46c20.43,4.79,40.88-7.88,45.68-28.31l43.14-183.86Z"/>
    <path class="cls-180" d="m293.59,146.07l-220.86-51.82-43.14,183.86c-4.79,20.43,7.88,40.88,28.31,45.68l146.87,34.46c20.43,4.79,40.88-7.88,45.68-28.31l43.14-183.86Z"/>
    <path class="cls-5" d="m293.34,145.82l-220.86-51.82-43.14,183.86c-4.79,20.43,7.88,40.88,28.31,45.68l146.87,34.46c20.43,4.79,40.88-7.88,45.68-28.31l43.14-183.86Z"/>
    <path class="cls-216" d="m293.09,145.57l-220.86-51.82-43.14,183.86c-4.79,20.43,7.88,40.88,28.31,45.68l146.87,34.46c20.43,4.79,40.88-7.88,45.68-28.31l43.14-183.86Z"/>
    <path class="cls-33" d="m292.84,145.31l-220.86-51.82-43.14,183.86c-4.79,20.43,7.88,40.88,28.31,45.68l146.87,34.46c20.43,4.79,40.88-7.88,45.68-28.31l43.14-183.86Z"/>
    <path class="cls-88" d="m292.59,145.06l-220.86-51.82-43.14,183.86c-4.79,20.43,7.88,40.88,28.31,45.68l146.87,34.46c20.43,4.79,40.88-7.88,45.68-28.31l43.14-183.86Z"/>
    <path class="cls-103" d="m292.34,144.81l-220.86-51.82-43.14,183.86c-4.79,20.43,7.88,40.88,28.31,45.68l146.87,34.46c20.43,4.79,40.88-7.88,45.68-28.31l43.14-183.86Z"/>
    <path class="cls-44" d="m292.09,144.55l-220.86-51.82-43.14,183.86c-4.79,20.43,7.88,40.88,28.31,45.68l146.87,34.46c20.43,4.79,40.88-7.88,45.68-28.31l43.14-183.86Z"/>
    <path class="cls-46" d="m291.85,144.3l-220.86-51.82-43.14,183.86c-4.79,20.43,7.88,40.88,28.31,45.68l146.87,34.46c20.43,4.79,40.88-7.88,45.68-28.31l43.14-183.86Z"/>
    <path class="cls-177" d="m291.6,144.05l-220.86-51.82-43.14,183.86c-4.79,20.43,7.88,40.88,28.31,45.68l146.87,34.46c20.43,4.79,40.88-7.88,45.68-28.31l43.14-183.86Z"/>
    <path class="cls-55" d="m291.35,143.79l-220.86-51.82-43.14,183.86c-4.79,20.43,7.88,40.88,28.31,45.68l146.87,34.46c20.43,4.79,40.88-7.88,45.68-28.31l43.14-183.86Z"/>
    <path class="cls-117" d="m291.1,143.54l-220.86-51.82-43.14,183.86c-4.79,20.43,7.88,40.88,28.31,45.68l146.87,34.46c20.43,4.79,40.88-7.88,45.68-28.31l43.14-183.86Z"/>
    <path class="cls-176" d="m290.85,143.29l-220.86-51.82-43.14,183.86c-4.79,20.43,7.88,40.88,28.31,45.68l146.87,34.46c20.43,4.79,40.88-7.88,45.68-28.31l43.14-183.86Z"/>
    <path class="cls-115" d="m290.6,143.03l-220.86-51.82-43.14,183.86c-4.79,20.43,7.88,40.88,28.31,45.68l146.87,34.46c20.43,4.79,40.88-7.88,45.68-28.31l43.14-183.86Z"/>
    <path class="cls-3" d="m290.36,142.78l-220.86-51.82-43.14,183.86c-4.79,20.43,7.88,40.88,28.31,45.68l146.87,34.46c20.43,4.79,40.88-7.88,45.68-28.31l43.14-183.86Z"/>
    <path class="cls-231" d="m290.11,142.52l-220.86-51.82-43.14,183.86c-4.79,20.43,7.88,40.88,28.31,45.68l146.87,34.46c20.43,4.79,40.88-7.88,45.68-28.31l43.14-183.86Z"/>
    <path class="cls-168" d="m289.86,142.27l-220.86-51.82-43.14,183.86c-4.79,20.43,7.88,40.88,28.31,45.68l146.87,34.46c20.43,4.79,40.88-7.88,45.68-28.31l43.14-183.86Z"/>
    <path class="cls-202" d="m289.61,142.02l-220.86-51.82-43.14,183.86c-4.79,20.43,7.88,40.88,28.31,45.68l146.87,34.46c20.43,4.79,40.88-7.88,45.68-28.31l43.14-183.86Z"/>
    <path class="cls-42" d="m289.36,141.76l-220.86-51.82-43.14,183.86c-4.79,20.43,7.88,40.88,28.31,45.68l146.87,34.46c20.43,4.79,40.88-7.88,45.68-28.31l43.14-183.86Z"/>
    <path class="cls-99" d="m289.11,141.51l-220.86-51.82-43.14,183.86c-4.79,20.43,7.88,40.88,28.31,45.68l146.87,34.46c20.43,4.79,40.88-7.88,45.68-28.31l43.14-183.86Z"/>
    <path class="cls-250" d="m288.86,141.26l-220.86-51.82-43.14,183.86c-4.79,20.43,7.88,40.88,28.31,45.68l146.87,34.46c20.43,4.79,40.88-7.88,45.68-28.31l43.14-183.86Z"/>
    <path class="cls-145" d="m288.62,141l-220.86-51.82-43.14,183.86c-4.79,20.43,7.88,40.88,28.31,45.68l146.87,34.46c20.43,4.79,40.88-7.88,45.68-28.31l43.14-183.86Z"/>
    <path class="cls-95" d="m288.37,140.75l-220.86-51.82-43.14,183.86c-4.79,20.43,7.88,40.88,28.31,45.68l146.87,34.46c20.43,4.79,40.88-7.88,45.68-28.31l43.14-183.86Z"/>
    <path class="cls-68" d="m288.12,140.5l-220.86-51.82-43.14,183.86c-4.79,20.43,7.88,40.88,28.31,45.68l146.87,34.46c20.43,4.79,40.88-7.88,45.68-28.31l43.14-183.86Z"/>
    <path class="cls-47" d="m287.87,140.24l-220.86-51.82-43.14,183.86c-4.79,20.43,7.88,40.88,28.31,45.68l146.87,34.46c20.43,4.79,40.88-7.88,45.68-28.31l43.14-183.86Z"/>
    <path class="cls-96" d="m287.62,139.99l-220.86-51.82-43.14,183.86c-4.79,20.43,7.88,40.88,28.31,45.68l146.87,34.46c20.43,4.79,40.88-7.88,45.68-28.31l43.14-183.86Z"/>
    <path class="cls-4" d="m287.37,139.73l-220.86-51.82-43.14,183.86c-4.79,20.43,7.88,40.88,28.31,45.68l146.87,34.46c20.43,4.79,40.88-7.88,45.68-28.31l43.14-183.86Z"/>
    <path class="cls-214" d="m287.13,139.48l-220.86-51.82-43.14,183.86c-4.79,20.43,7.88,40.88,28.31,45.68l146.87,34.46c20.43,4.79,40.88-7.88,45.68-28.31l43.14-183.86Z"/>
    <path class="cls-59" d="m286.88,139.23l-220.86-51.82-43.14,183.86c-4.79,20.43,7.88,40.88,28.31,45.68l146.87,34.46c20.43,4.79,40.88-7.88,45.68-28.31l43.14-183.86Z"/>
    <path class="cls-203" d="m286.63,138.97l-220.86-51.82-43.14,183.86c-4.79,20.43,7.88,40.88,28.31,45.68l146.87,34.46c20.43,4.79,40.88-7.88,45.68-28.31l43.14-183.86Z"/>
    <path class="cls-22" d="m286.38,138.72l-220.86-51.82-43.14,183.86c-4.79,20.43,7.88,40.88,28.31,45.68l146.87,34.46c20.43,4.79,40.88-7.88,45.68-28.31l43.14-183.86Z"/>
    <path class="cls-85" d="m286.13,138.47l-220.86-51.82-43.14,183.86c-4.79,20.43,7.88,40.88,28.31,45.68l146.87,34.46c20.43,4.79,40.88-7.88,45.68-28.31l43.14-183.86Z"/>
    <path class="cls-209" d="m285.88,138.21l-220.86-51.82-43.14,183.86c-4.79,20.43,7.88,40.88,28.31,45.68l146.87,34.46c20.43,4.79,40.88-7.88,45.68-28.31l43.14-183.86Z"/>
    <path class="cls-162" d="m285.63,137.96l-220.86-51.82-43.14,183.86c-4.79,20.43,7.88,40.88,28.31,45.68l146.87,34.46c20.43,4.79,40.88-7.88,45.68-28.31l43.14-183.86Z"/>
    <path class="cls-40" d="m285.39,137.71l-220.86-51.82-43.14,183.86c-4.79,20.43,7.88,40.88,28.31,45.68l146.87,34.46c20.43,4.79,40.88-7.88,45.68-28.31l43.14-183.86Z"/>
    <path class="cls-157" d="m285.14,137.45l-220.86-51.82-43.14,183.86c-4.79,20.43,7.88,40.88,28.31,45.68l146.87,34.46c20.43,4.79,40.88-7.88,45.68-28.31l43.14-183.86Z"/>
    <path class="cls-34" d="m284.89,137.2l-220.86-51.82-43.14,183.86c-4.79,20.43,7.88,40.88,28.31,45.68l146.87,34.46c20.43,4.79,40.88-7.88,45.68-28.31l43.14-183.86Z"/>
    <path class="cls-61" d="m284.64,136.95L63.78,85.12l-43.14,183.86c-4.79,20.43,7.88,40.88,28.31,45.68l146.87,34.46c20.43,4.79,40.88-7.88,45.68-28.31l43.14-183.86Z"/>
    <path class="cls-181" d="m284.39,136.69L63.53,84.87l-43.14,183.86c-4.79,20.43,7.88,40.88,28.31,45.68l146.87,34.46c20.43,4.79,40.88-7.88,45.68-28.31l43.14-183.86Z"/>
    <path class="cls-65" d="m284.14,136.44L63.28,84.62l-43.14,183.86c-4.79,20.43,7.88,40.88,28.31,45.68l146.87,34.46c20.43,4.79,40.88-7.88,45.68-28.31l43.14-183.86Z"/>
    <path class="cls-197" d="m283.9,136.18L63.04,84.36l-43.14,183.86c-4.79,20.43,7.88,40.88,28.31,45.68l146.87,34.46c20.43,4.79,40.88-7.88,45.68-28.31l43.14-183.86Z"/>
    <path class="cls-164" d="m283.65,135.93L62.79,84.11l-43.14,183.86c-4.79,20.43,7.88,40.88,28.31,45.68l146.87,34.46c20.43,4.79,40.88-7.88,45.68-28.31l43.14-183.86Z"/>
    <path class="cls-10" d="m283.4,135.68L62.54,83.86l-43.14,183.86c-4.79,20.43,7.88,40.88,28.31,45.68l146.87,34.46c20.43,4.79,40.88-7.88,45.68-28.31l43.14-183.86Z"/>
    <path class="cls-221" d="m283.15,135.42L62.29,83.6l-43.14,183.86c-4.79,20.43,7.88,40.88,28.31,45.68l146.87,34.46c20.43,4.79,40.88-7.88,45.68-28.31l43.14-183.86Z"/>
    <path class="cls-152" d="m282.9,135.17L62.04,83.35l-43.14,183.86c-4.79,20.43,7.88,40.88,28.31,45.68l146.87,34.46c20.43,4.79,40.88-7.88,45.68-28.31l43.14-183.86Z"/>
    <path class="cls-1" d="m282.65,134.92L61.79,83.1l-43.14,183.86c-4.79,20.43,7.88,40.88,28.31,45.68l146.87,34.46c20.43,4.79,40.88-7.88,45.68-28.31l43.14-183.86Z"/>
    <path class="cls-64" d="m282.4,134.66L61.55,82.84l-43.14,183.86c-4.79,20.43,7.88,40.88,28.31,45.68l146.87,34.46c20.43,4.79,40.88-7.88,45.68-28.31l43.14-183.86Z"/>
    <path class="cls-158" d="m282.16,134.41L61.3,82.59l-43.14,183.86c-4.79,20.43,7.88,40.88,28.31,45.68l146.87,34.46c20.43,4.79,40.88-7.88,45.68-28.31l43.14-183.86Z"/>
    <path class="cls-255" d="m281.91,134.16L61.05,82.33l-43.14,183.86c-4.79,20.43,7.88,40.88,28.31,45.68l146.87,34.46c20.43,4.79,40.88-7.88,45.68-28.31l43.14-183.86Z"/>
    <path class="cls-67" d="m281.66,133.9L60.8,82.08l-43.14,183.86c-4.79,20.43,7.88,40.88,28.31,45.68l146.87,34.46c20.43,4.79,40.88-7.88,45.68-28.31l43.14-183.86Z"/>
    <path class="cls-195" d="m281.41,133.65L60.55,81.83l-43.14,183.86c-4.79,20.43,7.88,40.88,28.31,45.68l146.87,34.46c20.43,4.79,40.88-7.88,45.68-28.31l43.14-183.86Z"/>
    <path class="cls-223" d="m281.16,133.39L60.3,81.57l-43.14,183.86c-4.79,20.43,7.88,40.88,28.31,45.68l146.87,34.46c20.43,4.79,40.88-7.88,45.68-28.31l43.14-183.86Z"/>
    <path class="cls-154" d="m280.91,133.14L60.06,81.32l-43.14,183.86c-4.79,20.43,7.88,40.88,28.31,45.68l146.87,34.46c20.43,4.79,40.88-7.88,45.68-28.31l43.14-183.86Z"/>
    <path class="cls-102" d="m280.67,132.89L59.81,81.07l-43.14,183.86c-4.79,20.43,7.88,40.88,28.31,45.68l146.87,34.46c20.43,4.79,40.88-7.88,45.68-28.31l43.14-183.86Z"/>
    <path class="cls-161" d="m280.42,132.63L59.56,80.81l-43.14,183.86c-4.79,20.43,7.88,40.88,28.31,45.68l146.87,34.46c20.43,4.79,40.88-7.88,45.68-28.31l43.14-183.86Z"/>
    <path class="cls-90" d="m280.17,132.38L59.31,80.56l-43.14,183.86c-4.79,20.43,7.88,40.88,28.31,45.68l146.87,34.46c20.43,4.79,40.88-7.88,45.68-28.31l43.14-183.86Z"/>
    <path class="cls-248" d="m279.92,132.13L59.06,80.31,15.92,264.17c-4.79,20.43,7.88,40.88,28.31,45.68l146.87,34.46c20.43,4.79,40.88-7.88,45.68-28.31l43.14-183.86Z"/>
    <path class="cls-43" d="m279.67,131.87L58.81,80.05,15.67,263.92c-4.79,20.43,7.88,40.88,28.31,45.68l146.87,34.46c20.43,4.79,40.88-7.88,45.68-28.31l43.14-183.86Z"/>
    <path class="cls-175" d="m279.42,131.62L58.56,79.8,15.42,263.66c-4.79,20.43,7.88,40.88,28.31,45.68l146.87,34.46c20.43,4.79,40.88-7.88,45.68-28.31l43.14-183.86Z"/>
    <path class="cls-205" d="m279.17,131.37L58.32,79.54,15.18,263.41c-4.79,20.43,7.88,40.88,28.31,45.68l146.87,34.46c20.43,4.79,40.88-7.88,45.68-28.31l43.14-183.86Z"/>
    <path class="cls-91" d="m278.93,131.11L58.07,79.29,14.93,263.16c-4.79,20.43,7.88,40.88,28.31,45.68l146.87,34.46c20.43,4.79,40.88-7.88,45.68-28.31l43.14-183.86Z"/>
    <path class="cls-98" d="m278.68,130.86L57.82,79.04,14.68,262.9c-4.79,20.43,7.88,40.88,28.31,45.68l146.87,34.46c20.43,4.79,40.88-7.88,45.68-28.31l43.14-183.86Z"/>
    <path class="cls-240" d="m278.43,130.6L57.57,78.78,14.43,262.65c-4.79,20.43,7.88,40.88,28.31,45.68l146.87,34.46c20.43,4.79,40.88-7.88,45.68-28.31l43.14-183.86Z"/>
    <path class="cls-23" d="m278.18,130.35L57.32,78.53,14.18,262.39c-4.79,20.43,7.88,40.88,28.31,45.68l146.87,34.46c20.43,4.79,40.88-7.88,45.68-28.31l43.14-183.86Z"/>
    <path class="cls-242" d="m277.93,130.1L57.07,78.28,13.93,262.14c-4.79,20.43,7.88,40.88,28.31,45.68l146.87,34.46c20.43,4.79,40.88-7.88,45.68-28.31l43.14-183.86Z"/>
    <path class="cls-13" d="m277.68,129.84L56.83,78.02,13.68,261.89c-4.79,20.43,7.88,40.88,28.31,45.68l146.87,34.46c20.43,4.79,40.88-7.88,45.68-28.31l43.14-183.86Z"/>
    <path class="cls-94" d="m277.44,129.59L56.58,77.77,13.44,261.63c-4.79,20.43,7.88,40.88,28.31,45.68l146.87,34.46c20.43,4.79,40.88-7.88,45.68-28.31l43.14-183.86Z"/>
    <path class="cls-138" d="m277.19,129.34L56.33,77.52,13.19,261.38c-4.79,20.43,7.88,40.88,28.31,45.68l146.87,34.46c20.43,4.79,40.88-7.88,45.68-28.31l43.14-183.86Z"/>
    <path class="cls-71" d="m276.94,129.08L56.08,77.26,12.94,261.13c-4.79,20.43,7.88,40.88,28.31,45.68l146.87,34.46c20.43,4.79,40.88-7.88,45.68-28.31l43.14-183.86Z"/>
    <path class="cls-235" d="m276.69,128.83L55.83,77.01,12.69,260.87c-4.79,20.43,7.88,40.88,28.31,45.68l146.87,34.46c20.43,4.79,40.88-7.88,45.68-28.31l43.14-183.86Z"/>
    <path class="cls-37" d="m276.44,128.58L55.58,76.76,12.44,260.62c-4.79,20.43,7.88,40.88,28.31,45.68l146.87,34.46c20.43,4.79,40.88-7.88,45.68-28.31l43.14-183.86Z"/>
    <path class="cls-25" d="m276.19,128.32L55.33,76.5,12.19,260.37c-4.79,20.43,7.88,40.88,28.31,45.68l146.87,34.46c20.43,4.79,40.88-7.88,45.68-28.31l43.14-183.86Z"/>
    <path class="cls-185" d="m275.95,128.07L55.09,76.25,11.95,260.11c-4.79,20.43,7.88,40.88,28.31,45.68l146.87,34.46c20.43,4.79,40.88-7.88,45.68-28.31l43.14-183.86Z"/>
    <path class="cls-153" d="m275.7,127.82L54.84,75.99,11.7,259.86c-4.79,20.43,7.88,40.88,28.31,45.68l146.87,34.46c20.43,4.79,40.88-7.88,45.68-28.31l43.14-183.86Z"/>
    <path class="cls-226" d="m275.45,127.56L54.59,75.74,11.45,259.6c-4.79,20.43,7.88,40.88,28.31,45.68l146.87,34.46c20.43,4.79,40.88-7.88,45.68-28.31l43.14-183.86Z"/>
    <path class="cls-218" d="m275.2,127.31L54.34,75.49,11.2,259.35c-4.79,20.43,7.88,40.88,28.31,45.68l146.87,34.46c20.43,4.79,40.88-7.88,45.68-28.31l43.14-183.86Z"/>
    <path class="cls-100" d="m274.95,127.05L54.09,75.23,10.95,259.1c-4.79,20.43,7.88,40.88,28.31,45.68l146.87,34.46c20.43,4.79,40.88-7.88,45.68-28.31l43.14-183.86Z"/>
    <path class="cls-17" d="m274.7,126.8L53.84,74.98,10.7,258.84c-4.79,20.43,7.88,40.88,28.31,45.68l146.87,34.46c20.43,4.79,40.88-7.88,45.68-28.31l43.14-183.86Z"/>
    <path class="cls-190" d="m274.45,126.55L53.6,74.73,10.45,258.59c-4.79,20.43,7.88,40.88,28.31,45.68l146.87,34.46c20.43,4.79,40.88-7.88,45.68-28.31l43.14-183.86Z"/>
    <path class="cls-31" d="m274.21,126.29L53.35,74.47,10.21,258.34c-4.79,20.43,7.88,40.88,28.31,45.68l146.87,34.46c20.43,4.79,40.88-7.88,45.68-28.31l43.14-183.86Z"/>
    <path class="cls-227" d="m273.96,126.04L53.1,74.22,9.96,258.08c-4.79,20.43,7.88,40.88,28.31,45.68l146.87,34.46c20.43,4.79,40.88-7.88,45.68-28.31l43.14-183.86Z"/>
    <path class="cls-159" d="m273.71,125.79L52.85,73.97,9.71,257.83c-4.79,20.43,7.88,40.88,28.31,45.68l146.87,34.46c20.43,4.79,40.88-7.88,45.68-28.31l43.14-183.86Z"/>
    <path class="cls-198" d="m273.46,125.53L52.6,73.71,9.46,257.58c-4.79,20.43,7.88,40.88,28.31,45.68l146.87,34.46c20.43,4.79,40.88-7.88,45.68-28.31l43.14-183.86Z"/>
    <path class="cls-124" d="m273.21,125.28L52.35,73.46,9.21,257.32c-4.79,20.43,7.88,40.88,28.31,45.68l146.87,34.46c20.43,4.79,40.88-7.88,45.68-28.31l43.14-183.86Z"/>
    <path class="cls-163" d="m272.96,125.03L52.1,73.2,8.96,257.07c-4.79,20.43,7.88,40.88,28.31,45.68l146.87,34.46c20.43,4.79,40.88-7.88,45.68-28.31l43.14-183.86Z"/>
    <path class="cls-75" d="m272.72,124.77L51.86,72.95,8.72,256.82c-4.79,20.43,7.88,40.88,28.31,45.68l146.87,34.46c20.43,4.79,40.88-7.88,45.68-28.31l43.14-183.86Z"/>
    <path class="cls-101" d="m272.47,124.52L51.61,72.7,8.47,256.56c-4.79,20.43,7.88,40.88,28.31,45.68l146.87,34.46c20.43,4.79,40.88-7.88,45.68-28.31l43.14-183.86Z"/>
    <path class="cls-179" d="m272.22,124.26L51.36,72.44,8.22,256.31c-4.79,20.43,7.88,40.88,28.31,45.68l146.87,34.46c20.43,4.79,40.88-7.88,45.68-28.31l43.14-183.86Z"/>
    <path class="cls-38" d="m271.97,124.01L51.11,72.19,7.97,256.05c-4.79,20.43,7.88,40.88,28.31,45.68l146.87,34.46c20.43,4.79,40.88-7.88,45.68-28.31l43.14-183.86Z"/>
    <path class="cls-222" d="m271.72,123.76L50.86,71.94,7.72,255.8c-4.79,20.43,7.88,40.88,28.31,45.68l146.87,34.46c20.43,4.79,40.88-7.88,45.68-28.31l43.14-183.86Z"/>
    <path class="cls-129" d="m271.47,123.5L50.61,71.68,7.47,255.55c-4.79,20.43,7.88,40.88,28.31,45.68l146.87,34.46c20.43,4.79,40.88-7.88,45.68-28.31l43.14-183.86Z"/>
    <path class="cls-76" d="m271.22,123.25L50.37,71.43,7.22,255.29c-4.79,20.43,7.88,40.88,28.31,45.68l146.87,34.46c20.43,4.79,40.88-7.88,45.68-28.31l43.14-183.86Z"/>
    <path class="cls-32" d="m270.98,123L50.12,71.18,6.98,255.04c-4.79,20.43,7.88,40.88,28.31,45.68l146.87,34.46c20.43,4.79,40.88-7.88,45.68-28.31l43.14-183.86Z"/>
    <path class="cls-169" d="m270.73,122.74L49.87,70.92,6.73,254.79c-4.79,20.43,7.88,40.88,28.31,45.68l146.87,34.46c20.43,4.79,40.88-7.88,45.68-28.31l43.14-183.86Z"/>
    <path class="cls-6" d="m270.48,122.49L49.62,70.67,6.48,254.53c-4.79,20.43,7.88,40.88,28.31,45.68l146.87,34.46c20.43,4.79,40.88-7.88,45.68-28.31l43.14-183.86Z"/>
    <path class="cls-6" d="m270.23,122.24L49.37,70.42,6.23,254.28c-4.79,20.43,7.88,40.88,28.31,45.68l146.87,34.46c20.43,4.79,40.88-7.88,45.68-28.31l43.14-183.86Z"/>
    <path class="cls-97" d="m269.98,121.98L49.12,70.16,5.98,254.03c-4.79,20.43,7.88,40.88,28.31,45.68l146.87,34.46c20.43,4.79,40.88-7.88,45.68-28.31l43.14-183.86Z"/>
    <path class="cls-261" d="m269.73,121.73L48.87,69.91,5.73,253.77c-4.79,20.43,7.88,40.88,28.31,45.68l146.87,34.46c20.43,4.79,40.88-7.88,45.68-28.31l43.14-183.86Z"/>
    <path class="cls-260" d="m269.49,121.48L48.63,69.65,5.49,253.52c-4.79,20.43,7.88,40.88,28.31,45.68l146.87,34.46c20.43,4.79,40.88-7.88,45.68-28.31l43.14-183.86Z"/>
    <path class="cls-86" d="m269.24,121.22L48.38,69.4,5.24,253.26c-4.79,20.43,7.88,40.88,28.31,45.68l146.87,34.46c20.43,4.79,40.88-7.88,45.68-28.31l43.14-183.86Z"/>
    <path class="cls-107" d="m268.99,120.97L48.13,69.15,4.99,253.01c-4.79,20.43,7.88,40.88,28.31,45.68l146.87,34.46c20.43,4.79,40.88-7.88,45.68-28.31l43.14-183.86Z"/>
    <path class="cls-49" d="m268.74,120.71L47.88,68.89,4.74,252.76c-4.79,20.43,7.88,40.88,28.31,45.68l146.87,34.46c20.43,4.79,40.88-7.88,45.68-28.31l43.14-183.86Z"/>
    <path class="cls-170" d="m268.49,120.46L47.63,68.64,4.49,252.5c-4.79,20.43,7.88,40.88,28.31,45.68l146.87,34.46c20.43,4.79,40.88-7.88,45.68-28.31l43.14-183.86Z"/>
    <path class="cls-257" d="m268.24,120.21L47.38,68.39,4.24,252.25c-4.79,20.43,7.88,40.88,28.31,45.68l146.87,34.46c20.43,4.79,40.88-7.88,45.68-28.31l43.14-183.86Z"/>
    <path class="cls-139" d="m267.99,119.95L47.14,68.13,3.99,252c-4.79,20.43,7.88,40.88,28.31,45.68l146.87,34.46c20.43,4.79,40.88-7.88,45.68-28.31l43.14-183.86Z"/>
    <path class="cls-149" d="m267.75,119.7L46.89,67.88,3.75,251.74c-4.79,20.43,7.88,40.88,28.31,45.68l146.87,34.46c20.43,4.79,40.88-7.88,45.68-28.31l43.14-183.86Z"/>
    <path class="cls-149" d="m267.5,119.45L46.64,67.63,3.5,251.49c-4.79,20.43,7.88,40.88,28.31,45.68l146.87,34.46c20.43,4.79,40.88-7.88,45.68-28.31l43.14-183.86Z"/>
    <path class="cls-109" d="m267.25,119.19L46.39,67.37,3.25,251.24c-4.79,20.43,7.88,40.88,28.31,45.68l146.87,34.46c20.43,4.79,40.88-7.88,45.68-28.31l43.14-183.86Z"/>
    <path class="cls-111" d="m267,118.94L46.14,67.12,3,250.98c-4.79,20.43,7.88,40.88,28.31,45.68l146.87,34.46c20.43,4.79,40.88-7.88,45.68-28.31l43.14-183.86Z"/>
    <path class="cls-84" d="m266.75,118.69L45.89,66.86,2.75,250.73c-4.79,20.43,7.88,40.88,28.31,45.68l146.87,34.46c20.43,4.79,40.88-7.88,45.68-28.31l43.14-183.86Z"/>
    <path class="cls-178" d="m266.5,118.43L45.64,66.61,2.5,250.47c-4.79,20.43,7.88,40.88,28.31,45.68l146.87,34.46c20.43,4.79,40.88-7.88,45.68-28.31l43.14-183.86Z"/>
    <path class="cls-7" d="m266.26,118.18L45.4,66.36,2.26,250.22c-4.79,20.43,7.88,40.88,28.31,45.68l146.87,34.46c20.43,4.79,40.88-7.88,45.68-28.31l43.14-183.86Z"/>
    <path class="cls-134" d="m266.01,117.92L45.15,66.1,2.01,249.97c-4.79,20.43,7.88,40.88,28.31,45.68l146.87,34.46c20.43,4.79,40.88-7.88,45.68-28.31l43.14-183.86Z"/>
    <path class="cls-134" d="m265.76,117.67L44.9,65.85,1.76,249.71c-4.79,20.43,7.88,40.88,28.31,45.68l146.87,34.46c20.43,4.79,40.88-7.88,45.68-28.31l43.14-183.86Z"/>
    <path class="cls-160" d="m265.51,117.42L44.65,65.6,1.51,249.46c-4.79,20.43,7.88,40.88,28.31,45.68l146.87,34.46c20.43,4.79,40.88-7.88,45.68-28.31l43.14-183.86Z"/>
    <path class="cls-237" d="m265.26,117.16L44.4,65.34,1.26,249.21c-4.79,20.43,7.88,40.88,28.31,45.68l146.87,34.46c20.43,4.79,40.88-7.88,45.68-28.31l43.14-183.86Z"/>
    <path class="cls-259" d="m265.01,116.91L44.15,65.09,1.01,248.95c-4.79,20.43,7.88,40.88,28.31,45.68l146.87,34.46c20.43,4.79,40.88-7.88,45.68-28.31l43.14-183.86Z"/>
  </g>
  <g>
    <path class="cls-21" d="m130.46,70.54c-3.49-.82-6.37-2.32-8.64-4.49-2.28-2.18-3.84-4.82-4.7-7.93-.86-3.11-.86-6.48-.01-10.1s2.35-6.63,4.51-9.04c2.15-2.4,4.73-4.08,7.74-5.01,3.01-.94,6.25-1,9.74-.18s6.38,2.32,8.67,4.5c2.29,2.18,3.87,4.83,4.73,7.94.86,3.11.86,6.48.01,10.1s-2.35,6.64-4.51,9.04c-2.15,2.41-4.74,4.08-7.76,5.01-3.02.93-6.28.99-9.76.17Zm1.61-6.85c2.06.48,3.95.43,5.64-.18,1.69-.6,3.15-1.66,4.36-3.18,1.21-1.52,2.1-3.46,2.65-5.83s.63-4.5.22-6.4c-.41-1.9-1.24-3.49-2.5-4.76-1.25-1.28-2.91-2.16-4.98-2.64s-3.85-.41-5.56.17c-1.71.58-3.17,1.63-4.38,3.15-1.21,1.52-2.1,3.46-2.65,5.83s-.63,4.5-.22,6.4c.41,1.9,1.25,3.5,2.52,4.8,1.27,1.3,2.9,2.18,4.9,2.65Z"/>
    <path class="cls-21" d="m169.96,79.81c-3.55-.83-6.45-2.32-8.67-4.47-2.23-2.15-3.71-4.76-4.45-7.85-.74-3.08-.69-6.42.15-10.01.86-3.66,2.3-6.7,4.34-9.13,2.03-2.43,4.53-4.13,7.49-5.1,2.96-.97,6.21-1.03,9.77-.2,4.37,1.02,7.7,2.97,9.99,5.83,2.29,2.86,3.29,6.36,3,10.51l-8.33-1.95c.01-1.89-.52-3.49-1.61-4.8-1.08-1.31-2.68-2.21-4.78-2.7s-3.81-.39-5.44.22c-1.63.62-3.01,1.7-4.13,3.24-1.13,1.54-1.98,3.51-2.54,5.91s-.66,4.44-.33,6.32c.33,1.88,1.08,3.45,2.27,4.71,1.19,1.26,2.78,2.12,4.78,2.59,2.1.49,3.91.44,5.44-.14,1.53-.59,2.7-1.68,3.5-3.28l8.33,1.95c-1.52,3.61-3.94,6.16-7.26,7.65-3.31,1.49-7.15,1.72-11.52.7Z"/>
    <path class="cls-21" d="m199.76,86.15l6.9-29.4-10.31-2.42,1.44-6.14,28.28,6.64-1.44,6.14-10.31-2.42-6.9,29.4-7.67-1.8Z"/>
  </g>
  <g>
    <path class="cls-241" d="m36.38,223.82l3.82-16.27c7.11-3.49,14.13-6.94,21.07-10.37,6.94-3.42,13.28-6.96,19.04-10.61,5.75-3.65,10.56-7.42,14.41-11.31,3.85-3.89,6.27-7.93,7.25-12.14.57-2.44.62-4.83.13-7.16-.49-2.33-1.54-4.33-3.16-6-1.62-1.67-3.94-2.86-6.97-3.57s-5.93-.67-8.39.2c-2.47.86-4.5,2.37-6.09,4.52-1.59,2.16-2.75,4.79-3.48,7.92l-21.25-4.99c2.03-7.77,5.26-13.87,9.7-18.29,4.44-4.42,9.66-7.22,15.65-8.39,6-1.17,12.27-.99,18.81.55,7.62,1.79,13.64,4.67,18.07,8.65,4.42,3.98,7.41,8.6,8.96,13.86,1.55,5.26,1.65,10.77.29,16.54-1.03,4.4-2.84,8.48-5.43,12.26-2.59,3.78-5.7,7.27-9.34,10.49-3.64,3.22-7.62,6.21-11.92,8.96-4.31,2.75-8.75,5.32-13.33,7.7-4.58,2.38-9.07,4.6-13.47,6.66l42.5,9.97-4.2,17.88-72.7-17.06Z"/>
    <path class="cls-241" d="m165.53,255.98c-9.58-2.25-17.23-6.41-22.97-12.5-5.74-6.09-9.48-13.54-11.22-22.35-1.75-8.81-1.39-18.44,1.06-28.9,2.45-10.46,6.42-19.24,11.91-26.36,5.48-7.11,12.15-12.12,19.99-15.02,7.85-2.9,16.55-3.23,26.13-.98s16.91,6.34,22.6,12.42c5.69,6.08,9.43,13.53,11.22,22.35,1.8,8.83,1.47,18.46-.98,28.92-2.45,10.46-6.45,19.23-11.98,26.34-5.53,7.1-12.2,12.11-19.99,15.02-7.8,2.91-16.39,3.27-25.77,1.07Zm4.5-19.82c4.59,1.08,8.94.66,13.05-1.27,4.11-1.92,7.7-5.13,10.76-9.61,3.06-4.49,5.4-10.15,7-16.99s2.06-13.07,1.3-18.41c-.76-5.33-2.56-9.75-5.4-13.25-2.84-3.5-6.55-5.79-11.15-6.87s-8.91-.67-12.96,1.21c-4.05,1.89-7.63,5.04-10.73,9.47-3.1,4.43-5.47,10.11-7.09,17.05s-2.01,12.96-1.21,18.35c.8,5.39,2.58,9.86,5.36,13.4,2.78,3.54,6.46,5.85,11.05,6.92Z"/>
  </g>
</svg>