<?xml version="1.0" encoding="UTF-8"?>
<svg id="Camada_1" data-name="Camada 1" xmlns="http://www.w3.org/2000/svg" viewBox="0 0 258.39 375.19">
  <defs>
    <style>
      .cls-1 {
        fill: #312783;
      }

      .cls-2 {
        fill: #fff;
      }

      .cls-3 {
        fill: #d8d8d8;
      }

      .cls-4 {
        fill: #7d4e24;
      }

      .cls-5 {
        fill: #2e1a00;
      }

      .cls-6 {
        fill: #23175a;
      }

      .cls-7 {
        fill: #b17f4a;
      }

      .cls-8 {
        fill: #ca9e67;
      }

      .cls-9 {
        fill: #1d1d1b;
      }
    </style>
  </defs>
  <path class="cls-3" d="m22.5,177.79h-2.78c-1.16,0-2.11-.94-2.11-2.11v-15.83h7v15.83c0,1.16-.94,2.11-2.11,2.11Z"/>
  <path class="cls-8" d="m239.49,85.61v88.14H65.74v-88.14c0-14.43,3.62-28.06,10-40.02,1.24-2.33,2.59-4.6,4.04-6.8C95.11,15.47,121.51,0,151.35,0h2.53c29.86,0,56.28,15.5,71.6,38.84,1.46,2.22,2.82,4.51,4.07,6.86,6.34,11.93,9.94,25.52,9.94,39.91Z"/>
  <path class="cls-4" d="m187.38,77.59v13.64c0,5.66-4.59,10.26-10.26,10.26-2.83,0-5.39-1.15-7.25-3.01-1.86-1.86-3.01-4.42-3.01-7.25v-13.64c0-2.42.84-4.64,2.25-6.4,1.87-2.35,4.77-3.86,8.01-3.86s6.14,1.51,8.02,3.86c1.4,1.76,2.24,3.98,2.24,6.4Z"/>
  <path class="cls-2" d="m201.22,71.19c-1.59-9.11-9.53-16.04-19.1-16.04h-.01c-9.56,0-17.51,6.93-19.1,16.04-.19,1.08-.29,2.21-.29,3.35v19.74c0,10.71,8.69,19.39,19.39,19.39h.01c10.71,0,19.39-8.68,19.39-19.39v-19.74c0-1.14-.1-2.27-.29-3.35Zm-13.84,20.04c0,5.66-4.59,10.26-10.26,10.26-2.83,0-5.39-1.15-7.25-3.01-1.86-1.86-3.01-4.42-3.01-7.25v-13.64c0-2.42.84-4.64,2.25-6.4,1.87-2.35,4.77-3.86,8.01-3.86s6.14,1.51,8.02,3.86c1.4,1.76,2.24,3.98,2.24,6.4v13.64Z"/>
  <path class="cls-7" d="m159.29,105.96c0-3.6-6.51-15.45-6.51-15.45,0,0-6.51,11.85-6.51,15.45s2.91,6.51,6.51,6.51,6.51-2.91,6.51-6.51Z"/>
  <path class="cls-4" d="m117.84,77.59v13.64c0,5.66,4.59,10.26,10.26,10.26,2.83,0,5.39-1.15,7.25-3.01,1.86-1.86,3.01-4.42,3.01-7.25v-13.64c0-2.42-.84-4.64-2.25-6.4-1.87-2.35-4.77-3.86-8.01-3.86s-6.14,1.51-8.02,3.86c-1.4,1.76-2.24,3.98-2.24,6.4Z"/>
  <path class="cls-2" d="m103.71,74.54v19.74c0,10.71,8.68,19.39,19.39,19.39h.01c10.7,0,19.39-8.68,19.39-19.39v-19.74c0-1.14-.1-2.27-.29-3.35-1.59-9.11-9.54-16.04-19.1-16.04h-.01c-9.57,0-17.51,6.93-19.1,16.04-.19,1.08-.29,2.21-.29,3.35Zm14.13,3.05c0-2.42.84-4.64,2.24-6.4,1.88-2.35,4.77-3.86,8.02-3.86s6.14,1.51,8.01,3.86c1.41,1.76,2.25,3.98,2.25,6.4v13.64c0,2.83-1.15,5.39-3.01,7.25-1.86,1.86-4.42,3.01-7.25,3.01-5.67,0-10.26-4.6-10.26-10.26v-13.64Z"/>
  <path class="cls-9" d="m258.39,192.45c0,10.45-8.47,19.01-18.9,19.14v163.6H65.74v-163.61c-5.04-.14-9.6-2.27-12.94-5.61-3.47-3.47-5.62-8.25-5.62-13.52,0-10.53,8.61-19.15,19.14-19.15h172.92c5.27,0,10.06,2.16,13.53,5.63,3.47,3.47,5.62,8.25,5.62,13.52Z"/>
  <rect class="cls-2" x="176.16" y="205.44" width="12.26" height="52.6" rx="6.13" ry="6.13"/>
  <rect class="cls-2" x="117.15" y="205.44" width="12.26" height="52.6" rx="6.13" ry="6.13"/>
  <path class="cls-5" d="m225.48,38.84c-1.02.17-2.06.26-3.12.26H83.21c-1.17,0-2.32-.11-3.43-.31C95.11,15.47,121.51,0,151.35,0h2.53c29.86,0,56.28,15.5,71.6,38.84Z"/>
  <path class="cls-2" d="m178.65,128.99c0,1.75-.75,3.48-2.23,4.66-6.86,5.48-14.05,8.45-21.46,8.84-.29.02-.58.03-.88.05-.29,0-.59.01-.88.01-.49,0-.99-.01-1.49-.04-.19,0-.37-.02-.56-.03-.17-.01-.33-.03-.49-.04-8.99-.7-16.16-5.07-20.66-8.68-2.93-2.35-2.93-6.82-.06-9.24.01,0,.02-.01.03-.02,2.19-1.82,5.35-1.86,7.57-.08,3.04,2.44,7.84,5.44,13.61,6.03.4.03.8.06,1.2.08h.09c.29.01.59.02.88.02.25,0,.51-.01.76-.02,4.95-.23,9.91-2.33,14.83-6.24,2.39-1.9,5.82-1.71,7.98.44,1.18,1.18,1.76,2.73,1.76,4.26Z"/>
  <path class="cls-9" d="m154.08,130.53v12.01c-.29,0-.59.01-.88.01-.49,0-.99-.01-1.49-.04-.19,0-.37-.02-.56-.03v-12.03c.4.03.8.06,1.2.08h.09c.29.01.59.02.88.02.25,0,.51-.01.76-.02Z"/>
  <circle class="cls-8" cx="21.45" cy="147.37" r="21.45"/>
  <path class="cls-3" d="m23.28,143.54h-3.67c-.92,0-1.66-.75-1.66-1.66v-39.85h7v39.85c0,.92-.75,1.66-1.66,1.66Z"/>
  <path class="cls-1" d="m24.95,119.96h-7v-17.26c0-1.93,1.57-3.5,3.5-3.5h0c1.93,0,3.5,1.57,3.5,3.5v17.26Z"/>
  <rect class="cls-6" x="16.76" y="114.85" width="2.38" height="10.21" rx="1.19" ry="1.19"/>
  <path class="cls-5" d="m165.5,121.09c0,.88-.38,1.74-1.11,2.33-3.43,2.74-7.03,4.23-10.73,4.42-.14,0-.29.01-.44.02-.14,0-.29,0-.44,0-.24,0-.49,0-.74-.02-.1,0-.18,0-.28-.01-.08,0-.17-.02-.24-.02-4.49-.35-8.08-2.54-10.33-4.34-1.46-1.17-1.46-3.41-.03-4.62,0,0,.01,0,.02,0,1.1-.91,2.67-.93,3.79-.04,1.52,1.22,3.92,2.72,6.8,3.01.2.02.4.03.6.04h.04c.15,0,.3.01.44.01.12,0,.26,0,.38-.01,2.48-.11,4.96-1.17,7.42-3.12,1.2-.95,2.91-.86,3.99.22.59.59.88,1.36.88,2.13Z"/>
  <path class="cls-5" d="m147.11,148.29c-1.49,0-2.35,1.76-1.37,2.89.03.04.06.07.1.11l5.28,5.28c.82.82,2.17.82,2.99,0l5.28-5.28s.07-.07.1-.11c.98-1.12.12-2.89-1.37-2.89h-11.02Z"/>
</svg>