<?xml version="1.0" encoding="UTF-8"?>
<svg id="Camada_1" data-name="Camada 1" xmlns="http://www.w3.org/2000/svg" viewBox="0 0 156.57 286.31">
  <defs>
    <style>
      .cls-1 {
        fill: #fff;
      }

      .cls-2 {
        fill: #009fe3;
      }

      .cls-3 {
        fill: #1d1540;
      }

      .cls-4 {
        fill: #29235c;
      }

      .cls-5 {
        fill: #ca9e67;
      }

      .cls-6 {
        fill: #e2b479;
      }

      .cls-7 {
        fill: #1d1d1b;
      }
    </style>
  </defs>
  <path class="cls-4" d="m152.84,286.31H11.49l29.61-139.09c11.71,7.6,25.68,12.02,40.68,12.02s29.5-4.59,41.35-12.46l29.71,139.53Z"/>
  <path class="cls-4" d="m156.57,74.8c0,26.78-14.08,50.28-35.25,63.49-11.47,7.16-25.02,11.3-39.54,11.3s-27.54-3.98-38.87-10.88C21.36,125.58,6.98,101.87,6.98,74.8,6.98,33.49,40.47,0,81.78,0s74.79,33.49,74.79,74.8Z"/>
  <path class="cls-6" d="m142.2,74.79c0,33.37-27.05,60.42-60.42,60.42-30.09,0-55.04-22-59.65-50.79.54.01,1.09.02,1.63.02,31.02,0,57.53-19.35,68.11-46.64,1.77,18.84,17.63,33.59,36.93,33.59,4.62,0,9.04-.84,13.12-2.39.19,1.91.28,3.84.28,5.79Z"/>
  <path class="cls-5" d="m118.9,81.72v5.11c0,3.75-1.52,7.15-3.98,9.61-2.46,2.46-5.86,3.98-9.62,3.98-5.39,0-10.06-3.14-12.26-7.7-.64-1.34-1.07-2.81-1.25-4.35-.06-.51-.09-1.02-.09-1.54v-5.11c0,.52.03,1.03.09,1.54.18,1.54.61,3.01,1.25,4.35,2.2,4.55,6.87,7.7,12.26,7.7,3.76,0,7.16-1.52,9.62-3.98s3.98-5.86,3.98-9.61Z"/>
  <path class="cls-2" d="m108.99,70.01v9.56c0,3.97-3.22,7.19-7.19,7.19-1.98,0-3.78-.81-5.08-2.11-1.3-1.3-2.11-3.1-2.11-5.08v-9.56c0-1.7.59-3.25,1.58-4.49,1.31-1.65,3.34-2.71,5.62-2.71s4.31,1.06,5.62,2.71c.98,1.23,1.57,2.79,1.57,4.49Z"/>
  <path class="cls-1" d="m118.7,65.53c-1.12-6.4-6.69-11.25-13.4-11.25-1.07,0-2.1.12-3.09.35-2.14.5-4.08,1.5-5.7,2.87-2.37,2.02-4.04,4.83-4.61,8.02-.13.76-.2,1.55-.2,2.34v13.85c0,.52.03,1.03.09,1.54.18,1.54.61,3.01,1.25,4.35,2.2,4.55,6.87,7.7,12.26,7.7,3.76,0,7.16-1.52,9.62-3.98s3.98-5.86,3.98-9.61v-13.85c0-.79-.07-1.59-.2-2.34Zm-9.71,14.05c0,3.96-3.22,7.19-7.2,7.19-1.98,0-3.78-.8-5.08-2.11s-2.11-3.1-2.11-5.08v-9.57c0-1.7.59-3.25,1.58-4.48,1.31-1.65,3.34-2.71,5.61-2.71s4.31,1.07,5.63,2.71c.98,1.23,1.57,2.78,1.57,4.48v9.57Z"/>
  <path class="cls-5" d="m47.93,81.72v5.11c0,3.75,1.52,7.15,3.98,9.61,2.46,2.46,5.86,3.98,9.62,3.98,5.39,0,10.06-3.14,12.26-7.7.64-1.34,1.07-2.81,1.25-4.35.06-.51.09-1.02.09-1.54v-5.11c0,.52-.03,1.03-.09,1.54-.18,1.54-.61,3.01-1.25,4.35-2.2,4.55-6.87,7.7-12.26,7.7-3.76,0-7.16-1.52-9.62-3.98s-3.98-5.86-3.98-9.61Z"/>
  <path class="cls-2" d="m57.84,70.01v9.56c0,3.97,3.22,7.19,7.19,7.19,1.98,0,3.78-.81,5.08-2.11,1.3-1.3,2.11-3.1,2.11-5.08v-9.56c0-1.7-.59-3.25-1.58-4.49-1.31-1.65-3.34-2.71-5.62-2.71s-4.31,1.06-5.62,2.71c-.98,1.23-1.57,2.79-1.57,4.49Z"/>
  <path class="cls-3" d="m123.13,146.78c-11.85,7.87-26.06,12.46-41.35,12.46s-28.97-4.42-40.68-12.02l1.81-8.51c11.33,6.9,24.64,10.88,38.87,10.88s28.07-4.14,39.54-11.3l1.81,8.49Z"/>
  <path class="cls-1" d="m47.93,67.87v13.85c0,3.75,1.52,7.15,3.98,9.61s5.86,3.98,9.62,3.98c5.39,0,10.06-3.14,12.26-7.7.64-1.34,1.07-2.81,1.25-4.35.06-.51.09-1.02.09-1.54v-13.85c0-.79-.07-1.59-.2-2.34-.56-3.2-2.24-6.01-4.61-8.02-1.62-1.37-3.56-2.37-5.7-2.87-1-.23-2.03-.35-3.09-.35-6.71,0-12.28,4.85-13.4,11.25-.13.76-.2,1.55-.2,2.34Zm9.91,2.14c0-1.7.59-3.25,1.57-4.48,1.32-1.65,3.35-2.71,5.63-2.71s4.3,1.07,5.61,2.71c.99,1.23,1.58,2.78,1.58,4.48v9.57c0,1.98-.8,3.78-2.11,5.08s-3.1,2.11-5.08,2.11c-3.98,0-7.2-3.22-7.2-7.19v-9.57Z"/>
  <path class="cls-5" d="m87.82,92.27c0-2.43-4.4-10.55-4.4-10.55,0,0-4.4,8.12-4.4,10.55s1.97,4.4,4.4,4.4,4.4-1.97,4.4-4.4Z"/>
  <path class="cls-5" d="m82.6,110.43c-5.3,0-10.19-2.15-13.53-4.44-1.07-.73-1.25-2.25-.41-3.24l1.35-1.58-1.43,1.67.1-.11c.73-.86,1.98-1.02,2.91-.4,3.51,2.35,12.22,6.83,20.27.26.87-.71,2.13-.62,2.92.17h0c.93.93.83,2.46-.2,3.29-3.92,3.18-8.07,4.36-11.99,4.36Z"/>
  <path class="cls-7" d="m96.63,16.22c-2.47,38.09-34.16,68.22-72.87,68.22-.54,0-1.09-.01-1.63-.02,0,0-19.75.59-22.13-4.04,0,0,.45-.06,1.22-.21,10.88-2.19,19.35-10.54,22.25-21.25,6.97-25.66,30.43-44.54,58.31-44.54,5.13,0,10.1.64,14.85,1.84Z"/>
  <path class="cls-7" d="m141.92,69c-4.08,1.55-8.5,2.39-13.12,2.39-19.3,0-35.16-14.75-36.93-33.59,2.62-6.76,4.27-14.02,4.76-21.58,24.38,6.16,42.86,27.13,45.29,52.78Z"/>
  <path class="cls-7" d="m141.92,69s1.74,17.21-12.56,17.77c0,0,7.31,3.2,11.65,0s10.75-13.29.91-17.77Z"/>
</svg>