<?xml version="1.0" encoding="UTF-8"?>
<svg id="Camada_1" data-name="Camada 1" xmlns="http://www.w3.org/2000/svg" viewBox="0 0 479.14 299.14">
  <defs>
    <style>
      .cls-1, .cls-2, .cls-3 {
        isolation: isolate;
      }

      .cls-2, .cls-4, .cls-3 {
        fill: #fff;
      }

      .cls-2, .cls-3 {
        font-family: DMSans-9ptRegular, 'DM Sans';
        font-size: 47px;
        font-variation-settings: 'opsz' 9, 'wght' 400;
      }

      .cls-5 {
        fill: #e6302c;
      }

      .cls-4 {
        stroke: #fff;
        stroke-miterlimit: 10;
        stroke-width: 14px;
      }

      .cls-6 {
        fill: #1d1d1b;
      }

      .cls-3 {
        letter-spacing: -.02em;
      }
    </style>
  </defs>
  <path class="cls-4" d="m472.14,60.71v177.72c0,29.53-24.17,53.71-53.71,53.71H60.71c-29.53,0-53.71-24.18-53.71-53.71V60.71C7,31.17,31.18,7,60.71,7h357.72c29.54,0,53.71,24.17,53.71,53.71h0Z"/>
  <path class="cls-5" d="m470.86,58.19v65.09H5.72V58.19C5.72,30.04,29.9,7,59.43,7h357.72c29.54,0,53.71,23.04,53.71,51.19Z"/>
  <g class="cls-1">
    <text class="cls-2" transform="translate(41.98 86.02)"><tspan x="0" y="0">Hello, </tspan></text>
    <text class="cls-3" transform="translate(180.25 86.02)"><tspan x="0" y="0">m</tspan></text>
    <text class="cls-2" transform="translate(223.63 86.02)"><tspan x="0" y="0">y name is</tspan></text>
  </g>
  <g>
    <path class="cls-6" d="m93.98,191.82c-4.91,0-9.16-1.07-12.75-3.22-3.59-2.15-6.34-5.15-8.25-8.99-1.91-3.85-2.87-8.3-2.87-13.35s.96-9.51,2.87-13.38c1.91-3.87,4.66-6.89,8.25-9.06,3.59-2.17,7.84-3.26,12.75-3.26,6,0,10.92,1.49,14.76,4.46,3.85,2.97,6.22,7.18,7.12,12.61h-10.48c-.61-2.64-1.89-4.71-3.82-6.2-1.94-1.49-4.49-2.23-7.65-2.23-2.97,0-5.5.7-7.58,2.09s-3.67,3.35-4.78,5.88-1.66,5.56-1.66,9.1.55,6.52,1.66,9.06c1.11,2.55,2.7,4.51,4.78,5.88,2.08,1.37,4.6,2.05,7.58,2.05,3.16,0,5.71-.7,7.65-2.09s3.21-3.34,3.82-5.84h10.48c-.9,5.15-3.27,9.18-7.12,12.11-3.85,2.93-8.77,4.39-14.76,4.39h0Z"/>
    <path class="cls-6" d="m124,190.97v-49.57h32.64v7.72h-23.08v12.96h20.96v7.44h-20.96v13.74h23.08v7.72h-32.64Z"/>
    <path class="cls-6" d="m165.29,190.97v-49.57h18.55c3.97,0,7.26.68,9.88,2.05s4.57,3.2,5.84,5.49c1.27,2.29,1.91,4.83,1.91,7.61s-.63,5.11-1.88,7.4-3.19,4.13-5.81,5.52-5.98,2.09-10.09,2.09h-8.85v19.4h-9.56,0Zm9.56-26.34h8.36c2.93,0,5.07-.71,6.44-2.12,1.37-1.42,2.05-3.28,2.05-5.59s-.67-4.14-2.02-5.49-3.51-2.02-6.48-2.02h-8.36v15.22h0Zm16.15,26.34l-10.2-21.81h10.34l10.76,21.81h-10.91.01Z"/>
    <path class="cls-6" d="m221.51,190.97v-41.85h-14.45v-7.72h38.45v7.72h-14.45v41.85h-9.56,0Z"/>
    <path class="cls-6" d="m252.31,190.97v-49.57h9.56v49.57h-9.56Z"/>
    <path class="cls-6" d="m271.65,190.97v-49.57h32.29v7.72h-22.73v13.24h18.27v7.51h-18.27v21.1h-9.56Z"/>
    <path class="cls-6" d="m311.02,190.97v-49.57h9.56v49.57h-9.56Z"/>
    <path class="cls-6" d="m330.35,190.97v-49.57h32.64v7.72h-23.08v12.96h20.96v7.44h-20.96v13.74h23.08v7.72h-32.64,0Z"/>
    <path class="cls-6" d="m371.63,190.97v-49.57h16.57c5.71,0,10.46,1.03,14.23,3.08,3.78,2.05,6.57,4.93,8.39,8.64s2.73,8.06,2.73,13.07-.91,9.36-2.73,13.07-4.62,6.59-8.39,8.64c-3.78,2.05-8.52,3.08-14.23,3.08h-16.57Zm9.56-8.21h6.51c4.01,0,7.2-.66,9.56-1.98,2.36-1.32,4.04-3.22,5.03-5.7s1.49-5.44,1.49-8.89-.5-6.48-1.49-8.96c-.99-2.48-2.67-4.38-5.03-5.7-2.36-1.32-5.55-1.98-9.56-1.98h-6.51v33.21h0Z"/>
    <path class="cls-6" d="m49.54,249.98v-49.57h20.32c3.45,0,6.35.54,8.71,1.63,2.36,1.09,4.14,2.59,5.35,4.5,1.2,1.91,1.81,4.12,1.81,6.62s-.53,4.6-1.59,6.3-2.49,3.01-4.28,3.93-3.73,1.45-5.81,1.59l1.06-.78c2.27.09,4.28.7,6.06,1.81s3.16,2.58,4.18,4.43c1.01,1.84,1.52,3.85,1.52,6.02,0,2.64-.63,4.98-1.88,7.01s-3.09,3.62-5.52,4.78-5.39,1.73-8.89,1.73h-21.04Zm9.56-28.89h9.21c2.5,0,4.41-.57,5.74-1.7,1.32-1.13,1.98-2.74,1.98-4.82s-.66-3.62-1.98-4.78-3.26-1.73-5.81-1.73h-9.13v13.03h-.01Zm0,21.1h9.98c2.55,0,4.53-.59,5.95-1.77,1.42-1.18,2.12-2.88,2.12-5.1s-.73-3.95-2.2-5.2c-1.46-1.25-3.47-1.88-6.02-1.88h-9.84v13.95h0Z"/>
    <path class="cls-6" d="m117.52,250.83c-4.77,0-8.98-1.08-12.64-3.26-3.66-2.17-6.54-5.18-8.64-9.03s-3.15-8.3-3.15-13.35,1.05-9.5,3.15-13.35,4.98-6.86,8.64-9.03c3.66-2.17,7.87-3.26,12.64-3.26s9.15,1.09,12.85,3.26c3.71,2.17,6.59,5.18,8.64,9.03s3.08,8.3,3.08,13.35-1.03,9.5-3.08,13.35-4.93,6.86-8.64,9.03c-3.71,2.17-7.99,3.26-12.85,3.26Zm0-8.57c3.07,0,5.7-.7,7.9-2.09s3.9-3.36,5.1-5.91,1.81-5.57,1.81-9.06-.6-6.57-1.81-9.1c-1.2-2.53-2.9-4.47-5.1-5.84s-4.83-2.05-7.9-2.05-5.49.69-7.68,2.05c-2.2,1.37-3.91,3.32-5.13,5.84-1.23,2.53-1.84,5.56-1.84,9.1s.61,6.51,1.84,9.06c1.23,2.55,2.94,4.52,5.13,5.91,2.2,1.39,4.76,2.09,7.68,2.09Z"/>
    <path class="cls-6" d="m172.97,250.83c-4.77,0-8.98-1.08-12.64-3.26-3.66-2.17-6.54-5.18-8.64-9.03s-3.15-8.3-3.15-13.35,1.05-9.5,3.15-13.35c2.1-3.85,4.98-6.86,8.64-9.03s7.87-3.26,12.64-3.26,9.15,1.09,12.85,3.26c3.71,2.17,6.59,5.18,8.64,9.03s3.08,8.3,3.08,13.35-1.03,9.5-3.08,13.35-4.93,6.86-8.64,9.03-7.99,3.26-12.85,3.26Zm0-8.57c3.07,0,5.7-.7,7.9-2.09s3.9-3.36,5.1-5.91,1.81-5.57,1.81-9.06-.6-6.57-1.81-9.1c-1.2-2.53-2.9-4.47-5.1-5.84-2.2-1.37-4.83-2.05-7.9-2.05s-5.49.69-7.68,2.05c-2.2,1.37-3.91,3.32-5.13,5.84-1.23,2.53-1.84,5.56-1.84,9.1s.61,6.51,1.84,9.06,2.94,4.52,5.13,5.91c2.2,1.39,4.76,2.09,7.68,2.09Z"/>
    <path class="cls-6" d="m205.61,249.98v-49.57h9.56v19.62l17.92-19.62h11.83l-18.27,19.62,18.77,29.95h-11.61l-13.95-22.52-4.67,4.96v17.56h-9.58Z"/>
    <path class="cls-6" d="m251.85,249.98v-49.57h9.56v49.57h-9.56Zm8.29-21.46v-7.72h24.57v7.72h-24.57Zm22.94,21.46v-49.57h9.56v49.57h-9.56Z"/>
    <path class="cls-6" d="m302.41,249.98v-49.57h32.64v7.72h-23.08v12.96h20.96v7.44h-20.96v13.74h23.08v7.72h-32.64,0Z"/>
    <path class="cls-6" d="m340.44,249.98l18.06-49.57h10.83l18.06,49.57h-10.13l-13.38-38.66-13.46,38.66h-9.98,0Zm7.93-11.26l2.55-7.44h25.21l2.48,7.44h-30.24Z"/>
    <path class="cls-6" d="m393.83,249.98v-49.57h16.57c5.71,0,10.46,1.03,14.23,3.08,3.78,2.05,6.57,4.93,8.39,8.64s2.73,8.06,2.73,13.07-.91,9.36-2.73,13.07-4.62,6.59-8.39,8.64c-3.78,2.05-8.52,3.08-14.23,3.08h-16.57Zm9.56-8.21h6.51c4.01,0,7.2-.66,9.56-1.98,2.36-1.32,4.04-3.22,5.03-5.7s1.49-5.44,1.49-8.89-.5-6.48-1.49-8.96c-.99-2.48-2.67-4.38-5.03-5.7-2.36-1.32-5.55-1.98-9.56-1.98h-6.51v33.21Z"/>
  </g>
</svg>