<?xml version="1.0" encoding="UTF-8"?>
<svg id="Camada_1" data-name="Camada 1" xmlns="http://www.w3.org/2000/svg" viewBox="0 0 205.25 375.58">
  <defs>
    <style>
      .cls-1 {
        fill: #009640;
      }

      .cls-2 {
        fill: #fff;
      }

      .cls-3 {
        fill: #fcd8c3;
      }

      .cls-4 {
        fill: #3aaa35;
      }

      .cls-5 {
        fill: #c78885;
      }

      .cls-6 {
        fill: #32a936;
      }

      .cls-7 {
        fill: #9f6f6b;
      }

      .cls-8 {
        fill: #1d1d1b;
      }
    </style>
  </defs>
  <path class="cls-4" d="m53.73,171.73h97.78c20.96,0,37.98,17.02,37.98,37.98v165.86H15.75v-165.86c0-20.96,17.02-37.98,37.98-37.98Z"/>
  <circle class="cls-1" cx="102.62" cy="181.42" r="35.94"/>
  <circle class="cls-7" cx="102.62" cy="181.42" r="25.94"/>
  <path class="cls-3" d="m205.25,128.79c0,8.7-7.05,15.75-15.75,15.75h-.02c-.59,25.76-21.84,46.66-47.75,46.66H63.51c-25.5,0-46.49-20.24-47.7-45.45h-.06c-8.7,0-15.75-7.05-15.75-15.75s7.05-15.75,15.75-15.75v-41.14c0-19.7,16.11-35.81,35.81-35.81h102.13c19.7,0,35.81,16.11,35.81,35.81v39.93c8.7,0,15.75,7.05,15.75,15.75Z"/>
  <rect class="cls-2" x="113.77" y="92.08" width="38.79" height="58.52" rx="19.39" ry="19.39"/>
  <rect class="cls-6" x="117.91" y="104.26" width="20.52" height="34.16" rx="10.26" ry="10.26"/>
  <path class="cls-2" d="m91.48,111.47v19.74c0,10.71-8.69,19.39-19.39,19.39h0c-10.71,0-19.39-8.68-19.39-19.39v-19.74c0-10.71,8.68-19.39,19.39-19.39h0c10.7,0,19.39,8.68,19.39,19.39Z"/>
  <path class="cls-6" d="m77.07,104.26h0c5.67,0,10.26,4.59,10.26,10.26v13.64c0,5.67-4.59,10.26-10.26,10.26h0c-5.67,0-10.26-4.59-10.26-10.26v-13.64c0-5.67,4.59-10.26,10.26-10.26Z"/>
  <path class="cls-5" d="m111.31,146.92c0-4.73-8.56-18.13-8.56-18.13,0,0-8.56,13.4-8.56,18.13s3.83,8.56,8.56,8.56,8.56-3.83,8.56-8.56Z"/>
  <path class="cls-2" d="m103.13,180.32c-.26,0-.51,0-.77,0-10.34-.25-18.58-5.5-23.1-9.15-2.11-1.71-2.22-4.88-.22-6.71l.19-.18c1.61-1.47,4.05-1.53,5.75-.16,3.48,2.81,9.92,6.96,17.66,7.12,6.08.11,12.04-2.24,17.77-7.04,1.77-1.48,4.37-1.41,6,.22l.18.18c1.83,1.83,1.69,4.84-.29,6.51-7.27,6.11-15.05,9.21-23.18,9.21Z"/>
  <path class="cls-5" d="m91.48,111.47v1.57h-38.79v-1.57c0-10.71,8.68-19.39,19.39-19.39h0c10.7,0,19.39,8.68,19.39,19.39Z"/>
  <path class="cls-8" d="m195.11,69.99v51.35h-113.86c-5.62,0-10.74-3.23-13.17-8.3l-10.72-22.38-10.72,22.38c-2.43,5.07-7.55,8.3-13.17,8.3H10.14v-51.35c0-20.97,17.15-38.12,38.12-38.12h108.73c20.97,0,38.12,17.15,38.12,38.12Z"/>
  <path class="cls-8" d="m42.16,8.97c3.92,5.26,5.21,11.66,4.11,17.64-6.04-.65-11.81-3.72-15.73-8.97S25.33,5.97,26.42,0c6.05.65,11.81,3.71,15.73,8.97Z"/>
</svg>