<?xml version="1.0" encoding="UTF-8"?>
<svg id="Camada_1" data-name="Camada 1" xmlns="http://www.w3.org/2000/svg" viewBox="0 0 200.45 448.67">
  <defs>
    <style>
      .cls-1 {
        fill: #fff;
      }

      .cls-2 {
        fill: #2d2e83;
      }

      .cls-3 {
        fill: #be1622;
      }

      .cls-4 {
        fill: #d79b81;
      }

      .cls-5 {
        fill: #304f8e;
      }

      .cls-6 {
        fill: #1d71b8;
      }

      .cls-7 {
        fill: #042643;
      }

      .cls-8 {
        fill: #ea5b0c;
      }

      .cls-9 {
        fill: #1d1d1b;
      }
    </style>
  </defs>
  <path class="cls-5" d="m151.39,98.26v325.22c0,1.27-.16,2.48-.45,3.6l-82.85-45.34-16.94-9.27c-3.15-1.73-5.85-4.07-7.95-6.84-3.27-4.3-5.13-9.63-5.13-15.22V27.87l105.96,57.98c4.54,2.48,7.36,7.24,7.36,12.41Z"/>
  <path class="cls-2" d="m200.45,86.51v325.22c0,12.76-9.12,22.41-20.18,24.68l-32.35,9.84c.32-.14.64-.3.96-.47.26-.14.53-.28.79-.43.78-.45,1.55-.93,2.28-1.46.33-.24.65-.48.97-.73.63-.5,1.23-1.03,1.81-1.59,2.03-1.95,3.76-4.26,5.05-6.85.37-.74.7-1.5,1-2.28,1.03-2.74,1.61-5.75,1.61-8.96V98.26c0-9.19-5.02-17.65-13.08-22.06L37.23,14.87c-2.2-1.2-4.47-2.04-6.74-2.54-.73-.16-1.45-.29-2.18-.38-.07-.01-.13-.02-.18-.02-.48-.06-.95-.1-1.43-.13-.5-.03-1.01-.05-1.51-.05-2.34,0-4.65.33-6.86.97L55.12,1.37c6.3-2.17,13.53-1.89,20.18,1.75l112.07,61.33c8.07,4.41,13.08,12.87,13.08,22.06Z"/>
  <path class="cls-5" d="m162.39,260.35v2.92c-.05-.48-.07-.97-.07-1.46s.02-.98.07-1.46Z"/>
  <g>
    <path class="cls-1" d="m137.97,349.45c.13.45.3.89.51,1.3.69,1.43,1.82,2.67,3.29,3.52l7.29,4.14c.71.41,1.47.7,2.23.87l.1-.69v64.89c0,1.27-.16,2.48-.45,3.6-1.68,6.63-7.9,10.59-13.73,10.59-2.34,0-4.62-.59-6.77-1.77l-73.25-40.08-26.24-14.35-12.59-6.89c-4.54-2.49-7.36-7.24-7.36-12.42V36.94c0-8.77,7.37-14.19,14.19-14.19,2.34,0,4.61.6,6.76,1.77l6.12,3.35,105.96,57.98c4.54,2.48,7.36,7.24,7.36,12.41v242.53l-.73-.42-.74-.42c-.56-.3-1.12-.54-1.7-.71-3.01,3.79-6.46,7.23-10.25,10.21Z"/>
    <path class="cls-6" d="m162.39,260.35v2.92c-.05-.48-.07-.97-.07-1.46s.02-.98.07-1.46Z"/>
    <path class="cls-6" d="m162.32,261.81c0,.49.02.98.07,1.46v-2.92c-.05.48-.07.97-.07,1.46Z"/>
    <path class="cls-6" d="m162.39,98.26c0-9.19-5.02-17.65-13.08-22.06L37.23,14.87c-2.2-1.2-4.47-2.04-6.74-2.54-.73-.16-1.45-.29-2.18-.38-.07-.01-.13-.02-.18-.02-.48-.06-.95-.1-1.43-.13-.5-.03-1.01-.05-1.51-.05-2.34,0-4.65.33-6.86.97l-.87.27c-.49.15-.98.33-1.45.51-.48.19-.95.4-1.42.61-.36.17-.72.34-1.08.53-.32.17-.63.34-.94.52-.47.27-.92.56-1.37.85-.45.3-.88.61-1.31.94-.29.21-.57.43-.84.66-.48.4-.95.81-1.39,1.24-.29.28-.58.57-.85.86-.28.29-.55.59-.82.9-1.91,2.23-3.45,4.81-4.49,7.68-.25.69-.47,1.39-.66,2.11-.55,2.06-.84,4.25-.84,6.54v325.22c0,9.19,5.02,17.65,13.08,22.07l11.05,6.04,26.24,14.36,74.79,40.92c2.2,1.2,4.47,2.04,6.75,2.54.76.17,1.52.3,2.27.39.51.06,1.01.11,1.51.14.51.03,1.02.05,1.52.05,2.47,0,4.89-.37,7.21-1.07,1.15-.35,2.28-.78,3.38-1.29.04-.01.08-.03.12-.06.32-.14.64-.3.96-.47.26-.14.53-.28.79-.43.78-.45,1.55-.93,2.28-1.46.33-.24.65-.48.97-.73.63-.5,1.23-1.03,1.81-1.59,2.03-1.95,3.76-4.26,5.05-6.85.37-.74.7-1.5,1-2.28,1.03-2.74,1.61-5.75,1.61-8.96v-160.21c-.05-.48-.07-.97-.07-1.46s.02-.98.07-1.46V98.26Zm-11,325.22c0,1.27-.16,2.48-.45,3.6-1.68,6.63-7.9,10.59-13.73,10.59-2.34,0-4.62-.59-6.77-1.77l-73.25-40.08-26.24-14.35-12.59-6.89c-4.54-2.49-7.36-7.24-7.36-12.42V36.94c0-8.77,7.37-14.19,14.19-14.19,2.34,0,4.61.6,6.76,1.77l6.12,3.35,105.96,57.98c4.54,2.48,7.36,7.24,7.36,12.41v325.22Z"/>
  </g>
  <circle class="cls-4" cx="44.8" cy="308.35" r="15.55"/>
  <path class="cls-6" d="m123.83,68.15L38.56,20.73v19.35c0,3,1.63,5.77,4.26,7.21l68.8,37.9c5.49,3.02,12.21-.95,12.21-7.21v-9.82Z"/>
  <path class="cls-9" d="m151.39,340.79v17.8l-.1.69c-.76-.17-1.52-.46-2.23-.87l-7.29-4.14c-1.47-.85-2.6-2.09-3.29-3.52-.21-.41-.38-.85-.51-1.3,3.79-2.98,7.24-6.42,10.25-10.21.58.17,1.14.41,1.7.71l.74.42.73.42Z"/>
  <path class="cls-7" d="m151.39,310.6v24.66c-1.01,1.92-2.12,3.77-3.32,5.55-.1.16-.2.32-.31.47-2.75,4-5.96,7.66-9.54,10.89-.24.22-.48.43-.73.65-11.98,10.49-28.02,16.36-45.17,15.07-4.12-.31-8.11-1.02-11.94-2.08-9.91-2.76-18.75-7.9-25.91-14.74-7.57-7.22-13.28-16.33-16.4-26.5-.27-.85-.51-1.7-.73-2.57-1.67-6.39-2.32-13.17-1.8-20.13h0l2.52.19,21.56,1.62,91.76,6.92Z"/>
  <polygon class="cls-3" points="151.39 218.83 151.39 310.6 59.63 303.68 38.07 302.06 35.55 301.87 36.03 295.51 38.07 268.4 42.42 210.63 151.39 218.83"/>
  <path class="cls-4" d="m151.39,115.19v103.64l-108.97-8.2,3.04-40.34,2.04-27.17c1.66-22.07,21.09-38.77,43.17-37.11l42.51,3.21c6.68.5,12.87,2.63,18.21,5.97Z"/>
  <path class="cls-9" d="m80.38,365.81c-.18.26-.36.51-.55.76l-11.74,15.17-8.55,11.04-2.35,3.04-6.82,8.81-1.22,1.58-8.64,11.16c-4.16,5.38-11.97,6.37-17.35,2.21l-3.8-2.94c-5.38-4.17-6.37-11.97-2.21-17.35l5.18-6.7,1.8-2.32,6.82-8.8,12.25-15.84,11.27-14.56,2-2.58c4.17-5.38,11.97-6.38,17.35-2.21l3.8,2.94c5.13,3.97,6.28,11.26,2.76,16.59Z"/>
  <path class="cls-8" d="m151.39,115.19v23.37c-7.1-1.74-14.33-1.88-17.99,2.88-8.57,11.17-14.82,46.59-87.94,28.85h-.01l2.05-27.17c1.66-22.07,21.09-38.77,43.17-37.11l42.51,3.21c6.68.5,12.87,2.63,18.21,5.97Z"/>
</svg>