<?xml version="1.0" encoding="UTF-8"?>
<svg id="Camada_1" data-name="Camada 1" xmlns="http://www.w3.org/2000/svg" viewBox="0 0 500.04 83.99">
  <defs>
    <style>
      .cls-1 {
        fill: #fff;
      }
    </style>
  </defs>
  <path class="cls-1" d="m50.6,4.25l7.62,15.43c1.11,2.25,3.26,3.81,5.74,4.17l17.03,2.47c6.25.91,8.75,8.6,4.23,13.01l-12.32,12.01c-1.8,1.75-2.62,4.28-2.19,6.75l2.91,16.96c1.07,6.23-5.47,10.98-11.06,8.04l-15.23-8.01c-2.22-1.17-4.88-1.17-7.1,0l-15.23,8.01c-5.59,2.94-12.13-1.81-11.06-8.04l2.91-16.96c.42-2.47-.4-5-2.19-6.75l-12.32-12.01c-4.53-4.41-2.03-12.1,4.23-13.01l17.03-2.47c2.48-.36,4.63-1.92,5.74-4.17l7.62-15.43c2.8-5.67,10.88-5.67,13.68,0Z"/>
  <path class="cls-1" d="m256.86,4.25l7.62,15.43c1.11,2.25,3.26,3.81,5.74,4.17l17.03,2.47c6.25.91,8.75,8.6,4.23,13.01l-12.32,12.01c-1.8,1.75-2.62,4.28-2.19,6.75l2.91,16.96c1.07,6.23-5.47,10.98-11.06,8.04l-15.23-8.01c-2.22-1.17-4.88-1.17-7.1,0l-15.23,8.01c-5.59,2.94-12.13-1.81-11.06-8.04l2.91-16.96c.42-2.47-.4-5-2.19-6.75l-12.32-12.01c-4.53-4.41-2.03-12.1,4.23-13.01l17.03-2.47c2.48-.36,4.63-1.92,5.74-4.17l7.62-15.43c2.8-5.67,10.88-5.67,13.68,0Z"/>
  <path class="cls-1" d="m153.73,4.25l7.62,15.43c1.11,2.25,3.26,3.81,5.74,4.17l17.03,2.47c6.25.91,8.75,8.6,4.23,13.01l-12.32,12.01c-1.8,1.75-2.62,4.28-2.19,6.75l2.91,16.96c1.07,6.23-5.47,10.98-11.06,8.04l-15.23-8.01c-2.22-1.17-4.88-1.17-7.1,0l-15.23,8.01c-5.59,2.94-12.13-1.81-11.06-8.04l2.91-16.96c.42-2.47-.4-5-2.19-6.75l-12.32-12.01c-4.53-4.41-2.03-12.1,4.23-13.01l17.03-2.47c2.48-.36,4.63-1.92,5.74-4.17l7.62-15.43c2.8-5.67,10.88-5.67,13.68,0Z"/>
  <path class="cls-1" d="m359.99,4.25l7.62,15.43c1.11,2.25,3.26,3.81,5.74,4.17l17.03,2.47c6.25.91,8.75,8.6,4.23,13.01l-12.32,12.01c-1.8,1.75-2.62,4.28-2.19,6.75l2.91,16.96c1.07,6.23-5.47,10.98-11.06,8.04l-15.23-8.01c-2.22-1.17-4.88-1.17-7.1,0l-15.23,8.01c-5.59,2.94-12.13-1.81-11.06-8.04l2.91-16.96c.42-2.47-.4-5-2.19-6.75l-12.32-12.01c-4.53-4.41-2.03-12.1,4.23-13.01l17.03-2.47c2.48-.36,4.63-1.92,5.74-4.17l7.62-15.43c2.8-5.67,10.88-5.67,13.68,0Z"/>
  <path class="cls-1" d="m463.11,4.25l7.62,15.43c1.11,2.25,3.26,3.81,5.74,4.17l17.03,2.47c6.25.91,8.75,8.6,4.23,13.01l-12.32,12.01c-1.8,1.75-2.62,4.28-2.19,6.75l2.91,16.96c1.07,6.23-5.47,10.98-11.06,8.04l-15.23-8.01c-2.22-1.17-4.88-1.17-7.1,0l-15.23,8.01c-5.59,2.94-12.13-1.81-11.06-8.04l2.91-16.96c.42-2.47-.4-5-2.19-6.75l-12.32-12.01c-4.53-4.41-2.03-12.1,4.23-13.01l17.03-2.47c2.48-.36,4.63-1.92,5.74-4.17l7.62-15.43c2.8-5.67,10.88-5.67,13.68,0Z"/>
</svg>