<?xml version="1.0" encoding="UTF-8"?>
<svg id="Camada_1" data-name="Camada 1" xmlns="http://www.w3.org/2000/svg" viewBox="0 0 322.9 233.87">
  <defs>
    <style>
      .cls-1 {
        fill: #e2e1e1;
      }

      .cls-2 {
        fill: #acacac;
      }
    </style>
  </defs>
  <path class="cls-2" d="m201.03,13.92v40.07c0,7.65-6.26,13.92-13.93,13.92H0c6.6-.13,13.58-1.57,13.58-13.58V13.92C13.58,6.26,19.85,0,27.5,0h159.6c7.66,0,13.93,6.26,13.93,13.92Z"/>
  <path class="cls-1" d="m75.06,96.9v40.07c0,7.65,6.26,13.92,13.93,13.92h233.91c-6.6-.13-13.58-1.57-13.58-13.58v-40.41c0-7.65-6.26-13.92-13.92-13.92H88.99c-7.66,0-13.93,6.26-13.93,13.92Z"/>
  <path class="cls-2" d="m279.83,179.88v40.07c0,7.65-6.26,13.92-13.93,13.92H0c6.6-.13,13.58-1.57,13.58-13.58v-40.41c0-7.65,6.26-13.92,13.92-13.92h238.4c7.66,0,13.93,6.26,13.93,13.92Z"/>
</svg>