<?xml version="1.0" encoding="UTF-8"?>
<svg id="Camada_1" data-name="Camada 1" xmlns="http://www.w3.org/2000/svg" viewBox="0 0 178.8 121.05">
  <defs>
    <style>
      .cls-1 {
        fill: #327475;
      }

      .cls-2 {
        fill: #eeb98e;
      }

      .cls-3 {
        fill: #282f6b;
      }

      .cls-4 {
        fill: #354293;
      }

      .cls-5 {
        fill: #39898a;
      }
    </style>
  </defs>
  <rect class="cls-4" x="88.4" y="8.16" width="44.94" height="129.17" transform="translate(-2.83 140.99) rotate(-64.25)"/>
  <rect class="cls-2" x="6.25" y="3.14" width="50.89" height="62.82" rx="14.52" ry="14.52" transform="translate(18.16 -10.34) rotate(25.75)"/>
  <rect class="cls-2" x="29.95" y="-1.29" width="19.91" height="45.84" rx="9.96" ry="9.96" transform="translate(13.36 -15.19) rotate(25.75)"/>
  <rect class="cls-5" x="18.71" y="11.36" width="58.46" height="58.46" transform="translate(29.99 100.78) rotate(-113.65)"/>
  <polygon class="cls-3" points="178.8 80.58 159.27 121.05 137.73 110.66 169.34 76.01 178.8 80.58"/>
  <rect class="cls-1" x="15.34" y="4.31" width="37.54" height="62.82" rx="14.52" ry="14.52" transform="translate(18.91 -11.27) rotate(25.75)"/>
  <rect class="cls-2" x="6.67" y="1.3" width="42.41" height="62.82" rx="14.52" ry="14.52" transform="translate(16.98 -8.86) rotate(25.75)"/>
</svg>