<?xml version="1.0" encoding="UTF-8"?>
<svg id="Camada_2" data-name="Camada 2" xmlns="http://www.w3.org/2000/svg" xmlns:xlink="http://www.w3.org/1999/xlink" viewBox="0 0 174.38 174.38">
  <defs>
    <style>
      .cls-1 {
        fill: #009640;
      }

      .cls-2 {
        fill: #6b0f09;
      }

      .cls-3 {
        fill: url(#Gradiente_sem_nome_97-2);
      }

      .cls-4 {
        fill: #e1b479;
      }

      .cls-5 {
        fill: url(#Gradiente_sem_nome_97);
      }

      .cls-6 {
        fill: #ca9e67;
      }
    </style>
    <linearGradient id="Gradiente_sem_nome_97" data-name="Gradiente sem nome 97" x1="122.04" y1="104.36" x2="122.04" y2="39.04" gradientUnits="userSpaceOnUse">
      <stop offset="0" stop-color="#e4032b"/>
      <stop offset=".02" stop-color="#e50f35"/>
      <stop offset=".09" stop-color="#ea405f"/>
      <stop offset=".17" stop-color="#ef6e85"/>
      <stop offset=".25" stop-color="#f395a6"/>
      <stop offset=".34" stop-color="#f7b6c1"/>
      <stop offset=".43" stop-color="#fad0d8"/>
      <stop offset=".53" stop-color="#fce5e9"/>
      <stop offset=".64" stop-color="#fdf3f5"/>
      <stop offset=".78" stop-color="#fefcfc"/>
      <stop offset="1" stop-color="#fff"/>
    </linearGradient>
    <linearGradient id="Gradiente_sem_nome_97-2" data-name="Gradiente sem nome 97" x1="52.35" y1="104.38" x2="52.35" y2="39.06" xlink:href="#Gradiente_sem_nome_97"/>
  </defs>
  <g id="Camada_1-2" data-name="Camada 1">
    <path class="cls-4" d="m174.38,87.19c0,48.16-39.03,87.19-87.19,87.19S.19,135.54,0,87.55v-.36c0-8.91,1.33-17.51,3.82-25.61,3.04-9.93,7.81-19.11,13.96-27.17C32.59,14.96,55.39,1.92,81.28.19c1.95-.13,3.92-.19,5.91-.19,1.42,0,2.84.03,4.24.1,26.72,1.28,50.29,14.58,65.4,34.61,6.25,8.28,11.05,17.7,14.05,27.9,1.68,5.76,2.79,11.77,3.25,17.95.17,2.19.25,4.4.25,6.63Z"/>
    <path class="cls-6" d="m143.7,82.74v8.14c0,5.97-2.42,11.39-6.34,15.3-3.91,3.91-9.33,6.34-15.32,6.34-8.59,0-16.02-5-19.52-12.26-1.02-2.14-1.7-4.48-1.99-6.93-.1-.82-.14-1.62-.14-2.45v-8.14c0,.83.04,1.65.14,2.45.28,2.45.97,4.8,1.99,6.93,3.5,7.25,10.94,12.26,19.52,12.26,5.98,0,11.4-2.42,15.32-6.34,3.92-3.92,6.34-9.33,6.34-15.3Z"/>
    <path class="cls-5" d="m143.38,56.96c-1.79-10.19-10.66-17.92-21.34-17.92-1.7,0-3.35.2-4.93.56-3.41.8-6.5,2.39-9.08,4.57-3.77,3.21-6.43,7.69-7.35,12.77-.21,1.21-.32,2.46-.32,3.73v22.06c0,.83.04,1.65.14,2.45.28,2.45.97,4.8,1.99,6.93,3.5,7.25,10.94,12.26,19.52,12.26,5.98,0,11.4-2.42,15.32-6.34,3.91-3.91,6.34-9.33,6.34-15.3v-22.06c0-1.25-.11-2.53-.32-3.73h0v.02Zm-15.46,22.37c0,6.31-5.12,11.45-11.46,11.45-3.15,0-6.02-1.28-8.09-3.36-2.07-2.08-3.36-4.94-3.36-8.09v-15.24c0-2.7.94-5.18,2.52-7.14,2.08-2.63,5.32-4.32,8.94-4.32s6.87,1.7,8.97,4.32c1.56,1.96,2.5,4.42,2.5,7.14v15.24h-.01Z"/>
    <path class="cls-1" d="m127.92,64.09v15.22c0,6.32-5.12,11.45-11.45,11.45-3.15,0-6.02-1.29-8.09-3.36-2.07-2.07-3.36-4.94-3.36-8.09v-15.22c0-2.7.94-5.18,2.52-7.15,2.08-2.63,5.32-4.32,8.95-4.32s6.87,1.69,8.95,4.32c1.56,1.96,2.5,4.45,2.5,7.15h-.01Z"/>
    <path class="cls-6" d="m30.69,82.74v8.14c0,5.97,2.42,11.39,6.34,15.3,3.92,3.91,9.33,6.34,15.32,6.34,8.59,0,16.02-5,19.52-12.26,1.02-2.14,1.7-4.48,1.99-6.93.1-.82.14-1.62.14-2.45v-8.14c0,.83-.04,1.65-.14,2.45-.28,2.45-.97,4.8-1.99,6.93-3.5,7.25-10.94,12.26-19.52,12.26-5.98,0-11.4-2.42-15.32-6.34-3.92-3.92-6.34-9.33-6.34-15.3Z"/>
    <path class="cls-1" d="m46.47,64.09v15.22c0,6.32,5.12,11.45,11.45,11.45,3.15,0,6.02-1.29,8.09-3.36s3.36-4.94,3.36-8.09v-15.22c0-2.7-.94-5.18-2.52-7.15-2.08-2.63-5.32-4.32-8.95-4.32s-6.87,1.69-8.95,4.32c-1.56,1.96-2.5,4.45-2.5,7.15h.01Z"/>
    <path class="cls-3" d="m30.69,60.68v22.06c0,5.97,2.42,11.39,6.34,15.3,3.92,3.91,9.33,6.34,15.32,6.34,8.59,0,16.02-5,19.52-12.26,1.02-2.14,1.7-4.48,1.99-6.93.1-.82.14-1.62.14-2.45v-22.06c0-1.25-.11-2.53-.32-3.73-.89-5.1-3.56-9.57-7.35-12.77-2.58-2.18-5.67-3.77-9.08-4.57-1.59-.37-3.24-.56-4.93-.56-10.68,0-19.55,7.73-21.34,17.92-.21,1.21-.32,2.46-.32,3.73h0v-.02Zm15.78,3.41c0-2.7.94-5.18,2.5-7.14,2.1-2.63,5.33-4.32,8.97-4.32s6.84,1.7,8.94,4.32c1.58,1.96,2.52,4.42,2.52,7.14v15.24c0,3.15-1.28,6.02-3.36,8.09-2.08,2.07-4.94,3.36-8.09,3.36-6.34,0-11.46-5.12-11.46-11.45v-15.24h-.01Z"/>
    <polygon class="cls-4" points="100.38 53.16 150.51 72.23 156.64 39.55 112.21 15.7 100.38 32.01 100.38 53.16"/>
    <polygon class="cls-4" points="74.59 53.16 24.45 72.23 18.32 39.55 62.75 15.7 74.59 32.01 74.59 53.16"/>
    <path class="cls-6" d="m93.26,107.31c0-4.32-7.81-16.53-7.81-16.53,0,0-7.81,12.22-7.81,16.53s3.49,7.81,7.81,7.81,7.81-3.49,7.81-7.81Z"/>
    <path class="cls-2" d="m90.49,150.37c-7.26,0-13.67-1.57-18.39-3.21s-6.43-6.81-4.03-10.9h0c1.8-3.07,5.52-4.48,8.87-3.3,5.2,1.82,13.46,3.64,22.13,1.29,7.99-2.17,15.04-7.53,21.02-15.97,2.23-3.14,6.47-4.09,9.82-2.19h0c3.83,2.18,5,7.2,2.46,10.8-8.08,11.46-18.01,18.81-29.59,21.89-4.26,1.13-8.4,1.59-12.3,1.59Z"/>
    <path class="cls-2" d="m174.13,80.56c-46.25,3.19-69.11-51.75-69.11-51.75-3.45,15.66-21.74,15.16-21.74,15.16,8.69-3.91,5.78-19.59,5.78-19.59C65.91,58.42,3.82,61.58,3.82,61.58c3.04-9.93,7.81-19.11,13.96-27.17C32.59,14.96,55.39,1.92,81.28.19c1.95-.13,3.92-.19,5.91-.19,1.42,0,2.84.03,4.24.1,26.72,1.28,50.29,14.58,65.4,34.61,6.25,8.28,11.05,17.7,14.05,27.9,1.68,5.76,2.79,11.77,3.25,17.95Z"/>
  </g>
</svg>