<?xml version="1.0" encoding="UTF-8"?>
<svg id="Camada_1" data-name="Camada 1" xmlns="http://www.w3.org/2000/svg" viewBox="0 0 202.97 202.97">
  <defs>
    <style>
      .cls-1 {
        fill: #442a19;
      }

      .cls-2 {
        fill: #fff;
      }

      .cls-3 {
        fill: #946137;
      }

      .cls-4 {
        fill: #683d14;
      }

      .cls-5 {
        fill: #432918;
      }
    </style>
  </defs>
  <path class="cls-3" d="m202.97,101.49c0,56.05-45.43,101.48-101.49,101.48S0,157.54,0,101.49c0-23.1,7.71-44.39,20.7-61.44l-.16,2.26h162.37l-.37-1.9c12.83,16.99,20.43,38.15,20.43,61.08Z"/>
  <rect class="cls-2" x="116.76" y="52.24" width="57.98" height="87.47" rx="28.98" ry="28.98"/>
  <rect class="cls-5" x="122.95" y="70.44" width="30.67" height="51.06" rx="15.34" ry="15.34"/>
  <rect class="cls-2" x="30.24" y="52.24" width="57.98" height="87.47" rx="28.98" ry="28.98"/>
  <rect class="cls-5" x="51.36" y="70.44" width="30.67" height="51.06" rx="15.34" ry="15.34"/>
  <path class="cls-4" d="m115.12,144.08h-27.29c-3.4,0-6.16-2.76-6.16-6.16h0c0-3.4,2.76-6.16,6.16-6.16h7.49v-26.67c0-3.4,2.76-6.16,6.16-6.16h0c3.4,0,6.16,2.76,6.16,6.16v26.67h7.49c3.4,0,6.16,2.76,6.16,6.16h0c0,3.4-2.76,6.16-6.16,6.16h-.01Z"/>
  <path class="cls-2" d="m103.9,177.25c-14.1,0-27.25-5.16-36.86-11.05-4.6-2.82-5.54-9.11-2.08-13.24l.15-.18c2.83-3.4,7.72-4.16,11.5-1.88,10.03,6.06,30.38,14.77,49.28,1.05,3.51-2.56,8.38-2.12,11.46.95l.12.12c3.81,3.81,3.44,10.19-.9,13.39-10.7,7.88-21.95,10.85-32.65,10.85h-.03Z"/>
  <path class="cls-1" d="m182.91,42.31H20.54l.16-2.26C39.24,15.71,68.52,0,101.48,0s62.54,15.86,81.06,40.41l.37,1.9Z"/>
</svg>