<?xml version="1.0" encoding="UTF-8"?>
<svg id="Camada_2" data-name="Camada 2" xmlns="http://www.w3.org/2000/svg" xmlns:xlink="http://www.w3.org/1999/xlink" viewBox="0 0 181.73 181.73">
  <defs>
    <style>
      .cls-1 {
        fill: url(#Gradiente_sem_nome_30-2);
      }

      .cls-2 {
        fill: #fff;
      }

      .cls-3 {
        fill: #271504;
      }

      .cls-4 {
        fill: url(#Gradiente_sem_nome_79-4);
      }

      .cls-5 {
        fill: url(#Gradiente_sem_nome_79-13);
      }

      .cls-6 {
        fill: url(#Gradiente_sem_nome_79-3);
      }

      .cls-7 {
        fill: url(#Gradiente_sem_nome_79-6);
      }

      .cls-8 {
        fill: url(#Gradiente_sem_nome_30);
      }

      .cls-9 {
        fill: #dd887e;
      }

      .cls-10 {
        fill: url(#Gradiente_sem_nome_79-8);
      }

      .cls-11 {
        fill: url(#Gradiente_sem_nome_79-9);
      }

      .cls-12 {
        fill: url(#Gradiente_sem_nome_79-11);
      }

      .cls-13 {
        fill: url(#Gradiente_sem_nome_79-7);
      }

      .cls-14 {
        fill: url(#Gradiente_sem_nome_79);
      }

      .cls-15 {
        fill: url(#Gradiente_sem_nome_79-15);
      }

      .cls-16 {
        fill: #eeb98e;
      }

      .cls-17 {
        fill: url(#Gradiente_sem_nome_79-5);
      }

      .cls-18 {
        fill: none;
        stroke: #d4a680;
        stroke-linecap: round;
        stroke-miterlimit: 10;
        stroke-width: 4px;
      }

      .cls-19 {
        fill: url(#Gradiente_sem_nome_30-3);
      }

      .cls-20 {
        fill: url(#Gradiente_sem_nome_79-2);
      }

      .cls-21 {
        fill: #432918;
      }

      .cls-22 {
        fill: url(#Gradiente_sem_nome_79-10);
      }

      .cls-23 {
        fill: url(#Gradiente_sem_nome_79-14);
      }

      .cls-24 {
        fill: url(#Gradiente_sem_nome_79-12);
      }
    </style>
    <linearGradient id="Gradiente_sem_nome_30" data-name="Gradiente sem nome 30" x1="6.49" y1="74.54" x2="25.98" y2="35.5" gradientUnits="userSpaceOnUse">
      <stop offset="0" stop-color="#eeb98e"/>
      <stop offset=".3" stop-color="#b18564"/>
      <stop offset=".8" stop-color="#442a19"/>
    </linearGradient>
    <linearGradient id="Gradiente_sem_nome_30-2" data-name="Gradiente sem nome 30" x1="148.15" y1="23.16" x2="148.91" y2="21.63" xlink:href="#Gradiente_sem_nome_30"/>
    <linearGradient id="Gradiente_sem_nome_30-3" data-name="Gradiente sem nome 30" x1="160.61" y1="69.5" x2="172.65" y2="45.38" xlink:href="#Gradiente_sem_nome_30"/>
    <linearGradient id="Gradiente_sem_nome_79" data-name="Gradiente sem nome 79" x1="113.14" y1="43.06" x2="136.63" y2="19.58" gradientUnits="userSpaceOnUse">
      <stop offset="0" stop-color="#fff04e"/>
      <stop offset=".2" stop-color="#caba3c"/>
      <stop offset=".84" stop-color="#271504"/>
    </linearGradient>
    <linearGradient id="Gradiente_sem_nome_79-2" data-name="Gradiente sem nome 79" x1="100.79" y1="30.99" x2="124.28" y2="7.51" gradientTransform="translate(46.5 114.12) rotate(-65.69)" xlink:href="#Gradiente_sem_nome_79"/>
    <linearGradient id="Gradiente_sem_nome_79-3" data-name="Gradiente sem nome 79" x1="33.15" y1="30.11" x2="54.92" y2="8.33" xlink:href="#Gradiente_sem_nome_79"/>
    <linearGradient id="Gradiente_sem_nome_79-4" data-name="Gradiente sem nome 79" x1="43.12" y1="42.3" x2="66.6" y2="18.82" gradientTransform="translate(20.94 84.39) rotate(-72.25)" xlink:href="#Gradiente_sem_nome_79"/>
    <linearGradient id="Gradiente_sem_nome_79-5" data-name="Gradiente sem nome 79" x1="-38.43" y1="109.96" x2="-14.95" y2="86.48" gradientTransform="translate(66.05 -77.98) rotate(-7.08)" xlink:href="#Gradiente_sem_nome_79"/>
    <linearGradient id="Gradiente_sem_nome_79-6" data-name="Gradiente sem nome 79" x1="11.17" y1="48.78" x2="14.55" y2="45.39" xlink:href="#Gradiente_sem_nome_79"/>
    <linearGradient id="Gradiente_sem_nome_79-7" data-name="Gradiente sem nome 79" x1="26.03" y1="39.82" x2="37.66" y2="28.18" xlink:href="#Gradiente_sem_nome_79"/>
    <linearGradient id="Gradiente_sem_nome_79-8" data-name="Gradiente sem nome 79" x1="-10.41" y1="98.48" x2="13.08" y2="75" gradientTransform="translate(150.89 -36.52) rotate(-141.45) scale(1 -1)" xlink:href="#Gradiente_sem_nome_79"/>
    <linearGradient id="Gradiente_sem_nome_79-9" data-name="Gradiente sem nome 79" x1="68.58" y1="17.75" x2="89.09" y2="-2.76" xlink:href="#Gradiente_sem_nome_79"/>
    <linearGradient id="Gradiente_sem_nome_79-10" data-name="Gradiente sem nome 79" x1="84.3" y1="15.17" x2="102.13" y2="-2.66" xlink:href="#Gradiente_sem_nome_79"/>
    <linearGradient id="Gradiente_sem_nome_79-11" data-name="Gradiente sem nome 79" x1="136.35" y1="32.68" x2="148.69" y2="20.34" xlink:href="#Gradiente_sem_nome_79"/>
    <linearGradient id="Gradiente_sem_nome_79-12" data-name="Gradiente sem nome 79" x1="126.22" y1="22.96" x2="135.68" y2="13.49" xlink:href="#Gradiente_sem_nome_79"/>
    <linearGradient id="Gradiente_sem_nome_79-13" data-name="Gradiente sem nome 79" x1="149.12" y1="21.76" x2="149.49" y2="21.39" xlink:href="#Gradiente_sem_nome_79"/>
    <linearGradient id="Gradiente_sem_nome_79-14" data-name="Gradiente sem nome 79" x1="127.28" y1="36.13" x2="145.76" y2="17.66" xlink:href="#Gradiente_sem_nome_79"/>
    <linearGradient id="Gradiente_sem_nome_79-15" data-name="Gradiente sem nome 79" x1="146.35" y1="42.87" x2="158.85" y2="30.37" xlink:href="#Gradiente_sem_nome_79"/>
  </defs>
  <g id="Camada_1-2" data-name="Camada 1">
    <path class="cls-16" d="m181.73,90.87v.37c0,.65-.01,1.3-.03,1.95-.01.29-.02.57-.03.85-1.66,48.72-41.68,87.69-90.81,87.69S1.71,142.75.06,94.04c-.04-.93-.06-1.86-.06-2.8v-.37c0-15.48,3.87-30.06,10.69-42.81.76-1.41,1.55-2.8,2.37-4.16,1.68-2.78,3.51-5.47,5.47-8.04,1.55-2.03,3.18-3.99,4.89-5.88,1.37-1.52,2.8-2.99,4.27-4.41.16-.16.31-.31.47-.45.75-.72,1.51-1.43,2.29-2.11.16-.15.32-.29.48-.43h.01s.07-.07.1-.09c.03-.03.06-.06.09-.08.09-.08.19-.17.28-.25.09-.09.19-.17.28-.24.42-.36.84-.72,1.26-1.07.47-.39.94-.77,1.42-1.15.47-.38.95-.75,1.44-1.12.48-.37.97-.73,1.46-1.09s.99-.72,1.49-1.07c.08-.07.18-.13.27-.19.08-.05.16-.09.24-.14t.01-.03s0-.01.02-.01h.01s.02-.03.03-.03c.31-.22.62-.43.93-.63.4-.27.81-.54,1.22-.8h0c1.13-.74,2.27-1.45,3.43-2.13,1.82-1.07,3.68-2.08,5.58-3.01,1.24-.63,2.5-1.22,3.77-1.77,2.67-1.18,5.41-2.23,8.2-3.15.87-.29,1.74-.56,2.62-.82.53-.16,1.06-.31,1.59-.44,5.79-1.61,11.83-2.65,18.03-3.06,2.03-.13,4.08-.21,6.15-.21,1.48,0,2.96.04,4.42.11,2.26.11,4.5.3,6.71.58,1.37.16,2.73.36,4.08.59,7.85,1.32,15.35,3.65,22.37,6.85,1.22.55,2.43,1.13,3.62,1.74,4.08,2.07,7.98,4.45,11.68,7.12,1.72,1.22,3.4,2.51,5.03,3.86h.01s.04.04.06.06c.02.01.04.03.06.05.26.22.52.43.77.64.03.03.06.05.09.08l.03.03c.08.06.14.11.21.19-.4-.18-.8-.34-1.22-.48-.22.87-.59,1.67-1.08,2.4-1.62,2.48-4.54,4.01-7.7,3.72-.17-.02-.34-.04-.5-.06-1.56-.21-3-.76-4.26-1.54-.11-.07-.22-.14-.32-.22-.88,1-1.62,2.12-2.19,3.34.86.58,1.78,1.07,2.76,1.46,1.22.49,2.53.82,3.91.97.08.01.15.02.23.03,2.72.25,5.33-.41,7.5-1.73,2.26-1.37,4.06-3.45,5.06-5.95h.01c.22.2.45.41.67.62.57.53,1.12,1.06,1.67,1.6l.18.18c.06.06.12.12.18.18h0c.98.97,1.93,1.96,2.85,2.97.22.24.44.47.65.71.21.23.42.47.63.71.42.48.84.97,1.25,1.46.14.16.28.32.41.48.04.04.07.09.11.13.45.54.89,1.09,1.33,1.63.44.56.86,1.11,1.29,1.67,1.83,2.43,3.54,4.95,5.13,7.55.79,1.31,1.55,2.63,2.28,3.98.74,1.34,1.43,2.71,2.08,4.09.26.54.51,1.08.76,1.63.31.68.61,1.36.9,2.05.29.69.57,1.39.85,2.08.55,1.39,1.07,2.81,1.55,4.24.19.57.38,1.15.56,1.72.18.58.36,1.16.53,1.74.3,1.01.58,2.04.84,3.07.16.62.32,1.25.46,1.88.14.6.28,1.2.4,1.81.14.65.27,1.29.39,1.94.11.58.21,1.16.31,1.74.12.69.22,1.39.32,2.08.13.88.24,1.77.34,2.66.05.41.09.81.13,1.22.11.95.19,1.91.25,2.87.02.28.03.54.05.82.03.45.06.91.07,1.37.01.18.02.37.03.56.02.55.04,1.1.05,1.66,0,.64.02,1.28.02,1.93Z"/>
    <path class="cls-2" d="m115.52,159.7c-10.28,5.61-21.91,7.07-31.26,6.6-4.47-.22-7.66-4.43-6.78-8.82l.04-.19c.71-3.61,3.97-6.1,7.64-5.94,9.72.43,28.01-1.31,36.34-18.83,1.54-3.26,5.27-4.88,8.73-3.86l.14.04c4.29,1.26,6.56,6.06,4.67,10.12-4.66,10-11.69,16.63-19.49,20.89h-.03Z"/>
    <rect class="cls-2" x="36.01" y="54.59" width="43.84" height="66.14" rx="21.91" ry="21.91"/>
    <path class="cls-21" d="m63.58,68.35h0c6.4,0,11.59,5.19,11.59,11.59v15.42c0,6.4-5.19,11.59-11.59,11.59h0c-6.4,0-11.59-5.19-11.59-11.59v-15.42c0-6.4,5.19-11.59,11.59-11.59Z"/>
    <rect class="cls-2" x="104.37" y="54.59" width="43.84" height="66.14" rx="21.91" ry="21.91"/>
    <path class="cls-21" d="m120.65,68.35h0c-6.4,0-11.59,5.19-11.59,11.59v15.42c0,6.4,5.19,11.59,11.59,11.59h0c6.4,0,11.59-5.19,11.59-11.59v-15.42c0-6.4-5.19-11.59-11.59-11.59Z"/>
    <path class="cls-21" d="m81.78,63.64c-.54,3.23-3.62,5.44-6.85,4.9l-35.94-5.96c-1.61-.27-2.97-1.18-3.87-2.41-.05-.08-.1-.15-.14-.22-.78-1.21-1.14-2.7-.89-4.22.17-1.02.6-1.96,1.21-2.72t.01-.02c1.3-1.64,3.43-2.54,5.62-2.17l35.94,5.96c1.61.27,2.97,1.17,3.87,2.42.88,1.24,1.3,2.83,1.03,4.44Z"/>
    <path class="cls-21" d="m150.13,55.67c.54,3.23-1.66,6.32-4.88,6.86l-35.93,6.05c-1.61.27-3.19-.15-4.44-1.02-.08-.05-.14-.11-.2-.16-1.13-.89-1.96-2.18-2.22-3.7-.17-1.02-.07-2.05.26-2.96t0-.02c.7-1.98,2.42-3.52,4.61-3.89l35.93-6.05c1.61-.27,3.19.14,4.44,1.03,1.23.89,2.15,2.25,2.42,3.86Z"/>
    <path class="cls-9" d="m98.08,122.13c0-3.99-7.22-15.28-7.22-15.28,0,0-7.22,11.29-7.22,15.28s3.23,7.22,7.22,7.22,7.22-3.23,7.22-7.22Z"/>
    <path class="cls-18" d="m55.66,166.38s-5.9-25.5-24.38-35.2"/>
    <path class="cls-18" d="m154.57,142.04s-7.37-11.81-4.07-22.41"/>
    <path class="cls-8" d="m35.13,35.31l-.48.81-2.88,4.81-1.56,2.62L.06,94.04c-.04-.93-.06-1.86-.06-2.8v-.37c0-15.48,3.87-30.06,10.69-42.81.76-1.41,1.55-2.8,2.37-4.16,1.68-2.78,3.51-5.47,5.47-8.04,1.55-2.03,3.18-3.99,4.89-5.88,1.37-1.52,2.8-2.99,4.27-4.41.16-.16.31-.31.47-.45.75-.72,1.51-1.43,2.29-2.11.16-.15.32-.29.48-.43h.01s.07-.07.1-.09c.03-.03.06-.06.09-.08.09-.08.19-.17.28-.25.09-.09.19-.17.28-.24.42-.36.84-.72,1.26-1.07l.81.2.29,3.05.06.59.36,3.72.66,6.9Z"/>
    <path class="cls-1" d="m150,21.9c-.4-.18-.8-.34-1.22-.48-.22.87-.59,1.67-1.08,2.4l.26-2.63v-.14s.81-.2.81-.2h.01s.04.04.06.06c.02.01.04.02.06.04h0c.26.23.52.44.77.65.03.03.06.05.09.08l.03.03c.08.06.14.11.21.19Z"/>
    <path class="cls-19" d="m181.73,90.87v.37c0,.65-.01,1.3-.03,1.95-.01.29-.02.57-.03.85l-30.18-50.54-2.15-3.61-2.48-4.14-.26-.44.53-5.52c2.26-1.37,4.06-3.45,5.06-5.95h.01c.22.2.45.41.67.62.56.52,1.12,1.06,1.67,1.6l.18.18c.06.05.12.11.17.16t.01.02h0c.98.97,1.93,1.96,2.85,2.97.19.19.37.39.55.59.04.04.07.08.1.12.21.23.42.47.63.71.43.47.84.95,1.25,1.44.14.16.27.34.41.5.04.04.07.09.11.13.45.54.89,1.09,1.33,1.63.36.45.71.9,1.06,1.35.08.11.16.21.23.32,1.84,2.42,3.56,4.94,5.13,7.55.8,1.3,1.57,2.63,2.28,3.98.74,1.34,1.43,2.71,2.08,4.09.26.54.51,1.08.76,1.63.31.68.61,1.36.9,2.05.29.69.57,1.39.85,2.08.55,1.39,1.07,2.81,1.55,4.24.19.57.38,1.15.56,1.72.18.58.36,1.16.53,1.74.3,1.01.58,2.04.84,3.07.16.62.32,1.25.46,1.88.14.6.28,1.2.4,1.81.14.65.27,1.29.39,1.94.11.58.21,1.16.31,1.74.12.69.22,1.39.32,2.08.13.88.25,1.77.34,2.66.05.41.09.81.13,1.22.11.95.19,1.91.25,2.87.02.28.03.54.05.82.03.45.06.91.07,1.37.01.18.02.37.03.56.02.55.04,1.1.05,1.66,0,.64.02,1.28.02,1.93Z"/>
    <path class="cls-3" d="m160.81,32.88s-.19.05-.57.13c-.74.18-2.19.5-4.24.94-2.32.49-5.42,1.12-9.14,1.8-2.78.52-5.92,1.07-9.35,1.63-1.71.27-3.5.55-5.36.82-4.96.73-10.36,1.44-16.08,2.05h-.01c-1.64.17-3.31.34-5,.5-.88.08-1.76.16-2.65.23h0c-1.95.17-3.92.32-5.92.45-3.34.22-6.72.4-10.14.51-2.13.07-4.27.12-6.42.13-1.47.02-2.94.02-4.41,0-1.35,0-2.69-.03-4.03-.07-13.61-.35-27.09-1.93-38.83-5.54-1.19-.36-2.37-.75-3.52-1.16-.12-.04-.24-.08-.35-.13-4.06-1.45-7.87-3.17-11.36-5.2,1.37-1.52,2.8-2.99,4.27-4.41.16-.16.31-.31.47-.45.75-.72,1.51-1.43,2.29-2.11.16-.15.32-.29.48-.43h.01s.07-.07.1-.09c.03-.04.06-.06.09-.09.09-.08.19-.16.28-.24.09-.09.19-.17.28-.24.42-.36.84-.72,1.26-1.07.47-.39.94-.77,1.42-1.15.47-.38.95-.75,1.44-1.12.48-.37.97-.73,1.46-1.09s.99-.72,1.49-1.07c.08-.07.18-.13.27-.19.09-.06.17-.11.25-.17,0,0,0-.01.02-.01h.01s.01-.02.01-.02c.01-.01.01-.02.02-.01.31-.22.62-.43.93-.63.4-.27.81-.54,1.22-.8h0c1.13-.74,2.27-1.45,3.43-2.13,1.82-1.07,3.68-2.08,5.58-3.01,1.24-.63,2.5-1.22,3.77-1.77,2.67-1.18,5.41-2.23,8.2-3.15.87-.29,1.74-.56,2.62-.82.53-.16,1.06-.31,1.59-.44,5.79-1.61,11.83-2.65,18.03-3.06,2.03-.13,4.08-.21,6.15-.21,1.48,0,2.96.04,4.42.11,2.26.11,4.5.3,6.71.58,1.37.16,2.73.36,4.08.59,7.85,1.32,15.35,3.65,22.37,6.85,1.22.55,2.43,1.13,3.62,1.74,4.08,2.07,7.98,4.45,11.68,7.12,1.72,1.22,3.4,2.51,5.03,3.86h.01s.04.04.06.06c.02.01.04.03.06.05.26.22.52.43.77.64.03.03.06.05.09.08l.03.03c.08.06.14.11.21.19-.4-.18-.8-.34-1.22-.48-.22.87-.59,1.67-1.08,2.4-1.62,2.48-4.54,4.01-7.7,3.72-.17-.02-.34-.04-.5-.06-1.56-.21-3-.76-4.26-1.54-.11-.07-.22-.14-.32-.22-.88,1-1.62,2.12-2.19,3.34.86.58,1.78,1.07,2.76,1.46,1.22.49,2.53.82,3.91.97.08.01.15.02.23.03,2.72.25,5.33-.41,7.5-1.73,2.26-1.37,4.06-3.45,5.06-5.95h.01c.22.2.45.41.67.62.57.53,1.12,1.06,1.67,1.6l.18.18c.06.06.12.12.18.18h0c.98.97,1.93,1.96,2.85,2.97.22.24.44.47.65.71.21.23.42.47.63.71.42.48.84.97,1.25,1.46.14.16.28.32.41.48.04.04.07.09.11.13Z"/>
    <path class="cls-14" d="m123,46.73c-5.36,0-10.54-2.89-13.2-7.96-3.16-6.01-.84-13.46,5.17-16.62.98-.52,2.19-.14,2.7.84.51.98.14,2.19-.84,2.7-4.05,2.13-5.62,7.16-3.49,11.21,2.79,5.31,9.38,7.36,14.69,4.57,6.88-3.62,9.54-12.16,5.92-19.04-.51-.98-.14-2.19.84-2.7.98-.51,2.19-.14,2.7.84,4.64,8.83,1.23,19.8-7.6,24.44-2.2,1.16-4.57,1.71-6.9,1.71Z"/>
    <path class="cls-20" d="m123.63,27.54c-2.2,4.88-6.98,8.41-12.68,8.75-6.77.4-12.61-4.78-13.02-11.55-.07-1.1.77-2.05,1.88-2.12,1.1-.07,2.05.77,2.12,1.88.27,4.57,4.22,8.07,8.79,7.79,5.99-.36,10.57-5.52,10.21-11.51-.46-7.76-7.16-13.7-14.92-13.23-1.1.07-2.05-.77-2.12-1.88-.07-1.1.77-2.05,1.88-2.12,9.96-.59,18.55,7.03,19.15,16.99.15,2.48-.33,4.86-1.28,6.99Z"/>
    <path class="cls-6" d="m44.93,27.14c-1.5.79-3.07,1.29-4.65,1.53-.75.12-1.5.18-2.25.18-.2,0-.41,0-.61-.02-.48,0-.96-.05-1.43-.12-.51-.07-1.02-.17-1.52-.3-2.32-.56-4.49-1.68-6.31-3.29.75-.72,1.51-1.43,2.29-2.11.16-.15.32-.29.48-.43h.01s.07-.07.1-.09c.03-.04.06-.06.09-.09h0c.89.72,1.87,1.29,2.92,1.7.45.18.91.32,1.38.43,1.3.32,2.66.4,4.01.22,1.24-.16,2.46-.54,3.62-1.15,5.32-2.79,8.11-8.52,7.44-14.15,1.24-.63,2.5-1.22,3.77-1.77,1.48,7.63-2.12,15.66-9.34,19.46Z"/>
    <path class="cls-4" d="m80.87,47.95c-1.63,5.1-5.97,9.15-11.6,10.14-6.68,1.17-13.07-3.31-14.25-9.99-.19-1.09.54-2.12,1.62-2.32,1.09-.19,2.12.54,2.32,1.62.79,4.51,5.11,7.53,9.62,6.74,5.91-1.04,9.87-6.69,8.83-12.6-1.35-7.66-8.67-12.79-16.33-11.45-1.09.19-2.13-.54-2.32-1.62-.19-1.09.54-2.12,1.62-2.32,9.83-1.73,19.23,4.86,20.96,14.69.43,2.45.23,4.87-.48,7.09Z"/>
    <path class="cls-17" d="m51.7,38.3c-5.31.66-10.81-1.57-14.08-6.27-3.87-5.57-2.49-13.25,3.08-17.13.91-.63,2.15-.41,2.78.5.63.91.41,2.15-.5,2.78-3.76,2.61-4.69,7.8-2.08,11.56,3.43,4.93,10.22,6.15,15.14,2.72,6.38-4.44,7.97-13.24,3.53-19.63-.63-.91-.41-2.15.5-2.78.91-.63,2.15-.41,2.78.5,5.7,8.2,3.66,19.5-4.53,25.2-2.04,1.42-4.32,2.26-6.64,2.54Z"/>
    <path class="cls-7" d="m13.76,49.12c-.93.6-2.17.35-2.77-.58-.1-.16-.2-.32-.3-.48.76-1.41,1.55-2.8,2.37-4.16.33.84.75,1.66,1.27,2.45.61.92.35,2.16-.57,2.77Z"/>
    <path class="cls-13" d="m38.65,36.47c-.53,3.29-2.39,6.36-5.39,8.33-.92.61-2.16.35-2.77-.58-.14-.21-.23-.44-.28-.67-.17-.78.14-1.63.86-2.1.24-.16.48-.33.7-.52,1.53-1.25,2.51-2.96,2.88-4.81.06-.31.11-.62.13-.94.15-1.78-.27-3.62-1.32-5.23-1.42-2.16-3.48-3.65-5.77-4.38.16-.16.31-.31.47-.45.75-.72,1.51-1.43,2.29-2.11.16-.15.32-.29.48-.43h.01c1.13.56,2.2,1.26,3.17,2.11.48.41.93.86,1.35,1.34.49.53.93,1.11,1.34,1.73.23.35.44.7.62,1.07.78,1.47,1.22,3.06,1.35,4.65h0c.08,1.01.04,2-.12,2.99Z"/>
    <path class="cls-10" d="m87.66,43.71c4.19,3.34,10.04,4.3,15.28,2,6.21-2.73,9.04-10,6.32-16.22-.44-1.01-1.62-1.47-2.64-1.03-1.01.44-1.47,1.62-1.03,2.64,1.84,4.19-.07,9.1-4.26,10.94-5.49,2.41-11.93-.09-14.34-5.58-3.13-7.12.12-15.45,7.24-18.58,1.01-.44,1.47-1.62,1.03-2.64-.44-1.01-1.62-1.47-2.64-1.03-9.14,4.02-13.3,14.72-9.29,23.85,1,2.28,2.51,4.18,4.33,5.63Z"/>
    <path class="cls-11" d="m95.7,5.01c-.47,3.09-1.71,5.88-3.48,8.21-.67.87-1.41,1.67-2.21,2.4-.49.45-1.01.87-1.54,1.26-.25.19-.5.36-.76.52-3.6,2.37-8.06,3.46-12.64,2.76-2.46-.38-4.69-1.34-6.57-2.72-3.96-2.94-6.35-7.75-6.03-12.91.87-.29,1.74-.56,2.62-.82.53-.16,1.06-.31,1.59-.44-.05.17-.08.35-.11.53-.91,5.93,3.18,11.5,9.1,12.41,3.02.46,5.96-.07,8.5-1.36,1.29-.65,2.47-1.5,3.5-2.51,2.11-2.06,3.6-4.8,4.08-7.93.17-1.09,1.19-1.84,2.28-1.68,1.09.17,1.84,1.19,1.67,2.28Z"/>
    <path class="cls-22" d="m106.06,3.56c-.1,1.35-.39,2.65-.84,3.88-.07.2-.15.4-.23.6-1.71,4.14-5.24,7.4-9.68,8.66-.87.25-1.77.43-2.7.51-1.43.13-2.82.01-4.14-.33-.04,0-.08-.01-.12-.03-1.52-.4-2.94-1.08-4.18-2-2.72-2.01-4.61-5.13-4.95-8.76-.11-1.1.7-2.07,1.8-2.17,1.1-.11,2.08.7,2.18,1.8.27,2.93,2.04,5.36,4.47,6.62,1.36.7,2.92,1.03,4.55.88h.02c5.97-.55,10.38-5.86,9.83-11.84-.02-.23-.05-.46-.08-.69,1.37.16,2.73.36,4.08.59.06.77.06,1.53-.01,2.28Z"/>
    <path class="cls-12" d="m152.19,23.84c-1,2.5-2.8,4.58-5.06,5.95-2.17,1.32-4.78,1.98-7.5,1.73-.08,0-.15-.02-.23-.03-1.38-.15-2.69-.48-3.91-.97-.98-.39-1.9-.88-2.76-1.46.57-1.22,1.31-2.34,2.19-3.34.1.08.21.15.32.22,1.26.78,2.7,1.33,4.26,1.54.16.02.33.04.5.06,3.16.29,6.08-1.24,7.7-3.72.49-.73.86-1.53,1.08-2.4.42.14.82.3,1.22.48h.01s.02.01.03.02c.73.63,1.45,1.26,2.15,1.92Z"/>
    <path class="cls-24" d="m134.92,25.72c-.88,1-1.62,2.12-2.19,3.34-1.16-.77-2.19-1.7-3.08-2.75-1-1.18-1.82-2.51-2.41-3.95-.89-2.16-1.28-4.55-1.05-7.03.24-2.62,1.03-5.05,2.25-7.2,1.22.55,2.43,1.13,3.62,1.74-1.03,1.73-1.69,3.7-1.89,5.83-.24,2.65.49,5.17,1.9,7.2.76,1.11,1.73,2.06,2.85,2.82Z"/>
    <path class="cls-5" d="m150,21.9c-.4-.18-.8-.34-1.22-.48.05-.15.09-.3.12-.46.26.22.52.43.77.64.03.03.06.05.09.08l.03.03c.08.06.14.11.21.19Z"/>
    <path class="cls-23" d="m150,21.9c-.4-.18-.8-.34-1.22-.48-.27-.09-.54-.16-.82-.23-.91-.22-1.86-.32-2.83-.29-2.42.07-4.68.75-6.65,1.89-1.25.72-2.38,1.63-3.35,2.69-.07.08-.14.16-.21.24-.88,1-1.62,2.12-2.19,3.34-.89,1.92-1.36,4.07-1.3,6.33.03,1.11-.84,2.03-1.94,2.06-1.11.03-2.03-.84-2.06-1.94-.09-3.33.72-6.47,2.22-9.2.67-1.23,1.49-2.37,2.42-3.41.52-.58,1.08-1.13,1.68-1.63.73-.64,1.52-1.21,2.35-1.72,2.26-1.39,4.85-2.29,7.64-2.56,1.72,1.22,3.4,2.51,5.03,3.86h.01s.04.04.06.06c.02.01.04.02.06.04h0c.26.23.52.44.77.65.03.03.06.05.09.08l.03.03c.08.06.14.11.21.19Z"/>
    <path class="cls-15" d="m160.29,32.25s.01.01,0,.02c0,.25-.02.49-.05.74-.53,4.97-4.04,9.1-8.75,10.49-1,.29-2.05.47-3.13.5-1.11.03-2.02-.84-2.06-1.94-.03-1.11.84-2.03,1.95-2.06.37-.01.73-.05,1.09-.11,3.21-.51,5.79-2.88,6.66-5.94.23-.79.33-1.63.31-2.49-.05-1.83-.56-3.54-1.4-5.03.98.96,1.93,1.95,2.85,2.96.19.19.37.39.55.59.04.04.07.08.1.12.21.23.42.47.63.71.43.47.84.95,1.25,1.44Z"/>
  </g>
</svg>