<?xml version="1.0" encoding="UTF-8"?>
<svg id="Camada_1" data-name="Camada 1" xmlns="http://www.w3.org/2000/svg" viewBox="0 0 202.97 202.97">
  <defs>
    <style>
      .cls-1 {
        fill: #fff;
      }

      .cls-2 {
        fill: #b08380;
      }

      .cls-3 {
        fill: #b28e71;
      }

      .cls-4 {
        fill: #432918;
      }

      .cls-5 {
        fill: #c9a07f;
      }

      .cls-6 {
        fill: #1d1d1b;
      }

      .cls-7 {
        fill: #8d1315;
      }
    </style>
  </defs>
  <path class="cls-7" d="m202.97,101.49c0,56.05-45.43,101.48-101.49,101.48S.22,157.76,0,101.9v-.41c0-23.1,7.71-44.39,20.7-61.44C37.94,17.42,64.47,2.24,94.61.23c2.27-.15,4.56-.23,6.87-.23,1.66,0,3.31.04,4.94.12,31.1,1.49,58.53,16.97,76.12,40.29,7.27,9.63,12.86,20.6,16.35,32.47,2.65,9.07,4.08,18.68,4.08,28.61Z"/>
  <circle class="cls-2" cx="102.48" cy="89.55" r="75.76"/>
  <circle class="cls-5" cx="101.48" cy="134.57" r="58.6"/>
  <rect class="cls-1" x="115.54" y="38.33" width="49.91" height="75.29" rx="24.95" ry="24.95"/>
  <rect class="cls-4" x="120.87" y="54" width="26.4" height="43.95" rx="13.2" ry="13.2"/>
  <rect class="cls-1" x="38.54" y="38.33" width="49.91" height="75.29" rx="24.95" ry="24.95"/>
  <rect class="cls-4" x="56.72" y="54" width="26.4" height="43.95" rx="13.2" ry="13.2"/>
  <path class="cls-3" d="m160.08,134.57c0-32.36-26.23-58.6-58.6-58.6s-58.6,26.23-58.6,58.6,117.19,32.36,117.19,0Z"/>
  <circle class="cls-6" cx="82.11" cy="107.38" r="4.71"/>
  <circle class="cls-6" cx="120.86" cy="107.38" r="4.71"/>
  <path class="cls-1" d="m103.9,168.83c-14.1,0-27.25-5.16-36.86-11.05-4.6-2.82-5.54-9.11-2.08-13.24l.15-.18c2.83-3.4,7.72-4.16,11.5-1.88,10.03,6.06,30.38,14.77,49.28,1.05,3.51-2.56,8.38-2.12,11.46.95l.12.12c3.81,3.81,3.44,10.19-.9,13.39-10.7,7.88-21.95,10.85-32.65,10.85h-.03Z"/>
</svg>