<?xml version="1.0" encoding="UTF-8"?>
<svg id="Camada_1" data-name="Camada 1" xmlns="http://www.w3.org/2000/svg" viewBox="0 0 202.97 202.97">
  <defs>
    <style>
      .cls-1 {
        fill: #1d9dd9;
      }

      .cls-2 {
        fill: #fff;
      }

      .cls-3 {
        fill: #1f1f1d;
      }

      .cls-4 {
        fill: #e1b479;
      }

      .cls-5 {
        fill: #ca9e67;
      }
    </style>
  </defs>
  <path class="cls-4" d="m202.97,101.49c0,56.05-45.43,101.48-101.49,101.48S.22,157.76,0,101.9v-.41c0-23.1,7.71-44.39,20.7-61.44C37.94,17.42,64.47,2.24,94.61.23c2.27-.15,4.56-.23,6.87-.23,1.66,0,3.31.04,4.94.12,31.1,1.49,58.53,16.97,76.12,40.29,7.27,9.63,12.86,20.6,16.35,32.47,2.65,9.07,4.08,18.68,4.08,28.61Z"/>
  <path class="cls-5" d="m175.99,100.15v10.73c0,7.87-3.19,15.02-8.36,20.18-5.16,5.16-12.3,8.36-20.2,8.36-11.32,0-21.12-6.6-25.74-16.17-1.35-2.82-2.24-5.91-2.63-9.14-.13-1.08-.19-2.14-.19-3.23v-10.73c0,1.09.06,2.17.19,3.23.37,3.23,1.28,6.32,2.63,9.14,4.61,9.56,14.43,16.17,25.74,16.17,7.89,0,15.03-3.19,20.2-8.36,5.17-5.17,8.36-12.3,8.36-20.18Z"/>
  <path class="cls-2" d="m175.58,66.15c-2.36-13.44-14.05-23.62-28.14-23.62-2.24,0-4.41.26-6.5.73-4.5,1.05-8.56,3.15-11.97,6.02-4.97,4.24-8.48,10.15-9.69,16.84-.27,1.6-.42,3.25-.42,4.91v29.08c0,1.09.06,2.17.19,3.23.37,3.23,1.28,6.32,2.63,9.14,4.61,9.56,14.43,16.17,25.74,16.17,7.89,0,15.03-3.19,20.2-8.36,5.16-5.16,8.36-12.3,8.36-20.18v-29.08c0-1.65-.14-3.33-.42-4.91h0v.03Zm-20.39,29.5c0,8.32-6.75,15.1-15.12,15.1-4.15,0-7.93-1.68-10.66-4.43s-4.43-6.51-4.43-10.66v-20.09c0-3.56,1.24-6.83,3.32-9.41,2.74-3.46,7.01-5.69,11.78-5.69s9.05,2.24,11.83,5.69c2.05,2.59,3.29,5.83,3.29,9.41v20.09h-.01Z"/>
  <path class="cls-5" d="m110.74,122.31c0-5.1-9.24-22.16-9.24-22.16,0,0-9.24,17.04-9.24,22.16s4.14,9.24,9.24,9.24,9.24-4.14,9.24-9.24Z"/>
  <path class="cls-5" d="m102.77,160.43c-11.12,0-21.4-4.51-28.41-9.33-2.24-1.54-2.63-4.73-.86-6.8l2.83-3.32-3,3.51.22-.23c1.54-1.81,4.15-2.14,6.11-.83,7.37,4.93,25.66,14.34,42.56.55,1.83-1.49,4.47-1.31,6.14.36h0c1.95,1.95,1.74,5.16-.42,6.91-8.23,6.68-16.94,9.15-25.18,9.15v.04h.01Z"/>
  <path class="cls-1" d="m155.18,75.56v20.07c0,8.33-6.75,15.1-15.1,15.1-4.15,0-7.93-1.7-10.66-4.43-2.73-2.73-4.43-6.51-4.43-10.66v-20.07c0-3.56,1.24-6.83,3.32-9.43,2.74-3.46,7.01-5.69,11.8-5.69s9.05,2.23,11.8,5.69c2.05,2.59,3.29,5.86,3.29,9.43h-.01Z"/>
  <path class="cls-5" d="m26.98,100.15v10.73c0,7.87,3.19,15.02,8.36,20.18,5.17,5.16,12.3,8.36,20.2,8.36,11.32,0,21.12-6.6,25.74-16.17,1.35-2.82,2.24-5.91,2.63-9.14.13-1.08.19-2.14.19-3.23v-10.73c0,1.09-.06,2.17-.19,3.23-.37,3.23-1.28,6.32-2.63,9.14-4.61,9.56-14.43,16.17-25.74,16.17-7.89,0-15.03-3.19-20.2-8.36-5.17-5.17-8.36-12.3-8.36-20.18Z"/>
  <path class="cls-1" d="m47.78,75.56v20.07c0,8.33,6.75,15.1,15.1,15.1,4.15,0,7.93-1.7,10.66-4.43s4.43-6.51,4.43-10.66v-20.07c0-3.56-1.24-6.83-3.32-9.43-2.74-3.46-7.01-5.69-11.8-5.69s-9.05,2.23-11.8,5.69c-2.05,2.59-3.29,5.86-3.29,9.43h.01Z"/>
  <path class="cls-2" d="m26.98,71.06v29.08c0,7.87,3.19,15.02,8.36,20.18,5.17,5.16,12.3,8.36,20.2,8.36,11.32,0,21.12-6.6,25.74-16.17,1.35-2.82,2.24-5.91,2.63-9.14.13-1.08.19-2.14.19-3.23v-29.08c0-1.65-.14-3.33-.42-4.91-1.18-6.73-4.7-12.62-9.69-16.84-3.41-2.87-7.47-4.97-11.97-6.02-2.1-.49-4.27-.73-6.5-.73-14.08,0-25.78,10.19-28.14,23.62-.27,1.6-.42,3.25-.42,4.91h0v-.03Zm20.81,4.5c0-3.56,1.24-6.83,3.29-9.41,2.77-3.46,7.03-5.69,11.83-5.69s9.02,2.24,11.78,5.69c2.08,2.59,3.32,5.83,3.32,9.41v20.09c0,4.15-1.68,7.93-4.43,10.66-2.74,2.73-6.51,4.43-10.66,4.43-8.36,0-15.12-6.75-15.12-15.1v-20.09h-.01Z"/>
  <path class="cls-3" d="m198.89,72.88c-6.67,3.16-13.9,5.39-21.56,6.54-33.87,5.04-65.88-12.83-80.28-41.98C80.25,74.67,43.23,100.82,0,101.9v-.41c0-23.1,7.71-44.39,20.7-61.44C37.94,17.42,64.47,2.24,94.61.23c.57-.04,1.14-.07,1.71-.1.48-.02.97-.04,1.46-.06,1.23-.05,2.46-.07,3.7-.07,1.66,0,3.31.04,4.94.12,31.1,1.49,58.53,16.97,76.12,40.29,7.27,9.63,12.86,20.6,16.35,32.47Z"/>
</svg>