<?xml version="1.0" encoding="UTF-8"?>
<svg id="Camada_2" data-name="Camada 2" xmlns="http://www.w3.org/2000/svg" viewBox="0 0 74.1 74.1">
  <defs>
    <style>
      .cls-1 {
        fill: #fff;
      }

      .cls-2 {
        fill: #cc3024;
      }

      .cls-3 {
        fill: #3c3c3b;
      }

      .cls-4 {
        fill: none;
        stroke: #d33126;
        stroke-linecap: round;
        stroke-miterlimit: 10;
      }

      .cls-5 {
        fill: #ec671a;
      }
    </style>
  </defs>
  <g id="Camada_1-2" data-name="Camada 1">
    <path class="cls-5" d="m74.1,37.06c0,6.92-1.9,13.39-5.2,18.93-2.37,3.99-5.48,7.5-9.13,10.33-6.28,4.89-14.16,7.79-22.72,7.79C16.63,74.1.08,57.6,0,37.2v-.15c0-2.18.19-4.32.55-6.4,1.04-5.96,3.49-11.42,7-16.03,2.08-2.72,4.51-5.15,7.25-7.2C20.37,3.23,27.16.58,34.54.08c.83-.05,1.67-.08,2.51-.08.6,0,1.2.01,1.8.04,8.5.41,16.26,3.68,22.31,8.88,2.03,1.74,3.87,3.7,5.48,5.84,2.65,3.51,4.69,7.52,5.97,11.85.39,1.32.7,2.67.94,4.04.36,2.08.55,4.22.55,6.4Z"/>
    <g>
      <path class="cls-3" d="m23.84,17.95h0c-2.37-2.37-6.23-2.37-8.6,0l-5.72,5.72c-2.37,2.37-2.37,6.23,0,8.6h0c2.37,2.37,6.23,2.37,8.6,0l5.72-5.72c2.37-2.37,2.37-6.23,0-8.6Z"/>
      <path class="cls-2" d="m19.54,16.17c1.56,0,3.11.59,4.3,1.78,2.37,2.37,2.37,6.23,0,8.6l-5.72,5.72c-1.19,1.19-2.74,1.78-4.3,1.78s-3.11-.59-4.3-1.78c-2.37-2.37-2.37-6.23,0-8.6l5.72-5.72c1.19-1.19,2.74-1.78,4.3-1.78m0-3c-2.43,0-4.71.94-6.42,2.66l-5.72,5.72c-1.71,1.71-2.66,4-2.66,6.42s.94,4.71,2.66,6.42c1.71,1.71,4,2.66,6.42,2.66s4.71-.94,6.42-2.66l5.72-5.72c1.71-1.71,2.66-4,2.66-6.42s-.94-4.71-2.66-6.42c-1.71-1.71-4-2.66-6.42-2.66h0Z"/>
    </g>
    <g>
      <path class="cls-3" d="m50.25,17.95h0c2.37-2.37,6.23-2.37,8.6,0l5.72,5.72c2.37,2.37,2.37,6.23,0,8.6h0c-2.37,2.37-6.23,2.37-8.6,0l-5.72-5.72c-2.37-2.37-2.37-6.23,0-8.6Z"/>
      <path class="cls-2" d="m54.55,16.17c1.56,0,3.11.59,4.3,1.78l5.72,5.72c2.37,2.37,2.37,6.23,0,8.6-1.19,1.19-2.74,1.78-4.3,1.78s-3.11-.59-4.3-1.78l-5.72-5.72c-2.37-2.37-2.37-6.23,0-8.6,1.19-1.19,2.74-1.78,4.3-1.78m0-3c-2.43,0-4.71.94-6.42,2.66-1.71,1.71-2.66,4-2.66,6.42s.94,4.71,2.66,6.42l5.72,5.72c1.71,1.71,4,2.66,6.42,2.66s4.71-.94,6.42-2.66c1.71-1.71,2.66-4,2.66-6.42s-.94-4.71-2.66-6.42l-5.72-5.72c-1.71-1.71-4-2.66-6.42-2.66h0Z"/>
    </g>
    <path class="cls-1" d="m53.43,55.06c0,2.67-2.15,4.83-4.82,4.83h-23.12c-2.66,0-4.82-2.16-4.82-4.83,0-2.47,1.86-4.5,4.25-4.79.18-.02.38-.03.57-.03h23.12c.19,0,.39.01.57.03,2.4.29,4.25,2.32,4.25,4.79Z"/>
    <path class="cls-2" d="m51.16,45.58c.02-.11.02-.23.02-.34,0-2.04-.83-3.88-2.18-5.23s-3.19-2.17-5.23-2.17h-13.44c-4.07,0-7.41,3.33-7.41,7.4,0,.11,0,.23.02.34-4.19,1.12-7.27,4.95-7.27,9.48,0,5.42,4.4,9.83,9.82,9.83h23.12c5.42,0,9.82-4.41,9.82-9.83,0-4.53-3.08-8.36-7.27-9.48Zm-2.55,14.31h-23.12c-2.66,0-4.82-2.16-4.82-4.83,0-2.47,1.86-4.5,4.25-4.79.18-.02.38-.03.57-.03h23.12c.19,0,.39.01.57.03,2.4.29,4.25,2.32,4.25,4.79,0,2.67-2.15,4.83-4.82,4.83Z"/>
    <circle class="cls-3" cx="28.44" cy="42.77" r="1.95"/>
    <circle class="cls-3" cx="45.86" cy="42.77" r="1.95"/>
    <rect class="cls-3" x="24.88" y="52.88" width="4.37" height="4.37" transform="translate(46.86 -3.01) rotate(45)"/>
    <rect class="cls-3" x="31.71" y="52.88" width="4.37" height="4.37" transform="translate(48.87 -7.84) rotate(45)"/>
    <rect class="cls-3" x="38.33" y="52.88" width="4.37" height="4.37" transform="translate(50.8 -12.52) rotate(45)"/>
    <rect class="cls-3" x="44.85" y="52.88" width="4.37" height="4.37" transform="translate(52.71 -17.13) rotate(45)"/>
    <line class="cls-4" x1="45.86" y1="33.84" x2="28.44" y2="33.84"/>
  </g>
</svg>