<?xml version="1.0" encoding="UTF-8"?>
<svg id="Camada_1" data-name="Camada 1" xmlns="http://www.w3.org/2000/svg" viewBox="0 0 202.97 202.97">
  <defs>
    <style>
      .cls-1 {
        fill: #3da9e0;
      }

      .cls-2 {
        fill: #fff;
      }

      .cls-3 {
        fill: #dd887e;
      }

      .cls-4 {
        fill: #fab337;
      }

      .cls-5 {
        fill: #eeb98e;
      }
    </style>
  </defs>
  <path class="cls-5" d="m202.97,101.49c0,56.05-45.43,101.48-101.49,101.48S.22,157.76,0,101.9v-.41c0-23.1,7.71-44.39,20.7-61.44,5.68-7.45,12.36-14.1,19.86-19.72C55.81,8.85,74.4,1.58,94.61.23c2.27-.15,4.56-.23,6.87-.23,1.66,0,3.31.04,4.94.12,23.29,1.12,44.53,10.08,61.11,24.31,5.56,4.77,10.59,10.13,15.01,15.98,7.27,9.63,12.86,20.6,16.35,32.47,2.65,9.07,4.08,18.68,4.08,28.61Z"/>
  <path class="cls-2" d="m145.86,39.44h.03c15.54,0,28.16,12.62,28.16,28.16v28.69c0,15.54-12.62,28.16-28.16,28.16h-.03c-15.54,0-28.16-12.62-28.16-28.16v-28.69c0-15.54,12.62-28.16,28.16-28.16Z"/>
  <path class="cls-1" d="m138.6,57.14h.01c8.22,0,14.9,6.68,14.9,14.9v19.83c0,8.22-6.68,14.9-14.9,14.9h-.01c-8.22,0-14.9-6.68-14.9-14.9v-19.83c0-8.22,6.68-14.9,14.9-14.9Z"/>
  <path class="cls-2" d="m57.09,39.44h.03c15.54,0,28.16,12.62,28.16,28.16v28.69c0,15.54-12.62,28.16-28.16,28.16h-.03c-15.54,0-28.16-12.62-28.16-28.16v-28.69c0-15.54,12.62-28.16,28.16-28.16Z"/>
  <path class="cls-3" d="m113.91,122.64c0-6.88-12.44-26.34-12.44-26.34,0,0-12.44,19.47-12.44,26.34s5.57,12.44,12.44,12.44,12.44-5.57,12.44-12.44Z"/>
  <path class="cls-1" d="m64.36,57.14h0c8.23,0,14.9,6.67,14.9,14.9v19.82c0,8.23-6.67,14.9-14.9,14.9h0c-8.23,0-14.9-6.67-14.9-14.9v-19.82c0-8.23,6.67-14.9,14.9-14.9Z"/>
  <path class="cls-3" d="m109.97,163.53c-4.44,0-8.66-.47-12.33-1.22-2.53-.51-4.09-3.05-3.35-5.54v-.04c.65-2.13,2.81-3.47,5-3.05,9.66,1.86,34.89,4.11,45.74-19.99.92-2.04,3.28-3.01,5.39-2.27h0c2.43.85,3.58,3.61,2.51,5.94-9.21,20.4-27.53,26.15-42.94,26.15h-.01Z"/>
  <polygon class="cls-5" points="113.91 69.87 174.05 39.44 138.61 18.39 128.12 30.97 113.91 69.87"/>
  <polygon class="cls-5" points="180.21 96.3 107.44 96.3 123.7 122.28 138.61 130.15 180.21 124.46 180.21 96.3"/>
  <path class="cls-4" d="m167.53,24.43c-20.75,24.78-47.05,33.96-47.05,33.96-32.78,9.85-67.21-7.04-79.92-38.06C55.81,8.85,74.4,1.58,94.61.23c2.27-.15,4.56-.23,6.87-.23,1.66,0,3.31.04,4.94.12,23.29,1.12,44.53,10.08,61.11,24.31Z"/>
</svg>