<?xml version="1.0" encoding="UTF-8"?>
<svg id="Camada_2" data-name="Camada 2" xmlns="http://www.w3.org/2000/svg" viewBox="0 0 148.18 148.19">
  <defs>
    <style>
      .cls-1 {
        fill: #fff;
      }

      .cls-2 {
        fill: #7b512d;
      }

      .cls-3 {
        fill: #946137;
      }

      .cls-4 {
        fill: #9d9d9c;
      }

      .cls-5 {
        fill: #343333;
      }

      .cls-6 {
        fill: #432918;
      }

      .cls-7 {
        fill: #1d1d1b;
      }
    </style>
  </defs>
  <g id="Camada_1-2" data-name="Camada 1">
    <path class="cls-3" d="m148.18,73.54v.56c0,9.56-1.81,18.7-5.11,27.09-4.91,12.5-13.12,23.35-23.57,31.46-12.54,9.74-28.3,15.54-45.41,15.54C33.27,148.19.15,115.18,0,74.4v-.3c0-1.88.07-3.74.21-5.58,1.09-14.71,6.47-28.22,14.9-39.28,3.25-4.28,6.98-8.19,11.07-11.66,1.12-.95,2.26-1.86,3.43-2.73,3.43-2.58,7.09-4.87,10.95-6.83,5.17-2.64,10.71-4.69,16.52-6.05,3.88-.92,7.89-1.53,11.99-1.8,1.66-.11,3.33-.17,5.02-.17,1.21,0,2.41.03,3.6.09,2.93.14,5.81.45,8.64.92,1.61.27,3.2.59,4.77.96,3.93.92,7.75,2.16,11.41,3.68,2.83,1.18,5.57,2.52,8.2,4.03,4.13,2.34,8.01,5.08,11.59,8.16.9.77,1.78,1.55,2.63,2.36,3.03,2.86,5.81,5.98,8.34,9.31,5.3,7.03,9.38,15.04,11.93,23.7,1.89,6.45,2.93,13.28,2.98,20.33Z"/>
    <path class="cls-6" d="m120.86,79.85v6.74c0,4.94-2,9.43-5.25,12.66-3.24,3.24-7.72,5.25-12.68,5.25-7.11,0-13.26-4.14-16.16-10.15-.85-1.77-1.41-3.71-1.65-5.74-.08-.68-.12-1.34-.12-2.03v-6.74c0,.69.04,1.36.12,2.03.23,2.03.8,3.97,1.65,5.74,2.9,6,9.06,10.15,16.16,10.15,4.95,0,9.44-2,12.68-5.25s5.25-7.72,5.25-12.66Z"/>
    <path class="cls-1" d="m120.6,58.51c-1.48-8.43-8.82-14.83-17.66-14.83-1.41,0-2.77.16-4.08.46-2.82.66-5.38,1.98-7.51,3.78-3.12,2.66-5.32,6.37-6.08,10.57-.17,1-.26,2.04-.26,3.08v18.26c0,.69.04,1.36.12,2.03.23,2.03.8,3.97,1.65,5.74,2.9,6,9.06,10.15,16.16,10.15,4.95,0,9.44-2,12.68-5.25,3.24-3.24,5.25-7.72,5.25-12.66v-18.26c0-1.04-.09-2.09-.26-3.08h0v.02Zm-12.8,18.52c0,5.22-4.24,9.48-9.49,9.48-2.61,0-4.98-1.06-6.69-2.78s-2.78-4.09-2.78-6.69v-12.61c0-2.24.78-4.28,2.08-5.91,1.72-2.17,4.4-3.57,7.4-3.57s5.68,1.41,7.42,3.57c1.29,1.62,2.07,3.66,2.07,5.91v12.61h0Z"/>
    <path class="cls-6" d="m107.8,64.42v12.6c0,5.23-4.24,9.48-9.48,9.48-2.61,0-4.98-1.06-6.69-2.78-1.71-1.71-2.78-4.09-2.78-6.69v-12.6c0-2.24.78-4.28,2.08-5.92,1.72-2.17,4.4-3.57,7.41-3.57s5.68,1.4,7.41,3.57c1.29,1.62,2.07,3.68,2.07,5.92h0Z"/>
    <path class="cls-6" d="m27.32,79.85v6.74c0,4.94,2,9.43,5.25,12.66,3.25,3.24,7.72,5.25,12.68,5.25,7.11,0,13.26-4.14,16.16-10.15.85-1.77,1.41-3.71,1.65-5.74.08-.68.12-1.34.12-2.03v-6.74c0,.69-.04,1.36-.12,2.03-.23,2.03-.8,3.97-1.65,5.74-2.9,6-9.06,10.15-16.16,10.15-4.95,0-9.44-2-12.68-5.25s-5.25-7.72-5.25-12.66Z"/>
    <path class="cls-6" d="m40.38,64.42v12.6c0,5.23,4.24,9.48,9.48,9.48,2.61,0,4.98-1.06,6.69-2.78s2.78-4.09,2.78-6.69v-12.6c0-2.24-.78-4.28-2.08-5.92-1.72-2.17-4.4-3.57-7.41-3.57s-5.68,1.4-7.41,3.57c-1.29,1.62-2.07,3.68-2.07,5.92h0Z"/>
    <path class="cls-1" d="m27.32,61.6v18.26c0,4.94,2,9.43,5.25,12.66s7.72,5.25,12.68,5.25c7.11,0,13.26-4.14,16.16-10.15.85-1.77,1.41-3.71,1.65-5.74.08-.68.12-1.34.12-2.03v-18.26c0-1.04-.09-2.09-.26-3.08-.74-4.22-2.95-7.92-6.08-10.57-2.14-1.8-4.69-3.12-7.51-3.78-1.32-.31-2.68-.46-4.08-.46-8.84,0-16.18,6.4-17.66,14.83-.17,1-.26,2.04-.26,3.08h0v-.02Zm13.06,2.82c0-2.24.78-4.28,2.07-5.91,1.74-2.17,4.41-3.57,7.42-3.57s5.66,1.41,7.4,3.57c1.31,1.62,2.08,3.66,2.08,5.91v12.61c0,2.61-1.06,4.98-2.78,6.69-1.72,1.71-4.09,2.78-6.69,2.78-5.25,0-9.49-4.24-9.49-9.48v-12.61h0Z"/>
    <rect class="cls-3" x="22.99" y="43.7" width="42.84" height="24.73"/>
    <path class="cls-3" d="m78.84,43.68v24.75h4.65c-.55-.26-1.05-.63-1.48-1.06-1-.99-1.61-2.36-1.61-3.86,0-3,2.46-5.46,5.46-5.46h33.4c1.5,0,2.87.62,3.85,1.6s1.61,2.36,1.61,3.86c0,.94-.24,1.83-.67,2.61-.54,1-1.39,1.81-2.42,2.31h4.72v-24.75h-47.51Z"/>
    <path class="cls-5" d="m102.56,5.69s-10.4,34.92-34.9,55.33c-.95-1.61-2.7-2.7-4.7-2.7h-25.49c-3.76,2.93-7.98,5.69-12.7,8.08.54,1,1.39,1.81,2.42,2.31h29.15c-14.68,7.85-33.22,10.02-56.13-.19,1.09-14.71,6.47-28.22,14.9-39.28,3.25-4.28,6.98-8.19,11.07-11.66,1.12-.95,2.26-1.86,3.43-2.73,3.43-2.58,7.09-4.87,10.95-6.83,5.17-2.64,10.71-4.69,16.52-6.05,3.88-.92,7.89-1.53,11.99-1.8,1.66-.11,3.33-.17,5.02-.17,1.21,0,2.41.03,3.6.09,4.59.22,9.08.86,13.41,1.88,3.93.92,7.75,2.16,11.41,3.68l.05.04Z"/>
    <path class="cls-5" d="m148.18,73.54c-8.17-1.08-15.43-3.34-21.83-6.31-.78-.36-1.55-.73-2.3-1.11.43-.78.67-1.67.67-2.61,0-1.5-.61-2.86-1.61-3.86s-2.35-1.6-3.85-1.6h-7.91c-5.96-4.64-10.76-9.7-14.49-14.37-7.27-9.06-10.53-16.61-10.53-16.61V1.01c1.61.27,3.2.59,4.77.96,3.93.92,7.75,2.16,11.41,3.68,2.83,1.18,5.57,2.52,8.2,4.03,4.13,2.34,8.01,5.08,11.59,8.16.9.77,1.78,1.55,2.63,2.36,3.03,2.86,5.81,5.98,8.34,9.31,5.3,7.03,9.38,15.04,11.93,23.7,1.89,6.45,2.93,13.28,2.98,20.33Z"/>
    <path class="cls-6" d="m83.87,107.19h-19.58c-2.44,0-4.42-1.98-4.42-4.42h0c0-2.44,1.98-4.42,4.42-4.42h5.38v-19.13c0-2.44,1.98-4.42,4.42-4.42h0c2.44,0,4.42,1.98,4.42,4.42v19.13h5.38c2.44,0,4.42,1.98,4.42,4.42h0c0,2.44-1.98,4.42-4.42,4.42h0Z"/>
    <path class="cls-6" d="m58.25,113.58c6.98,0,13.43,2.83,17.83,5.85,1.41.97,1.65,2.97.54,4.27l-1.78,2.08,1.89-2.2-.14.14c-.97,1.14-2.61,1.34-3.83.52-4.63-3.09-16.11-9-26.72-.34-1.15.94-2.81.82-3.85-.23h0c-1.23-1.23-1.09-3.24.26-4.34,5.17-4.19,10.63-5.75,15.8-5.75v-.03h0Z"/>
    <circle class="cls-4" cx="123.82" cy="73.2" r="1.61"/>
    <path d="m124.72,63.51c0,.94-.24,1.83-.67,2.61-4.72-2.38-8.94-5.14-12.7-8.07h7.91c1.5,0,2.87.62,3.85,1.6s1.61,2.36,1.61,3.86Z"/>
    <path class="cls-2" d="m124.05,66.12c-.54,1-1.39,1.81-2.42,2.31h-38.14c-.55-.26-1.05-.63-1.48-1.06-1-.99-1.61-2.36-1.61-3.86,0-3,2.46-5.46,5.46-5.46h25.49c3.76,2.93,7.98,5.69,12.7,8.07Z"/>
    <path d="m121.63,68.43c-.72.36-1.52.55-2.37.55h-33.4c-.85,0-1.65-.19-2.37-.55h38.14Z"/>
    <circle class="cls-4" cx="117.98" cy="58.05" r="1.61"/>
    <rect class="cls-5" x="80.4" y="60.96" width="44.32" height="10.93" rx="5.46" ry="5.46"/>
    <path class="cls-7" d="m67.66,61.02c-3.48,2.91-7.25,5.52-11.32,7.69h-29.15c-1.03-.5-1.88-1.31-2.42-2.31,4.72-2.39,3.93-5.15,7.69-8.08h30.5c2,0,3.75,1.09,4.7,2.7Z"/>
    <path class="cls-2" d="m68.42,63.78c0,1.5-.61,2.87-1.61,3.87-.43.42-.93.79-1.48,1.06h-8.99c4.07-2.17,7.84-4.78,11.32-7.69.49.81.76,1.76.76,2.76Z"/>
    <path class="cls-7" d="m32.6,58.29v13.6h-2.71c-1.5,0-2.86-.62-3.86-1.6-.06-.06-.11-.12-.16-.18-.7-1.17-1.1-2.53-1.1-3.99,0-.81.12-1.59.35-2.33t.01-.02c1-3.17,3.97-5.48,7.47-5.48Z"/>
    <path class="cls-5" d="m68.75,66.43c0,3-2.46,5.46-5.46,5.46H29.89c-1.5,0-2.86-.62-3.86-1.6-.06-.06-.11-.12-.16-.18-.89-.98-1.44-2.27-1.44-3.68,0-.95.25-1.86.69-2.64t.01-.02c.93-1.68,2.72-2.81,4.76-2.81h33.4c1.5,0,2.86.61,3.86,1.61.98.99,1.6,2.36,1.6,3.86Z"/>
    <path class="cls-5" d="m109.84,114.07c-.09-.31-.02-.5-.02-.5,0,0,0,.18.02.5Z"/>
    <path class="cls-5" d="m143.07,101.19c-4.91,12.5-13.12,23.35-23.57,31.46-8.44-4.97-9.52-16.07-9.66-18.57.27.88,1.7,4.22,9.75,4.22,8.7,0,18.73-10.87,23.48-17.11Z"/>
  </g>
</svg>