<?xml version="1.0" encoding="UTF-8"?>
<svg id="Camada_2" data-name="Camada 2" xmlns="http://www.w3.org/2000/svg" viewBox="0 0 157.27 157.28">
  <defs>
    <style>
      .cls-1 {
        fill: #fff;
      }

      .cls-2 {
        fill: #f3deb3;
      }

      .cls-3 {
        fill: #3c3c3b;
      }

      .cls-4 {
        fill: #343333;
      }

      .cls-5 {
        fill: #e1c0a2;
      }

      .cls-6 {
        fill: #1d1d1b;
      }
    </style>
  </defs>
  <g id="Camada_1-2" data-name="Camada 1">
    <path class="cls-2" d="m157.27,78.64c0,43.44-35.2,78.64-78.64,78.64-27.75,0-52.14-14.37-66.14-36.08-2.91-4.51-5.37-9.34-7.31-14.43C1.86,98.13.04,88.76,0,78.96v-.32c0-.66.01-1.32.02-1.98.04-1.48.12-2.96.24-4.42.15-1.91.38-3.8.67-5.68,2.02-13.22,7.34-25.34,15.11-35.53,3.44-4.54,7.4-8.69,11.74-12.37,1.19-1.01,2.4-1.98,3.65-2.91,3.64-2.73,7.52-5.16,11.61-7.24,5.49-2.81,11.38-4.98,17.54-6.42,4.12-.98,8.37-1.62,12.73-1.91,1.76-.12,3.53-.18,5.32-.18,1.29,0,2.57.03,3.83.09,4.86.24,9.63.92,14.23,2,7.4,1.73,14.38,4.51,20.81,8.18,4.38,2.49,8.51,5.39,12.3,8.66.96.81,1.89,1.65,2.79,2.51,3.22,3.03,6.17,6.34,8.85,9.87,5.64,7.47,9.96,15.97,12.67,25.16.95,3.28,1.71,6.65,2.24,10.09.5,3.31.81,6.68.9,10.1.01.66.02,1.32.02,1.98Z"/>
    <path class="cls-1" d="m67.74,74.19v19.74c0,10.7-8.67,19.38-19.38,19.38h0c-10.71,0-19.38-8.68-19.38-19.38v-19.74c0-1.04.08-2.06.24-3.05,1.46-9.25,9.47-16.33,19.14-16.33h0c10.71,0,19.38,8.68,19.38,19.38Z"/>
    <path class="cls-4" d="m53.35,66.98h0c5.66,0,10.25,4.59,10.25,10.25v13.63c0,5.66-4.59,10.25-10.25,10.25h0c-5.66,0-10.25-4.59-10.25-10.25v-13.63c0-5.66,4.59-10.25,10.25-10.25Z"/>
    <rect class="cls-1" x="89.52" y="54.81" width="38.77" height="58.5" rx="19.38" ry="19.38"/>
    <path class="cls-4" d="m103.92,66.98h0c-5.66,0-10.25,4.59-10.25,10.25v13.63c0,5.66,4.59,10.25,10.25,10.25h0c5.66,0,10.25-4.59,10.25-10.25v-13.63c0-5.66-4.59-10.25-10.25-10.25Z"/>
    <path class="cls-5" d="m84.6,107.34c0-3.3-5.96-12.63-5.96-12.63,0,0-5.96,9.33-5.96,12.63s2.67,5.96,5.96,5.96,5.96-2.67,5.96-5.96Z"/>
    <path class="cls-6" d="m5.18,106.77c10.77,6.17,20.42,10.68,20.42,10.68,0,0-4.78,2.34-13.11,3.75-2.91-4.51-5.37-9.34-7.31-14.43Z"/>
    <path class="cls-6" d="m152.18,106.77c-10.77,6.17-20.42,10.68-20.42,10.68,0,0,4.78,2.34,13.11,3.75,2.91-4.51,5.37-9.34,7.31-14.43Z"/>
    <path class="cls-3" d="m67.74,74.19v6.51l-4.14-1.02-20.19-5.01-14.2-3.53c1.46-9.25,9.47-16.33,19.14-16.33h0c10.71,0,19.38,8.68,19.38,19.38Z"/>
    <path class="cls-6" d="m6.5,72.13c-2.22,0-4.3.04-6.24.11.15-1.91.38-3.8.67-5.68,2.02-13.22,7.34-25.34,15.11-35.53,3.44-4.54,7.4-8.69,11.74-12.37,1.19-1.01,2.4-1.98,3.65-2.91,3.64-2.73,7.52-5.16,11.61-7.24,5.49-2.81,11.38-4.98,17.54-6.42,4.12-.98,8.37-1.62,12.73-1.91,1.76-.12,3.53-.18,5.32-.18,0,0,5.79,72.13-72.13,72.13Z"/>
    <path class="cls-3" d="m89.64,74.19v6.51s4.14-1.02,4.14-1.02l20.19-5.01,14.2-3.53c-1.46-9.25-9.47-16.33-19.14-16.33h0c-10.71,0-19.38,8.68-19.38,19.38Z"/>
    <path class="cls-6" d="m150.86,72.13c2.22,0,4.3.04,6.24.11-.15-1.91-.38-3.8-.67-5.68-2.02-13.22-7.34-25.34-15.11-35.53-3.44-4.54-7.4-8.69-11.74-12.37-1.19-1.01-2.4-1.98-3.65-2.91-3.64-2.73-7.52-5.16-11.61-7.24-5.49-2.81-11.38-4.98-17.54-6.42-4.12-.98-8.37-1.62-12.73-1.91C82.29.06,80.52,0,78.73,0c0,0-5.79,72.13,72.13,72.13Z"/>
    <path class="cls-1" d="m80.14,138.56c-8.85,0-17.1-3.24-23.14-6.94-2.89-1.77-3.48-5.72-1.31-8.31l.09-.11c1.78-2.14,4.84-2.61,7.22-1.18,6.3,3.8,19.07,9.27,30.94.66,2.2-1.61,5.26-1.33,7.19.6l.08.08c2.39,2.39,2.16,6.4-.56,8.41-6.72,4.95-13.78,6.81-20.5,6.81h-.02Z"/>
  </g>
</svg>