<?xml version="1.0" encoding="UTF-8"?>
<svg id="Camada_2" data-name="Camada 2" xmlns="http://www.w3.org/2000/svg" viewBox="0 0 202.96 202.97">
  <defs>
    <style>
      .cls-1 {
        fill: #fff;
      }

      .cls-2 {
        fill: #683c11;
      }

      .cls-3 {
        fill: #432918;
      }
    </style>
  </defs>
  <g id="Camada_1-2" data-name="Camada 1">
    <path class="cls-2" d="m202.96,101.49c0,56.05-45.42,101.48-101.48,101.48S.21,157.76,0,101.9v-.41c0-23.1,7.7-44.39,20.7-61.44,4.45-5.86,9.55-11.22,15.16-15.97,1.53-1.3,3.09-2.55,4.7-3.75,4.7-3.53,9.71-6.67,14.99-9.35,7.09-3.62,14.68-6.42,22.63-8.28,5.32-1.27,10.81-2.1,16.43-2.47,2.27-.15,4.56-.23,6.87-.23,1.66,0,3.31.04,4.94.12,6.28.3,12.43,1.18,18.36,2.58,9.55,2.23,18.57,5.82,26.86,10.55,5.66,3.21,10.98,6.96,15.88,11.18,1.23,1.05,2.43,2.13,3.6,3.24,4.15,3.91,7.96,8.18,11.42,12.74,7.27,9.63,12.85,20.6,16.35,32.47,2.65,9.07,4.07,18.68,4.07,28.61Z"/>
    <path class="cls-1" d="m165.73,80.19v19.89c0,13.65-11.06,24.72-24.71,24.72h-.01c-13.65,0-24.72-11.07-24.72-24.72v-19.89h49.44Z"/>
    <rect class="cls-3" x="121.57" y="65.73" width="26.16" height="43.54" rx="13.08" ry="13.08"/>
    <path class="cls-1" d="m86.67,80.19v19.89c0,13.65-11.07,24.72-24.72,24.72h-.01c-13.65,0-24.72-11.07-24.72-24.72v-19.89h49.45Z"/>
    <rect class="cls-3" x="55.24" y="65.73" width="26.16" height="43.54" rx="13.08" ry="13.08"/>
    <path class="cls-3" d="m111.48,131.79c0-5.52-10-23.98-10-23.98,0,0-10,18.45-10,23.98s4.48,10,10,10,10-4.48,10-10Z"/>
    <path class="cls-3" d="m62.38,154.1l.3-.32c2.17-2.55,5.86-3.02,8.62-1.18,10.4,6.95,36.21,20.23,60.06.77,2.58-2.11,6.31-1.85,8.66.51h0c2.76,2.76,2.45,7.28-.59,9.75-11.62,9.43-23.9,12.92-35.52,12.92v.06l.02-.02c-15.69,0-30.19-6.37-40.08-13.16-3.16-2.17-3.71-6.67-1.22-9.59"/>
    <path class="cls-3" d="m86.67,74.92v5.27h-49.45v-5.27c0-13.65,11.07-24.72,24.72-24.72h.01c13.65,0,24.72,11.07,24.72,24.72Z"/>
    <path class="cls-3" d="m165.73,74.92v5.27h-49.44v-5.27c0-13.65,11.07-24.72,24.72-24.72h.01c6.82,0,13,2.76,17.47,7.24,4.47,4.47,7.24,10.65,7.24,17.48Z"/>
    <path class="cls-3" d="m165.74,80.52v5.27h-.01v-5.27c0-6.83-2.77-13.01-7.24-17.48,4.48,4.47,7.25,10.65,7.25,17.48Z"/>
  </g>
</svg>