<?xml version="1.0" encoding="UTF-8"?>
<svg id="Camada_2" data-name="Camada 2" xmlns="http://www.w3.org/2000/svg" viewBox="0 0 127.4 127.41">
  <defs>
    <style>
      .cls-1 {
        fill: #3da9e0;
      }

      .cls-2 {
        fill: #fff;
      }

      .cls-3 {
        fill: #dd887e;
      }

      .cls-4 {
        fill: #fff042;
      }

      .cls-5 {
        fill: #eeb98e;
      }

      .cls-6 {
        fill: #432918;
      }

      .cls-7 {
        fill: #ffdf43;
      }
    </style>
  </defs>
  <g id="Camada_1-2" data-name="Camada 1">
    <path class="cls-5" d="m127.4,63.71c0,11.89-3.26,23.03-8.94,32.55-4.08,6.86-9.42,12.89-15.69,17.76-10.79,8.4-24.34,13.39-39.07,13.39C28.6,127.41.13,99.03,0,63.96v-.25c0-3.75.32-7.43.95-11.01,1.78-10.24,6-19.63,12.04-27.56,3.57-4.68,7.76-8.85,12.47-12.38C35.03,5.55,46.7.99,59.38.14c1.43-.09,2.87-.14,4.32-.14,1.04,0,2.07.02,3.1.07,14.62.71,27.95,6.33,38.36,15.26,3.49,3,6.65,6.36,9.42,10.04,4.56,6.04,8.07,12.93,10.26,20.38.67,2.27,1.21,4.59,1.62,6.95.62,3.58.94,7.26.94,11.01Z"/>
    <path class="cls-2" d="m53.89,56.29v16.06c0,7.42-5.14,13.65-12.05,15.32-1.48.36-2.95-.52-3.48-1.95-1.76-4.74-6.31-8.11-11.65-8.11-.29,0-.57,0-.85.03-1.52.1-2.95-.84-3.23-2.34-.18-.96-.28-1.94-.28-2.95v-16.06c0-8.7,7.06-15.76,15.76-15.76h.02c8.7,0,15.76,7.06,15.76,15.76Z"/>
    <path class="cls-6" d="m42.18,50.43h0c4.6,0,8.34,3.73,8.34,8.34v11.09c0,4.6-3.73,8.34-8.34,8.34h0c-4.6,0-8.34-3.73-8.34-8.34v-11.09c0-4.6,3.73-8.34,8.34-8.34Z"/>
    <rect class="cls-2" x="71.23" y="40.53" width="31.54" height="47.58" rx="15.76" ry="15.76"/>
    <path class="cls-6" d="m82.94,50.43h0c-4.6,0-8.34,3.73-8.34,8.34v11.09c0,4.6,3.73,8.34,8.34,8.34h0c4.6,0,8.34-3.73,8.34-8.34v-11.09c0-4.6-3.73-8.34-8.34-8.34Z"/>
    <path class="cls-1" d="m102.77,56.29v.79h-31.54v-.79c0-8.7,7.06-15.76,15.76-15.76h.02c8.7,0,15.76,7.06,15.76,15.76Z"/>
    <path class="cls-1" d="m53.89,56.29v.79h-31.54v-.79c0-8.7,7.06-15.76,15.76-15.76h.02c8.7,0,15.76,7.06,15.76,15.76Z"/>
    <path class="cls-4" d="m126.46,52.7h-15.82c-6.61,0-12.38-4.46-14.05-10.85l-4.65-17.79-3.6,15.96c-1.67,7.42-8.26,12.68-15.86,12.68H.95c1.78-10.24,6-19.63,12.04-27.56,3.57-4.68,7.76-8.85,12.47-12.38C35.03,5.55,46.7.99,59.38.14c1.43-.09,2.87-.14,4.32-.14,1.04,0,2.07.02,3.1.07,14.62.71,27.95,6.33,38.36,15.26,3.49,3,6.65,6.36,9.42,10.04,4.56,6.04,8.07,12.93,10.26,20.38.67,2.27,1.21,4.59,1.62,6.95Z"/>
    <path class="cls-7" d="m66.06,52.7l-1.41-23.64c-.09-1.52-2.31-1.56-2.46-.04l-2.26,23.68h6.13Z"/>
    <path class="cls-7" d="m51.25,52.7l-1.41-23.64c-.09-1.52-2.31-1.56-2.46-.04l-2.26,23.68h6.13Z"/>
    <path class="cls-7" d="m36.43,52.7l-1.41-23.64c-.09-1.52-2.31-1.56-2.46-.04l-2.26,23.68h6.13Z"/>
    <path class="cls-7" d="m21.62,52.7l-1.41-23.64c-.09-1.52-2.31-1.56-2.46-.04l-2.26,23.68h6.13Z"/>
    <path class="cls-3" d="m68.52,88.16c0-3.3-5.96-12.63-5.96-12.63,0,0-5.96,9.33-5.96,12.63s2.67,5.96,5.96,5.96,5.96-2.67,5.96-5.96Z"/>
    <path class="cls-5" d="m39.13,90.04c0,6.86-5.56,12.43-12.42,12.43s-12.43-5.57-12.43-12.43c0-5.72,3.88-10.55,9.14-11.99,1.05-.29,2.15-.44,3.29-.44,6.2,0,11.33,4.54,12.27,10.48.1.63.15,1.29.15,1.95Z"/>
    <path class="cls-3" d="m31.52,100.52c-1.81-2.12-3.31-4.32-4.46-6.38-.79-1.41-.22-3.2,1.27-3.86l.02-.02c1.28-.56,2.8-.08,3.5,1.14,3.06,5.37,12.29,18.31,28.21,13.64,1.35-.4,2.78.33,3.28,1.64h0c.59,1.51-.26,3.18-1.81,3.62-13.49,3.94-23.71-2.44-30-9.79h-.01Z"/>
    <path class="cls-4" d="m118.46,96.26c-4.08,6.86-9.42,12.89-15.69,17.76-2.78-10.12,3.3-17.76,3.3-17.76,5.29,5.14,12.39,0,12.39,0Z"/>
  </g>
</svg>