<?xml version="1.0" encoding="UTF-8"?>
<svg id="Camada_1" data-name="Camada 1" xmlns="http://www.w3.org/2000/svg" viewBox="0 0 202.97 202.97">
  <defs>
    <style>
      .cls-1 {
        fill: #1d9dd9;
      }

      .cls-2 {
        fill: #fff;
      }

      .cls-3 {
        fill: #dadada;
      }

      .cls-4 {
        fill: #eeb98e;
      }

      .cls-5 {
        fill: #ca9e67;
      }

      .cls-6 {
        fill: #1d1d1b;
      }
    </style>
  </defs>
  <path class="cls-4" d="m202.97,101.49c0,56.05-45.43,101.48-101.49,101.48S.22,157.76,0,101.9v-.41c0-23.1,7.71-44.39,20.7-61.44,4.46-5.86,9.55-11.22,15.16-15.97,1.53-1.3,3.09-2.55,4.7-3.75,4.7-3.53,9.71-6.67,14.99-9.35C67.41,4.94,80.62,1.16,94.61.23c2.27-.15,4.56-.23,6.87-.23,1.66,0,3.31.04,4.94.12,16.39.79,31.77,5.46,45.22,13.13,5.66,3.21,10.98,6.96,15.89,11.18,1.22,1.05,2.42,2.13,3.59,3.24,4.16,3.91,7.97,8.18,11.42,12.74,7.27,9.63,12.86,20.6,16.35,32.47,2.65,9.07,4.08,18.68,4.08,28.61Z"/>
  <path class="cls-2" d="m175.56,64.49c-2.36-13.44-14.05-23.62-28.14-23.62-2.24,0-4.41.26-6.5.73-4.5,1.05-8.56,3.15-11.97,6.02-4.97,4.24-8.48,10.15-9.69,16.84-.27,1.6-.42,3.25-.42,4.91v29.08c0,1.09.06,2.17.19,3.23.37,3.23,1.28,6.32,2.63,9.14,4.61,9.56,14.43,16.17,25.74,16.17,7.89,0,15.03-3.19,20.2-8.36,5.16-5.16,8.36-12.3,8.36-20.18v-29.08c0-1.65-.14-3.33-.42-4.91h0v.03Zm-20.39,29.5c0,8.32-6.75,15.1-15.12,15.1-4.15,0-7.93-1.68-10.66-4.43s-4.43-6.51-4.43-10.66v-20.09c0-3.56,1.24-6.83,3.32-9.41,2.74-3.46,7.01-5.69,11.78-5.69s9.05,2.24,11.83,5.69c2.05,2.59,3.29,5.83,3.29,9.41v20.09h-.01Z"/>
  <path class="cls-1" d="m155.17,73.91v20.07c0,8.33-6.75,15.1-15.1,15.1-4.15,0-7.93-1.7-10.66-4.43-2.73-2.73-4.43-6.51-4.43-10.66v-20.07c0-3.56,1.24-6.83,3.32-9.43,2.74-3.46,7.01-5.69,11.8-5.69s9.05,2.23,11.8,5.69c2.05,2.59,3.29,5.86,3.29,9.43h-.01Z"/>
  <path class="cls-1" d="m47.77,73.91v20.07c0,8.33,6.75,15.1,15.1,15.1,4.15,0,7.93-1.7,10.66-4.43,2.73-2.73,4.43-6.51,4.43-10.66v-20.07c0-3.56-1.24-6.83-3.32-9.43-2.74-3.46-7.01-5.69-11.8-5.69s-9.05,2.23-11.8,5.69c-2.05,2.59-3.29,5.86-3.29,9.43h.01Z"/>
  <path class="cls-2" d="m26.96,69.41v29.08c0,7.87,3.19,15.02,8.36,20.18,5.17,5.16,12.3,8.36,20.2,8.36,11.32,0,21.12-6.6,25.74-16.17,1.35-2.82,2.24-5.91,2.63-9.14.13-1.08.19-2.14.19-3.23v-29.08c0-1.65-.14-3.33-.42-4.91-1.18-6.73-4.7-12.62-9.69-16.84-3.41-2.87-7.47-4.97-11.97-6.02-2.1-.49-4.27-.73-6.5-.73-14.08,0-25.78,10.19-28.14,23.62-.27,1.6-.42,3.25-.42,4.91h0v-.03Zm20.81,4.5c0-3.56,1.24-6.83,3.29-9.41,2.77-3.46,7.03-5.69,11.83-5.69s9.02,2.24,11.78,5.69c2.08,2.59,3.32,5.83,3.32,9.41v20.09c0,4.15-1.68,7.93-4.43,10.66-2.74,2.73-6.51,4.43-10.66,4.43-8.36,0-15.12-6.75-15.12-15.1v-20.09h-.01Z"/>
  <path class="cls-6" d="m180.34,80.94h-55.99c-6.64,0-12.02,5.38-12.02,12.02v9.37c-.16-.01-.32-.02-.49-.02h-20.25c-.31,0-.63.03-.94.07v-9.42c0-6.64-5.38-12.02-12.02-12.02H22.64c-6.64,0-12.02,5.38-12.02,12.02v35.28c0,6.64,5.38,12.01,12.02,12.01h55.99c4.38,0,8.21-2.33,10.31-5.83-.22-.92-.33-1.89-.33-2.88,0-1.8.82-4.65,2.04-7.92v-7.1c.31.04.63.06.94.06h20.25c.17,0,.33,0,.49-.02v7.08c1.22,3.26,2.04,6.11,2.04,7.9,0,.99-.11,1.96-.33,2.88,2.1,3.5,5.93,5.83,10.31,5.83h55.99c6.64,0,12.02-5.37,12.02-12.01v-35.28c0-6.64-5.38-12.02-12.02-12.02Zm-99.3,42.08c0,4.2-3.43,7.62-7.62,7.62H28.3c-4.44,0-8.08-3.63-8.08-8.07v-23.02c0-4.95,4.05-9,9-9h43.5c4.56,0,8.31,3.74,8.31,8.31v24.16Zm101.7,0c0,4.2-3.42,7.62-7.62,7.62h-45.1c-4.44,0-8.08-3.63-8.08-8.07v-23.02c0-4.95,4.05-9,9-9h43.49c4.58,0,8.31,3.74,8.31,8.31v24.16Z"/>
  <path class="cls-5" d="m114.36,131.54c0,.99-.11,1.96-.33,2.88-1.31,5.73-6.43,10-12.55,10s-11.25-4.26-12.55-10c-.22-.92-.33-1.89-.33-2.88,0-1.8.82-4.65,2.04-7.92.84-2.22,1.86-4.64,2.94-7.04h15.79c1.09,2.41,2.11,4.83,2.95,7.06,1.22,3.26,2.04,6.11,2.04,7.9Z"/>
  <path class="cls-5" d="m109.58,164.77c-8.78-4.58-22.43-5.15-28.98-5.13-2.12,0-3.86-1.64-3.99-3.76v-.03c-.14-2.29,1.69-4.22,3.98-4.22,7.27-.02,22.28.66,32.77,6.11,2.18,1.13,2.8,3.97,1.33,5.93h0c-1.19,1.59-3.35,2.02-5.11,1.1Z"/>
  <rect class="cls-3" x="36.68" y="35.15" width="38.81" height="14" rx="7" ry="7"/>
  <path class="cls-3" d="m125.69,37.44h0c-2.73-2.31-2.71-6.53.07-8.78,4.52-3.67,11.83-8.14,20.62-8.14,6.97,0,13.5,2.72,19.48,8.1,2.59,2.33,2.56,6.41-.11,8.65h0c-2.16,1.82-5.34,1.81-7.43-.07-3.85-3.48-7.83-5.24-11.87-5.26h-.06c-5.49,0-10.39,3.09-13.46,5.61-2.1,1.72-5.15,1.65-7.23-.1Z"/>
</svg>