<?xml version="1.0" encoding="UTF-8"?>
<svg id="Camada_2" data-name="Camada 2" xmlns="http://www.w3.org/2000/svg" viewBox="0 0 202.96 202.97">
  <defs>
    <style>
      .cls-1 {
        fill: #009640;
      }

      .cls-2 {
        fill: #fff;
      }

      .cls-3 {
        fill: #be1622;
      }

      .cls-4 {
        fill: #dd887e;
      }

      .cls-5 {
        fill: #edbba0;
      }

      .cls-6 {
        fill: #dd8343;
      }

      .cls-7 {
        fill: #1d1d1b;
      }
    </style>
  </defs>
  <g id="Camada_1-2" data-name="Camada 1">
    <path class="cls-5" d="m202.96,101.49c0,56.05-45.42,101.48-101.48,101.48S.21,157.76,0,101.9v-.41c0-9.38,1.27-18.46,3.65-27.09l38.8-17.93c.23-1.32.97-2.58,2.3-3.47,18.94-12.87,45.77-35.55,1.57-36.69,2.97-1.94,6.05-3.72,9.23-5.33,3.49-1.78,7.08-3.36,10.79-4.73,3.84-1.41,7.79-2.6,11.84-3.55,5.32-1.27,10.81-2.1,16.43-2.47,2.27-.15,4.56-.23,6.87-.23,1.66,0,3.31.04,4.94.12,6.28.3,12.43,1.18,18.36,2.58,9.55,2.23,18.57,5.82,26.86,10.55,5.66,3.21,10.98,6.96,15.88,11.18,1.23,1.05,2.43,2.13,3.6,3.24,2.64,2.49,5.15,5.13,7.51,7.89,1.35,1.58,2.65,3.19,3.91,4.85,7.27,9.63,12.85,20.6,16.35,32.47,2.65,9.07,4.07,18.68,4.07,28.61Z"/>
    <path class="cls-2" d="m164.47,84.94c-2-11.42-11.95-20.09-23.92-20.09-1.91,0-3.75.22-5.52.62-3.82.89-7.28,2.68-10.18,5.12-4.23,3.6-7.21,8.63-8.23,14.32-.23,1.36-.35,2.76-.35,4.18v24.73c0,.93.05,1.84.16,2.75.32,2.75,1.09,5.38,2.24,7.77,3.92,8.12,12.27,13.74,21.88,13.74,6.71,0,12.78-2.71,17.18-7.11,4.39-4.39,7.11-10.46,7.11-17.15v-24.73c0-1.4-.12-2.83-.35-4.18h0v.02Zm-17.34,25.08c0,7.07-5.74,12.84-12.85,12.84-3.53,0-6.74-1.43-9.07-3.76-2.32-2.33-3.76-5.53-3.76-9.07v-17.08c0-3.03,1.05-5.8,2.82-8,2.33-2.94,5.96-4.84,10.02-4.84s7.7,1.91,10.05,4.84c1.75,2.2,2.8,4.96,2.8,8v17.08h-.01Z"/>
    <path class="cls-1" d="m147.14,92.94v17.07c0,7.09-5.74,12.84-12.84,12.84-3.53,0-6.74-1.44-9.07-3.76-2.32-2.32-3.76-5.53-3.76-9.07v-17.07c0-3.03,1.05-5.8,2.82-8.01,2.33-2.94,5.96-4.84,10.03-4.84s7.7,1.89,10.03,4.84c1.75,2.2,2.8,4.98,2.8,8.01h-.01Z"/>
    <path class="cls-1" d="m55.82,92.94v17.07c0,7.09,5.74,12.84,12.84,12.84,3.53,0,6.74-1.44,9.07-3.76s3.76-5.53,3.76-9.07v-17.07c0-3.03-1.05-5.8-2.82-8.01-2.33-2.94-5.96-4.84-10.03-4.84s-7.7,1.89-10.03,4.84c-1.75,2.2-2.8,4.98-2.8,8.01h.01Z"/>
    <path class="cls-2" d="m38.13,89.12v24.73c0,6.7,2.71,12.77,7.11,17.15,4.4,4.39,10.46,7.11,17.18,7.11,9.63,0,17.96-5.61,21.88-13.74,1.15-2.39,1.91-5.02,2.24-7.77.11-.92.16-1.82.16-2.75v-24.73c0-1.4-.12-2.83-.35-4.18-1-5.72-4-10.73-8.23-14.32-2.9-2.44-6.35-4.23-10.18-5.12-1.78-.42-3.63-.62-5.52-.62-11.97,0-21.92,8.66-23.92,20.09-.23,1.36-.35,2.76-.35,4.18h0v-.02Zm17.69,3.82c0-3.03,1.05-5.8,2.8-8,2.36-2.94,5.97-4.84,10.05-4.84s7.67,1.91,10.02,4.84c1.77,2.2,2.82,4.96,2.82,8v17.08c0,3.53-1.43,6.74-3.76,9.07-2.33,2.32-5.53,3.76-9.07,3.76-7.11,0-12.85-5.74-12.85-12.84v-17.08h-.01Z"/>
    <path class="cls-7" d="m143.53,64.95c-18.67,0-34.12,14.09-36.28,32.19h-11.54c-2.16-18.11-17.61-32.19-36.28-32.19-20.15,0-36.54,16.38-36.54,36.53s16.39,36.53,36.54,36.53c18.42,0,33.7-13.71,36.18-31.45h11.74c2.48,17.75,17.76,31.45,36.18,31.45,20.15,0,36.53-16.39,36.53-36.53s-16.38-36.53-36.53-36.53Zm-84.1,62.16c-14.14,0-25.64-11.5-25.64-25.63s11.5-25.63,25.64-25.63,25.63,11.5,25.63,25.63-11.5,25.63-25.63,25.63Zm84.1,0c-14.13,0-25.63-11.5-25.63-25.63s11.5-25.63,25.63-25.63,25.63,11.5,25.63,25.63-11.5,25.63-25.63,25.63Z"/>
    <path class="cls-4" d="m115.38,140.12c0-7.68-13.9-29.43-13.9-29.43,0,0-13.9,21.75-13.9,29.43s6.22,13.9,13.9,13.9,13.9-6.22,13.9-13.9Z"/>
    <polygon class="cls-4" points="103.45 173.01 103.45 173 103.46 173 103.45 173.01"/>
    <path class="cls-2" d="m105.53,162.32l-2.92,7.67-.91,2.4c-.07.19-.15.37-.22.56-1.35,3.07-3.74,5.38-6.6,6.66-3.03,1.36-6.59,1.57-9.94.29-5.81-2.21-9.11-8.15-8.21-14.06.13-.88.36-1.76.69-2.63,0-.02,0-.05.02-.07l2.87-7.54c.3.17.62.35.94.53,2.47,1.37,5.43,2.77,8.73,3.9,1.55.53,3.18,1.01,4.87,1.39h0c3.35.75,6.94,1.14,10.67.9Z"/>
    <path class="cls-4" d="m134.29,158.28c0,1.56-.69,3.12-2.02,4.2-5.82,4.72-11.84,7.6-17.81,9.12-3.71.94-7.4,1.36-11.01,1.36v.04c-.28,0-.56,0-.84-.01-.38-.01-.76-.02-1.13-.04-4.51-.18-8.87-1-12.98-2.21-3.99-1.19-7.72-2.77-11.08-4.53-.23-.12-.46-.24-.69-.37-1.61-.86-3.13-1.76-4.55-2.69-.52.42-1.07.83-1.67,1.21-2.83,1.83-6.63.4-7.54-2.85v-.05c-.6-2.12.31-4.33,2.14-5.56,2.18-1.46,3.12-3.43,3.51-5.13.47-2.05,2.1-3.62,4.18-3.92.25-.04.49-.05.73-.05,3.1,0,5.56,2.87,4.87,6.02-.1.46-.22.92-.36,1.39.69.45,1.45.91,2.27,1.39.3.17.62.35.94.53,2.47,1.37,5.43,2.77,8.73,3.9,1.55.53,3.18,1.01,4.87,1.39h0c3.35.75,6.94,1.14,10.67.9,2.92-.17,5.91-.73,8.93-1.77,3.74-1.29,7.53-3.35,11.26-6.39,2.09-1.71,5.12-1.5,7.03.41,1.03,1.03,1.54,2.37,1.54,3.71Z"/>
    <path class="cls-6" d="m44.75,53c-1.33.89-2.07,2.15-2.3,3.47L3.65,74.4h0c3.48-12.61,9.33-24.23,17.05-34.35,4.45-5.86,9.55-11.22,15.16-15.97,1.53-1.3,3.09-2.55,4.7-3.75,1.87-1.41,3.79-2.75,5.76-4.02,44.2,1.14,17.37,23.82-1.57,36.69Z"/>
    <path class="cls-6" d="m47.46,62.88c-3.57-.21-5.55-3.46-5.01-6.41.23-1.32.97-2.58,2.3-3.47,18.94-12.87,45.77-35.55,1.57-36.69,2.97-1.94,6.05-3.72,9.23-5.33,3.49-1.78,7.08-3.36,10.79-4.73,3.84-1.41,7.79-2.6,11.84-3.55,5.32-1.27,10.81-2.1,16.43-2.47,2.27-.15,4.56-.23,6.87-.23,1.66,0,3.31.04,4.94.12,6.28.3,12.43,1.18,18.36,2.58,9.55,2.23,18.57,5.82,26.86,10.55,5.66,3.21,10.98,6.96,15.88,11.18,1.23,1.05,2.43,2.13,3.6,3.24,2.64,2.49,5.15,5.13,7.51,7.89.02.65.22,35.2-131.17,27.32Z"/>
    <circle class="cls-3" cx="155.97" cy="146.8" r="4.18"/>
  </g>
</svg>