<?xml version="1.0" encoding="UTF-8"?>
<svg id="Camada_2" data-name="Camada 2" xmlns="http://www.w3.org/2000/svg" viewBox="0 0 202.96 202.97">
  <defs>
    <style>
      .cls-1 {
        fill: #442a19;
      }

      .cls-2 {
        fill: #3da9e0;
      }

      .cls-3 {
        fill: #fff;
      }

      .cls-4 {
        fill: #eeb98e;
      }

      .cls-5 {
        fill: #620e05;
      }

      .cls-6 {
        fill: #ca9e67;
      }
    </style>
  </defs>
  <g id="Camada_1-2" data-name="Camada 1">
    <path class="cls-4" d="m202.96,101.49c0,56.05-45.42,101.48-101.48,101.48S.21,157.76,0,101.9v-.41c0-23.1,7.7-44.39,20.7-61.44,4.45-5.86,9.55-11.22,15.16-15.97,1.53-1.3,3.09-2.55,4.7-3.75,4.7-3.53,9.71-6.67,14.99-9.35,7.09-3.62,14.68-6.42,22.63-8.28,5.32-1.27,10.81-2.1,16.43-2.47,2.27-.15,4.56-.23,6.87-.23,1.66,0,3.31.04,4.94.12,6.28.3,12.43,1.18,18.36,2.58,9.55,2.23,18.57,5.82,26.86,10.55,5.66,3.21,10.98,6.96,15.88,11.18,1.23,1.05,2.43,2.13,3.6,3.24,4.15,3.91,7.96,8.18,11.42,12.74,7.27,9.63,12.85,20.6,16.35,32.47,2.65,9.07,4.07,18.68,4.07,28.61Z"/>
    <path class="cls-3" d="m66.06,55.52h.03c15.54,0,28.16,12.62,28.16,28.16v28.69c0,15.54-12.62,28.16-28.16,28.16h-.03c-15.54,0-28.16-12.62-28.16-28.16v-28.69c0-15.54,12.62-28.16,28.16-28.16Z"/>
    <path class="cls-2" d="m73.33,73.22h0c8.23,0,14.9,6.67,14.9,14.9v19.82c0,8.23-6.67,14.9-14.9,14.9h0c-8.23,0-14.9-6.67-14.9-14.9v-19.82c0-8.23,6.67-14.9,14.9-14.9Z"/>
    <path class="cls-3" d="m138.15,55.52h.03c15.54,0,28.16,12.62,28.16,28.16v28.69c0,15.54-12.62,28.16-28.16,28.16h-.03c-15.54,0-28.16-12.62-28.16-28.16v-28.69c0-15.54,12.62-28.16,28.16-28.16Z"/>
    <path class="cls-2" d="m130.91,73.22h0c-8.23,0-14.9,6.67-14.9,14.9v19.82c0,8.23,6.67,14.9,14.9,14.9h0c8.23,0,14.9-6.67,14.9-14.9v-19.82c0-8.23-6.67-14.9-14.9-14.9Z"/>
    <rect class="cls-1" x="22.08" y="55.38" width="158.8" height="30.78" rx="15.39" ry="15.39"/>
    <rect class="cls-6" x="77.29" y="125.22" width="48.38" height="24.27" rx="12" ry="12"/>
    <path class="cls-1" d="m124.8,3.39c0,12.88-10.44,23.32-23.32,23.32s-23.32-10.44-23.32-23.32c0-.23,0-.46.02-.69,5.32-1.27,10.81-2.1,16.43-2.47,2.27-.15,4.56-.23,6.87-.23,1.66,0,3.31.04,4.94.12,6.28.3,12.43,1.18,18.36,2.58.02.23.02.46.02.69Z"/>
    <path class="cls-5" d="m137.27,177.15c-10.77,7.73-22.39,11.64-34.7,11.64h-.16c-15.04-.04-27.77-6.14-36.23-11.65-6.14-4.01-6.99-12.69-1.77-17.84l2.06-2.07c3.81-3.81,9.78-4.5,14.32-1.58.5.32,1.02.65,1.57.97,2.79,1.67,6.15,3.32,9.87,4.5,10.03,3.17,19.39,1.83,28.4-4.09.33-.21.65-.43.98-.66,4.63-3.23,10.88-2.78,14.87,1.21l2.11,2.12c5,4.99,4.41,13.32-1.32,17.45Z"/>
    <path class="cls-3" d="m120.7,158.62c0,10.61-8.61,19.21-19.22,19.21s-19.22-8.6-19.22-19.21c0-.67.03-1.34.1-2,2.79,1.67,6.15,3.32,9.87,4.5,10.03,3.17,19.39,1.83,28.4-4.09.05.53.07,1.05.07,1.59Z"/>
  </g>
</svg>