<?xml version="1.0" encoding="UTF-8"?>
<svg id="Camada_2" data-name="Camada 2" xmlns="http://www.w3.org/2000/svg" viewBox="0 0 65.83 65.83">
  <defs>
    <style>
      .cls-1 {
        fill: #fff;
      }

      .cls-2 {
        fill: #7b512d;
      }

      .cls-3 {
        fill: #946137;
      }

      .cls-4 {
        fill: #9d9d9c;
      }

      .cls-5 {
        fill: #343333;
      }

      .cls-6 {
        fill: #432918;
      }

      .cls-7 {
        fill: #1d1d1b;
      }
    </style>
  </defs>
  <g id="Camada_1-2" data-name="Camada 1">
    <path class="cls-3" d="m65.83,32.67v.25c0,4.25-.8,8.31-2.27,12.03-2.18,5.55-5.83,10.37-10.47,13.98-5.57,4.33-12.57,6.9-20.17,6.9C14.78,65.83.07,51.17,0,33.05v-.13c0-.84.03-1.66.09-2.48.48-6.54,2.87-12.54,6.62-17.45,1.44-1.9,3.1-3.64,4.92-5.18.5-.42,1-.83,1.52-1.21,1.52-1.15,3.15-2.16,4.86-3.03,2.3-1.17,4.76-2.08,7.34-2.69,1.72-.41,3.51-.68,5.33-.8.74-.05,1.48-.08,2.23-.08.54,0,1.07.01,1.6.04,1.3.06,2.58.2,3.84.41.72.12,1.42.26,2.12.43,1.75.41,3.44.96,5.07,1.63,1.26.52,2.47,1.12,3.64,1.79,1.83,1.04,3.56,2.26,5.15,3.63.4.34.79.69,1.17,1.05,1.35,1.27,2.58,2.66,3.71,4.14,2.35,3.12,4.17,6.68,5.3,10.53.84,2.87,1.3,5.9,1.32,9.03Z"/>
    <path class="cls-6" d="m53.69,35.48v2.99c0,2.2-.89,4.19-2.33,5.63-1.44,1.44-3.43,2.33-5.63,2.33-3.16,0-5.89-1.84-7.18-4.51-.38-.79-.63-1.65-.73-2.55-.04-.3-.05-.6-.05-.9v-2.99c0,.3.02.61.05.9.1.9.36,1.76.73,2.55,1.29,2.66,4.02,4.51,7.18,4.51,2.2,0,4.19-.89,5.63-2.33s2.33-3.43,2.33-5.63Z"/>
    <path class="cls-1" d="m53.58,25.99c-.66-3.75-3.92-6.59-7.85-6.59-.63,0-1.23.07-1.81.2-1.25.29-2.39.88-3.34,1.68-1.39,1.18-2.36,2.83-2.7,4.7-.08.44-.12.91-.12,1.37v8.11c0,.3.02.61.05.9.1.9.36,1.76.73,2.55,1.29,2.66,4.02,4.51,7.18,4.51,2.2,0,4.19-.89,5.63-2.33,1.44-1.44,2.33-3.43,2.33-5.63v-8.11c0-.46-.04-.93-.12-1.37h0Zm-5.69,8.23c0,2.32-1.88,4.21-4.22,4.21-1.16,0-2.21-.47-2.97-1.23s-1.23-1.82-1.23-2.97v-5.6c0-.99.34-1.9.93-2.62.77-.97,1.96-1.59,3.29-1.59s2.52.63,3.3,1.59c.57.72.92,1.63.92,2.62v5.6h0Z"/>
    <path class="cls-6" d="m47.89,28.62v5.6c0,2.32-1.88,4.21-4.21,4.21-1.16,0-2.21-.47-2.97-1.23-.76-.76-1.23-1.82-1.23-2.97v-5.6c0-.99.34-1.9.93-2.63.77-.97,1.96-1.59,3.29-1.59s2.52.62,3.29,1.59c.57.72.92,1.64.92,2.63h0Z"/>
    <path class="cls-6" d="m12.14,35.48v2.99c0,2.2.89,4.19,2.33,5.63s3.43,2.33,5.63,2.33c3.16,0,5.89-1.84,7.18-4.51.38-.79.63-1.65.73-2.55.04-.3.05-.6.05-.9v-2.99c0,.3-.02.61-.05.9-.1.9-.36,1.76-.73,2.55-1.29,2.66-4.02,4.51-7.18,4.51-2.2,0-4.19-.89-5.63-2.33s-2.33-3.43-2.33-5.63Z"/>
    <path class="cls-6" d="m17.94,28.62v5.6c0,2.32,1.88,4.21,4.21,4.21,1.16,0,2.21-.47,2.97-1.23s1.23-1.82,1.23-2.97v-5.6c0-.99-.34-1.9-.93-2.63-.77-.97-1.96-1.59-3.29-1.59s-2.52.62-3.29,1.59c-.57.72-.92,1.64-.92,2.63h0Z"/>
    <path class="cls-1" d="m12.14,27.37v8.11c0,2.2.89,4.19,2.33,5.63s3.43,2.33,5.63,2.33c3.16,0,5.89-1.84,7.18-4.51.38-.79.63-1.65.73-2.55.04-.3.05-.6.05-.9v-8.11c0-.46-.04-.93-.12-1.37-.33-1.88-1.31-3.52-2.7-4.7-.95-.8-2.08-1.39-3.34-1.68-.59-.14-1.19-.2-1.81-.2-3.93,0-7.19,2.84-7.85,6.59-.08.44-.12.91-.12,1.37h0Zm5.8,1.25c0-.99.34-1.9.92-2.62.77-.97,1.96-1.59,3.3-1.59s2.52.63,3.29,1.59c.58.72.93,1.63.93,2.62v5.6c0,1.16-.47,2.21-1.23,2.97-.77.76-1.82,1.23-2.97,1.23-2.33,0-4.22-1.88-4.22-4.21v-5.6h0Z"/>
    <rect class="cls-3" x="10.21" y="19.41" width="19.03" height="10.99"/>
    <path class="cls-3" d="m35.03,19.41v17.79h2.07c-.24-.19-.47-.45-.66-.76-.44-.71-.72-1.7-.72-2.77,0-2.16,1.09-3.92,2.43-3.92h14.84c.67,0,1.28.45,1.71,1.15s.72,1.7.72,2.77c0,.68-.11,1.32-.3,1.88-.24.72-.62,1.3-1.08,1.66h2.1v-17.79h-21.11Z"/>
    <path class="cls-5" d="m45.56,2.53s-4.62,15.51-15.5,24.58c-.42-.72-1.2-1.2-2.09-1.2h-11.32c-1.67,1.3-3.55,2.53-5.64,3.59.24.44.62.8,1.08,1.03h12.95c-6.52,3.49-14.76,4.45-24.94-.08.48-6.54,2.87-12.54,6.62-17.45,1.44-1.9,3.1-3.64,4.92-5.18.5-.42,1-.83,1.52-1.21,1.52-1.15,3.15-2.16,4.86-3.03,2.3-1.17,4.76-2.08,7.34-2.69,1.72-.41,3.51-.68,5.33-.8.74-.05,1.48-.08,2.23-.08.54,0,1.07.01,1.6.04,2.04.1,4.03.38,5.96.84,1.75.41,3.44.96,5.07,1.63l.02.02Z"/>
    <path class="cls-6" d="m37.26,47.62h-8.7c-1.08,0-1.96-.88-1.96-1.96h0c0-1.08.88-1.96,1.96-1.96h2.39v-8.5c0-1.08.88-1.96,1.96-1.96h0c1.08,0,1.96.88,1.96,1.96v8.5h2.39c1.08,0,1.96.88,1.96,1.96h0c0,1.08-.88,1.96-1.96,1.96h0Z"/>
    <path class="cls-6" d="m25.88,50.46c3.1,0,5.97,1.26,7.92,2.6.63.43.73,1.32.24,1.9l-.79.93.84-.98-.06.06c-.43.5-1.16.6-1.7.23-2.06-1.37-7.16-4-11.87-.15-.51.42-1.25.36-1.71-.1h0c-.54-.55-.48-1.44.12-1.93,2.3-1.86,4.72-2.55,7.02-2.55h0s0,0,0,0Z"/>
    <circle class="cls-4" cx="55.01" cy="32.52" r=".71"/>
    <path d="m54.04,30.4c-.32.16-.68.24-1.05.24h-14.84c-.38,0-.73-.08-1.05-.24h16.94Z"/>
    <path class="cls-7" d="m30.06,27.11c-1.55,1.29-3.22,2.45-5.03,3.42h-12.95c-.46-.22-.84-.58-1.08-1.03,2.1-1.06,1.75-2.29,3.42-3.59h13.55c.89,0,1.67.48,2.09,1.2Z"/>
    <path class="cls-2" d="m30.4,28.33c0,.67-.27,1.28-.72,1.72-.19.19-.41.35-.66.47h-3.99c1.81-.96,3.48-2.12,5.03-3.42.22.36.34.78.34,1.23Z"/>
    <path class="cls-7" d="m14.48,25.9v6.04h-1.2c-.67,0-1.27-.28-1.71-.71-.03-.03-.05-.05-.07-.08-.31-.52-.49-1.12-.49-1.77,0-.36.05-.71.16-1.04t0,0c.44-1.41,1.76-2.43,3.32-2.43Z"/>
    <path class="cls-5" d="m30.54,29.51c0,1.33-1.09,2.43-2.43,2.43h-14.84c-.67,0-1.27-.28-1.71-.71-.03-.03-.05-.05-.07-.08-.4-.44-.64-1.01-.64-1.63,0-.42.11-.83.31-1.17t0,0c.41-.75,1.21-1.25,2.11-1.25h14.84c.67,0,1.27.27,1.71.72.44.44.71,1.05.71,1.71Z"/>
    <path class="cls-5" d="m48.8,50.68c-.04-.14,0-.22,0-.22,0,0,0,.08,0,.22Z"/>
    <path class="cls-5" d="m63.56,44.95c-2.18,5.55-5.83,10.37-10.47,13.98-3.75-2.21-4.23-7.14-4.29-8.25.12.39.75,1.87,4.33,1.87,3.87,0,8.32-4.83,10.43-7.6Z"/>
    <polygon class="cls-3" points="42.03 22.34 35.72 25.1 32.92 28.89 35.03 32.63 39.47 31.01 52.98 27.77 48.78 21.54 42.03 22.34"/>
    <path class="cls-5" d="m65.83,32.67c-3.63-.48-6.85-1.48-9.7-2.8-.35-.16-.69-.32-1.02-.49.19-.35.3-.74.3-1.16,0-.67-.27-1.27-.72-1.71s-1.04-.71-1.71-.71h-3.51c-2.65-2.06-4.78-4.31-6.44-6.38-3.23-4.02-4.68-7.38-4.68-7.38V.45c.72.12,1.42.26,2.12.43,1.75.41,3.44.96,5.07,1.63,1.26.52,2.47,1.12,3.64,1.79,1.83,1.04,3.56,2.26,5.15,3.63.4.34.79.69,1.17,1.05,1.35,1.27,2.58,2.66,3.71,4.14,2.35,3.12,4.17,6.68,5.3,10.53.84,2.87,1.3,5.9,1.32,9.03Z"/>
    <path d="m55.41,28.21c0,.42-.11.81-.3,1.16-2.1-1.06-3.97-2.28-5.64-3.59h3.51c.67,0,1.28.28,1.71.71s.72,1.05.72,1.71Z"/>
    <circle class="cls-4" cx="52.41" cy="25.79" r=".71"/>
    <path class="cls-2" d="m55.11,29.37c-.24.44-.62.8-1.08,1.03h-16.94c-.24-.12-.47-.28-.66-.47-.44-.44-.72-1.05-.72-1.71,0-1.33,1.09-2.43,2.43-2.43h11.32c1.67,1.3,3.55,2.53,5.64,3.59Z"/>
    <rect class="cls-5" x="35.72" y="27.08" width="19.69" height="4.86" rx="2.43" ry="2.43"/>
  </g>
</svg>