<?xml version="1.0" encoding="UTF-8"?>
<svg id="Camada_1" data-name="Camada 1" xmlns="http://www.w3.org/2000/svg" viewBox="0 0 202.97 202.97">
  <defs>
    <style>
      .cls-1 {
        fill: #fff;
      }

      .cls-2 {
        fill: #590c02;
      }

      .cls-3 {
        fill: #41ab34;
      }

      .cls-4 {
        fill: #e1b479;
      }

      .cls-5 {
        fill: #ca9e67;
      }

      .cls-6 {
        fill: #1d1d1b;
      }
    </style>
  </defs>
  <path class="cls-4" d="m202.97,101.49c0,56.05-45.43,101.48-101.49,101.48S.22,157.76,0,101.9v-.41c0-15.42,3.44-30.04,9.59-43.12h91.9l19.02-19.03,20.56,20.56,51.14-3.94c2.71,5.39,4.95,11.04,6.68,16.92,2.65,9.07,4.08,18.68,4.08,28.61Z"/>
  <path class="cls-1" d="m63.56,47.04h.03c15.54,0,28.16,12.62,28.16,28.16v28.69c0,15.54-12.62,28.16-28.16,28.16h-.03c-15.54,0-28.16-12.62-28.16-28.16v-28.69c0-15.54,12.62-28.16,28.16-28.16Z"/>
  <path class="cls-3" d="m70.83,64.74h0c8.23,0,14.9,6.67,14.9,14.9v19.82c0,8.23-6.67,14.9-14.9,14.9h0c-8.23,0-14.9-6.67-14.9-14.9v-19.82c0-8.23,6.67-14.9,14.9-14.9Z"/>
  <path class="cls-1" d="m70.83,58.37l2.54,19.2c2.18,3.99,5.46,7.27,9.45,9.45l4.64,2.54-4.64,2.54c-3.99,2.18-7.27,5.46-9.45,9.45l-2.54,25-2.54-25c-2.18-3.99-5.46-7.27-9.45-9.45l-4.64-2.54,4.64-2.54c3.99-2.18,7.27-5.46,9.45-9.45l2.54-19.2Z"/>
  <path class="cls-1" d="m139.39,47.03h.03c15.54,0,28.16,12.62,28.16,28.16v28.69c0,15.54-12.62,28.16-28.16,28.16h-.03c-15.54,0-28.16-12.62-28.16-28.16v-28.69c0-15.54,12.62-28.16,28.16-28.16Z"/>
  <path class="cls-3" d="m147.05,79.63v19.82c0,8.23-6.67,14.9-14.9,14.9h0c-8.23,0-14.9-6.67-14.9-14.9v-19.82c0-8.23,6.67-14.9,14.9-14.9h0c8.23,0,14.9,6.67,14.9,14.9Z"/>
  <path class="cls-1" d="m132.15,58.36l-2.54,19.2c-2.18,3.99-5.46,7.27-9.45,9.45l-4.64,2.54,4.64,2.54c3.99,2.18,7.27,5.46,9.45,9.45l2.54,25,2.54-25c2.18-3.99,5.46-7.27,9.45-9.45l4.64-2.54-4.64-2.54c-3.99-2.18-7.27-5.46-9.45-9.45l-2.54-19.2Z"/>
  <circle class="cls-2" cx="141.27" cy="167.97" r="9.12"/>
  <path class="cls-5" d="m110.73,132.99c0-5.1-9.24-22.16-9.24-22.16,0,0-9.24,17.04-9.24,22.16s4.14,9.24,9.24,9.24,9.24-4.14,9.24-9.24Z"/>
  <path class="cls-6" d="m192.21,55.96l-35.07,2.7c-10.2.79-20.23-2.93-27.47-10.16l-9.16-9.16-19.02,19.03H9.59c3.06-6.52,6.79-12.65,11.11-18.32C37.94,17.42,64.47,2.24,94.61.23c2.27-.15,4.56-.23,6.87-.23,1.66,0,3.31.04,4.94.12,31.1,1.49,58.53,16.97,76.12,40.29,3.67,4.86,6.91,10.07,9.67,15.55Z"/>
</svg>