<?xml version="1.0" encoding="UTF-8"?>
<svg id="Camada_1" data-name="Camada 1" xmlns="http://www.w3.org/2000/svg" viewBox="0 0 190.89 361.1">
  <defs>
    <style>
      .cls-1 {
        fill: #341f0f;
      }

      .cls-2 {
        fill: #fff;
      }

      .cls-3 {
        fill: #61af9d;
      }

      .cls-4 {
        fill: #bb854e;
      }

      .cls-5 {
        fill: #432918;
      }

      .cls-6 {
        fill: #1d1d1b;
      }

      .cls-7 {
        fill: #936037;
      }

      .cls-8 {
        fill: #ededed;
      }
    </style>
  </defs>
  <path class="cls-3" d="m182.08,208.54v152.56H8.33v-152.79c0-27.12,21.98-49.1,49.1-49.1h75.31c27.13,0,49.33,22.2,49.33,49.33Z"/>
  <circle class="cls-7" cx="94.2" cy="168.67" r="24.89"/>
  <path class="cls-4" d="m190.89,94.42c0,7.62-6.18,13.79-13.79,13.79h0c0,38.21-31.27,69.48-69.48,69.48h-23.62c-38.21,0-69.48-31.27-69.48-69.48v-.06c-7.05-.61-12.58-6.52-12.58-13.73s5.53-13.11,12.58-13.72v-33.4l162.58-11.49v44.83c7.61,0,13.79,6.17,13.79,13.78Z"/>
  <path class="cls-7" d="m103.22,117.07c0-3.6-6.51-15.45-6.51-15.45,0,0-6.51,11.85-6.51,15.45s2.91,6.51,6.51,6.51,6.51-2.91,6.51-6.51Z"/>
  <path class="cls-5" d="m80.96,87.7v13.64c0,2.81-1.13,5.35-2.97,7.21-3.55-2.26-7.77-3.56-12.29-3.56-1.51,0-2.98.14-4.41.43-.55-1.25-.85-2.63-.85-4.08v-13.64c0-2.42.84-4.64,2.24-6.4,1.88-2.35,4.77-3.86,8.02-3.86s6.14,1.51,8.01,3.86c1.41,1.76,2.25,3.98,2.25,6.4Z"/>
  <path class="cls-2" d="m84.81,81.3c-1.59-9.11-9.54-16.04-19.1-16.04h0c-9.57,0-17.51,6.93-19.1,16.04-.19,1.08-.29,2.21-.29,3.35v19.74c0,1.43.16,2.83.45,4.17.44,2,2.82,2.9,4.41,1.6,2.18-1.79,4.71-3.18,7.46-4.06,1.3-.42,2.18-1.71,1.95-3.06-.09-.55-.14-1.12-.14-1.7v-13.64c0-2.42.84-4.64,2.24-6.4,1.88-2.35,4.77-3.86,8.02-3.86s6.14,1.51,8.01,3.86c1.41,1.76,2.25,3.98,2.25,6.4v13.64c0,1.93-.53,3.74-1.47,5.28-.69,1.15-.39,2.64.65,3.48.02.01.04.03.05.04,1.61,1.31,4,.46,4.45-1.57.3-1.35.45-2.75.45-4.18v-19.74c0-1.14-.1-2.27-.29-3.35Z"/>
  <path class="cls-2" d="m121.24,143.9c0,1.75-.75,3.48-2.23,4.66-6.86,5.48-14.05,8.45-21.46,8.84-.29.02-.58.03-.88.05-.29,0-.59.01-.88.01-.49,0-.99-.01-1.49-.04-.19,0-.37-.02-.56-.03-.17-.01-.33-.03-.49-.04-8.99-.7-16.16-5.07-20.66-8.68-2.93-2.35-2.93-6.82-.06-9.24.01,0,.02-.01.03-.02,2.19-1.82,5.35-1.86,7.57-.08,3.04,2.44,7.84,5.44,13.61,6.03.4.03.8.06,1.2.08h.09c.29.01.59.02.88.02.25,0,.51-.01.76-.02,4.95-.23,9.91-2.33,14.83-6.24,2.39-1.9,5.82-1.71,7.98.44,1.18,1.18,1.76,2.73,1.76,4.26Z"/>
  <path class="cls-5" d="m112.46,87.7v13.64c0,2.81,1.13,5.35,2.97,7.21,3.55-2.26,7.77-3.56,12.29-3.56,1.51,0,2.98.14,4.41.43.55-1.25.85-2.63.85-4.08v-13.64c0-2.42-.84-4.64-2.24-6.4-1.88-2.35-4.77-3.86-8.02-3.86s-6.14,1.51-8.01,3.86c-1.41,1.76-2.25,3.98-2.25,6.4Z"/>
  <path class="cls-2" d="m108.32,84.65v19.74c0,1.44.16,2.84.45,4.18.44,2.02,2.84,2.87,4.45,1.57.02-.01.04-.03.05-.04,1.04-.84,1.35-2.33.65-3.48-.93-1.54-1.47-3.35-1.47-5.28v-13.64c0-2.42.84-4.64,2.25-6.4,1.87-2.35,4.77-3.86,8.01-3.86s6.14,1.51,8.02,3.86c1.4,1.76,2.24,3.98,2.24,6.4v13.64c0,.58-.05,1.15-.14,1.7-.23,1.35.65,2.64,1.95,3.06,2.75.88,5.27,2.28,7.46,4.06,1.59,1.3,3.97.4,4.41-1.6.29-1.34.45-2.74.45-4.17v-19.74c0-1.14-.1-2.27-.29-3.35-1.59-9.11-9.53-16.04-19.1-16.04h0c-9.56,0-17.51,6.93-19.1,16.04-.19,1.08-.29,2.21-.29,3.35Z"/>
  <rect class="cls-5" x="167.01" y="41.9" width="15.06" height="39.67" rx="7.53" ry="7.53"/>
  <rect class="cls-1" x="14.52" y="41.9" width="15.06" height="39.67" rx="7.53" ry="7.53"/>
  <path class="cls-5" d="m177.1,40.15h0c0,3.96-3.14,7.21-7.1,7.34-28.93.94-136.36,6.24-137.03,32.75,0,0-18.45-.75-18.45-32.94v-3.35C14.52,23.04,30.63,0,51.53,0h90.35c18.82,0,35.21,21.33,35.21,40.15Z"/>
  <path class="cls-8" d="m72.83,225.3h0c14.8,0,26.81,12.01,26.81,26.81v24.77c0,6.62-5.38,12-12,12h-29.62c-6.62,0-12-5.38-12-12v-24.77c0-14.8,12.01-26.81,26.81-26.81Z" transform="translate(145.67 514.17) rotate(-180)"/>
  <path class="cls-8" d="m49.22,274.29c-12.5-6.23-18.71-13.11-18.45-20.46.41-11.66,16.78-18.75,18.65-19.52l2.4,5.81-1.2-2.91,1.2,2.91c-4.03,1.67-14.54,7.44-14.77,13.94-.16,4.6,5.02,9.65,14.97,14.61l-2.81,5.63Z"/>
  <circle class="cls-4" cx="22.05" cy="254.46" r="22.05"/>
  <path class="cls-6" d="m59.28,228h27.15c4.84,0,8.77,3.93,8.77,8.77v2.71c0,3.52-2.86,6.38-6.38,6.38h-31.93c-3.52,0-6.38-2.86-6.38-6.38v-2.71c0-4.84,3.93-8.77,8.77-8.77Z"/>
  <g>
    <path class="cls-6" d="m58.76,259.11l-1.56-6.03h1.38l.97,4.58,1.17-4.58h1.43l1.13,4.57.98-4.57h1.39l-1.6,6.03h-1.56l-1.08-4.21-1.11,4.21h-1.55Z"/>
    <path class="cls-6" d="m68.05,259.21c-.42,0-.8-.1-1.13-.29-.34-.2-.6-.46-.79-.81-.19-.34-.29-.73-.29-1.17s.1-.84.29-1.19c.19-.34.46-.61.79-.81.34-.19.71-.29,1.13-.29s.8.1,1.13.29c.33.19.59.46.79.8.19.34.29.74.29,1.18s-.1.83-.29,1.18c-.2.34-.46.61-.79.81-.33.19-.71.29-1.13.29Zm0-1.12c.17,0,.32-.04.45-.13.13-.09.24-.22.32-.39.08-.17.12-.38.12-.64s-.04-.46-.12-.64c-.08-.17-.19-.3-.32-.39-.14-.09-.29-.13-.45-.13s-.33.04-.46.13c-.13.09-.24.22-.32.39-.08.17-.12.38-.12.64s.04.47.12.64c.08.17.18.3.32.39.14.09.29.13.46.13Z"/>
    <path class="cls-6" d="m71.26,259.11v-4.34h1.14l.11.79c.11-.18.25-.34.4-.47.15-.13.33-.24.53-.31.2-.07.43-.11.67-.11v1.37h-.44c-.17,0-.33.02-.46.06-.14.04-.26.1-.36.18-.1.09-.18.2-.23.35s-.08.33-.08.55v1.94h-1.29Z"/>
    <path class="cls-6" d="m74.88,259.11v-6.2h1.29v6.2h-1.29Z"/>
    <path class="cls-6" d="m79.2,259.21c-.38,0-.73-.1-1.04-.29-.31-.2-.55-.46-.73-.81-.18-.34-.27-.73-.27-1.17s.09-.83.27-1.18c.18-.35.43-.62.74-.81.32-.19.67-.29,1.07-.29.3,0,.57.05.79.16.22.11.4.26.54.45v-2.37h1.29v6.2h-1.14l-.14-.57c-.09.12-.19.23-.31.34-.12.1-.27.18-.45.25-.18.06-.38.09-.62.09Zm.34-1.13c.21,0,.4-.05.56-.15.16-.1.29-.24.38-.4.09-.17.14-.37.14-.6,0-.22-.05-.41-.14-.59-.09-.17-.22-.31-.38-.4-.16-.1-.35-.15-.56-.15s-.4.05-.56.15c-.16.1-.29.24-.38.4-.09.17-.13.36-.13.58s.04.42.13.59.22.31.38.41c.16.1.35.15.56.15Z"/>
    <path class="cls-6" d="m84.48,253.08l-.91,2.27h-.88l.46-2.27h1.33Z"/>
    <path class="cls-6" d="m86.63,259.21c-.41,0-.77-.07-1.06-.2-.3-.13-.53-.31-.7-.53-.17-.22-.27-.47-.29-.75h1.28c.02.09.06.18.12.25.06.08.14.14.25.19.1.05.23.07.37.07s.25-.02.34-.06.16-.09.2-.15c.04-.06.06-.13.06-.2,0-.11-.03-.19-.1-.25-.07-.05-.16-.1-.29-.14-.13-.04-.28-.08-.46-.11-.21-.05-.41-.11-.62-.16s-.39-.13-.55-.23c-.16-.1-.29-.21-.38-.35s-.14-.32-.14-.55c0-.26.07-.49.21-.7.14-.21.35-.37.62-.49s.6-.19.99-.19c.54,0,.97.12,1.28.36.31.24.5.57.56.97h-1.21c-.03-.11-.1-.2-.21-.27-.11-.06-.25-.09-.43-.09s-.32.03-.42.1c-.1.07-.15.15-.15.25,0,.07.03.13.1.19.07.06.16.11.29.15.13.04.28.08.46.12.35.07.65.15.91.24.26.09.46.22.6.38.15.17.22.4.22.71,0,.28-.08.53-.23.74-.15.22-.37.39-.65.51-.28.13-.62.19-.99.19Z"/>
    <path class="cls-6" d="m57.55,267v-6.03h2.57c.42,0,.77.07,1.06.19s.51.31.66.54.22.51.22.82-.06.56-.19.77-.3.36-.52.47c-.22.11-.46.18-.71.2l.14-.1c.28.01.53.09.74.22.21.14.38.32.5.54.12.22.18.46.18.73,0,.33-.08.61-.23.86-.15.25-.38.44-.68.58s-.66.21-1.08.21h-2.67Zm1.29-3.55h1.06c.28,0,.49-.06.63-.19s.22-.3.22-.53-.07-.41-.22-.54-.36-.19-.64-.19h-1.05v1.45Zm0,2.5h1.16c.28,0,.5-.06.66-.19.16-.13.24-.32.24-.56s-.08-.44-.25-.58c-.16-.14-.39-.21-.67-.21h-1.15v1.54Z"/>
    <path class="cls-6" d="m65.24,267.1c-.45,0-.84-.09-1.17-.28-.34-.19-.6-.45-.79-.78-.19-.34-.28-.72-.28-1.16s.09-.85.28-1.2c.18-.35.45-.63.79-.83.34-.2.74-.3,1.18-.3s.82.09,1.14.28.58.44.77.77c.18.33.28.7.28,1.13,0,.06,0,.12,0,.19,0,.07,0,.15-.01.22h-3.5v-.76h2.22c-.02-.24-.11-.43-.27-.58-.16-.15-.37-.22-.61-.22-.19,0-.36.04-.51.13s-.27.22-.35.39c-.08.18-.12.4-.12.66v.25c0,.2.04.38.11.54.07.16.19.28.34.37s.32.13.51.13.35-.04.48-.12c.12-.08.22-.17.29-.29h1.32c-.08.26-.22.51-.41.73-.19.22-.43.4-.71.53-.28.13-.59.19-.94.19Z"/>
    <path class="cls-6" d="m70.2,267.1c-.41,0-.77-.07-1.06-.2-.3-.13-.53-.31-.7-.53-.17-.22-.27-.47-.29-.75h1.28c.02.09.06.18.12.25.06.08.14.14.25.19.1.05.23.07.37.07s.25-.02.34-.06.16-.09.2-.15c.04-.06.06-.13.06-.2,0-.11-.03-.19-.1-.25-.07-.05-.16-.1-.29-.14-.13-.04-.28-.08-.46-.11-.21-.05-.41-.11-.62-.16s-.39-.13-.55-.23c-.16-.1-.29-.21-.38-.35s-.14-.32-.14-.55c0-.26.07-.49.21-.7.14-.21.35-.37.62-.49s.6-.19.99-.19c.54,0,.97.12,1.28.36.31.24.5.57.56.97h-1.21c-.03-.11-.1-.2-.21-.27-.11-.06-.25-.09-.43-.09s-.32.03-.42.1c-.1.07-.15.15-.15.25,0,.07.03.13.1.19.07.06.16.11.29.15.13.04.28.08.46.12.35.07.65.15.91.24.26.09.46.22.6.38.15.17.22.4.22.71,0,.28-.08.53-.23.74-.15.22-.37.39-.65.51-.28.13-.62.19-.99.19Z"/>
    <path class="cls-6" d="m74.95,267c-.31,0-.59-.05-.83-.15s-.43-.27-.56-.5c-.13-.23-.2-.54-.2-.94v-1.68h-.75v-1.08h.75l.14-1.22h1.15v1.22h1.09v1.08h-1.09v1.7c0,.17.04.29.12.37.08.07.21.11.4.11h.59v1.09h-.81Z"/>
    <path class="cls-6" d="m57.55,274.89v-6.03h2.08c.7,0,1.28.13,1.73.37s.8.6,1.02,1.05.33.98.33,1.59-.11,1.13-.33,1.58-.56.8-1.02,1.05c-.46.25-1.03.38-1.73.38h-2.08Zm1.29-1.11h.72c.46,0,.82-.08,1.09-.23s.46-.37.57-.65c.11-.28.17-.62.17-1.02s-.06-.74-.17-1.03c-.11-.28-.3-.5-.57-.65s-.63-.23-1.09-.23h-.72v3.81Z"/>
    <path class="cls-6" d="m65.14,274.99c-.36,0-.65-.06-.89-.18-.24-.12-.41-.27-.52-.47-.11-.2-.17-.41-.17-.65s.06-.48.19-.68c.13-.2.33-.36.6-.48.27-.11.62-.17,1.05-.17h1.04c0-.19-.02-.36-.07-.49-.05-.13-.13-.22-.24-.29-.11-.06-.26-.09-.45-.09-.2,0-.37.04-.51.12-.14.08-.22.21-.26.38h-1.24c.03-.31.13-.58.3-.81.17-.23.41-.41.7-.54.3-.13.63-.2,1.01-.2.41,0,.77.07,1.08.2.3.13.54.33.71.59.17.26.25.58.25.97v2.69h-1.08l-.15-.63c-.06.11-.14.21-.22.3s-.19.17-.3.23-.24.12-.38.15c-.14.03-.29.05-.47.05Zm.33-.98c.13,0,.25-.02.35-.07.1-.05.19-.11.27-.19.08-.08.14-.17.19-.28.05-.11.08-.23.11-.36h-.84c-.14,0-.26.02-.36.06-.1.04-.17.09-.21.16-.04.07-.07.15-.07.24,0,.1.02.18.07.24.05.06.11.11.2.15.08.03.18.05.28.05Z"/>
    <path class="cls-6" d="m70.72,274.99c-.38,0-.73-.1-1.04-.29-.31-.2-.55-.46-.73-.81-.18-.34-.27-.73-.27-1.17s.09-.83.27-1.18c.18-.35.43-.62.74-.81.32-.19.67-.29,1.07-.29.3,0,.57.05.79.16.22.11.4.26.54.45v-2.37h1.29v6.2h-1.14l-.14-.57c-.09.12-.19.23-.31.34-.12.1-.27.18-.45.25-.18.06-.38.09-.62.09Zm.34-1.13c.21,0,.4-.05.56-.15.16-.1.29-.24.38-.4.09-.17.14-.37.14-.6,0-.22-.05-.41-.14-.59-.09-.17-.22-.31-.38-.4-.16-.1-.35-.15-.56-.15s-.4.05-.56.15c-.16.1-.29.24-.38.4-.09.17-.13.36-.13.58s.04.42.13.59.22.31.38.41c.16.1.35.15.56.15Z"/>
  </g>
</svg>