<?xml version="1.0" encoding="UTF-8"?>
<svg id="Camada_1" data-name="Camada 1" xmlns="http://www.w3.org/2000/svg" viewBox="0 0 70.72 102.16">
  <defs>
    <style>
      .cls-1 {
        fill: #a87b66;
      }

      .cls-2 {
        fill: #a77b65;
      }

      .cls-3 {
        fill: #ffe051;
      }

      .cls-4 {
        fill: #a97b66;
      }

      .cls-5 {
        fill: #312783;
      }

      .cls-6 {
        fill: #b8866f;
      }

      .cls-7 {
        fill: #b98770;
      }

      .cls-8 {
        fill: #fff;
      }

      .cls-9 {
        fill: #ad7e68;
      }

      .cls-10 {
        fill: #c48e76;
      }

      .cls-11 {
        fill: #af806a;
      }

      .cls-12 {
        fill: #d2987e;
      }

      .cls-13 {
        fill: #ae7f69;
      }

      .cls-14 {
        fill: #b1816b;
      }

      .cls-15 {
        fill: #b7856f;
      }

      .cls-16 {
        fill: #d3987e;
      }

      .cls-17 {
        fill: #cf967c;
      }

      .cls-18 {
        fill: #d0967d;
      }

      .cls-19 {
        fill: #d1977d;
      }

      .cls-20 {
        fill: #d79b81;
      }

      .cls-21 {
        fill: #c18d74;
      }

      .cls-22 {
        fill: #b3826c;
      }

      .cls-23 {
        fill: #ce957b;
      }

      .cls-24 {
        fill: #c28d75;
      }

      .cls-25 {
        fill: #ba8770;
      }

      .cls-26 {
        fill: #a57964;
      }

      .cls-27 {
        fill: #a97c67;
      }

      .cls-28 {
        fill: #bc8971;
      }

      .cls-29 {
        fill: #ad7f69;
      }

      .cls-30 {
        fill: #d69b80;
      }

      .cls-31 {
        fill: #c69077;
      }

      .cls-32 {
        fill: #29235c;
      }

      .cls-33 {
        fill: #ce957c;
      }

      .cls-34 {
        fill: #aa7c67;
      }

      .cls-35 {
        fill: #cc947a;
      }

      .cls-36 {
        fill: #c99279;
      }

      .cls-37 {
        fill: #a67a65;
      }

      .cls-38 {
        fill: #d4997f;
      }

      .cls-39 {
        fill: #bf8b73;
      }

      .cls-40 {
        fill: #a77a65;
      }

      .cls-41 {
        fill: #b0806a;
      }

      .cls-42 {
        fill: #d59a80;
      }

      .cls-43 {
        fill: #c18c74;
      }

      .cls-44 {
        fill: #b4846d;
      }

      .cls-45 {
        fill: #9e464e;
      }

      .cls-46 {
        fill: #c38d75;
      }

      .cls-47 {
        fill: #a47863;
      }

      .cls-48 {
        fill: #b6856e;
      }

      .cls-49 {
        fill: #c38e75;
      }

      .cls-50 {
        fill: #be8a73;
      }

      .cls-51 {
        fill: #cb937a;
      }

      .cls-52 {
        fill: #ab7d67;
      }

      .cls-53 {
        fill: #ac7e68;
      }

      .cls-54 {
        fill: #b2826c;
      }

      .cls-55 {
        fill: #bd8a72;
      }

      .cls-56 {
        fill: #b4836d;
      }

      .cls-57 {
        fill: #ca9279;
      }

      .cls-58 {
        fill: #c58f77;
      }

      .cls-59 {
        fill: #be8a72;
      }

      .cls-60 {
        fill: #ba8870;
      }

      .cls-61 {
        fill: #d69a80;
      }

      .cls-62 {
        fill: #ab7d68;
      }

      .cls-63 {
        fill: #b5846d;
      }

      .cls-64 {
        fill: #231c4d;
      }

      .cls-65 {
        fill: #a47864;
      }

      .cls-66 {
        fill: #c79078;
      }

      .cls-67 {
        fill: #c89178;
      }

      .cls-68 {
        fill: #bd8972;
      }

      .cls-69 {
        fill: #bb8871;
      }

      .cls-70 {
        fill: #c38e76;
      }

      .cls-71 {
        fill: #d59a7f;
      }

      .cls-72 {
        fill: #cc947b;
      }

      .cls-73 {
        fill: #c08c74;
      }

      .cls-74 {
        fill: #c08b73;
      }

      .cls-75 {
        fill: #cd947b;
      }

      .cls-76 {
        fill: #1d1d1b;
      }

      .cls-77 {
        fill: #57c4f2;
      }

      .cls-78 {
        fill: #c58f76;
      }

      .cls-79 {
        fill: #b3836c;
      }
    </style>
  </defs>
  <path class="cls-76" d="m51.21,83.1h0c2.26,0,4.08,1.83,4.08,4.09v10.88c0,2.26-1.83,4.09-4.08,4.09h0c-2.26,0-4.08-1.83-4.08-4.09v-10.88c0-2.26,1.83-4.09,4.08-4.09Z"/>
  <path class="cls-76" d="m28.07,83.1h0c2.26,0,4.08,1.83,4.08,4.09v10.88c0,2.26-1.83,4.09-4.08,4.09h0c-2.26,0-4.09-1.83-4.09-4.09v-10.88c0-2.26,1.83-4.09,4.09-4.09Z"/>
  <rect class="cls-64" x="16.15" y="66.43" width="46.98" height="24.85" rx="12" ry="12"/>
  <g>
    <rect class="cls-5" x="16.14" y="63.7" width="46.98" height="24.85" rx="12" ry="12"/>
    <rect class="cls-5" x="16.14" y="63.64" width="46.98" height="24.85" rx="12" ry="12"/>
    <rect class="cls-5" x="16.14" y="63.59" width="46.98" height="24.85" rx="12" ry="12"/>
    <rect class="cls-5" x="16.14" y="63.53" width="46.98" height="24.85" rx="12" ry="12"/>
    <rect class="cls-5" x="16.14" y="63.48" width="46.98" height="24.85" rx="12" ry="12"/>
    <rect class="cls-5" x="16.14" y="63.42" width="46.98" height="24.85" rx="12" ry="12"/>
    <rect class="cls-5" x="16.14" y="63.37" width="46.98" height="24.85" rx="12" ry="12"/>
    <rect class="cls-5" x="16.14" y="63.31" width="46.98" height="24.85" rx="12" ry="12"/>
    <rect class="cls-5" x="16.14" y="63.26" width="46.98" height="24.85" rx="12" ry="12"/>
    <rect class="cls-5" x="16.14" y="63.2" width="46.98" height="24.85" rx="12" ry="12"/>
    <rect class="cls-5" x="16.14" y="63.15" width="46.98" height="24.85" rx="12" ry="12"/>
    <rect class="cls-5" x="16.14" y="63.09" width="46.98" height="24.85" rx="12" ry="12"/>
    <rect class="cls-5" x="16.14" y="63.04" width="46.98" height="24.85" rx="12" ry="12"/>
    <rect class="cls-5" x="16.14" y="62.98" width="46.98" height="24.85" rx="12" ry="12"/>
    <rect class="cls-5" x="16.14" y="62.92" width="46.98" height="24.85" rx="12" ry="12"/>
    <rect class="cls-5" x="16.14" y="62.87" width="46.98" height="24.85" rx="12" ry="12"/>
    <rect class="cls-5" x="16.14" y="62.81" width="46.98" height="24.85" rx="12" ry="12"/>
    <rect class="cls-5" x="16.14" y="62.76" width="46.98" height="24.85" rx="12" ry="12"/>
    <rect class="cls-5" x="16.14" y="62.7" width="46.98" height="24.85" rx="12" ry="12"/>
    <rect class="cls-5" x="16.14" y="62.65" width="46.98" height="24.85" rx="12" ry="12"/>
    <rect class="cls-5" x="16.14" y="62.59" width="46.98" height="24.85" rx="12" ry="12"/>
    <rect class="cls-5" x="16.14" y="62.54" width="46.98" height="24.85" rx="12" ry="12"/>
    <rect class="cls-5" x="16.14" y="62.48" width="46.98" height="24.85" rx="12" ry="12"/>
    <rect class="cls-5" x="16.14" y="62.43" width="46.98" height="24.85" rx="12" ry="12"/>
    <rect class="cls-5" x="16.14" y="62.37" width="46.98" height="24.85" rx="12" ry="12"/>
    <rect class="cls-5" x="16.14" y="62.32" width="46.98" height="24.85" rx="12" ry="12"/>
    <rect class="cls-5" x="16.14" y="62.26" width="46.98" height="24.85" rx="12" ry="12"/>
    <rect class="cls-5" x="16.14" y="62.21" width="46.98" height="24.85" rx="12" ry="12"/>
    <rect class="cls-5" x="16.14" y="62.15" width="46.98" height="24.85" rx="12" ry="12"/>
    <rect class="cls-5" x="16.14" y="62.1" width="46.98" height="24.85" rx="12" ry="12"/>
    <rect class="cls-5" x="16.14" y="62.04" width="46.98" height="24.85" rx="12" ry="12"/>
    <rect class="cls-5" x="16.14" y="61.98" width="46.98" height="24.85" rx="12" ry="12"/>
    <rect class="cls-5" x="16.14" y="61.93" width="46.98" height="24.85" rx="12" ry="12"/>
    <rect class="cls-5" x="16.14" y="61.87" width="46.98" height="24.85" rx="12" ry="12"/>
    <rect class="cls-5" x="16.14" y="61.82" width="46.98" height="24.85" rx="12" ry="12"/>
    <rect class="cls-5" x="16.14" y="61.76" width="46.98" height="24.85" rx="12" ry="12"/>
    <rect class="cls-5" x="16.14" y="61.71" width="46.98" height="24.85" rx="12" ry="12"/>
    <rect class="cls-5" x="16.14" y="61.65" width="46.98" height="24.85" rx="12" ry="12"/>
    <rect class="cls-5" x="16.14" y="61.6" width="46.98" height="24.85" rx="12" ry="12"/>
    <rect class="cls-5" x="16.14" y="61.54" width="46.98" height="24.85" rx="12" ry="12"/>
    <rect class="cls-5" x="16.14" y="61.49" width="46.98" height="24.85" rx="12" ry="12"/>
    <rect class="cls-5" x="16.14" y="61.43" width="46.98" height="24.85" rx="12" ry="12"/>
    <rect class="cls-5" x="16.14" y="61.38" width="46.98" height="24.85" rx="12" ry="12"/>
    <rect class="cls-5" x="16.14" y="61.32" width="46.98" height="24.85" rx="12" ry="12"/>
    <rect class="cls-5" x="16.14" y="61.27" width="46.98" height="24.85" rx="12" ry="12"/>
    <rect class="cls-5" x="16.14" y="61.21" width="46.98" height="24.85" rx="12" ry="12"/>
    <rect class="cls-5" x="16.14" y="61.16" width="46.98" height="24.85" rx="12" ry="12"/>
    <rect class="cls-5" x="16.14" y="61.1" width="46.98" height="24.85" rx="12" ry="12"/>
    <rect class="cls-5" x="16.14" y="61.05" width="46.98" height="24.85" rx="12" ry="12"/>
    <rect class="cls-5" x="16.14" y="60.99" width="46.98" height="24.85" rx="12" ry="12"/>
    <rect class="cls-5" x="16.14" y="60.93" width="46.98" height="24.85" rx="12" ry="12"/>
    <rect class="cls-5" x="16.14" y="60.88" width="46.98" height="24.85" rx="12" ry="12"/>
    <rect class="cls-5" x="16.14" y="60.82" width="46.98" height="24.85" rx="12" ry="12"/>
    <rect class="cls-5" x="16.14" y="60.77" width="46.98" height="24.85" rx="12" ry="12"/>
    <rect class="cls-5" x="16.14" y="60.71" width="46.98" height="24.85" rx="12" ry="12"/>
    <rect class="cls-5" x="16.14" y="60.66" width="46.98" height="24.85" rx="12" ry="12"/>
    <rect class="cls-5" x="16.14" y="60.6" width="46.98" height="24.85" rx="12" ry="12"/>
    <rect class="cls-5" x="16.14" y="60.55" width="46.98" height="24.85" rx="12" ry="12"/>
    <rect class="cls-5" x="16.14" y="60.49" width="46.98" height="24.85" rx="12" ry="12"/>
    <rect class="cls-5" x="16.14" y="60.44" width="46.98" height="24.85" rx="12" ry="12"/>
    <rect class="cls-5" x="16.14" y="60.38" width="46.98" height="24.85" rx="12" ry="12"/>
    <rect class="cls-5" x="16.14" y="60.33" width="46.98" height="24.85" rx="12" ry="12"/>
    <rect class="cls-5" x="16.14" y="60.27" width="46.98" height="24.85" rx="12" ry="12"/>
    <rect class="cls-5" x="16.14" y="60.22" width="46.98" height="24.85" rx="12" ry="12"/>
    <rect class="cls-5" x="16.14" y="60.16" width="46.98" height="24.85" rx="12" ry="12"/>
    <rect class="cls-5" x="16.14" y="60.11" width="46.98" height="24.85" rx="12" ry="12"/>
    <rect class="cls-5" x="16.14" y="60.05" width="46.98" height="24.85" rx="12" ry="12"/>
    <rect class="cls-5" x="16.14" y="60" width="46.98" height="24.85" rx="12" ry="12"/>
    <rect class="cls-5" x="16.14" y="59.94" width="46.98" height="24.85" rx="12" ry="12"/>
    <rect class="cls-5" x="16.14" y="59.88" width="46.98" height="24.85" rx="12" ry="12"/>
    <rect class="cls-5" x="16.14" y="59.83" width="46.98" height="24.85" rx="12" ry="12"/>
    <rect class="cls-5" x="16.14" y="59.77" width="46.98" height="24.85" rx="12" ry="12"/>
    <rect class="cls-5" x="16.14" y="59.72" width="46.98" height="24.85" rx="12" ry="12"/>
    <rect class="cls-5" x="16.14" y="59.66" width="46.98" height="24.85" rx="12" ry="12"/>
    <rect class="cls-5" x="16.14" y="59.61" width="46.98" height="24.85" rx="12" ry="12"/>
    <rect class="cls-5" x="16.14" y="59.55" width="46.98" height="24.85" rx="12" ry="12"/>
    <rect class="cls-5" x="16.14" y="59.5" width="46.98" height="24.85" rx="12" ry="12"/>
    <rect class="cls-5" x="16.14" y="59.44" width="46.98" height="24.85" rx="12" ry="12"/>
    <rect class="cls-5" x="16.14" y="59.39" width="46.98" height="24.85" rx="12" ry="12"/>
    <rect class="cls-5" x="16.14" y="59.33" width="46.98" height="24.85" rx="12" ry="12"/>
    <rect class="cls-5" x="16.14" y="59.28" width="46.98" height="24.85" rx="12" ry="12"/>
    <rect class="cls-5" x="16.14" y="59.22" width="46.98" height="24.85" rx="12" ry="12"/>
    <rect class="cls-5" x="16.14" y="59.17" width="46.98" height="24.85" rx="12" ry="12"/>
    <rect class="cls-5" x="16.14" y="59.11" width="46.98" height="24.85" rx="12" ry="12"/>
    <rect class="cls-5" x="16.14" y="59.06" width="46.98" height="24.85" rx="12" ry="12"/>
    <rect class="cls-5" x="16.14" y="59" width="46.98" height="24.85" rx="12" ry="12"/>
    <rect class="cls-5" x="16.14" y="58.94" width="46.98" height="24.85" rx="12" ry="12"/>
    <rect class="cls-5" x="16.14" y="58.89" width="46.98" height="24.85" rx="12" ry="12"/>
    <rect class="cls-5" x="16.14" y="58.83" width="46.98" height="24.85" rx="12" ry="12"/>
    <rect class="cls-5" x="16.14" y="58.78" width="46.98" height="24.85" rx="12" ry="12"/>
    <rect class="cls-5" x="16.14" y="58.72" width="46.98" height="24.85" rx="12" ry="12"/>
    <rect class="cls-5" x="16.14" y="58.67" width="46.98" height="24.85" rx="12" ry="12"/>
    <rect class="cls-5" x="16.14" y="58.61" width="46.98" height="24.85" rx="12" ry="12"/>
    <rect class="cls-5" x="16.14" y="58.56" width="46.98" height="24.85" rx="12" ry="12"/>
    <rect class="cls-5" x="16.14" y="58.5" width="46.98" height="24.85" rx="12" ry="12"/>
    <rect class="cls-5" x="16.14" y="58.45" width="46.98" height="24.85" rx="12" ry="12"/>
    <rect class="cls-5" x="16.14" y="58.39" width="46.98" height="24.85" rx="12" ry="12"/>
    <rect class="cls-5" x="16.14" y="58.34" width="46.98" height="24.85" rx="12" ry="12"/>
    <rect class="cls-5" x="16.14" y="58.28" width="46.98" height="24.85" rx="12" ry="12"/>
    <rect class="cls-5" x="16.14" y="58.23" width="46.98" height="24.85" rx="12" ry="12"/>
    <rect class="cls-5" x="16.14" y="58.17" width="46.98" height="24.85" rx="12" ry="12"/>
    <rect class="cls-5" x="16.14" y="58.12" width="46.98" height="24.85" rx="12" ry="12"/>
    <rect class="cls-5" x="16.14" y="58.06" width="46.98" height="24.85" rx="12" ry="12"/>
    <rect class="cls-5" x="16.14" y="58.01" width="46.98" height="24.85" rx="12" ry="12"/>
    <rect class="cls-5" x="16.14" y="57.95" width="46.98" height="24.85" rx="12" ry="12"/>
    <rect class="cls-5" x="16.14" y="57.89" width="46.98" height="24.85" rx="12" ry="12"/>
    <rect class="cls-5" x="16.14" y="57.84" width="46.98" height="24.85" rx="12" ry="12"/>
    <rect class="cls-5" x="16.14" y="57.78" width="46.98" height="24.85" rx="12" ry="12"/>
    <rect class="cls-5" x="16.14" y="57.73" width="46.98" height="24.85" rx="12" ry="12"/>
    <rect class="cls-5" x="16.14" y="57.67" width="46.98" height="24.85" rx="12" ry="12"/>
    <rect class="cls-5" x="16.14" y="57.62" width="46.98" height="24.85" rx="12" ry="12"/>
    <rect class="cls-5" x="16.14" y="57.56" width="46.98" height="24.85" rx="12" ry="12"/>
    <rect class="cls-5" x="16.14" y="57.51" width="46.98" height="24.85" rx="12" ry="12"/>
    <rect class="cls-5" x="16.14" y="57.45" width="46.98" height="24.85" rx="12" ry="12"/>
    <rect class="cls-5" x="16.14" y="57.4" width="46.98" height="24.85" rx="12" ry="12"/>
    <rect class="cls-5" x="16.14" y="57.34" width="46.98" height="24.85" rx="12" ry="12"/>
    <rect class="cls-5" x="16.14" y="57.29" width="46.98" height="24.85" rx="12" ry="12"/>
    <rect class="cls-5" x="16.14" y="57.23" width="46.98" height="24.85" rx="12" ry="12"/>
    <rect class="cls-5" x="16.14" y="57.18" width="46.98" height="24.85" rx="12" ry="12"/>
    <rect class="cls-5" x="16.14" y="57.12" width="46.98" height="24.85" rx="12" ry="12"/>
    <rect class="cls-5" x="16.14" y="57.07" width="46.98" height="24.85" rx="12" ry="12"/>
    <rect class="cls-5" x="16.14" y="57.01" width="46.98" height="24.85" rx="12" ry="12"/>
    <rect class="cls-5" x="16.14" y="56.96" width="46.98" height="24.85" rx="12" ry="12"/>
    <rect class="cls-5" x="16.14" y="56.9" width="46.98" height="24.85" rx="12" ry="12"/>
    <rect class="cls-5" x="16.14" y="56.84" width="46.98" height="24.85" rx="12" ry="12"/>
    <rect class="cls-5" x="16.14" y="56.79" width="46.98" height="24.85" rx="12" ry="12"/>
    <rect class="cls-5" x="16.14" y="56.73" width="46.98" height="24.85" rx="12" ry="12"/>
    <rect class="cls-5" x="16.14" y="56.68" width="46.98" height="24.85" rx="12" ry="12"/>
    <rect class="cls-5" x="16.14" y="56.62" width="46.98" height="24.85" rx="12" ry="12"/>
    <rect class="cls-5" x="16.14" y="56.57" width="46.98" height="24.85" rx="12" ry="12"/>
    <rect class="cls-5" x="16.14" y="56.51" width="46.98" height="24.85" rx="12" ry="12"/>
    <rect class="cls-5" x="16.14" y="56.46" width="46.98" height="24.85" rx="12" ry="12"/>
    <rect class="cls-5" x="16.14" y="56.4" width="46.98" height="24.85" rx="12" ry="12"/>
    <rect class="cls-5" x="16.14" y="56.35" width="46.98" height="24.85" rx="12" ry="12"/>
    <rect class="cls-5" x="16.14" y="56.29" width="46.98" height="24.85" rx="12" ry="12"/>
    <rect class="cls-5" x="16.14" y="56.24" width="46.98" height="24.85" rx="12" ry="12"/>
    <rect class="cls-5" x="16.14" y="56.18" width="46.98" height="24.85" rx="12" ry="12"/>
    <rect class="cls-5" x="16.14" y="56.13" width="46.98" height="24.85" rx="12" ry="12"/>
    <rect class="cls-5" x="16.14" y="56.07" width="46.98" height="24.85" rx="12" ry="12"/>
    <rect class="cls-5" x="16.14" y="56.02" width="46.98" height="24.85" rx="12" ry="12"/>
    <rect class="cls-5" x="16.14" y="55.96" width="46.98" height="24.85" rx="12" ry="12"/>
    <rect class="cls-5" x="16.14" y="55.9" width="46.98" height="24.85" rx="12" ry="12"/>
    <rect class="cls-5" x="16.14" y="55.85" width="46.98" height="24.85" rx="12" ry="12"/>
    <rect class="cls-5" x="16.14" y="55.79" width="46.98" height="24.85" rx="12" ry="12"/>
    <rect class="cls-5" x="16.14" y="55.74" width="46.98" height="24.85" rx="12" ry="12"/>
    <rect class="cls-5" x="16.14" y="55.68" width="46.98" height="24.85" rx="12" ry="12"/>
    <rect class="cls-5" x="16.14" y="55.63" width="46.98" height="24.85" rx="12" ry="12"/>
    <rect class="cls-5" x="16.14" y="55.57" width="46.98" height="24.85" rx="12" ry="12"/>
    <rect class="cls-5" x="16.14" y="55.52" width="46.98" height="24.85" rx="12" ry="12"/>
    <rect class="cls-5" x="16.14" y="55.46" width="46.98" height="24.85" rx="12" ry="12"/>
    <rect class="cls-5" x="16.14" y="55.41" width="46.98" height="24.85" rx="12" ry="12"/>
    <rect class="cls-5" x="16.14" y="55.35" width="46.98" height="24.85" rx="12" ry="12"/>
    <rect class="cls-5" x="16.14" y="55.3" width="46.98" height="24.85" rx="12" ry="12"/>
    <rect class="cls-5" x="16.14" y="55.24" width="46.98" height="24.85" rx="12" ry="12"/>
    <rect class="cls-5" x="16.14" y="55.19" width="46.98" height="24.85" rx="12" ry="12"/>
    <rect class="cls-5" x="16.14" y="55.13" width="46.98" height="24.85" rx="12" ry="12"/>
    <rect class="cls-5" x="16.14" y="55.08" width="46.98" height="24.85" rx="12" ry="12"/>
    <rect class="cls-5" x="16.14" y="55.02" width="46.98" height="24.85" rx="12" ry="12"/>
    <rect class="cls-5" x="16.14" y="54.97" width="46.98" height="24.85" rx="12" ry="12"/>
    <rect class="cls-5" x="16.14" y="54.91" width="46.98" height="24.85" rx="12" ry="12"/>
    <rect class="cls-5" x="16.14" y="54.85" width="46.98" height="24.85" rx="12" ry="12"/>
    <rect class="cls-5" x="16.14" y="54.8" width="46.98" height="24.85" rx="12" ry="12"/>
    <rect class="cls-5" x="16.14" y="54.74" width="46.98" height="24.85" rx="12" ry="12"/>
    <rect class="cls-5" x="16.14" y="54.69" width="46.98" height="24.85" rx="12" ry="12"/>
    <rect class="cls-5" x="16.14" y="54.63" width="46.98" height="24.85" rx="12" ry="12"/>
    <rect class="cls-5" x="16.14" y="54.58" width="46.98" height="24.85" rx="12" ry="12"/>
    <rect class="cls-5" x="16.14" y="54.52" width="46.98" height="24.85" rx="12" ry="12"/>
    <rect class="cls-5" x="16.14" y="54.47" width="46.98" height="24.85" rx="12" ry="12"/>
    <rect class="cls-5" x="16.14" y="54.41" width="46.98" height="24.85" rx="12" ry="12"/>
    <rect class="cls-5" x="16.14" y="54.36" width="46.98" height="24.85" rx="12" ry="12"/>
    <rect class="cls-5" x="16.14" y="54.3" width="46.98" height="24.85" rx="12" ry="12"/>
    <rect class="cls-5" x="16.14" y="54.25" width="46.98" height="24.85" rx="12" ry="12"/>
    <rect class="cls-5" x="16.14" y="54.19" width="46.98" height="24.85" rx="12" ry="12"/>
    <rect class="cls-5" x="16.14" y="54.14" width="46.98" height="24.85" rx="12" ry="12"/>
    <rect class="cls-5" x="16.14" y="54.08" width="46.98" height="24.85" rx="12" ry="12"/>
    <rect class="cls-5" x="16.14" y="54.03" width="46.98" height="24.85" rx="12" ry="12"/>
    <rect class="cls-5" x="16.14" y="53.97" width="46.98" height="24.85" rx="12" ry="12"/>
    <rect class="cls-5" x="16.14" y="53.92" width="46.98" height="24.85" rx="12" ry="12"/>
    <rect class="cls-5" x="16.14" y="53.86" width="46.98" height="24.85" rx="12" ry="12"/>
    <rect class="cls-5" x="16.14" y="53.8" width="46.98" height="24.85" rx="12" ry="12"/>
    <rect class="cls-5" x="16.14" y="53.75" width="46.98" height="24.85" rx="12" ry="12"/>
    <rect class="cls-5" x="16.14" y="53.69" width="46.98" height="24.85" rx="12" ry="12"/>
    <rect class="cls-5" x="16.14" y="53.64" width="46.98" height="24.85" rx="12" ry="12"/>
    <rect class="cls-5" x="16.14" y="53.58" width="46.98" height="24.85" rx="12" ry="12"/>
    <rect class="cls-5" x="16.14" y="53.53" width="46.98" height="24.85" rx="12" ry="12"/>
    <rect class="cls-5" x="16.14" y="53.47" width="46.98" height="24.85" rx="12" ry="12"/>
    <rect class="cls-5" x="16.14" y="53.42" width="46.98" height="24.85" rx="12" ry="12"/>
    <rect class="cls-5" x="16.14" y="53.36" width="46.98" height="24.85" rx="12" ry="12"/>
    <rect class="cls-5" x="16.14" y="53.31" width="46.98" height="24.85" rx="12" ry="12"/>
    <rect class="cls-5" x="16.14" y="53.25" width="46.98" height="24.85" rx="12" ry="12"/>
    <rect class="cls-5" x="16.14" y="53.2" width="46.98" height="24.85" rx="12" ry="12"/>
    <rect class="cls-5" x="16.14" y="53.14" width="46.98" height="24.85" rx="12" ry="12"/>
    <rect class="cls-5" x="16.14" y="53.09" width="46.98" height="24.85" rx="12" ry="12"/>
    <rect class="cls-5" x="16.14" y="53.03" width="46.98" height="24.85" rx="12" ry="12"/>
    <rect class="cls-5" x="16.14" y="52.98" width="46.98" height="24.85" rx="12" ry="12"/>
    <rect class="cls-5" x="16.14" y="52.92" width="46.98" height="24.85" rx="12" ry="12"/>
    <rect class="cls-5" x="16.14" y="52.87" width="46.98" height="24.85" rx="12" ry="12"/>
    <rect class="cls-5" x="16.14" y="52.81" width="46.98" height="24.85" rx="12" ry="12"/>
    <rect class="cls-5" x="16.14" y="52.75" width="46.98" height="24.85" rx="12" ry="12"/>
    <rect class="cls-5" x="16.14" y="52.7" width="46.98" height="24.85" rx="12" ry="12"/>
    <rect class="cls-5" x="16.14" y="52.64" width="46.98" height="24.85" rx="12" ry="12"/>
    <rect class="cls-5" x="16.14" y="52.59" width="46.98" height="24.85" rx="12" ry="12"/>
    <rect class="cls-5" x="16.14" y="52.53" width="46.98" height="24.85" rx="12" ry="12"/>
    <rect class="cls-5" x="16.14" y="52.48" width="46.98" height="24.85" rx="12" ry="12"/>
    <rect class="cls-5" x="16.14" y="52.42" width="46.98" height="24.85" rx="12" ry="12"/>
    <rect class="cls-5" x="16.14" y="52.37" width="46.98" height="24.85" rx="12" ry="12"/>
    <rect class="cls-5" x="16.14" y="52.31" width="46.98" height="24.85" rx="12" ry="12"/>
    <rect class="cls-5" x="16.14" y="52.26" width="46.98" height="24.85" rx="12" ry="12"/>
    <rect class="cls-5" x="16.14" y="52.2" width="46.98" height="24.85" rx="12" ry="12"/>
    <rect class="cls-5" x="16.14" y="52.15" width="46.98" height="24.85" rx="12" ry="12"/>
    <rect class="cls-5" x="16.14" y="52.09" width="46.98" height="24.85" rx="12" ry="12"/>
    <rect class="cls-5" x="16.14" y="52.04" width="46.98" height="24.85" rx="12" ry="12"/>
    <rect class="cls-5" x="16.14" y="51.98" width="46.98" height="24.85" rx="12" ry="12"/>
    <rect class="cls-5" x="16.14" y="51.93" width="46.98" height="24.85" rx="12" ry="12"/>
    <rect class="cls-5" x="16.14" y="51.87" width="46.98" height="24.85" rx="12" ry="12"/>
    <rect class="cls-5" x="16.14" y="51.81" width="46.98" height="24.85" rx="12" ry="12"/>
    <rect class="cls-5" x="16.14" y="51.76" width="46.98" height="24.85" rx="12" ry="12"/>
    <rect class="cls-5" x="16.14" y="51.7" width="46.98" height="24.85" rx="12" ry="12"/>
    <rect class="cls-5" x="16.14" y="51.65" width="46.98" height="24.85" rx="12" ry="12"/>
    <rect class="cls-5" x="16.14" y="51.59" width="46.98" height="24.85" rx="12" ry="12"/>
    <rect class="cls-5" x="16.14" y="51.54" width="46.98" height="24.85" rx="12" ry="12"/>
    <rect class="cls-5" x="16.14" y="51.48" width="46.98" height="24.85" rx="12" ry="12"/>
    <rect class="cls-5" x="16.14" y="51.43" width="46.98" height="24.85" rx="12" ry="12"/>
    <rect class="cls-5" x="16.14" y="51.37" width="46.98" height="24.85" rx="12" ry="12"/>
    <rect class="cls-5" x="16.14" y="51.32" width="46.98" height="24.85" rx="12" ry="12"/>
    <rect class="cls-5" x="16.14" y="51.26" width="46.98" height="24.85" rx="12" ry="12"/>
    <rect class="cls-5" x="16.14" y="51.21" width="46.98" height="24.85" rx="12" ry="12"/>
    <rect class="cls-5" x="16.14" y="51.15" width="46.98" height="24.85" rx="12" ry="12"/>
    <rect class="cls-5" x="16.14" y="51.1" width="46.98" height="24.85" rx="12" ry="12"/>
    <rect class="cls-5" x="16.14" y="51.04" width="46.98" height="24.85" rx="12" ry="12"/>
    <rect class="cls-5" x="16.14" y="50.99" width="46.98" height="24.85" rx="12" ry="12"/>
    <rect class="cls-5" x="16.14" y="50.93" width="46.98" height="24.85" rx="12" ry="12"/>
    <rect class="cls-5" x="16.14" y="50.88" width="46.98" height="24.85" rx="12" ry="12"/>
    <rect class="cls-5" x="16.14" y="50.82" width="46.98" height="24.85" rx="12" ry="12"/>
    <rect class="cls-5" x="16.14" y="50.76" width="46.98" height="24.85" rx="12" ry="12"/>
    <rect class="cls-5" x="16.14" y="50.71" width="46.98" height="24.85" rx="12" ry="12"/>
    <rect class="cls-5" x="16.14" y="50.65" width="46.98" height="24.85" rx="12" ry="12"/>
    <rect class="cls-5" x="16.14" y="50.6" width="46.98" height="24.85" rx="12" ry="12"/>
    <rect class="cls-5" x="16.14" y="50.54" width="46.98" height="24.85" rx="12" ry="12"/>
    <rect class="cls-5" x="16.14" y="50.49" width="46.98" height="24.85" rx="12" ry="12"/>
    <rect class="cls-5" x="16.14" y="50.43" width="46.98" height="24.85" rx="12" ry="12"/>
    <rect class="cls-5" x="16.14" y="50.38" width="46.98" height="24.85" rx="12" ry="12"/>
    <rect class="cls-5" x="16.14" y="50.32" width="46.98" height="24.85" rx="12" ry="12"/>
    <rect class="cls-5" x="16.14" y="50.27" width="46.98" height="24.85" rx="12" ry="12"/>
    <rect class="cls-5" x="16.14" y="50.21" width="46.98" height="24.85" rx="12" ry="12"/>
    <rect class="cls-5" x="16.14" y="50.16" width="46.98" height="24.85" rx="12" ry="12"/>
    <rect class="cls-5" x="16.14" y="50.1" width="46.98" height="24.85" rx="12" ry="12"/>
    <rect class="cls-5" x="16.14" y="50.05" width="46.98" height="24.85" rx="12" ry="12"/>
    <rect class="cls-5" x="16.14" y="49.99" width="46.98" height="24.85" rx="12" ry="12"/>
    <rect class="cls-5" x="16.14" y="49.94" width="46.98" height="24.85" rx="12" ry="12"/>
    <rect class="cls-5" x="16.14" y="49.88" width="46.98" height="24.85" rx="12" ry="12"/>
    <rect class="cls-5" x="16.14" y="49.83" width="46.98" height="24.85" rx="12" ry="12"/>
    <rect class="cls-5" x="16.14" y="49.77" width="46.98" height="24.85" rx="12" ry="12"/>
    <rect class="cls-5" x="16.14" y="49.71" width="46.98" height="24.85" rx="12" ry="12"/>
    <rect class="cls-5" x="16.14" y="49.66" width="46.98" height="24.85" rx="12" ry="12"/>
    <rect class="cls-5" x="16.14" y="49.6" width="46.98" height="24.85" rx="12" ry="12"/>
    <rect class="cls-5" x="16.14" y="49.55" width="46.98" height="24.85" rx="12" ry="12"/>
    <rect class="cls-5" x="16.14" y="49.49" width="46.98" height="24.85" rx="12" ry="12"/>
    <rect class="cls-5" x="16.14" y="49.44" width="46.98" height="24.85" rx="12" ry="12"/>
    <rect class="cls-5" x="16.14" y="49.38" width="46.98" height="24.85" rx="12" ry="12"/>
    <rect class="cls-5" x="16.14" y="49.33" width="46.98" height="24.85" rx="12" ry="12"/>
    <rect class="cls-5" x="16.14" y="49.27" width="46.98" height="24.85" rx="12" ry="12"/>
    <rect class="cls-5" x="16.14" y="49.22" width="46.98" height="24.85" rx="12" ry="12"/>
    <rect class="cls-5" x="16.14" y="49.16" width="46.98" height="24.85" rx="12" ry="12"/>
    <rect class="cls-5" x="16.14" y="49.11" width="46.98" height="24.85" rx="12" ry="12"/>
    <rect class="cls-5" x="16.14" y="49.05" width="46.98" height="24.85" rx="12" ry="12"/>
    <rect class="cls-5" x="16.14" y="49" width="46.98" height="24.85" rx="12" ry="12"/>
    <rect class="cls-5" x="16.14" y="48.94" width="46.98" height="24.85" rx="12" ry="12"/>
    <rect class="cls-5" x="16.14" y="48.89" width="46.98" height="24.85" rx="12" ry="12"/>
    <rect class="cls-5" x="16.14" y="48.83" width="46.98" height="24.85" rx="12" ry="12"/>
    <rect class="cls-5" x="16.14" y="48.77" width="46.98" height="24.85" rx="12" ry="12"/>
    <rect class="cls-5" x="16.14" y="48.72" width="46.98" height="24.85" rx="12" ry="12"/>
    <rect class="cls-5" x="16.14" y="48.66" width="46.98" height="24.85" rx="12" ry="12"/>
    <rect class="cls-5" x="16.14" y="48.61" width="46.98" height="24.85" rx="12" ry="12"/>
    <rect class="cls-5" x="16.14" y="48.55" width="46.98" height="24.85" rx="12" ry="12"/>
    <rect class="cls-5" x="16.14" y="48.5" width="46.98" height="24.85" rx="12" ry="12"/>
    <rect class="cls-5" x="16.14" y="48.44" width="46.98" height="24.85" rx="12" ry="12"/>
    <rect class="cls-5" x="16.14" y="48.39" width="46.98" height="24.85" rx="12" ry="12"/>
    <rect class="cls-5" x="16.14" y="48.33" width="46.98" height="24.85" rx="12" ry="12"/>
    <rect class="cls-5" x="16.14" y="48.28" width="46.98" height="24.85" rx="12" ry="12"/>
    <rect class="cls-5" x="16.14" y="48.22" width="46.98" height="24.85" rx="12" ry="12"/>
    <rect class="cls-5" x="16.14" y="48.17" width="46.98" height="24.85" rx="12" ry="12"/>
    <rect class="cls-5" x="16.14" y="48.11" width="46.98" height="24.85" rx="12" ry="12"/>
    <rect class="cls-5" x="16.14" y="48.06" width="46.98" height="24.85" rx="12" ry="12"/>
    <rect class="cls-5" x="16.14" y="48" width="46.98" height="24.85" rx="12" ry="12"/>
    <rect class="cls-5" x="16.14" y="47.95" width="46.98" height="24.85" rx="12" ry="12"/>
    <rect class="cls-5" x="16.14" y="47.89" width="46.98" height="24.85" rx="12" ry="12"/>
    <rect class="cls-5" x="16.14" y="47.84" width="46.98" height="24.85" rx="12" ry="12"/>
    <rect class="cls-5" x="16.14" y="47.78" width="46.98" height="24.85" rx="12" ry="12"/>
    <rect class="cls-5" x="16.14" y="47.72" width="46.98" height="24.85" rx="12" ry="12"/>
    <rect class="cls-5" x="16.14" y="47.67" width="46.98" height="24.85" rx="12" ry="12"/>
    <rect class="cls-5" x="16.14" y="47.61" width="46.98" height="24.85" rx="12" ry="12"/>
    <rect class="cls-5" x="16.14" y="47.56" width="46.98" height="24.85" rx="12" ry="12"/>
    <rect class="cls-5" x="16.14" y="47.5" width="46.98" height="24.85" rx="12" ry="12"/>
    <rect class="cls-5" x="16.14" y="47.45" width="46.98" height="24.85" rx="12" ry="12"/>
    <rect class="cls-5" x="16.14" y="47.39" width="46.98" height="24.85" rx="12" ry="12"/>
    <rect class="cls-5" x="16.14" y="47.34" width="46.98" height="24.85" rx="12" ry="12"/>
    <rect class="cls-5" x="16.14" y="47.28" width="46.98" height="24.85" rx="12" ry="12"/>
    <rect class="cls-5" x="16.14" y="47.23" width="46.98" height="24.85" rx="12" ry="12"/>
    <rect class="cls-5" x="16.14" y="47.17" width="46.98" height="24.85" rx="12" ry="12"/>
    <rect class="cls-5" x="16.14" y="47.12" width="46.98" height="24.85" rx="12" ry="12"/>
    <rect class="cls-5" x="16.14" y="47.06" width="46.98" height="24.85" rx="12" ry="12"/>
  </g>
  <path class="cls-46" d="m34.52,25.28c-1.16-2.12-3.74-3.6-6.72-3.6h.97c2.52,0,4.71,1.47,5.75,3.6Z"/>
  <path class="cls-46" d="m27.8,21.68c-2.95,0-5.5,1.45-6.68,3.53,1.05-2.09,3.22-3.53,5.72-3.53h.96Z"/>
  <path class="cls-46" d="m51.48,21.68c-3,0-5.59,1.51-6.74,3.65,1.03-2.15,3.24-3.65,5.78-3.65h.96Z"/>
  <path class="cls-46" d="m58.15,25.18c-1.18-2.06-3.73-3.5-6.67-3.5h.97c2.48,0,4.65,1.43,5.7,3.5Z"/>
  <path class="cls-46" d="m58.86,27.76h-14.74s0-.06,0-.08c0-.06,0-.12,0-.18,0-.03,0-.06,0-.08.04-.61.19-1.2.44-1.75.05-.11.1-.22.16-.34,1.15-2.14,3.74-3.65,6.74-3.65s5.49,1.44,6.67,3.5c.45.78.7,1.66.71,2.58h0Z"/>
  <rect class="cls-32" x="16.15" y="45.63" width="46.98" height="24.85" rx="12" ry="12"/>
  <circle class="cls-3" cx="60.66" cy="9.45" r="9.45"/>
  <circle class="cls-5" cx="58.33" cy="13.39" r="9.45"/>
  <g>
    <path class="cls-43" d="m57.35,11.57H21.92c-6.6,0-12,5.4-12,12v22.2c0,11.36,9.3,20.66,20.66,20.66h18.11c11.36,0,20.66-9.3,20.66-20.66v-22.2c0-6.6-5.4-12-12-12Z"/>
    <path class="cls-24" d="m21.59,11.77c0-.17,8.84-.31,9.02-.31h17.8c.18,0,9.26.15,9.26.32,6.42,0,11.68,5.53,11.68,11.95v21.92c0,11.36-9.3,20.66-20.66,20.66h-18.11c-11.36,0-20.66-9.3-20.66-20.66v-21.93c0-6.13,4.79-11.47,10.81-11.91.28-.03.57-.04.86-.04h0Z"/>
    <path class="cls-24" d="m21.27,11.96c.01-.34,8.75-.62,9.1-.62h18.29c.36,0,9.34.29,9.34.65,6.24,0,11.35,5.66,11.35,11.9v21.64c0,11.36-9.3,20.66-20.66,20.66h-18.11c-11.36,0-20.66-9.3-20.66-20.66v-21.66c0-5.96,4.66-11.43,10.51-11.86.28-.03.56-.05.84-.06h0Z"/>
    <path class="cls-49" d="m20.95,12.15c.02-.52,8.66-.93,9.18-.93h18.78c.54,0,9.41.44,9.41.97,6.06,0,11.03,5.79,11.03,11.86v21.37c0,11.36-9.3,20.66-20.66,20.66h-18.11c-11.36,0-20.66-9.3-20.66-20.66v-21.39c0-5.79,4.52-11.39,10.21-11.81.27-.03.54-.06.81-.07h.01Z"/>
    <path class="cls-70" d="m20.62,12.34c.03-.69,8.57-1.25,9.26-1.25h19.27c.71,0,9.49.58,9.49,1.3,5.89,0,10.7,5.92,10.7,11.81v21.09c0,11.36-9.3,20.66-20.66,20.66h-18.11c-11.36,0-20.66-9.3-20.66-20.66v-21.12c0-5.62,4.39-11.34,9.91-11.75.26-.04.52-.06.79-.08h.01Z"/>
    <path class="cls-10" d="m20.3,12.53c.03-.86,8.47-1.56,9.34-1.56h19.76c.89,0,9.57.73,9.57,1.62,5.71,0,10.38,6.05,10.38,11.76v20.81c0,11.36-9.3,20.66-20.66,20.66h-18.11c-11.36,0-20.66-9.3-20.66-20.66v-20.85c0-5.45,4.26-11.3,9.61-11.7.25-.04.51-.07.77-.09h0Z"/>
    <path class="cls-78" d="m19.98,12.73c.04-1.03,8.38-1.87,9.43-1.87h20.25c1.07,0,9.64.88,9.64,1.95,5.53,0,10.05,6.18,10.05,11.71v20.54c0,11.36-9.3,20.66-20.66,20.66h-18.11c-11.36,0-20.66-9.3-20.66-20.66v-20.58c0-5.28,4.13-11.26,9.31-11.64.24-.04.49-.08.74-.1h0Z"/>
    <path class="cls-58" d="m19.65,12.92c.05-1.21,8.29-2.18,9.51-2.18h20.74c1.25,0,9.72,1.02,9.72,2.27,5.35,0,9.73,6.31,9.73,11.66v20.26c0,11.36-9.3,20.66-20.66,20.66h-18.11c-11.36,0-20.66-9.3-20.66-20.66v-20.31c0-5.11,3.99-11.22,9.01-11.59.24-.05.48-.09.72-.12h0Z"/>
    <path class="cls-31" d="m19.33,13.11c.05-1.38,8.2-2.49,9.59-2.49h21.23c1.43,0,9.79,1.17,9.79,2.59,5.17,0,9.41,6.44,9.41,11.62v19.98c0,11.36-9.3,20.66-20.66,20.66h-18.11c-11.36,0-20.66-9.3-20.66-20.66v-20.04c0-4.94,3.86-11.18,8.71-11.54.23-.05.46-.09.7-.13h0Z"/>
    <path class="cls-31" d="m19,13.3c.06-1.55,8.11-2.8,9.67-2.8h21.72c1.61,0,9.87,1.31,9.87,2.92,4.99,0,9.08,6.57,9.08,11.57v19.71c0,11.36-9.3,20.66-20.66,20.66h-18.11c-11.36,0-20.66-9.3-20.66-20.66v-19.77c0-4.77,3.73-11.14,8.41-11.48.22-.06.44-.1.67-.14h.01Z"/>
    <path class="cls-66" d="m18.68,13.49c.06-1.72,8.02-3.12,9.76-3.12h22.21c1.78,0,9.95,1.46,9.95,3.24,4.82,0,8.76,6.7,8.76,11.52v19.43c0,11.36-9.3,20.66-20.66,20.66h-18.11c-11.36,0-20.66-9.3-20.66-20.66v-19.5c0-4.6,3.59-11.09,8.11-11.43.21-.06.43-.11.65-.15h-.01Z"/>
    <path class="cls-67" d="m18.36,13.69c.07-1.9,7.92-3.43,9.84-3.43h22.7c1.96,0,10.02,1.61,10.02,3.57,4.64,0,8.43,6.83,8.43,11.47v19.15c0,11.36-9.3,20.66-20.66,20.66h-18.11c-11.36,0-20.66-9.3-20.66-20.66v-19.23c0-4.43,3.46-11.05,7.81-11.37.21-.06.41-.12.63-.16Z"/>
    <path class="cls-67" d="m18.03,13.88c.08-2.07,7.83-3.74,9.92-3.74h23.19c2.14,0,10.1,1.75,10.1,3.89,4.46,0,8.11,6.96,8.11,11.42v18.88c0,11.36-9.3,20.66-20.66,20.66h-18.11c-11.36,0-20.66-9.3-20.66-20.66v-18.96c0-4.26,3.33-11.01,7.51-11.32.2-.07.4-.12.6-.17Z"/>
    <path class="cls-36" d="m17.71,14.07c.08-2.24,7.74-4.05,10-4.05h23.68c2.32,0,10.17,1.9,10.17,4.22,4.28,0,7.78,7.09,7.78,11.38v18.6c0,11.36-9.3,20.66-20.66,20.66h-18.11c-11.36,0-20.66-9.3-20.66-20.66v-18.69c0-4.09,3.19-10.97,7.21-11.27.19-.07.38-.13.58-.19h.01Z"/>
    <path class="cls-36" d="m17.38,14.26c.09-2.41,7.65-4.36,10.09-4.36h24.17c2.5,0,10.25,2.04,10.25,4.54,4.1,0,7.46,7.22,7.46,11.33v18.32c0,11.36-9.3,20.66-20.66,20.66h-18.11c-11.36,0-20.66-9.3-20.66-20.66v-18.42c0-3.92,3.06-10.93,6.91-11.21.18-.07.37-.14.56-.2h-.01Z"/>
    <path class="cls-57" d="m17.06,14.46c.1-2.59,7.56-4.67,10.17-4.67h24.66c2.68,0,10.33,2.19,10.33,4.86,3.92,0,7.14,7.36,7.14,11.28v18.05c0,11.36-9.3,20.66-20.66,20.66h-18.11c-11.36,0-20.66-9.3-20.66-20.66v-18.15c0-3.75,2.93-10.89,6.61-11.16.17-.08.35-.15.53-.21h-.01Z"/>
    <path class="cls-51" d="m16.74,14.65c.1-2.76,7.47-4.99,10.25-4.99h25.15c2.85,0,10.4,2.34,10.4,5.19,3.75,0,6.81,7.49,6.81,11.23v17.77c0,11.36-9.3,20.66-20.66,20.66h-18.11c-11.36,0-20.66-9.3-20.66-20.66v-17.88c0-3.58,2.79-10.84,6.31-11.1.17-.08.33-.15.51-.22Z"/>
    <path class="cls-51" d="m16.41,14.84c.11-2.93,7.37-5.3,10.33-5.3h25.64c3.03,0,10.48,2.48,10.48,5.51,3.57,0,6.49,7.62,6.49,11.18v17.5c0,11.36-9.3,20.66-20.66,20.66h-18.11c-11.36,0-20.66-9.3-20.66-20.66v-17.61c0-3.41,2.66-10.8,6.01-11.05.16-.09.32-.16.49-.23h-.01Z"/>
    <path class="cls-35" d="m16.09,15.03c.12-3.1,7.28-5.61,10.42-5.61h26.12c3.21,0,10.55,2.63,10.55,5.84,3.39,0,6.16,7.75,6.16,11.14v17.22c0,11.36-9.3,20.66-20.66,20.66h-18.11c-11.36,0-20.66-9.3-20.66-20.66v-17.34c0-3.24,2.53-10.76,5.71-11,.15-.09.3-.17.46-.25h.01Z"/>
    <path class="cls-72" d="m15.77,15.22c.12-3.28,7.19-5.92,10.5-5.92h26.61c3.39,0,10.63,2.77,10.63,6.16,3.21,0,5.84,7.88,5.84,11.09v16.94c0,11.36-9.3,20.66-20.66,20.66h-18.11c-11.36,0-20.66-9.3-20.66-20.66v-17.07c0-3.07,2.4-10.72,5.41-10.94.14-.09.29-.18.44-.26Z"/>
    <path class="cls-75" d="m15.44,15.42c.13-3.45,7.1-6.23,10.58-6.23h27.1c3.57,0,10.71,2.92,10.71,6.49,3.03,0,5.51,8.01,5.51,11.04v16.67c0,11.36-9.3,20.66-20.66,20.66h-18.11c-11.36,0-20.66-9.3-20.66-20.66v-16.8c0-2.9,2.26-10.68,5.11-10.89.13-.1.27-.18.42-.27h0Z"/>
    <path class="cls-23" d="m15.12,15.61c.14-3.62,7.01-6.54,10.66-6.54h27.59c3.75,0,10.78,3.06,10.78,6.81,2.85,0,5.19,8.14,5.19,10.99v16.39c0,11.36-9.3,20.66-20.66,20.66h-18.11c-11.36,0-20.66-9.3-20.66-20.66v-16.53c0-2.73,2.13-10.64,4.81-10.83.13-.1.25-.19.39-.28h0Z"/>
    <path class="cls-33" d="m14.79,15.8c.14-3.79,6.92-6.86,10.74-6.86h28.08c3.92,0,10.86,3.21,10.86,7.14,2.68,0,4.86,8.27,4.86,10.94v16.11c0,11.36-9.3,20.66-20.66,20.66h-18.11c-11.36,0-20.66-9.3-20.66-20.66v-16.26c0-2.56,2-10.59,4.51-10.78.12-.1.24-.2.37-.29h0Z"/>
    <path class="cls-17" d="m14.47,15.99c.15-3.97,6.82-7.17,10.83-7.17h28.57c4.1,0,10.94,3.36,10.94,7.46,2.5,0,4.54,8.4,4.54,10.9v15.84c0,11.36-9.3,20.66-20.66,20.66h-18.11c-11.36,0-20.66-9.3-20.66-20.66v-15.99c0-2.38,1.86-10.55,4.21-10.73.11-.11.22-.21.35-.3h-.01Z"/>
    <path class="cls-17" d="m14.15,16.18c.16-4.14,6.73-7.48,10.91-7.48h29.06c4.28,0,11.01,3.5,11.01,7.78,2.32,0,4.22,8.53,4.22,10.85v15.56c0,11.36-9.3,20.66-20.66,20.66h-18.11c-11.36,0-20.66-9.3-20.66-20.66v-15.72c0-2.21,1.73-10.51,3.91-10.67.1-.11.21-.21.32-.32Z"/>
    <path class="cls-18" d="m13.82,16.38c.16-4.31,6.64-7.79,10.99-7.79h29.55c4.46,0,11.09,3.65,11.09,8.11,2.14,0,3.89,8.66,3.89,10.8v15.28c0,11.36-9.3,20.66-20.66,20.66h-18.11c-11.36,0-20.66-9.3-20.66-20.66v-15.45c0-2.04,1.6-10.47,3.6-10.62.09-.12.19-.22.3-.33h.01Z"/>
    <path class="cls-19" d="m13.5,16.57c.17-4.48,6.55-8.1,11.07-8.1h30.04c4.64,0,11.16,3.79,11.16,8.43,1.96,0,3.57,8.79,3.57,10.75v15.01c0,11.36-9.3,20.66-20.66,20.66h-18.11c-11.36,0-20.66-9.3-20.66-20.66v-15.18c0-1.87,1.46-10.43,3.3-10.56.09-.12.17-.23.28-.34h.01Z"/>
    <path class="cls-19" d="m13.18,16.76c.18-4.66,6.46-8.41,11.16-8.41h30.53c4.82,0,11.24,3.94,11.24,8.76,1.78,0,3.24,8.92,3.24,10.7v14.73c0,11.36-9.3,20.66-20.66,20.66h-18.11c-11.36,0-20.66-9.3-20.66-20.66v-14.91c0-1.7,1.33-10.39,3-10.51.08-.12.16-.24.25-.35h.01Z"/>
    <path class="cls-12" d="m12.85,16.95c.18-4.83,6.37-8.73,11.24-8.73h31.02c4.99,0,11.32,4.09,11.32,9.08,1.61,0,2.92,9.05,2.92,10.66v14.45c0,11.36-9.3,20.66-20.66,20.66h-18.11c-11.36,0-20.66-9.3-20.66-20.66v-14.64c0-1.53,1.2-10.35,2.7-10.46.07-.13.14-.24.23-.36Z"/>
    <path class="cls-12" d="m12.53,17.15c.19-5,6.27-9.04,11.32-9.04h31.51c5.17,0,11.39,4.23,11.39,9.41,1.43,0,2.59,9.18,2.59,10.61v14.18c0,11.36-9.3,20.66-20.66,20.66h-18.11c-11.36,0-20.66-9.3-20.66-20.66v-14.38c0-1.36,1.06-10.3,2.4-10.4.06-.13.13-.25.21-.38h.01Z"/>
    <path class="cls-16" d="m12.2,17.34c.19-5.17,6.18-9.35,11.4-9.35h32c5.35,0,11.47,4.38,11.47,9.73,1.25,0,2.27,9.31,2.27,10.56v13.9c0,11.36-9.3,20.66-20.66,20.66h-18.11c-11.36,0-20.66-9.3-20.66-20.66v-14.11c0-1.19.93-10.26,2.1-10.35.06-.13.11-.26.18-.39h.01Z"/>
    <path class="cls-38" d="m11.88,17.53c.2-5.35,6.09-9.66,11.49-9.66h32.49c5.53,0,11.54,4.52,11.54,10.05,1.07,0,1.95,9.44,1.95,10.51v13.62c0,11.36-9.3,20.66-20.66,20.66h-18.11c-11.36,0-20.66-9.3-20.66-20.66v-13.84c0-1.02.8-10.22,1.8-10.29.05-.14.1-.27.16-.4h0Z"/>
    <path class="cls-38" d="m11.56,17.72c.21-5.52,6-9.97,11.57-9.97h32.98c5.71,0,11.62,4.67,11.62,10.38.89,0,1.62,9.57,1.62,10.46v13.35c0,11.36-9.3,20.66-20.66,20.66h-18.11c-11.36,0-20.66-9.3-20.66-20.66v-13.57c0-.85.67-10.18,1.5-10.24.04-.14.08-.27.14-.41Z"/>
    <path class="cls-71" d="m11.23,17.91c.21-5.69,5.91-10.28,11.65-10.28h33.47c5.89,0,11.7,4.82,11.7,10.7.71,0,1.3,9.7,1.3,10.41v13.07c0,11.36-9.3,20.66-20.66,20.66h-18.11c-11.36,0-20.66-9.3-20.66-20.66v-13.3c0-.68.53-10.14,1.2-10.19.03-.15.06-.28.11-.42h0Z"/>
    <path class="cls-42" d="m10.91,18.11c.22-5.86,5.82-10.6,11.73-10.6h33.96c6.06,0,11.77,4.96,11.77,11.03.54,0,.97,9.83.97,10.37v12.8c0,11.36-9.3,20.66-20.66,20.66h-18.11c-11.36,0-20.66-9.3-20.66-20.66v-13.03c0-.51.4-10.1.9-10.13.02-.15.05-.29.09-.43h0Z"/>
    <path class="cls-61" d="m10.59,18.3c.23-6.04,5.72-10.91,11.82-10.91h34.45c6.24,0,11.85,5.11,11.85,11.35.36,0,.65,9.96.65,10.32v12.52c0,11.36-9.3,20.66-20.66,20.66h-18.11c-11.36,0-20.66-9.3-20.66-20.66v-12.76c0-.34.27-10.05.6-10.08.02-.15.03-.3.07-.45h-.01Z"/>
    <path class="cls-30" d="m10.26,18.49c.23-6.21,5.63-11.22,11.9-11.22h34.94c6.42,0,11.92,5.25,11.92,11.68.18,0,.32,10.09.32,10.27v12.24c0,11.36-9.3,20.66-20.66,20.66h-18.11c-11.36,0-20.66-9.3-20.66-20.66v-12.49c0-.17.13-10.01.3-10.02,0-.16.02-.3.04-.46h.01Z"/>
    <path class="cls-20" d="m69.35,19.15v22.19c0,11.36-9.3,20.66-20.66,20.66h-18.11c-11.36,0-20.66-9.3-20.66-20.66v-22.19c0-.16,0-.31.02-.47.24-6.38,5.54-11.53,11.98-11.53h35.43c6.6,0,12,5.4,12,12h0Z"/>
  </g>
  <path class="cls-3" d="m69.35,19.15v8.58c-1.54-.99-3.19-1.88-4.95-2.67-1.31-.6-2.68-1.15-4.09-1.65-.47-.17-.95-.33-1.43-.49-.96-.31-1.94-.61-2.93-.88-3.46-.97-7.1-1.7-10.76-2.25-1.05-.16-2.1-.3-3.14-.43-.52-.06-1.05-.12-1.57-.18-1.05-.12-2.09-.22-3.12-.31-5.18-.46-10.2-.61-14.63-.61-3.36,0-6.37.09-8.88.2-.5.02-.98.05-1.44.07-.23,0-.45.03-.67.04-.43.02-.84.05-1.23.07-.2,0-.39.03-.57.04.24-6.38,5.54-11.53,11.98-11.53h35.43c6.6,0,12,5.4,12,12Z"/>
  <path class="cls-8" d="m35.18,28.09v4.95c0,3.53-2.89,6.41-6.41,6.41h-1.93c-3.53,0-6.41-2.88-6.41-6.41v-4.95c0-.11,0-.22.02-.33.03-.76.2-1.49.48-2.16.06-.13.12-.26.19-.39,1.18-2.08,3.73-3.53,6.68-3.53s5.56,1.48,6.72,3.6c.06.1.11.21.15.32.25.57.41,1.18.48,1.82,0,.11.02.23.02.34v.33h0Z"/>
  <path class="cls-8" d="m58.86,28.09v4.95c0,3.53-2.88,6.41-6.41,6.41h-1.93c-3.52,0-6.41-2.88-6.41-6.41v-4.95c0-.11,0-.22,0-.33h0v-.08c0-.06,0-.12,0-.18,0-.03,0-.06,0-.08.07-.61.22-1.2.44-1.75.05-.11.1-.22.16-.34,1.15-2.14,3.74-3.65,6.74-3.65s5.49,1.44,6.67,3.5c.41.78.65,1.65.7,2.58v.33h.01Z"/>
  <path class="cls-77" d="m30.02,24.73h0c2.18,0,3.95,1.77,3.95,3.96v1.61c0,2.19-1.77,3.96-3.95,3.96h0c-2.18,0-3.95-1.77-3.95-3.96v-1.61c0-2.19,1.77-3.96,3.95-3.96Z"/>
  <path class="cls-77" d="m49.41,24.73h0c2.18,0,3.95,1.77,3.95,3.96v1.61c0,2.19-1.77,3.96-3.95,3.96h0c-2.18,0-3.96-1.77-3.96-3.96v-1.61c0-2.19,1.77-3.96,3.96-3.96Z"/>
  <path class="cls-46" d="m35.17,27.76h-14.74c0-.76.18-1.49.5-2.16.06-.13.12-.26.19-.39,1.18-2.08,3.73-3.53,6.68-3.53s5.56,1.48,6.72,3.6c.06.1.11.21.15.32.28.57.44,1.18.48,1.82,0,.11.02.23.02.34Z"/>
  <g>
    <path class="cls-46" d="m43.69,39.43c0-2.23-4.04-8.1-4.04-8.1,0,0-4.04,5.87-4.04,8.1s1.81,4.04,4.04,4.04,4.04-1.81,4.04-4.04Z"/>
    <path class="cls-24" d="m43.64,39.42c0-2.21-4-8.01-4-8.01,0,0-4,5.8-4,8.01s1.79,4,4,4,4-1.79,4-4Z"/>
    <path class="cls-21" d="m43.6,39.41c0-2.18-3.95-7.92-3.95-7.92,0,0-3.95,5.74-3.95,7.92s1.77,3.95,3.95,3.95,3.95-1.77,3.95-3.95Z"/>
    <path class="cls-43" d="m43.55,39.41c0-2.16-3.91-7.83-3.91-7.83,0,0-3.91,5.67-3.91,7.83s1.75,3.91,3.91,3.91,3.91-1.75,3.91-3.91Z"/>
    <path class="cls-73" d="m43.51,39.4c0-2.13-3.87-7.74-3.87-7.74,0,0-3.87,5.61-3.87,7.74s1.73,3.87,3.87,3.87,3.87-1.73,3.87-3.87Z"/>
    <path class="cls-74" d="m43.46,39.39c0-2.11-3.82-7.65-3.82-7.65,0,0-3.82,5.54-3.82,7.65s1.71,3.82,3.82,3.82,3.82-1.71,3.82-3.82Z"/>
    <path class="cls-39" d="m43.42,39.39c0-2.09-3.78-7.56-3.78-7.56,0,0-3.78,5.48-3.78,7.56s1.69,3.78,3.78,3.78,3.78-1.69,3.78-3.78Z"/>
    <path class="cls-50" d="m43.37,39.38c0-2.06-3.73-7.47-3.73-7.47,0,0-3.73,5.41-3.73,7.47s1.67,3.73,3.73,3.73,3.73-1.67,3.73-3.73Z"/>
    <path class="cls-59" d="m43.33,39.38c0-2.04-3.69-7.38-3.69-7.38,0,0-3.69,5.35-3.69,7.38s1.65,3.69,3.69,3.69,3.69-1.65,3.69-3.69Z"/>
    <path class="cls-55" d="m43.28,39.37c0-2.01-3.64-7.3-3.64-7.3,0,0-3.64,5.28-3.64,7.3s1.63,3.64,3.64,3.64,3.64-1.63,3.64-3.64Z"/>
    <path class="cls-68" d="m43.24,39.36c0-1.99-3.6-7.21-3.6-7.21,0,0-3.6,5.22-3.6,7.21s1.61,3.6,3.6,3.6,3.6-1.61,3.6-3.6Z"/>
    <path class="cls-28" d="m43.19,39.36c0-1.96-3.55-7.12-3.55-7.12,0,0-3.55,5.15-3.55,7.12s1.59,3.55,3.55,3.55,3.55-1.59,3.55-3.55Z"/>
    <path class="cls-69" d="m43.15,39.35c0-1.94-3.51-7.03-3.51-7.03,0,0-3.51,5.09-3.51,7.03s1.57,3.51,3.51,3.51,3.51-1.57,3.51-3.51Z"/>
    <path class="cls-69" d="m43.1,39.34c0-1.91-3.46-6.94-3.46-6.94,0,0-3.46,5.02-3.46,6.94s1.55,3.46,3.46,3.46,3.46-1.55,3.46-3.46Z"/>
    <path class="cls-60" d="m43.06,39.34c0-1.89-3.42-6.85-3.42-6.85,0,0-3.42,4.96-3.42,6.85s1.53,3.42,3.42,3.42,3.42-1.53,3.42-3.42Z"/>
    <path class="cls-25" d="m43.01,39.33c0-1.86-3.37-6.76-3.37-6.76,0,0-3.37,4.89-3.37,6.76s1.51,3.37,3.37,3.37,3.37-1.51,3.37-3.37Z"/>
    <path class="cls-7" d="m42.97,39.33c0-1.84-3.33-6.67-3.33-6.67,0,0-3.33,4.83-3.33,6.67s1.49,3.33,3.33,3.33,3.33-1.49,3.33-3.33Z"/>
    <path class="cls-6" d="m42.92,39.32c0-1.81-3.28-6.58-3.28-6.58,0,0-3.28,4.76-3.28,6.58s1.47,3.28,3.28,3.28,3.28-1.47,3.28-3.28Z"/>
    <path class="cls-6" d="m42.88,39.31c0-1.79-3.24-6.49-3.24-6.49,0,0-3.24,4.7-3.24,6.49s1.45,3.24,3.24,3.24,3.24-1.45,3.24-3.24Z"/>
    <path class="cls-15" d="m42.83,39.31c0-1.76-3.19-6.4-3.19-6.4,0,0-3.19,4.64-3.19,6.4s1.43,3.19,3.19,3.19,3.19-1.43,3.19-3.19Z"/>
    <path class="cls-48" d="m42.79,39.3c0-1.74-3.15-6.31-3.15-6.31,0,0-3.15,4.57-3.15,6.31s1.41,3.15,3.15,3.15,3.15-1.41,3.15-3.15Z"/>
    <path class="cls-48" d="m42.74,39.29c0-1.71-3.1-6.22-3.1-6.22,0,0-3.1,4.51-3.1,6.22s1.39,3.1,3.1,3.1,3.1-1.39,3.1-3.1Z"/>
    <path class="cls-63" d="m42.7,39.29c0-1.69-3.06-6.13-3.06-6.13,0,0-3.06,4.44-3.06,6.13s1.37,3.06,3.06,3.06,3.06-1.37,3.06-3.06Z"/>
    <path class="cls-44" d="m42.65,39.28c0-1.67-3.02-6.04-3.02-6.04,0,0-3.02,4.38-3.02,6.04s1.35,3.02,3.02,3.02,3.02-1.35,3.02-3.02Z"/>
    <path class="cls-56" d="m42.61,39.27c0-1.64-2.97-5.95-2.97-5.95,0,0-2.97,4.31-2.97,5.95s1.33,2.97,2.97,2.97,2.97-1.33,2.97-2.97Z"/>
    <path class="cls-79" d="m42.56,39.27c0-1.62-2.93-5.86-2.93-5.86,0,0-2.93,4.25-2.93,5.86s1.31,2.93,2.93,2.93,2.93-1.31,2.93-2.93Z"/>
    <path class="cls-22" d="m42.52,39.26c0-1.59-2.88-5.77-2.88-5.77,0,0-2.88,4.18-2.88,5.77s1.29,2.88,2.88,2.88,2.88-1.29,2.88-2.88Z"/>
    <path class="cls-54" d="m42.47,39.26c0-1.57-2.84-5.68-2.84-5.68,0,0-2.84,4.12-2.84,5.68s1.27,2.84,2.84,2.84,2.84-1.27,2.84-2.84Z"/>
    <path class="cls-14" d="m42.43,39.25c0-1.54-2.79-5.59-2.79-5.59,0,0-2.79,4.05-2.79,5.59s1.25,2.79,2.79,2.79,2.79-1.25,2.79-2.79Z"/>
    <path class="cls-14" d="m42.38,39.24c0-1.52-2.75-5.5-2.75-5.5,0,0-2.75,3.99-2.75,5.5s1.23,2.75,2.75,2.75,2.75-1.23,2.75-2.75Z"/>
    <path class="cls-41" d="m42.34,39.24c0-1.49-2.7-5.41-2.7-5.41,0,0-2.7,3.92-2.7,5.41s1.21,2.7,2.7,2.7,2.7-1.21,2.7-2.7Z"/>
    <path class="cls-11" d="m42.29,39.23c0-1.47-2.66-5.32-2.66-5.32,0,0-2.66,3.86-2.66,5.32s1.19,2.66,2.66,2.66,2.66-1.19,2.66-2.66Z"/>
    <path class="cls-11" d="m42.25,39.22c0-1.44-2.61-5.23-2.61-5.23,0,0-2.61,3.79-2.61,5.23s1.17,2.61,2.61,2.61,2.61-1.17,2.61-2.61Z"/>
    <path class="cls-13" d="m42.2,39.22c0-1.42-2.57-5.15-2.57-5.15,0,0-2.57,3.73-2.57,5.15s1.15,2.57,2.57,2.57,2.57-1.15,2.57-2.57Z"/>
    <path class="cls-29" d="m42.16,39.21c0-1.39-2.52-5.06-2.52-5.06,0,0-2.52,3.66-2.52,5.06s1.13,2.52,2.52,2.52,2.52-1.13,2.52-2.52Z"/>
    <path class="cls-9" d="m42.11,39.21c0-1.37-2.48-4.97-2.48-4.97,0,0-2.48,3.6-2.48,4.97s1.11,2.48,2.48,2.48,2.48-1.11,2.48-2.48Z"/>
    <path class="cls-53" d="m42.07,39.2c0-1.34-2.43-4.88-2.43-4.88,0,0-2.43,3.53-2.43,4.88s1.09,2.43,2.43,2.43,2.43-1.09,2.43-2.43Z"/>
    <path class="cls-62" d="m42.02,39.19c0-1.32-2.39-4.79-2.39-4.79,0,0-2.39,3.47-2.39,4.79s1.07,2.39,2.39,2.39,2.39-1.07,2.39-2.39Z"/>
    <path class="cls-52" d="m41.98,39.19c0-1.29-2.34-4.7-2.34-4.7,0,0-2.34,3.4-2.34,4.7s1.05,2.34,2.34,2.34,2.34-1.05,2.34-2.34Z"/>
    <path class="cls-34" d="m41.93,39.18c0-1.27-2.3-4.61-2.3-4.61,0,0-2.3,3.34-2.3,4.61s1.03,2.3,2.3,2.3,2.3-1.03,2.3-2.3Z"/>
    <path class="cls-27" d="m41.89,39.17c0-1.25-2.26-4.52-2.26-4.52,0,0-2.26,3.27-2.26,4.52s1.01,2.26,2.26,2.26,2.26-1.01,2.26-2.26Z"/>
    <path class="cls-4" d="m41.84,39.17c0-1.22-2.21-4.43-2.21-4.43,0,0-2.21,3.21-2.21,4.43s.99,2.21,2.21,2.21,2.21-.99,2.21-2.21Z"/>
    <path class="cls-1" d="m41.8,39.16c0-1.2-2.17-4.34-2.17-4.34,0,0-2.17,3.14-2.17,4.34s.97,2.17,2.17,2.17,2.17-.97,2.17-2.17Z"/>
    <path class="cls-2" d="m41.75,39.16c0-1.17-2.12-4.25-2.12-4.25,0,0-2.12,3.08-2.12,4.25s.95,2.12,2.12,2.12,2.12-.95,2.12-2.12Z"/>
    <path class="cls-40" d="m41.71,39.15c0-1.15-2.08-4.16-2.08-4.16,0,0-2.08,3.01-2.08,4.16s.93,2.08,2.08,2.08,2.08-.93,2.08-2.08Z"/>
    <path class="cls-37" d="m41.66,39.14c0-1.12-2.03-4.07-2.03-4.07,0,0-2.03,2.95-2.03,4.07s.91,2.03,2.03,2.03,2.03-.91,2.03-2.03Z"/>
    <path class="cls-26" d="m41.62,39.14c0-1.1-1.99-3.98-1.99-3.98,0,0-1.99,2.88-1.99,3.98s.89,1.99,1.99,1.99,1.99-.89,1.99-1.99Z"/>
    <path class="cls-26" d="m41.58,39.13c0-1.07-1.94-3.89-1.94-3.89,0,0-1.94,2.82-1.94,3.89s.87,1.94,1.94,1.94,1.94-.87,1.94-1.94Z"/>
    <path class="cls-65" d="m41.53,39.12c0-1.05-1.9-3.8-1.9-3.8,0,0-1.9,2.75-1.9,3.8s.85,1.9,1.9,1.9,1.9-.85,1.9-1.9Z"/>
    <path class="cls-47" d="m41.49,39.12c0-1.02-1.85-3.71-1.85-3.71,0,0-1.85,2.69-1.85,3.71s.83,1.85,1.85,1.85,1.85-.83,1.85-1.85Z"/>
  </g>
  <circle class="cls-45" cx="27.81" cy="48.98" r="3.35"/>
  <path class="cls-46" d="m58.86,27.77h-14.74c0-.76.18-1.49.5-2.16.06-.13.12-.26.19-.39,1.18-2.08,3.73-3.53,6.68-3.53s5.56,1.48,6.72,3.6c.06.1.11.21.15.32.28.57.44,1.18.48,1.82,0,.11.02.23.02.34Z"/>
  <circle class="cls-46" cx="67.78" cy="74.85" r="2.94"/>
  <path class="cls-46" d="m20.43,33.66h14.74c0,.76-.18,1.49-.5,2.16-.06.13-.12.26-.19.39-1.18,2.08-3.73,3.53-6.68,3.53s-5.56-1.48-6.72-3.6c-.06-.1-.11-.21-.15-.32-.28-.57-.44-1.18-.48-1.82-.01-.11-.02-.23-.02-.34Z"/>
  <path class="cls-46" d="m44.12,33.66h14.74c0,.76-.18,1.49-.5,2.16-.06.13-.12.26-.19.39-1.18,2.08-3.73,3.53-6.68,3.53s-5.56-1.48-6.72-3.6c-.06-.1-.11-.21-.15-.32-.28-.57-.44-1.18-.48-1.82,0-.11-.02-.23-.02-.34Z"/>
  <path class="cls-31" d="m23.4,11.67H3.9C1.85,11.67.18,13.27.02,15.28v.09c0,.07-.02.14-.02.21,0,.06.02.12.02.18,0,1.64,1.05,3.17,2.7,3.7l8.07,2.59c2.05.66,4.26-.48,4.92-2.53v-.04h7.7c2.15,0,3.91-1.76,3.91-3.91s-1.76-3.91-3.91-3.91h0Z"/>
</svg>