<?xml version="1.0" encoding="UTF-8"?>
<svg id="Camada_1" data-name="Camada 1" xmlns="http://www.w3.org/2000/svg" xmlns:xlink="http://www.w3.org/1999/xlink" viewBox="0 0 127.15 109.63">
  <defs>
    <style>
      .cls-1 {
        fill: #fff;
      }

      .cls-2 {
        fill: #1b9dd9;
      }

      .cls-3 {
        fill: #b2b2b2;
      }

      .cls-4 {
        fill: url(#Gradiente_sem_nome_165);
      }

      .cls-5 {
        fill: #e1b479;
      }

      .cls-6 {
        fill: #29265b;
      }

      .cls-7 {
        fill: #ca9e67;
      }
    </style>
    <linearGradient id="Gradiente_sem_nome_165" data-name="Gradiente sem nome 165" x1="71.55" y1="67.34" x2="93.38" y2="105.16" gradientTransform="translate(85.14 -33.05) rotate(45)" gradientUnits="userSpaceOnUse">
      <stop offset="0" stop-color="#1e1f4b"/>
      <stop offset=".09" stop-color="#1b1d43"/>
      <stop offset="1" stop-color="#090d02"/>
    </linearGradient>
  </defs>
  <path class="cls-6" d="m96.56,65.68c-.03,1.19-.22,2.48-.56,3.84-1.43,5.63-5.51,12.4-11.61,18.5-6.6,6.6-14,10.84-19.87,11.91-.94.17-1.85.26-2.7.26l-6.92-13.41-17.48-33.89c-3.1,1.23-6.48,1.9-10.02,1.9C12.27,54.79,0,42.52,0,27.39S12.27,0,27.4,0s27.39,12.27,27.39,27.39c0,5.36-1.54,10.35-4.2,14.57l32.3,16.67,13.67,7.05Z"/>
  <path class="cls-5" d="m47.06,24.1c0,10.86-8.81,19.66-19.66,19.66-6.91,0-12.99-3.56-16.49-8.96,12.41-5.08,13.91-15.91,13.38-23.03-.3-4.01-1.23-6.84-1.23-6.84,1.39-.32,2.85-.49,4.34-.49,6.18,0,11.7,2.86,15.3,7.33,2.73,3.37,4.36,7.66,4.36,12.33Z"/>
  <rect x="109.77" y="61.87" width="20.28" height="6" rx="3" ry="3" transform="translate(-3.58 122.63) rotate(-53.48)"/>
  <path d="m23.42,6.23c.11.44.23.98.35,1.62-.12-.63-.24-1.17-.35-1.62Z"/>
  <path d="m23.42,6.23c.11.44.23.98.35,1.62-.12-.63-.24-1.17-.35-1.62Z"/>
  <path d="m42.7,11.77s-.4,3.2,1.29,4.16c.02,0,.03.02.05.03,1.27.69,2.84.26,3.73-.88.47-.6,1-1.51,1.07-2.59,0,0-2.84,3.55-6.14-.71Z"/>
  <rect class="cls-6" x="23.35" y="48.8" width="7.49" height="39.47" transform="translate(56.4 .91) rotate(45)"/>
  <circle class="cls-5" cx="9.5" cy="86.13" r="6.95"/>
  <rect class="cls-6" x="53.25" y="28.22" width="7.49" height="17.14" transform="translate(94.05 93.62) rotate(-155.95)"/>
  <circle class="cls-5" cx="64.2" cy="24.1" r="11.54"/>
  <rect class="cls-3" x="45.24" y="41.25" width="2.06" height="11.7" rx="1.03" ry="1.03"/>
  <rect class="cls-3" x="49.55" y="36.79" width="2.06" height="11.7" rx="1.03" ry="1.03"/>
  <path class="cls-7" d="m32.3,24.58c-.74-.74-4.57-1.88-4.57-1.88,0,0,1.14,3.83,1.88,4.57s1.95.74,2.69,0,.74-1.95,0-2.69Z"/>
  <path class="cls-7" d="m35.43,15.04l1.12,1.12c.82.82,1.23,1.89,1.23,2.97,0,1.07-.41,2.15-1.23,2.97-1.18,1.18-2.88,1.51-4.36,1-.43-.15-.85-.38-1.22-.68-.12-.1-.24-.2-.36-.32l-1.12-1.12c.11.11.23.22.36.32.38.3.79.52,1.22.68,1.47.51,3.18.18,4.36-1,.82-.82,1.23-1.89,1.23-2.97,0-1.07-.41-2.15-1.23-2.97Z"/>
  <path class="cls-2" d="m30.71,14.65l2.09,2.09c.87.87.87,2.27,0,3.14-.43.43-1,.65-1.57.65s-1.14-.22-1.57-.65l-2.09-2.09c-.37-.37-.58-.84-.64-1.33-.07-.65.14-1.32.64-1.82s1.17-.71,1.82-.64c.48.05.95.27,1.32.64h0Z"/>
  <ellipse class="cls-4" cx="82.46" cy="86.25" rx="25.05" ry="21.58" transform="translate(-36.84 83.57) rotate(-45)"/>
  <path class="cls-1" d="m31.85,11.55c-1.64-1.15-3.92-1-5.38.47-.23.23-.43.48-.6.75-.36.58-.56,1.22-.62,1.87-.08.96.17,1.94.74,2.76.14.19.29.38.47.55l3.02,3.02c.11.11.23.22.36.32.38.3.79.52,1.22.68,1.47.51,3.18.18,4.36-1,.82-.82,1.23-1.89,1.23-2.97s-.41-2.15-1.23-2.97l-3.02-3.02c-.17-.17-.36-.33-.55-.47h0Zm.95,5.19c.86.86.87,2.27,0,3.14-.43.43-1,.65-1.57.65s-1.14-.22-1.57-.65l-2.09-2.09c-.37-.37-.58-.84-.63-1.32-.07-.65.14-1.32.63-1.82s1.17-.71,1.82-.64c.48.05.95.26,1.32.64l2.09,2.09Z"/>
  <path class="cls-7" d="m19.93,30.53l1.12,1.12c.82.82,1.89,1.23,2.97,1.23s2.15-.41,2.97-1.23c1.18-1.18,1.51-2.88,1-4.36-.15-.43-.38-.85-.68-1.22-.1-.12-.2-.24-.32-.36l-1.12-1.12c.11.11.22.23.32.36.3.38.52.79.68,1.22.51,1.47.18,3.18-1,4.36-.82.82-1.89,1.23-2.97,1.23s-2.15-.41-2.97-1.23Z"/>
  <path class="cls-2" d="m19.54,25.82l2.09,2.09c.87.87,2.27.87,3.14,0,.43-.43.65-1,.65-1.57s-.22-1.14-.65-1.57l-2.09-2.09c-.37-.37-.84-.58-1.33-.64-.65-.07-1.32.14-1.82.64s-.71,1.17-.64,1.82c.05.48.27.95.64,1.32h0Z"/>
  <path class="cls-1" d="m16.91,27.51l3.02,3.02c.82.82,1.89,1.23,2.97,1.23s2.15-.41,2.97-1.23c1.18-1.18,1.51-2.88,1-4.36-.15-.43-.38-.85-.68-1.22-.1-.12-.2-.24-.32-.36l-3.02-3.02c-.17-.17-.36-.33-.55-.47-.82-.58-1.8-.82-2.76-.74-.65.05-1.29.26-1.87.62-.27.17-.52.37-.75.6-1.46,1.46-1.62,3.74-.47,5.38.14.19.29.38.47.55h0Zm2.63-1.7c-.37-.37-.58-.84-.64-1.32-.07-.65.14-1.32.64-1.82s1.17-.71,1.82-.63c.48.05.95.26,1.32.63l2.09,2.09c.43.43.65,1,.65,1.57s-.22,1.14-.65,1.57c-.87.87-2.27.87-3.14,0l-2.09-2.09Z"/>
  <path d="m24.29,11.77c.53,7.12-.97,17.95-13.38,23.03,0,0-4.58,1.42-7.98,0,0,0,4.68-.53,4.81-4.49v-6.21c0-9.37,6.55-17.2,15.32-19.17,1.39-.32,2.85-.49,4.34-.49,6.18,0,11.7,2.86,15.3,7.33-10.35,3.24-18.41,0-18.41,0Z"/>
  <rect x="96.46" y="91.02" width="6" height="20.28" rx="3" ry="3" transform="translate(-15.07 184.88) rotate(-81.65)"/>
  <path class="cls-1" d="m29.3,34.81h0c-1.32-.97-1.36-2.93-.08-3.95,1.54-1.23,3.9-2.66,7.14-3.43,1.45-.35,2.87.71,3.02,2.19v.02c.12,1.23-.68,2.37-1.88,2.66-2.39.57-4.07,1.6-5.13,2.44-.89.71-2.14.75-3.06.08Z"/>
</svg>