<?xml version="1.0" encoding="UTF-8"?>
<svg id="Camada_1" data-name="Camada 1" xmlns="http://www.w3.org/2000/svg" viewBox="0 0 183.32 278.81">
  <defs>
    <style>
      .cls-1 {
        fill: #c97d73;
      }

      .cls-2 {
        fill: #d9867c;
      }

      .cls-3 {
        fill: #cb7e74;
      }

      .cls-4 {
        fill: #d08177;
      }

      .cls-5 {
        fill: #fff;
      }

      .cls-6 {
        fill: #1c1d4b;
      }

      .cls-7 {
        fill: #b16f66;
      }

      .cls-8 {
        fill: #d4837a;
      }

      .cls-9 {
        fill: #c1786f;
      }

      .cls-10 {
        fill: #d8857b;
      }

      .cls-11 {
        fill: #c37970;
      }

      .cls-12 {
        fill: #c97d74;
      }

      .cls-13 {
        fill: #bd766d;
      }

      .cls-14 {
        fill: #b9736a;
      }

      .cls-15 {
        fill: #d48379;
      }

      .cls-16 {
        fill: #c2796f;
      }

      .cls-17 {
        fill: #dd887e;
      }

      .cls-18 {
        fill: #b9746b;
      }

      .cls-19 {
        fill: #cb7e75;
      }

      .cls-20 {
        fill: #cf8077;
      }

      .cls-21 {
        fill: #dc877e;
      }

      .cls-22 {
        fill: #ba746b;
      }

      .cls-23 {
        fill: #be766d;
      }

      .cls-24 {
        fill: #b06e66;
      }

      .cls-25 {
        fill: #d28279;
      }

      .cls-26 {
        fill: #cd7f75;
      }

      .cls-27 {
        fill: #b26f67;
      }

      .cls-28 {
        fill: #cc7e75;
      }

      .cls-29 {
        fill: #d8857c;
      }

      .cls-30 {
        fill: #db877d;
      }

      .cls-31 {
        fill: #c47a71;
      }

      .cls-32 {
        fill: #c87c73;
      }

      .cls-33 {
        fill: #c0786e;
      }

      .cls-34 {
        fill: #b67269;
      }

      .cls-35 {
        fill: #d7857b;
      }

      .cls-36 {
        fill: #db877e;
      }

      .cls-37 {
        fill: #b27067;
      }

      .cls-38 {
        fill: #d6847b;
      }

      .cls-39 {
        fill: #ce8076;
      }

      .cls-40 {
        fill: #d6847a;
      }

      .cls-41 {
        fill: #fab334;
      }

      .cls-42 {
        fill: #eeb98e;
      }

      .cls-43 {
        fill: #b7726a;
      }

      .cls-44 {
        fill: #b47068;
      }

      .cls-45 {
        fill: #da867d;
      }

      .cls-46 {
        fill: #d38279;
      }

      .cls-47 {
        fill: #b47168;
      }

      .cls-48 {
        fill: #bf776e;
      }

      .cls-49 {
        fill: #ca7d74;
      }

      .cls-50 {
        fill: #c57a71;
      }

      .cls-51 {
        fill: #bb746b;
      }

      .cls-52 {
        fill: #c77c72;
      }

      .cls-53 {
        fill: #cd7f76;
      }

      .cls-54 {
        fill: #b8736a;
      }

      .cls-55 {
        fill: #b57168;
      }

      .cls-56 {
        fill: #bb756c;
      }

      .cls-57 {
        fill: #ecaa32;
      }

      .cls-58 {
        fill: #d5837a;
      }

      .cls-59 {
        fill: #3ba9e0;
      }

      .cls-60 {
        fill: #d28278;
      }

      .cls-61 {
        fill: #354293;
      }

      .cls-62 {
        fill: #b37067;
      }

      .cls-63 {
        fill: #d18178;
      }

      .cls-64 {
        fill: #1d1d1b;
      }

      .cls-65 {
        fill: #bc756c;
      }

      .cls-66 {
        fill: #c27970;
      }

      .cls-67 {
        fill: #c67b72;
      }
    </style>
  </defs>
  <path class="cls-61" d="m183.32,134.91c0,2.07-.84,3.95-2.19,5.3s-3.23,2.2-5.31,2.2h-6.16v91.14H39.45v-106.14h136.37c4.15,0,7.5,3.36,7.5,7.5Z"/>
  <path class="cls-42" d="m138.25,27.06h-67.4c-16.41,0-29.98,12.77-31.3,28.85-.06.85-.1,1.7-.1,2.56v68.94h130.21V58.47c0-17.27-14.13-31.41-31.41-31.41Zm-25.27,55.34c0,.25,0,.51-.02.76-.02.43-.07.86-.13,1.28-.02.16-.05.32-.08.49-.03.19-.07.38-.11.57-.02.09-.04.18-.07.26-.67,2.09-3.44,2.66-4.98,1.01-.07-.08-.15-.16-.22-.23-1.46-1.46-3.47-2.36-5.68-2.36h-9.2c-.18,0-.36.01-.54.02-.19.01-.37.03-.56.06-.16.02-.33.05-.49.08-.17.03-.34.07-.51.12-.1.03-.2.06-.3.09-.08.02-.16.05-.24.08-.05.01-.1.03-.14.05-.1.04-.2.07-.3.12-.15.06-.31.13-.46.21-.06.02-.11.05-.17.08-1.89.99-4.2-.28-4.32-2.38-.01-.04-.01-.09-.01-.13v-14.7c0-.29,0-.57.03-.85.44-7.45,6.68-13.41,14.24-13.41s13.79,5.96,14.24,13.41c.02.28.02.56.02.85v14.52Z"/>
  <path class="cls-5" d="m112.98,67.88v14.52c0,.25,0,.51-.02.76-.02.43-.07.86-.13,1.28-.02.16-.05.32-.08.49-.03.19-.07.38-.11.57-.02.09-.04.18-.07.26-.67,2.09-3.44,2.66-4.98,1.01-.07-.08-.15-.16-.22-.23-1.46-1.46-3.47-2.36-5.68-2.36h-9.2c-.18,0-.36.01-.54.02-.19.01-.37.03-.56.06-.16.02-.33.05-.49.08-.17.03-.34.07-.51.12-.1.03-.2.06-.3.09-.08.02-.16.05-.24.08-.05.01-.1.03-.14.05-.1.04-.2.07-.3.12-.13.05-.25.1-.37.16-.03,0-.06.03-.09.05-.06.02-.11.05-.17.08-1.89.99-4.2-.28-4.32-2.38-.01-.04-.01-.09-.01-.13v-14.7c0-.29,0-.57.03-.85.44-7.45,6.68-13.41,14.24-13.41s13.79,5.96,14.24,13.41c.02.28.02.56.02.85Z"/>
  <path class="cls-59" d="m102.4,70.12v10.04c0,1.48-.43,2.86-1.17,4.02h-8.74c-1.23,0-2.4.28-3.45.78-1.08-1.3-1.73-2.98-1.73-4.8v-10.04c0-4.16,3.38-7.54,7.54-7.54s7.55,3.38,7.55,7.54Z"/>
  <path class="cls-57" d="m169.66,58.47v18.76l-61.19-30.91-54.05-3.57-14.87,13.16c1.32-16.08,14.89-28.85,31.3-28.85h67.4c17.28,0,31.41,14.14,31.41,31.41Z"/>
  <path class="cls-5" d="m63.84,106.53l.07-.42c.38-2.48,2.53-4.28,5.03-4.25,6.08.07,17.11-1.04,23.78-9.04,1.56-1.87,4.18-2.45,6.32-1.28h0c2.74,1.5,3.48,5.12,1.51,7.54-6.04,7.44-14.34,10.67-21.59,11.98-3.86.7-7.43.86-10.2.81-3.04-.05-5.32-2.79-4.85-5.79"/>
  <path class="cls-5" d="m44.83,67.88v14.52c0,.25,0,.51.02.76.02.43.07.86.13,1.28.02.16.05.32.08.49.03.19.07.38.11.57.02.09.04.18.07.26.67,2.09,3.44,2.66,4.98,1.01.07-.08.15-.16.22-.23,1.46-1.46,3.47-2.36,5.68-2.36h9.2c.18,0,.36.01.54.02.19.01.37.03.56.06.16.02.33.05.49.08.17.03.34.07.51.12.1.03.2.06.3.09.08.02.16.05.24.08.05.01.1.03.14.05.1.04.2.07.3.12.13.05.25.1.37.16.03,0,.06.03.09.05.06.02.11.05.17.08,1.89.99,4.2-.28,4.32-2.38.01-.04.01-.09.01-.13v-14.7c0-.29,0-.57-.03-.85-.44-7.45-6.68-13.41-14.24-13.41-7.56,0-13.79,5.96-14.24,13.41-.02.28-.02.56-.02.85Z"/>
  <path class="cls-59" d="m55.41,70.12v10.04c0,1.48.43,2.86,1.17,4.02h8.74c1.23,0,2.4.28,3.45.78,1.08-1.3,1.73-2.98,1.73-4.8v-10.04c0-4.16-3.38-7.54-7.54-7.54s-7.55,3.38-7.55,7.54Z"/>
  <path class="cls-41" d="m120.67,11.81c-3.57,1.49-7.49,1.57-10.94,1.1-4.74-.64-9.12-2.74-12.83-5.75-7.93-6.44-18.8-8.97-29.32-5.81-16.88,5.07-26.46,22.86-21.4,39.74,5.07,16.88,22.86,26.46,39.74,21.4,0,0,34.92-12.18,34.74-50.68Z"/>
  <g>
    <path class="cls-17" d="m79.43,91.42c.44-2.89-3.55-11.89-3.55-11.89,0,0-6.48,7.41-6.92,10.3s1.55,5.59,4.44,6.03,5.59-1.55,6.03-4.44Z"/>
    <path class="cls-21" d="m79.36,91.42c.44-2.87-3.53-11.8-3.53-11.8,0,0-6.43,7.35-6.87,10.22s1.54,5.55,4.41,5.99,5.55-1.54,5.99-4.41Z"/>
    <path class="cls-36" d="m79.29,91.42c.43-2.85-3.5-11.7-3.5-11.7,0,0-6.38,7.29-6.81,10.14s1.52,5.51,4.37,5.94,5.51-1.52,5.94-4.37Z"/>
    <path class="cls-30" d="m79.22,91.42c.43-2.83-3.47-11.61-3.47-11.61,0,0-6.33,7.23-6.76,10.06s1.51,5.46,4.34,5.89,5.46-1.51,5.89-4.34Z"/>
    <path class="cls-45" d="m79.14,91.41c.43-2.8-3.44-11.52-3.44-11.52,0,0-6.28,7.17-6.71,9.98s1.5,5.42,4.3,5.84,5.42-1.5,5.84-4.3Z"/>
    <path class="cls-45" d="m79.07,91.41c.42-2.78-3.41-11.42-3.41-11.42,0,0-6.23,7.11-6.65,9.9s1.49,5.37,4.27,5.8,5.37-1.49,5.8-4.27Z"/>
    <path class="cls-2" d="m79,91.41c.42-2.76-3.39-11.33-3.39-11.33,0,0-6.18,7.06-6.6,9.81s1.48,5.33,4.23,5.75,5.33-1.48,5.75-4.23Z"/>
    <path class="cls-29" d="m78.92,91.41c.42-2.74-3.36-11.24-3.36-11.24,0,0-6.13,7-6.54,9.73s1.46,5.29,4.2,5.7,5.29-1.46,5.7-4.2Z"/>
    <path class="cls-10" d="m78.85,91.41c.41-2.71-3.33-11.14-3.33-11.14,0,0-6.08,6.94-6.49,9.65s1.45,5.24,4.16,5.65,5.24-1.45,5.65-4.16Z"/>
    <path class="cls-35" d="m78.78,91.4c.41-2.69-3.3-11.05-3.3-11.05,0,0-6.02,6.88-6.43,9.57s1.44,5.2,4.13,5.61,5.2-1.44,5.61-4.13Z"/>
    <path class="cls-38" d="m78.7,91.4c.4-2.67-3.28-10.96-3.28-10.96,0,0-5.97,6.82-6.38,9.49s1.43,5.15,4.09,5.56,5.15-1.43,5.56-4.09Z"/>
    <path class="cls-40" d="m78.63,91.4c.4-2.64-3.25-10.86-3.25-10.86,0,0-5.92,6.76-6.32,9.41s1.41,5.11,4.06,5.51,5.11-1.41,5.51-4.06Z"/>
    <path class="cls-58" d="m78.56,91.4c.4-2.62-3.22-10.77-3.22-10.77,0,0-5.87,6.71-6.27,9.33s1.4,5.07,4.02,5.46,5.07-1.4,5.46-4.02Z"/>
    <path class="cls-8" d="m78.49,91.39c.39-2.6-3.19-10.67-3.19-10.67,0,0-5.82,6.65-6.21,9.25s1.39,5.02,3.99,5.42,5.02-1.39,5.42-3.99Z"/>
    <path class="cls-15" d="m78.41,91.39c.39-2.58-3.16-10.58-3.16-10.58,0,0-5.77,6.59-6.16,9.17-.39,2.58,1.38,4.98,3.95,5.37s4.98-1.38,5.37-3.95Z"/>
    <path class="cls-46" d="m78.34,91.39c.39-2.55-3.14-10.49-3.14-10.49,0,0-5.72,6.53-6.11,9.09s1.37,4.93,3.92,5.32,4.93-1.37,5.32-3.92Z"/>
    <path class="cls-25" d="m78.27,91.39c.38-2.53-3.11-10.39-3.11-10.39,0,0-5.67,6.47-6.05,9s1.35,4.89,3.88,5.27,4.89-1.35,5.27-3.88Z"/>
    <path class="cls-60" d="m78.19,91.39c.38-2.51-3.08-10.3-3.08-10.3,0,0-5.62,6.42-6,8.92s1.34,4.85,3.85,5.23,4.85-1.34,5.23-3.85Z"/>
    <path class="cls-63" d="m78.12,91.38c.38-2.48-3.05-10.21-3.05-10.21,0,0-5.57,6.36-5.94,8.84s1.33,4.8,3.81,5.18,4.8-1.33,5.18-3.81Z"/>
    <path class="cls-63" d="m78.05,91.38c.37-2.46-3.02-10.11-3.02-10.11,0,0-5.51,6.3-5.89,8.76-.37,2.46,1.32,4.76,3.78,5.13s4.76-1.32,5.13-3.78Z"/>
    <path class="cls-4" d="m77.98,91.38c.37-2.44-3-10.02-3-10.02,0,0-5.46,6.24-5.83,8.68s1.31,4.71,3.74,5.08,4.71-1.31,5.08-3.74Z"/>
    <path class="cls-20" d="m77.9,91.38c.37-2.42-2.97-9.93-2.97-9.93,0,0-5.41,6.18-5.78,8.6s1.29,4.67,3.71,5.04,4.67-1.29,5.04-3.71Z"/>
    <path class="cls-20" d="m77.83,91.38c.36-2.39-2.94-9.83-2.94-9.83,0,0-5.36,6.12-5.72,8.52s1.28,4.63,3.67,4.99,4.63-1.28,4.99-3.67Z"/>
    <path class="cls-39" d="m77.76,91.37c.36-2.37-2.91-9.74-2.91-9.74,0,0-5.31,6.07-5.67,8.44s1.27,4.58,3.64,4.94,4.58-1.27,4.94-3.64Z"/>
    <path class="cls-53" d="m77.68,91.37c.36-2.35-2.88-9.65-2.88-9.65,0,0-5.26,6.01-5.62,8.36s1.26,4.54,3.6,4.89,4.54-1.26,4.89-3.6Z"/>
    <path class="cls-26" d="m77.61,91.37c.35-2.33-2.86-9.55-2.86-9.55,0,0-5.21,5.95-5.56,8.27s1.24,4.49,3.57,4.85,4.49-1.24,4.85-3.57Z"/>
    <path class="cls-28" d="m77.54,91.37c.35-2.3-2.83-9.46-2.83-9.46,0,0-5.16,5.89-5.51,8.19s1.23,4.45,3.53,4.8,4.45-1.23,4.8-3.53Z"/>
    <path class="cls-19" d="m77.47,91.37c.35-2.28-2.8-9.36-2.8-9.36,0,0-5.11,5.83-5.45,8.11s1.22,4.41,3.5,4.75,4.41-1.22,4.75-3.5Z"/>
    <path class="cls-3" d="m77.39,91.36c.34-2.26-2.77-9.27-2.77-9.27,0,0-5.06,5.77-5.4,8.03s1.21,4.36,3.46,4.7,4.36-1.21,4.7-3.46Z"/>
    <path class="cls-49" d="m77.32,91.36c.34-2.23-2.74-9.18-2.74-9.18,0,0-5,5.72-5.34,7.95s1.2,4.32,3.43,4.66,4.32-1.2,4.66-3.43Z"/>
    <path class="cls-12" d="m77.25,91.36c.34-2.21-2.72-9.08-2.72-9.08,0,0-4.95,5.66-5.29,7.87s1.18,4.27,3.39,4.61,4.27-1.18,4.61-3.39Z"/>
    <path class="cls-1" d="m77.17,91.36c.33-2.19-2.69-8.99-2.69-8.99,0,0-4.9,5.6-5.23,7.79s1.17,4.23,3.36,4.56,4.23-1.17,4.56-3.36Z"/>
    <path class="cls-32" d="m77.1,91.36c.33-2.17-2.66-8.9-2.66-8.9,0,0-4.85,5.54-5.18,7.71s1.16,4.19,3.32,4.51,4.19-1.16,4.51-3.32Z"/>
    <path class="cls-32" d="m77.03,91.35c.33-2.14-2.63-8.8-2.63-8.8,0,0-4.8,5.48-5.13,7.63s1.15,4.14,3.29,4.47,4.14-1.15,4.47-3.29Z"/>
    <path class="cls-52" d="m76.95,91.35c.32-2.12-2.6-8.71-2.6-8.71,0,0-4.75,5.42-5.07,7.54s1.13,4.1,3.25,4.42,4.1-1.13,4.42-3.25Z"/>
    <path class="cls-67" d="m76.88,91.35c.32-2.1-2.58-8.62-2.58-8.62,0,0-4.7,5.37-5.02,7.46s1.12,4.05,3.22,4.37,4.05-1.12,4.37-3.22Z"/>
    <path class="cls-67" d="m76.81,91.35c.31-2.07-2.55-8.52-2.55-8.52,0,0-4.65,5.31-4.96,7.38s1.11,4.01,3.18,4.32,4.01-1.11,4.32-3.18Z"/>
    <path class="cls-50" d="m76.74,91.34c.31-2.05-2.52-8.43-2.52-8.43,0,0-4.6,5.25-4.91,7.3s1.1,3.97,3.15,4.28,3.97-1.1,4.28-3.15Z"/>
    <path class="cls-31" d="m76.66,91.34c.31-2.03-2.49-8.34-2.49-8.34,0,0-4.54,5.19-4.85,7.22s1.09,3.92,3.11,4.23,3.92-1.09,4.23-3.11Z"/>
    <path class="cls-31" d="m76.59,91.34c.3-2.01-2.46-8.24-2.46-8.24,0,0-4.49,5.13-4.8,7.14s1.07,3.88,3.08,4.18,3.88-1.07,4.18-3.08Z"/>
    <path class="cls-11" d="m76.52,91.34c.3-1.98-2.44-8.15-2.44-8.15,0,0-4.44,5.07-4.74,7.06s1.06,3.83,3.04,4.13,3.83-1.06,4.13-3.04Z"/>
    <path class="cls-66" d="m76.44,91.34c.3-1.96-2.41-8.05-2.41-8.05,0,0-4.39,5.02-4.69,6.98s1.05,3.79,3.01,4.09,3.79-1.05,4.09-3.01Z"/>
    <path class="cls-16" d="m76.37,91.33c.29-1.94-2.38-7.96-2.38-7.96,0,0-4.34,4.96-4.63,6.9s1.04,3.75,2.97,4.04,3.75-1.04,4.04-2.97Z"/>
    <path class="cls-9" d="m76.3,91.33c.29-1.92-2.35-7.87-2.35-7.87,0,0-4.29,4.9-4.58,6.81s1.02,3.7,2.94,3.99,3.7-1.02,3.99-2.94Z"/>
    <path class="cls-9" d="m76.23,91.33c.29-1.89-2.32-7.77-2.32-7.77,0,0-4.24,4.84-4.53,6.73s1.01,3.66,2.9,3.94,3.66-1.01,3.94-2.9Z"/>
    <path class="cls-33" d="m76.15,91.33c.28-1.87-2.3-7.68-2.3-7.68,0,0-4.19,4.78-4.47,6.65s1,3.61,2.87,3.9,3.61-1,3.9-2.87Z"/>
    <path class="cls-48" d="m76.08,91.33c.28-1.85-2.27-7.59-2.27-7.59,0,0-4.14,4.72-4.42,6.57s.99,3.57,2.84,3.85,3.57-.99,3.85-2.84Z"/>
    <path class="cls-48" d="m76.01,91.32c.28-1.82-2.24-7.49-2.24-7.49,0,0-4.09,4.67-4.36,6.49s.98,3.53,2.8,3.8,3.53-.98,3.8-2.8Z"/>
    <path class="cls-23" d="m75.93,91.32c.27-1.8-2.21-7.4-2.21-7.4,0,0-4.03,4.61-4.31,6.41s.96,3.48,2.77,3.75,3.48-.96,3.75-2.77Z"/>
    <path class="cls-13" d="m75.86,91.32c.27-1.78-2.18-7.31-2.18-7.31,0,0-3.98,4.55-4.25,6.33s.95,3.44,2.73,3.71,3.44-.95,3.71-2.73Z"/>
    <path class="cls-13" d="m75.79,91.32c.27-1.76-2.16-7.21-2.16-7.21,0,0-3.93,4.49-4.2,6.25s.94,3.39,2.7,3.66,3.39-.94,3.66-2.7Z"/>
    <path class="cls-65" d="m75.72,91.32c.26-1.73-2.13-7.12-2.13-7.12,0,0-3.88,4.43-4.14,6.17s.93,3.35,2.66,3.61,3.35-.93,3.61-2.66Z"/>
    <path class="cls-56" d="m75.64,91.31c.26-1.71-2.1-7.02-2.1-7.02,0,0-3.83,4.38-4.09,6.09s.92,3.31,2.63,3.56,3.31-.92,3.56-2.63Z"/>
    <path class="cls-51" d="m75.57,91.31c.26-1.69-2.07-6.93-2.07-6.93,0,0-3.78,4.32-4.04,6s.9,3.26,2.59,3.52,3.26-.9,3.52-2.59Z"/>
    <path class="cls-22" d="m75.5,91.31c.25-1.66-2.04-6.84-2.04-6.84,0,0-3.73,4.26-3.98,5.92s.89,3.22,2.56,3.47,3.22-.89,3.47-2.56Z"/>
    <path class="cls-18" d="m75.42,91.31c.25-1.64-2.02-6.74-2.02-6.74,0,0-3.68,4.2-3.93,5.84s.88,3.17,2.52,3.42,3.17-.88,3.42-2.52Z"/>
    <path class="cls-14" d="m75.35,91.31c.25-1.62-1.99-6.65-1.99-6.65,0,0-3.63,4.14-3.87,5.76s.87,3.13,2.49,3.37,3.13-.87,3.37-2.49Z"/>
    <path class="cls-54" d="m75.28,91.3c.24-1.6-1.96-6.56-1.96-6.56,0,0-3.58,4.08-3.82,5.68s.85,3.08,2.45,3.33,3.08-.85,3.33-2.45Z"/>
    <path class="cls-43" d="m75.2,91.3c.24-1.57-1.93-6.46-1.93-6.46,0,0-3.52,4.03-3.76,5.6s.84,3.04,2.42,3.28,3.04-.84,3.28-2.42Z"/>
    <path class="cls-34" d="m75.13,91.3c.24-1.55-1.9-6.37-1.9-6.37,0,0-3.47,3.97-3.71,5.52s.83,3,2.38,3.23,3-.83,3.23-2.38Z"/>
    <path class="cls-34" d="m75.06,91.3c.23-1.53-1.88-6.28-1.88-6.28,0,0-3.42,3.91-3.65,5.44s.82,2.95,2.35,3.18,2.95-.82,3.18-2.35Z"/>
    <path class="cls-55" d="m74.99,91.29c.23-1.51-1.85-6.18-1.85-6.18,0,0-3.37,3.85-3.6,5.36s.81,2.91,2.31,3.14,2.91-.81,3.14-2.31Z"/>
    <path class="cls-47" d="m74.91,91.29c.22-1.48-1.82-6.09-1.82-6.09,0,0-3.32,3.79-3.54,5.27s.79,2.86,2.28,3.09,2.86-.79,3.09-2.28Z"/>
    <path class="cls-44" d="m74.84,91.29c.22-1.46-1.79-6-1.79-6,0,0-3.27,3.73-3.49,5.19s.78,2.82,2.24,3.04,2.82-.78,3.04-2.24Z"/>
    <path class="cls-62" d="m74.77,91.29c.22-1.44-1.76-5.9-1.76-5.9,0,0-3.22,3.68-3.44,5.11s.77,2.78,2.21,2.99,2.78-.77,2.99-2.21Z"/>
    <path class="cls-37" d="m74.69,91.29c.21-1.41-1.74-5.81-1.74-5.81,0,0-3.17,3.62-3.38,5.03s.76,2.73,2.17,2.95,2.73-.76,2.95-2.17Z"/>
    <path class="cls-27" d="m74.62,91.28c.21-1.39-1.71-5.71-1.71-5.71,0,0-3.12,3.56-3.33,4.95s.74,2.69,2.14,2.9,2.69-.74,2.9-2.14Z"/>
    <path class="cls-7" d="m74.55,91.28c.21-1.37-1.68-5.62-1.68-5.62,0,0-3.06,3.5-3.27,4.87s.73,2.64,2.1,2.85,2.64-.73,2.85-2.1Z"/>
    <path class="cls-24" d="m74.48,91.28c.2-1.35-1.65-5.53-1.65-5.53,0,0-3.01,3.44-3.22,4.79s.72,2.6,2.07,2.8,2.6-.72,2.8-2.07Z"/>
  </g>
  <path class="cls-6" d="m39.45,233.55h130.21v11.83c0,12.11-9.83,21.94-21.94,21.94H61.39c-12.11,0-21.94-9.83-21.94-21.94v-11.83h0Z"/>
  <rect class="cls-64" x="5" y="226.16" width="11.52" height="40.51" rx="5.76" ry="5.76" transform="translate(-84.29 18.82) rotate(-20.17)"/>
  <rect class="cls-64" x="63.14" y="239.18" width="11.52" height="40.51" rx="5.76" ry="5.76" transform="translate(-85.22 39.66) rotate(-20.17)"/>
  <path class="cls-42" d="m170.8,278.8h-13.78c-1.43,0-2.81-.48-3.93-1.37l-13-10.29c-2.74-2.17-3.2-6.15-1.03-8.89h0c2.17-2.74,6.15-3.2,8.89-1.03l9.54,7.56c1.12.89,2.5,1.37,3.93,1.37h9.38c3.5,0,6.33,2.83,6.33,6.33h0c0,3.5-2.83,6.33-6.33,6.33Z"/>
  <path class="cls-5" d="m55.78,138.52h0c1.83,0,3.31,1.48,3.31,3.31v20.16c0,1.83-1.48,3.31-3.31,3.31h0c-1.83,0-3.31-1.48-3.31-3.31v-20.16c0-1.83,1.48-3.31,3.31-3.31Z"/>
  <path class="cls-5" d="m72.03,138.52h0c1.83,0,3.31,1.48,3.31,3.31v20.16c0,1.83-1.48,3.31-3.31,3.31h0c-1.83,0-3.31-1.48-3.31-3.31v-20.16c0-1.83,1.48-3.31,3.31-3.31Z"/>
</svg>