<?xml version="1.0" encoding="UTF-8"?>
<svg id="Camada_1" data-name="Camada 1" xmlns="http://www.w3.org/2000/svg" viewBox="0 0 129.69 249.35">
  <defs>
    <style>
      .cls-1 {
        fill: #fff;
      }

      .cls-2 {
        fill: #662483;
      }

      .cls-3 {
        fill: #634e42;
      }

      .cls-4 {
        fill: #683c11;
      }

      .cls-5 {
        fill: #432918;
      }

      .cls-6 {
        fill: #936037;
      }
    </style>
  </defs>
  <path class="cls-2" d="m27.54,83.83h74.61c15.2,0,27.54,12.34,27.54,27.54v137.98H0V111.37c0-15.2,12.34-27.54,27.54-27.54h0Z"/>
  <path class="cls-6" d="m127.51,47.46c0,4.7-3.81,8.52-8.52,8.52h-.16v27.45c0,13.51-11.06,24.57-24.57,24.57h-58.86c-13.51,0-24.57-11.06-24.57-24.57v-27.45c-4.63-.09-8.36-3.87-8.36-8.52s3.72-8.43,8.36-8.52v-14.37c0-1.76.19-3.48.55-5.14C13.77,8.36,23.67,0,35.41,0h58.86c11.75,0,21.64,8.36,24.02,19.42.36,1.66.55,3.38.55,5.14v14.37h.16c4.7,0,8.52,3.81,8.52,8.52Z"/>
  <path class="cls-3" d="m42.26,41.54v8.32c0,3.06,2.45,6.11,5.48,6.53,2.13.3,4.09-.45,5.45-1.81,1.16-1.16,1.88-2.76,1.88-4.52v-8.52c0-1.51-.53-2.89-1.4-3.99-1.17-1.47-2.98-2.41-5-2.41s-3.83.94-5,2.41c-.87,1.1-1.4,2.49-1.4,3.99h0Z"/>
  <path class="cls-1" d="m57.46,37.54c-1-5.68-5.95-10.01-11.92-10.01h0c-5.98,0-10.93,4.32-11.92,10.01-.13.67-.19,1.38-.19,2.09v12.32c0,.33.02.66.04.99.35,4.35,4.93,6.82,8.95,5.12.96-.41,2.01-.63,3.11-.63s2.16.23,3.11.63c4.02,1.7,8.59-.77,8.95-5.12.02-.33.04-.66.04-.99v-12.32c0-.71-.06-1.42-.18-2.09h.02Zm-2.41,12.51c0,1.76-.71,3.36-1.87,4.52s-2.76,1.87-4.52,1.87c-3.54,0-6.41-2.87-6.41-6.4v-8.52c0-1.51.53-2.89,1.4-4,1.18-1.47,2.98-2.41,5.01-2.41s3.83.94,4.99,2.41c.89,1.11,1.4,2.49,1.4,4v8.52Z"/>
  <path class="cls-4" d="m71.61,72.01h-13.84c-1.73,0-3.12-1.4-3.12-3.12h0c0-1.73,1.4-3.12,3.12-3.12h3.8v-13.52c0-1.73,1.4-3.12,3.12-3.12h0c1.73,0,3.12,1.4,3.12,3.12v13.52h3.8c1.73,0,3.12,1.4,3.12,3.12h0c0,1.73-1.4,3.12-3.12,3.12h0Z"/>
  <path class="cls-3" d="m75.43,41.54v8.32c0,3.06,2.45,6.11,5.48,6.53,2.13.3,4.09-.45,5.45-1.81,1.16-1.16,1.88-2.76,1.88-4.52v-8.52c0-1.51-.53-2.89-1.4-3.99-1.17-1.47-2.98-2.41-5-2.41s-3.83.94-5,2.41c-.87,1.1-1.4,2.49-1.4,3.99h0Z"/>
  <path class="cls-1" d="m73.02,39.63v12.32c0,.34.02.67.04.99.35,4.35,4.93,6.82,8.95,5.12.96-.41,2.01-.63,3.11-.63s2.16.23,3.11.63c4.02,1.7,8.6-.77,8.95-5.12.02-.33.04-.66.04-.99v-12.32c0-.71-.06-1.42-.19-2.09-.99-5.68-5.94-10.01-11.92-10.01h0c-5.97,0-10.92,4.32-11.92,10.01-.12.67-.18,1.38-.18,2.09h.02Zm2.59,1.91c0-1.51.52-2.89,1.4-4,1.16-1.47,2.97-2.41,4.99-2.41s3.83.94,5.01,2.41c.87,1.11,1.4,2.49,1.4,4v8.52c0,3.53-2.86,6.4-6.41,6.4-1.76,0-3.36-.71-4.52-1.87s-1.87-2.76-1.87-4.52c0,0,0-8.52,0-8.52Z"/>
  <path class="cls-1" d="m66.06,86.36c-6.16,0-11.9-2.26-16.11-4.83-2.01-1.23-2.42-3.98-.91-5.79l.06-.08c1.24-1.48,3.37-1.82,5.03-.82,4.38,2.65,13.28,6.45,21.53.45,1.54-1.11,3.66-.93,5,.42l.05.05c1.67,1.67,1.51,4.45-.39,5.85-4.67,3.44-9.59,4.74-14.26,4.74h0Z"/>
  <path class="cls-5" d="m118.44,19.42H11.55C13.93,8.36,23.82,0,35.57,0h58.86c11.75,0,21.64,8.36,24.02,19.42Z"/>
  <path class="cls-5" d="m58.46,91.24h13.08c1.36,0,2.2,1.47,1.51,2.64l-4.21,7.11c-1.73,2.92-5.94,2.92-7.67,0l-4.21-7.11c-.69-1.17.15-2.64,1.51-2.64Z"/>
</svg>