<?xml version="1.0" encoding="UTF-8"?>
<svg id="Camada_1" data-name="Camada 1" xmlns="http://www.w3.org/2000/svg" viewBox="0 0 282.4 364.28">
  <defs>
    <style>
      .cls-1 {
        fill: #fff;
      }

      .cls-2 {
        fill: #36a9e1;
      }

      .cls-3 {
        fill: #dd887e;
      }

      .cls-4 {
        fill: #344093;
      }

      .cls-5 {
        fill: #eeb98e;
      }

      .cls-6 {
        fill: #f9b233;
      }

      .cls-7 {
        fill: #1d1d1b;
      }
    </style>
  </defs>
  <path class="cls-5" d="m241.48,97.83v-26.11c0-19.49-15.94-35.43-35.43-35.43h-105.71c-19.49,0-35.43,15.94-35.43,35.43v26.11s0,0,0,0c-7.83,0-14.17,6.34-14.17,14.17s6.34,14.17,14.17,14.17c0,0,0,0,0,0v61.55h176.57v-61.55c7.83,0,14.17-6.34,14.17-14.17s-6.34-14.17-14.17-14.17Z"/>
  <path class="cls-6" d="m126.95,36.28l-62.04,61.54v-26.11c0-19.49,15.94-35.43,35.43-35.43h26.61Z"/>
  <path class="cls-6" d="m179.44,36.28l62.04,61.54v-26.11c0-19.49-15.94-35.43-35.43-35.43h-26.61Z"/>
  <rect class="cls-1" x="167.98" y="81.91" width="38.79" height="58.52" rx="19.39" ry="19.39"/>
  <rect class="cls-2" x="172.12" y="94.09" width="20.52" height="34.16" rx="10.26" ry="10.26"/>
  <path class="cls-1" d="m145.67,101.3v19.74c0,5.33-2.18,10.18-5.69,13.7-3.52,3.51-8.36,5.69-13.7,5.69-10.67,0-19.4-8.72-19.4-19.39v-19.74c0-.39,0-.77.04-1.15.6-10.13,9.08-18.24,19.36-18.24s18.75,8.11,19.35,18.24c.03.38.04.76.04,1.15Z"/>
  <path class="cls-3" d="m165.38,139.17c0-4.73-8.56-18.13-8.56-18.13,0,0-8.56,13.4-8.56,18.13s3.83,8.56,8.56,8.56,8.56-3.83,8.56-8.56Z"/>
  <rect class="cls-2" x="121.02" y="94.09" width="20.52" height="34.16" rx="10.26" ry="10.26"/>
  <path class="cls-4" d="m254.75,203.04c0-7.73-5.8-14.15-13.27-15.17v-.16H64.91v.16c-7.46,1.02-13.27,7.44-13.27,15.17s5.8,14.15,13.27,15.17v146.07h176.57v-146.07c7.46-1.02,13.27-7.44,13.27-15.17Z"/>
  <rect class="cls-1" x="124.38" y="218.14" width="11.74" height="47.49" rx="5.87" ry="5.87"/>
  <rect class="cls-1" x="171" y="218.14" width="11.74" height="47.49" rx="5.87" ry="5.87"/>
  <circle class="cls-5" cx="25.82" cy="338.46" r="25.82"/>
  <path class="cls-7" d="m243.18,96.77l-33.83,21.45v14.84c0,6.47-4.4,11.78-9.86,11.99-.11,0-.23,0-.34,0h-29.45c-.59,0-1.18-.06-1.75-.18-3.38-.69-6.2-3.37-7.56-6.96-.57-1.49-.89-3.13-.89-4.86v-7.67h-7.28v7.67c0,6.6-4.58,12-10.19,12h-29.45c-.6,0-1.19-.06-1.76-.18-3.38-.69-6.2-3.37-7.56-6.96-.57-1.49-.88-3.13-.88-4.86v-16.15c0-.07,0-.14,0-.21l-40.38-19.2c-1.58-.75-2.34-2.45-1.7-3.79.64-1.35,2.43-1.83,4.01-1.08l39.26,18.66c1.72-3.79,5.11-6.38,9-6.38h29.45c3.72,0,6.99,2.37,8.76,5.9.92,1.79,1.43,3.88,1.43,6.1v3.48h7.28v-3.48c0-6.6,4.59-12,10.2-12h29.45c3.72,0,7,2.37,8.76,5.9.25.49.46,1,.65,1.53l31.74-20.12c1.32-.84,3.03-.49,3.83.76.79,1.26.37,2.96-.95,3.79Z"/>
  <path class="cls-1" d="m124.58,104.91l-13.76,39.97c-3.38-.69-6.2-3.37-7.56-6.96l11.36-33.01h9.96Z"/>
  <path class="cls-1" d="m150.79,110.81l-11.79,34.25h-20.17l13.82-40.15h9.38c3.72,0,6.99,2.37,8.76,5.9Z"/>
  <path class="cls-1" d="m209.34,116.45l-9.85,28.6h0s-20.17,0-20.17,0l13.81-40.15h6.02c3.72,0,7,2.37,8.76,5.9.86,1.67,1.37,3.59,1.43,5.64Z"/>
  <path class="cls-3" d="m145.63,100.15h-38.71c.6-10.13,9.08-18.24,19.36-18.24s18.75,8.11,19.35,18.24Z"/>
  <path class="cls-6" d="m212.8,17.44c-5.27,2.2-11.06,2.31-16.15,1.63-6.99-.94-13.46-4.04-18.93-8.48-11.7-9.5-27.75-13.24-43.28-8.58-24.92,7.48-39.06,33.74-31.58,58.65,7.48,24.92,33.74,39.06,58.66,31.58,0,0,51.54-17.98,51.28-74.8Z"/>
  <path class="cls-3" d="m206.73,96.15h-38.71c.6-10.13,9.08-18.24,19.36-18.24s18.75,8.11,19.35,18.24Z"/>
  <path class="cls-1" d="m141.68,161.17l.14-.4c.82-2.37,3.25-3.76,5.71-3.28,5.97,1.15,17.02,2.03,25.01-4.65,1.87-1.56,4.55-1.66,6.45-.13h0c2.43,1.96,2.51,5.66.14,7.69-7.27,6.24-16.01,7.94-23.38,7.94-3.92,0-7.46-.48-10.18-1.02-2.98-.59-4.74-3.69-3.74-6.56"/>
  <path class="cls-5" d="m256.58,213.99c-5.4,0-10.41,1.66-14.55,4.49l-3.74-8.59c-2.3-5.28-8.5-7.72-13.78-5.42-5.28,2.3-7.72,8.5-5.42,13.78l12.41,28.51.19-.08c3.01,10.93,13.01,18.96,24.89,18.96,14.26,0,25.82-11.56,25.82-25.82s-11.56-25.82-25.82-25.82Z"/>
</svg>