<?xml version="1.0" encoding="UTF-8"?>
<svg id="Camada_1" data-name="Camada 1" xmlns="http://www.w3.org/2000/svg" xmlns:xlink="http://www.w3.org/1999/xlink" viewBox="0 0 835.77 179.08">
  <defs>
    <style>
      .cls-1 {
        fill: #fff;
      }

      .cls-2 {
        isolation: isolate;
      }

      .cls-3 {
        fill: url(#Gradiente_sem_nome_3);
      }

      .cls-4 {
        fill: url(#Gradiente_sem_nome_7);
      }

      .cls-5 {
        fill: #1d1d1b;
      }
    </style>
    <linearGradient id="Gradiente_sem_nome_7" data-name="Gradiente sem nome 7" x1="0" y1="138.85" x2="835.77" y2="138.85" gradientUnits="userSpaceOnUse">
      <stop offset="0" stop-color="#fff"/>
      <stop offset=".95" stop-color="#fff"/>
      <stop offset="1" stop-color="#fff"/>
    </linearGradient>
    <linearGradient id="Gradiente_sem_nome_3" data-name="Gradiente sem nome 3" x1="7.85" y1="138.85" x2="662" y2="138.85" gradientUnits="userSpaceOnUse">
      <stop offset="0" stop-color="#1ebcef"/>
      <stop offset="1" stop-color="#1057a4"/>
    </linearGradient>
  </defs>
  <path class="cls-4" d="m40.23,179.08c-22.18,0-40.23-18.05-40.23-40.23s18.05-40.23,40.23-40.23h755.31c22.18,0,40.23,18.05,40.23,40.23s-18.05,40.23-40.23,40.23H40.23Z"/>
  <path class="cls-5" d="m40.23,106.47h755.31c17.88,0,32.38,14.5,32.38,32.38h0c0,17.88-14.5,32.38-32.38,32.38H40.23c-17.88,0-32.38-14.5-32.38-32.38h0c0-17.88,14.5-32.38,32.38-32.38Z"/>
  <path class="cls-3" d="m36.56,106.47h596.72c15.86,0,28.71,14.5,28.71,32.38h0c0,17.88-12.86,32.38-28.71,32.38H36.56c-15.86,0-28.71-14.5-28.71-32.38h0c0-17.88,12.86-32.38,28.71-32.38Z"/>
  <g class="cls-2">
    <g class="cls-2">
      <path class="cls-1" d="m13.79,60.03V2.07h21.69c4.64,0,8.49.8,11.55,2.4,3.06,1.6,5.34,3.74,6.83,6.42,1.49,2.68,2.24,5.64,2.24,8.9s-.73,5.98-2.19,8.65c-1.46,2.68-3.73,4.83-6.79,6.46-3.06,1.63-7,2.44-11.8,2.44h-10.35v22.69h-11.18Zm11.18-30.8h9.77c3.42,0,5.93-.83,7.53-2.48,1.6-1.66,2.4-3.84,2.4-6.54s-.79-4.84-2.36-6.42-4.1-2.36-7.58-2.36h-9.77v17.8Zm18.88,30.8l-11.92-25.5h12.09l12.59,25.5h-12.75Z"/>
    </g>
    <g class="cls-2">
      <path class="cls-1" d="m83.59,61.02c-4.2,0-7.91-.91-11.14-2.73-3.23-1.82-5.74-4.35-7.53-7.58-1.79-3.23-2.69-6.94-2.69-11.14s.9-8.2,2.69-11.51c1.79-3.31,4.29-5.93,7.49-7.87,3.2-1.93,6.93-2.9,11.18-2.9s7.75.91,10.85,2.73c3.09,1.82,5.49,4.26,7.2,7.33,1.71,3.06,2.57,6.58,2.57,10.56,0,.55-.01,1.17-.04,1.86-.03.69-.07,1.39-.12,2.11h-33.78v-6.87h22.69c-.17-2.59-1.12-4.69-2.86-6.29-1.74-1.6-3.88-2.4-6.42-2.4-1.93,0-3.68.46-5.26,1.37-1.57.91-2.83,2.24-3.77,3.97-.94,1.74-1.41,3.93-1.41,6.58v2.4c0,2.26.43,4.24,1.28,5.92.85,1.68,2.06,3,3.6,3.93,1.54.94,3.34,1.41,5.38,1.41s3.79-.43,5.09-1.28c1.3-.86,2.3-2,3.02-3.44h11.34c-.72,2.6-2,4.96-3.85,7.08-1.85,2.13-4.09,3.78-6.71,4.97-2.62,1.19-5.56,1.78-8.82,1.78Z"/>
      <path class="cls-1" d="m127.48,61.02c-3.42,0-6.27-.57-8.53-1.7-2.26-1.13-3.96-2.65-5.09-4.55-1.13-1.9-1.7-4.02-1.7-6.33,0-2.59.65-4.86,1.95-6.79,1.3-1.93,3.27-3.44,5.92-4.51,2.65-1.08,6.02-1.61,10.1-1.61h10.18c0-2.1-.26-3.81-.79-5.13-.53-1.32-1.38-2.32-2.57-2.98-1.19-.66-2.75-.99-4.68-.99-2.1,0-3.88.44-5.34,1.33-1.46.88-2.36,2.29-2.69,4.22h-10.85c.28-3.04,1.25-5.63,2.94-7.78,1.68-2.15,3.92-3.84,6.71-5.05,2.79-1.21,5.89-1.82,9.31-1.82,3.92,0,7.33.65,10.23,1.95,2.9,1.3,5.1,3.2,6.62,5.71,1.52,2.51,2.28,5.56,2.28,9.15v25.92h-9.36l-1.24-6.38c-.61,1.11-1.34,2.1-2.19,2.98-.86.88-1.85,1.66-2.98,2.32-1.13.66-2.36,1.17-3.68,1.53-1.32.36-2.84.54-4.55.54Zm2.73-8.61c1.38,0,2.64-.26,3.77-.79,1.13-.52,2.11-1.25,2.94-2.19.83-.94,1.49-1.99,1.99-3.15.5-1.16.83-2.43.99-3.81v-.08h-8.53c-1.77,0-3.19.21-4.26.62-1.08.41-1.86,1.01-2.36,1.78-.5.77-.75,1.66-.75,2.65,0,1.05.25,1.95.75,2.69.5.75,1.23,1.31,2.19,1.7.97.39,2.06.58,3.27.58Z"/>
      <path class="cls-1" d="m180.38,61.02c-3.81,0-7.22-.94-10.23-2.81-3.01-1.88-5.37-4.47-7.08-7.78-1.71-3.31-2.57-7.04-2.57-11.18s.85-8.02,2.57-11.3c1.71-3.28,4.11-5.88,7.2-7.78,3.09-1.9,6.54-2.86,10.35-2.86,3.04,0,5.67.55,7.91,1.66,2.24,1.1,4.04,2.68,5.42,4.72V.41h11.18v59.62h-9.94l-1.24-5.8c-.88,1.27-1.95,2.42-3.19,3.44-1.24,1.02-2.71,1.83-4.39,2.44-1.68.61-3.68.91-6,.91Zm2.65-9.77c2.26,0,4.22-.51,5.88-1.53,1.66-1.02,2.95-2.44,3.89-4.26.94-1.82,1.41-3.95,1.41-6.38s-.47-4.47-1.41-6.29c-.94-1.82-2.25-3.23-3.93-4.22-1.68-.99-3.66-1.49-5.92-1.49-2.1,0-3.99.51-5.67,1.53-1.68,1.02-3,2.44-3.93,4.26-.94,1.82-1.41,3.89-1.41,6.21s.47,4.54,1.41,6.33c.94,1.79,2.25,3.22,3.93,4.26,1.68,1.05,3.6,1.57,5.75,1.57Z"/>
      <path class="cls-1" d="m221.87,12.59c-2.04,0-3.7-.59-4.97-1.78-1.27-1.19-1.9-2.69-1.9-4.51s.63-3.33,1.9-4.51c1.27-1.19,2.93-1.78,4.97-1.78s3.71.59,5.01,1.78c1.3,1.19,1.95,2.69,1.95,4.51s-.65,3.33-1.95,4.51c-1.3,1.19-2.97,1.78-5.01,1.78Zm-5.63,47.44V18.3h11.18v41.73h-11.18Z"/>
      <path class="cls-1" d="m238.67,60.03V18.3h9.85l.75,6.87c1.33-2.43,3.16-4.35,5.51-5.75,2.35-1.41,5.15-2.11,8.4-2.11,3.48,0,6.4.73,8.78,2.19,2.37,1.46,4.19,3.57,5.46,6.33,1.27,2.76,1.9,6.13,1.9,10.1v24.09h-11.18v-23.1c0-3.26-.72-5.77-2.15-7.53-1.44-1.77-3.62-2.65-6.54-2.65-1.82,0-3.46.44-4.93,1.32-1.46.88-2.61,2.14-3.44,3.77-.83,1.63-1.24,3.63-1.24,6v22.19h-11.18Z"/>
      <path class="cls-1" d="m307.73,79.24c-3.97,0-7.45-.48-10.43-1.45-2.98-.97-5.29-2.43-6.91-4.39-1.63-1.96-2.44-4.38-2.44-7.25,0-1.99.5-3.84,1.49-5.55.99-1.71,2.46-3.27,4.39-4.68,1.93-1.41,4.31-2.61,7.12-3.6l4.22,5.55c-2.54.83-4.36,1.88-5.46,3.15-1.1,1.27-1.66,2.59-1.66,3.97,0,1.27.41,2.35,1.24,3.23.83.88,1.99,1.53,3.48,1.95s3.12.62,4.89.62,3.31-.22,4.64-.66c1.32-.44,2.36-1.08,3.1-1.9s1.12-1.85,1.12-3.06c0-1.55-.54-2.77-1.61-3.68-1.08-.91-3.19-1.48-6.33-1.7-2.76-.22-5.24-.55-7.45-.99-2.21-.44-4.13-.94-5.75-1.49-1.63-.55-3.02-1.19-4.18-1.9-1.16-.72-2.1-1.43-2.82-2.15v-1.9l8.86-9.52,8.03,2.57-10.43,10.27,3.23-5.55c.55.39,1.13.75,1.74,1.08.61.33,1.35.61,2.24.83.88.22,2.03.43,3.44.62,1.41.19,3.22.4,5.42.62,3.7.28,6.72.94,9.07,1.99,2.35,1.05,4.06,2.46,5.13,4.22,1.08,1.77,1.61,3.92,1.61,6.46s-.68,4.8-2.03,6.96c-1.35,2.15-3.42,3.92-6.21,5.3-2.79,1.38-6.36,2.07-10.72,2.07Zm.08-31.55c-3.48,0-6.49-.68-9.02-2.03-2.54-1.35-4.49-3.17-5.84-5.46-1.35-2.29-2.03-4.84-2.03-7.66s.68-5.37,2.03-7.66c1.35-2.29,3.28-4.13,5.8-5.51,2.51-1.38,5.53-2.07,9.07-2.07s6.47.69,8.98,2.07c2.51,1.38,4.43,3.22,5.75,5.51,1.33,2.29,1.99,4.84,1.99,7.66s-.66,5.37-1.99,7.66c-1.32,2.29-3.24,4.11-5.75,5.46-2.51,1.35-5.51,2.03-8.98,2.03Zm0-8.53c2.15,0,3.88-.55,5.18-1.66,1.3-1.1,1.95-2.76,1.95-4.97s-.65-3.78-1.95-4.89c-1.3-1.1-3.02-1.66-5.18-1.66s-3.91.55-5.26,1.66c-1.35,1.11-2.03,2.73-2.03,4.89s.66,3.86,1.99,4.97c1.33,1.1,3.09,1.66,5.3,1.66Zm6.87-13l-1.82-7.87h17.22v6.62l-15.4,1.24Z"/>
      <path class="cls-1" d="m384.9,61.02c-5.74,0-10.71-1.25-14.9-3.77-4.2-2.51-7.41-6.02-9.65-10.52-2.24-4.5-3.35-9.7-3.35-15.61s1.12-11.12,3.35-15.65c2.24-4.53,5.45-8.06,9.65-10.6,4.19-2.54,9.16-3.81,14.9-3.81,7.01,0,12.76,1.74,17.26,5.22,4.5,3.48,7.27,8.39,8.32,14.74h-12.25c-.72-3.09-2.21-5.51-4.47-7.25-2.26-1.74-5.24-2.61-8.94-2.61-3.48,0-6.43.81-8.86,2.44-2.43,1.63-4.29,3.92-5.59,6.87-1.3,2.95-1.95,6.5-1.95,10.64s.65,7.62,1.95,10.6c1.3,2.98,3.16,5.27,5.59,6.87,2.43,1.6,5.38,2.4,8.86,2.4,3.7,0,6.68-.81,8.94-2.44,2.26-1.63,3.75-3.9,4.47-6.83h12.25c-1.05,6.02-3.82,10.74-8.32,14.16-4.5,3.42-10.25,5.13-17.26,5.13Z"/>
      <path class="cls-1" d="m419.75,60.03V.41h11.18v59.62h-11.18Z"/>
      <path class="cls-1" d="m457.51,61.02c-3.42,0-6.33-.7-8.74-2.11-2.4-1.41-4.22-3.48-5.46-6.21s-1.86-6.11-1.86-10.14v-24.26h11.1v23.18c0,3.37.7,5.89,2.11,7.58,1.41,1.68,3.57,2.53,6.5,2.53,1.88,0,3.55-.43,5.01-1.28,1.46-.86,2.61-2.1,3.44-3.73.83-1.63,1.24-3.6,1.24-5.92v-22.36h11.18v41.73h-9.85l-.83-6.79c-1.27,2.37-3.08,4.26-5.42,5.67-2.35,1.41-5.15,2.11-8.4,2.11Z"/>
      <path class="cls-1" d="m517.46,61.02c-2.1,0-4-.28-5.71-.83-1.71-.55-3.19-1.3-4.43-2.24-1.24-.94-2.33-2.04-3.27-3.31l-1.24,5.38h-9.94V.41h11.18v23.76c1.33-1.99,3.08-3.63,5.26-4.93,2.18-1.3,4.9-1.95,8.16-1.95,3.81,0,7.22.97,10.23,2.9,3.01,1.93,5.4,4.54,7.16,7.83s2.65,7,2.65,11.14-.87,7.94-2.61,11.22c-1.74,3.29-4.11,5.88-7.12,7.78-3.01,1.9-6.45,2.86-10.31,2.86Zm-2.57-9.77c2.15,0,4.07-.51,5.75-1.53,1.68-1.02,3.01-2.43,3.97-4.22.96-1.79,1.45-3.9,1.45-6.33s-.48-4.4-1.45-6.25c-.97-1.85-2.29-3.28-3.97-4.31-1.68-1.02-3.6-1.53-5.75-1.53s-4.07.51-5.75,1.53c-1.68,1.02-3,2.44-3.93,4.26-.94,1.82-1.41,3.95-1.41,6.38s.47,4.46,1.41,6.25c.94,1.79,2.25,3.2,3.93,4.22,1.68,1.02,3.6,1.53,5.75,1.53Z"/>
      <path class="cls-1" d="m574.01,60.03V14.9l-10.27,2.73v-8.94l14.9-6.62h6.87v57.96h-11.51Z"/>
    </g>
  </g>
</svg>