<?xml version="1.0" encoding="UTF-8"?>
<svg id="Camada_1" data-name="Camada 1" xmlns="http://www.w3.org/2000/svg" viewBox="0 0 380 85.5">
  <defs>
    <style>
      .cls-1 {
        fill: #fff;
      }

      .cls-2 {
        fill: #e6332a;
      }

      .cls-3 {
        fill: #fff151;
      }

      .cls-4 {
        fill: #eeb98e;
      }

      .cls-5 {
        fill: #67afd8;
      }

      .cls-6 {
        fill: #008d36;
      }

      .cls-7 {
        fill: #b17f4a;
      }

      .cls-8 {
        fill: #ca9e67;
      }

      .cls-9 {
        fill: #c6c6c6;
      }
    </style>
  </defs>
  <rect class="cls-2" x="0" y="0" width="380" height="85.5" rx="42.75" ry="42.75"/>
  <path class="cls-4" d="m58.35,11.98c.02-.06.05-.13.07-.19l-.02-.02c.13.05.26.09.38.15-.15.02-.29.04-.43.06Z"/>
  <path class="cls-4" d="m80.27,42.75c0,18.15-14.71,32.86-32.86,32.86S14.55,60.9,14.55,42.75c0-3.05.42-6.01,1.2-8.81,0,0,26.89,1.1,38.9-15.12,5.7,9.08,15.81,13.29,24.46,15.24.76,2.77,1.16,5.68,1.16,8.69Z"/>
  <path class="cls-1" d="m68.53,35.12v9.05c0,4.9-4,8.9-8.89,8.9-2.45,0-4.67-1-6.29-2.61-1.61-1.62-2.61-3.84-2.61-6.29v-9.05c0-.18.01-.35.02-.53.28-4.64,4.16-8.36,8.88-8.36s8.6,3.72,8.88,8.36c.01.18.01.35.01.53Z"/>
  <path class="cls-1" d="m45.22,35.12v9.05c0,2.44-1,4.67-2.61,6.28-1.61,1.61-3.83,2.61-6.28,2.61-4.89,0-8.9-4-8.9-8.89v-9.05c0-.18,0-.35.02-.53.28-4.65,4.16-8.36,8.88-8.36s8.6,3.72,8.87,8.36c.01.17.02.35.02.53Z"/>
  <path class="cls-8" d="m51.07,52.43c0-1.92-3.48-7.36-3.48-7.36,0,0-3.48,5.44-3.48,7.36s1.56,3.48,3.48,3.48,3.48-1.56,3.48-3.48Z"/>
  <path class="cls-3" d="m58.42,11.79c-8.54,23.54-42.67,22.15-42.67,22.15,3.85-13.87,16.56-24.05,31.66-24.05,3.85,0,7.55.66,10.99,1.88l.02.02Z"/>
  <path class="cls-7" d="m39.89,23.93c0,.34-.14.68-.41.92-3.95,3.52-7.92,4.53-10.02,4.8-.18.03-.35.05-.49.06-.49-.04-.89-.41-1-.88-.03-.1-.04-.19-.04-.29,0-.24.07-.48.19-.66t.02-.02c.18-.32.49-.55.88-.6,1.7-.22,5.29-1.05,8.86-4.25.48-.42,1.21-.4,1.66.06.23.23.35.54.35.85Z"/>
  <path class="cls-1" d="m58.47,61.17c0,.97-.39,1.84-1.03,2.47-.63.64-1.5,1.03-2.47,1.03h-15.12c-1.77,0-3.22-1.31-3.46-3h3.17v-1h-3.17c.1-.77.46-1.45.98-1.97.63-.64,1.51-1.03,2.48-1.03h15.12c1.93,0,3.5,1.57,3.5,3.5Z"/>
  <path class="cls-9" d="m39.56,60.67v1h-3.17c-.03-.16-.04-.33-.04-.5s.01-.34.04-.5h3.17Z"/>
  <path class="cls-9" d="m55.26,60.61v1s3.17,0,3.17,0c.03-.16.04-.33.04-.5,0-.17-.01-.34-.04-.5h-3.17Z"/>
  <g>
    <path class="cls-1" d="m218.78,32.81c-.84,0-1.58-.17-2.22-.5-.64-.33-1.14-.8-1.49-1.42-.36-.61-.53-1.33-.53-2.17s.14-1.63.43-2.36c.28-.72.69-1.36,1.21-1.9.52-.54,1.14-.97,1.86-1.27.72-.3,1.52-.46,2.39-.46s1.65.17,2.3.51c.65.34,1.16.81,1.52,1.42.36.61.54,1.31.54,2.11,0,.46-.05.92-.16,1.36-.11.44-.27.84-.49,1.19-.22.35-.48.63-.79.85-.31.21-.67.32-1.08.32-.48,0-.83-.15-1.04-.44s-.29-.68-.23-1.14l.04-.41.2.36c-.2.5-.52.9-.95,1.19-.43.29-.9.44-1.42.44-.6,0-1.07-.18-1.4-.55s-.5-.87-.5-1.5c0-.44.07-.86.2-1.26.14-.4.33-.76.58-1.07.25-.32.55-.57.9-.75.35-.18.74-.28,1.17-.28.49,0,.88.13,1.16.39.29.26.46.64.5,1.15l-.24.16.28-1.56h.85l-.6,3.44c-.06.34-.04.61.05.82s.29.32.58.32c.26,0,.48-.09.68-.28.2-.18.36-.42.49-.72.13-.3.23-.62.29-.96.06-.34.1-.68.1-1.01,0-.71-.15-1.32-.44-1.82s-.72-.89-1.27-1.16c-.55-.27-1.2-.41-1.95-.41s-1.39.13-2,.4c-.6.26-1.13.63-1.57,1.11-.44.48-.78,1.03-1.02,1.66s-.36,1.31-.36,2.03.15,1.36.44,1.87c.29.51.71.9,1.25,1.17.54.27,1.19.4,1.93.4.34,0,.69-.03,1.03-.1.34-.07.66-.17.95-.31l.17.68c-.36.15-.74.26-1.13.34-.39.07-.8.11-1.21.11Zm.36-3.08c.34,0,.66-.09.94-.28.28-.18.51-.44.7-.76.18-.32.3-.7.34-1.13.04-.31.02-.6-.07-.85-.09-.26-.23-.46-.43-.62-.2-.16-.46-.23-.78-.23s-.59.07-.83.21c-.24.14-.44.33-.61.56s-.3.49-.38.78-.13.58-.13.89c0,.43.11.78.32,1.04.22.26.53.4.95.4Z"/>
    <path class="cls-1" d="m226.58,30.42v-8.4h2.71c.66,0,1.19.11,1.61.33.42.22.72.51.92.88.2.37.3.78.3,1.25s-.1.86-.31,1.24c-.2.38-.52.68-.94.9s-.97.34-1.63.34h-1.66v3.47h-1.01Zm1.01-4.26h1.63c.64,0,1.11-.16,1.41-.47.3-.31.45-.71.45-1.2s-.15-.89-.44-1.18-.77-.44-1.43-.44h-1.62v3.29Zm3.43,4.26l-1.85-3.76h1.13l1.91,3.76h-1.19Z"/>
    <path class="cls-1" d="m235.94,30.57c-.57,0-1.07-.13-1.51-.4-.44-.26-.78-.63-1.03-1.11-.25-.48-.37-1.03-.37-1.66s.12-1.2.37-1.67c.24-.47.59-.84,1.03-1.1.44-.26.95-.4,1.53-.4s1.09.13,1.51.4c.41.26.73.61.95,1.04.22.43.33.9.33,1.41v.25c0,.09,0,.19-.01.3h-4.94v-.78h3.97c-.02-.55-.21-.98-.55-1.3-.34-.31-.77-.47-1.28-.47-.34,0-.66.08-.95.23-.29.16-.53.38-.7.68s-.26.67-.26,1.12v.34c0,.5.09.91.27,1.25.18.34.42.59.71.76s.61.25.94.25c.42,0,.77-.09,1.05-.28.28-.19.47-.44.59-.76h1c-.1.36-.26.68-.5.97-.24.29-.54.51-.89.68-.36.16-.77.25-1.24.25Z"/>
    <path class="cls-1" d="m242.07,30.57c-.49,0-.9-.09-1.22-.26-.33-.17-.57-.4-.73-.68s-.24-.59-.24-.93c0-.41.11-.75.32-1.04s.51-.5.9-.65c.39-.15.85-.22,1.37-.22h1.6c0-.38-.06-.69-.17-.94-.12-.25-.28-.44-.5-.57-.22-.13-.49-.19-.82-.19-.38,0-.72.1-1,.29s-.45.48-.52.85h-1.03c.05-.43.19-.79.44-1.09.24-.29.55-.52.93-.67.38-.16.77-.23,1.18-.23.56,0,1.03.1,1.4.31.37.2.65.49.83.85.18.36.28.79.28,1.29v3.74h-.9l-.06-1.07c-.08.17-.18.33-.31.47-.12.15-.27.28-.44.38-.17.11-.36.19-.57.26-.21.06-.45.1-.73.1Zm.16-.85c.28,0,.53-.06.76-.17.23-.12.42-.28.58-.48.16-.2.28-.43.37-.68s.13-.51.13-.78v-.04h-1.51c-.39,0-.71.05-.95.14s-.41.22-.52.38c-.1.16-.16.35-.16.56s.05.4.15.56c.1.16.25.28.44.37s.43.13.7.13Z"/>
    <path class="cls-1" d="m249.3,30.57c-.58,0-1.1-.14-1.54-.41-.44-.28-.78-.65-1.02-1.13-.24-.48-.36-1.02-.36-1.63s.12-1.15.36-1.63c.24-.48.58-.85,1.03-1.12.44-.27.96-.41,1.54-.41.5,0,.93.1,1.3.3.37.2.66.48.86.84v-3.59h1.01v8.64h-.91l-.08-1c-.13.2-.29.39-.49.56s-.44.31-.72.42c-.28.11-.6.16-.97.16Zm.12-.88c.4,0,.75-.1,1.06-.29.3-.19.54-.46.71-.8s.25-.74.25-1.21-.08-.86-.25-1.2-.4-.61-.71-.8c-.3-.19-.66-.29-1.06-.29s-.74.1-1.04.29c-.3.19-.54.46-.71.8s-.25.74-.25,1.2.08.87.25,1.21.4.61.71.8c.3.19.65.29,1.04.29Z"/>
    <path class="cls-1" d="m256.81,30.57c-.57,0-1.07-.13-1.51-.4-.44-.26-.78-.63-1.03-1.11-.25-.48-.37-1.03-.37-1.66s.12-1.2.37-1.67c.24-.47.59-.84,1.03-1.1.44-.26.95-.4,1.53-.4s1.09.13,1.51.4c.41.26.73.61.95,1.04.22.43.33.9.33,1.41v.25c0,.09,0,.19-.01.3h-4.94v-.78h3.97c-.02-.55-.21-.98-.55-1.3-.34-.31-.77-.47-1.28-.47-.34,0-.66.08-.95.23-.29.16-.53.38-.7.68s-.26.67-.26,1.12v.34c0,.5.09.91.27,1.25.18.34.42.59.71.76s.61.25.94.25c.42,0,.77-.09,1.05-.28.28-.19.47-.44.59-.76h1c-.1.36-.26.68-.5.97-.24.29-.54.51-.89.68-.36.16-.77.25-1.24.25Z"/>
    <path class="cls-1" d="m260.97,30.42v-6.05h.91l.07,1.15c.14-.27.31-.5.52-.7.21-.19.47-.34.77-.44.3-.1.64-.16,1.03-.16v1.06h-.37c-.26,0-.5.03-.73.1-.23.07-.44.18-.62.33-.18.15-.32.36-.42.62-.1.26-.15.58-.15.97v3.12h-1.01Z"/>
    <path class="cls-1" d="m265.44,27.3v-.85h4.75v.85h-4.75Z"/>
    <path class="cls-1" d="m271.97,30.42v-8.4h5.11v.83h-4.1v2.95h3.49v.82h-3.49v3.8h-1.01Z"/>
    <path class="cls-1" d="m278.33,30.42v-6.05h.91l.07,1.15c.14-.27.31-.5.52-.7.21-.19.47-.34.77-.44.3-.1.64-.16,1.03-.16v1.06h-.37c-.26,0-.5.03-.73.1-.23.07-.44.18-.62.33-.18.15-.32.36-.42.62-.1.26-.15.58-.15.97v3.12h-1.01Z"/>
    <path class="cls-1" d="m285.25,30.57c-.57,0-1.08-.13-1.52-.39-.45-.26-.8-.63-1.06-1.1s-.38-1.03-.38-1.66.13-1.21.39-1.69c.26-.48.62-.84,1.07-1.1.45-.26.96-.39,1.53-.39s1.07.13,1.52.39c.44.26.8.63,1.06,1.1.26.47.39,1.03.39,1.68s-.13,1.2-.4,1.67c-.26.48-.62.84-1.07,1.1-.45.26-.96.39-1.52.39Zm0-.86c.34,0,.66-.09.96-.26s.54-.43.72-.77c.18-.34.28-.77.28-1.27s-.09-.94-.27-1.28c-.18-.34-.42-.6-.71-.77s-.61-.26-.95-.26-.67.09-.97.26c-.3.17-.54.43-.72.77s-.27.77-.27,1.28.09.93.27,1.27c.18.34.42.6.71.77s.61.26.95.26Z"/>
    <path class="cls-1" d="m289.65,30.42v-6.05h.91l.06.86c.19-.31.45-.56.77-.74.32-.18.68-.27,1.06-.27.31,0,.59.04.85.13s.47.21.67.38.35.39.47.65c.21-.37.49-.65.86-.86.36-.2.75-.31,1.17-.31.46,0,.87.09,1.22.28.35.19.62.47.8.85.19.38.28.86.28,1.45v3.61h-1v-3.5c0-.61-.12-1.06-.37-1.37-.25-.3-.6-.46-1.04-.46-.31,0-.59.08-.84.25s-.44.4-.59.71c-.14.31-.22.7-.22,1.15v3.22h-1.01v-3.5c0-.61-.12-1.06-.37-1.37-.25-.3-.6-.46-1.06-.46-.3,0-.58.08-.82.25s-.44.4-.58.71c-.14.31-.22.7-.22,1.15v3.22h-1.01Z"/>
    <path class="cls-1" d="m300.4,30.42v-8.4h1.18l2.96,5.87,2.98-5.87h1.19v8.4h-1.01v-6.6l-2.77,5.42h-.76l-2.76-5.4v6.58h-1.01Z"/>
    <path class="cls-1" d="m312.4,30.57c-.49,0-.9-.09-1.22-.26-.33-.17-.57-.4-.73-.68s-.24-.59-.24-.93c0-.41.11-.75.32-1.04s.51-.5.9-.65c.39-.15.85-.22,1.37-.22h1.6c0-.38-.06-.69-.17-.94-.12-.25-.28-.44-.5-.57-.22-.13-.49-.19-.82-.19-.38,0-.72.1-1,.29s-.45.48-.52.85h-1.03c.05-.43.19-.79.44-1.09.24-.29.55-.52.93-.67.38-.16.77-.23,1.18-.23.56,0,1.03.1,1.4.31.37.2.65.49.83.85.18.36.28.79.28,1.29v3.74h-.9l-.06-1.07c-.08.17-.18.33-.31.47-.12.15-.27.28-.44.38-.17.11-.36.19-.57.26-.21.06-.45.1-.73.1Zm.16-.85c.28,0,.53-.06.76-.17.23-.12.42-.28.58-.48.16-.2.28-.43.37-.68s.13-.51.13-.78v-.04h-1.51c-.39,0-.71.05-.95.14s-.41.22-.52.38c-.1.16-.16.35-.16.56s.05.4.15.56c.1.16.25.28.44.37s.43.13.7.13Z"/>
    <path class="cls-1" d="m316.96,30.42v-6.05h.91l.07,1.15c.14-.27.31-.5.52-.7.21-.19.47-.34.77-.44.3-.1.64-.16,1.03-.16v1.06h-.37c-.26,0-.5.03-.73.1-.23.07-.44.18-.62.33-.18.15-.32.36-.42.62-.1.26-.15.58-.15.97v3.12h-1.01Z"/>
    <path class="cls-1" d="m323.69,30.57c-.5,0-.94-.08-1.31-.25s-.67-.4-.89-.7c-.22-.3-.35-.65-.4-1.06h1.03c.04.21.12.4.25.58s.3.32.52.43c.22.11.49.16.81.16.28,0,.51-.04.7-.13.18-.08.32-.2.41-.34.09-.14.14-.3.14-.47,0-.25-.06-.44-.17-.56-.12-.13-.29-.23-.51-.31-.22-.08-.5-.14-.82-.2-.26-.05-.52-.11-.78-.19s-.48-.19-.68-.32c-.2-.13-.36-.29-.47-.49-.12-.19-.17-.43-.17-.71,0-.34.09-.65.26-.92.18-.27.43-.48.76-.63s.72-.23,1.16-.23c.65,0,1.17.16,1.57.47.4.31.64.76.71,1.36h-1c-.04-.3-.17-.54-.39-.71-.22-.17-.52-.26-.91-.26s-.66.08-.86.23c-.2.15-.29.35-.29.6,0,.16.05.3.16.43.11.12.27.23.48.32s.47.16.79.22c.4.07.76.17,1.09.29s.59.3.8.53c.2.24.31.57.31,1,0,.38-.09.7-.28.98-.19.28-.45.5-.8.65-.34.16-.75.23-1.21.23Z"/>
    <path class="cls-1" d="m327.36,30.42v-.71c.58-.45,1.12-.9,1.63-1.36.51-.46.97-.91,1.37-1.36.4-.45.71-.89.94-1.33.23-.43.34-.85.34-1.25,0-.3-.05-.57-.16-.82-.1-.25-.27-.46-.5-.62-.23-.16-.53-.24-.92-.24s-.69.08-.94.25c-.25.16-.43.38-.56.65-.12.27-.19.56-.19.88h-.97c0-.55.13-1.03.35-1.42.23-.4.54-.7.94-.91s.86-.31,1.37-.31.95.09,1.33.28c.38.19.69.47.91.83.22.37.33.83.33,1.39,0,.39-.08.78-.24,1.18-.16.39-.38.77-.65,1.15-.28.37-.58.73-.91,1.07s-.67.67-1.02.97c-.35.3-.67.58-.98.83h4.09v.84h-5.58Z"/>
    <path class="cls-1" d="m337.02,30.57c-.54,0-1.02-.1-1.46-.29-.44-.2-.78-.49-1.04-.88-.26-.39-.39-.88-.41-1.46h1.02c0,.32.09.61.23.88.15.27.36.48.64.64.28.16.62.24,1.01.24s.72-.08.98-.23c.26-.15.46-.35.6-.61.14-.25.2-.53.2-.85,0-.38-.09-.7-.28-.94-.19-.24-.44-.43-.76-.55-.32-.12-.66-.18-1.04-.18h-.62v-.85h.62c.55,0,.98-.13,1.3-.38.31-.26.47-.61.47-1.06,0-.38-.12-.69-.37-.93-.25-.24-.62-.37-1.1-.37s-.85.14-1.13.41c-.28.27-.44.62-.48,1.04h-1.02c.02-.46.15-.86.37-1.21.22-.35.53-.63.91-.82.38-.2.84-.29,1.36-.29s1,.1,1.37.29c.37.19.65.45.83.77.19.32.28.67.28,1.06,0,.29-.05.56-.16.81-.1.25-.26.47-.47.67-.21.19-.47.33-.79.41.33.06.62.19.88.37.26.18.47.42.62.72.15.3.23.64.23,1.04,0,.46-.11.88-.32,1.27-.21.39-.53.7-.94.94-.42.24-.93.35-1.55.35Z"/>
    <path class="cls-1" d="m344.24,30.57c-.54,0-1.03-.1-1.46-.31-.43-.2-.78-.49-1.03-.85s-.38-.79-.38-1.27c0-.34.07-.66.2-.96.14-.29.33-.55.57-.77s.53-.37.85-.46c-.45-.16-.79-.41-1.04-.74-.24-.34-.37-.7-.37-1.09,0-.42.11-.79.32-1.13.22-.34.52-.6.92-.8.4-.2.87-.3,1.42-.3s1.04.1,1.43.3c.4.2.7.47.91.8s.32.71.32,1.13c0,.39-.12.76-.37,1.09s-.59.58-1.04.74c.33.09.61.24.86.46.24.22.43.48.56.77.13.3.2.62.2.96,0,.48-.13.9-.38,1.27s-.6.65-1.03.85c-.44.2-.93.31-1.47.31Zm0-.89c.63,0,1.1-.15,1.41-.44.31-.29.46-.68.46-1.16,0-.54-.17-.96-.51-1.24-.34-.28-.79-.42-1.36-.42s-1.02.14-1.36.42c-.34.28-.51.69-.51,1.24,0,.48.16.87.47,1.16.31.29.78.44,1.4.44Zm0-4.09c.5,0,.9-.13,1.2-.4.3-.26.44-.6.44-1.02,0-.47-.15-.83-.44-1.07-.29-.24-.69-.36-1.21-.36s-.9.12-1.19.36c-.29.24-.44.6-.44,1.07,0,.42.15.76.44,1.02.29.26.69.4,1.19.4Z"/>
  </g>
  <g>
    <path class="cls-1" d="m93.82,56.3v-14.92h5.8c1.22,0,2.23.21,3.03.63.8.42,1.39.98,1.78,1.67.39.7.59,1.47.59,2.32,0,.79-.19,1.54-.56,2.24s-.96,1.26-1.76,1.68c-.8.43-1.82.64-3.07.64h-2.6v5.73h-3.2Zm3.2-8.03h2.41c.8,0,1.38-.19,1.76-.58.38-.38.56-.9.56-1.55s-.19-1.15-.55-1.52c-.37-.38-.96-.56-1.77-.56h-2.41v4.22Zm4.5,8.03l-3-6.52h3.45l3.18,6.52h-3.62Z"/>
    <path class="cls-1" d="m112.06,56.56c-1.11,0-2.08-.23-2.91-.69-.83-.46-1.48-1.11-1.95-1.94s-.7-1.79-.7-2.87.23-2.09.68-2.96c.45-.87,1.1-1.55,1.95-2.05.85-.5,1.82-.75,2.93-.75s2.02.23,2.83.69c.81.46,1.44,1.1,1.9,1.91.45.81.68,1.74.68,2.79,0,.14,0,.3-.01.48s-.02.36-.03.54h-8.67v-1.88h5.5c-.04-.58-.26-1.06-.66-1.43-.4-.37-.9-.55-1.51-.55-.47,0-.89.11-1.26.32-.37.21-.66.54-.86.97-.21.43-.31.98-.31,1.63v.62c0,.5.09.94.28,1.33s.46.69.83.91c.37.21.79.32,1.26.32s.88-.1,1.18-.29c.31-.19.54-.43.71-.71h3.26c-.2.65-.54,1.26-1.02,1.81s-1.07.99-1.76,1.31c-.69.32-1.47.48-2.33.48Z"/>
    <path class="cls-1" d="m119.86,56.3v-10.74h2.79l.26,1.39c.34-.48.79-.88,1.35-1.18s1.21-.46,1.95-.46c.53,0,1,.07,1.42.2.42.13.79.33,1.12.6.33.26.6.59.83.99.41-.55.94-.99,1.58-1.31.64-.32,1.34-.48,2.11-.48.94,0,1.72.19,2.35.58.63.38,1.11.94,1.43,1.66.32.72.48,1.61.48,2.64v6.12h-3.17v-5.82c0-.81-.16-1.43-.47-1.85-.31-.43-.8-.64-1.45-.64-.43,0-.8.1-1.12.31-.32.21-.57.5-.76.88s-.28.85-.28,1.41v5.71h-3.18v-5.82c0-.81-.16-1.43-.47-1.85-.31-.43-.82-.64-1.51-.64-.41,0-.77.1-1.08.31-.31.21-.55.5-.72.88s-.27.85-.27,1.41v5.71h-3.2Z"/>
    <path class="cls-1" d="m145.39,56.56c-1.04,0-1.97-.24-2.8-.72s-1.48-1.15-1.96-1.99c-.48-.85-.71-1.81-.71-2.89s.24-2.09.71-2.94c.48-.85,1.13-1.52,1.96-1.99.83-.48,1.76-.71,2.8-.71s1.98.24,2.8.71c.82.48,1.47,1.14,1.95,1.98.48.84.72,1.82.72,2.93s-.24,2.06-.72,2.91c-.48.84-1.13,1.51-1.95,1.99s-1.75.72-2.8.72Zm0-2.77c.41,0,.78-.11,1.12-.32.33-.21.6-.53.8-.96.2-.43.3-.95.3-1.58s-.1-1.15-.3-1.58c-.2-.43-.47-.75-.8-.96-.33-.21-.71-.32-1.12-.32s-.81.11-1.14.32c-.33.21-.6.53-.79.96-.19.43-.29.95-.29,1.58s.1,1.15.29,1.58c.19.43.45.75.79.96.33.21.71.32,1.14.32Z"/>
    <path class="cls-1" d="m155.61,56.3l-3.88-10.74h3.35l2.51,7.74,2.49-7.74h3.32l-3.88,10.74h-3.92Z"/>
    <path class="cls-1" d="m169.89,56.56c-1.11,0-2.08-.23-2.91-.69-.83-.46-1.48-1.11-1.95-1.94s-.7-1.79-.7-2.87.23-2.09.68-2.96c.45-.87,1.1-1.55,1.95-2.05.85-.5,1.82-.75,2.93-.75s2.02.23,2.83.69c.81.46,1.44,1.1,1.9,1.91.45.81.68,1.74.68,2.79,0,.14,0,.3-.01.48s-.02.36-.03.54h-8.67v-1.88h5.5c-.04-.58-.26-1.06-.66-1.43-.4-.37-.9-.55-1.51-.55-.47,0-.89.11-1.26.32-.37.21-.66.54-.86.97-.21.43-.31.98-.31,1.63v.62c0,.5.09.94.28,1.33s.46.69.83.91c.37.21.79.32,1.26.32s.88-.1,1.18-.29c.31-.19.54-.43.71-.71h3.26c-.2.65-.54,1.26-1.02,1.81s-1.07.99-1.76,1.31c-.69.32-1.47.48-2.33.48Z"/>
    <path class="cls-1" d="m182.42,56.56c-.95,0-1.81-.24-2.58-.72s-1.37-1.15-1.81-1.99c-.44-.85-.66-1.81-.66-2.89s.22-2.05.67-2.91c.45-.86,1.06-1.53,1.84-2.01.78-.48,1.66-.72,2.64-.72.75,0,1.4.13,1.95.39.55.26.99.64,1.33,1.12v-5.86h3.2v15.34h-2.83l-.34-1.41c-.21.3-.47.58-.78.83s-.67.46-1.11.61c-.43.15-.94.22-1.52.22Zm.85-2.79c.53,0,.99-.12,1.38-.37.4-.25.71-.58.94-1,.23-.42.34-.91.34-1.48,0-.54-.11-1.02-.34-1.45-.23-.43-.54-.76-.95-1-.4-.24-.86-.36-1.37-.36s-.99.12-1.4.37c-.41.25-.72.58-.94,1-.22.42-.33.9-.33,1.44s.11,1.04.33,1.47c.22.43.53.76.94,1.01.4.25.87.37,1.4.37Z"/>
    <path class="cls-1" d="m195.63,48.23v-2.66h6.86v2.66h-6.86Zm1.43,8.08v-11.51c0-.94.16-1.69.49-2.25.33-.56.79-.97,1.38-1.21.59-.25,1.27-.37,2.06-.37h1.34v2.71h-.87c-.41,0-.71.09-.91.27-.19.18-.29.47-.29.86v11.51h-3.2Z"/>
    <path class="cls-1" d="m204.73,56.3v-10.74h2.83l.28,1.96c.28-.46.62-.84,1-1.17.38-.33.82-.58,1.32-.77s1.05-.28,1.66-.28v3.39h-1.09c-.43,0-.81.05-1.15.14s-.64.25-.89.46-.45.5-.58.86-.19.81-.19,1.35v4.79h-3.2Z"/>
    <path class="cls-1" d="m218.75,56.56c-1.04,0-1.97-.24-2.8-.72s-1.48-1.15-1.96-1.99c-.48-.85-.71-1.81-.71-2.89s.24-2.09.71-2.94c.48-.85,1.13-1.52,1.96-1.99.83-.48,1.77-.71,2.8-.71s1.99.24,2.8.71c.82.48,1.47,1.14,1.95,1.98.48.84.72,1.82.72,2.93s-.24,2.06-.72,2.91c-.48.84-1.13,1.51-1.95,1.99-.82.48-1.75.72-2.8.72Zm0-2.77c.41,0,.78-.11,1.12-.32s.6-.53.8-.96c.2-.43.3-.95.3-1.58s-.1-1.15-.3-1.58c-.2-.43-.47-.75-.8-.96-.33-.21-.71-.32-1.12-.32s-.81.11-1.14.32c-.33.21-.6.53-.79.96-.19.43-.29.95-.29,1.58s.1,1.15.29,1.58c.19.43.45.75.79.96s.71.32,1.14.32Z"/>
    <path class="cls-1" d="m226.7,56.3v-10.74h2.79l.26,1.39c.34-.48.79-.88,1.35-1.18s1.21-.46,1.95-.46c.53,0,1,.07,1.42.2s.79.33,1.12.6c.33.26.6.59.83.99.41-.55.94-.99,1.58-1.31.64-.32,1.34-.48,2.11-.48.94,0,1.72.19,2.36.58.63.38,1.11.94,1.43,1.66.32.72.48,1.61.48,2.64v6.12h-3.18v-5.82c0-.81-.16-1.43-.47-1.85-.31-.43-.8-.64-1.45-.64-.43,0-.8.1-1.12.31-.32.21-.57.5-.76.88s-.28.85-.28,1.41v5.71h-3.18v-5.82c0-.81-.16-1.43-.47-1.85-.31-.43-.82-.64-1.51-.64-.41,0-.77.1-1.08.31-.31.21-.55.5-.72.88s-.27.85-.27,1.41v5.71h-3.2Z"/>
    <path class="cls-1" d="m253.3,60.99l2.6-5.88h-.64l-4.35-9.55h3.47l2.96,6.52,2.47-6.52h3.41l-6.54,15.43h-3.39Z"/>
    <path class="cls-1" d="m269.32,56.56c-1.04,0-1.97-.24-2.8-.72s-1.48-1.15-1.96-1.99c-.48-.85-.71-1.81-.71-2.89s.24-2.09.71-2.94c.48-.85,1.13-1.52,1.96-1.99.83-.48,1.77-.71,2.8-.71s1.99.24,2.8.71c.82.48,1.47,1.14,1.95,1.98.48.84.72,1.82.72,2.93s-.24,2.06-.72,2.91c-.48.84-1.13,1.51-1.95,1.99-.82.48-1.75.72-2.8.72Zm0-2.77c.41,0,.78-.11,1.12-.32s.6-.53.8-.96c.2-.43.3-.95.3-1.58s-.1-1.15-.3-1.58c-.2-.43-.47-.75-.8-.96-.33-.21-.71-.32-1.12-.32s-.81.11-1.14.32c-.33.21-.6.53-.79.96-.19.43-.29.95-.29,1.58s.1,1.15.29,1.58c.19.43.45.75.79.96s.71.32,1.14.32Z"/>
    <path class="cls-1" d="m281.3,56.56c-.89,0-1.65-.18-2.26-.54-.61-.36-1.08-.91-1.4-1.64-.32-.73-.48-1.61-.48-2.63v-6.18h3.17v5.86c0,.81.17,1.42.5,1.83s.86.62,1.57.62c.45,0,.85-.1,1.19-.31s.61-.5.8-.87c.19-.38.29-.83.29-1.37v-5.75h3.2v10.74h-2.79l-.25-1.71c-.31.58-.77,1.05-1.36,1.42s-1.32.54-2.17.54Z"/>
    <path class="cls-1" d="m290.67,56.3v-10.74h2.83l.28,1.96c.28-.46.62-.84,1-1.17.38-.33.82-.58,1.32-.77s1.05-.28,1.66-.28v3.39h-1.09c-.43,0-.81.05-1.15.14s-.64.25-.89.46-.45.5-.58.86-.19.81-.19,1.35v4.79h-3.2Z"/>
    <path class="cls-1" d="m309.74,56.56c-1.11,0-2.08-.24-2.93-.72-.84-.48-1.5-1.14-1.97-1.98-.47-.84-.7-1.79-.7-2.86s.23-2.09.7-2.95c.47-.86,1.13-1.53,1.97-2.01.85-.48,1.82-.72,2.93-.72,1.41,0,2.59.37,3.55,1.11.96.74,1.57,1.76,1.82,3.07h-3.41c-.1-.45-.33-.81-.68-1.07-.36-.26-.79-.38-1.3-.38-.48,0-.9.12-1.25.35-.35.23-.61.57-.8,1-.18.43-.28.95-.28,1.54,0,.44.05.84.16,1.19.11.36.26.66.46.91.2.25.44.44.74.59.29.14.61.21.97.21.33,0,.63-.06.91-.17.28-.11.51-.28.69-.5.18-.22.31-.48.38-.78h3.41c-.26,1.28-.87,2.29-1.83,3.05-.97.75-2.15,1.13-3.54,1.13Z"/>
    <path class="cls-1" d="m317.61,56.3v-15.34h3.2v15.34h-3.2Z"/>
    <path class="cls-1" d="m327.6,56.56c-.89,0-1.65-.18-2.26-.54-.61-.36-1.08-.91-1.4-1.64-.32-.73-.48-1.61-.48-2.63v-6.18h3.17v5.86c0,.81.17,1.42.5,1.83s.86.62,1.57.62c.45,0,.85-.1,1.19-.31s.61-.5.8-.87c.19-.38.29-.83.29-1.37v-5.75h3.2v10.74h-2.79l-.25-1.71c-.31.58-.77,1.05-1.36,1.42s-1.32.54-2.17.54Z"/>
    <path class="cls-1" d="m343.5,56.56c-.53,0-1-.06-1.42-.19-.42-.13-.79-.31-1.11-.54-.32-.23-.6-.5-.84-.8l-.32,1.28h-2.83v-15.34h3.2v6.01c.33-.48.76-.88,1.3-1.19s1.21-.47,2-.47c.98,0,1.85.25,2.62.74.77.49,1.38,1.16,1.84,2,.46.85.69,1.81.69,2.89s-.23,2.03-.68,2.89c-.46.86-1.07,1.53-1.83,2.01-.77.48-1.64.72-2.62.72Zm-.81-2.79c.53,0,.99-.12,1.38-.37.4-.25.71-.58.95-1,.23-.42.35-.91.35-1.46s-.12-1.02-.35-1.45c-.24-.43-.55-.76-.95-1.01-.4-.25-.86-.37-1.38-.37s-.97.12-1.37.37c-.41.25-.72.59-.95,1.01-.23.43-.34.92-.34,1.47s.11,1.04.34,1.46c.23.42.54.75.95.99.4.24.86.36,1.37.36Z"/>
  </g>
  <path class="cls-3" d="m79.11,34.06c-8.65-1.95-18.76-6.16-24.46-15.24-1-1.6-1.87-3.36-2.57-5.28l.02-.02c2-.71,4.09-1.23,6.25-1.54.14-.02.28-.04.43-.06,9.88,3.63,17.52,11.88,20.33,22.14Z"/>
  <path class="cls-7" d="m56.06,23.81c0,.34.14.68.41.92,3.95,3.52,7.92,4.53,10.02,4.8.18.03.35.05.49.06.49-.04.89-.41,1-.88.03-.1.04-.19.04-.29,0-.24-.07-.48-.19-.66t-.02-.02c-.18-.32-.49-.55-.88-.6-1.7-.22-5.29-1.05-8.86-4.25-.48-.42-1.21-.4-1.66.06-.23.23-.35.54-.35.85Z"/>
  <path class="cls-3" d="m80.19,45.07s-.65,6.72-4.8,5.42c-3.22-1.01-3.91-2.69-3.91-2.69,0,0-.7,11.41,6.19,11.93s7.66-10.67,2.51-14.66Z"/>
  <circle class="cls-6" cx="41.36" cy="42.41" r="2.77"/>
  <circle class="cls-6" cx="54.51" cy="42.41" r="2.77"/>
  <path class="cls-8" d="m68.53,43.16v1.01c0,4.9-4,8.9-8.89,8.9-2.45,0-4.67-1-6.29-2.61-1.61-1.62-2.61-3.84-2.61-6.29v-1.01h17.79Z"/>
  <path class="cls-5" d="m40.49,49.27h-8.34c-1.18,0-2.15.97-2.15,2.15v5.31c0,1.19.96,2.15,2.15,2.15s2.15-.96,2.15-2.15v-3.16h6.19c1.18,0,2.15-.97,2.15-2.15s-.97-2.15-2.15-2.15Z"/>
</svg>