<?xml version="1.0" encoding="UTF-8"?>
<svg id="Camada_1" data-name="Camada 1" xmlns="http://www.w3.org/2000/svg" viewBox="0 0 101.04 205.17">
  <defs>
    <style>
      .cls-1 {
        fill: #797979;
      }

      .cls-2 {
        fill: #fcd8c3;
      }

      .cls-3 {
        fill: #3aaa35;
      }

      .cls-4 {
        fill: #e9ba26;
      }

      .cls-5 {
        fill: #1d1d1b;
      }
    </style>
  </defs>
  <path class="cls-1" d="m42.18,46.95h-7v-13.68c0-1.93-1.57-3.5-3.5-3.5h-12.55c-1.93,0-3.5,1.57-3.5,3.5v13.68h-7v-13.15c0-6.09,4.94-11.03,11.03-11.03h11.36c6.16,0,11.16,5,11.16,11.16v13.02Z"/>
  <rect class="cls-4" y="39.95" width="50.81" height="50.81" rx="12.77" ry="12.77"/>
  <path class="cls-5" d="m28.43,75.12h-6.05c-1.77,0-3.09-1.66-2.67-3.39l1.78-7.45c-.82-.92-1.32-2.13-1.32-3.46,0-2.89,2.35-5.23,5.24-5.23s5.23,2.34,5.23,5.23c0,1.34-.49,2.55-1.32,3.47l1.78,7.44c.42,1.73-.89,3.39-2.67,3.39Z"/>
  <rect class="cls-3" x="56.62" y="26.77" width="44.43" height="178.4"/>
  <path class="cls-2" d="m17.3,0h71.74c6.62,0,12,5.38,12,12v14.77H17.3c-6.62,0-12-5.38-12-12v-2.77C5.3,5.38,10.67,0,17.3,0Z"/>
</svg>