<?xml version="1.0" encoding="UTF-8"?>
<svg id="Camada_1" data-name="Camada 1" xmlns="http://www.w3.org/2000/svg" viewBox="0 0 893.36 459.62">
  <defs>
    <style>
      .cls-1 {
        fill: #009640;
      }

      .cls-2 {
        fill: #fff;
      }

      .cls-3 {
        fill: #662483;
      }

      .cls-4 {
        fill: #1b9dd9;
      }

      .cls-5 {
        fill: #634e42;
      }

      .cls-6 {
        fill: #f39200;
      }

      .cls-7 {
        fill: #3aaa35;
      }

      .cls-8 {
        fill: #dd887e;
      }

      .cls-9 {
        fill: #683c11;
      }

      .cls-10 {
        fill: #1e1e1c;
      }

      .cls-11 {
        fill: #211b40;
      }

      .cls-12 {
        fill: #fab334;
      }

      .cls-13 {
        fill: #eeb98e;
      }

      .cls-14 {
        fill: #e1b479;
      }

      .cls-15 {
        fill: #29265b;
      }

      .cls-16 {
        fill: #432918;
      }

      .cls-17 {
        fill: #ca9e67;
      }

      .cls-18 {
        fill: #3ba9e0;
      }

      .cls-19 {
        fill: #e2b479;
      }

      .cls-20 {
        fill: #354293;
      }

      .cls-21 {
        fill: #936037;
      }
    </style>
  </defs>
  <path d="m245.51,122.76c0,28.02-9.39,53.84-25.19,74.51-2.7-2.12-6.08-3.37-9.78-3.38-.01,0-.03-.02-.03-.03v-38.64c-.75-4.05-1.78-8.01-3.06-11.85-1.26-3.78-2.76-7.44-4.5-10.96-1.66-3.38-3.52-6.64-5.58-9.76-20.68,15.85-46.55,25.28-74.62,25.28s-53.97-9.43-74.65-25.3c-2.07,3.13-3.94,6.4-5.6,9.78-1.74,3.53-3.23,7.18-4.5,10.96-1.28,3.84-2.31,7.8-3.06,11.85v39.86s-.02.03-.03.03c-3.41.01-6.57,1.08-9.14,2.92C9.62,177.24,0,151.12,0,122.76c0-17.34,3.6-33.84,10.09-48.79C28.95,30.44,72.3,0,122.76,0s93.81,30.44,112.66,73.96c6.5,14.95,10.09,31.45,10.09,48.79Z"/>
  <path d="m220.32,197.26c-22.43,29.33-57.79,48.25-97.57,48.25s-74.52-18.59-96.98-47.49c2.58-1.84,5.74-2.91,9.14-2.92.01,0,.03-.01.03-.03v-39.86c.75-4.05,1.78-8.01,3.06-11.85,1.26-3.78,2.76-7.44,4.5-10.96,1.66-3.38,3.53-6.65,5.6-9.78,20.68,15.87,46.57,25.3,74.65,25.3s53.94-9.43,74.62-25.28c2.06,3.12,3.92,6.38,5.58,9.76,1.74,3.53,3.23,7.18,4.5,10.96,1.28,3.84,2.31,7.8,3.06,11.85v38.64s.02.03.03.03c3.7.01,7.08,1.26,9.78,3.38Z"/>
  <path class="cls-7" d="m72.93,253.18h99.59c20.96,0,37.98,17.02,37.98,37.98v167.99H34.95v-167.99c0-20.96,17.02-37.98,37.98-37.98Z"/>
  <circle class="cls-1" cx="122.73" cy="262.97" r="36.31"/>
  <circle class="cls-17" cx="122.73" cy="262.97" r="26.21"/>
  <path class="cls-19" d="m220.32,197.26c-2.7-2.12-6.08-3.37-9.78-3.38l-.03-.03v-30.94c0-6.6-.94-13.18-3.02-19.44-.01-.04-.03-.08-.04-.12-1.26-3.78-2.76-7.44-4.5-10.96-1.66-3.38-3.52-6.64-5.58-9.76-20.68,15.85-46.55,25.28-74.62,25.28s-53.97-9.43-74.65-25.3c-2.07,3.13-3.94,6.4-5.6,9.78-1.74,3.53-3.23,7.18-4.5,10.96-.01.04-.03.08-.04.12-2.08,6.26-3.02,12.84-3.02,19.44v32.16s-.02.03-.03.03c-3.41.01-6.57,1.08-9.14,2.92-5.1,3.6-7.98,10.12-6.21,17.13.88,3.5,2.93,6.45,5.67,8.51,2.74,2.08,6.15,3.27,9.75,3.27l.03.03c1.24,25.46,22.44,45.89,48.2,45.89h79.03c26.17,0,47.63-21.1,48.25-47.12l.03-.03c8.79-.01,15.9-7.12,15.9-15.91,0-5.09-2.38-9.62-6.1-12.53Zm-86.33-22.23c0-1.15.1-2.29.29-3.38,1.61-9.2,9.64-16.21,19.3-16.21h.01c9.67,0,17.69,7,19.3,16.21.19,1.09.29,2.23.29,3.38v19.95c0,10.82-8.77,19.59-19.59,19.59h-.01c-10.82,0-19.59-8.77-19.59-19.59v-19.95Zm-61.72,0c0-1.15.1-2.29.29-3.38,1.61-9.2,9.63-16.21,19.3-16.21h.01c9.66,0,17.69,7,19.3,16.21.19,1.09.29,2.23.29,3.38v20.09c-.04,5.67-6.09,9.45-11.22,7.02-.19-.09-.38-.18-.58-.25-2.38-1.05-5.02-1.63-7.8-1.63h-.01c-.34,0-.69.01-1.03.03-2.62.13-5.1.79-7.35,1.85-5.12,2.43-11.18-1.35-11.22-7.02v-20.09Z"/>
  <path class="cls-17" d="m91.87,216.84l.27-.03c1.47-.18,2.88.73,3.28,2.16,1.49,5.31,6.82,17.43,24.78,20.51,1.59.27,2.72,1.72,2.54,3.32h0c-.19,1.72-1.77,2.96-3.48,2.67-20.86-3.55-27.57-18.01-29.59-24.77-.54-1.82.67-3.68,2.55-3.9l-.35.04Z"/>
  <path class="cls-17" d="m133.96,221.41h-22.4c-2.79,0-5.05-2.26-5.05-5.05h0c0-2.79,2.26-5.05,5.05-5.05h6.15v-21.89c0-2.79,2.26-5.05,5.05-5.05h0c2.79,0,5.05,2.26,5.05,5.05v21.89s6.15,0,6.15,0c2.79,0,5.05,2.26,5.05,5.05h0c0,2.79-2.26,5.05-5.05,5.05Z"/>
  <path class="cls-2" d="m111.47,175.03v20.09c-.04,5.67-6.09,9.45-11.22,7.02-.19-.09-.38-.18-.58-.25,4.39-1.21,7.6-5.23,7.6-9.99v-13.78c0-2.45-.85-4.69-2.26-6.47-1.9-2.37-4.82-3.9-8.1-3.9s-6.2,1.53-8.09,3.9c-1.42,1.78-2.27,4.02-2.27,6.47v13.78c0,2.86,1.16,5.45,3.04,7.33.38.38.81.75,1.25,1.07-2.62.13-5.1.79-7.35,1.85-5.12,2.43-11.18-1.35-11.22-7.02v-20.09c0-1.15.1-2.29.29-3.38,1.61-9.2,9.63-16.21,19.3-16.21h.01c9.66,0,17.69,7,19.3,16.21.19,1.09.29,2.23.29,3.38Z"/>
  <path class="cls-6" d="m107.28,178.12v13.78c0,4.76-3.21,8.78-7.6,9.99-2.38-1.05-5.02-1.63-7.8-1.63h-.01c-.34,0-.69.01-1.03.03-.44-.32-.87-.69-1.25-1.07-1.88-1.88-3.04-4.47-3.04-7.33v-13.78c0-2.45.85-4.69,2.27-6.47,1.89-2.37,4.82-3.9,8.09-3.9s6.2,1.53,8.1,3.9c1.41,1.78,2.26,4.02,2.26,6.47Z"/>
  <path class="cls-6" d="m158.91,178.12v13.78c0,5.72-4.64,10.37-10.37,10.37-2.86,0-5.45-1.16-7.33-3.04-1.88-1.88-3.04-4.47-3.04-7.33v-13.78c0-2.45.85-4.69,2.27-6.47,1.89-2.37,4.82-3.9,8.09-3.9s6.2,1.53,8.1,3.9c1.41,1.78,2.26,4.02,2.26,6.47Z"/>
  <path class="cls-2" d="m172.89,171.65c-1.61-9.2-9.63-16.21-19.3-16.21h-.01c-9.66,0-17.69,7-19.3,16.21-.19,1.09-.29,2.23-.29,3.38v19.95c0,10.82,8.78,19.59,19.59,19.59h.01c10.82,0,19.59-8.77,19.59-19.59v-19.95c0-1.15-.1-2.29-.29-3.38Zm-13.98,20.25c0,5.72-4.64,10.37-10.37,10.37-2.86,0-5.45-1.16-7.33-3.04-1.88-1.88-3.04-4.47-3.04-7.33v-13.78c0-2.45.85-4.69,2.27-6.47,1.89-2.37,4.82-3.9,8.09-3.9s6.2,1.53,8.1,3.9c1.41,1.78,2.26,4.02,2.26,6.47v13.78Z"/>
  <path class="cls-3" d="m266.5,239.98h147.86c19.38,0,35.12,15.74,35.12,35.12v182.98h-218.1v-182.98c0-19.38,15.74-35.12,35.12-35.12Z"/>
  <path class="cls-21" d="m445.81,178.82c0,7.91-6.41,14.32-14.32,14.32h-.26v46.17c0,22.72-18.59,41.31-41.31,41.31h-98.98c-22.72,0-41.31-18.59-41.31-41.31v-46.17c-7.79-.15-14.06-6.5-14.06-14.32s6.26-14.18,14.06-14.32v-24.17c0-2.97.32-5.85.92-8.65,4-18.61,20.64-32.66,40.39-32.66h98.98c19.75,0,36.39,14.06,40.39,32.66.61,2.8.92,5.68.92,8.65v24.17h.26c7.91,0,14.32,6.41,14.32,14.32Z"/>
  <path class="cls-5" d="m302.43,168.86v14c0,5.15,4.12,10.27,9.22,10.98,3.58.5,6.87-.76,9.16-3.05,1.95-1.95,3.16-4.64,3.16-7.61v-14.32c0-2.54-.88-4.87-2.36-6.72-1.96-2.47-5.01-4.05-8.41-4.05-3.41,0-6.44,1.58-8.42,4.05-1.47,1.85-2.35,4.18-2.35,6.72Z"/>
  <path class="cls-2" d="m328.01,162.13c-1.67-9.56-10.01-16.83-20.04-16.83h-.01c-10.05,0-18.38,7.27-20.04,16.83-.21,1.13-.32,2.32-.32,3.52v20.72c0,.56.02,1.11.07,1.66.59,7.32,8.29,11.47,15.05,8.61,1.61-.68,3.38-1.06,5.24-1.06s3.63.38,5.24,1.06c6.76,2.86,14.46-1.29,15.05-8.61.04-.55.07-1.1.07-1.66v-20.72c0-1.2-.11-2.39-.3-3.52Zm-4.05,21.05c0,2.97-1.2,5.66-3.15,7.61s-4.64,3.15-7.61,3.15c-5.96,0-10.77-4.83-10.77-10.76v-14.32c0-2.54.88-4.87,2.35-6.73,1.98-2.47,5.01-4.05,8.43-4.05s6.45,1.58,8.4,4.05c1.49,1.86,2.36,4.18,2.36,6.73v14.32Z"/>
  <path class="cls-9" d="m351.8,220.11h-23.27c-2.9,0-5.25-2.35-5.25-5.25h0c0-2.9,2.35-5.25,5.25-5.25h6.39s0-22.74,0-22.74c0-2.9,2.35-5.25,5.25-5.25h0c2.9,0,5.25,2.35,5.25,5.25v22.74h6.39c2.9,0,5.25,2.35,5.25,5.25h0c0,2.9-2.35,5.25-5.25,5.25Z"/>
  <path class="cls-5" d="m358.24,168.86v14c0,5.15,4.12,10.27,9.22,10.98,3.58.5,6.87-.76,9.16-3.05,1.95-1.95,3.16-4.64,3.16-7.61v-14.32c0-2.54-.88-4.87-2.36-6.72-1.96-2.47-5.01-4.05-8.41-4.05s-6.44,1.58-8.42,4.05c-1.47,1.85-2.35,4.18-2.35,6.72Z"/>
  <path class="cls-2" d="m354.17,165.66v20.72c0,.56.02,1.12.07,1.66.59,7.32,8.29,11.47,15.05,8.61,1.61-.68,3.38-1.06,5.24-1.06,1.86,0,3.63.38,5.24,1.06,6.76,2.86,14.46-1.29,15.05-8.61.04-.55.07-1.1.07-1.66v-20.72c0-1.2-.11-2.39-.32-3.52-1.66-9.56-10-16.83-20.04-16.83h-.01c-10.03,0-18.37,7.27-20.04,16.83-.2,1.13-.3,2.32-.3,3.52Zm4.35,3.2c0-2.54.87-4.87,2.36-6.73,1.95-2.47,5-4.05,8.4-4.05s6.45,1.58,8.43,4.05c1.46,1.86,2.35,4.18,2.35,6.73v14.32c0,5.93-4.81,10.76-10.77,10.76-2.97,0-5.66-1.2-7.61-3.15s-3.15-4.64-3.15-7.61v-14.32Z"/>
  <path class="cls-2" d="m342.46,244.25c-10.36,0-20.02-3.79-27.08-8.12-3.38-2.07-4.07-6.69-1.53-9.73l.11-.13c2.08-2.5,5.67-3.06,8.45-1.38,7.37,4.45,22.32,10.85,36.21.77,2.58-1.88,6.16-1.56,8.42.7l.09.09c2.8,2.8,2.53,7.49-.66,9.84-7.86,5.79-16.13,7.97-23.99,7.97Z"/>
  <path class="cls-16" d="m430.57,131.67h-179.76c4-18.61,20.64-32.66,40.39-32.66h98.98c19.75,0,36.39,14.06,40.39,32.66Z"/>
  <path class="cls-16" d="m329.69,252.45h22c2.28,0,3.69,2.48,2.53,4.44l-7.08,11.96c-2.9,4.9-10,4.9-12.9,0l-7.08-11.96c-1.16-1.96.25-4.44,2.53-4.44Z"/>
  <path class="cls-15" d="m667.11,459.62h-206.54l43.27-203.23c17.11,11.1,37.52,17.56,59.44,17.56s43.1-6.71,60.42-18.21l43.41,203.88Z"/>
  <path class="cls-15" d="m672.56,150.57c0,39.13-20.57,73.47-51.51,92.77-16.76,10.46-36.56,16.51-57.77,16.51s-40.24-5.82-56.8-15.9c-31.49-19.19-52.5-53.83-52.5-93.38,0-60.36,48.93-109.3,109.3-109.3s109.28,48.93,109.28,109.3Z"/>
  <path class="cls-14" d="m651.56,150.55c0,48.76-39.52,88.28-88.28,88.28-43.97,0-80.42-32.15-87.16-74.21.79.01,1.59.03,2.38.03,45.33,0,84.06-28.27,99.52-68.15,2.59,27.53,25.76,49.08,53.96,49.08,6.75,0,13.21-1.23,19.17-3.49.28,2.79.41,5.61.41,8.46h0Z"/>
  <path class="cls-17" d="m617.51,160.68v7.47c0,5.48-2.22,10.45-5.82,14.04-3.59,3.59-8.56,5.82-14.06,5.82-7.88,0-14.7-4.59-17.91-11.25-.94-1.96-1.56-4.11-1.83-6.36-.09-.75-.13-1.49-.13-2.25v-7.47c0,.76.04,1.51.13,2.25.26,2.25.89,4.4,1.83,6.36,3.21,6.65,10.04,11.25,17.91,11.25,5.49,0,10.46-2.22,14.06-5.82s5.82-8.56,5.82-14.04Z"/>
  <path class="cls-4" d="m603.03,143.57v13.97c0,5.8-4.7,10.51-10.51,10.51-2.89,0-5.52-1.18-7.42-3.08-1.9-1.9-3.08-4.53-3.08-7.42v-13.97c0-2.48.86-4.75,2.31-6.56,1.91-2.41,4.88-3.96,8.21-3.96s6.3,1.55,8.21,3.96c1.43,1.8,2.29,4.08,2.29,6.56h-.01Z"/>
  <path class="cls-2" d="m617.22,137.02c-1.64-9.35-9.78-16.44-19.58-16.44-1.56,0-3.07.18-4.52.51-3.13.73-5.96,2.19-8.33,4.19-3.46,2.95-5.9,7.06-6.74,11.72-.19,1.11-.29,2.26-.29,3.42v20.24c0,.76.04,1.51.13,2.25.26,2.25.89,4.4,1.83,6.36,3.21,6.65,10.04,11.25,17.91,11.25,5.49,0,10.46-2.22,14.06-5.82,3.59-3.59,5.82-8.56,5.82-14.04v-20.24c0-1.15-.1-2.32-.29-3.42h0Zm-14.19,20.53c0,5.79-4.7,10.51-10.52,10.51-2.89,0-5.52-1.17-7.42-3.08s-3.08-4.53-3.08-7.42v-13.98c0-2.48.86-4.75,2.31-6.55,1.91-2.41,4.88-3.96,8.2-3.96s6.3,1.56,8.23,3.96c1.43,1.8,2.29,4.06,2.29,6.55v13.98Z"/>
  <path class="cls-17" d="m513.81,160.68v7.47c0,5.48,2.22,10.45,5.82,14.04s8.56,5.82,14.06,5.82c7.88,0,14.7-4.59,17.91-11.25.94-1.96,1.56-4.11,1.83-6.36.09-.75.13-1.49.13-2.25v-7.47c0,.76-.04,1.51-.13,2.25-.26,2.25-.89,4.4-1.83,6.36-3.21,6.65-10.04,11.25-17.91,11.25-5.49,0-10.46-2.22-14.06-5.82s-5.82-8.56-5.82-14.04Z"/>
  <path class="cls-4" d="m528.29,143.57v13.97c0,5.8,4.7,10.51,10.51,10.51,2.89,0,5.52-1.18,7.42-3.08s3.08-4.53,3.08-7.42v-13.97c0-2.48-.86-4.75-2.31-6.56-1.91-2.41-4.88-3.96-8.21-3.96s-6.3,1.55-8.21,3.96c-1.43,1.8-2.29,4.08-2.29,6.56h.01Z"/>
  <path class="cls-11" d="m623.7,255.74c-17.31,11.5-38.08,18.21-60.42,18.21s-42.33-6.46-59.44-17.56l2.64-12.43c16.56,10.08,36,15.9,56.8,15.9s41.02-6.05,57.77-16.51l2.64,12.41h0Z"/>
  <path class="cls-2" d="m513.81,140.44v20.24c0,5.48,2.22,10.45,5.82,14.04s8.56,5.82,14.06,5.82c7.88,0,14.7-4.59,17.91-11.25.94-1.96,1.56-4.11,1.83-6.36.09-.75.13-1.49.13-2.25v-20.24c0-1.15-.1-2.32-.29-3.42-.82-4.68-3.27-8.78-6.74-11.72-2.37-2-5.2-3.46-8.33-4.19-1.46-.34-2.97-.51-4.52-.51-9.8,0-17.94,7.09-19.58,16.44-.19,1.11-.29,2.26-.29,3.42h0Zm14.48,3.13c0-2.48.86-4.75,2.29-6.55,1.93-2.41,4.89-3.96,8.23-3.96s6.28,1.56,8.2,3.96c1.45,1.8,2.31,4.06,2.31,6.55v13.98c0,2.89-1.17,5.52-3.08,7.42-1.91,1.9-4.53,3.08-7.42,3.08-5.82,0-10.52-4.7-10.52-10.51v-13.98Z"/>
  <path class="cls-17" d="m572.1,176.1c0-3.55-6.43-15.42-6.43-15.42,0,0-6.43,11.86-6.43,15.42s2.88,6.43,6.43,6.43,6.43-2.88,6.43-6.43Z"/>
  <path class="cls-17" d="m564.47,202.63c-7.74,0-14.89-3.14-19.77-6.49-1.56-1.07-1.83-3.29-.6-4.73l1.97-2.31-2.09,2.44.15-.16c1.07-1.26,2.89-1.49,4.25-.58,5.13,3.43,17.86,9.98,29.62.38,1.27-1.04,3.11-.91,4.27.25h0c1.36,1.36,1.21,3.59-.29,4.81-5.73,4.65-11.79,6.37-17.52,6.37v.03Z"/>
  <path class="cls-10" d="m584.97,64.97c-3.61,55.66-49.91,99.68-106.48,99.68-.79,0-1.59-.01-2.38-.03,0,0-28.86.86-32.34-5.9,0,0,.66-.09,1.78-.31,15.9-3.2,28.27-15.4,32.51-31.05,10.18-37.49,44.46-65.08,85.2-65.08,7.5,0,14.76.94,21.7,2.69Z"/>
  <path class="cls-10" d="m651.15,142.09c-5.96,2.26-12.42,3.49-19.17,3.49-28.2,0-51.37-21.55-53.96-49.08,3.83-9.88,6.24-20.49,6.96-31.53,35.62,9,62.63,39.64,66.18,77.12h0Z"/>
  <path class="cls-10" d="m652.16,141.42s2.54,25.15-18.35,25.97c0,0,10.68,4.68,17.02,0s15.71-19.42,1.33-25.97Z"/>
  <path class="cls-13" d="m878.12,171.81v-28.08c0-20.96-17.14-38.11-38.11-38.11h-113.69c-20.96,0-38.11,17.14-38.11,38.11v28.08h0c-8.42,0-15.24,6.82-15.24,15.24s6.82,15.24,15.24,15.24h0v66.2h189.9v-66.2c8.42,0,15.24-6.82,15.24-15.24s-6.82-15.24-15.24-15.24Z"/>
  <path class="cls-12" d="m754.94,105.61l-66.73,66.19v-28.08c0-20.96,17.14-38.11,38.11-38.11h28.62Z"/>
  <path class="cls-12" d="m811.39,105.61l66.73,66.19v-28.08c0-20.96-17.14-38.11-38.11-38.11h-28.62Z"/>
  <rect class="cls-2" x="799.07" y="154.68" width="41.72" height="62.94" rx="20.85" ry="20.85"/>
  <rect class="cls-18" x="803.52" y="167.78" width="22.07" height="36.74" rx="11.03" ry="11.03"/>
  <rect class="cls-2" x="733.36" y="154.68" width="41.72" height="62.94" rx="20.85" ry="20.85"/>
  <path class="cls-12" d="m847.27,85.35c-5.67,2.37-11.9,2.48-17.37,1.75-7.52-1.01-14.48-4.35-20.36-9.12-12.58-10.22-29.85-14.24-46.55-9.23-26.8,8.04-42.01,36.29-33.96,63.08,8.04,26.8,36.29,42.01,63.09,33.96,0,0,55.43-19.34,55.15-80.45Z"/>
  <path class="cls-8" d="m796.27,216.27c0-5.09-9.21-19.5-9.21-19.5,0,0-9.21,14.41-9.21,19.5s4.12,9.21,9.21,9.21,9.21-4.12,9.21-9.21Z"/>
  <path class="cls-18" d="m759.59,167.78h0c6.09,0,11.03,4.94,11.03,11.03v14.67c0,6.09-4.94,11.03-11.03,11.03h0c-6.09,0-11.03-4.94-11.03-11.03v-14.67c0-6.09,4.94-11.03,11.03-11.03Z"/>
  <path class="cls-8" d="m793.35,246.54c-3.29,0-6.41-.35-9.13-.9-1.87-.38-3.03-2.26-2.48-4.1v-.03c.48-1.58,2.08-2.57,3.7-2.26,7.15,1.38,25.83,3.04,33.86-14.8.68-1.51,2.43-2.23,3.99-1.68h0c1.8.63,2.65,2.67,1.86,4.4-6.82,15.1-20.38,19.36-31.79,19.36h0Z"/>
  <path class="cls-20" d="m892.39,284.96c0-8.31-6.24-15.22-14.27-16.32v-.17h-189.9v.17c-8.02,1.1-14.27,8-14.27,16.32s6.24,15.22,14.27,16.32v157.1h189.9v-157.1c8.02-1.1,14.27-8,14.27-16.32h0Z"/>
  <path class="cls-2" d="m758.49,301.2h0c3.49,0,6.31,2.83,6.31,6.31v38.45c0,3.49-2.83,6.31-6.31,6.31h0c-3.49,0-6.31-2.83-6.31-6.31v-38.45c0-3.49,2.83-6.31,6.31-6.31Z"/>
  <rect class="cls-2" x="802.31" y="301.2" width="12.63" height="51.08" rx="6.31" ry="6.31"/>
</svg>