<?xml version="1.0" encoding="UTF-8"?>
<svg id="Camada_1" data-name="Camada 1" xmlns="http://www.w3.org/2000/svg" viewBox="0 0 301.35 361.15">
  <defs>
    <style>
      .cls-1 {
        fill: #fff;
      }

      .cls-2 {
        fill: #be1622;
      }

      .cls-3 {
        fill: #7d4e24;
      }

      .cls-4 {
        fill: #b17f4a;
      }

      .cls-5 {
        fill: #ca9e67;
      }

      .cls-6 {
        fill: #c6c6c6;
      }

      .cls-7 {
        fill: #1d1d1b;
      }

      .cls-8 {
        fill: #936037;
      }
    </style>
  </defs>
  <path class="cls-6" d="m211.95,210.85l12.71,48.38-51.49,63.77-38.17,38.15h-23.15v-165.86c0-20.96,17.02-37.98,37.98-37.98h97.78l-35.66,53.54Z"/>
  <circle class="cls-2" cx="198.72" cy="167" r="35.94"/>
  <circle class="cls-8" cx="198.72" cy="167" r="25.94"/>
  <path class="cls-4" d="m301.35,114.37c0,8.7-7.05,15.75-15.75,15.75h-.02c-.59,25.76-21.84,46.66-47.75,46.66h-78.22c-25.5,0-46.49-20.24-47.7-45.45h-.06c-8.7,0-15.75-7.05-15.75-15.75s7.05-15.75,15.75-15.75v-41.14c0-19.7,16.11-35.81,35.81-35.81h102.13c19.7,0,35.81,16.11,35.81,35.81v39.93c8.7,0,15.75,7.05,15.75,15.75Z"/>
  <rect class="cls-1" x="209.87" y="62.66" width="38.79" height="58.52" rx="19.39" ry="19.39"/>
  <rect class="cls-3" x="214.01" y="74.84" width="20.52" height="34.16" rx="10.26" ry="10.26"/>
  <path class="cls-1" d="m187.58,82.05v19.74c0,10.71-8.69,19.39-19.39,19.39h0c-10.71,0-19.39-8.68-19.39-19.39v-19.74c0-10.71,8.68-19.39,19.39-19.39h0c10.7,0,19.39,8.68,19.39,19.39Z"/>
  <path class="cls-3" d="m173.17,74.84h0c5.67,0,10.26,4.59,10.26,10.26v13.64c0,5.67-4.59,10.26-10.26,10.26h0c-5.67,0-10.26-4.59-10.26-10.26v-13.64c0-5.67,4.59-10.26,10.26-10.26Z"/>
  <path class="cls-8" d="m207.41,123.5c0-4.73-8.56-18.13-8.56-18.13,0,0-8.56,13.4-8.56,18.13s3.83,8.56,8.56,8.56,8.56-3.83,8.56-8.56Z"/>
  <path class="cls-7" d="m249.62,41.01h-96.52c-4.89,0-8.89,4-8.89,8.89h0c0,4.89,4,8.89,8.89,8.89h96.52c4.89,0,8.89-4,8.89-8.89h0c0-4.89-4-8.89-8.89-8.89h0Z"/>
  <path class="cls-7" d="m230.82,161.43c-9.99,6.88-20.59,10.35-31.66,10.35-.48,0-.96,0-1.44-.02-12.61-.35-23.14-5.15-30.79-10.17-7.67-5.04-8.48-15.97-1.55-21.99l.63-.55c4.7-4.07,11.49-4.44,16.71-1.05.15.1.31.2.46.29.03.02.05.03.08.05,4.13,2.6,9.48,4.97,15.4,5.08,5.15.12,10.34-1.57,15.54-4.99.02,0,.03-.02.05-.03.1-.07.2-.13.29-.2,5.46-3.68,12.71-3.2,17.45,1.37l.58.55c6.3,6.06,5.44,16.36-1.75,21.31h0Z"/>
  <path class="cls-1" d="m214.25,138.4c-1.13,7.56-7.66,13.36-15.53,13.36s-14.46-5.85-15.54-13.47c.03.02.05.03.08.05,4.13,2.6,9.48,4.97,15.4,5.08,5.15.12,10.34-1.57,15.54-4.99.02,0,.03-.02.05-.03Z"/>
  <path class="cls-7" d="m112.94,36.26h0c4.65,0,8.43,3.77,8.43,8.43v46.72c0,4.66-3.77,8.43-8.43,8.43h0c-4.65,0-8.43-3.77-8.43-8.43v-46.72c0-4.66,3.77-8.43,8.43-8.43Z"/>
  <rect class="cls-7" x="277.17" y="36.26" width="16.85" height="63.58" rx="8.42" ry="8.42"/>
  <path class="cls-7" d="m196.81,0c14.74,0,27.19,7.67,32.77,11.76,1.74,1.27,1.99,3.77.54,5.36h0c-1.26,1.38-3.36,1.58-4.85.46-7.59-5.72-30.67-19.85-52.81-.41-1.45,1.27-3.63,1.24-4.99-.12l-.04-.04c-1.49-1.49-1.38-3.92.2-5.31C177.51,2.99,187.61,0,196.81,0Z"/>
  <circle class="cls-5" cx="22.6" cy="85.26" r="22.6"/>
</svg>