<?xml version="1.0" encoding="UTF-8"?>
<svg id="Camada_1" data-name="Camada 1" xmlns="http://www.w3.org/2000/svg" viewBox="0 0 380 85.5">
  <defs>
    <style>
      .cls-1 {
        fill: #50af43;
      }

      .cls-2 {
        fill: #fff;
      }

      .cls-3 {
        fill: #683c11;
      }

      .cls-4 {
        fill: #7d4e24;
      }

      .cls-5 {
        fill: #432918;
      }

      .cls-6 {
        fill: #b17f4a;
      }

      .cls-7 {
        fill: #936037;
      }
    </style>
  </defs>
  <rect class="cls-1" x="0" y="0" width="380" height="85.5" rx="42.75" ry="42.75"/>
  <path class="cls-6" d="m306.94,23.31c-.26.35-.49.72-.73,1.08,0,0-.01-.01-.02-.02l.75-1.06Z"/>
  <path class="cls-6" d="m366.29,42.75c0,18.15-14.71,32.86-32.86,32.86s-32.86-14.71-32.86-32.86c0-6.81,2.09-13.12,5.64-18.36,20.69,20.65,54.45-.02,54.45-.02v-.03c3.55,5.26,5.63,11.59,5.63,18.41Z"/>
  <path class="cls-2" d="m331.58,37.31v9.05c0,2.45-.99,4.67-2.6,6.28-.04.04-.09.09-.13.13-1.17,1.11-2.98.94-4.11-.21s-2.71-1.86-4.46-1.86c-.8,0-1.57.15-2.28.43-1.45.57-3.11-.23-3.65-1.68-.36-.96-.55-2-.55-3.09v-9.05c0-.18,0-.35.01-.53.28-4.64,4.17-8.36,8.88-8.36s8.6,3.72,8.88,8.36c.01.18.01.35.01.53Z"/>
  <path class="cls-3" d="m324.99,34h0c2.6,0,4.71,2.11,4.71,4.71v6.26c0,2.6-2.11,4.71-4.71,4.71h0c-2.6,0-4.71-2.11-4.71-4.71v-6.26c0-2.6,2.11-4.71,4.71-4.71Z"/>
  <path class="cls-2" d="m336.5,36.78c.28-4.65,4.16-8.36,8.87-8.36s8.6,3.72,8.88,8.36c.02.17.02.35.02.53v9.05c0,4.89-4,8.89-8.9,8.89-2.45,0-4.67-1-6.28-2.61-1.61-1.61-2.61-3.84-2.61-6.28v-9.05c0-.18,0-.35.02-.53Z"/>
  <path class="cls-3" d="m347.79,38.71v6.26c0,2.6-2.11,4.71-4.71,4.71h0c-2.6,0-4.71-2.11-4.71-4.71v-6.26c0-2.6,2.11-4.71,4.71-4.71h0c2.6,0,4.71,2.11,4.71,4.71Z"/>
  <path class="cls-4" d="m337.51,55.12c0-1.92-3.48-7.36-3.48-7.36,0,0-3.48,5.44-3.48,7.36s1.56,3.48,3.48,3.48,3.48-1.56,3.48-3.48Z"/>
  <path class="cls-5" d="m360.66,24.34v.03s-33.78,20.68-54.47,0l.75-1.06c5.97-8.14,15.61-13.42,26.49-13.42s21.32,5.73,27.23,14.45Z"/>
  <path class="cls-7" d="m335.57,63.46c-7.14-.43-12.82-4.2-14.89-5.76-.46-.35-.53-1.02-.15-1.45h0c.34-.4.93-.47,1.35-.15,1.88,1.41,7.23,4.96,13.78,5.37.54.03.97.47.96,1.01h0c0,.56-.48,1.02-1.04.99Z"/>
  <g>
    <path class="cls-2" d="m28.86,60.33l-4.39-16.81h3.46l2.93,13.13,3.43-13.13h3.6l3.34,13.13,2.95-13.13h3.51l-4.54,16.81h-3.87l-3.24-12.25-3.31,12.25h-3.87Z"/>
    <path class="cls-2" d="m52.51,60.62c-.99,0-1.82-.16-2.47-.49-.66-.33-1.15-.77-1.48-1.32s-.49-1.16-.49-1.84c0-.75.19-1.41.56-1.97.38-.56.95-1,1.72-1.31.77-.31,1.74-.47,2.93-.47h2.95c0-.61-.08-1.1-.23-1.49-.15-.38-.4-.67-.74-.86-.34-.19-.8-.29-1.36-.29-.61,0-1.12.13-1.55.38-.42.26-.68.66-.78,1.22h-3.15c.08-.88.36-1.63.85-2.26.49-.62,1.14-1.11,1.94-1.46.81-.35,1.71-.53,2.7-.53,1.14,0,2.13.19,2.97.56.84.38,1.48.93,1.92,1.66.44.73.66,1.61.66,2.65v7.52h-2.71l-.36-1.85c-.18.32-.39.61-.64.86-.25.26-.54.48-.86.67-.33.19-.68.34-1.07.44s-.82.16-1.32.16Zm.79-2.5c.4,0,.76-.08,1.09-.23.33-.15.61-.36.85-.64.24-.27.43-.58.58-.91.14-.34.24-.7.29-1.1v-.02h-2.47c-.51,0-.92.06-1.24.18-.31.12-.54.29-.68.52-.14.22-.22.48-.22.77,0,.3.07.56.22.78.14.22.36.38.64.49.28.11.6.17.95.17Z"/>
    <path class="cls-2" d="m62.48,60.33v-12.1h2.86l.22,1.99c.38-.7.92-1.26,1.6-1.67.68-.41,1.49-.61,2.44-.61,1.01,0,1.86.21,2.55.64.69.42,1.22,1.04,1.58,1.84.37.8.55,1.78.55,2.93v6.99h-3.24v-6.7c0-.94-.21-1.67-.62-2.19-.42-.51-1.05-.77-1.9-.77-.53,0-1,.13-1.43.38-.42.26-.76.62-1,1.09-.24.47-.36,1.05-.36,1.74v6.44h-3.24Z"/>
    <path class="cls-2" d="m82.74,60.33c-.83,0-1.57-.13-2.21-.4-.64-.26-1.14-.7-1.49-1.32-.35-.62-.53-1.46-.53-2.53v-5.14h-2.09v-2.71h2.09l.36-3.31h2.88v3.31h3.19v2.71h-3.19v5.19c0,.54.12.92.36,1.13.24.21.65.31,1.22.31h1.56v2.76h-2.16Z"/>
    <path class="cls-2" d="m92.64,60.62c-1.12,0-2.08-.18-2.89-.53-.81-.35-1.44-.84-1.91-1.45-.46-.62-.73-1.32-.79-2.12h3.24c.06.29.19.56.38.82.19.26.45.46.77.6s.7.22,1.15.22.79-.06,1.07-.18.49-.28.62-.49c.14-.21.2-.42.2-.65,0-.34-.1-.59-.3-.77-.2-.18-.48-.33-.85-.46-.37-.13-.82-.24-1.34-.34-.58-.11-1.14-.25-1.69-.42-.55-.17-1.04-.38-1.48-.65s-.78-.59-1.03-.98c-.26-.39-.38-.88-.38-1.48,0-.7.19-1.34.58-1.92s.95-1.03,1.69-1.37c.74-.34,1.62-.5,2.63-.5,1.47,0,2.63.33,3.48.98.85.66,1.35,1.56,1.51,2.71h-3.05c-.1-.38-.31-.68-.64-.89-.33-.21-.76-.31-1.31-.31s-1,.1-1.31.31c-.31.21-.47.47-.47.79,0,.22.1.42.3.6.2.18.48.33.85.46.37.13.82.25,1.34.36.93.19,1.74.41,2.45.66.7.25,1.26.6,1.66,1.06.4.46.6,1.12.6,1.98,0,.77-.21,1.45-.62,2.05-.42.6-1,1.07-1.76,1.4-.76.34-1.66.5-2.7.5Z"/>
    <path class="cls-2" d="m111.58,60.33c-.83,0-1.57-.13-2.21-.4-.64-.26-1.14-.7-1.49-1.32-.35-.62-.53-1.46-.53-2.53v-5.14h-2.09v-2.71h2.09l.36-3.31h2.88v3.31h3.19v2.71h-3.19v5.19c0,.54.12.92.36,1.13.24.21.65.31,1.22.31h1.56v2.76h-2.16Z"/>
    <path class="cls-2" d="m121.96,60.62c-1.17,0-2.21-.27-3.13-.8-.92-.54-1.65-1.28-2.19-2.23-.54-.95-.8-2.04-.8-3.28s.27-2.37.8-3.33c.54-.95,1.27-1.7,2.2-2.23.93-.54,1.98-.8,3.15-.8s2.21.27,3.12.8c.91.54,1.64,1.28,2.17,2.22.54.94.8,2.05.8,3.31s-.27,2.35-.8,3.3c-.54.95-1.26,1.7-2.19,2.23-.92.54-1.97.8-3.13.8Zm0-2.81c.51,0,.98-.13,1.4-.4.42-.26.77-.66,1.03-1.19s.4-1.18.4-1.95-.13-1.44-.38-1.96c-.26-.52-.59-.91-1.01-1.18-.42-.26-.88-.4-1.39-.4s-1.01.13-1.44.4c-.43.26-.78.66-1.03,1.18-.26.52-.38,1.17-.38,1.96s.12,1.42.37,1.95c.25.53.59.92,1.02,1.19s.9.4,1.42.4Z"/>
    <path class="cls-2" d="m134.25,65.62v-2.76h.98c.53,0,.9-.1,1.12-.31.22-.21.32-.54.32-1.01v-13.3h3.22v13.28c0,.99-.17,1.79-.52,2.39-.34.6-.82,1.04-1.44,1.31-.62.27-1.35.41-2.2.41h-1.49Zm4.06-19.04c-.59,0-1.07-.17-1.44-.52s-.55-.78-.55-1.31.18-.96.55-1.31.85-.52,1.44-.52,1.07.17,1.44.52c.37.34.55.78.55,1.31s-.18.96-.55,1.31c-.37.34-.85.52-1.44.52Z"/>
    <path class="cls-2" d="m148.87,60.62c-1.17,0-2.21-.27-3.13-.8-.92-.54-1.65-1.28-2.19-2.23-.54-.95-.8-2.04-.8-3.28s.27-2.37.8-3.33c.54-.95,1.27-1.7,2.2-2.23.93-.54,1.98-.8,3.15-.8s2.21.27,3.12.8c.91.54,1.64,1.28,2.17,2.22.54.94.8,2.05.8,3.31s-.27,2.35-.8,3.3c-.54.95-1.26,1.7-2.19,2.23-.92.54-1.97.8-3.13.8Zm0-2.81c.51,0,.98-.13,1.4-.4.42-.26.77-.66,1.03-1.19s.4-1.18.4-1.95-.13-1.44-.38-1.96c-.26-.52-.59-.91-1.01-1.18-.42-.26-.88-.4-1.39-.4s-1.01.13-1.44.4c-.43.26-.78.66-1.03,1.18-.26.52-.38,1.17-.38,1.96s.12,1.42.37,1.95c.25.53.59.92,1.02,1.19s.9.4,1.42.4Z"/>
    <path class="cls-2" d="m159.49,46.57c-.59,0-1.07-.17-1.44-.52-.37-.34-.55-.78-.55-1.31s.18-.96.55-1.31c.37-.34.85-.52,1.44-.52s1.08.17,1.45.52c.38.34.56.78.56,1.31s-.19.96-.56,1.31c-.38.34-.86.52-1.45.52Zm-1.63,13.76v-12.1h3.24v12.1h-3.24Z"/>
    <path class="cls-2" d="m164.36,60.33v-12.1h2.86l.22,1.99c.38-.7.92-1.26,1.6-1.67.68-.41,1.49-.61,2.44-.61,1.01,0,1.86.21,2.55.64.69.42,1.22,1.04,1.58,1.84.37.8.55,1.78.55,2.93v6.99h-3.24v-6.7c0-.94-.21-1.67-.62-2.19-.42-.51-1.05-.77-1.9-.77-.53,0-1,.13-1.43.38-.42.26-.76.62-1,1.09-.24.47-.36,1.05-.36,1.74v6.44h-3.24Z"/>
    <path class="cls-2" d="m186.38,65.62l2.93-6.63h-.72l-4.83-10.76h3.51l3.46,7.78,3.1-7.78h3.46l-7.47,17.39h-3.43Z"/>
    <path class="cls-2" d="m204.05,60.62c-1.17,0-2.21-.27-3.13-.8-.92-.54-1.65-1.28-2.19-2.23-.54-.95-.8-2.04-.8-3.28s.27-2.37.8-3.33c.54-.95,1.27-1.7,2.2-2.23.93-.54,1.98-.8,3.15-.8s2.21.27,3.12.8c.91.54,1.64,1.28,2.17,2.22.54.94.8,2.05.8,3.31s-.27,2.35-.8,3.3c-.54.95-1.26,1.7-2.19,2.23-.92.54-1.96.8-3.13.8Zm0-2.81c.51,0,.98-.13,1.4-.4s.77-.66,1.03-1.19c.26-.53.4-1.18.4-1.95s-.13-1.44-.38-1.96c-.26-.52-.59-.91-1.01-1.18-.42-.26-.88-.4-1.39-.4s-1.01.13-1.44.4c-.43.26-.78.66-1.03,1.18-.26.52-.38,1.17-.38,1.96s.12,1.42.37,1.95c.25.53.59.92,1.02,1.19.43.26.9.4,1.42.4Z"/>
    <path class="cls-2" d="m217.5,60.62c-.99,0-1.84-.2-2.53-.61s-1.22-1.01-1.58-1.8-.54-1.77-.54-2.94v-7.04h3.22v6.72c0,.98.2,1.71.61,2.2s1.04.73,1.88.73c.54,0,1.03-.12,1.45-.37.42-.25.76-.61,1-1.08s.36-1.04.36-1.72v-6.48h3.24v12.1h-2.86l-.24-1.97c-.37.69-.89,1.24-1.57,1.65-.68.41-1.49.61-2.44.61Z"/>
    <path class="cls-2" d="m227.75,60.33v-12.1h2.88l.29,2.21c.3-.51.68-.96,1.12-1.33.44-.38.94-.66,1.51-.86s1.2-.3,1.88-.3v3.43h-1.1c-.48,0-.92.05-1.33.16-.41.1-.76.29-1.07.55-.3.26-.54.61-.7,1.03-.16.42-.24.96-.24,1.62v5.59h-3.24Z"/>
    <path class="cls-2" d="m249.1,60.62c-1.22,0-2.3-.27-3.24-.82s-1.68-1.29-2.21-2.23-.79-2.02-.79-3.22c0-1.28.26-2.4.79-3.35.53-.95,1.26-1.7,2.21-2.25.94-.54,2.03-.82,3.24-.82,1.55,0,2.86.4,3.91,1.21,1.06.81,1.73,1.92,2.02,3.35h-3.43c-.14-.54-.44-.98-.89-1.31s-.99-.49-1.63-.49c-.56,0-1.06.14-1.5.43s-.78.7-1.03,1.22c-.25.53-.37,1.17-.37,1.92,0,.54.07,1.04.22,1.49.14.45.34.82.6,1.13.26.3.56.54.91.71.35.17.74.25,1.18.25s.8-.07,1.14-.22c.34-.14.64-.35.88-.62.24-.27.41-.59.5-.96h3.43c-.29,1.38-.96,2.48-2.03,3.31-1.06.83-2.37,1.25-3.9,1.25Z"/>
    <path class="cls-2" d="m257.82,60.33v-17.29h3.24v17.29h-3.24Z"/>
    <path class="cls-2" d="m268.77,60.62c-.99,0-1.84-.2-2.53-.61s-1.22-1.01-1.58-1.8-.54-1.77-.54-2.94v-7.04h3.22v6.72c0,.98.2,1.71.61,2.2s1.04.73,1.88.73c.54,0,1.03-.12,1.45-.37.42-.25.76-.61,1-1.08s.36-1.04.36-1.72v-6.48h3.24v12.1h-2.86l-.24-1.97c-.37.69-.89,1.24-1.57,1.65-.68.41-1.49.61-2.44.61Z"/>
    <path class="cls-2" d="m286.15,60.62c-.61,0-1.16-.08-1.66-.24-.5-.16-.92-.38-1.28-.65-.36-.27-.68-.59-.95-.96l-.36,1.56h-2.88v-17.29h3.24v6.89c.38-.58.89-1.05,1.53-1.43.63-.38,1.42-.56,2.37-.56,1.1,0,2.09.28,2.96.84.87.56,1.57,1.32,2.08,2.27.51.95.77,2.03.77,3.23s-.25,2.3-.76,3.25c-.5.95-1.19,1.7-2.07,2.26-.87.55-1.87.83-2.99.83Zm-.75-2.83c.62,0,1.18-.15,1.67-.44.49-.3.87-.7,1.15-1.22.28-.52.42-1.13.42-1.84s-.14-1.28-.42-1.81c-.28-.54-.67-.95-1.15-1.25-.49-.3-1.04-.44-1.67-.44s-1.18.15-1.67.44c-.49.3-.87.71-1.14,1.24-.27.53-.41,1.14-.41,1.85s.14,1.29.41,1.81c.27.52.65.93,1.14,1.22.49.3,1.04.44,1.67.44Z"/>
  </g>
  <g>
    <path class="cls-2" d="m27.28,31.5c-.84,0-1.58-.17-2.22-.5-.64-.33-1.14-.8-1.49-1.42-.36-.61-.53-1.33-.53-2.17s.14-1.63.43-2.36.69-1.36,1.21-1.9c.52-.54,1.14-.97,1.86-1.27.72-.3,1.52-.46,2.39-.46s1.65.17,2.3.51,1.16.81,1.52,1.42.54,1.31.54,2.11c0,.46-.05.92-.16,1.36-.11.44-.27.84-.49,1.19s-.48.63-.79.85-.67.32-1.08.32c-.48,0-.83-.15-1.04-.44s-.29-.68-.23-1.14l.04-.41.2.36c-.2.5-.52.9-.95,1.19-.43.29-.9.44-1.42.44-.6,0-1.07-.18-1.4-.55-.34-.37-.5-.87-.5-1.5,0-.44.07-.86.2-1.26.14-.4.33-.76.58-1.07s.55-.57.9-.75c.35-.18.74-.28,1.17-.28.49,0,.88.13,1.16.39.29.26.46.64.5,1.15l-.24.16.28-1.56h.85l-.6,3.44c-.06.34-.04.61.05.82s.29.32.58.32c.26,0,.48-.09.68-.28.2-.18.36-.42.49-.72.13-.3.23-.62.29-.96.06-.34.1-.68.1-1.01,0-.71-.15-1.32-.44-1.82-.3-.5-.72-.89-1.27-1.16-.55-.27-1.2-.41-1.95-.41s-1.39.13-2,.4c-.6.26-1.13.63-1.57,1.11s-.78,1.03-1.02,1.66c-.24.63-.36,1.31-.36,2.03s.15,1.36.44,1.87c.29.51.71.9,1.25,1.17s1.19.4,1.93.4c.34,0,.69-.03,1.03-.1s.66-.17.95-.31l.17.68c-.36.15-.74.26-1.13.34-.39.07-.8.11-1.21.11Zm.36-3.08c.34,0,.66-.09.94-.28.28-.18.51-.44.7-.76.18-.32.3-.7.34-1.13.04-.31.02-.6-.07-.85-.09-.26-.23-.46-.43-.62-.2-.16-.46-.23-.78-.23s-.59.07-.83.21c-.24.14-.44.33-.61.56-.17.23-.3.49-.38.78s-.13.58-.13.89c0,.43.11.78.32,1.04.22.26.53.4.95.4Z"/>
    <path class="cls-2" d="m35.08,29.11v-8.4h1.01v7.6h3.91v.8h-4.92Z"/>
    <path class="cls-2" d="m43.74,29.26c-.57,0-1.07-.13-1.51-.4s-.78-.63-1.03-1.11-.37-1.03-.37-1.66.12-1.2.37-1.67c.24-.47.59-.84,1.03-1.1.44-.26.95-.4,1.53-.4s1.09.13,1.51.4c.41.26.73.61.95,1.04.22.43.33.9.33,1.41v.25c0,.09,0,.19-.01.3h-4.94v-.78h3.97c-.02-.55-.21-.98-.55-1.3-.34-.31-.77-.47-1.28-.47-.34,0-.66.08-.95.23-.29.16-.53.38-.7.68-.18.3-.26.67-.26,1.12v.34c0,.5.09.91.27,1.25.18.34.42.59.71.76s.61.25.94.25c.42,0,.77-.09,1.05-.28.28-.19.47-.44.59-.76h1c-.1.36-.26.68-.5.97-.24.29-.54.51-.89.68s-.77.25-1.24.25Z"/>
    <path class="cls-2" d="m47.03,29.11l2.05-3.02-2.05-3.02h1.1l1.63,2.47,1.66-2.47h1.08l-2.05,3.02,2.05,3.02h-1.08l-1.66-2.48-1.63,2.48h-1.1Z"/>
    <path class="cls-2" d="m54.18,21.78c-.2,0-.37-.07-.5-.2-.13-.13-.2-.3-.2-.5s.07-.36.2-.49c.13-.12.3-.19.5-.19s.36.06.49.19c.14.12.2.29.2.49s-.07.37-.2.5c-.14.13-.3.2-.49.2Zm-.5,7.33v-6.05h1.01v6.05h-1.01Z"/>
    <path class="cls-2" d="m59.19,29.26c-.57,0-1.08-.13-1.53-.4-.45-.26-.81-.63-1.06-1.11-.26-.48-.38-1.03-.38-1.65s.13-1.2.38-1.67c.26-.48.61-.85,1.06-1.11.45-.26.96-.4,1.53-.4.72,0,1.32.19,1.8.56.48.37.78.87.91,1.49h-1.03c-.08-.38-.28-.67-.59-.88-.31-.21-.68-.31-1.1-.31-.34,0-.66.09-.96.26s-.53.43-.71.77c-.18.34-.26.77-.26,1.28,0,.38.05.71.16,1s.24.53.42.73c.18.19.38.34.62.44s.48.15.74.15c.28,0,.54-.05.77-.14.24-.1.43-.23.59-.41.16-.18.27-.39.32-.64h1.03c-.13.61-.43,1.1-.92,1.48s-1.08.57-1.79.57Z"/>
    <path class="cls-2" d="m65.3,29.26c-.49,0-.9-.09-1.22-.26-.33-.17-.57-.4-.73-.68-.16-.28-.24-.59-.24-.93,0-.41.11-.75.32-1.04.21-.28.51-.5.9-.65.39-.15.85-.22,1.37-.22h1.6c0-.38-.06-.69-.17-.94-.12-.25-.28-.44-.5-.57-.22-.13-.49-.19-.82-.19-.38,0-.72.1-1,.29-.28.19-.45.48-.52.85h-1.03c.05-.43.19-.79.44-1.09.24-.29.55-.52.93-.67.38-.16.77-.23,1.18-.23.56,0,1.03.1,1.4.31.37.2.65.49.83.85.18.36.28.79.28,1.29v3.74h-.9l-.06-1.07c-.08.17-.18.33-.31.47-.12.15-.27.28-.44.38s-.36.19-.57.26c-.21.06-.45.1-.73.1Zm.16-.85c.28,0,.53-.06.76-.17.23-.12.42-.28.58-.48.16-.2.28-.43.37-.68s.13-.51.13-.78v-.04h-1.51c-.39,0-.71.05-.95.14-.24.09-.41.22-.52.38-.1.16-.16.35-.16.56s.05.4.15.56.25.28.44.37c.2.09.43.13.7.13Z"/>
    <path class="cls-2" d="m69.86,29.11v-8.64h1.01v8.64h-1.01Z"/>
    <path class="cls-2" d="m72.55,25.99v-.85h4.75v.85h-4.75Z"/>
    <path class="cls-2" d="m82.7,29.26c-.78,0-1.47-.18-2.06-.55-.59-.36-1.05-.87-1.38-1.52s-.49-1.4-.49-2.27.17-1.61.5-2.27c.33-.66.8-1.17,1.42-1.54.61-.37,1.33-.55,2.17-.55.94,0,1.73.23,2.36.68.63.45,1.04,1.08,1.21,1.89h-1.16c-.11-.5-.38-.9-.79-1.2s-.96-.44-1.62-.44c-.62,0-1.15.14-1.61.41s-.81.67-1.06,1.18c-.25.51-.37,1.12-.37,1.84s.12,1.33.37,1.84c.25.52.59.91,1.04,1.18s.95.41,1.53.41c.9,0,1.57-.26,2.03-.79.46-.53.72-1.24.78-2.15h-2.42v-.79h3.46v4.49h-.92l-.08-1.38c-.2.33-.43.61-.69.83s-.57.4-.92.52c-.35.12-.77.17-1.26.17Z"/>
    <path class="cls-2" d="m90.77,29.26c-.57,0-1.07-.13-1.51-.4s-.78-.63-1.03-1.11-.37-1.03-.37-1.66.12-1.2.37-1.67c.24-.47.59-.84,1.03-1.1.44-.26.95-.4,1.53-.4s1.09.13,1.51.4c.41.26.73.61.95,1.04.22.43.33.9.33,1.41v.25c0,.09,0,.19-.01.3h-4.94v-.78h3.97c-.02-.55-.21-.98-.55-1.3-.34-.31-.77-.47-1.28-.47-.34,0-.66.08-.95.23-.29.16-.53.38-.7.68-.18.3-.26.67-.26,1.12v.34c0,.5.09.91.27,1.25.18.34.42.59.71.76s.61.25.94.25c.42,0,.77-.09,1.05-.28.28-.19.47-.44.59-.76h1c-.1.36-.26.68-.5.97-.24.29-.54.51-.89.68s-.77.25-1.24.25Z"/>
    <path class="cls-2" d="m94.93,29.11v-6.05h.91l.05,1.06c.19-.38.47-.67.82-.88s.76-.32,1.22-.32.88.09,1.22.28c.34.19.61.47.8.85.19.38.29.86.29,1.45v3.61h-1.01v-3.5c0-.61-.13-1.06-.4-1.37-.27-.3-.65-.46-1.13-.46-.34,0-.64.08-.9.25-.26.16-.47.4-.63.71-.16.31-.23.69-.23,1.15v3.23h-1.01Z"/>
    <path class="cls-2" d="m102.42,21.78c-.2,0-.37-.07-.5-.2-.13-.13-.2-.3-.2-.5s.07-.36.2-.49c.13-.12.3-.19.5-.19s.36.06.49.19c.14.12.2.29.2.49s-.07.37-.2.5c-.14.13-.3.2-.49.2Zm-.5,7.33v-6.05h1.01v6.05h-1.01Z"/>
    <path class="cls-2" d="m106.9,29.26c-.46,0-.87-.09-1.22-.28-.35-.18-.62-.47-.8-.85-.19-.38-.28-.86-.28-1.44v-3.62h1.01v3.52c0,.61.13,1.06.4,1.36.26.3.64.45,1.13.45.34,0,.64-.08.91-.25s.48-.4.64-.71c.16-.31.23-.69.23-1.13v-3.24h1.01v6.05h-.91l-.06-1.06c-.18.38-.46.67-.82.88-.36.21-.77.32-1.22.32Z"/>
    <path class="cls-2" d="m113.86,29.26c-.5,0-.94-.08-1.31-.25s-.67-.4-.89-.7c-.22-.3-.35-.65-.4-1.06h1.03c.04.21.12.4.25.58s.3.32.52.43c.22.11.49.16.81.16.28,0,.51-.04.7-.13.18-.08.32-.2.41-.34.09-.14.14-.3.14-.47,0-.25-.06-.44-.17-.56s-.29-.23-.51-.31c-.22-.08-.5-.14-.82-.2-.26-.05-.52-.11-.78-.19-.26-.08-.48-.19-.68-.32-.2-.13-.36-.29-.47-.49-.12-.19-.17-.43-.17-.71,0-.34.09-.65.26-.92.18-.27.43-.48.76-.63s.72-.23,1.16-.23c.65,0,1.17.16,1.57.47.4.31.64.76.71,1.36h-1c-.04-.3-.17-.54-.39-.71-.22-.17-.52-.26-.91-.26s-.66.08-.86.23c-.2.15-.29.35-.29.6,0,.16.05.3.16.43.11.12.27.23.48.32.21.09.47.16.79.22.4.07.76.17,1.09.29.33.12.59.3.8.53.2.24.31.57.31,1,0,.38-.09.7-.28.98-.19.28-.45.5-.8.65-.34.16-.75.23-1.21.23Z"/>
    <path class="cls-2" d="m120.68,29.26c-.61,0-1.12-.11-1.54-.34-.42-.23-.75-.53-1-.91s-.43-.81-.55-1.29-.17-.97-.17-1.46c0-.93.13-1.74.38-2.44.26-.7.63-1.25,1.11-1.64.48-.4,1.07-.59,1.75-.59.53,0,.98.1,1.36.31.38.2.68.48.91.82.22.34.36.73.41,1.15h-.94c-.08-.45-.27-.79-.58-1.04-.31-.24-.7-.37-1.17-.37-.42,0-.79.13-1.13.39-.34.26-.6.66-.8,1.19-.2.53-.31,1.21-.34,2.03v.08c.13-.25.31-.48.53-.7.23-.22.5-.39.82-.52.32-.13.68-.19,1.07-.19.47,0,.92.11,1.33.34.42.22.75.54,1.01.94.26.4.39.88.39,1.42,0,.47-.11.92-.34,1.36-.23.43-.56.78-.99,1.06-.43.27-.94.41-1.54.41Zm-.07-.89c.37,0,.7-.08.99-.25.29-.16.52-.39.68-.67.16-.28.25-.61.25-.97s-.08-.7-.25-.98c-.16-.28-.39-.5-.68-.65-.29-.16-.62-.23-.99-.23s-.7.08-1,.25-.53.39-.7.68c-.17.28-.26.6-.26.95s.09.68.26.97.41.51.7.67.63.24,1,.24Z"/>
    <path class="cls-2" d="m127.69,29.26c-.53,0-.98-.1-1.36-.31s-.67-.48-.89-.83c-.22-.35-.35-.73-.4-1.15h.94c.08.45.27.79.58,1.04.3.24.69.37,1.15.37.42,0,.8-.13,1.13-.38.33-.26.59-.65.8-1.17.2-.52.32-1.19.34-2v-.14c-.12.25-.3.48-.53.7-.23.22-.51.39-.82.52-.32.13-.67.19-1.06.19-.47,0-.92-.11-1.34-.34s-.76-.54-1.02-.94c-.26-.4-.39-.88-.39-1.42,0-.47.12-.92.35-1.36.23-.43.56-.78,1-1.06.43-.27.94-.41,1.54-.41s1.11.11,1.52.34.75.53,1,.91.43.81.55,1.29.17.97.17,1.46c0,.92-.13,1.73-.38,2.44-.25.7-.62,1.25-1.1,1.65-.48.4-1.07.59-1.76.59Zm.07-4.04c.37,0,.7-.08,1-.25s.53-.4.7-.68c.17-.29.26-.6.26-.95,0-.37-.09-.69-.26-.97-.17-.28-.41-.5-.7-.66s-.63-.24-1-.24-.7.08-.99.25c-.29.16-.52.39-.69.67-.17.28-.25.6-.25.97s.08.7.25.98c.17.28.4.5.69.65.29.16.62.23.99.23Z"/>
  </g>
</svg>