<?xml version="1.0" encoding="UTF-8"?>
<svg id="Camada_1" data-name="Camada 1" xmlns="http://www.w3.org/2000/svg" viewBox="0 0 234.33 198.89">
  <defs>
    <style>
      .cls-1 {
        fill: #e5a98d;
      }

      .cls-2 {
        fill: #ffee5a;
      }

      .cls-3 {
        fill: #ef86b5;
      }

      .cls-4 {
        fill: #7d4e24;
      }

      .cls-5 {
        fill: #dadada;
      }

      .cls-6 {
        fill: #c6c6c6;
      }

      .cls-7 {
        fill: #1d1d1b;
      }

      .cls-8 {
        fill: #936037;
      }
    </style>
  </defs>
  <g>
    <path class="cls-4" d="m41.33,35.01h79.1c9.7,0,17.57,7.87,17.57,17.57v104.98c0,14.71-11.94,26.65-26.65,26.65h-60.94c-14.71,0-26.65-11.94-26.65-26.65V52.58c0-9.7,7.87-17.57,17.57-17.57Z" transform="translate(-21.07 19.27) rotate(-12.03)"/>
    <path class="cls-5" d="m39.88,28.22h79.1c9.7,0,17.57,7.87,17.57,17.57v104.98c0,14.71-11.94,26.65-26.65,26.65h-60.94c-14.71,0-26.65-11.94-26.65-26.65V45.79c0-9.7,7.87-17.57,17.57-17.57Z" transform="translate(-19.69 18.82) rotate(-12.03)"/>
    <path class="cls-4" d="m38.4,21.24h79.1c9.7,0,17.57,7.87,17.57,17.57v104.98c0,14.71-11.94,26.65-26.65,26.65h-60.94c-14.71,0-26.65-11.94-26.65-26.65V38.81c0-9.7,7.87-17.57,17.57-17.57Z" transform="translate(-18.27 18.35) rotate(-12.03)"/>
    <rect class="cls-6" x="22.06" y="14.6" width="11.91" height="35.94" rx="5.95" ry="5.95" transform="translate(-6.17 6.55) rotate(-12.03)"/>
    <rect class="cls-6" x="45.3" y="9.65" width="11.91" height="35.94" rx="5.95" ry="5.95" transform="translate(-4.63 11.29) rotate(-12.03)"/>
    <rect class="cls-6" x="68.55" y="4.69" width="11.91" height="35.94" rx="5.95" ry="5.95" transform="translate(-3.09 16.03) rotate(-12.03)"/>
    <rect class="cls-6" x="91.8" y="-.26" width="11.91" height="35.94" rx="5.95" ry="5.95" transform="translate(-1.54 20.76) rotate(-12.03)"/>
    <rect class="cls-8" x="33.19" y="62" width="83.22" height="38.13" rx="12.14" ry="12.14" transform="translate(-15.25 17.37) rotate(-12.03)"/>
  </g>
  <path class="cls-1" d="m46.18,132.93l3.31-4.88c3.7-5.46,2.26-12.96-3.2-16.67l-1.69-1.15c-5.46-3.7-12.96-2.26-16.67,3.2l-2.68,3.95-5.7-21.55L1.66,154.28c-.1.32-.2.64-.3.97h0c-.89,3.03-1.37,6.24-1.37,9.56,0,18.82,15.26,34.09,34.09,34.09s34.09-15.26,34.09-34.09c0-14.57-9.14-26.99-21.99-31.87Z"/>
  <path class="cls-1" d="m175.12,69.71c-.03.07-.06.13-.09.2l-16.52,35.13-9.45,9.45c-1.67.19-3.41-.07-5.04-.84l-1.09-.52c-2.63-1.24-4.42-3.53-5.1-6.13-.56-2.07-.41-4.34.57-6.43l18.44-39.21c2.22-4.72,7.85-6.75,12.57-4.53l1.09.52c4.65,2.19,6.69,7.68,4.62,12.36Z"/>
  <polygon class="cls-2" points="226.91 36.64 135.98 127.57 126.62 118.21 137.83 107 175.12 69.71 217.54 27.28 226.91 36.64"/>
  <circle class="cls-1" cx="188.27" cy="79.62" r="36.26"/>
  <polygon class="cls-5" points="135.98 127.57 128.94 130.31 123.88 125.24 126.62 118.21 135.98 127.57"/>
  <polygon class="cls-7" points="128.94 130.31 120.64 133.54 123.88 125.24 128.94 130.31"/>
  <path class="cls-3" d="m224.13,20.9h5.05c2.26,0,4.1,1.84,4.1,4.1v9.15h-13.25v-9.15c0-2.26,1.84-4.1,4.1-4.1Z" transform="translate(85.85 -152.21) rotate(45)"/>
</svg>